M48
; DRILL file {KiCad 7.0.11+dfsg-1build4} date jue 29 ene 2026 22:08:17
; FORMAT={-:-/ absolute / metric / decimal}
; #@! TF.CreationDate,2026-01-29T22:08:17-05:00
; #@! TF.GenerationSoftware,Kicad,Pcbnew,7.0.11+dfsg-1build4
; #@! TF.FileFunction,Plated,1,2,PTH
FMAT,2
METRIC
; #@! TA.AperFunction,Plated,PTH,ViaDrill
T1C0.300
; #@! TA.AperFunction,Plated,PTH,ComponentDrill
T2C0.300
; #@! TA.AperFunction,Plated,PTH,ComponentDrill
T3C0.800
; #@! TA.AperFunction,Plated,PTH,ComponentDrill
T4C1.000
%
G90
G05
T1
X101.6Y-139.7
X104.14Y-136.525
X105.525Y-136.728
X108.585Y-140.97
X109.753Y-138.986
X109.855Y-149.2
X112.395Y-147.955
X113.665Y-144.613
X116.92Y-143.343
X119.38Y-128.27
X119.849Y-142.875
X120.65Y-142.875
X120.65Y-147.32
X120.68Y-144.914
X121.92Y-130.81
X123.825Y-149.2
X124.62Y-140.81
X125.725Y-140.965
X128.27Y-128.27
X128.903Y-143.427
X129.053Y-148.114
X129.083Y-145.415
X129.704Y-142.005
X129.9Y-148.564
X130.185Y-144.253
X130.829Y-147.273
X131.937Y-144.891
X132.08Y-129.54
X136.275Y-142.436
X138.688Y-142.266
X139.971Y-100.8
X140.87Y-142.35
X140.97Y-121.92
X140.97Y-149.2
X141.3Y-139.655
X141.57Y-130.175
X142.24Y-116.84
X142.24Y-119.38
X142.24Y-146.685
X142.354Y-143.661
X142.719Y-136.567
X142.875Y-107.281
X142.875Y-127.635
X142.947Y-125.167
X143.179Y-143.268
X143.978Y-139.705
X144.78Y-125.73
X145.32Y-127.082
X145.415Y-116.84
X145.794Y-110.911
X146.065Y-126.041
X148.058Y-136.567
X148.093Y-139.705
T2
X125.0Y-111.25
X125.0Y-135.75
X125.0Y-138.75
X129.5Y-116.25
T3
X120.27Y-123.7
X120.27Y-126.24
X129.72Y-123.7
X129.72Y-126.24
T4
X147.9Y-111.0
X147.9Y-113.54
X147.9Y-116.08
X147.9Y-118.62
X147.9Y-121.16
X147.9Y-123.7
X147.9Y-126.24
X147.9Y-128.78
X147.9Y-131.32
X147.9Y-133.86
M30
