%TF.GenerationSoftware,KiCad,Pcbnew,7.0.11+dfsg-1build4*%
%TF.CreationDate,2026-01-29T22:08:19-05:00*%
%TF.ProjectId,compact-nfc,636f6d70-6163-4742-9d6e-66632e6b6963,rev?*%
%TF.SameCoordinates,Original*%
%TF.FileFunction,Copper,L1,Top*%
%TF.FilePolarity,Positive*%
%FSLAX46Y46*%
G04 Gerber Fmt 4.6, Leading zero omitted, Abs format (unit mm)*
G04 Created by KiCad (PCBNEW 7.0.11+dfsg-1build4) date 2026-01-29 22:08:19*
%MOMM*%
%LPD*%
G01*
G04 APERTURE LIST*
G04 Aperture macros list*
%AMRoundRect*
0 Rectangle with rounded corners*
0 $1 Rounding radius*
0 $2 $3 $4 $5 $6 $7 $8 $9 X,Y pos of 4 corners*
0 Add a 4 corners polygon primitive as box body*
4,1,4,$2,$3,$4,$5,$6,$7,$8,$9,$2,$3,0*
0 Add four circle primitives for the rounded corners*
1,1,$1+$1,$2,$3*
1,1,$1+$1,$4,$5*
1,1,$1+$1,$6,$7*
1,1,$1+$1,$8,$9*
0 Add four rect primitives between the rounded corners*
20,1,$1+$1,$2,$3,$4,$5,0*
20,1,$1+$1,$4,$5,$6,$7,0*
20,1,$1+$1,$6,$7,$8,$9,0*
20,1,$1+$1,$8,$9,$2,$3,0*%
G04 Aperture macros list end*
%TA.AperFunction,EtchedComponent*%
%ADD10C,0.500000*%
%TD*%
%TA.AperFunction,SMDPad,CuDef*%
%ADD11RoundRect,0.250000X0.350000X0.450000X-0.350000X0.450000X-0.350000X-0.450000X0.350000X-0.450000X0*%
%TD*%
%TA.AperFunction,SMDPad,CuDef*%
%ADD12RoundRect,0.250000X0.337500X0.475000X-0.337500X0.475000X-0.337500X-0.475000X0.337500X-0.475000X0*%
%TD*%
%TA.AperFunction,SMDPad,CuDef*%
%ADD13RoundRect,0.250000X-0.350000X-0.450000X0.350000X-0.450000X0.350000X0.450000X-0.350000X0.450000X0*%
%TD*%
%TA.AperFunction,SMDPad,CuDef*%
%ADD14R,2.100000X1.800000*%
%TD*%
%TA.AperFunction,SMDPad,CuDef*%
%ADD15RoundRect,0.250000X-0.337500X-0.475000X0.337500X-0.475000X0.337500X0.475000X-0.337500X0.475000X0*%
%TD*%
%TA.AperFunction,SMDPad,CuDef*%
%ADD16R,1.400000X0.800000*%
%TD*%
%TA.AperFunction,SMDPad,CuDef*%
%ADD17RoundRect,0.250000X0.475000X-0.337500X0.475000X0.337500X-0.475000X0.337500X-0.475000X-0.337500X0*%
%TD*%
%TA.AperFunction,SMDPad,CuDef*%
%ADD18C,1.000000*%
%TD*%
%TA.AperFunction,ComponentPad*%
%ADD19C,0.600000*%
%TD*%
%TA.AperFunction,ComponentPad*%
%ADD20R,1.700000X1.700000*%
%TD*%
%TA.AperFunction,ComponentPad*%
%ADD21O,1.700000X1.700000*%
%TD*%
%TA.AperFunction,SMDPad,CuDef*%
%ADD22RoundRect,0.250000X0.362500X0.700000X-0.362500X0.700000X-0.362500X-0.700000X0.362500X-0.700000X0*%
%TD*%
%TA.AperFunction,SMDPad,CuDef*%
%ADD23RoundRect,0.062500X-0.062500X0.375000X-0.062500X-0.375000X0.062500X-0.375000X0.062500X0.375000X0*%
%TD*%
%TA.AperFunction,SMDPad,CuDef*%
%ADD24RoundRect,0.062500X-0.375000X0.062500X-0.375000X-0.062500X0.375000X-0.062500X0.375000X0.062500X0*%
%TD*%
%TA.AperFunction,HeatsinkPad*%
%ADD25R,4.100000X4.100000*%
%TD*%
%TA.AperFunction,SMDPad,CuDef*%
%ADD26RoundRect,0.250000X-0.475000X0.337500X-0.475000X-0.337500X0.475000X-0.337500X0.475000X0.337500X0*%
%TD*%
%TA.AperFunction,SMDPad,CuDef*%
%ADD27RoundRect,0.250000X-0.362500X-0.700000X0.362500X-0.700000X0.362500X0.700000X-0.362500X0.700000X0*%
%TD*%
%TA.AperFunction,WasherPad*%
%ADD28C,1.600000*%
%TD*%
%TA.AperFunction,ComponentPad*%
%ADD29RoundRect,0.340500X0.659500X-0.409500X0.659500X0.409500X-0.659500X0.409500X-0.659500X-0.409500X0*%
%TD*%
%TA.AperFunction,ComponentPad*%
%ADD30O,2.000000X1.500000*%
%TD*%
%TA.AperFunction,SMDPad,CuDef*%
%ADD31RoundRect,0.150000X0.150000X-0.587500X0.150000X0.587500X-0.150000X0.587500X-0.150000X-0.587500X0*%
%TD*%
%TA.AperFunction,ViaPad*%
%ADD32C,0.600000*%
%TD*%
%TA.AperFunction,Conductor*%
%ADD33C,0.200000*%
%TD*%
G04 APERTURE END LIST*
D10*
%TO.C,L_pcb1*%
X111250000Y-111250000D02*
X111250000Y-138750000D01*
X111250000Y-111250000D02*
X125000000Y-111250000D01*
X111250000Y-138750000D02*
X119600000Y-138750000D01*
X112250000Y-112250000D02*
X112250000Y-137750000D01*
X112250000Y-112250000D02*
X126000000Y-112250000D01*
X112250000Y-137750000D02*
X137750000Y-137750000D01*
X113250000Y-113250000D02*
X113250000Y-136750000D01*
X113250000Y-113250000D02*
X126500000Y-113250000D01*
X113250000Y-136750000D02*
X136750000Y-136750000D01*
X114250000Y-114250000D02*
X114250000Y-135750000D01*
X114250000Y-114250000D02*
X127000000Y-114250000D01*
X114250000Y-135750000D02*
X135750000Y-135750000D01*
X115250000Y-115250000D02*
X115250000Y-134750000D01*
X115250000Y-115250000D02*
X127500000Y-115250000D01*
X115250000Y-134750000D02*
X134750000Y-134750000D01*
X116250000Y-116250000D02*
X116250000Y-133750000D01*
X116250000Y-116250000D02*
X128000000Y-116250000D01*
X116250000Y-133750000D02*
X133750000Y-133750000D01*
X125000000Y-138750000D02*
X125000000Y-139200000D01*
X126000000Y-112250000D02*
X127000000Y-111250000D01*
X126500000Y-113250000D02*
X127500000Y-112250000D01*
X127000000Y-114250000D02*
X128000000Y-113250000D01*
X127500000Y-115250000D02*
X128500000Y-114250000D01*
X128000000Y-116250000D02*
X129000000Y-115250000D01*
X130400000Y-138750000D02*
X138750000Y-138750000D01*
X133750000Y-116250000D02*
X129500000Y-116250000D01*
X133750000Y-116250000D02*
X133750000Y-133750000D01*
X134750000Y-115250000D02*
X129000000Y-115250000D01*
X134750000Y-115250000D02*
X134750000Y-134750000D01*
X135750000Y-114250000D02*
X128500000Y-114250000D01*
X135750000Y-114250000D02*
X135750000Y-135750000D01*
X136750000Y-113250000D02*
X128000000Y-113250000D01*
X136750000Y-113250000D02*
X136750000Y-136750000D01*
X137750000Y-112250000D02*
X127500000Y-112250000D01*
X137750000Y-112250000D02*
X137750000Y-137750000D01*
X138750000Y-111250000D02*
X127000000Y-111250000D01*
X138750000Y-111250000D02*
X138750000Y-138750000D01*
%TD*%
D11*
%TO.P,R7,1*%
%TO.N,Net-(U2-I1)*%
X103200000Y-135500000D03*
%TO.P,R7,2*%
%TO.N,GND*%
X101200000Y-135500000D03*
%TD*%
D12*
%TO.P,C5,1*%
%TO.N,Net-(C3-Pad1)*%
X115037500Y-140650000D03*
%TO.P,C5,2*%
%TO.N,GND*%
X112962500Y-140650000D03*
%TD*%
D11*
%TO.P,R2,1*%
%TO.N,Net-(C8-Pad1)*%
X133000000Y-148500000D03*
%TO.P,R2,2*%
%TO.N,Net-(C3-Pad1)*%
X131000000Y-148500000D03*
%TD*%
%TO.P,R8,1*%
%TO.N,Net-(U2-I0)*%
X103200000Y-138000000D03*
%TO.P,R8,2*%
%TO.N,GND*%
X101200000Y-138000000D03*
%TD*%
D13*
%TO.P,R4,1*%
%TO.N,/RSTPD_N*%
X146900000Y-140800000D03*
%TO.P,R4,2*%
%TO.N,GND*%
X148900000Y-140800000D03*
%TD*%
D11*
%TO.P,R11,1*%
%TO.N,/SENS_LED*%
X121300000Y-129700000D03*
%TO.P,R11,2*%
%TO.N,Net-(R11-Pad2)*%
X119300000Y-129700000D03*
%TD*%
D14*
%TO.P,Y1,1,1*%
%TO.N,Net-(U2-OSCIN)*%
X114300000Y-148450000D03*
%TO.P,Y1,2,2*%
%TO.N,GND*%
X117200000Y-148450000D03*
%TO.P,Y1,3,3*%
%TO.N,Net-(U2-OSCOUT)*%
X117200000Y-146150000D03*
%TO.P,Y1,4,4*%
%TO.N,GND*%
X114300000Y-146150000D03*
%TD*%
D15*
%TO.P,C1,1*%
%TO.N,Net-(C1-Pad1)*%
X121222500Y-139500000D03*
%TO.P,C1,2*%
%TO.N,GND*%
X123297500Y-139500000D03*
%TD*%
%TO.P,C2,1*%
%TO.N,GND*%
X126702500Y-139500000D03*
%TO.P,C2,2*%
%TO.N,Net-(C2-Pad2)*%
X128777500Y-139500000D03*
%TD*%
D12*
%TO.P,C4,1*%
%TO.N,Net-(C4-Pad1)*%
X133037500Y-140650000D03*
%TO.P,C4,2*%
%TO.N,Net-(C2-Pad2)*%
X130962500Y-140650000D03*
%TD*%
D11*
%TO.P,R6,1*%
%TO.N,+3.3V*%
X107200000Y-138000000D03*
%TO.P,R6,2*%
%TO.N,Net-(U2-I0)*%
X105200000Y-138000000D03*
%TD*%
D16*
%TO.P,D1,1,RK*%
%TO.N,Net-(D1-RK)*%
X134200000Y-103800000D03*
%TO.P,D1,2,A*%
%TO.N,VCC*%
X139800000Y-103800000D03*
%TO.P,D1,3,GK*%
%TO.N,Net-(D1-GK)*%
X134200000Y-102200000D03*
%TO.P,D1,4,BK*%
%TO.N,Net-(D1-BK)*%
X139800000Y-102200000D03*
%TD*%
D17*
%TO.P,C13,1*%
%TO.N,+3.3V*%
X109000000Y-144437500D03*
%TO.P,C13,2*%
%TO.N,GND*%
X109000000Y-142362500D03*
%TD*%
D18*
%TO.P,L_pcb1,1,1*%
%TO.N,Net-(C1-Pad1)*%
X119600000Y-138750000D03*
%TO.P,L_pcb1,2,2*%
%TO.N,GND*%
X125000000Y-139700000D03*
%TO.P,L_pcb1,3,3*%
%TO.N,Net-(C2-Pad2)*%
X130400000Y-138750000D03*
D19*
%TO.P,L_pcb1,B*%
%TO.N,N/C*%
X125000000Y-111250000D03*
X129500000Y-116250000D03*
%TO.P,L_pcb1,G*%
X125000000Y-135750000D03*
X125000000Y-138750000D03*
%TD*%
D15*
%TO.P,C12,1*%
%TO.N,VCC*%
X138912500Y-143700000D03*
%TO.P,C12,2*%
%TO.N,GND*%
X140987500Y-143700000D03*
%TD*%
D20*
%TO.P,J1,1,Pin_1*%
%TO.N,Net-(J1-Pin_1)*%
X147900000Y-111000000D03*
D21*
%TO.P,J1,2,Pin_2*%
%TO.N,Net-(J1-Pin_2)*%
X147900000Y-113540000D03*
%TO.P,J1,3,Pin_3*%
%TO.N,VCC*%
X147900000Y-116080000D03*
%TO.P,J1,4,Pin_4*%
%TO.N,GND*%
X147900000Y-118620000D03*
%TO.P,J1,5,Pin_5*%
%TO.N,/SENS_DET*%
X147900000Y-121160000D03*
%TO.P,J1,6,Pin_6*%
%TO.N,/SENS_LED*%
X147900000Y-123700000D03*
%TO.P,J1,7,Pin_7*%
%TO.N,/RSTPD_N*%
X147900000Y-126240000D03*
%TO.P,J1,8,Pin_8*%
%TO.N,/LED_KR*%
X147900000Y-128780000D03*
%TO.P,J1,9,Pin_9*%
%TO.N,/LED_KG*%
X147900000Y-131320000D03*
%TO.P,J1,10,Pin_10*%
%TO.N,/LED_KB*%
X147900000Y-133860000D03*
%TD*%
D11*
%TO.P,R13,1*%
%TO.N,/LED_KR*%
X145000000Y-130400000D03*
%TO.P,R13,2*%
%TO.N,Net-(D1-RK)*%
X143000000Y-130400000D03*
%TD*%
D13*
%TO.P,R9,1*%
%TO.N,+3.3V*%
X142900000Y-138500000D03*
%TO.P,R9,2*%
%TO.N,Net-(Q2-S)*%
X144900000Y-138500000D03*
%TD*%
D22*
%TO.P,L1,1,1*%
%TO.N,Net-(U2-TX2)*%
X118162500Y-143000000D03*
%TO.P,L1,2,2*%
%TO.N,Net-(C3-Pad1)*%
X114837500Y-143000000D03*
%TD*%
D23*
%TO.P,U2,1,DVSS*%
%TO.N,GND*%
X127250000Y-142240000D03*
%TO.P,U2,2,LOADMOD*%
%TO.N,unconnected-(U2-LOADMOD-Pad2)*%
X126750000Y-142240000D03*
%TO.P,U2,3,TVSS1*%
%TO.N,GND*%
X126250000Y-142240000D03*
%TO.P,U2,4,TX1*%
%TO.N,Net-(U2-TX1)*%
X125750000Y-142240000D03*
%TO.P,U2,5,TVDD*%
%TO.N,+3.3V*%
X125250000Y-142240000D03*
%TO.P,U2,6,TX2*%
%TO.N,Net-(U2-TX2)*%
X124750000Y-142240000D03*
%TO.P,U2,7,TVSS2*%
%TO.N,GND*%
X124250000Y-142240000D03*
%TO.P,U2,8,AVDD*%
%TO.N,+3.3V*%
X123750000Y-142240000D03*
%TO.P,U2,9,VMID*%
%TO.N,Net-(U2-VMID)*%
X123250000Y-142240000D03*
%TO.P,U2,10,RX*%
%TO.N,Net-(U2-RX)*%
X122750000Y-142240000D03*
D24*
%TO.P,U2,11,AVSS*%
%TO.N,GND*%
X122062500Y-142927500D03*
%TO.P,U2,12,AUX1*%
%TO.N,/AUX1*%
X122062500Y-143427500D03*
%TO.P,U2,13,AUX2*%
%TO.N,/AUX2*%
X122062500Y-143927500D03*
%TO.P,U2,14,OSCIN*%
%TO.N,Net-(U2-OSCIN)*%
X122062500Y-144427500D03*
%TO.P,U2,15,OSCOUT*%
%TO.N,Net-(U2-OSCOUT)*%
X122062500Y-144927500D03*
%TO.P,U2,16,I0*%
%TO.N,Net-(U2-I0)*%
X122062500Y-145427500D03*
%TO.P,U2,17,I1*%
%TO.N,Net-(U2-I1)*%
X122062500Y-145927500D03*
%TO.P,U2,18,TESTEN*%
%TO.N,GND*%
X122062500Y-146427500D03*
%TO.P,U2,19,P35*%
%TO.N,unconnected-(U2-P35-Pad19)*%
X122062500Y-146927500D03*
%TO.P,U2,20,N.C.*%
%TO.N,unconnected-(U2-N.C.-Pad20)*%
X122062500Y-147427500D03*
D23*
%TO.P,U2,21,N.C.*%
%TO.N,unconnected-(U2-N.C.-Pad21)*%
X122750000Y-148115000D03*
%TO.P,U2,22,N.C.*%
%TO.N,unconnected-(U2-N.C.-Pad22)*%
X123250000Y-148115000D03*
%TO.P,U2,23,PVDD*%
%TO.N,+3.3V*%
X123750000Y-148115000D03*
%TO.P,U2,24,P30/UART_RX*%
%TO.N,/UART_RX*%
X124250000Y-148115000D03*
%TO.P,U2,25,P70_IRQ*%
%TO.N,/IRQ*%
X124750000Y-148115000D03*
%TO.P,U2,26,~{RSTOUT}*%
%TO.N,unconnected-(U2-~{RSTOUT}-Pad26)*%
X125250000Y-148115000D03*
%TO.P,U2,27,NSS/P50_SCL/HSU_RX*%
%TO.N,Net-(Q1-S)*%
X125750000Y-148115000D03*
%TO.P,U2,28,MOSI/SDA/HSU_TX*%
%TO.N,Net-(Q2-S)*%
X126250000Y-148115000D03*
%TO.P,U2,29,MISO/P71*%
%TO.N,/CIPO*%
X126750000Y-148115000D03*
%TO.P,U2,30,SCK/P72*%
%TO.N,/SCK*%
X127250000Y-148115000D03*
D24*
%TO.P,U2,31,P31/UART_TX*%
%TO.N,/UART_TX*%
X127937500Y-147427500D03*
%TO.P,U2,32,P32_INT0*%
%TO.N,unconnected-(U2-P32_INT0-Pad32)*%
X127937500Y-146927500D03*
%TO.P,U2,33,P33_INT1*%
%TO.N,unconnected-(U2-P33_INT1-Pad33)*%
X127937500Y-146427500D03*
%TO.P,U2,34,SIC_CLK/P34*%
%TO.N,unconnected-(U2-SIC_CLK{slash}P34-Pad34)*%
X127937500Y-145927500D03*
%TO.P,U2,35,SIGOUT*%
%TO.N,unconnected-(U2-SIGOUT-Pad35)*%
X127937500Y-145427500D03*
%TO.P,U2,36,SIGIN*%
%TO.N,unconnected-(U2-SIGIN-Pad36)*%
X127937500Y-144927500D03*
%TO.P,U2,37,SVDD*%
%TO.N,unconnected-(U2-SVDD-Pad37)*%
X127937500Y-144427500D03*
%TO.P,U2,38,~{RSTPD}*%
%TO.N,/RSTPD_N*%
X127937500Y-143927500D03*
%TO.P,U2,39,DVDD*%
%TO.N,+3.3V*%
X127937500Y-143427500D03*
%TO.P,U2,40,VBAT*%
%TO.N,VCC*%
X127937500Y-142927500D03*
D25*
%TO.P,U2,41,AVSS*%
%TO.N,GND*%
X125000000Y-145177500D03*
%TD*%
D17*
%TO.P,C17,1*%
%TO.N,GND*%
X119800000Y-148337500D03*
%TO.P,C17,2*%
%TO.N,Net-(U2-OSCOUT)*%
X119800000Y-146262500D03*
%TD*%
D12*
%TO.P,C6,1*%
%TO.N,GND*%
X137037500Y-140650000D03*
%TO.P,C6,2*%
%TO.N,Net-(C4-Pad1)*%
X134962500Y-140650000D03*
%TD*%
%TO.P,C14,1*%
%TO.N,+3.3V*%
X140987500Y-146000000D03*
%TO.P,C14,2*%
%TO.N,GND*%
X138912500Y-146000000D03*
%TD*%
D26*
%TO.P,C16,1*%
%TO.N,GND*%
X111700000Y-146262500D03*
%TO.P,C16,2*%
%TO.N,Net-(U2-OSCIN)*%
X111700000Y-148337500D03*
%TD*%
D15*
%TO.P,C3,1*%
%TO.N,Net-(C3-Pad1)*%
X116962500Y-140650000D03*
%TO.P,C3,2*%
%TO.N,Net-(C1-Pad1)*%
X119037500Y-140650000D03*
%TD*%
D11*
%TO.P,R15,1*%
%TO.N,/LED_KB*%
X145000000Y-134620000D03*
%TO.P,R15,2*%
%TO.N,Net-(D1-BK)*%
X143000000Y-134620000D03*
%TD*%
D15*
%TO.P,C9,1*%
%TO.N,+3.3V*%
X107145000Y-140300000D03*
%TO.P,C9,2*%
%TO.N,GND*%
X109220000Y-140300000D03*
%TD*%
D27*
%TO.P,L2,1,1*%
%TO.N,Net-(U2-TX1)*%
X131837500Y-143000000D03*
%TO.P,L2,2,2*%
%TO.N,Net-(C4-Pad1)*%
X135162500Y-143000000D03*
%TD*%
D13*
%TO.P,R10,1*%
%TO.N,+3.3V*%
X146900000Y-138500000D03*
%TO.P,R10,2*%
%TO.N,Net-(Q1-S)*%
X148900000Y-138500000D03*
%TD*%
D28*
%TO.P,U1,*%
%TO.N,*%
X130045000Y-117770000D03*
D29*
%TO.P,U1,1*%
%TO.N,Net-(R11-Pad2)*%
X120270000Y-123700000D03*
D30*
%TO.P,U1,2*%
%TO.N,GND*%
X120270000Y-126240000D03*
%TO.P,U1,3*%
%TO.N,/SENS_DET*%
X129720000Y-126240000D03*
%TO.P,U1,4*%
%TO.N,GND*%
X129720000Y-123700000D03*
%TD*%
D15*
%TO.P,C8,1*%
%TO.N,Net-(C8-Pad1)*%
X134962500Y-148500000D03*
%TO.P,C8,2*%
%TO.N,Net-(U2-RX)*%
X137037500Y-148500000D03*
%TD*%
D11*
%TO.P,R5,1*%
%TO.N,+3.3V*%
X107200000Y-135500000D03*
%TO.P,R5,2*%
%TO.N,Net-(U2-I1)*%
X105200000Y-135500000D03*
%TD*%
D12*
%TO.P,C7,1*%
%TO.N,GND*%
X137037500Y-146000000D03*
%TO.P,C7,2*%
%TO.N,Net-(U2-VMID)*%
X134962500Y-146000000D03*
%TD*%
D17*
%TO.P,C10,1*%
%TO.N,+3.3V*%
X111050000Y-144437500D03*
%TO.P,C10,2*%
%TO.N,GND*%
X111050000Y-142362500D03*
%TD*%
D13*
%TO.P,R1,1*%
%TO.N,Net-(U2-RX)*%
X131000000Y-146000000D03*
%TO.P,R1,2*%
%TO.N,Net-(U2-VMID)*%
X133000000Y-146000000D03*
%TD*%
D31*
%TO.P,Q1,1,G*%
%TO.N,+3.3V*%
X143050000Y-110937500D03*
%TO.P,Q1,2,S*%
%TO.N,Net-(Q1-S)*%
X144950000Y-110937500D03*
%TO.P,Q1,3,D*%
%TO.N,Net-(J1-Pin_1)*%
X144000000Y-109062500D03*
%TD*%
D17*
%TO.P,C11,1*%
%TO.N,+3.3V*%
X109000000Y-148537500D03*
%TO.P,C11,2*%
%TO.N,GND*%
X109000000Y-146462500D03*
%TD*%
D31*
%TO.P,Q2,1,G*%
%TO.N,+3.3V*%
X143050000Y-114937500D03*
%TO.P,Q2,2,S*%
%TO.N,Net-(Q2-S)*%
X144950000Y-114937500D03*
%TO.P,Q2,3,D*%
%TO.N,Net-(J1-Pin_2)*%
X144000000Y-113062500D03*
%TD*%
D11*
%TO.P,R14,1*%
%TO.N,/LED_KG*%
X145000000Y-132500000D03*
%TO.P,R14,2*%
%TO.N,Net-(D1-GK)*%
X143000000Y-132500000D03*
%TD*%
D13*
%TO.P,R12,1*%
%TO.N,/SENS_DET*%
X128500000Y-129700000D03*
%TO.P,R12,2*%
%TO.N,VCC*%
X130500000Y-129700000D03*
%TD*%
%TO.P,R3,1*%
%TO.N,VCC*%
X142900000Y-140800000D03*
%TO.P,R3,2*%
%TO.N,/RSTPD_N*%
X144900000Y-140800000D03*
%TD*%
D12*
%TO.P,C15,1*%
%TO.N,+3.3V*%
X140987500Y-148500000D03*
%TO.P,C15,2*%
%TO.N,GND*%
X138912500Y-148500000D03*
%TD*%
D32*
%TO.N,GND*%
X101600000Y-139700000D03*
X108585000Y-140970000D03*
%TO.N,Net-(R11-Pad2)*%
X119380000Y-128270000D03*
%TO.N,/SENS_LED*%
X121920000Y-130810000D03*
%TO.N,+3.3V*%
X123825000Y-149200000D03*
X128902600Y-143427500D03*
X140970000Y-149200000D03*
X109855000Y-149200000D03*
X142947265Y-125167265D03*
X109753300Y-138986200D03*
X124620265Y-140809735D03*
X142718500Y-136567000D03*
X146065000Y-126040800D03*
X142353800Y-143660900D03*
%TO.N,VCC*%
X144780000Y-125730000D03*
X141299700Y-139654700D03*
X138688300Y-142266100D03*
X132080000Y-129540000D03*
X142240000Y-116840000D03*
X145415000Y-116840000D03*
%TO.N,Net-(U2-OSCIN)*%
X113665000Y-144613300D03*
X112395000Y-147955000D03*
%TO.N,Net-(Q1-S)*%
X129052965Y-148113965D03*
X145794300Y-110910900D03*
X148092800Y-139705200D03*
%TO.N,/SENS_DET*%
X128270000Y-128270000D03*
%TO.N,Net-(Q2-S)*%
X143978300Y-139705200D03*
X145320400Y-127082200D03*
X129900000Y-148564400D03*
X143179000Y-143268400D03*
X142240000Y-146685000D03*
%TO.N,/RSTPD_N*%
X140870400Y-142349800D03*
X130184700Y-144253200D03*
%TO.N,Net-(U2-I1)*%
X120650000Y-147320000D03*
X105525200Y-136728300D03*
%TO.N,Net-(U2-I0)*%
X104140000Y-136525000D03*
X120680500Y-144914144D03*
%TO.N,GND*%
X136275000Y-142435743D03*
X129704100Y-142005300D03*
X140970000Y-121920000D03*
X125724735Y-140964735D03*
%TO.N,Net-(C3-Pad1)*%
X130828700Y-147273500D03*
X116919765Y-143342635D03*
%TO.N,Net-(U2-VMID)*%
X119848900Y-142875000D03*
X131936800Y-144891300D03*
%TO.N,Net-(U2-RX)*%
X129083386Y-145415000D03*
X120650000Y-142875000D03*
%TO.N,Net-(D1-GK)*%
X139971000Y-100800000D03*
X142240000Y-119380000D03*
X142875000Y-127635000D03*
X141570000Y-130175000D03*
%TO.N,Net-(D1-BK)*%
X148057600Y-136567000D03*
X142875000Y-107281500D03*
%TD*%
D33*
%TO.N,GND*%
X101600000Y-139700000D02*
X100965000Y-139065000D01*
X100965000Y-139065000D02*
X100965000Y-138235000D01*
X100965000Y-138235000D02*
X101200000Y-138000000D01*
X109220000Y-140300000D02*
X109220000Y-140335000D01*
X109220000Y-140335000D02*
X108585000Y-140970000D01*
%TO.N,Net-(U2-OSCIN)*%
X113665000Y-144613300D02*
X113831700Y-144780000D01*
X113831700Y-144780000D02*
X118331529Y-144780000D01*
X118331529Y-144780000D02*
X119601529Y-143510000D01*
X119601529Y-143510000D02*
X120690571Y-143510000D01*
X120690571Y-143510000D02*
X121608071Y-144427500D01*
X121608071Y-144427500D02*
X122062500Y-144427500D01*
%TO.N,GND*%
X114300000Y-146150000D02*
X115651900Y-146150000D01*
X115651900Y-146150000D02*
X115651900Y-148253800D01*
X115651900Y-148253800D02*
X115848100Y-148450000D01*
X117200000Y-148450000D02*
X115848100Y-148450000D01*
%TO.N,Net-(U2-OSCIN)*%
X112395000Y-147955000D02*
X112082500Y-147955000D01*
X112082500Y-147955000D02*
X111700000Y-148337500D01*
%TO.N,Net-(J1-Pin_1)*%
X144810600Y-109062500D02*
X146748100Y-111000000D01*
X144000000Y-109062500D02*
X144810600Y-109062500D01*
X147900000Y-111000000D02*
X146748100Y-111000000D01*
%TO.N,Net-(R11-Pad2)*%
X119300000Y-128350000D02*
X119300000Y-129700000D01*
X119380000Y-128270000D02*
X119300000Y-128350000D01*
%TO.N,Net-(J1-Pin_2)*%
X146270600Y-113062500D02*
X144000000Y-113062500D01*
X147900000Y-113540000D02*
X146748100Y-113540000D01*
X146748100Y-113540000D02*
X146270600Y-113062500D01*
%TO.N,/SENS_LED*%
X121300000Y-129700000D02*
X121300000Y-130190000D01*
X121300000Y-130190000D02*
X121920000Y-130810000D01*
%TO.N,+3.3V*%
X109192500Y-148537500D02*
X109855000Y-149200000D01*
X142353800Y-144633700D02*
X142353800Y-143660900D01*
X107145000Y-142582500D02*
X109000000Y-144437500D01*
X125250000Y-141439470D02*
X125250000Y-142240000D01*
X140987500Y-149182500D02*
X140970000Y-149200000D01*
X107481300Y-145720700D02*
X107481300Y-147232400D01*
X143960400Y-137439600D02*
X145839600Y-137439600D01*
X124620265Y-140809735D02*
X125250000Y-141439470D01*
X140987500Y-146000000D02*
X140987500Y-148500000D01*
X142966800Y-111020700D02*
X142966800Y-114854300D01*
X142718500Y-136567000D02*
X143775800Y-137624200D01*
X109000000Y-144437500D02*
X111050000Y-144437500D01*
X107200000Y-140245000D02*
X107200000Y-138986200D01*
X140987500Y-146000000D02*
X142353800Y-144633700D01*
X107200000Y-135500000D02*
X107200000Y-138000000D01*
X145839600Y-137439600D02*
X146900000Y-138500000D01*
X108786400Y-148537500D02*
X109000000Y-148537500D01*
X107481300Y-147232400D02*
X108786400Y-148537500D01*
X107145000Y-140300000D02*
X107200000Y-140245000D01*
X109000000Y-144437500D02*
X108764500Y-144437500D01*
X142900000Y-138500000D02*
X143775800Y-137624200D01*
X123750000Y-149125000D02*
X123825000Y-149200000D01*
X143050000Y-124000000D02*
X143050000Y-114937500D01*
X143050000Y-110937500D02*
X142966800Y-111020700D01*
X107200000Y-138986200D02*
X109753300Y-138986200D01*
X107200000Y-138986200D02*
X107200000Y-138000000D01*
X108764500Y-144437500D02*
X107481300Y-145720700D01*
X127937500Y-143427500D02*
X128902600Y-143427500D01*
X107145000Y-140300000D02*
X107145000Y-142582500D01*
X140987500Y-148500000D02*
X140987500Y-149182500D01*
X143775800Y-137624200D02*
X143960400Y-137439600D01*
X142966800Y-114854300D02*
X143050000Y-114937500D01*
X142947265Y-124102735D02*
X143050000Y-124000000D01*
X123750000Y-148115000D02*
X123750000Y-149125000D01*
X142947265Y-125167265D02*
X142947265Y-124102735D01*
X109000000Y-148537500D02*
X109192500Y-148537500D01*
%TO.N,VCC*%
X141605000Y-104775000D02*
X141605000Y-107950000D01*
X141605000Y-115570000D02*
X142240000Y-116205000D01*
X139800000Y-103800000D02*
X140630000Y-103800000D01*
X141605000Y-107950000D02*
X141605000Y-115570000D01*
X144780000Y-119200000D02*
X147900000Y-116080000D01*
X141254400Y-139814400D02*
X141254400Y-139700000D01*
X145415000Y-116840000D02*
X146175000Y-116080000D01*
X142240000Y-116205000D02*
X142240000Y-116840000D01*
X131073700Y-144273200D02*
X136681200Y-144273200D01*
X128039400Y-142825600D02*
X129626100Y-142825600D01*
X141605000Y-107950000D02*
X141605000Y-108055000D01*
X131920000Y-129820000D02*
X131920000Y-129700000D01*
X131920000Y-129700000D02*
X132080000Y-129540000D01*
X138912500Y-143700000D02*
X138912500Y-142490300D01*
X127937500Y-142927500D02*
X128039400Y-142825600D01*
X146175000Y-116080000D02*
X147900000Y-116080000D01*
X136681200Y-144273200D02*
X138688300Y-142266100D01*
X144780000Y-125730000D02*
X144780000Y-119200000D01*
X130500000Y-129700000D02*
X131920000Y-129700000D01*
X138912500Y-142490300D02*
X138688300Y-142266100D01*
X142240000Y-140800000D02*
X141254400Y-139814400D01*
X140630000Y-103800000D02*
X141605000Y-104775000D01*
X141254400Y-139700000D02*
X141299700Y-139654700D01*
X129626100Y-142825600D02*
X131073700Y-144273200D01*
%TO.N,Net-(U2-OSCIN)*%
X111700000Y-148337500D02*
X111812500Y-148450000D01*
X111812500Y-148450000D02*
X114300000Y-148450000D01*
%TO.N,Net-(U2-OSCOUT)*%
X120249999Y-144145000D02*
X119800000Y-144594999D01*
X119800000Y-144594999D02*
X119800000Y-146262500D01*
X119800000Y-146262500D02*
X119687500Y-146150000D01*
X120759885Y-144145000D02*
X120249999Y-144145000D01*
X122062500Y-144927500D02*
X121542385Y-144927500D01*
X121542385Y-144927500D02*
X120759885Y-144145000D01*
X119687500Y-146150000D02*
X117200000Y-146150000D01*
%TO.N,Net-(Q1-S)*%
X125750000Y-148672400D02*
X125750000Y-148115000D01*
X129052965Y-148194335D02*
X127966800Y-149280500D01*
X127966800Y-149280500D02*
X126358100Y-149280500D01*
X144976600Y-110910900D02*
X144950000Y-110937500D01*
X148092800Y-139307200D02*
X148900000Y-138500000D01*
X148092800Y-139705200D02*
X148092800Y-139307200D01*
X129052965Y-148113965D02*
X129052965Y-148194335D01*
X126358100Y-149280500D02*
X125750000Y-148672400D01*
X129282900Y-147964400D02*
X129282900Y-147966000D01*
X145794300Y-110910900D02*
X144976600Y-110910900D01*
X129282900Y-147966000D02*
X129282900Y-147964400D01*
%TO.N,/SENS_DET*%
X128270000Y-129470000D02*
X128500000Y-129700000D01*
X128270000Y-128270000D02*
X128270000Y-129470000D01*
%TO.N,Net-(Q2-S)*%
X142240000Y-146685000D02*
X142240000Y-145415000D01*
X126560300Y-148878600D02*
X126250000Y-148568300D01*
X144950000Y-114937500D02*
X144145000Y-115742500D01*
X142240000Y-145415000D02*
X143179000Y-144476000D01*
X129900000Y-148564400D02*
X129932300Y-148532100D01*
X143978300Y-139421700D02*
X143978300Y-139705200D01*
X144145000Y-115742500D02*
X144145000Y-125964600D01*
X145262600Y-127082200D02*
X145320400Y-127082200D01*
X144900000Y-138500000D02*
X143978300Y-139421700D01*
X126250000Y-148568300D02*
X126250000Y-148115000D01*
X129932300Y-147701500D02*
X129538200Y-147307400D01*
X143179000Y-144476000D02*
X143179000Y-143268400D01*
X129538200Y-147307400D02*
X129011000Y-147307400D01*
X129932300Y-148532100D02*
X129932300Y-147701500D01*
X144145000Y-125964600D02*
X145262600Y-127082200D01*
X127439800Y-148878600D02*
X126560300Y-148878600D01*
X129011000Y-147307400D02*
X127439800Y-148878600D01*
%TO.N,/RSTPD_N*%
X128551500Y-143927500D02*
X128877200Y-144253200D01*
X128877200Y-144253200D02*
X130184700Y-144253200D01*
X140870400Y-142349800D02*
X140997200Y-142223000D01*
X127937500Y-143927500D02*
X128551500Y-143927500D01*
X144900000Y-140800000D02*
X146900000Y-140800000D01*
X140997200Y-142223000D02*
X143477000Y-142223000D01*
X143477000Y-142223000D02*
X144900000Y-140800000D01*
%TO.N,Net-(U2-I1)*%
X120825000Y-146172500D02*
X121070000Y-145927500D01*
X121070000Y-145927500D02*
X122062500Y-145927500D01*
X103200000Y-135500000D02*
X105200000Y-135500000D01*
X120650000Y-147320000D02*
X120650000Y-147009744D01*
X120825000Y-146834744D02*
X120825000Y-146172500D01*
X105200000Y-136403100D02*
X105200000Y-135500000D01*
X105525200Y-136728300D02*
X105200000Y-136403100D01*
X120650000Y-147009744D02*
X120825000Y-146834744D01*
%TO.N,Net-(U2-I0)*%
X104140000Y-136940000D02*
X105200000Y-138000000D01*
X104140000Y-136525000D02*
X104140000Y-136940000D01*
X121193856Y-145427500D02*
X120680500Y-144914144D01*
X103200000Y-138000000D02*
X105200000Y-138000000D01*
X122062500Y-145427500D02*
X121193856Y-145427500D01*
%TO.N,Net-(C1-Pad1)*%
X120072000Y-140650000D02*
X121222000Y-139500000D01*
X119037500Y-140650000D02*
X119038000Y-140650000D01*
X121222000Y-139500000D02*
X120350000Y-139500000D01*
X121222500Y-139500000D02*
X121222000Y-139500000D01*
X119600000Y-138750000D02*
X119989000Y-139139000D01*
X119038000Y-140650000D02*
X120072000Y-140650000D01*
X120350000Y-139500000D02*
X119989000Y-139139000D01*
%TO.N,GND*%
X121542500Y-146427500D02*
X121250000Y-146720000D01*
X140987500Y-143700000D02*
X141292400Y-143395100D01*
X137923400Y-140650000D02*
X137037500Y-140650000D01*
X109200000Y-146262500D02*
X111700000Y-146262500D01*
X111700000Y-146262500D02*
X112835600Y-146262500D01*
X127250000Y-142240000D02*
X129469400Y-142240000D01*
X126702000Y-139500000D02*
X126577000Y-139625000D01*
X112948100Y-144260500D02*
X112948100Y-146150000D01*
X137037500Y-140650000D02*
X138823909Y-140650000D01*
X119687600Y-148450000D02*
X119687600Y-148449900D01*
X124250000Y-142979600D02*
X124250000Y-142240000D01*
X113624100Y-146150000D02*
X112948100Y-146150000D01*
X109570000Y-140650000D02*
X109220000Y-140300000D01*
X125000000Y-139700000D02*
X125000000Y-139750000D01*
X122875000Y-146427500D02*
X122062500Y-146427500D01*
X111050000Y-142362500D02*
X111050000Y-140650000D01*
X138823909Y-140650000D02*
X139700000Y-139773909D01*
X148900000Y-140800000D02*
X147056900Y-142643100D01*
X126524600Y-142978000D02*
X126250000Y-142703400D01*
X142511400Y-142643100D02*
X141759400Y-143395100D01*
X124250000Y-142979600D02*
X125973800Y-142979600D01*
X111050000Y-142362500D02*
X109000000Y-142362500D01*
X126534700Y-142978000D02*
X126524600Y-142978000D01*
X122062500Y-142927500D02*
X122114600Y-142979600D01*
X122114600Y-142979600D02*
X124250000Y-142979600D01*
X138912500Y-146000000D02*
X140987500Y-143925000D01*
X126702500Y-139500000D02*
X126702500Y-139986970D01*
X125000000Y-139750000D02*
X123548000Y-139750000D01*
X117200000Y-148450000D02*
X119687600Y-148450000D01*
X126702500Y-139986970D02*
X125724735Y-140964735D01*
X127025300Y-142979600D02*
X126536300Y-142979600D01*
X112962500Y-140650000D02*
X111050000Y-140650000D01*
X147056900Y-142643100D02*
X142511400Y-142643100D01*
X124250000Y-145052500D02*
X124250000Y-142979600D01*
X121250000Y-147612500D02*
X120525000Y-148337500D01*
X127250000Y-142240000D02*
X127177100Y-142312900D01*
X125000000Y-145177500D02*
X124375000Y-145177500D01*
X138912500Y-148500000D02*
X138912500Y-146000000D01*
X120525000Y-148337500D02*
X119800000Y-148337500D01*
X123423000Y-139625000D02*
X123422500Y-139625000D01*
X140970000Y-138430000D02*
X140970000Y-121920000D01*
X125973800Y-142979600D02*
X126250000Y-142703400D01*
X109000000Y-146462500D02*
X109200000Y-146262500D01*
X101200000Y-138000000D02*
X101200000Y-135500000D01*
X126577000Y-139625000D02*
X126577500Y-139625000D01*
X140668500Y-143395100D02*
X137923400Y-140650000D01*
X111050000Y-142362500D02*
X112948000Y-144260500D01*
X123422500Y-139625000D02*
X123297500Y-139500000D01*
X119687600Y-148449900D02*
X119800000Y-148337500D01*
X126577500Y-139625000D02*
X126702500Y-139500000D01*
X140987500Y-143925000D02*
X140987500Y-143700000D01*
X127177100Y-142827800D02*
X127025300Y-142979600D01*
X123548000Y-139750000D02*
X123423000Y-139625000D01*
X111439100Y-140650000D02*
X112962500Y-140650000D01*
X126536300Y-142979600D02*
X126534700Y-142978000D01*
X111050000Y-140650000D02*
X109570000Y-140650000D01*
X126577000Y-139625000D02*
X126452000Y-139750000D01*
X136275000Y-141412500D02*
X137037500Y-140650000D01*
X112948000Y-144260500D02*
X112948100Y-144260500D01*
X127177100Y-142312900D02*
X127177100Y-142827800D01*
X113624100Y-146150000D02*
X114300000Y-146150000D01*
X124250000Y-145052500D02*
X122875000Y-146427500D01*
X137037500Y-146000000D02*
X138912500Y-146000000D01*
X139700000Y-139700000D02*
X140970000Y-138430000D01*
X112835600Y-146262500D02*
X112948100Y-146150000D01*
X124375000Y-145177500D02*
X124250000Y-145052500D01*
X139700000Y-139773909D02*
X139700000Y-139700000D01*
X129469400Y-142240000D02*
X129704100Y-142005300D01*
X126250000Y-142703400D02*
X126250000Y-142240000D01*
X126452000Y-139750000D02*
X125000000Y-139750000D01*
X136275000Y-142435743D02*
X136275000Y-141412500D01*
X123423000Y-139625000D02*
X123298000Y-139500000D01*
X141759400Y-143395100D02*
X140668500Y-143395100D01*
X122062500Y-146427500D02*
X121542500Y-146427500D01*
X141292400Y-143395100D02*
X141759400Y-143395100D01*
X121250000Y-146720000D02*
X121250000Y-147612500D01*
%TO.N,Net-(C3-Pad1)*%
X114838000Y-142238000D02*
X114838000Y-140850000D01*
X114837500Y-142238500D02*
X114837500Y-143000000D01*
X116386630Y-142809500D02*
X114838000Y-142809500D01*
X116919765Y-143342635D02*
X116386630Y-142809500D01*
X114838000Y-140850000D02*
X115037800Y-140650200D01*
X115037800Y-140650200D02*
X115038000Y-140650000D01*
X131000000Y-148500000D02*
X130828700Y-148328700D01*
X115037500Y-140650000D02*
X115037600Y-140650000D01*
X130828700Y-148328700D02*
X130828700Y-147273500D01*
X114838000Y-143000000D02*
X114838000Y-142809500D01*
X116962500Y-140650000D02*
X116962000Y-140650000D01*
X115037600Y-140650000D02*
X115037800Y-140650200D01*
X115038000Y-140650000D02*
X116962000Y-140650000D01*
X114838000Y-142238000D02*
X114837500Y-142238500D01*
X114838000Y-142809500D02*
X114838000Y-142238000D01*
%TO.N,Net-(C4-Pad1)*%
X135162000Y-143000000D02*
X135162000Y-142238000D01*
X134962000Y-140650000D02*
X133038000Y-140650000D01*
X133037500Y-140650000D02*
X133038000Y-140650000D01*
X134962500Y-140650000D02*
X134962300Y-140650200D01*
X135162000Y-142238000D02*
X135162500Y-142238500D01*
X134962300Y-140650200D02*
X134962000Y-140650000D01*
X135162000Y-142238000D02*
X135162000Y-140850000D01*
X135162500Y-142238500D02*
X135162500Y-143000000D01*
X135162000Y-140850000D02*
X134962300Y-140650200D01*
%TO.N,Net-(U2-TX1)*%
X131712000Y-143000000D02*
X129682000Y-140970000D01*
X125750000Y-141788000D02*
X125750000Y-142240000D01*
X126568000Y-140970000D02*
X125750000Y-141788000D01*
X129682000Y-140970000D02*
X126568000Y-140970000D01*
X131838000Y-143000000D02*
X131837500Y-143000000D01*
X131837500Y-143000000D02*
X131712000Y-143000000D01*
%TO.N,Net-(U2-TX2)*%
X123932000Y-140970000D02*
X124750000Y-141788000D01*
X118162500Y-143000000D02*
X118559000Y-143000000D01*
X120589000Y-140970000D02*
X123932000Y-140970000D01*
X118162000Y-143000000D02*
X118162500Y-143000000D01*
X118559000Y-143000000D02*
X120589000Y-140970000D01*
X124750000Y-141788000D02*
X124750000Y-142240000D01*
%TO.N,Net-(U2-VMID)*%
X119848900Y-142604900D02*
X120978300Y-141475500D01*
X120978300Y-141475500D02*
X122996100Y-141475500D01*
X122996100Y-141475500D02*
X123250000Y-141729400D01*
X123250000Y-141729400D02*
X123250000Y-142240000D01*
X134962500Y-146000000D02*
X133000000Y-146000000D01*
X133000000Y-145954500D02*
X133000000Y-146000000D01*
X119848900Y-142875000D02*
X119848900Y-142604900D01*
X131936800Y-144891300D02*
X133000000Y-145954500D01*
%TO.N,Net-(C8-Pad1)*%
X134962500Y-148500000D02*
X133000000Y-148500000D01*
%TO.N,Net-(U2-RX)*%
X137037500Y-148500000D02*
X135765900Y-147228400D01*
X129668386Y-146000000D02*
X131000000Y-146000000D01*
X121203050Y-142240000D02*
X122750000Y-142240000D01*
X120650000Y-142793050D02*
X121203050Y-142240000D01*
X129083386Y-145415000D02*
X129668386Y-146000000D01*
X120650000Y-142875000D02*
X120650000Y-142793050D01*
X132228400Y-147228400D02*
X131000000Y-146000000D01*
X135765900Y-147228400D02*
X132228400Y-147228400D01*
%TO.N,Net-(C2-Pad2)*%
X128778000Y-139500000D02*
X129650000Y-139500000D01*
X130962000Y-140650000D02*
X129928000Y-140650000D01*
X129928000Y-140650000D02*
X128778000Y-139500000D01*
X129650000Y-139500000D02*
X130011000Y-139139000D01*
X130400000Y-138750000D02*
X130011000Y-139139000D01*
X130962500Y-140650000D02*
X130962000Y-140650000D01*
X128777500Y-139500000D02*
X128778000Y-139500000D01*
%TO.N,/LED_KR*%
X147900000Y-128780000D02*
X146620000Y-128780000D01*
X146620000Y-128780000D02*
X145000000Y-130400000D01*
%TO.N,Net-(D1-RK)*%
X135697121Y-106680000D02*
X139189622Y-106680000D01*
X141570000Y-121671471D02*
X141570000Y-128970000D01*
X133985000Y-104015000D02*
X133985000Y-104967879D01*
X141570000Y-128970000D02*
X143000000Y-130400000D01*
X134200000Y-103800000D02*
X133985000Y-104015000D01*
X139189622Y-106680000D02*
X140970000Y-108460378D01*
X133985000Y-104967879D02*
X135697121Y-106680000D01*
X140970000Y-121071471D02*
X141570000Y-121671471D01*
X140970000Y-108460378D02*
X140970000Y-121071471D01*
%TO.N,Net-(D1-GK)*%
X143000000Y-132500000D02*
X141605000Y-131105000D01*
X134200000Y-101894243D02*
X134200000Y-102200000D01*
X142875000Y-127635000D02*
X142875000Y-126882900D01*
X141605000Y-131105000D02*
X141605000Y-130175000D01*
X141605000Y-130175000D02*
X141570000Y-130175000D01*
X142240000Y-119380000D02*
X142240000Y-126247900D01*
X135294243Y-100800000D02*
X134200000Y-101894243D01*
X142875000Y-126882900D02*
X142240000Y-126247900D01*
X139971000Y-100800000D02*
X135294243Y-100800000D01*
%TO.N,Net-(D1-BK)*%
X142240000Y-106646500D02*
X142240000Y-102870000D01*
X141570000Y-102200000D02*
X139800000Y-102200000D01*
X142240000Y-102870000D02*
X141570000Y-102200000D01*
X142875000Y-107281500D02*
X142240000Y-106646500D01*
X144947000Y-136567000D02*
X148057600Y-136567000D01*
X143000000Y-134620000D02*
X144947000Y-136567000D01*
%TO.N,/LED_KG*%
X147900000Y-131320000D02*
X146748100Y-131320000D01*
X145568100Y-132500000D02*
X145000000Y-132500000D01*
X146748100Y-131320000D02*
X145568100Y-132500000D01*
%TO.N,/LED_KB*%
X145000000Y-134620000D02*
X145760000Y-133860000D01*
X145760000Y-133860000D02*
X147900000Y-133860000D01*
%TD*%
M02*
