%TF.GenerationSoftware,KiCad,Pcbnew,7.0.11+dfsg-1build4*%
%TF.CreationDate,2026-01-28T23:03:34-05:00*%
%TF.ProjectId,compact-nfc,636f6d70-6163-4742-9d6e-66632e6b6963,rev?*%
%TF.SameCoordinates,Original*%
%TF.FileFunction,Legend,Top*%
%TF.FilePolarity,Positive*%
%FSLAX46Y46*%
G04 Gerber Fmt 4.6, Leading zero omitted, Abs format (unit mm)*
G04 Created by KiCad (PCBNEW 7.0.11+dfsg-1build4) date 2026-01-28 23:03:34*
%MOMM*%
%LPD*%
G01*
G04 APERTURE LIST*
%ADD10C,0.150000*%
%ADD11C,0.120000*%
%ADD12C,0.100000*%
%ADD13C,0.360000*%
G04 APERTURE END LIST*
D10*
X136261905Y-101054819D02*
X136261905Y-100054819D01*
X136261905Y-100054819D02*
X136500000Y-100054819D01*
X136500000Y-100054819D02*
X136642857Y-100102438D01*
X136642857Y-100102438D02*
X136738095Y-100197676D01*
X136738095Y-100197676D02*
X136785714Y-100292914D01*
X136785714Y-100292914D02*
X136833333Y-100483390D01*
X136833333Y-100483390D02*
X136833333Y-100626247D01*
X136833333Y-100626247D02*
X136785714Y-100816723D01*
X136785714Y-100816723D02*
X136738095Y-100911961D01*
X136738095Y-100911961D02*
X136642857Y-101007200D01*
X136642857Y-101007200D02*
X136500000Y-101054819D01*
X136500000Y-101054819D02*
X136261905Y-101054819D01*
X137785714Y-101054819D02*
X137214286Y-101054819D01*
X137500000Y-101054819D02*
X137500000Y-100054819D01*
X137500000Y-100054819D02*
X137404762Y-100197676D01*
X137404762Y-100197676D02*
X137309524Y-100292914D01*
X137309524Y-100292914D02*
X137214286Y-100340533D01*
X102033333Y-137604819D02*
X101700000Y-137128628D01*
X101461905Y-137604819D02*
X101461905Y-136604819D01*
X101461905Y-136604819D02*
X101842857Y-136604819D01*
X101842857Y-136604819D02*
X101938095Y-136652438D01*
X101938095Y-136652438D02*
X101985714Y-136700057D01*
X101985714Y-136700057D02*
X102033333Y-136795295D01*
X102033333Y-136795295D02*
X102033333Y-136938152D01*
X102033333Y-136938152D02*
X101985714Y-137033390D01*
X101985714Y-137033390D02*
X101938095Y-137081009D01*
X101938095Y-137081009D02*
X101842857Y-137128628D01*
X101842857Y-137128628D02*
X101461905Y-137128628D01*
X102366667Y-136604819D02*
X103033333Y-136604819D01*
X103033333Y-136604819D02*
X102604762Y-137604819D01*
X116453333Y-141009580D02*
X116405714Y-141057200D01*
X116405714Y-141057200D02*
X116262857Y-141104819D01*
X116262857Y-141104819D02*
X116167619Y-141104819D01*
X116167619Y-141104819D02*
X116024762Y-141057200D01*
X116024762Y-141057200D02*
X115929524Y-140961961D01*
X115929524Y-140961961D02*
X115881905Y-140866723D01*
X115881905Y-140866723D02*
X115834286Y-140676247D01*
X115834286Y-140676247D02*
X115834286Y-140533390D01*
X115834286Y-140533390D02*
X115881905Y-140342914D01*
X115881905Y-140342914D02*
X115929524Y-140247676D01*
X115929524Y-140247676D02*
X116024762Y-140152438D01*
X116024762Y-140152438D02*
X116167619Y-140104819D01*
X116167619Y-140104819D02*
X116262857Y-140104819D01*
X116262857Y-140104819D02*
X116405714Y-140152438D01*
X116405714Y-140152438D02*
X116453333Y-140200057D01*
X117358095Y-140104819D02*
X116881905Y-140104819D01*
X116881905Y-140104819D02*
X116834286Y-140581009D01*
X116834286Y-140581009D02*
X116881905Y-140533390D01*
X116881905Y-140533390D02*
X116977143Y-140485771D01*
X116977143Y-140485771D02*
X117215238Y-140485771D01*
X117215238Y-140485771D02*
X117310476Y-140533390D01*
X117310476Y-140533390D02*
X117358095Y-140581009D01*
X117358095Y-140581009D02*
X117405714Y-140676247D01*
X117405714Y-140676247D02*
X117405714Y-140914342D01*
X117405714Y-140914342D02*
X117358095Y-141009580D01*
X117358095Y-141009580D02*
X117310476Y-141057200D01*
X117310476Y-141057200D02*
X117215238Y-141104819D01*
X117215238Y-141104819D02*
X116977143Y-141104819D01*
X116977143Y-141104819D02*
X116881905Y-141057200D01*
X116881905Y-141057200D02*
X116834286Y-141009580D01*
X131833333Y-150604819D02*
X131500000Y-150128628D01*
X131261905Y-150604819D02*
X131261905Y-149604819D01*
X131261905Y-149604819D02*
X131642857Y-149604819D01*
X131642857Y-149604819D02*
X131738095Y-149652438D01*
X131738095Y-149652438D02*
X131785714Y-149700057D01*
X131785714Y-149700057D02*
X131833333Y-149795295D01*
X131833333Y-149795295D02*
X131833333Y-149938152D01*
X131833333Y-149938152D02*
X131785714Y-150033390D01*
X131785714Y-150033390D02*
X131738095Y-150081009D01*
X131738095Y-150081009D02*
X131642857Y-150128628D01*
X131642857Y-150128628D02*
X131261905Y-150128628D01*
X132214286Y-149700057D02*
X132261905Y-149652438D01*
X132261905Y-149652438D02*
X132357143Y-149604819D01*
X132357143Y-149604819D02*
X132595238Y-149604819D01*
X132595238Y-149604819D02*
X132690476Y-149652438D01*
X132690476Y-149652438D02*
X132738095Y-149700057D01*
X132738095Y-149700057D02*
X132785714Y-149795295D01*
X132785714Y-149795295D02*
X132785714Y-149890533D01*
X132785714Y-149890533D02*
X132738095Y-150033390D01*
X132738095Y-150033390D02*
X132166667Y-150604819D01*
X132166667Y-150604819D02*
X132785714Y-150604819D01*
X102033333Y-140104819D02*
X101700000Y-139628628D01*
X101461905Y-140104819D02*
X101461905Y-139104819D01*
X101461905Y-139104819D02*
X101842857Y-139104819D01*
X101842857Y-139104819D02*
X101938095Y-139152438D01*
X101938095Y-139152438D02*
X101985714Y-139200057D01*
X101985714Y-139200057D02*
X102033333Y-139295295D01*
X102033333Y-139295295D02*
X102033333Y-139438152D01*
X102033333Y-139438152D02*
X101985714Y-139533390D01*
X101985714Y-139533390D02*
X101938095Y-139581009D01*
X101938095Y-139581009D02*
X101842857Y-139628628D01*
X101842857Y-139628628D02*
X101461905Y-139628628D01*
X102604762Y-139533390D02*
X102509524Y-139485771D01*
X102509524Y-139485771D02*
X102461905Y-139438152D01*
X102461905Y-139438152D02*
X102414286Y-139342914D01*
X102414286Y-139342914D02*
X102414286Y-139295295D01*
X102414286Y-139295295D02*
X102461905Y-139200057D01*
X102461905Y-139200057D02*
X102509524Y-139152438D01*
X102509524Y-139152438D02*
X102604762Y-139104819D01*
X102604762Y-139104819D02*
X102795238Y-139104819D01*
X102795238Y-139104819D02*
X102890476Y-139152438D01*
X102890476Y-139152438D02*
X102938095Y-139200057D01*
X102938095Y-139200057D02*
X102985714Y-139295295D01*
X102985714Y-139295295D02*
X102985714Y-139342914D01*
X102985714Y-139342914D02*
X102938095Y-139438152D01*
X102938095Y-139438152D02*
X102890476Y-139485771D01*
X102890476Y-139485771D02*
X102795238Y-139533390D01*
X102795238Y-139533390D02*
X102604762Y-139533390D01*
X102604762Y-139533390D02*
X102509524Y-139581009D01*
X102509524Y-139581009D02*
X102461905Y-139628628D01*
X102461905Y-139628628D02*
X102414286Y-139723866D01*
X102414286Y-139723866D02*
X102414286Y-139914342D01*
X102414286Y-139914342D02*
X102461905Y-140009580D01*
X102461905Y-140009580D02*
X102509524Y-140057200D01*
X102509524Y-140057200D02*
X102604762Y-140104819D01*
X102604762Y-140104819D02*
X102795238Y-140104819D01*
X102795238Y-140104819D02*
X102890476Y-140057200D01*
X102890476Y-140057200D02*
X102938095Y-140009580D01*
X102938095Y-140009580D02*
X102985714Y-139914342D01*
X102985714Y-139914342D02*
X102985714Y-139723866D01*
X102985714Y-139723866D02*
X102938095Y-139628628D01*
X102938095Y-139628628D02*
X102890476Y-139581009D01*
X102890476Y-139581009D02*
X102795238Y-139533390D01*
X147733333Y-139604819D02*
X147400000Y-139128628D01*
X147161905Y-139604819D02*
X147161905Y-138604819D01*
X147161905Y-138604819D02*
X147542857Y-138604819D01*
X147542857Y-138604819D02*
X147638095Y-138652438D01*
X147638095Y-138652438D02*
X147685714Y-138700057D01*
X147685714Y-138700057D02*
X147733333Y-138795295D01*
X147733333Y-138795295D02*
X147733333Y-138938152D01*
X147733333Y-138938152D02*
X147685714Y-139033390D01*
X147685714Y-139033390D02*
X147638095Y-139081009D01*
X147638095Y-139081009D02*
X147542857Y-139128628D01*
X147542857Y-139128628D02*
X147161905Y-139128628D01*
X148590476Y-138938152D02*
X148590476Y-139604819D01*
X148352381Y-138557200D02*
X148114286Y-139271485D01*
X148114286Y-139271485D02*
X148733333Y-139271485D01*
X119657142Y-131804819D02*
X119323809Y-131328628D01*
X119085714Y-131804819D02*
X119085714Y-130804819D01*
X119085714Y-130804819D02*
X119466666Y-130804819D01*
X119466666Y-130804819D02*
X119561904Y-130852438D01*
X119561904Y-130852438D02*
X119609523Y-130900057D01*
X119609523Y-130900057D02*
X119657142Y-130995295D01*
X119657142Y-130995295D02*
X119657142Y-131138152D01*
X119657142Y-131138152D02*
X119609523Y-131233390D01*
X119609523Y-131233390D02*
X119561904Y-131281009D01*
X119561904Y-131281009D02*
X119466666Y-131328628D01*
X119466666Y-131328628D02*
X119085714Y-131328628D01*
X120609523Y-131804819D02*
X120038095Y-131804819D01*
X120323809Y-131804819D02*
X120323809Y-130804819D01*
X120323809Y-130804819D02*
X120228571Y-130947676D01*
X120228571Y-130947676D02*
X120133333Y-131042914D01*
X120133333Y-131042914D02*
X120038095Y-131090533D01*
X121561904Y-131804819D02*
X120990476Y-131804819D01*
X121276190Y-131804819D02*
X121276190Y-130804819D01*
X121276190Y-130804819D02*
X121180952Y-130947676D01*
X121180952Y-130947676D02*
X121085714Y-131042914D01*
X121085714Y-131042914D02*
X120990476Y-131090533D01*
X115273809Y-144228628D02*
X115273809Y-144704819D01*
X114940476Y-143704819D02*
X115273809Y-144228628D01*
X115273809Y-144228628D02*
X115607142Y-143704819D01*
X116464285Y-144704819D02*
X115892857Y-144704819D01*
X116178571Y-144704819D02*
X116178571Y-143704819D01*
X116178571Y-143704819D02*
X116083333Y-143847676D01*
X116083333Y-143847676D02*
X115988095Y-143942914D01*
X115988095Y-143942914D02*
X115892857Y-143990533D01*
X119473333Y-140059580D02*
X119425714Y-140107200D01*
X119425714Y-140107200D02*
X119282857Y-140154819D01*
X119282857Y-140154819D02*
X119187619Y-140154819D01*
X119187619Y-140154819D02*
X119044762Y-140107200D01*
X119044762Y-140107200D02*
X118949524Y-140011961D01*
X118949524Y-140011961D02*
X118901905Y-139916723D01*
X118901905Y-139916723D02*
X118854286Y-139726247D01*
X118854286Y-139726247D02*
X118854286Y-139583390D01*
X118854286Y-139583390D02*
X118901905Y-139392914D01*
X118901905Y-139392914D02*
X118949524Y-139297676D01*
X118949524Y-139297676D02*
X119044762Y-139202438D01*
X119044762Y-139202438D02*
X119187619Y-139154819D01*
X119187619Y-139154819D02*
X119282857Y-139154819D01*
X119282857Y-139154819D02*
X119425714Y-139202438D01*
X119425714Y-139202438D02*
X119473333Y-139250057D01*
X120425714Y-140154819D02*
X119854286Y-140154819D01*
X120140000Y-140154819D02*
X120140000Y-139154819D01*
X120140000Y-139154819D02*
X120044762Y-139297676D01*
X120044762Y-139297676D02*
X119949524Y-139392914D01*
X119949524Y-139392914D02*
X119854286Y-139440533D01*
X131653333Y-140059580D02*
X131605714Y-140107200D01*
X131605714Y-140107200D02*
X131462857Y-140154819D01*
X131462857Y-140154819D02*
X131367619Y-140154819D01*
X131367619Y-140154819D02*
X131224762Y-140107200D01*
X131224762Y-140107200D02*
X131129524Y-140011961D01*
X131129524Y-140011961D02*
X131081905Y-139916723D01*
X131081905Y-139916723D02*
X131034286Y-139726247D01*
X131034286Y-139726247D02*
X131034286Y-139583390D01*
X131034286Y-139583390D02*
X131081905Y-139392914D01*
X131081905Y-139392914D02*
X131129524Y-139297676D01*
X131129524Y-139297676D02*
X131224762Y-139202438D01*
X131224762Y-139202438D02*
X131367619Y-139154819D01*
X131367619Y-139154819D02*
X131462857Y-139154819D01*
X131462857Y-139154819D02*
X131605714Y-139202438D01*
X131605714Y-139202438D02*
X131653333Y-139250057D01*
X132034286Y-139250057D02*
X132081905Y-139202438D01*
X132081905Y-139202438D02*
X132177143Y-139154819D01*
X132177143Y-139154819D02*
X132415238Y-139154819D01*
X132415238Y-139154819D02*
X132510476Y-139202438D01*
X132510476Y-139202438D02*
X132558095Y-139250057D01*
X132558095Y-139250057D02*
X132605714Y-139345295D01*
X132605714Y-139345295D02*
X132605714Y-139440533D01*
X132605714Y-139440533D02*
X132558095Y-139583390D01*
X132558095Y-139583390D02*
X131986667Y-140154819D01*
X131986667Y-140154819D02*
X132605714Y-140154819D01*
X131833333Y-142689580D02*
X131785714Y-142737200D01*
X131785714Y-142737200D02*
X131642857Y-142784819D01*
X131642857Y-142784819D02*
X131547619Y-142784819D01*
X131547619Y-142784819D02*
X131404762Y-142737200D01*
X131404762Y-142737200D02*
X131309524Y-142641961D01*
X131309524Y-142641961D02*
X131261905Y-142546723D01*
X131261905Y-142546723D02*
X131214286Y-142356247D01*
X131214286Y-142356247D02*
X131214286Y-142213390D01*
X131214286Y-142213390D02*
X131261905Y-142022914D01*
X131261905Y-142022914D02*
X131309524Y-141927676D01*
X131309524Y-141927676D02*
X131404762Y-141832438D01*
X131404762Y-141832438D02*
X131547619Y-141784819D01*
X131547619Y-141784819D02*
X131642857Y-141784819D01*
X131642857Y-141784819D02*
X131785714Y-141832438D01*
X131785714Y-141832438D02*
X131833333Y-141880057D01*
X132690476Y-142118152D02*
X132690476Y-142784819D01*
X132452381Y-141737200D02*
X132214286Y-142451485D01*
X132214286Y-142451485D02*
X132833333Y-142451485D01*
X106033333Y-140104819D02*
X105700000Y-139628628D01*
X105461905Y-140104819D02*
X105461905Y-139104819D01*
X105461905Y-139104819D02*
X105842857Y-139104819D01*
X105842857Y-139104819D02*
X105938095Y-139152438D01*
X105938095Y-139152438D02*
X105985714Y-139200057D01*
X105985714Y-139200057D02*
X106033333Y-139295295D01*
X106033333Y-139295295D02*
X106033333Y-139438152D01*
X106033333Y-139438152D02*
X105985714Y-139533390D01*
X105985714Y-139533390D02*
X105938095Y-139581009D01*
X105938095Y-139581009D02*
X105842857Y-139628628D01*
X105842857Y-139628628D02*
X105461905Y-139628628D01*
X106890476Y-139104819D02*
X106700000Y-139104819D01*
X106700000Y-139104819D02*
X106604762Y-139152438D01*
X106604762Y-139152438D02*
X106557143Y-139200057D01*
X106557143Y-139200057D02*
X106461905Y-139342914D01*
X106461905Y-139342914D02*
X106414286Y-139533390D01*
X106414286Y-139533390D02*
X106414286Y-139914342D01*
X106414286Y-139914342D02*
X106461905Y-140009580D01*
X106461905Y-140009580D02*
X106509524Y-140057200D01*
X106509524Y-140057200D02*
X106604762Y-140104819D01*
X106604762Y-140104819D02*
X106795238Y-140104819D01*
X106795238Y-140104819D02*
X106890476Y-140057200D01*
X106890476Y-140057200D02*
X106938095Y-140009580D01*
X106938095Y-140009580D02*
X106985714Y-139914342D01*
X106985714Y-139914342D02*
X106985714Y-139676247D01*
X106985714Y-139676247D02*
X106938095Y-139581009D01*
X106938095Y-139581009D02*
X106890476Y-139533390D01*
X106890476Y-139533390D02*
X106795238Y-139485771D01*
X106795238Y-139485771D02*
X106604762Y-139485771D01*
X106604762Y-139485771D02*
X106509524Y-139533390D01*
X106509524Y-139533390D02*
X106461905Y-139581009D01*
X106461905Y-139581009D02*
X106414286Y-139676247D01*
X107679580Y-144042857D02*
X107727200Y-144090476D01*
X107727200Y-144090476D02*
X107774819Y-144233333D01*
X107774819Y-144233333D02*
X107774819Y-144328571D01*
X107774819Y-144328571D02*
X107727200Y-144471428D01*
X107727200Y-144471428D02*
X107631961Y-144566666D01*
X107631961Y-144566666D02*
X107536723Y-144614285D01*
X107536723Y-144614285D02*
X107346247Y-144661904D01*
X107346247Y-144661904D02*
X107203390Y-144661904D01*
X107203390Y-144661904D02*
X107012914Y-144614285D01*
X107012914Y-144614285D02*
X106917676Y-144566666D01*
X106917676Y-144566666D02*
X106822438Y-144471428D01*
X106822438Y-144471428D02*
X106774819Y-144328571D01*
X106774819Y-144328571D02*
X106774819Y-144233333D01*
X106774819Y-144233333D02*
X106822438Y-144090476D01*
X106822438Y-144090476D02*
X106870057Y-144042857D01*
X107774819Y-143090476D02*
X107774819Y-143661904D01*
X107774819Y-143376190D02*
X106774819Y-143376190D01*
X106774819Y-143376190D02*
X106917676Y-143471428D01*
X106917676Y-143471428D02*
X107012914Y-143566666D01*
X107012914Y-143566666D02*
X107060533Y-143661904D01*
X106774819Y-142757142D02*
X106774819Y-142138095D01*
X106774819Y-142138095D02*
X107155771Y-142471428D01*
X107155771Y-142471428D02*
X107155771Y-142328571D01*
X107155771Y-142328571D02*
X107203390Y-142233333D01*
X107203390Y-142233333D02*
X107251009Y-142185714D01*
X107251009Y-142185714D02*
X107346247Y-142138095D01*
X107346247Y-142138095D02*
X107584342Y-142138095D01*
X107584342Y-142138095D02*
X107679580Y-142185714D01*
X107679580Y-142185714D02*
X107727200Y-142233333D01*
X107727200Y-142233333D02*
X107774819Y-142328571D01*
X107774819Y-142328571D02*
X107774819Y-142614285D01*
X107774819Y-142614285D02*
X107727200Y-142709523D01*
X107727200Y-142709523D02*
X107679580Y-142757142D01*
X139307142Y-142379580D02*
X139259523Y-142427200D01*
X139259523Y-142427200D02*
X139116666Y-142474819D01*
X139116666Y-142474819D02*
X139021428Y-142474819D01*
X139021428Y-142474819D02*
X138878571Y-142427200D01*
X138878571Y-142427200D02*
X138783333Y-142331961D01*
X138783333Y-142331961D02*
X138735714Y-142236723D01*
X138735714Y-142236723D02*
X138688095Y-142046247D01*
X138688095Y-142046247D02*
X138688095Y-141903390D01*
X138688095Y-141903390D02*
X138735714Y-141712914D01*
X138735714Y-141712914D02*
X138783333Y-141617676D01*
X138783333Y-141617676D02*
X138878571Y-141522438D01*
X138878571Y-141522438D02*
X139021428Y-141474819D01*
X139021428Y-141474819D02*
X139116666Y-141474819D01*
X139116666Y-141474819D02*
X139259523Y-141522438D01*
X139259523Y-141522438D02*
X139307142Y-141570057D01*
X140259523Y-142474819D02*
X139688095Y-142474819D01*
X139973809Y-142474819D02*
X139973809Y-141474819D01*
X139973809Y-141474819D02*
X139878571Y-141617676D01*
X139878571Y-141617676D02*
X139783333Y-141712914D01*
X139783333Y-141712914D02*
X139688095Y-141760533D01*
X140640476Y-141570057D02*
X140688095Y-141522438D01*
X140688095Y-141522438D02*
X140783333Y-141474819D01*
X140783333Y-141474819D02*
X141021428Y-141474819D01*
X141021428Y-141474819D02*
X141116666Y-141522438D01*
X141116666Y-141522438D02*
X141164285Y-141570057D01*
X141164285Y-141570057D02*
X141211904Y-141665295D01*
X141211904Y-141665295D02*
X141211904Y-141760533D01*
X141211904Y-141760533D02*
X141164285Y-141903390D01*
X141164285Y-141903390D02*
X140592857Y-142474819D01*
X140592857Y-142474819D02*
X141211904Y-142474819D01*
X147566666Y-108124819D02*
X147566666Y-108839104D01*
X147566666Y-108839104D02*
X147519047Y-108981961D01*
X147519047Y-108981961D02*
X147423809Y-109077200D01*
X147423809Y-109077200D02*
X147280952Y-109124819D01*
X147280952Y-109124819D02*
X147185714Y-109124819D01*
X148566666Y-109124819D02*
X147995238Y-109124819D01*
X148280952Y-109124819D02*
X148280952Y-108124819D01*
X148280952Y-108124819D02*
X148185714Y-108267676D01*
X148185714Y-108267676D02*
X148090476Y-108362914D01*
X148090476Y-108362914D02*
X147995238Y-108410533D01*
X143357142Y-132504819D02*
X143023809Y-132028628D01*
X142785714Y-132504819D02*
X142785714Y-131504819D01*
X142785714Y-131504819D02*
X143166666Y-131504819D01*
X143166666Y-131504819D02*
X143261904Y-131552438D01*
X143261904Y-131552438D02*
X143309523Y-131600057D01*
X143309523Y-131600057D02*
X143357142Y-131695295D01*
X143357142Y-131695295D02*
X143357142Y-131838152D01*
X143357142Y-131838152D02*
X143309523Y-131933390D01*
X143309523Y-131933390D02*
X143261904Y-131981009D01*
X143261904Y-131981009D02*
X143166666Y-132028628D01*
X143166666Y-132028628D02*
X142785714Y-132028628D01*
X144309523Y-132504819D02*
X143738095Y-132504819D01*
X144023809Y-132504819D02*
X144023809Y-131504819D01*
X144023809Y-131504819D02*
X143928571Y-131647676D01*
X143928571Y-131647676D02*
X143833333Y-131742914D01*
X143833333Y-131742914D02*
X143738095Y-131790533D01*
X144642857Y-131504819D02*
X145261904Y-131504819D01*
X145261904Y-131504819D02*
X144928571Y-131885771D01*
X144928571Y-131885771D02*
X145071428Y-131885771D01*
X145071428Y-131885771D02*
X145166666Y-131933390D01*
X145166666Y-131933390D02*
X145214285Y-131981009D01*
X145214285Y-131981009D02*
X145261904Y-132076247D01*
X145261904Y-132076247D02*
X145261904Y-132314342D01*
X145261904Y-132314342D02*
X145214285Y-132409580D01*
X145214285Y-132409580D02*
X145166666Y-132457200D01*
X145166666Y-132457200D02*
X145071428Y-132504819D01*
X145071428Y-132504819D02*
X144785714Y-132504819D01*
X144785714Y-132504819D02*
X144690476Y-132457200D01*
X144690476Y-132457200D02*
X144642857Y-132409580D01*
X143733333Y-137304819D02*
X143400000Y-136828628D01*
X143161905Y-137304819D02*
X143161905Y-136304819D01*
X143161905Y-136304819D02*
X143542857Y-136304819D01*
X143542857Y-136304819D02*
X143638095Y-136352438D01*
X143638095Y-136352438D02*
X143685714Y-136400057D01*
X143685714Y-136400057D02*
X143733333Y-136495295D01*
X143733333Y-136495295D02*
X143733333Y-136638152D01*
X143733333Y-136638152D02*
X143685714Y-136733390D01*
X143685714Y-136733390D02*
X143638095Y-136781009D01*
X143638095Y-136781009D02*
X143542857Y-136828628D01*
X143542857Y-136828628D02*
X143161905Y-136828628D01*
X144209524Y-137304819D02*
X144400000Y-137304819D01*
X144400000Y-137304819D02*
X144495238Y-137257200D01*
X144495238Y-137257200D02*
X144542857Y-137209580D01*
X144542857Y-137209580D02*
X144638095Y-137066723D01*
X144638095Y-137066723D02*
X144685714Y-136876247D01*
X144685714Y-136876247D02*
X144685714Y-136495295D01*
X144685714Y-136495295D02*
X144638095Y-136400057D01*
X144638095Y-136400057D02*
X144590476Y-136352438D01*
X144590476Y-136352438D02*
X144495238Y-136304819D01*
X144495238Y-136304819D02*
X144304762Y-136304819D01*
X144304762Y-136304819D02*
X144209524Y-136352438D01*
X144209524Y-136352438D02*
X144161905Y-136400057D01*
X144161905Y-136400057D02*
X144114286Y-136495295D01*
X144114286Y-136495295D02*
X144114286Y-136733390D01*
X144114286Y-136733390D02*
X144161905Y-136828628D01*
X144161905Y-136828628D02*
X144209524Y-136876247D01*
X144209524Y-136876247D02*
X144304762Y-136923866D01*
X144304762Y-136923866D02*
X144495238Y-136923866D01*
X144495238Y-136923866D02*
X144590476Y-136876247D01*
X144590476Y-136876247D02*
X144638095Y-136828628D01*
X144638095Y-136828628D02*
X144685714Y-136733390D01*
X116333333Y-145354819D02*
X115857143Y-145354819D01*
X115857143Y-145354819D02*
X115857143Y-144354819D01*
X117190476Y-145354819D02*
X116619048Y-145354819D01*
X116904762Y-145354819D02*
X116904762Y-144354819D01*
X116904762Y-144354819D02*
X116809524Y-144497676D01*
X116809524Y-144497676D02*
X116714286Y-144592914D01*
X116714286Y-144592914D02*
X116619048Y-144640533D01*
X128784819Y-145939404D02*
X129594342Y-145939404D01*
X129594342Y-145939404D02*
X129689580Y-145891785D01*
X129689580Y-145891785D02*
X129737200Y-145844166D01*
X129737200Y-145844166D02*
X129784819Y-145748928D01*
X129784819Y-145748928D02*
X129784819Y-145558452D01*
X129784819Y-145558452D02*
X129737200Y-145463214D01*
X129737200Y-145463214D02*
X129689580Y-145415595D01*
X129689580Y-145415595D02*
X129594342Y-145367976D01*
X129594342Y-145367976D02*
X128784819Y-145367976D01*
X128880057Y-144939404D02*
X128832438Y-144891785D01*
X128832438Y-144891785D02*
X128784819Y-144796547D01*
X128784819Y-144796547D02*
X128784819Y-144558452D01*
X128784819Y-144558452D02*
X128832438Y-144463214D01*
X128832438Y-144463214D02*
X128880057Y-144415595D01*
X128880057Y-144415595D02*
X128975295Y-144367976D01*
X128975295Y-144367976D02*
X129070533Y-144367976D01*
X129070533Y-144367976D02*
X129213390Y-144415595D01*
X129213390Y-144415595D02*
X129784819Y-144987023D01*
X129784819Y-144987023D02*
X129784819Y-144367976D01*
X118479580Y-147942857D02*
X118527200Y-147990476D01*
X118527200Y-147990476D02*
X118574819Y-148133333D01*
X118574819Y-148133333D02*
X118574819Y-148228571D01*
X118574819Y-148228571D02*
X118527200Y-148371428D01*
X118527200Y-148371428D02*
X118431961Y-148466666D01*
X118431961Y-148466666D02*
X118336723Y-148514285D01*
X118336723Y-148514285D02*
X118146247Y-148561904D01*
X118146247Y-148561904D02*
X118003390Y-148561904D01*
X118003390Y-148561904D02*
X117812914Y-148514285D01*
X117812914Y-148514285D02*
X117717676Y-148466666D01*
X117717676Y-148466666D02*
X117622438Y-148371428D01*
X117622438Y-148371428D02*
X117574819Y-148228571D01*
X117574819Y-148228571D02*
X117574819Y-148133333D01*
X117574819Y-148133333D02*
X117622438Y-147990476D01*
X117622438Y-147990476D02*
X117670057Y-147942857D01*
X118574819Y-146990476D02*
X118574819Y-147561904D01*
X118574819Y-147276190D02*
X117574819Y-147276190D01*
X117574819Y-147276190D02*
X117717676Y-147371428D01*
X117717676Y-147371428D02*
X117812914Y-147466666D01*
X117812914Y-147466666D02*
X117860533Y-147561904D01*
X117574819Y-146657142D02*
X117574819Y-145990476D01*
X117574819Y-145990476D02*
X118574819Y-146419047D01*
X134330833Y-141009580D02*
X134283214Y-141057200D01*
X134283214Y-141057200D02*
X134140357Y-141104819D01*
X134140357Y-141104819D02*
X134045119Y-141104819D01*
X134045119Y-141104819D02*
X133902262Y-141057200D01*
X133902262Y-141057200D02*
X133807024Y-140961961D01*
X133807024Y-140961961D02*
X133759405Y-140866723D01*
X133759405Y-140866723D02*
X133711786Y-140676247D01*
X133711786Y-140676247D02*
X133711786Y-140533390D01*
X133711786Y-140533390D02*
X133759405Y-140342914D01*
X133759405Y-140342914D02*
X133807024Y-140247676D01*
X133807024Y-140247676D02*
X133902262Y-140152438D01*
X133902262Y-140152438D02*
X134045119Y-140104819D01*
X134045119Y-140104819D02*
X134140357Y-140104819D01*
X134140357Y-140104819D02*
X134283214Y-140152438D01*
X134283214Y-140152438D02*
X134330833Y-140200057D01*
X135187976Y-140104819D02*
X134997500Y-140104819D01*
X134997500Y-140104819D02*
X134902262Y-140152438D01*
X134902262Y-140152438D02*
X134854643Y-140200057D01*
X134854643Y-140200057D02*
X134759405Y-140342914D01*
X134759405Y-140342914D02*
X134711786Y-140533390D01*
X134711786Y-140533390D02*
X134711786Y-140914342D01*
X134711786Y-140914342D02*
X134759405Y-141009580D01*
X134759405Y-141009580D02*
X134807024Y-141057200D01*
X134807024Y-141057200D02*
X134902262Y-141104819D01*
X134902262Y-141104819D02*
X135092738Y-141104819D01*
X135092738Y-141104819D02*
X135187976Y-141057200D01*
X135187976Y-141057200D02*
X135235595Y-141009580D01*
X135235595Y-141009580D02*
X135283214Y-140914342D01*
X135283214Y-140914342D02*
X135283214Y-140676247D01*
X135283214Y-140676247D02*
X135235595Y-140581009D01*
X135235595Y-140581009D02*
X135187976Y-140533390D01*
X135187976Y-140533390D02*
X135092738Y-140485771D01*
X135092738Y-140485771D02*
X134902262Y-140485771D01*
X134902262Y-140485771D02*
X134807024Y-140533390D01*
X134807024Y-140533390D02*
X134759405Y-140581009D01*
X134759405Y-140581009D02*
X134711786Y-140676247D01*
X139307142Y-148039580D02*
X139259523Y-148087200D01*
X139259523Y-148087200D02*
X139116666Y-148134819D01*
X139116666Y-148134819D02*
X139021428Y-148134819D01*
X139021428Y-148134819D02*
X138878571Y-148087200D01*
X138878571Y-148087200D02*
X138783333Y-147991961D01*
X138783333Y-147991961D02*
X138735714Y-147896723D01*
X138735714Y-147896723D02*
X138688095Y-147706247D01*
X138688095Y-147706247D02*
X138688095Y-147563390D01*
X138688095Y-147563390D02*
X138735714Y-147372914D01*
X138735714Y-147372914D02*
X138783333Y-147277676D01*
X138783333Y-147277676D02*
X138878571Y-147182438D01*
X138878571Y-147182438D02*
X139021428Y-147134819D01*
X139021428Y-147134819D02*
X139116666Y-147134819D01*
X139116666Y-147134819D02*
X139259523Y-147182438D01*
X139259523Y-147182438D02*
X139307142Y-147230057D01*
X140259523Y-148134819D02*
X139688095Y-148134819D01*
X139973809Y-148134819D02*
X139973809Y-147134819D01*
X139973809Y-147134819D02*
X139878571Y-147277676D01*
X139878571Y-147277676D02*
X139783333Y-147372914D01*
X139783333Y-147372914D02*
X139688095Y-147420533D01*
X141116666Y-147468152D02*
X141116666Y-148134819D01*
X140878571Y-147087200D02*
X140640476Y-147801485D01*
X140640476Y-147801485D02*
X141259523Y-147801485D01*
X123666666Y-119454819D02*
X123333333Y-118978628D01*
X123095238Y-119454819D02*
X123095238Y-118454819D01*
X123095238Y-118454819D02*
X123476190Y-118454819D01*
X123476190Y-118454819D02*
X123571428Y-118502438D01*
X123571428Y-118502438D02*
X123619047Y-118550057D01*
X123619047Y-118550057D02*
X123666666Y-118645295D01*
X123666666Y-118645295D02*
X123666666Y-118788152D01*
X123666666Y-118788152D02*
X123619047Y-118883390D01*
X123619047Y-118883390D02*
X123571428Y-118931009D01*
X123571428Y-118931009D02*
X123476190Y-118978628D01*
X123476190Y-118978628D02*
X123095238Y-118978628D01*
X124095238Y-118931009D02*
X124428571Y-118931009D01*
X124571428Y-119454819D02*
X124095238Y-119454819D01*
X124095238Y-119454819D02*
X124095238Y-118454819D01*
X124095238Y-118454819D02*
X124571428Y-118454819D01*
X125333333Y-118931009D02*
X125000000Y-118931009D01*
X125000000Y-119454819D02*
X125000000Y-118454819D01*
X125000000Y-118454819D02*
X125476190Y-118454819D01*
X126000000Y-118454819D02*
X126000000Y-118692914D01*
X125761905Y-118597676D02*
X126000000Y-118692914D01*
X126000000Y-118692914D02*
X126238095Y-118597676D01*
X125857143Y-118883390D02*
X126000000Y-118692914D01*
X126000000Y-118692914D02*
X126142857Y-118883390D01*
X126761905Y-118454819D02*
X126761905Y-118692914D01*
X126523810Y-118597676D02*
X126761905Y-118692914D01*
X126761905Y-118692914D02*
X127000000Y-118597676D01*
X126619048Y-118883390D02*
X126761905Y-118692914D01*
X126761905Y-118692914D02*
X126904762Y-118883390D01*
X113739580Y-147942857D02*
X113787200Y-147990476D01*
X113787200Y-147990476D02*
X113834819Y-148133333D01*
X113834819Y-148133333D02*
X113834819Y-148228571D01*
X113834819Y-148228571D02*
X113787200Y-148371428D01*
X113787200Y-148371428D02*
X113691961Y-148466666D01*
X113691961Y-148466666D02*
X113596723Y-148514285D01*
X113596723Y-148514285D02*
X113406247Y-148561904D01*
X113406247Y-148561904D02*
X113263390Y-148561904D01*
X113263390Y-148561904D02*
X113072914Y-148514285D01*
X113072914Y-148514285D02*
X112977676Y-148466666D01*
X112977676Y-148466666D02*
X112882438Y-148371428D01*
X112882438Y-148371428D02*
X112834819Y-148228571D01*
X112834819Y-148228571D02*
X112834819Y-148133333D01*
X112834819Y-148133333D02*
X112882438Y-147990476D01*
X112882438Y-147990476D02*
X112930057Y-147942857D01*
X113834819Y-146990476D02*
X113834819Y-147561904D01*
X113834819Y-147276190D02*
X112834819Y-147276190D01*
X112834819Y-147276190D02*
X112977676Y-147371428D01*
X112977676Y-147371428D02*
X113072914Y-147466666D01*
X113072914Y-147466666D02*
X113120533Y-147561904D01*
X112834819Y-146133333D02*
X112834819Y-146323809D01*
X112834819Y-146323809D02*
X112882438Y-146419047D01*
X112882438Y-146419047D02*
X112930057Y-146466666D01*
X112930057Y-146466666D02*
X113072914Y-146561904D01*
X113072914Y-146561904D02*
X113263390Y-146609523D01*
X113263390Y-146609523D02*
X113644342Y-146609523D01*
X113644342Y-146609523D02*
X113739580Y-146561904D01*
X113739580Y-146561904D02*
X113787200Y-146514285D01*
X113787200Y-146514285D02*
X113834819Y-146419047D01*
X113834819Y-146419047D02*
X113834819Y-146228571D01*
X113834819Y-146228571D02*
X113787200Y-146133333D01*
X113787200Y-146133333D02*
X113739580Y-146085714D01*
X113739580Y-146085714D02*
X113644342Y-146038095D01*
X113644342Y-146038095D02*
X113406247Y-146038095D01*
X113406247Y-146038095D02*
X113311009Y-146085714D01*
X113311009Y-146085714D02*
X113263390Y-146133333D01*
X113263390Y-146133333D02*
X113215771Y-146228571D01*
X113215771Y-146228571D02*
X113215771Y-146419047D01*
X113215771Y-146419047D02*
X113263390Y-146514285D01*
X113263390Y-146514285D02*
X113311009Y-146561904D01*
X113311009Y-146561904D02*
X113406247Y-146609523D01*
X117833333Y-139329580D02*
X117785714Y-139377200D01*
X117785714Y-139377200D02*
X117642857Y-139424819D01*
X117642857Y-139424819D02*
X117547619Y-139424819D01*
X117547619Y-139424819D02*
X117404762Y-139377200D01*
X117404762Y-139377200D02*
X117309524Y-139281961D01*
X117309524Y-139281961D02*
X117261905Y-139186723D01*
X117261905Y-139186723D02*
X117214286Y-138996247D01*
X117214286Y-138996247D02*
X117214286Y-138853390D01*
X117214286Y-138853390D02*
X117261905Y-138662914D01*
X117261905Y-138662914D02*
X117309524Y-138567676D01*
X117309524Y-138567676D02*
X117404762Y-138472438D01*
X117404762Y-138472438D02*
X117547619Y-138424819D01*
X117547619Y-138424819D02*
X117642857Y-138424819D01*
X117642857Y-138424819D02*
X117785714Y-138472438D01*
X117785714Y-138472438D02*
X117833333Y-138520057D01*
X118166667Y-138424819D02*
X118785714Y-138424819D01*
X118785714Y-138424819D02*
X118452381Y-138805771D01*
X118452381Y-138805771D02*
X118595238Y-138805771D01*
X118595238Y-138805771D02*
X118690476Y-138853390D01*
X118690476Y-138853390D02*
X118738095Y-138901009D01*
X118738095Y-138901009D02*
X118785714Y-138996247D01*
X118785714Y-138996247D02*
X118785714Y-139234342D01*
X118785714Y-139234342D02*
X118738095Y-139329580D01*
X118738095Y-139329580D02*
X118690476Y-139377200D01*
X118690476Y-139377200D02*
X118595238Y-139424819D01*
X118595238Y-139424819D02*
X118309524Y-139424819D01*
X118309524Y-139424819D02*
X118214286Y-139377200D01*
X118214286Y-139377200D02*
X118166667Y-139329580D01*
X143357142Y-136724819D02*
X143023809Y-136248628D01*
X142785714Y-136724819D02*
X142785714Y-135724819D01*
X142785714Y-135724819D02*
X143166666Y-135724819D01*
X143166666Y-135724819D02*
X143261904Y-135772438D01*
X143261904Y-135772438D02*
X143309523Y-135820057D01*
X143309523Y-135820057D02*
X143357142Y-135915295D01*
X143357142Y-135915295D02*
X143357142Y-136058152D01*
X143357142Y-136058152D02*
X143309523Y-136153390D01*
X143309523Y-136153390D02*
X143261904Y-136201009D01*
X143261904Y-136201009D02*
X143166666Y-136248628D01*
X143166666Y-136248628D02*
X142785714Y-136248628D01*
X144309523Y-136724819D02*
X143738095Y-136724819D01*
X144023809Y-136724819D02*
X144023809Y-135724819D01*
X144023809Y-135724819D02*
X143928571Y-135867676D01*
X143928571Y-135867676D02*
X143833333Y-135962914D01*
X143833333Y-135962914D02*
X143738095Y-136010533D01*
X145214285Y-135724819D02*
X144738095Y-135724819D01*
X144738095Y-135724819D02*
X144690476Y-136201009D01*
X144690476Y-136201009D02*
X144738095Y-136153390D01*
X144738095Y-136153390D02*
X144833333Y-136105771D01*
X144833333Y-136105771D02*
X145071428Y-136105771D01*
X145071428Y-136105771D02*
X145166666Y-136153390D01*
X145166666Y-136153390D02*
X145214285Y-136201009D01*
X145214285Y-136201009D02*
X145261904Y-136296247D01*
X145261904Y-136296247D02*
X145261904Y-136534342D01*
X145261904Y-136534342D02*
X145214285Y-136629580D01*
X145214285Y-136629580D02*
X145166666Y-136677200D01*
X145166666Y-136677200D02*
X145071428Y-136724819D01*
X145071428Y-136724819D02*
X144833333Y-136724819D01*
X144833333Y-136724819D02*
X144738095Y-136677200D01*
X144738095Y-136677200D02*
X144690476Y-136629580D01*
X108015833Y-138979580D02*
X107968214Y-139027200D01*
X107968214Y-139027200D02*
X107825357Y-139074819D01*
X107825357Y-139074819D02*
X107730119Y-139074819D01*
X107730119Y-139074819D02*
X107587262Y-139027200D01*
X107587262Y-139027200D02*
X107492024Y-138931961D01*
X107492024Y-138931961D02*
X107444405Y-138836723D01*
X107444405Y-138836723D02*
X107396786Y-138646247D01*
X107396786Y-138646247D02*
X107396786Y-138503390D01*
X107396786Y-138503390D02*
X107444405Y-138312914D01*
X107444405Y-138312914D02*
X107492024Y-138217676D01*
X107492024Y-138217676D02*
X107587262Y-138122438D01*
X107587262Y-138122438D02*
X107730119Y-138074819D01*
X107730119Y-138074819D02*
X107825357Y-138074819D01*
X107825357Y-138074819D02*
X107968214Y-138122438D01*
X107968214Y-138122438D02*
X108015833Y-138170057D01*
X108492024Y-139074819D02*
X108682500Y-139074819D01*
X108682500Y-139074819D02*
X108777738Y-139027200D01*
X108777738Y-139027200D02*
X108825357Y-138979580D01*
X108825357Y-138979580D02*
X108920595Y-138836723D01*
X108920595Y-138836723D02*
X108968214Y-138646247D01*
X108968214Y-138646247D02*
X108968214Y-138265295D01*
X108968214Y-138265295D02*
X108920595Y-138170057D01*
X108920595Y-138170057D02*
X108872976Y-138122438D01*
X108872976Y-138122438D02*
X108777738Y-138074819D01*
X108777738Y-138074819D02*
X108587262Y-138074819D01*
X108587262Y-138074819D02*
X108492024Y-138122438D01*
X108492024Y-138122438D02*
X108444405Y-138170057D01*
X108444405Y-138170057D02*
X108396786Y-138265295D01*
X108396786Y-138265295D02*
X108396786Y-138503390D01*
X108396786Y-138503390D02*
X108444405Y-138598628D01*
X108444405Y-138598628D02*
X108492024Y-138646247D01*
X108492024Y-138646247D02*
X108587262Y-138693866D01*
X108587262Y-138693866D02*
X108777738Y-138693866D01*
X108777738Y-138693866D02*
X108872976Y-138646247D01*
X108872976Y-138646247D02*
X108920595Y-138598628D01*
X108920595Y-138598628D02*
X108968214Y-138503390D01*
X133333333Y-141554819D02*
X132857143Y-141554819D01*
X132857143Y-141554819D02*
X132857143Y-140554819D01*
X133619048Y-140650057D02*
X133666667Y-140602438D01*
X133666667Y-140602438D02*
X133761905Y-140554819D01*
X133761905Y-140554819D02*
X134000000Y-140554819D01*
X134000000Y-140554819D02*
X134095238Y-140602438D01*
X134095238Y-140602438D02*
X134142857Y-140650057D01*
X134142857Y-140650057D02*
X134190476Y-140745295D01*
X134190476Y-140745295D02*
X134190476Y-140840533D01*
X134190476Y-140840533D02*
X134142857Y-140983390D01*
X134142857Y-140983390D02*
X133571429Y-141554819D01*
X133571429Y-141554819D02*
X134190476Y-141554819D01*
X147257142Y-137304819D02*
X146923809Y-136828628D01*
X146685714Y-137304819D02*
X146685714Y-136304819D01*
X146685714Y-136304819D02*
X147066666Y-136304819D01*
X147066666Y-136304819D02*
X147161904Y-136352438D01*
X147161904Y-136352438D02*
X147209523Y-136400057D01*
X147209523Y-136400057D02*
X147257142Y-136495295D01*
X147257142Y-136495295D02*
X147257142Y-136638152D01*
X147257142Y-136638152D02*
X147209523Y-136733390D01*
X147209523Y-136733390D02*
X147161904Y-136781009D01*
X147161904Y-136781009D02*
X147066666Y-136828628D01*
X147066666Y-136828628D02*
X146685714Y-136828628D01*
X148209523Y-137304819D02*
X147638095Y-137304819D01*
X147923809Y-137304819D02*
X147923809Y-136304819D01*
X147923809Y-136304819D02*
X147828571Y-136447676D01*
X147828571Y-136447676D02*
X147733333Y-136542914D01*
X147733333Y-136542914D02*
X147638095Y-136590533D01*
X148828571Y-136304819D02*
X148923809Y-136304819D01*
X148923809Y-136304819D02*
X149019047Y-136352438D01*
X149019047Y-136352438D02*
X149066666Y-136400057D01*
X149066666Y-136400057D02*
X149114285Y-136495295D01*
X149114285Y-136495295D02*
X149161904Y-136685771D01*
X149161904Y-136685771D02*
X149161904Y-136923866D01*
X149161904Y-136923866D02*
X149114285Y-137114342D01*
X149114285Y-137114342D02*
X149066666Y-137209580D01*
X149066666Y-137209580D02*
X149019047Y-137257200D01*
X149019047Y-137257200D02*
X148923809Y-137304819D01*
X148923809Y-137304819D02*
X148828571Y-137304819D01*
X148828571Y-137304819D02*
X148733333Y-137257200D01*
X148733333Y-137257200D02*
X148685714Y-137209580D01*
X148685714Y-137209580D02*
X148638095Y-137114342D01*
X148638095Y-137114342D02*
X148590476Y-136923866D01*
X148590476Y-136923866D02*
X148590476Y-136685771D01*
X148590476Y-136685771D02*
X148638095Y-136495295D01*
X148638095Y-136495295D02*
X148685714Y-136400057D01*
X148685714Y-136400057D02*
X148733333Y-136352438D01*
X148733333Y-136352438D02*
X148828571Y-136304819D01*
X119606779Y-120154819D02*
X119606779Y-120964342D01*
X119606779Y-120964342D02*
X119654398Y-121059580D01*
X119654398Y-121059580D02*
X119702017Y-121107200D01*
X119702017Y-121107200D02*
X119797255Y-121154819D01*
X119797255Y-121154819D02*
X119987731Y-121154819D01*
X119987731Y-121154819D02*
X120082969Y-121107200D01*
X120082969Y-121107200D02*
X120130588Y-121059580D01*
X120130588Y-121059580D02*
X120178207Y-120964342D01*
X120178207Y-120964342D02*
X120178207Y-120154819D01*
X121178207Y-121154819D02*
X120606779Y-121154819D01*
X120892493Y-121154819D02*
X120892493Y-120154819D01*
X120892493Y-120154819D02*
X120797255Y-120297676D01*
X120797255Y-120297676D02*
X120702017Y-120392914D01*
X120702017Y-120392914D02*
X120606779Y-120440533D01*
X135833333Y-147179580D02*
X135785714Y-147227200D01*
X135785714Y-147227200D02*
X135642857Y-147274819D01*
X135642857Y-147274819D02*
X135547619Y-147274819D01*
X135547619Y-147274819D02*
X135404762Y-147227200D01*
X135404762Y-147227200D02*
X135309524Y-147131961D01*
X135309524Y-147131961D02*
X135261905Y-147036723D01*
X135261905Y-147036723D02*
X135214286Y-146846247D01*
X135214286Y-146846247D02*
X135214286Y-146703390D01*
X135214286Y-146703390D02*
X135261905Y-146512914D01*
X135261905Y-146512914D02*
X135309524Y-146417676D01*
X135309524Y-146417676D02*
X135404762Y-146322438D01*
X135404762Y-146322438D02*
X135547619Y-146274819D01*
X135547619Y-146274819D02*
X135642857Y-146274819D01*
X135642857Y-146274819D02*
X135785714Y-146322438D01*
X135785714Y-146322438D02*
X135833333Y-146370057D01*
X136404762Y-146703390D02*
X136309524Y-146655771D01*
X136309524Y-146655771D02*
X136261905Y-146608152D01*
X136261905Y-146608152D02*
X136214286Y-146512914D01*
X136214286Y-146512914D02*
X136214286Y-146465295D01*
X136214286Y-146465295D02*
X136261905Y-146370057D01*
X136261905Y-146370057D02*
X136309524Y-146322438D01*
X136309524Y-146322438D02*
X136404762Y-146274819D01*
X136404762Y-146274819D02*
X136595238Y-146274819D01*
X136595238Y-146274819D02*
X136690476Y-146322438D01*
X136690476Y-146322438D02*
X136738095Y-146370057D01*
X136738095Y-146370057D02*
X136785714Y-146465295D01*
X136785714Y-146465295D02*
X136785714Y-146512914D01*
X136785714Y-146512914D02*
X136738095Y-146608152D01*
X136738095Y-146608152D02*
X136690476Y-146655771D01*
X136690476Y-146655771D02*
X136595238Y-146703390D01*
X136595238Y-146703390D02*
X136404762Y-146703390D01*
X136404762Y-146703390D02*
X136309524Y-146751009D01*
X136309524Y-146751009D02*
X136261905Y-146798628D01*
X136261905Y-146798628D02*
X136214286Y-146893866D01*
X136214286Y-146893866D02*
X136214286Y-147084342D01*
X136214286Y-147084342D02*
X136261905Y-147179580D01*
X136261905Y-147179580D02*
X136309524Y-147227200D01*
X136309524Y-147227200D02*
X136404762Y-147274819D01*
X136404762Y-147274819D02*
X136595238Y-147274819D01*
X136595238Y-147274819D02*
X136690476Y-147227200D01*
X136690476Y-147227200D02*
X136738095Y-147179580D01*
X136738095Y-147179580D02*
X136785714Y-147084342D01*
X136785714Y-147084342D02*
X136785714Y-146893866D01*
X136785714Y-146893866D02*
X136738095Y-146798628D01*
X136738095Y-146798628D02*
X136690476Y-146751009D01*
X136690476Y-146751009D02*
X136595238Y-146703390D01*
X106033333Y-137604819D02*
X105700000Y-137128628D01*
X105461905Y-137604819D02*
X105461905Y-136604819D01*
X105461905Y-136604819D02*
X105842857Y-136604819D01*
X105842857Y-136604819D02*
X105938095Y-136652438D01*
X105938095Y-136652438D02*
X105985714Y-136700057D01*
X105985714Y-136700057D02*
X106033333Y-136795295D01*
X106033333Y-136795295D02*
X106033333Y-136938152D01*
X106033333Y-136938152D02*
X105985714Y-137033390D01*
X105985714Y-137033390D02*
X105938095Y-137081009D01*
X105938095Y-137081009D02*
X105842857Y-137128628D01*
X105842857Y-137128628D02*
X105461905Y-137128628D01*
X106938095Y-136604819D02*
X106461905Y-136604819D01*
X106461905Y-136604819D02*
X106414286Y-137081009D01*
X106414286Y-137081009D02*
X106461905Y-137033390D01*
X106461905Y-137033390D02*
X106557143Y-136985771D01*
X106557143Y-136985771D02*
X106795238Y-136985771D01*
X106795238Y-136985771D02*
X106890476Y-137033390D01*
X106890476Y-137033390D02*
X106938095Y-137081009D01*
X106938095Y-137081009D02*
X106985714Y-137176247D01*
X106985714Y-137176247D02*
X106985714Y-137414342D01*
X106985714Y-137414342D02*
X106938095Y-137509580D01*
X106938095Y-137509580D02*
X106890476Y-137557200D01*
X106890476Y-137557200D02*
X106795238Y-137604819D01*
X106795238Y-137604819D02*
X106557143Y-137604819D01*
X106557143Y-137604819D02*
X106461905Y-137557200D01*
X106461905Y-137557200D02*
X106414286Y-137509580D01*
X135833333Y-148039580D02*
X135785714Y-148087200D01*
X135785714Y-148087200D02*
X135642857Y-148134819D01*
X135642857Y-148134819D02*
X135547619Y-148134819D01*
X135547619Y-148134819D02*
X135404762Y-148087200D01*
X135404762Y-148087200D02*
X135309524Y-147991961D01*
X135309524Y-147991961D02*
X135261905Y-147896723D01*
X135261905Y-147896723D02*
X135214286Y-147706247D01*
X135214286Y-147706247D02*
X135214286Y-147563390D01*
X135214286Y-147563390D02*
X135261905Y-147372914D01*
X135261905Y-147372914D02*
X135309524Y-147277676D01*
X135309524Y-147277676D02*
X135404762Y-147182438D01*
X135404762Y-147182438D02*
X135547619Y-147134819D01*
X135547619Y-147134819D02*
X135642857Y-147134819D01*
X135642857Y-147134819D02*
X135785714Y-147182438D01*
X135785714Y-147182438D02*
X135833333Y-147230057D01*
X136166667Y-147134819D02*
X136833333Y-147134819D01*
X136833333Y-147134819D02*
X136404762Y-148134819D01*
X109729580Y-144042857D02*
X109777200Y-144090476D01*
X109777200Y-144090476D02*
X109824819Y-144233333D01*
X109824819Y-144233333D02*
X109824819Y-144328571D01*
X109824819Y-144328571D02*
X109777200Y-144471428D01*
X109777200Y-144471428D02*
X109681961Y-144566666D01*
X109681961Y-144566666D02*
X109586723Y-144614285D01*
X109586723Y-144614285D02*
X109396247Y-144661904D01*
X109396247Y-144661904D02*
X109253390Y-144661904D01*
X109253390Y-144661904D02*
X109062914Y-144614285D01*
X109062914Y-144614285D02*
X108967676Y-144566666D01*
X108967676Y-144566666D02*
X108872438Y-144471428D01*
X108872438Y-144471428D02*
X108824819Y-144328571D01*
X108824819Y-144328571D02*
X108824819Y-144233333D01*
X108824819Y-144233333D02*
X108872438Y-144090476D01*
X108872438Y-144090476D02*
X108920057Y-144042857D01*
X109824819Y-143090476D02*
X109824819Y-143661904D01*
X109824819Y-143376190D02*
X108824819Y-143376190D01*
X108824819Y-143376190D02*
X108967676Y-143471428D01*
X108967676Y-143471428D02*
X109062914Y-143566666D01*
X109062914Y-143566666D02*
X109110533Y-143661904D01*
X108824819Y-142471428D02*
X108824819Y-142376190D01*
X108824819Y-142376190D02*
X108872438Y-142280952D01*
X108872438Y-142280952D02*
X108920057Y-142233333D01*
X108920057Y-142233333D02*
X109015295Y-142185714D01*
X109015295Y-142185714D02*
X109205771Y-142138095D01*
X109205771Y-142138095D02*
X109443866Y-142138095D01*
X109443866Y-142138095D02*
X109634342Y-142185714D01*
X109634342Y-142185714D02*
X109729580Y-142233333D01*
X109729580Y-142233333D02*
X109777200Y-142280952D01*
X109777200Y-142280952D02*
X109824819Y-142376190D01*
X109824819Y-142376190D02*
X109824819Y-142471428D01*
X109824819Y-142471428D02*
X109777200Y-142566666D01*
X109777200Y-142566666D02*
X109729580Y-142614285D01*
X109729580Y-142614285D02*
X109634342Y-142661904D01*
X109634342Y-142661904D02*
X109443866Y-142709523D01*
X109443866Y-142709523D02*
X109205771Y-142709523D01*
X109205771Y-142709523D02*
X109015295Y-142661904D01*
X109015295Y-142661904D02*
X108920057Y-142614285D01*
X108920057Y-142614285D02*
X108872438Y-142566666D01*
X108872438Y-142566666D02*
X108824819Y-142471428D01*
X131833333Y-144804819D02*
X131500000Y-144328628D01*
X131261905Y-144804819D02*
X131261905Y-143804819D01*
X131261905Y-143804819D02*
X131642857Y-143804819D01*
X131642857Y-143804819D02*
X131738095Y-143852438D01*
X131738095Y-143852438D02*
X131785714Y-143900057D01*
X131785714Y-143900057D02*
X131833333Y-143995295D01*
X131833333Y-143995295D02*
X131833333Y-144138152D01*
X131833333Y-144138152D02*
X131785714Y-144233390D01*
X131785714Y-144233390D02*
X131738095Y-144281009D01*
X131738095Y-144281009D02*
X131642857Y-144328628D01*
X131642857Y-144328628D02*
X131261905Y-144328628D01*
X132785714Y-144804819D02*
X132214286Y-144804819D01*
X132500000Y-144804819D02*
X132500000Y-143804819D01*
X132500000Y-143804819D02*
X132404762Y-143947676D01*
X132404762Y-143947676D02*
X132309524Y-144042914D01*
X132309524Y-144042914D02*
X132214286Y-144090533D01*
X142150057Y-110095238D02*
X142102438Y-110190476D01*
X142102438Y-110190476D02*
X142007200Y-110285714D01*
X142007200Y-110285714D02*
X141864342Y-110428571D01*
X141864342Y-110428571D02*
X141816723Y-110523809D01*
X141816723Y-110523809D02*
X141816723Y-110619047D01*
X142054819Y-110571428D02*
X142007200Y-110666666D01*
X142007200Y-110666666D02*
X141911961Y-110761904D01*
X141911961Y-110761904D02*
X141721485Y-110809523D01*
X141721485Y-110809523D02*
X141388152Y-110809523D01*
X141388152Y-110809523D02*
X141197676Y-110761904D01*
X141197676Y-110761904D02*
X141102438Y-110666666D01*
X141102438Y-110666666D02*
X141054819Y-110571428D01*
X141054819Y-110571428D02*
X141054819Y-110380952D01*
X141054819Y-110380952D02*
X141102438Y-110285714D01*
X141102438Y-110285714D02*
X141197676Y-110190476D01*
X141197676Y-110190476D02*
X141388152Y-110142857D01*
X141388152Y-110142857D02*
X141721485Y-110142857D01*
X141721485Y-110142857D02*
X141911961Y-110190476D01*
X141911961Y-110190476D02*
X142007200Y-110285714D01*
X142007200Y-110285714D02*
X142054819Y-110380952D01*
X142054819Y-110380952D02*
X142054819Y-110571428D01*
X142054819Y-109190476D02*
X142054819Y-109761904D01*
X142054819Y-109476190D02*
X141054819Y-109476190D01*
X141054819Y-109476190D02*
X141197676Y-109571428D01*
X141197676Y-109571428D02*
X141292914Y-109666666D01*
X141292914Y-109666666D02*
X141340533Y-109761904D01*
X107679580Y-148142857D02*
X107727200Y-148190476D01*
X107727200Y-148190476D02*
X107774819Y-148333333D01*
X107774819Y-148333333D02*
X107774819Y-148428571D01*
X107774819Y-148428571D02*
X107727200Y-148571428D01*
X107727200Y-148571428D02*
X107631961Y-148666666D01*
X107631961Y-148666666D02*
X107536723Y-148714285D01*
X107536723Y-148714285D02*
X107346247Y-148761904D01*
X107346247Y-148761904D02*
X107203390Y-148761904D01*
X107203390Y-148761904D02*
X107012914Y-148714285D01*
X107012914Y-148714285D02*
X106917676Y-148666666D01*
X106917676Y-148666666D02*
X106822438Y-148571428D01*
X106822438Y-148571428D02*
X106774819Y-148428571D01*
X106774819Y-148428571D02*
X106774819Y-148333333D01*
X106774819Y-148333333D02*
X106822438Y-148190476D01*
X106822438Y-148190476D02*
X106870057Y-148142857D01*
X107774819Y-147190476D02*
X107774819Y-147761904D01*
X107774819Y-147476190D02*
X106774819Y-147476190D01*
X106774819Y-147476190D02*
X106917676Y-147571428D01*
X106917676Y-147571428D02*
X107012914Y-147666666D01*
X107012914Y-147666666D02*
X107060533Y-147761904D01*
X107774819Y-146238095D02*
X107774819Y-146809523D01*
X107774819Y-146523809D02*
X106774819Y-146523809D01*
X106774819Y-146523809D02*
X106917676Y-146619047D01*
X106917676Y-146619047D02*
X107012914Y-146714285D01*
X107012914Y-146714285D02*
X107060533Y-146809523D01*
X142150057Y-114095238D02*
X142102438Y-114190476D01*
X142102438Y-114190476D02*
X142007200Y-114285714D01*
X142007200Y-114285714D02*
X141864342Y-114428571D01*
X141864342Y-114428571D02*
X141816723Y-114523809D01*
X141816723Y-114523809D02*
X141816723Y-114619047D01*
X142054819Y-114571428D02*
X142007200Y-114666666D01*
X142007200Y-114666666D02*
X141911961Y-114761904D01*
X141911961Y-114761904D02*
X141721485Y-114809523D01*
X141721485Y-114809523D02*
X141388152Y-114809523D01*
X141388152Y-114809523D02*
X141197676Y-114761904D01*
X141197676Y-114761904D02*
X141102438Y-114666666D01*
X141102438Y-114666666D02*
X141054819Y-114571428D01*
X141054819Y-114571428D02*
X141054819Y-114380952D01*
X141054819Y-114380952D02*
X141102438Y-114285714D01*
X141102438Y-114285714D02*
X141197676Y-114190476D01*
X141197676Y-114190476D02*
X141388152Y-114142857D01*
X141388152Y-114142857D02*
X141721485Y-114142857D01*
X141721485Y-114142857D02*
X141911961Y-114190476D01*
X141911961Y-114190476D02*
X142007200Y-114285714D01*
X142007200Y-114285714D02*
X142054819Y-114380952D01*
X142054819Y-114380952D02*
X142054819Y-114571428D01*
X141150057Y-113761904D02*
X141102438Y-113714285D01*
X141102438Y-113714285D02*
X141054819Y-113619047D01*
X141054819Y-113619047D02*
X141054819Y-113380952D01*
X141054819Y-113380952D02*
X141102438Y-113285714D01*
X141102438Y-113285714D02*
X141150057Y-113238095D01*
X141150057Y-113238095D02*
X141245295Y-113190476D01*
X141245295Y-113190476D02*
X141340533Y-113190476D01*
X141340533Y-113190476D02*
X141483390Y-113238095D01*
X141483390Y-113238095D02*
X142054819Y-113809523D01*
X142054819Y-113809523D02*
X142054819Y-113190476D01*
X143357142Y-134604819D02*
X143023809Y-134128628D01*
X142785714Y-134604819D02*
X142785714Y-133604819D01*
X142785714Y-133604819D02*
X143166666Y-133604819D01*
X143166666Y-133604819D02*
X143261904Y-133652438D01*
X143261904Y-133652438D02*
X143309523Y-133700057D01*
X143309523Y-133700057D02*
X143357142Y-133795295D01*
X143357142Y-133795295D02*
X143357142Y-133938152D01*
X143357142Y-133938152D02*
X143309523Y-134033390D01*
X143309523Y-134033390D02*
X143261904Y-134081009D01*
X143261904Y-134081009D02*
X143166666Y-134128628D01*
X143166666Y-134128628D02*
X142785714Y-134128628D01*
X144309523Y-134604819D02*
X143738095Y-134604819D01*
X144023809Y-134604819D02*
X144023809Y-133604819D01*
X144023809Y-133604819D02*
X143928571Y-133747676D01*
X143928571Y-133747676D02*
X143833333Y-133842914D01*
X143833333Y-133842914D02*
X143738095Y-133890533D01*
X145166666Y-133938152D02*
X145166666Y-134604819D01*
X144928571Y-133557200D02*
X144690476Y-134271485D01*
X144690476Y-134271485D02*
X145309523Y-134271485D01*
X128857142Y-128504819D02*
X128523809Y-128028628D01*
X128285714Y-128504819D02*
X128285714Y-127504819D01*
X128285714Y-127504819D02*
X128666666Y-127504819D01*
X128666666Y-127504819D02*
X128761904Y-127552438D01*
X128761904Y-127552438D02*
X128809523Y-127600057D01*
X128809523Y-127600057D02*
X128857142Y-127695295D01*
X128857142Y-127695295D02*
X128857142Y-127838152D01*
X128857142Y-127838152D02*
X128809523Y-127933390D01*
X128809523Y-127933390D02*
X128761904Y-127981009D01*
X128761904Y-127981009D02*
X128666666Y-128028628D01*
X128666666Y-128028628D02*
X128285714Y-128028628D01*
X129809523Y-128504819D02*
X129238095Y-128504819D01*
X129523809Y-128504819D02*
X129523809Y-127504819D01*
X129523809Y-127504819D02*
X129428571Y-127647676D01*
X129428571Y-127647676D02*
X129333333Y-127742914D01*
X129333333Y-127742914D02*
X129238095Y-127790533D01*
X130190476Y-127600057D02*
X130238095Y-127552438D01*
X130238095Y-127552438D02*
X130333333Y-127504819D01*
X130333333Y-127504819D02*
X130571428Y-127504819D01*
X130571428Y-127504819D02*
X130666666Y-127552438D01*
X130666666Y-127552438D02*
X130714285Y-127600057D01*
X130714285Y-127600057D02*
X130761904Y-127695295D01*
X130761904Y-127695295D02*
X130761904Y-127790533D01*
X130761904Y-127790533D02*
X130714285Y-127933390D01*
X130714285Y-127933390D02*
X130142857Y-128504819D01*
X130142857Y-128504819D02*
X130761904Y-128504819D01*
X143733333Y-139604819D02*
X143400000Y-139128628D01*
X143161905Y-139604819D02*
X143161905Y-138604819D01*
X143161905Y-138604819D02*
X143542857Y-138604819D01*
X143542857Y-138604819D02*
X143638095Y-138652438D01*
X143638095Y-138652438D02*
X143685714Y-138700057D01*
X143685714Y-138700057D02*
X143733333Y-138795295D01*
X143733333Y-138795295D02*
X143733333Y-138938152D01*
X143733333Y-138938152D02*
X143685714Y-139033390D01*
X143685714Y-139033390D02*
X143638095Y-139081009D01*
X143638095Y-139081009D02*
X143542857Y-139128628D01*
X143542857Y-139128628D02*
X143161905Y-139128628D01*
X144066667Y-138604819D02*
X144685714Y-138604819D01*
X144685714Y-138604819D02*
X144352381Y-138985771D01*
X144352381Y-138985771D02*
X144495238Y-138985771D01*
X144495238Y-138985771D02*
X144590476Y-139033390D01*
X144590476Y-139033390D02*
X144638095Y-139081009D01*
X144638095Y-139081009D02*
X144685714Y-139176247D01*
X144685714Y-139176247D02*
X144685714Y-139414342D01*
X144685714Y-139414342D02*
X144638095Y-139509580D01*
X144638095Y-139509580D02*
X144590476Y-139557200D01*
X144590476Y-139557200D02*
X144495238Y-139604819D01*
X144495238Y-139604819D02*
X144209524Y-139604819D01*
X144209524Y-139604819D02*
X144114286Y-139557200D01*
X144114286Y-139557200D02*
X144066667Y-139509580D01*
X139307142Y-150539580D02*
X139259523Y-150587200D01*
X139259523Y-150587200D02*
X139116666Y-150634819D01*
X139116666Y-150634819D02*
X139021428Y-150634819D01*
X139021428Y-150634819D02*
X138878571Y-150587200D01*
X138878571Y-150587200D02*
X138783333Y-150491961D01*
X138783333Y-150491961D02*
X138735714Y-150396723D01*
X138735714Y-150396723D02*
X138688095Y-150206247D01*
X138688095Y-150206247D02*
X138688095Y-150063390D01*
X138688095Y-150063390D02*
X138735714Y-149872914D01*
X138735714Y-149872914D02*
X138783333Y-149777676D01*
X138783333Y-149777676D02*
X138878571Y-149682438D01*
X138878571Y-149682438D02*
X139021428Y-149634819D01*
X139021428Y-149634819D02*
X139116666Y-149634819D01*
X139116666Y-149634819D02*
X139259523Y-149682438D01*
X139259523Y-149682438D02*
X139307142Y-149730057D01*
X140259523Y-150634819D02*
X139688095Y-150634819D01*
X139973809Y-150634819D02*
X139973809Y-149634819D01*
X139973809Y-149634819D02*
X139878571Y-149777676D01*
X139878571Y-149777676D02*
X139783333Y-149872914D01*
X139783333Y-149872914D02*
X139688095Y-149920533D01*
X141164285Y-149634819D02*
X140688095Y-149634819D01*
X140688095Y-149634819D02*
X140640476Y-150111009D01*
X140640476Y-150111009D02*
X140688095Y-150063390D01*
X140688095Y-150063390D02*
X140783333Y-150015771D01*
X140783333Y-150015771D02*
X141021428Y-150015771D01*
X141021428Y-150015771D02*
X141116666Y-150063390D01*
X141116666Y-150063390D02*
X141164285Y-150111009D01*
X141164285Y-150111009D02*
X141211904Y-150206247D01*
X141211904Y-150206247D02*
X141211904Y-150444342D01*
X141211904Y-150444342D02*
X141164285Y-150539580D01*
X141164285Y-150539580D02*
X141116666Y-150587200D01*
X141116666Y-150587200D02*
X141021428Y-150634819D01*
X141021428Y-150634819D02*
X140783333Y-150634819D01*
X140783333Y-150634819D02*
X140688095Y-150587200D01*
X140688095Y-150587200D02*
X140640476Y-150539580D01*
D11*
%TO.C,D1*%
X135150000Y-101350000D02*
X138850000Y-101350000D01*
X135150000Y-104300000D02*
X135150000Y-104650000D01*
X135150000Y-104650000D02*
X138850000Y-104650000D01*
%TO.C,R7*%
X102427064Y-136235000D02*
X101972936Y-136235000D01*
X102427064Y-134765000D02*
X101972936Y-134765000D01*
%TO.C,C5*%
X114261252Y-141385000D02*
X113738748Y-141385000D01*
X114261252Y-139915000D02*
X113738748Y-139915000D01*
%TO.C,R2*%
X132227064Y-149235000D02*
X131772936Y-149235000D01*
X132227064Y-147765000D02*
X131772936Y-147765000D01*
%TO.C,R8*%
X102427064Y-138735000D02*
X101972936Y-138735000D01*
X102427064Y-137265000D02*
X101972936Y-137265000D01*
%TO.C,R4*%
X147672936Y-140065000D02*
X148127064Y-140065000D01*
X147672936Y-141535000D02*
X148127064Y-141535000D01*
%TO.C,R11*%
X120527064Y-130435000D02*
X120072936Y-130435000D01*
X120527064Y-128965000D02*
X120072936Y-128965000D01*
%TO.C,Y1*%
X113050000Y-145050000D02*
X113050000Y-149550000D01*
X113050000Y-149550000D02*
X118450000Y-149550000D01*
%TO.C,C1*%
X121998748Y-138765000D02*
X122521252Y-138765000D01*
X121998748Y-140235000D02*
X122521252Y-140235000D01*
%TO.C,C2*%
X127478748Y-138765000D02*
X128001252Y-138765000D01*
X127478748Y-140235000D02*
X128001252Y-140235000D01*
%TO.C,C4*%
X132261252Y-141385000D02*
X131738748Y-141385000D01*
X132261252Y-139915000D02*
X131738748Y-139915000D01*
%TO.C,R6*%
X106427064Y-138735000D02*
X105972936Y-138735000D01*
X106427064Y-137265000D02*
X105972936Y-137265000D01*
%TO.C,C13*%
X108265000Y-143661252D02*
X108265000Y-143138748D01*
X109735000Y-143661252D02*
X109735000Y-143138748D01*
D12*
%TO.C,L_pcb1*%
X110790000Y-110740000D02*
X110790000Y-139460000D01*
X110790000Y-110740000D02*
X139210000Y-110740000D01*
X110790000Y-139460000D02*
X119000000Y-139460000D01*
X131000000Y-139460000D02*
X139210000Y-139460000D01*
X139210000Y-139460000D02*
X139210000Y-110740000D01*
D11*
%TO.C,C12*%
X139688748Y-142965000D02*
X140211252Y-142965000D01*
X139688748Y-144435000D02*
X140211252Y-144435000D01*
%TO.C,J1*%
X146570000Y-109670000D02*
X147900000Y-109670000D01*
X146570000Y-111000000D02*
X146570000Y-109670000D01*
X146570000Y-112270000D02*
X146570000Y-135190000D01*
X146570000Y-112270000D02*
X149230000Y-112270000D01*
X146570000Y-135190000D02*
X149230000Y-135190000D01*
X149230000Y-112270000D02*
X149230000Y-135190000D01*
%TO.C,R13*%
X144227064Y-131135000D02*
X143772936Y-131135000D01*
X144227064Y-129665000D02*
X143772936Y-129665000D01*
%TO.C,R9*%
X143672936Y-137765000D02*
X144127064Y-137765000D01*
X143672936Y-139235000D02*
X144127064Y-139235000D01*
%TO.C,L1*%
X117335242Y-143910000D02*
X115664758Y-143910000D01*
X117335242Y-142090000D02*
X115664758Y-142090000D01*
%TO.C,U2*%
X127635000Y-142067500D02*
X127870000Y-142067500D01*
X121890000Y-142067500D02*
X122365000Y-142067500D01*
X128110000Y-142542500D02*
X128110000Y-142367500D01*
X121890000Y-142542500D02*
X121890000Y-142067500D01*
X128110000Y-147812500D02*
X128110000Y-148287500D01*
X121890000Y-147812500D02*
X121890000Y-148287500D01*
X128110000Y-148287500D02*
X127635000Y-148287500D01*
X121890000Y-148287500D02*
X122365000Y-148287500D01*
X128440000Y-142307500D02*
X128110000Y-142067500D01*
X128440000Y-141827500D01*
X128440000Y-142307500D01*
G36*
X128440000Y-142307500D02*
G01*
X128110000Y-142067500D01*
X128440000Y-141827500D01*
X128440000Y-142307500D01*
G37*
%TO.C,C17*%
X119065000Y-147561252D02*
X119065000Y-147038748D01*
X120535000Y-147561252D02*
X120535000Y-147038748D01*
%TO.C,C6*%
X136261252Y-141385000D02*
X135738748Y-141385000D01*
X136261252Y-139915000D02*
X135738748Y-139915000D01*
%TO.C,C14*%
X140211252Y-146735000D02*
X139688748Y-146735000D01*
X140211252Y-145265000D02*
X139688748Y-145265000D01*
%TO.C,C16*%
X112435000Y-147038748D02*
X112435000Y-147561252D01*
X110965000Y-147038748D02*
X110965000Y-147561252D01*
%TO.C,C3*%
X117738748Y-139915000D02*
X118261252Y-139915000D01*
X117738748Y-141385000D02*
X118261252Y-141385000D01*
%TO.C,R15*%
X144227064Y-135355000D02*
X143772936Y-135355000D01*
X144227064Y-133885000D02*
X143772936Y-133885000D01*
%TO.C,C9*%
X107921248Y-139565000D02*
X108443752Y-139565000D01*
X107921248Y-141035000D02*
X108443752Y-141035000D01*
%TO.C,L2*%
X132664758Y-142090000D02*
X134335242Y-142090000D01*
X132664758Y-143910000D02*
X134335242Y-143910000D01*
%TO.C,R10*%
X147672936Y-137765000D02*
X148127064Y-137765000D01*
X147672936Y-139235000D02*
X148127064Y-139235000D01*
%TO.C,U1*%
X118115000Y-128150000D02*
X118115000Y-126820000D01*
X118115000Y-128150000D02*
X119495000Y-128150000D01*
X118375000Y-116700000D02*
X131615000Y-116700000D01*
X118375000Y-127940000D02*
X118375000Y-116700000D01*
X121370000Y-124470000D02*
X121870000Y-125470000D01*
X121870000Y-124470000D02*
X121870000Y-123470000D01*
X121870000Y-125470000D02*
X121870000Y-126470000D01*
X121870000Y-125470000D02*
X122370000Y-124470000D01*
X122370000Y-124470000D02*
X121370000Y-124470000D01*
X122370000Y-125470000D02*
X121370000Y-125470000D01*
X122615000Y-127940000D02*
X118375000Y-127940000D01*
X122615000Y-127940000D02*
X122615000Y-120940000D01*
X127375000Y-120940000D02*
X122615000Y-120940000D01*
X127375000Y-127940000D02*
X127375000Y-120940000D01*
X131615000Y-116700000D02*
X131615000Y-127940000D01*
X131615000Y-127940000D02*
X127375000Y-127940000D01*
D13*
X128450000Y-126240000D02*
G75*
G03*
X128090000Y-126240000I-180000J0D01*
G01*
X128090000Y-126240000D02*
G75*
G03*
X128450000Y-126240000I180000J0D01*
G01*
D11*
%TO.C,C8*%
X135738748Y-147765000D02*
X136261252Y-147765000D01*
X135738748Y-149235000D02*
X136261252Y-149235000D01*
%TO.C,R5*%
X106427064Y-136235000D02*
X105972936Y-136235000D01*
X106427064Y-134765000D02*
X105972936Y-134765000D01*
%TO.C,C7*%
X136261252Y-146735000D02*
X135738748Y-146735000D01*
X136261252Y-145265000D02*
X135738748Y-145265000D01*
%TO.C,C10*%
X110315000Y-143661252D02*
X110315000Y-143138748D01*
X111785000Y-143661252D02*
X111785000Y-143138748D01*
%TO.C,R1*%
X131772936Y-145265000D02*
X132227064Y-145265000D01*
X131772936Y-146735000D02*
X132227064Y-146735000D01*
%TO.C,Q1*%
X142440000Y-110000000D02*
X142440000Y-110650000D01*
X142440000Y-110000000D02*
X142440000Y-109350000D01*
X145560000Y-110000000D02*
X145560000Y-110650000D01*
X145560000Y-110000000D02*
X145560000Y-109350000D01*
X142490000Y-111162500D02*
X142160000Y-111402500D01*
X142160000Y-110922500D01*
X142490000Y-111162500D01*
G36*
X142490000Y-111162500D02*
G01*
X142160000Y-111402500D01*
X142160000Y-110922500D01*
X142490000Y-111162500D01*
G37*
%TO.C,C11*%
X108265000Y-147761252D02*
X108265000Y-147238748D01*
X109735000Y-147761252D02*
X109735000Y-147238748D01*
%TO.C,Q2*%
X142440000Y-114000000D02*
X142440000Y-114650000D01*
X142440000Y-114000000D02*
X142440000Y-113350000D01*
X145560000Y-114000000D02*
X145560000Y-114650000D01*
X145560000Y-114000000D02*
X145560000Y-113350000D01*
X142490000Y-115162500D02*
X142160000Y-115402500D01*
X142160000Y-114922500D01*
X142490000Y-115162500D01*
G36*
X142490000Y-115162500D02*
G01*
X142160000Y-115402500D01*
X142160000Y-114922500D01*
X142490000Y-115162500D01*
G37*
%TO.C,R14*%
X144227064Y-133235000D02*
X143772936Y-133235000D01*
X144227064Y-131765000D02*
X143772936Y-131765000D01*
%TO.C,R12*%
X129272936Y-128965000D02*
X129727064Y-128965000D01*
X129272936Y-130435000D02*
X129727064Y-130435000D01*
%TO.C,R3*%
X143672936Y-140065000D02*
X144127064Y-140065000D01*
X143672936Y-141535000D02*
X144127064Y-141535000D01*
%TO.C,C15*%
X140211252Y-149235000D02*
X139688748Y-149235000D01*
X140211252Y-147765000D02*
X139688748Y-147765000D01*
%TD*%
M02*
