%TF.GenerationSoftware,KiCad,Pcbnew,7.0.11+dfsg-1build4*%
%TF.CreationDate,2026-01-29T22:08:19-05:00*%
%TF.ProjectId,compact-nfc,636f6d70-6163-4742-9d6e-66632e6b6963,rev?*%
%TF.SameCoordinates,Original*%
%TF.FileFunction,Legend,Bot*%
%TF.FilePolarity,Positive*%
%FSLAX46Y46*%
G04 Gerber Fmt 4.6, Leading zero omitted, Abs format (unit mm)*
G04 Created by KiCad (PCBNEW 7.0.11+dfsg-1build4) date 2026-01-29 22:08:19*
%MOMM*%
%LPD*%
G01*
G04 APERTURE LIST*
%ADD10C,0.250000*%
G04 APERTURE END LIST*
D10*
X144536241Y-133849619D02*
X145012431Y-133849619D01*
X145012431Y-133849619D02*
X145012431Y-132849619D01*
X144202907Y-133849619D02*
X144202907Y-132849619D01*
X143631479Y-133849619D02*
X144060050Y-133278190D01*
X143631479Y-132849619D02*
X144202907Y-133421047D01*
X142869574Y-133325809D02*
X142726717Y-133373428D01*
X142726717Y-133373428D02*
X142679098Y-133421047D01*
X142679098Y-133421047D02*
X142631479Y-133516285D01*
X142631479Y-133516285D02*
X142631479Y-133659142D01*
X142631479Y-133659142D02*
X142679098Y-133754380D01*
X142679098Y-133754380D02*
X142726717Y-133802000D01*
X142726717Y-133802000D02*
X142821955Y-133849619D01*
X142821955Y-133849619D02*
X143202907Y-133849619D01*
X143202907Y-133849619D02*
X143202907Y-132849619D01*
X143202907Y-132849619D02*
X142869574Y-132849619D01*
X142869574Y-132849619D02*
X142774336Y-132897238D01*
X142774336Y-132897238D02*
X142726717Y-132944857D01*
X142726717Y-132944857D02*
X142679098Y-133040095D01*
X142679098Y-133040095D02*
X142679098Y-133135333D01*
X142679098Y-133135333D02*
X142726717Y-133230571D01*
X142726717Y-133230571D02*
X142774336Y-133278190D01*
X142774336Y-133278190D02*
X142869574Y-133325809D01*
X142869574Y-133325809D02*
X143202907Y-133325809D01*
X145155288Y-115069619D02*
X144821955Y-116069619D01*
X144821955Y-116069619D02*
X144488622Y-115069619D01*
X143583860Y-115974380D02*
X143631479Y-116022000D01*
X143631479Y-116022000D02*
X143774336Y-116069619D01*
X143774336Y-116069619D02*
X143869574Y-116069619D01*
X143869574Y-116069619D02*
X144012431Y-116022000D01*
X144012431Y-116022000D02*
X144107669Y-115926761D01*
X144107669Y-115926761D02*
X144155288Y-115831523D01*
X144155288Y-115831523D02*
X144202907Y-115641047D01*
X144202907Y-115641047D02*
X144202907Y-115498190D01*
X144202907Y-115498190D02*
X144155288Y-115307714D01*
X144155288Y-115307714D02*
X144107669Y-115212476D01*
X144107669Y-115212476D02*
X144012431Y-115117238D01*
X144012431Y-115117238D02*
X143869574Y-115069619D01*
X143869574Y-115069619D02*
X143774336Y-115069619D01*
X143774336Y-115069619D02*
X143631479Y-115117238D01*
X143631479Y-115117238D02*
X143583860Y-115164857D01*
X142583860Y-115974380D02*
X142631479Y-116022000D01*
X142631479Y-116022000D02*
X142774336Y-116069619D01*
X142774336Y-116069619D02*
X142869574Y-116069619D01*
X142869574Y-116069619D02*
X143012431Y-116022000D01*
X143012431Y-116022000D02*
X143107669Y-115926761D01*
X143107669Y-115926761D02*
X143155288Y-115831523D01*
X143155288Y-115831523D02*
X143202907Y-115641047D01*
X143202907Y-115641047D02*
X143202907Y-115498190D01*
X143202907Y-115498190D02*
X143155288Y-115307714D01*
X143155288Y-115307714D02*
X143107669Y-115212476D01*
X143107669Y-115212476D02*
X143012431Y-115117238D01*
X143012431Y-115117238D02*
X142869574Y-115069619D01*
X142869574Y-115069619D02*
X142774336Y-115069619D01*
X142774336Y-115069619D02*
X142631479Y-115117238D01*
X142631479Y-115117238D02*
X142583860Y-115164857D01*
X144536241Y-131309619D02*
X145012431Y-131309619D01*
X145012431Y-131309619D02*
X145012431Y-130309619D01*
X144202907Y-131309619D02*
X144202907Y-130309619D01*
X143631479Y-131309619D02*
X144060050Y-130738190D01*
X143631479Y-130309619D02*
X144202907Y-130881047D01*
X142679098Y-130357238D02*
X142774336Y-130309619D01*
X142774336Y-130309619D02*
X142917193Y-130309619D01*
X142917193Y-130309619D02*
X143060050Y-130357238D01*
X143060050Y-130357238D02*
X143155288Y-130452476D01*
X143155288Y-130452476D02*
X143202907Y-130547714D01*
X143202907Y-130547714D02*
X143250526Y-130738190D01*
X143250526Y-130738190D02*
X143250526Y-130881047D01*
X143250526Y-130881047D02*
X143202907Y-131071523D01*
X143202907Y-131071523D02*
X143155288Y-131166761D01*
X143155288Y-131166761D02*
X143060050Y-131262000D01*
X143060050Y-131262000D02*
X142917193Y-131309619D01*
X142917193Y-131309619D02*
X142821955Y-131309619D01*
X142821955Y-131309619D02*
X142679098Y-131262000D01*
X142679098Y-131262000D02*
X142631479Y-131214380D01*
X142631479Y-131214380D02*
X142631479Y-130881047D01*
X142631479Y-130881047D02*
X142821955Y-130881047D01*
X145060050Y-121102000D02*
X144917193Y-121149619D01*
X144917193Y-121149619D02*
X144679098Y-121149619D01*
X144679098Y-121149619D02*
X144583860Y-121102000D01*
X144583860Y-121102000D02*
X144536241Y-121054380D01*
X144536241Y-121054380D02*
X144488622Y-120959142D01*
X144488622Y-120959142D02*
X144488622Y-120863904D01*
X144488622Y-120863904D02*
X144536241Y-120768666D01*
X144536241Y-120768666D02*
X144583860Y-120721047D01*
X144583860Y-120721047D02*
X144679098Y-120673428D01*
X144679098Y-120673428D02*
X144869574Y-120625809D01*
X144869574Y-120625809D02*
X144964812Y-120578190D01*
X144964812Y-120578190D02*
X145012431Y-120530571D01*
X145012431Y-120530571D02*
X145060050Y-120435333D01*
X145060050Y-120435333D02*
X145060050Y-120340095D01*
X145060050Y-120340095D02*
X145012431Y-120244857D01*
X145012431Y-120244857D02*
X144964812Y-120197238D01*
X144964812Y-120197238D02*
X144869574Y-120149619D01*
X144869574Y-120149619D02*
X144631479Y-120149619D01*
X144631479Y-120149619D02*
X144488622Y-120197238D01*
X144060050Y-121149619D02*
X144060050Y-120149619D01*
X144060050Y-120149619D02*
X143821955Y-120149619D01*
X143821955Y-120149619D02*
X143679098Y-120197238D01*
X143679098Y-120197238D02*
X143583860Y-120292476D01*
X143583860Y-120292476D02*
X143536241Y-120387714D01*
X143536241Y-120387714D02*
X143488622Y-120578190D01*
X143488622Y-120578190D02*
X143488622Y-120721047D01*
X143488622Y-120721047D02*
X143536241Y-120911523D01*
X143536241Y-120911523D02*
X143583860Y-121006761D01*
X143583860Y-121006761D02*
X143679098Y-121102000D01*
X143679098Y-121102000D02*
X143821955Y-121149619D01*
X143821955Y-121149619D02*
X144060050Y-121149619D01*
X143202907Y-120149619D02*
X142631479Y-120149619D01*
X142917193Y-121149619D02*
X142917193Y-120149619D01*
X144536241Y-128769619D02*
X145012431Y-128769619D01*
X145012431Y-128769619D02*
X145012431Y-127769619D01*
X144202907Y-128769619D02*
X144202907Y-127769619D01*
X143631479Y-128769619D02*
X144060050Y-128198190D01*
X143631479Y-127769619D02*
X144202907Y-128341047D01*
X142631479Y-128769619D02*
X142964812Y-128293428D01*
X143202907Y-128769619D02*
X143202907Y-127769619D01*
X143202907Y-127769619D02*
X142821955Y-127769619D01*
X142821955Y-127769619D02*
X142726717Y-127817238D01*
X142726717Y-127817238D02*
X142679098Y-127864857D01*
X142679098Y-127864857D02*
X142631479Y-127960095D01*
X142631479Y-127960095D02*
X142631479Y-128102952D01*
X142631479Y-128102952D02*
X142679098Y-128198190D01*
X142679098Y-128198190D02*
X142726717Y-128245809D01*
X142726717Y-128245809D02*
X142821955Y-128293428D01*
X142821955Y-128293428D02*
X143202907Y-128293428D01*
X145060050Y-110942000D02*
X144917193Y-110989619D01*
X144917193Y-110989619D02*
X144679098Y-110989619D01*
X144679098Y-110989619D02*
X144583860Y-110942000D01*
X144583860Y-110942000D02*
X144536241Y-110894380D01*
X144536241Y-110894380D02*
X144488622Y-110799142D01*
X144488622Y-110799142D02*
X144488622Y-110703904D01*
X144488622Y-110703904D02*
X144536241Y-110608666D01*
X144536241Y-110608666D02*
X144583860Y-110561047D01*
X144583860Y-110561047D02*
X144679098Y-110513428D01*
X144679098Y-110513428D02*
X144869574Y-110465809D01*
X144869574Y-110465809D02*
X144964812Y-110418190D01*
X144964812Y-110418190D02*
X145012431Y-110370571D01*
X145012431Y-110370571D02*
X145060050Y-110275333D01*
X145060050Y-110275333D02*
X145060050Y-110180095D01*
X145060050Y-110180095D02*
X145012431Y-110084857D01*
X145012431Y-110084857D02*
X144964812Y-110037238D01*
X144964812Y-110037238D02*
X144869574Y-109989619D01*
X144869574Y-109989619D02*
X144631479Y-109989619D01*
X144631479Y-109989619D02*
X144488622Y-110037238D01*
X143488622Y-110894380D02*
X143536241Y-110942000D01*
X143536241Y-110942000D02*
X143679098Y-110989619D01*
X143679098Y-110989619D02*
X143774336Y-110989619D01*
X143774336Y-110989619D02*
X143917193Y-110942000D01*
X143917193Y-110942000D02*
X144012431Y-110846761D01*
X144012431Y-110846761D02*
X144060050Y-110751523D01*
X144060050Y-110751523D02*
X144107669Y-110561047D01*
X144107669Y-110561047D02*
X144107669Y-110418190D01*
X144107669Y-110418190D02*
X144060050Y-110227714D01*
X144060050Y-110227714D02*
X144012431Y-110132476D01*
X144012431Y-110132476D02*
X143917193Y-110037238D01*
X143917193Y-110037238D02*
X143774336Y-109989619D01*
X143774336Y-109989619D02*
X143679098Y-109989619D01*
X143679098Y-109989619D02*
X143536241Y-110037238D01*
X143536241Y-110037238D02*
X143488622Y-110084857D01*
X142583860Y-110989619D02*
X143060050Y-110989619D01*
X143060050Y-110989619D02*
X143060050Y-109989619D01*
X145060050Y-113482000D02*
X144917193Y-113529619D01*
X144917193Y-113529619D02*
X144679098Y-113529619D01*
X144679098Y-113529619D02*
X144583860Y-113482000D01*
X144583860Y-113482000D02*
X144536241Y-113434380D01*
X144536241Y-113434380D02*
X144488622Y-113339142D01*
X144488622Y-113339142D02*
X144488622Y-113243904D01*
X144488622Y-113243904D02*
X144536241Y-113148666D01*
X144536241Y-113148666D02*
X144583860Y-113101047D01*
X144583860Y-113101047D02*
X144679098Y-113053428D01*
X144679098Y-113053428D02*
X144869574Y-113005809D01*
X144869574Y-113005809D02*
X144964812Y-112958190D01*
X144964812Y-112958190D02*
X145012431Y-112910571D01*
X145012431Y-112910571D02*
X145060050Y-112815333D01*
X145060050Y-112815333D02*
X145060050Y-112720095D01*
X145060050Y-112720095D02*
X145012431Y-112624857D01*
X145012431Y-112624857D02*
X144964812Y-112577238D01*
X144964812Y-112577238D02*
X144869574Y-112529619D01*
X144869574Y-112529619D02*
X144631479Y-112529619D01*
X144631479Y-112529619D02*
X144488622Y-112577238D01*
X144060050Y-113529619D02*
X144060050Y-112529619D01*
X144060050Y-112529619D02*
X143821955Y-112529619D01*
X143821955Y-112529619D02*
X143679098Y-112577238D01*
X143679098Y-112577238D02*
X143583860Y-112672476D01*
X143583860Y-112672476D02*
X143536241Y-112767714D01*
X143536241Y-112767714D02*
X143488622Y-112958190D01*
X143488622Y-112958190D02*
X143488622Y-113101047D01*
X143488622Y-113101047D02*
X143536241Y-113291523D01*
X143536241Y-113291523D02*
X143583860Y-113386761D01*
X143583860Y-113386761D02*
X143679098Y-113482000D01*
X143679098Y-113482000D02*
X143821955Y-113529619D01*
X143821955Y-113529619D02*
X144060050Y-113529619D01*
X143107669Y-113243904D02*
X142631479Y-113243904D01*
X143202907Y-113529619D02*
X142869574Y-112529619D01*
X142869574Y-112529619D02*
X142536241Y-113529619D01*
X144441003Y-126229619D02*
X144774336Y-125753428D01*
X145012431Y-126229619D02*
X145012431Y-125229619D01*
X145012431Y-125229619D02*
X144631479Y-125229619D01*
X144631479Y-125229619D02*
X144536241Y-125277238D01*
X144536241Y-125277238D02*
X144488622Y-125324857D01*
X144488622Y-125324857D02*
X144441003Y-125420095D01*
X144441003Y-125420095D02*
X144441003Y-125562952D01*
X144441003Y-125562952D02*
X144488622Y-125658190D01*
X144488622Y-125658190D02*
X144536241Y-125705809D01*
X144536241Y-125705809D02*
X144631479Y-125753428D01*
X144631479Y-125753428D02*
X145012431Y-125753428D01*
X144060050Y-126182000D02*
X143917193Y-126229619D01*
X143917193Y-126229619D02*
X143679098Y-126229619D01*
X143679098Y-126229619D02*
X143583860Y-126182000D01*
X143583860Y-126182000D02*
X143536241Y-126134380D01*
X143536241Y-126134380D02*
X143488622Y-126039142D01*
X143488622Y-126039142D02*
X143488622Y-125943904D01*
X143488622Y-125943904D02*
X143536241Y-125848666D01*
X143536241Y-125848666D02*
X143583860Y-125801047D01*
X143583860Y-125801047D02*
X143679098Y-125753428D01*
X143679098Y-125753428D02*
X143869574Y-125705809D01*
X143869574Y-125705809D02*
X143964812Y-125658190D01*
X143964812Y-125658190D02*
X144012431Y-125610571D01*
X144012431Y-125610571D02*
X144060050Y-125515333D01*
X144060050Y-125515333D02*
X144060050Y-125420095D01*
X144060050Y-125420095D02*
X144012431Y-125324857D01*
X144012431Y-125324857D02*
X143964812Y-125277238D01*
X143964812Y-125277238D02*
X143869574Y-125229619D01*
X143869574Y-125229619D02*
X143631479Y-125229619D01*
X143631479Y-125229619D02*
X143488622Y-125277238D01*
X143202907Y-125229619D02*
X142631479Y-125229619D01*
X142917193Y-126229619D02*
X142917193Y-125229619D01*
X144488622Y-117657238D02*
X144583860Y-117609619D01*
X144583860Y-117609619D02*
X144726717Y-117609619D01*
X144726717Y-117609619D02*
X144869574Y-117657238D01*
X144869574Y-117657238D02*
X144964812Y-117752476D01*
X144964812Y-117752476D02*
X145012431Y-117847714D01*
X145012431Y-117847714D02*
X145060050Y-118038190D01*
X145060050Y-118038190D02*
X145060050Y-118181047D01*
X145060050Y-118181047D02*
X145012431Y-118371523D01*
X145012431Y-118371523D02*
X144964812Y-118466761D01*
X144964812Y-118466761D02*
X144869574Y-118562000D01*
X144869574Y-118562000D02*
X144726717Y-118609619D01*
X144726717Y-118609619D02*
X144631479Y-118609619D01*
X144631479Y-118609619D02*
X144488622Y-118562000D01*
X144488622Y-118562000D02*
X144441003Y-118514380D01*
X144441003Y-118514380D02*
X144441003Y-118181047D01*
X144441003Y-118181047D02*
X144631479Y-118181047D01*
X144012431Y-118609619D02*
X144012431Y-117609619D01*
X144012431Y-117609619D02*
X143441003Y-118609619D01*
X143441003Y-118609619D02*
X143441003Y-117609619D01*
X142964812Y-118609619D02*
X142964812Y-117609619D01*
X142964812Y-117609619D02*
X142726717Y-117609619D01*
X142726717Y-117609619D02*
X142583860Y-117657238D01*
X142583860Y-117657238D02*
X142488622Y-117752476D01*
X142488622Y-117752476D02*
X142441003Y-117847714D01*
X142441003Y-117847714D02*
X142393384Y-118038190D01*
X142393384Y-118038190D02*
X142393384Y-118181047D01*
X142393384Y-118181047D02*
X142441003Y-118371523D01*
X142441003Y-118371523D02*
X142488622Y-118466761D01*
X142488622Y-118466761D02*
X142583860Y-118562000D01*
X142583860Y-118562000D02*
X142726717Y-118609619D01*
X142726717Y-118609619D02*
X142964812Y-118609619D01*
X145060050Y-123642000D02*
X144917193Y-123689619D01*
X144917193Y-123689619D02*
X144679098Y-123689619D01*
X144679098Y-123689619D02*
X144583860Y-123642000D01*
X144583860Y-123642000D02*
X144536241Y-123594380D01*
X144536241Y-123594380D02*
X144488622Y-123499142D01*
X144488622Y-123499142D02*
X144488622Y-123403904D01*
X144488622Y-123403904D02*
X144536241Y-123308666D01*
X144536241Y-123308666D02*
X144583860Y-123261047D01*
X144583860Y-123261047D02*
X144679098Y-123213428D01*
X144679098Y-123213428D02*
X144869574Y-123165809D01*
X144869574Y-123165809D02*
X144964812Y-123118190D01*
X144964812Y-123118190D02*
X145012431Y-123070571D01*
X145012431Y-123070571D02*
X145060050Y-122975333D01*
X145060050Y-122975333D02*
X145060050Y-122880095D01*
X145060050Y-122880095D02*
X145012431Y-122784857D01*
X145012431Y-122784857D02*
X144964812Y-122737238D01*
X144964812Y-122737238D02*
X144869574Y-122689619D01*
X144869574Y-122689619D02*
X144631479Y-122689619D01*
X144631479Y-122689619D02*
X144488622Y-122737238D01*
X143583860Y-123689619D02*
X144060050Y-123689619D01*
X144060050Y-123689619D02*
X144060050Y-122689619D01*
X143250526Y-123689619D02*
X143250526Y-122689619D01*
X143250526Y-122689619D02*
X143012431Y-122689619D01*
X143012431Y-122689619D02*
X142869574Y-122737238D01*
X142869574Y-122737238D02*
X142774336Y-122832476D01*
X142774336Y-122832476D02*
X142726717Y-122927714D01*
X142726717Y-122927714D02*
X142679098Y-123118190D01*
X142679098Y-123118190D02*
X142679098Y-123261047D01*
X142679098Y-123261047D02*
X142726717Y-123451523D01*
X142726717Y-123451523D02*
X142774336Y-123546761D01*
X142774336Y-123546761D02*
X142869574Y-123642000D01*
X142869574Y-123642000D02*
X143012431Y-123689619D01*
X143012431Y-123689619D02*
X143250526Y-123689619D01*
M02*
