%TF.GenerationSoftware,KiCad,Pcbnew,7.0.11+dfsg-1build4*%
%TF.CreationDate,2026-01-29T22:08:19-05:00*%
%TF.ProjectId,compact-nfc,636f6d70-6163-4742-9d6e-66632e6b6963,rev?*%
%TF.SameCoordinates,Original*%
%TF.FileFunction,Paste,Top*%
%TF.FilePolarity,Positive*%
%FSLAX46Y46*%
G04 Gerber Fmt 4.6, Leading zero omitted, Abs format (unit mm)*
G04 Created by KiCad (PCBNEW 7.0.11+dfsg-1build4) date 2026-01-29 22:08:19*
%MOMM*%
%LPD*%
G01*
G04 APERTURE LIST*
G04 Aperture macros list*
%AMRoundRect*
0 Rectangle with rounded corners*
0 $1 Rounding radius*
0 $2 $3 $4 $5 $6 $7 $8 $9 X,Y pos of 4 corners*
0 Add a 4 corners polygon primitive as box body*
4,1,4,$2,$3,$4,$5,$6,$7,$8,$9,$2,$3,0*
0 Add four circle primitives for the rounded corners*
1,1,$1+$1,$2,$3*
1,1,$1+$1,$4,$5*
1,1,$1+$1,$6,$7*
1,1,$1+$1,$8,$9*
0 Add four rect primitives between the rounded corners*
20,1,$1+$1,$2,$3,$4,$5,0*
20,1,$1+$1,$4,$5,$6,$7,0*
20,1,$1+$1,$6,$7,$8,$9,0*
20,1,$1+$1,$8,$9,$2,$3,0*%
G04 Aperture macros list end*
%ADD10RoundRect,0.250000X0.350000X0.450000X-0.350000X0.450000X-0.350000X-0.450000X0.350000X-0.450000X0*%
%ADD11RoundRect,0.250000X0.337500X0.475000X-0.337500X0.475000X-0.337500X-0.475000X0.337500X-0.475000X0*%
%ADD12RoundRect,0.250000X-0.350000X-0.450000X0.350000X-0.450000X0.350000X0.450000X-0.350000X0.450000X0*%
%ADD13R,2.100000X1.800000*%
%ADD14RoundRect,0.250000X-0.337500X-0.475000X0.337500X-0.475000X0.337500X0.475000X-0.337500X0.475000X0*%
%ADD15R,1.400000X0.800000*%
%ADD16RoundRect,0.250000X0.475000X-0.337500X0.475000X0.337500X-0.475000X0.337500X-0.475000X-0.337500X0*%
%ADD17C,1.000000*%
%ADD18RoundRect,0.250000X0.362500X0.700000X-0.362500X0.700000X-0.362500X-0.700000X0.362500X-0.700000X0*%
%ADD19RoundRect,0.250000X-0.300000X0.300000X-0.300000X-0.300000X0.300000X-0.300000X0.300000X0.300000X0*%
%ADD20RoundRect,0.062500X-0.062500X0.375000X-0.062500X-0.375000X0.062500X-0.375000X0.062500X0.375000X0*%
%ADD21RoundRect,0.062500X-0.375000X0.062500X-0.375000X-0.062500X0.375000X-0.062500X0.375000X0.062500X0*%
%ADD22RoundRect,0.250000X-0.475000X0.337500X-0.475000X-0.337500X0.475000X-0.337500X0.475000X0.337500X0*%
%ADD23RoundRect,0.250000X-0.362500X-0.700000X0.362500X-0.700000X0.362500X0.700000X-0.362500X0.700000X0*%
%ADD24RoundRect,0.150000X0.150000X-0.587500X0.150000X0.587500X-0.150000X0.587500X-0.150000X-0.587500X0*%
G04 APERTURE END LIST*
D10*
%TO.C,R7*%
X103200000Y-135500000D03*
X101200000Y-135500000D03*
%TD*%
D11*
%TO.C,C5*%
X115037500Y-140650000D03*
X112962500Y-140650000D03*
%TD*%
D10*
%TO.C,R2*%
X133000000Y-148500000D03*
X131000000Y-148500000D03*
%TD*%
%TO.C,R8*%
X103200000Y-138000000D03*
X101200000Y-138000000D03*
%TD*%
D12*
%TO.C,R4*%
X146900000Y-140800000D03*
X148900000Y-140800000D03*
%TD*%
D10*
%TO.C,R11*%
X121300000Y-129700000D03*
X119300000Y-129700000D03*
%TD*%
D13*
%TO.C,Y1*%
X114300000Y-148450000D03*
X117200000Y-148450000D03*
X117200000Y-146150000D03*
X114300000Y-146150000D03*
%TD*%
D14*
%TO.C,C1*%
X121222500Y-139500000D03*
X123297500Y-139500000D03*
%TD*%
%TO.C,C2*%
X126702500Y-139500000D03*
X128777500Y-139500000D03*
%TD*%
D11*
%TO.C,C4*%
X133037500Y-140650000D03*
X130962500Y-140650000D03*
%TD*%
D10*
%TO.C,R6*%
X107200000Y-138000000D03*
X105200000Y-138000000D03*
%TD*%
D15*
%TO.C,D1*%
X134200000Y-103800000D03*
X139800000Y-103800000D03*
X134200000Y-102200000D03*
X139800000Y-102200000D03*
%TD*%
D16*
%TO.C,C13*%
X109000000Y-144437500D03*
X109000000Y-142362500D03*
%TD*%
D17*
%TO.C,L_pcb1*%
X119600000Y-138750000D03*
X125000000Y-139700000D03*
X130400000Y-138750000D03*
%TD*%
D14*
%TO.C,C12*%
X138912500Y-143700000D03*
X140987500Y-143700000D03*
%TD*%
D10*
%TO.C,R13*%
X145000000Y-130400000D03*
X143000000Y-130400000D03*
%TD*%
D12*
%TO.C,R9*%
X142900000Y-138500000D03*
X144900000Y-138500000D03*
%TD*%
D18*
%TO.C,L1*%
X118162500Y-143000000D03*
X114837500Y-143000000D03*
%TD*%
D19*
%TO.C,U2*%
X126370000Y-143807500D03*
X125000000Y-143807500D03*
X123630000Y-143807500D03*
X126370000Y-145177500D03*
X125000000Y-145177500D03*
X123630000Y-145177500D03*
X126370000Y-146547500D03*
X125000000Y-146547500D03*
X123630000Y-146547500D03*
D20*
X127250000Y-142240000D03*
X126750000Y-142240000D03*
X126250000Y-142240000D03*
X125750000Y-142240000D03*
X125250000Y-142240000D03*
X124750000Y-142240000D03*
X124250000Y-142240000D03*
X123750000Y-142240000D03*
X123250000Y-142240000D03*
X122750000Y-142240000D03*
D21*
X122062500Y-142927500D03*
X122062500Y-143427500D03*
X122062500Y-143927500D03*
X122062500Y-144427500D03*
X122062500Y-144927500D03*
X122062500Y-145427500D03*
X122062500Y-145927500D03*
X122062500Y-146427500D03*
X122062500Y-146927500D03*
X122062500Y-147427500D03*
D20*
X122750000Y-148115000D03*
X123250000Y-148115000D03*
X123750000Y-148115000D03*
X124250000Y-148115000D03*
X124750000Y-148115000D03*
X125250000Y-148115000D03*
X125750000Y-148115000D03*
X126250000Y-148115000D03*
X126750000Y-148115000D03*
X127250000Y-148115000D03*
D21*
X127937500Y-147427500D03*
X127937500Y-146927500D03*
X127937500Y-146427500D03*
X127937500Y-145927500D03*
X127937500Y-145427500D03*
X127937500Y-144927500D03*
X127937500Y-144427500D03*
X127937500Y-143927500D03*
X127937500Y-143427500D03*
X127937500Y-142927500D03*
%TD*%
D16*
%TO.C,C17*%
X119800000Y-148337500D03*
X119800000Y-146262500D03*
%TD*%
D11*
%TO.C,C6*%
X137037500Y-140650000D03*
X134962500Y-140650000D03*
%TD*%
%TO.C,C14*%
X140987500Y-146000000D03*
X138912500Y-146000000D03*
%TD*%
D22*
%TO.C,C16*%
X111700000Y-146262500D03*
X111700000Y-148337500D03*
%TD*%
D14*
%TO.C,C3*%
X116962500Y-140650000D03*
X119037500Y-140650000D03*
%TD*%
D10*
%TO.C,R15*%
X145000000Y-134620000D03*
X143000000Y-134620000D03*
%TD*%
D14*
%TO.C,C9*%
X107145000Y-140300000D03*
X109220000Y-140300000D03*
%TD*%
D23*
%TO.C,L2*%
X131837500Y-143000000D03*
X135162500Y-143000000D03*
%TD*%
D12*
%TO.C,R10*%
X146900000Y-138500000D03*
X148900000Y-138500000D03*
%TD*%
D14*
%TO.C,C8*%
X134962500Y-148500000D03*
X137037500Y-148500000D03*
%TD*%
D10*
%TO.C,R5*%
X107200000Y-135500000D03*
X105200000Y-135500000D03*
%TD*%
D11*
%TO.C,C7*%
X137037500Y-146000000D03*
X134962500Y-146000000D03*
%TD*%
D16*
%TO.C,C10*%
X111050000Y-144437500D03*
X111050000Y-142362500D03*
%TD*%
D12*
%TO.C,R1*%
X131000000Y-146000000D03*
X133000000Y-146000000D03*
%TD*%
D24*
%TO.C,Q1*%
X143050000Y-110937500D03*
X144950000Y-110937500D03*
X144000000Y-109062500D03*
%TD*%
D16*
%TO.C,C11*%
X109000000Y-148537500D03*
X109000000Y-146462500D03*
%TD*%
D24*
%TO.C,Q2*%
X143050000Y-114937500D03*
X144950000Y-114937500D03*
X144000000Y-113062500D03*
%TD*%
D10*
%TO.C,R14*%
X145000000Y-132500000D03*
X143000000Y-132500000D03*
%TD*%
D12*
%TO.C,R12*%
X128500000Y-129700000D03*
X130500000Y-129700000D03*
%TD*%
%TO.C,R3*%
X142900000Y-140800000D03*
X144900000Y-140800000D03*
%TD*%
D11*
%TO.C,C15*%
X140987500Y-148500000D03*
X138912500Y-148500000D03*
%TD*%
M02*
