%TF.GenerationSoftware,KiCad,Pcbnew,7.0.11+dfsg-1build4*%
%TF.CreationDate,2026-01-28T23:03:34-05:00*%
%TF.ProjectId,compact-nfc,636f6d70-6163-4742-9d6e-66632e6b6963,rev?*%
%TF.SameCoordinates,Original*%
%TF.FileFunction,Copper,L2,Bot*%
%TF.FilePolarity,Positive*%
%FSLAX46Y46*%
G04 Gerber Fmt 4.6, Leading zero omitted, Abs format (unit mm)*
G04 Created by KiCad (PCBNEW 7.0.11+dfsg-1build4) date 2026-01-28 23:03:34*
%MOMM*%
%LPD*%
G01*
G04 APERTURE LIST*
G04 Aperture macros list*
%AMRoundRect*
0 Rectangle with rounded corners*
0 $1 Rounding radius*
0 $2 $3 $4 $5 $6 $7 $8 $9 X,Y pos of 4 corners*
0 Add a 4 corners polygon primitive as box body*
4,1,4,$2,$3,$4,$5,$6,$7,$8,$9,$2,$3,0*
0 Add four circle primitives for the rounded corners*
1,1,$1+$1,$2,$3*
1,1,$1+$1,$4,$5*
1,1,$1+$1,$6,$7*
1,1,$1+$1,$8,$9*
0 Add four rect primitives between the rounded corners*
20,1,$1+$1,$2,$3,$4,$5,0*
20,1,$1+$1,$4,$5,$6,$7,0*
20,1,$1+$1,$6,$7,$8,$9,0*
20,1,$1+$1,$8,$9,$2,$3,0*%
G04 Aperture macros list end*
%TA.AperFunction,EtchedComponent*%
%ADD10C,0.500000*%
%TD*%
%TA.AperFunction,ComponentPad*%
%ADD11C,0.600000*%
%TD*%
%TA.AperFunction,ComponentPad*%
%ADD12R,1.700000X1.700000*%
%TD*%
%TA.AperFunction,ComponentPad*%
%ADD13O,1.700000X1.700000*%
%TD*%
%TA.AperFunction,WasherPad*%
%ADD14C,1.600000*%
%TD*%
%TA.AperFunction,ComponentPad*%
%ADD15RoundRect,0.340500X0.659500X-0.409500X0.659500X0.409500X-0.659500X0.409500X-0.659500X-0.409500X0*%
%TD*%
%TA.AperFunction,ComponentPad*%
%ADD16O,2.000000X1.500000*%
%TD*%
%TA.AperFunction,ViaPad*%
%ADD17C,0.600000*%
%TD*%
%TA.AperFunction,Conductor*%
%ADD18C,0.200000*%
%TD*%
G04 APERTURE END LIST*
D10*
%TO.C,L_pcb1*%
X125000000Y-135750000D02*
X125000000Y-138750000D01*
X129500000Y-116250000D02*
X125000000Y-111250000D01*
%TD*%
D11*
%TO.P,L_pcb1,B*%
%TO.N,N/C*%
X125000000Y-111250000D03*
X129500000Y-116250000D03*
%TO.P,L_pcb1,G*%
X125000000Y-135750000D03*
X125000000Y-138750000D03*
%TD*%
D12*
%TO.P,J1,1,Pin_1*%
%TO.N,Net-(J1-Pin_1)*%
X147900000Y-111000000D03*
D13*
%TO.P,J1,2,Pin_2*%
%TO.N,Net-(J1-Pin_2)*%
X147900000Y-113540000D03*
%TO.P,J1,3,Pin_3*%
%TO.N,VCC*%
X147900000Y-116080000D03*
%TO.P,J1,4,Pin_4*%
%TO.N,GND*%
X147900000Y-118620000D03*
%TO.P,J1,5,Pin_5*%
%TO.N,/SENS_DET*%
X147900000Y-121160000D03*
%TO.P,J1,6,Pin_6*%
%TO.N,/SENS_LED*%
X147900000Y-123700000D03*
%TO.P,J1,7,Pin_7*%
%TO.N,/RSTPD_N*%
X147900000Y-126240000D03*
%TO.P,J1,8,Pin_8*%
%TO.N,/LED_KR*%
X147900000Y-128780000D03*
%TO.P,J1,9,Pin_9*%
%TO.N,/LED_KG*%
X147900000Y-131320000D03*
%TO.P,J1,10,Pin_10*%
%TO.N,/LED_KB*%
X147900000Y-133860000D03*
%TD*%
D14*
%TO.P,U1,*%
%TO.N,*%
X130045000Y-117770000D03*
D15*
%TO.P,U1,1*%
%TO.N,Net-(R11-Pad2)*%
X120270000Y-123700000D03*
D16*
%TO.P,U1,2*%
%TO.N,GND*%
X120270000Y-126240000D03*
%TO.P,U1,3*%
%TO.N,/SENS_DET*%
X129720000Y-126240000D03*
%TO.P,U1,4*%
%TO.N,GND*%
X129720000Y-123700000D03*
%TD*%
D17*
%TO.N,Net-(R11-Pad2)*%
X119380000Y-128270000D03*
%TO.N,/SENS_LED*%
X121920000Y-130810000D03*
%TO.N,+3.3V*%
X123825000Y-149200000D03*
X128902600Y-143427500D03*
X140970000Y-149200000D03*
X109855000Y-149200000D03*
X143571610Y-124542919D03*
X109753300Y-138986200D03*
X124620265Y-140809735D03*
X142718500Y-136567000D03*
X146065000Y-126040800D03*
X142353800Y-143660900D03*
%TO.N,VCC*%
X144780000Y-125730000D03*
X141299700Y-139654700D03*
X138688300Y-142266100D03*
X132080000Y-129540000D03*
X142240000Y-116840000D03*
X145415000Y-116840000D03*
%TO.N,Net-(U2-OSCIN)*%
X113708000Y-144613300D03*
X112278400Y-144570100D03*
%TO.N,Net-(Q1-S)*%
X129052965Y-148113965D03*
X145794300Y-110910900D03*
X148092800Y-139705200D03*
%TO.N,/SENS_DET*%
X128270000Y-128270000D03*
%TO.N,Net-(Q2-S)*%
X143978300Y-139705200D03*
X145320400Y-127082200D03*
X129900000Y-148564400D03*
X143179000Y-143268400D03*
X142240000Y-146685000D03*
%TO.N,/RSTPD_N*%
X140870400Y-142349800D03*
X130184700Y-144253200D03*
%TO.N,Net-(U2-I1)*%
X120650000Y-147320000D03*
X105525200Y-136728300D03*
%TO.N,Net-(U2-I0)*%
X104140000Y-136525000D03*
X120680500Y-144914144D03*
%TO.N,GND*%
X136275000Y-142435743D03*
X129704100Y-142005300D03*
X140970000Y-121920000D03*
X125724735Y-140964735D03*
%TO.N,Net-(C3-Pad1)*%
X130828700Y-147273500D03*
X116919765Y-143342635D03*
%TO.N,Net-(U2-VMID)*%
X119848900Y-142875000D03*
X131936800Y-144891300D03*
%TO.N,Net-(U2-RX)*%
X129083386Y-145415000D03*
X120650000Y-142875000D03*
%TO.N,Net-(D1-GK)*%
X139971000Y-100800000D03*
X142240000Y-119380000D03*
X142875000Y-127635000D03*
X141570000Y-130175000D03*
%TO.N,Net-(D1-BK)*%
X148057600Y-136567000D03*
X142875000Y-107281500D03*
%TD*%
D18*
%TO.N,/RSTPD_N*%
X147900000Y-126240000D02*
X146685000Y-127455000D01*
X146685000Y-127455000D02*
X146685000Y-128318700D01*
X146685000Y-128318700D02*
X146011100Y-128992600D01*
X146011100Y-128992600D02*
X146011100Y-141332600D01*
X146011100Y-141332600D02*
X143017800Y-144325900D01*
X143017800Y-144325900D02*
X142167700Y-144325900D01*
X142167700Y-144325900D02*
X140758400Y-142916600D01*
%TO.N,Net-(R11-Pad2)*%
X118110000Y-124460000D02*
X118110000Y-127000000D01*
X118110000Y-127000000D02*
X119380000Y-128270000D01*
X118870000Y-123700000D02*
X118110000Y-124460000D01*
X120270000Y-123700000D02*
X118870000Y-123700000D01*
%TO.N,/SENS_LED*%
X144076000Y-123190000D02*
X147390000Y-123190000D01*
X121920000Y-130810000D02*
X129540000Y-130810000D01*
X140626000Y-126640000D02*
X144076000Y-123190000D01*
X129540000Y-130810000D02*
X133710000Y-126640000D01*
X133710000Y-126640000D02*
X140626000Y-126640000D01*
X147390000Y-123190000D02*
X147900000Y-123700000D01*
%TO.N,+3.3V*%
X124490730Y-140680200D02*
X111019800Y-140680200D01*
X123625000Y-149400000D02*
X123825000Y-149200000D01*
X111019800Y-140680200D02*
X109753300Y-139413700D01*
X109753300Y-139413700D02*
X109753300Y-138986200D01*
X126050530Y-142240000D02*
X127277600Y-142240000D01*
X146065000Y-125110000D02*
X146065000Y-126040800D01*
X140970000Y-149200000D02*
X140970000Y-149225000D01*
X109855000Y-149200000D02*
X110055000Y-149400000D01*
X128465100Y-143427500D02*
X128902600Y-143427500D01*
X142718500Y-128833000D02*
X142718500Y-136567000D01*
X145497919Y-124542919D02*
X146065000Y-125110000D01*
X124620265Y-140809735D02*
X124490730Y-140680200D01*
X145510700Y-126040800D02*
X142718500Y-128833000D01*
X127277600Y-142240000D02*
X128465100Y-143427500D01*
X124025000Y-149400000D02*
X123825000Y-149200000D01*
X140795000Y-149400000D02*
X124025000Y-149400000D01*
X142353900Y-143660900D02*
X142353800Y-143660900D01*
X124620265Y-140809735D02*
X126050530Y-142240000D01*
X143571610Y-124542919D02*
X145497919Y-124542919D01*
X142353900Y-136931600D02*
X142353900Y-143660900D01*
X146065000Y-126040800D02*
X145510700Y-126040800D01*
X142718500Y-136567000D02*
X142353900Y-136931600D01*
X140970000Y-149225000D02*
X140795000Y-149400000D01*
X110055000Y-149400000D02*
X123625000Y-149400000D01*
%TO.N,VCC*%
X141299700Y-127940300D02*
X143510000Y-125730000D01*
X132080000Y-129540000D02*
X133350000Y-128270000D01*
X140970000Y-139325000D02*
X141299700Y-139654700D01*
X144780000Y-116840000D02*
X145415000Y-116840000D01*
X141299700Y-129210300D02*
X140970000Y-129540000D01*
X143510000Y-125730000D02*
X144780000Y-125730000D01*
X142240000Y-116840000D02*
X144780000Y-116840000D01*
X133350000Y-128270000D02*
X141299700Y-128270000D01*
X140970000Y-129540000D02*
X140970000Y-139325000D01*
X141299700Y-128270000D02*
X141299700Y-127940300D01*
X141299700Y-128270000D02*
X141299700Y-129210300D01*
X141299700Y-139654700D02*
X138688300Y-142266100D01*
%TO.N,Net-(U2-OSCIN)*%
X112278400Y-144570100D02*
X113664800Y-144570100D01*
X113664800Y-144570100D02*
X113708000Y-144613300D01*
%TO.N,Net-(Q1-S)*%
X145794300Y-110910900D02*
X146894700Y-109810500D01*
X149469000Y-110429800D02*
X149469000Y-138329000D01*
X146894700Y-109810500D02*
X148849700Y-109810500D01*
X129202530Y-147964400D02*
X139991700Y-147964400D01*
X139991700Y-147964400D02*
X148092800Y-139863300D01*
X129282900Y-147964400D02*
X129282900Y-147966000D01*
X129052965Y-148113965D02*
X129202530Y-147964400D01*
X129282900Y-147966000D02*
X129282900Y-147964400D01*
X148092800Y-139863300D02*
X148092800Y-139705200D01*
X148849700Y-109810500D02*
X149469000Y-110429800D01*
X149469000Y-138329000D02*
X148092800Y-139705200D01*
%TO.N,/SENS_DET*%
X144270000Y-121160000D02*
X147900000Y-121160000D01*
X129720000Y-126240000D02*
X130230000Y-125730000D01*
X139700000Y-125730000D02*
X144270000Y-121160000D01*
X130230000Y-125730000D02*
X139700000Y-125730000D01*
X129720000Y-126240000D02*
X128270000Y-127690000D01*
X128270000Y-127690000D02*
X128270000Y-128270000D01*
%TO.N,Net-(Q2-S)*%
X143179100Y-140504400D02*
X143179100Y-143268400D01*
X142240000Y-146990800D02*
X142240000Y-146685000D01*
X130171700Y-148836100D02*
X140394700Y-148836100D01*
X143179100Y-143268400D02*
X143179000Y-143268400D01*
X140394700Y-148836100D02*
X142240000Y-146990800D01*
X145320400Y-127082200D02*
X145320400Y-138363100D01*
X145320400Y-138363100D02*
X143978300Y-139705200D01*
X143978300Y-139705200D02*
X143179100Y-140504400D01*
X129900000Y-148564400D02*
X130171700Y-148836100D01*
%TO.N,/RSTPD_N*%
X139421800Y-144253200D02*
X140758400Y-142916600D01*
X130184700Y-144253200D02*
X139421800Y-144253200D01*
X140758400Y-142916600D02*
X140758400Y-142461800D01*
X140758400Y-142461800D02*
X140870400Y-142349800D01*
%TO.N,Net-(U2-I1)*%
X116238600Y-143510000D02*
X113030000Y-143510000D01*
X120048600Y-147320000D02*
X116238600Y-143510000D01*
X120650000Y-147320000D02*
X120048600Y-147320000D01*
X113030000Y-143510000D02*
X112874600Y-143354600D01*
X112874600Y-143354600D02*
X112151500Y-143354600D01*
X112151500Y-143354600D02*
X105525200Y-136728300D01*
%TO.N,Net-(U2-I0)*%
X120431515Y-144914144D02*
X117122371Y-141605000D01*
X105902214Y-136128300D02*
X104536700Y-136128300D01*
X104536700Y-136128300D02*
X104140000Y-136525000D01*
X111760000Y-141605000D02*
X111378914Y-141605000D01*
X111378914Y-141605000D02*
X105902214Y-136128300D01*
X120680500Y-144914144D02*
X120431515Y-144914144D01*
X117122371Y-141605000D02*
X111760000Y-141605000D01*
%TO.N,GND*%
X121920000Y-124590000D02*
X121920000Y-121920000D01*
X126782200Y-140970000D02*
X127817500Y-142005300D01*
X130463900Y-142765100D02*
X129704100Y-142005300D01*
X121920000Y-121920000D02*
X123190000Y-120650000D01*
X139190000Y-123700000D02*
X140970000Y-121920000D01*
X127817500Y-142005300D02*
X129704100Y-142005300D01*
X135945643Y-142765100D02*
X130463900Y-142765100D01*
X140970000Y-121920000D02*
X144270000Y-118620000D01*
X120270000Y-126240000D02*
X121920000Y-124590000D01*
X136275000Y-142435743D02*
X135945643Y-142765100D01*
X125730000Y-140970000D02*
X126782200Y-140970000D01*
X123190000Y-120650000D02*
X126670000Y-120650000D01*
X144270000Y-118620000D02*
X147900000Y-118620000D01*
X129720000Y-123700000D02*
X139190000Y-123700000D01*
X126670000Y-120650000D02*
X129720000Y-123700000D01*
%TO.N,Net-(C3-Pad1)*%
X116919765Y-143342635D02*
X118067485Y-143342635D01*
X118067485Y-143342635D02*
X121998350Y-147273500D01*
X121998350Y-147273500D02*
X130828700Y-147273500D01*
%TO.N,Net-(U2-VMID)*%
X123611471Y-146685000D02*
X130143100Y-146685000D01*
X119848900Y-142922429D02*
X123611471Y-146685000D01*
X130143100Y-146685000D02*
X131936800Y-144891300D01*
X119848900Y-142875000D02*
X119848900Y-142922429D01*
%TO.N,Net-(U2-RX)*%
X120650000Y-142875000D02*
X121920000Y-142875000D01*
X123825000Y-144780000D02*
X128448386Y-144780000D01*
X128448386Y-144780000D02*
X129083386Y-145415000D01*
X121920000Y-142875000D02*
X123825000Y-144780000D01*
%TO.N,Net-(D1-GK)*%
X141699700Y-128810300D02*
X142875000Y-127635000D01*
X141570000Y-130175000D02*
X141699700Y-130045300D01*
X140805000Y-100800000D02*
X141605000Y-101600000D01*
X141699700Y-130045300D02*
X141699700Y-128810300D01*
X141605000Y-118745000D02*
X142240000Y-119380000D01*
X141605000Y-101600000D02*
X141605000Y-118745000D01*
X139971000Y-100800000D02*
X140805000Y-100800000D01*
%TO.N,Net-(D1-BK)*%
X149067100Y-135557500D02*
X148057600Y-136567000D01*
X145151200Y-109557700D02*
X145151200Y-115032500D01*
X147586800Y-117468100D02*
X148395600Y-117468100D01*
X145151200Y-115032500D02*
X147586800Y-117468100D01*
X148395600Y-117468100D02*
X149067100Y-118139600D01*
X149067100Y-118139600D02*
X149067100Y-135557500D01*
X142875000Y-107281500D02*
X145151200Y-109557700D01*
%TD*%
%TA.AperFunction,Conductor*%
%TO.N,GND*%
G36*
X125006236Y-141624685D02*
G01*
X125026878Y-141641319D01*
X125790569Y-142405010D01*
X125801840Y-142417962D01*
X125806569Y-142424225D01*
X125840847Y-142455474D01*
X125844988Y-142459429D01*
X125857733Y-142472174D01*
X125861461Y-142475270D01*
X125869854Y-142481918D01*
X125878654Y-142489940D01*
X125889594Y-142499914D01*
X125889595Y-142499914D01*
X125889597Y-142499916D01*
X125896060Y-142502419D01*
X125921337Y-142515743D01*
X125927049Y-142519656D01*
X125953044Y-142525769D01*
X125969440Y-142530846D01*
X125994357Y-142540500D01*
X126001281Y-142540500D01*
X126029671Y-142543793D01*
X126036411Y-142545379D01*
X126059185Y-142542201D01*
X126062864Y-142541689D01*
X126079994Y-142540500D01*
X127101767Y-142540500D01*
X127168806Y-142560185D01*
X127189447Y-142576818D01*
X127699612Y-143086984D01*
X128205142Y-143592514D01*
X128216413Y-143605466D01*
X128221139Y-143611725D01*
X128221141Y-143611727D01*
X128221142Y-143611728D01*
X128255406Y-143642964D01*
X128259547Y-143646919D01*
X128272301Y-143659673D01*
X128276042Y-143662779D01*
X128284434Y-143669427D01*
X128304162Y-143687412D01*
X128304163Y-143687413D01*
X128304167Y-143687416D01*
X128310621Y-143689916D01*
X128335906Y-143703243D01*
X128341620Y-143707157D01*
X128367617Y-143713271D01*
X128384018Y-143718351D01*
X128408924Y-143728000D01*
X128408927Y-143728000D01*
X128415852Y-143728000D01*
X128444240Y-143731293D01*
X128450981Y-143732879D01*
X128450985Y-143732878D01*
X128454052Y-143733020D01*
X128459370Y-143734851D01*
X128462168Y-143735510D01*
X128462101Y-143735792D01*
X128520113Y-143755775D01*
X128542044Y-143775681D01*
X128571472Y-143809643D01*
X128692547Y-143887453D01*
X128692550Y-143887454D01*
X128692549Y-143887454D01*
X128830636Y-143927999D01*
X128830638Y-143928000D01*
X128830639Y-143928000D01*
X128974562Y-143928000D01*
X128974562Y-143927999D01*
X129112653Y-143887453D01*
X129233728Y-143809643D01*
X129327977Y-143700873D01*
X129387765Y-143569957D01*
X129408247Y-143427500D01*
X129387765Y-143285043D01*
X129327977Y-143154127D01*
X129233728Y-143045357D01*
X129112653Y-142967547D01*
X129112651Y-142967546D01*
X129112649Y-142967545D01*
X129112650Y-142967545D01*
X128974563Y-142927000D01*
X128974561Y-142927000D01*
X128830639Y-142927000D01*
X128830636Y-142927000D01*
X128692549Y-142967545D01*
X128616850Y-143016194D01*
X128549810Y-143035878D01*
X128482771Y-143016193D01*
X128462130Y-142999559D01*
X127537562Y-142074991D01*
X127526287Y-142062035D01*
X127521555Y-142055768D01*
X127487283Y-142024525D01*
X127483160Y-142020589D01*
X127470397Y-142007826D01*
X127470396Y-142007825D01*
X127470394Y-142007823D01*
X127466677Y-142004737D01*
X127458279Y-141998084D01*
X127438533Y-141980084D01*
X127432070Y-141977580D01*
X127406792Y-141964256D01*
X127401081Y-141960344D01*
X127401078Y-141960343D01*
X127401079Y-141960343D01*
X127375083Y-141954228D01*
X127358689Y-141949151D01*
X127333774Y-141939500D01*
X127333773Y-141939500D01*
X127326849Y-141939500D01*
X127298458Y-141936206D01*
X127291719Y-141934621D01*
X127265266Y-141938311D01*
X127248136Y-141939500D01*
X126226363Y-141939500D01*
X126159324Y-141919815D01*
X126138682Y-141903181D01*
X126052182Y-141816681D01*
X126018697Y-141755358D01*
X126023681Y-141685666D01*
X126065553Y-141629733D01*
X126131017Y-141605316D01*
X126139863Y-141605000D01*
X138368932Y-141605000D01*
X138435971Y-141624685D01*
X138481726Y-141677489D01*
X138491670Y-141746647D01*
X138462645Y-141810203D01*
X138435972Y-141833315D01*
X138357174Y-141883955D01*
X138357172Y-141883956D01*
X138357172Y-141883957D01*
X138338505Y-141905500D01*
X138262923Y-141992726D01*
X138262922Y-141992728D01*
X138203134Y-142123643D01*
X138182653Y-142266100D01*
X138203134Y-142408556D01*
X138262922Y-142539471D01*
X138262923Y-142539473D01*
X138357172Y-142648243D01*
X138478247Y-142726053D01*
X138478250Y-142726054D01*
X138478249Y-142726054D01*
X138616336Y-142766599D01*
X138616338Y-142766600D01*
X138616339Y-142766600D01*
X138760262Y-142766600D01*
X138760262Y-142766599D01*
X138898353Y-142726053D01*
X139019428Y-142648243D01*
X139113677Y-142539473D01*
X139173465Y-142408557D01*
X139193947Y-142266100D01*
X139192639Y-142257005D01*
X139202579Y-142187849D01*
X139227692Y-142151677D01*
X139738051Y-141641318D01*
X139799374Y-141607834D01*
X139825732Y-141605000D01*
X140768009Y-141605000D01*
X140835048Y-141624685D01*
X140870399Y-141665482D01*
X140905751Y-141624685D01*
X140972790Y-141605000D01*
X141929400Y-141605000D01*
X141996439Y-141624685D01*
X142042194Y-141677489D01*
X142053400Y-141729000D01*
X142053400Y-143197044D01*
X142033715Y-143264083D01*
X142023114Y-143278246D01*
X141928423Y-143387526D01*
X141916672Y-143413258D01*
X141870916Y-143466061D01*
X141803877Y-143485745D01*
X141736837Y-143466060D01*
X141716197Y-143449426D01*
X141186867Y-142920096D01*
X141153382Y-142858773D01*
X141158366Y-142789081D01*
X141195878Y-142738971D01*
X141194823Y-142737753D01*
X141201520Y-142731947D01*
X141201528Y-142731943D01*
X141295777Y-142623173D01*
X141355565Y-142492257D01*
X141376047Y-142349800D01*
X141355565Y-142207343D01*
X141295777Y-142076427D01*
X141201528Y-141967657D01*
X141080453Y-141889847D01*
X141080451Y-141889846D01*
X141080449Y-141889845D01*
X141080450Y-141889845D01*
X140937857Y-141847977D01*
X140879078Y-141810203D01*
X140870399Y-141791200D01*
X140861722Y-141810203D01*
X140802944Y-141847977D01*
X140802943Y-141847977D01*
X140660349Y-141889845D01*
X140539273Y-141967656D01*
X140445023Y-142076426D01*
X140445022Y-142076428D01*
X140385234Y-142207343D01*
X140364753Y-142349800D01*
X140385234Y-142492256D01*
X140446694Y-142626833D01*
X140457900Y-142678345D01*
X140457900Y-142740767D01*
X140438215Y-142807806D01*
X140421581Y-142828448D01*
X139333648Y-143916381D01*
X139272325Y-143949866D01*
X139245967Y-143952700D01*
X130643201Y-143952700D01*
X130576162Y-143933015D01*
X130549488Y-143909903D01*
X130515828Y-143871057D01*
X130394753Y-143793247D01*
X130394751Y-143793246D01*
X130394749Y-143793245D01*
X130394750Y-143793245D01*
X130256663Y-143752700D01*
X130256661Y-143752700D01*
X130112739Y-143752700D01*
X130112736Y-143752700D01*
X129974649Y-143793245D01*
X129853573Y-143871056D01*
X129759323Y-143979826D01*
X129759322Y-143979828D01*
X129699534Y-144110743D01*
X129679053Y-144253200D01*
X129699534Y-144395656D01*
X129758241Y-144524203D01*
X129759323Y-144526573D01*
X129853572Y-144635343D01*
X129974647Y-144713153D01*
X129974650Y-144713154D01*
X129974649Y-144713154D01*
X130081807Y-144744617D01*
X130096197Y-144748843D01*
X130112736Y-144753699D01*
X130112738Y-144753700D01*
X130112739Y-144753700D01*
X130256662Y-144753700D01*
X130256662Y-144753699D01*
X130394753Y-144713153D01*
X130515828Y-144635343D01*
X130549488Y-144596496D01*
X130608267Y-144558723D01*
X130643201Y-144553700D01*
X131347806Y-144553700D01*
X131414845Y-144573385D01*
X131460600Y-144626189D01*
X131470544Y-144695347D01*
X131460601Y-144729211D01*
X131451634Y-144748844D01*
X131431153Y-144891300D01*
X131431153Y-144891301D01*
X131432461Y-144900403D01*
X131422513Y-144969561D01*
X131397403Y-145005724D01*
X130054948Y-146348181D01*
X129993625Y-146381666D01*
X129967267Y-146384500D01*
X123787304Y-146384500D01*
X123720265Y-146364815D01*
X123699623Y-146348181D01*
X120863140Y-143511698D01*
X120829655Y-143450375D01*
X120834639Y-143380683D01*
X120876511Y-143324750D01*
X120883731Y-143319736D01*
X120981128Y-143257143D01*
X121014788Y-143218296D01*
X121073567Y-143180523D01*
X121108501Y-143175500D01*
X121744167Y-143175500D01*
X121811206Y-143195185D01*
X121831848Y-143211819D01*
X123565039Y-144945010D01*
X123576310Y-144957962D01*
X123581039Y-144964225D01*
X123615317Y-144995474D01*
X123619458Y-144999429D01*
X123632203Y-145012174D01*
X123635931Y-145015270D01*
X123644324Y-145021918D01*
X123652575Y-145029440D01*
X123664065Y-145039915D01*
X123664066Y-145039915D01*
X123664067Y-145039916D01*
X123670521Y-145042416D01*
X123695806Y-145055744D01*
X123701518Y-145059657D01*
X123708743Y-145061356D01*
X123727521Y-145065772D01*
X123743909Y-145070846D01*
X123768827Y-145080500D01*
X123775752Y-145080500D01*
X123804140Y-145083793D01*
X123810881Y-145085379D01*
X123837333Y-145081689D01*
X123854464Y-145080500D01*
X128272553Y-145080500D01*
X128339592Y-145100185D01*
X128360234Y-145116819D01*
X128543990Y-145300575D01*
X128577475Y-145361898D01*
X128579047Y-145405902D01*
X128577739Y-145414999D01*
X128598220Y-145557456D01*
X128619976Y-145605094D01*
X128658009Y-145688373D01*
X128752258Y-145797143D01*
X128873333Y-145874953D01*
X128873336Y-145874954D01*
X128873335Y-145874954D01*
X129011422Y-145915499D01*
X129011424Y-145915500D01*
X129011425Y-145915500D01*
X129155348Y-145915500D01*
X129155348Y-145915499D01*
X129293439Y-145874953D01*
X129414514Y-145797143D01*
X129508763Y-145688373D01*
X129568551Y-145557457D01*
X129589033Y-145415000D01*
X129568551Y-145272543D01*
X129508763Y-145141627D01*
X129414514Y-145032857D01*
X129293439Y-144955047D01*
X129293437Y-144955046D01*
X129293435Y-144955045D01*
X129293436Y-144955045D01*
X129155349Y-144914500D01*
X129155347Y-144914500D01*
X129059219Y-144914500D01*
X128992180Y-144894815D01*
X128971538Y-144878181D01*
X128708348Y-144614991D01*
X128697073Y-144602035D01*
X128692341Y-144595768D01*
X128658069Y-144564525D01*
X128653946Y-144560589D01*
X128641183Y-144547826D01*
X128641182Y-144547825D01*
X128641180Y-144547823D01*
X128637463Y-144544737D01*
X128629065Y-144538084D01*
X128609319Y-144520084D01*
X128602856Y-144517580D01*
X128577578Y-144504256D01*
X128571867Y-144500344D01*
X128571864Y-144500343D01*
X128571865Y-144500343D01*
X128545869Y-144494228D01*
X128529475Y-144489151D01*
X128504560Y-144479500D01*
X128504559Y-144479500D01*
X128497635Y-144479500D01*
X128469244Y-144476206D01*
X128462505Y-144474621D01*
X128436052Y-144478311D01*
X128418922Y-144479500D01*
X124000833Y-144479500D01*
X123933794Y-144459815D01*
X123913152Y-144443181D01*
X122179962Y-142709991D01*
X122168687Y-142697035D01*
X122163955Y-142690768D01*
X122129683Y-142659525D01*
X122125560Y-142655589D01*
X122112797Y-142642826D01*
X122112796Y-142642825D01*
X122112794Y-142642823D01*
X122109077Y-142639737D01*
X122100679Y-142633084D01*
X122080933Y-142615084D01*
X122074470Y-142612580D01*
X122049192Y-142599256D01*
X122043481Y-142595344D01*
X122043478Y-142595343D01*
X122043479Y-142595343D01*
X122017483Y-142589228D01*
X122001089Y-142584151D01*
X121976174Y-142574500D01*
X121976173Y-142574500D01*
X121969249Y-142574500D01*
X121940858Y-142571206D01*
X121934119Y-142569621D01*
X121907666Y-142573311D01*
X121890536Y-142574500D01*
X121108501Y-142574500D01*
X121041462Y-142554815D01*
X121014788Y-142531703D01*
X121011354Y-142527740D01*
X120981128Y-142492857D01*
X120860053Y-142415047D01*
X120860051Y-142415046D01*
X120860049Y-142415045D01*
X120860050Y-142415045D01*
X120721963Y-142374500D01*
X120721961Y-142374500D01*
X120578039Y-142374500D01*
X120578036Y-142374500D01*
X120439949Y-142415045D01*
X120316489Y-142494388D01*
X120249449Y-142514072D01*
X120182411Y-142494388D01*
X120121859Y-142455474D01*
X120058953Y-142415047D01*
X120058951Y-142415046D01*
X120058949Y-142415045D01*
X120058950Y-142415045D01*
X119920863Y-142374500D01*
X119920861Y-142374500D01*
X119776939Y-142374500D01*
X119776936Y-142374500D01*
X119638849Y-142415045D01*
X119517773Y-142492856D01*
X119517772Y-142492856D01*
X119517772Y-142492857D01*
X119511657Y-142499914D01*
X119423523Y-142601626D01*
X119423522Y-142601628D01*
X119363734Y-142732543D01*
X119343253Y-142875000D01*
X119363734Y-143017456D01*
X119417756Y-143135745D01*
X119427700Y-143204904D01*
X119398675Y-143268459D01*
X119339897Y-143306234D01*
X119270028Y-143306234D01*
X119217281Y-143274938D01*
X117759023Y-141816681D01*
X117725538Y-141755358D01*
X117730522Y-141685666D01*
X117772394Y-141629733D01*
X117837858Y-141605316D01*
X117846704Y-141605000D01*
X124939197Y-141605000D01*
X125006236Y-141624685D01*
G37*
%TD.AperFunction*%
%TD*%
M02*
