%TF.GenerationSoftware,KiCad,Pcbnew,7.0.11+dfsg-1build4*%
%TF.CreationDate,2026-01-28T23:03:34-05:00*%
%TF.ProjectId,compact-nfc,636f6d70-6163-4742-9d6e-66632e6b6963,rev?*%
%TF.SameCoordinates,Original*%
%TF.FileFunction,Copper,L1,Top*%
%TF.FilePolarity,Positive*%
%FSLAX46Y46*%
G04 Gerber Fmt 4.6, Leading zero omitted, Abs format (unit mm)*
G04 Created by KiCad (PCBNEW 7.0.11+dfsg-1build4) date 2026-01-28 23:03:34*
%MOMM*%
%LPD*%
G01*
G04 APERTURE LIST*
G04 Aperture macros list*
%AMRoundRect*
0 Rectangle with rounded corners*
0 $1 Rounding radius*
0 $2 $3 $4 $5 $6 $7 $8 $9 X,Y pos of 4 corners*
0 Add a 4 corners polygon primitive as box body*
4,1,4,$2,$3,$4,$5,$6,$7,$8,$9,$2,$3,0*
0 Add four circle primitives for the rounded corners*
1,1,$1+$1,$2,$3*
1,1,$1+$1,$4,$5*
1,1,$1+$1,$6,$7*
1,1,$1+$1,$8,$9*
0 Add four rect primitives between the rounded corners*
20,1,$1+$1,$2,$3,$4,$5,0*
20,1,$1+$1,$4,$5,$6,$7,0*
20,1,$1+$1,$6,$7,$8,$9,0*
20,1,$1+$1,$8,$9,$2,$3,0*%
G04 Aperture macros list end*
%TA.AperFunction,EtchedComponent*%
%ADD10C,0.500000*%
%TD*%
%TA.AperFunction,SMDPad,CuDef*%
%ADD11R,1.400000X0.800000*%
%TD*%
%TA.AperFunction,SMDPad,CuDef*%
%ADD12RoundRect,0.250000X0.350000X0.450000X-0.350000X0.450000X-0.350000X-0.450000X0.350000X-0.450000X0*%
%TD*%
%TA.AperFunction,SMDPad,CuDef*%
%ADD13RoundRect,0.250000X0.337500X0.475000X-0.337500X0.475000X-0.337500X-0.475000X0.337500X-0.475000X0*%
%TD*%
%TA.AperFunction,SMDPad,CuDef*%
%ADD14RoundRect,0.250000X-0.350000X-0.450000X0.350000X-0.450000X0.350000X0.450000X-0.350000X0.450000X0*%
%TD*%
%TA.AperFunction,SMDPad,CuDef*%
%ADD15R,2.100000X1.800000*%
%TD*%
%TA.AperFunction,SMDPad,CuDef*%
%ADD16RoundRect,0.250000X-0.337500X-0.475000X0.337500X-0.475000X0.337500X0.475000X-0.337500X0.475000X0*%
%TD*%
%TA.AperFunction,SMDPad,CuDef*%
%ADD17RoundRect,0.250000X0.475000X-0.337500X0.475000X0.337500X-0.475000X0.337500X-0.475000X-0.337500X0*%
%TD*%
%TA.AperFunction,SMDPad,CuDef*%
%ADD18C,1.000000*%
%TD*%
%TA.AperFunction,ComponentPad*%
%ADD19C,0.600000*%
%TD*%
%TA.AperFunction,ComponentPad*%
%ADD20R,1.700000X1.700000*%
%TD*%
%TA.AperFunction,ComponentPad*%
%ADD21O,1.700000X1.700000*%
%TD*%
%TA.AperFunction,SMDPad,CuDef*%
%ADD22RoundRect,0.250000X0.362500X0.700000X-0.362500X0.700000X-0.362500X-0.700000X0.362500X-0.700000X0*%
%TD*%
%TA.AperFunction,SMDPad,CuDef*%
%ADD23RoundRect,0.062500X-0.062500X0.375000X-0.062500X-0.375000X0.062500X-0.375000X0.062500X0.375000X0*%
%TD*%
%TA.AperFunction,SMDPad,CuDef*%
%ADD24RoundRect,0.062500X-0.375000X0.062500X-0.375000X-0.062500X0.375000X-0.062500X0.375000X0.062500X0*%
%TD*%
%TA.AperFunction,HeatsinkPad*%
%ADD25R,4.100000X4.100000*%
%TD*%
%TA.AperFunction,SMDPad,CuDef*%
%ADD26RoundRect,0.250000X-0.475000X0.337500X-0.475000X-0.337500X0.475000X-0.337500X0.475000X0.337500X0*%
%TD*%
%TA.AperFunction,SMDPad,CuDef*%
%ADD27RoundRect,0.250000X-0.362500X-0.700000X0.362500X-0.700000X0.362500X0.700000X-0.362500X0.700000X0*%
%TD*%
%TA.AperFunction,WasherPad*%
%ADD28C,1.600000*%
%TD*%
%TA.AperFunction,ComponentPad*%
%ADD29RoundRect,0.340500X0.659500X-0.409500X0.659500X0.409500X-0.659500X0.409500X-0.659500X-0.409500X0*%
%TD*%
%TA.AperFunction,ComponentPad*%
%ADD30O,2.000000X1.500000*%
%TD*%
%TA.AperFunction,SMDPad,CuDef*%
%ADD31RoundRect,0.150000X0.150000X-0.587500X0.150000X0.587500X-0.150000X0.587500X-0.150000X-0.587500X0*%
%TD*%
%TA.AperFunction,ViaPad*%
%ADD32C,0.600000*%
%TD*%
%TA.AperFunction,Conductor*%
%ADD33C,0.200000*%
%TD*%
G04 APERTURE END LIST*
D10*
%TO.C,L_pcb1*%
X111250000Y-111250000D02*
X111250000Y-138750000D01*
X111250000Y-111250000D02*
X125000000Y-111250000D01*
X111250000Y-138750000D02*
X119600000Y-138750000D01*
X112250000Y-112250000D02*
X112250000Y-137750000D01*
X112250000Y-112250000D02*
X126000000Y-112250000D01*
X112250000Y-137750000D02*
X137750000Y-137750000D01*
X113250000Y-113250000D02*
X113250000Y-136750000D01*
X113250000Y-113250000D02*
X126500000Y-113250000D01*
X113250000Y-136750000D02*
X136750000Y-136750000D01*
X114250000Y-114250000D02*
X114250000Y-135750000D01*
X114250000Y-114250000D02*
X127000000Y-114250000D01*
X114250000Y-135750000D02*
X135750000Y-135750000D01*
X115250000Y-115250000D02*
X115250000Y-134750000D01*
X115250000Y-115250000D02*
X127500000Y-115250000D01*
X115250000Y-134750000D02*
X134750000Y-134750000D01*
X116250000Y-116250000D02*
X116250000Y-133750000D01*
X116250000Y-116250000D02*
X128000000Y-116250000D01*
X116250000Y-133750000D02*
X133750000Y-133750000D01*
X125000000Y-138750000D02*
X125000000Y-139200000D01*
X126000000Y-112250000D02*
X127000000Y-111250000D01*
X126500000Y-113250000D02*
X127500000Y-112250000D01*
X127000000Y-114250000D02*
X128000000Y-113250000D01*
X127500000Y-115250000D02*
X128500000Y-114250000D01*
X128000000Y-116250000D02*
X129000000Y-115250000D01*
X130400000Y-138750000D02*
X138750000Y-138750000D01*
X133750000Y-116250000D02*
X129500000Y-116250000D01*
X133750000Y-116250000D02*
X133750000Y-133750000D01*
X134750000Y-115250000D02*
X129000000Y-115250000D01*
X134750000Y-115250000D02*
X134750000Y-134750000D01*
X135750000Y-114250000D02*
X128500000Y-114250000D01*
X135750000Y-114250000D02*
X135750000Y-135750000D01*
X136750000Y-113250000D02*
X128000000Y-113250000D01*
X136750000Y-113250000D02*
X136750000Y-136750000D01*
X137750000Y-112250000D02*
X127500000Y-112250000D01*
X137750000Y-112250000D02*
X137750000Y-137750000D01*
X138750000Y-111250000D02*
X127000000Y-111250000D01*
X138750000Y-111250000D02*
X138750000Y-138750000D01*
%TD*%
D11*
%TO.P,D1,1,RK*%
%TO.N,Net-(D1-RK)*%
X134200000Y-103800000D03*
%TO.P,D1,2,A*%
%TO.N,VCC*%
X139800000Y-103800000D03*
%TO.P,D1,3,GK*%
%TO.N,Net-(D1-GK)*%
X134200000Y-102200000D03*
%TO.P,D1,4,BK*%
%TO.N,Net-(D1-BK)*%
X139800000Y-102200000D03*
%TD*%
D12*
%TO.P,R7,1*%
%TO.N,Net-(U2-I1)*%
X103200000Y-135500000D03*
%TO.P,R7,2*%
%TO.N,GND*%
X101200000Y-135500000D03*
%TD*%
D13*
%TO.P,C5,1*%
%TO.N,Net-(C3-Pad1)*%
X115037500Y-140650000D03*
%TO.P,C5,2*%
%TO.N,GND*%
X112962500Y-140650000D03*
%TD*%
D12*
%TO.P,R2,1*%
%TO.N,Net-(C8-Pad1)*%
X133000000Y-148500000D03*
%TO.P,R2,2*%
%TO.N,Net-(C3-Pad1)*%
X131000000Y-148500000D03*
%TD*%
%TO.P,R8,1*%
%TO.N,Net-(U2-I0)*%
X103200000Y-138000000D03*
%TO.P,R8,2*%
%TO.N,GND*%
X101200000Y-138000000D03*
%TD*%
D14*
%TO.P,R4,1*%
%TO.N,/RSTPD_N*%
X146900000Y-140800000D03*
%TO.P,R4,2*%
%TO.N,GND*%
X148900000Y-140800000D03*
%TD*%
D12*
%TO.P,R11,1*%
%TO.N,/SENS_LED*%
X121300000Y-129700000D03*
%TO.P,R11,2*%
%TO.N,Net-(R11-Pad2)*%
X119300000Y-129700000D03*
%TD*%
D15*
%TO.P,Y1,1,1*%
%TO.N,Net-(U2-OSCIN)*%
X114300000Y-148450000D03*
%TO.P,Y1,2,2*%
%TO.N,GND*%
X117200000Y-148450000D03*
%TO.P,Y1,3,3*%
%TO.N,Net-(U2-OSCOUT)*%
X117200000Y-146150000D03*
%TO.P,Y1,4,4*%
%TO.N,GND*%
X114300000Y-146150000D03*
%TD*%
D16*
%TO.P,C1,1*%
%TO.N,Net-(C1-Pad1)*%
X121222500Y-139500000D03*
%TO.P,C1,2*%
%TO.N,GND*%
X123297500Y-139500000D03*
%TD*%
%TO.P,C2,1*%
%TO.N,GND*%
X126702500Y-139500000D03*
%TO.P,C2,2*%
%TO.N,Net-(C2-Pad2)*%
X128777500Y-139500000D03*
%TD*%
D13*
%TO.P,C4,1*%
%TO.N,Net-(C4-Pad1)*%
X133037500Y-140650000D03*
%TO.P,C4,2*%
%TO.N,Net-(C2-Pad2)*%
X130962500Y-140650000D03*
%TD*%
D12*
%TO.P,R6,1*%
%TO.N,+3.3V*%
X107200000Y-138000000D03*
%TO.P,R6,2*%
%TO.N,Net-(U2-I0)*%
X105200000Y-138000000D03*
%TD*%
D17*
%TO.P,C13,1*%
%TO.N,+3.3V*%
X109000000Y-144437500D03*
%TO.P,C13,2*%
%TO.N,GND*%
X109000000Y-142362500D03*
%TD*%
D18*
%TO.P,L_pcb1,1,1*%
%TO.N,Net-(C1-Pad1)*%
X119600000Y-138750000D03*
%TO.P,L_pcb1,2,2*%
%TO.N,GND*%
X125000000Y-139700000D03*
%TO.P,L_pcb1,3,3*%
%TO.N,Net-(C2-Pad2)*%
X130400000Y-138750000D03*
D19*
%TO.P,L_pcb1,B*%
%TO.N,N/C*%
X125000000Y-111250000D03*
X129500000Y-116250000D03*
%TO.P,L_pcb1,G*%
X125000000Y-135750000D03*
X125000000Y-138750000D03*
%TD*%
D16*
%TO.P,C12,1*%
%TO.N,VCC*%
X138912500Y-143700000D03*
%TO.P,C12,2*%
%TO.N,GND*%
X140987500Y-143700000D03*
%TD*%
D20*
%TO.P,J1,1,Pin_1*%
%TO.N,Net-(J1-Pin_1)*%
X147900000Y-111000000D03*
D21*
%TO.P,J1,2,Pin_2*%
%TO.N,Net-(J1-Pin_2)*%
X147900000Y-113540000D03*
%TO.P,J1,3,Pin_3*%
%TO.N,VCC*%
X147900000Y-116080000D03*
%TO.P,J1,4,Pin_4*%
%TO.N,GND*%
X147900000Y-118620000D03*
%TO.P,J1,5,Pin_5*%
%TO.N,/SENS_DET*%
X147900000Y-121160000D03*
%TO.P,J1,6,Pin_6*%
%TO.N,/SENS_LED*%
X147900000Y-123700000D03*
%TO.P,J1,7,Pin_7*%
%TO.N,/RSTPD_N*%
X147900000Y-126240000D03*
%TO.P,J1,8,Pin_8*%
%TO.N,/LED_KR*%
X147900000Y-128780000D03*
%TO.P,J1,9,Pin_9*%
%TO.N,/LED_KG*%
X147900000Y-131320000D03*
%TO.P,J1,10,Pin_10*%
%TO.N,/LED_KB*%
X147900000Y-133860000D03*
%TD*%
D12*
%TO.P,R13,1*%
%TO.N,/LED_KR*%
X145000000Y-130400000D03*
%TO.P,R13,2*%
%TO.N,Net-(D1-RK)*%
X143000000Y-130400000D03*
%TD*%
D14*
%TO.P,R9,1*%
%TO.N,+3.3V*%
X142900000Y-138500000D03*
%TO.P,R9,2*%
%TO.N,Net-(Q2-S)*%
X144900000Y-138500000D03*
%TD*%
D22*
%TO.P,L1,1,1*%
%TO.N,Net-(U2-TX2)*%
X118162500Y-143000000D03*
%TO.P,L1,2,2*%
%TO.N,Net-(C3-Pad1)*%
X114837500Y-143000000D03*
%TD*%
D23*
%TO.P,U2,1,DVSS*%
%TO.N,GND*%
X127250000Y-142240000D03*
%TO.P,U2,2,LOADMOD*%
%TO.N,unconnected-(U2-LOADMOD-Pad2)*%
X126750000Y-142240000D03*
%TO.P,U2,3,TVSS1*%
%TO.N,GND*%
X126250000Y-142240000D03*
%TO.P,U2,4,TX1*%
%TO.N,Net-(U2-TX1)*%
X125750000Y-142240000D03*
%TO.P,U2,5,TVDD*%
%TO.N,+3.3V*%
X125250000Y-142240000D03*
%TO.P,U2,6,TX2*%
%TO.N,Net-(U2-TX2)*%
X124750000Y-142240000D03*
%TO.P,U2,7,TVSS2*%
%TO.N,GND*%
X124250000Y-142240000D03*
%TO.P,U2,8,AVDD*%
%TO.N,+3.3V*%
X123750000Y-142240000D03*
%TO.P,U2,9,VMID*%
%TO.N,Net-(U2-VMID)*%
X123250000Y-142240000D03*
%TO.P,U2,10,RX*%
%TO.N,Net-(U2-RX)*%
X122750000Y-142240000D03*
D24*
%TO.P,U2,11,AVSS*%
%TO.N,GND*%
X122062500Y-142927500D03*
%TO.P,U2,12,AUX1*%
%TO.N,/AUX1*%
X122062500Y-143427500D03*
%TO.P,U2,13,AUX2*%
%TO.N,/AUX2*%
X122062500Y-143927500D03*
%TO.P,U2,14,OSCIN*%
%TO.N,Net-(U2-OSCIN)*%
X122062500Y-144427500D03*
%TO.P,U2,15,OSCOUT*%
%TO.N,Net-(U2-OSCOUT)*%
X122062500Y-144927500D03*
%TO.P,U2,16,I0*%
%TO.N,Net-(U2-I0)*%
X122062500Y-145427500D03*
%TO.P,U2,17,I1*%
%TO.N,Net-(U2-I1)*%
X122062500Y-145927500D03*
%TO.P,U2,18,TESTEN*%
%TO.N,GND*%
X122062500Y-146427500D03*
%TO.P,U2,19,P35*%
%TO.N,unconnected-(U2-P35-Pad19)*%
X122062500Y-146927500D03*
%TO.P,U2,20,N.C.*%
%TO.N,unconnected-(U2-N.C.-Pad20)*%
X122062500Y-147427500D03*
D23*
%TO.P,U2,21,N.C.*%
%TO.N,unconnected-(U2-N.C.-Pad21)*%
X122750000Y-148115000D03*
%TO.P,U2,22,N.C.*%
%TO.N,unconnected-(U2-N.C.-Pad22)*%
X123250000Y-148115000D03*
%TO.P,U2,23,PVDD*%
%TO.N,+3.3V*%
X123750000Y-148115000D03*
%TO.P,U2,24,P30/UART_RX*%
%TO.N,/UART_RX*%
X124250000Y-148115000D03*
%TO.P,U2,25,P70_IRQ*%
%TO.N,/IRQ*%
X124750000Y-148115000D03*
%TO.P,U2,26,~{RSTOUT}*%
%TO.N,unconnected-(U2-~{RSTOUT}-Pad26)*%
X125250000Y-148115000D03*
%TO.P,U2,27,NSS/P50_SCL/HSU_RX*%
%TO.N,Net-(Q1-S)*%
X125750000Y-148115000D03*
%TO.P,U2,28,MOSI/SDA/HSU_TX*%
%TO.N,Net-(Q2-S)*%
X126250000Y-148115000D03*
%TO.P,U2,29,MISO/P71*%
%TO.N,/CIPO*%
X126750000Y-148115000D03*
%TO.P,U2,30,SCK/P72*%
%TO.N,/SCK*%
X127250000Y-148115000D03*
D24*
%TO.P,U2,31,P31/UART_TX*%
%TO.N,/UART_TX*%
X127937500Y-147427500D03*
%TO.P,U2,32,P32_INT0*%
%TO.N,unconnected-(U2-P32_INT0-Pad32)*%
X127937500Y-146927500D03*
%TO.P,U2,33,P33_INT1*%
%TO.N,unconnected-(U2-P33_INT1-Pad33)*%
X127937500Y-146427500D03*
%TO.P,U2,34,SIC_CLK/P34*%
%TO.N,unconnected-(U2-SIC_CLK{slash}P34-Pad34)*%
X127937500Y-145927500D03*
%TO.P,U2,35,SIGOUT*%
%TO.N,unconnected-(U2-SIGOUT-Pad35)*%
X127937500Y-145427500D03*
%TO.P,U2,36,SIGIN*%
%TO.N,unconnected-(U2-SIGIN-Pad36)*%
X127937500Y-144927500D03*
%TO.P,U2,37,SVDD*%
%TO.N,unconnected-(U2-SVDD-Pad37)*%
X127937500Y-144427500D03*
%TO.P,U2,38,~{RSTPD}*%
%TO.N,/RSTPD_N*%
X127937500Y-143927500D03*
%TO.P,U2,39,DVDD*%
%TO.N,+3.3V*%
X127937500Y-143427500D03*
%TO.P,U2,40,VBAT*%
%TO.N,VCC*%
X127937500Y-142927500D03*
D25*
%TO.P,U2,41,AVSS*%
%TO.N,GND*%
X125000000Y-145177500D03*
%TD*%
D17*
%TO.P,C17,1*%
%TO.N,GND*%
X119800000Y-148337500D03*
%TO.P,C17,2*%
%TO.N,Net-(U2-OSCOUT)*%
X119800000Y-146262500D03*
%TD*%
D13*
%TO.P,C6,1*%
%TO.N,GND*%
X137037500Y-140650000D03*
%TO.P,C6,2*%
%TO.N,Net-(C4-Pad1)*%
X134962500Y-140650000D03*
%TD*%
%TO.P,C14,1*%
%TO.N,+3.3V*%
X140987500Y-146000000D03*
%TO.P,C14,2*%
%TO.N,GND*%
X138912500Y-146000000D03*
%TD*%
D26*
%TO.P,C16,1*%
%TO.N,GND*%
X111700000Y-146262500D03*
%TO.P,C16,2*%
%TO.N,Net-(U2-OSCIN)*%
X111700000Y-148337500D03*
%TD*%
D16*
%TO.P,C3,1*%
%TO.N,Net-(C3-Pad1)*%
X116962500Y-140650000D03*
%TO.P,C3,2*%
%TO.N,Net-(C1-Pad1)*%
X119037500Y-140650000D03*
%TD*%
D12*
%TO.P,R15,1*%
%TO.N,/LED_KB*%
X145000000Y-134620000D03*
%TO.P,R15,2*%
%TO.N,Net-(D1-BK)*%
X143000000Y-134620000D03*
%TD*%
D16*
%TO.P,C9,1*%
%TO.N,+3.3V*%
X107145000Y-140300000D03*
%TO.P,C9,2*%
%TO.N,GND*%
X109220000Y-140300000D03*
%TD*%
D27*
%TO.P,L2,1,1*%
%TO.N,Net-(U2-TX1)*%
X131837500Y-143000000D03*
%TO.P,L2,2,2*%
%TO.N,Net-(C4-Pad1)*%
X135162500Y-143000000D03*
%TD*%
D14*
%TO.P,R10,1*%
%TO.N,+3.3V*%
X146900000Y-138500000D03*
%TO.P,R10,2*%
%TO.N,Net-(Q1-S)*%
X148900000Y-138500000D03*
%TD*%
D28*
%TO.P,U1,*%
%TO.N,*%
X130045000Y-117770000D03*
D29*
%TO.P,U1,1*%
%TO.N,Net-(R11-Pad2)*%
X120270000Y-123700000D03*
D30*
%TO.P,U1,2*%
%TO.N,GND*%
X120270000Y-126240000D03*
%TO.P,U1,3*%
%TO.N,/SENS_DET*%
X129720000Y-126240000D03*
%TO.P,U1,4*%
%TO.N,GND*%
X129720000Y-123700000D03*
%TD*%
D16*
%TO.P,C8,1*%
%TO.N,Net-(C8-Pad1)*%
X134962500Y-148500000D03*
%TO.P,C8,2*%
%TO.N,Net-(U2-RX)*%
X137037500Y-148500000D03*
%TD*%
D12*
%TO.P,R5,1*%
%TO.N,+3.3V*%
X107200000Y-135500000D03*
%TO.P,R5,2*%
%TO.N,Net-(U2-I1)*%
X105200000Y-135500000D03*
%TD*%
D13*
%TO.P,C7,1*%
%TO.N,GND*%
X137037500Y-146000000D03*
%TO.P,C7,2*%
%TO.N,Net-(U2-VMID)*%
X134962500Y-146000000D03*
%TD*%
D17*
%TO.P,C10,1*%
%TO.N,+3.3V*%
X111050000Y-144437500D03*
%TO.P,C10,2*%
%TO.N,GND*%
X111050000Y-142362500D03*
%TD*%
D14*
%TO.P,R1,1*%
%TO.N,Net-(U2-RX)*%
X131000000Y-146000000D03*
%TO.P,R1,2*%
%TO.N,Net-(U2-VMID)*%
X133000000Y-146000000D03*
%TD*%
D31*
%TO.P,Q1,1,G*%
%TO.N,+3.3V*%
X143050000Y-110937500D03*
%TO.P,Q1,2,S*%
%TO.N,Net-(Q1-S)*%
X144950000Y-110937500D03*
%TO.P,Q1,3,D*%
%TO.N,Net-(J1-Pin_1)*%
X144000000Y-109062500D03*
%TD*%
D17*
%TO.P,C11,1*%
%TO.N,+3.3V*%
X109000000Y-148537500D03*
%TO.P,C11,2*%
%TO.N,GND*%
X109000000Y-146462500D03*
%TD*%
D31*
%TO.P,Q2,1,G*%
%TO.N,+3.3V*%
X143050000Y-114937500D03*
%TO.P,Q2,2,S*%
%TO.N,Net-(Q2-S)*%
X144950000Y-114937500D03*
%TO.P,Q2,3,D*%
%TO.N,Net-(J1-Pin_2)*%
X144000000Y-113062500D03*
%TD*%
D12*
%TO.P,R14,1*%
%TO.N,/LED_KG*%
X145000000Y-132500000D03*
%TO.P,R14,2*%
%TO.N,Net-(D1-GK)*%
X143000000Y-132500000D03*
%TD*%
D14*
%TO.P,R12,1*%
%TO.N,/SENS_DET*%
X128500000Y-129700000D03*
%TO.P,R12,2*%
%TO.N,VCC*%
X130500000Y-129700000D03*
%TD*%
%TO.P,R3,1*%
%TO.N,VCC*%
X142900000Y-140800000D03*
%TO.P,R3,2*%
%TO.N,/RSTPD_N*%
X144900000Y-140800000D03*
%TD*%
D13*
%TO.P,C15,1*%
%TO.N,+3.3V*%
X140987500Y-148500000D03*
%TO.P,C15,2*%
%TO.N,GND*%
X138912500Y-148500000D03*
%TD*%
D32*
%TO.N,Net-(R11-Pad2)*%
X119380000Y-128270000D03*
%TO.N,/SENS_LED*%
X121920000Y-130810000D03*
%TO.N,+3.3V*%
X123825000Y-149200000D03*
X128902600Y-143427500D03*
X140970000Y-149200000D03*
X109855000Y-149200000D03*
X143571610Y-124542919D03*
X109753300Y-138986200D03*
X124620265Y-140809735D03*
X142718500Y-136567000D03*
X146065000Y-126040800D03*
X142353800Y-143660900D03*
%TO.N,VCC*%
X144780000Y-125730000D03*
X141299700Y-139654700D03*
X138688300Y-142266100D03*
X132080000Y-129540000D03*
X142240000Y-116840000D03*
X145415000Y-116840000D03*
%TO.N,Net-(U2-OSCIN)*%
X113708000Y-144613300D03*
X112278400Y-144570100D03*
%TO.N,Net-(Q1-S)*%
X129052965Y-148113965D03*
X145794300Y-110910900D03*
X148092800Y-139705200D03*
%TO.N,/SENS_DET*%
X128270000Y-128270000D03*
%TO.N,Net-(Q2-S)*%
X143978300Y-139705200D03*
X145320400Y-127082200D03*
X129900000Y-148564400D03*
X143179000Y-143268400D03*
X142240000Y-146685000D03*
%TO.N,/RSTPD_N*%
X140870400Y-142349800D03*
X130184700Y-144253200D03*
%TO.N,Net-(U2-I1)*%
X120650000Y-147320000D03*
X105525200Y-136728300D03*
%TO.N,Net-(U2-I0)*%
X104140000Y-136525000D03*
X120680500Y-144914144D03*
%TO.N,GND*%
X136275000Y-142435743D03*
X129704100Y-142005300D03*
X140970000Y-121920000D03*
X125724735Y-140964735D03*
%TO.N,Net-(C3-Pad1)*%
X130828700Y-147273500D03*
X116919765Y-143342635D03*
%TO.N,Net-(U2-VMID)*%
X119848900Y-142875000D03*
X131936800Y-144891300D03*
%TO.N,Net-(U2-RX)*%
X129083386Y-145415000D03*
X120650000Y-142875000D03*
%TO.N,Net-(D1-GK)*%
X139971000Y-100800000D03*
X142240000Y-119380000D03*
X142875000Y-127635000D03*
X141570000Y-130175000D03*
%TO.N,Net-(D1-BK)*%
X148057600Y-136567000D03*
X142875000Y-107281500D03*
%TD*%
D33*
%TO.N,Net-(J1-Pin_1)*%
X144810600Y-109062500D02*
X146748100Y-111000000D01*
X144000000Y-109062500D02*
X144810600Y-109062500D01*
X147900000Y-111000000D02*
X146748100Y-111000000D01*
%TO.N,Net-(R11-Pad2)*%
X119300000Y-128350000D02*
X119300000Y-129700000D01*
X119380000Y-128270000D02*
X119300000Y-128350000D01*
%TO.N,Net-(J1-Pin_2)*%
X146270600Y-113062500D02*
X144000000Y-113062500D01*
X147900000Y-113540000D02*
X146748100Y-113540000D01*
X146748100Y-113540000D02*
X146270600Y-113062500D01*
%TO.N,/SENS_LED*%
X121300000Y-129700000D02*
X121300000Y-130190000D01*
X121300000Y-130190000D02*
X121920000Y-130810000D01*
%TO.N,+3.3V*%
X109192500Y-148537500D02*
X109855000Y-149200000D01*
X142353800Y-144633700D02*
X142353800Y-143660900D01*
X107145000Y-142582500D02*
X109000000Y-144437500D01*
X125250000Y-141439470D02*
X125250000Y-142240000D01*
X140987500Y-149182500D02*
X140970000Y-149200000D01*
X107481300Y-145720700D02*
X107481300Y-147232400D01*
X143571610Y-124521610D02*
X143571610Y-124542919D01*
X143960400Y-137439600D02*
X145839600Y-137439600D01*
X124620265Y-140809735D02*
X125250000Y-141439470D01*
X140987500Y-146000000D02*
X140987500Y-148500000D01*
X142966800Y-111020700D02*
X142966800Y-114854300D01*
X142718500Y-136567000D02*
X143775800Y-137624200D01*
X109000000Y-144437500D02*
X111050000Y-144437500D01*
X107200000Y-140245000D02*
X107200000Y-138986200D01*
X140987500Y-146000000D02*
X142353800Y-144633700D01*
X107200000Y-135500000D02*
X107200000Y-138000000D01*
X145839600Y-137439600D02*
X146900000Y-138500000D01*
X108786400Y-148537500D02*
X109000000Y-148537500D01*
X107481300Y-147232400D02*
X108786400Y-148537500D01*
X107145000Y-140300000D02*
X107200000Y-140245000D01*
X109000000Y-144437500D02*
X108764500Y-144437500D01*
X143050000Y-124000000D02*
X143571610Y-124521610D01*
X142900000Y-138500000D02*
X143775800Y-137624200D01*
X123750000Y-149125000D02*
X123825000Y-149200000D01*
X143050000Y-114937500D02*
X143050000Y-124000000D01*
X143050000Y-110937500D02*
X142966800Y-111020700D01*
X107200000Y-138986200D02*
X109753300Y-138986200D01*
X107200000Y-138986200D02*
X107200000Y-138000000D01*
X108764500Y-144437500D02*
X107481300Y-145720700D01*
X127937500Y-143427500D02*
X128902600Y-143427500D01*
X107145000Y-140300000D02*
X107145000Y-142582500D01*
X140987500Y-148500000D02*
X140987500Y-149182500D01*
X143775800Y-137624200D02*
X143960400Y-137439600D01*
X142966800Y-114854300D02*
X143050000Y-114937500D01*
X123750000Y-148115000D02*
X123750000Y-149125000D01*
X109000000Y-148537500D02*
X109192500Y-148537500D01*
%TO.N,VCC*%
X141605000Y-104775000D02*
X141605000Y-107950000D01*
X141605000Y-115570000D02*
X142240000Y-116205000D01*
X139800000Y-103800000D02*
X140630000Y-103800000D01*
X141605000Y-107950000D02*
X141605000Y-115570000D01*
X144780000Y-119200000D02*
X147900000Y-116080000D01*
X141254400Y-139814400D02*
X141254400Y-139700000D01*
X145415000Y-116840000D02*
X146175000Y-116080000D01*
X142240000Y-116205000D02*
X142240000Y-116840000D01*
X131073700Y-144273200D02*
X136681200Y-144273200D01*
X128039400Y-142825600D02*
X129626100Y-142825600D01*
X141605000Y-107950000D02*
X141605000Y-108055000D01*
X131920000Y-129820000D02*
X131920000Y-129700000D01*
X131920000Y-129700000D02*
X132080000Y-129540000D01*
X138912500Y-143700000D02*
X138912500Y-142490300D01*
X127937500Y-142927500D02*
X128039400Y-142825600D01*
X146175000Y-116080000D02*
X147900000Y-116080000D01*
X136681200Y-144273200D02*
X138688300Y-142266100D01*
X144780000Y-125730000D02*
X144780000Y-119200000D01*
X130500000Y-129700000D02*
X131920000Y-129700000D01*
X138912500Y-142490300D02*
X138688300Y-142266100D01*
X142240000Y-140800000D02*
X141254400Y-139814400D01*
X140630000Y-103800000D02*
X141605000Y-104775000D01*
X141254400Y-139700000D02*
X141299700Y-139654700D01*
X129626100Y-142825600D02*
X131073700Y-144273200D01*
%TO.N,Net-(U2-OSCIN)*%
X121608071Y-144427500D02*
X122062500Y-144427500D01*
X111700000Y-148337500D02*
X111812500Y-148450000D01*
X114071300Y-144250000D02*
X118861529Y-144250000D01*
X111787400Y-145350000D02*
X112278400Y-144859000D01*
X108490900Y-145350000D02*
X111787400Y-145350000D01*
X107922700Y-145918200D02*
X108490900Y-145350000D01*
X108557600Y-147641600D02*
X107922700Y-147006700D01*
X111700000Y-148337500D02*
X111004100Y-147641600D01*
X111812500Y-148450000D02*
X114300000Y-148450000D01*
X107922700Y-147006700D02*
X107922700Y-145918200D01*
X111004100Y-147641600D02*
X108557600Y-147641600D01*
X113708000Y-144613300D02*
X114071300Y-144250000D01*
X119601529Y-143510000D02*
X120690571Y-143510000D01*
X120690571Y-143510000D02*
X121608071Y-144427500D01*
X112278400Y-144859000D02*
X112278400Y-144570100D01*
X118861529Y-144250000D02*
X119601529Y-143510000D01*
%TO.N,Net-(U2-OSCOUT)*%
X120249999Y-144145000D02*
X119800000Y-144594999D01*
X119800000Y-144594999D02*
X119800000Y-146262500D01*
X119800000Y-146262500D02*
X119687500Y-146150000D01*
X120759885Y-144145000D02*
X120249999Y-144145000D01*
X122062500Y-144927500D02*
X121542385Y-144927500D01*
X121542385Y-144927500D02*
X120759885Y-144145000D01*
X119687500Y-146150000D02*
X117200000Y-146150000D01*
%TO.N,Net-(Q1-S)*%
X125750000Y-148672400D02*
X125750000Y-148115000D01*
X129052965Y-148194335D02*
X127966800Y-149280500D01*
X127966800Y-149280500D02*
X126358100Y-149280500D01*
X144976600Y-110910900D02*
X144950000Y-110937500D01*
X148092800Y-139307200D02*
X148900000Y-138500000D01*
X148092800Y-139705200D02*
X148092800Y-139307200D01*
X129052965Y-148113965D02*
X129052965Y-148194335D01*
X126358100Y-149280500D02*
X125750000Y-148672400D01*
X129282900Y-147964400D02*
X129282900Y-147966000D01*
X145794300Y-110910900D02*
X144976600Y-110910900D01*
X129282900Y-147966000D02*
X129282900Y-147964400D01*
%TO.N,/SENS_DET*%
X128270000Y-129470000D02*
X128500000Y-129700000D01*
X128270000Y-128270000D02*
X128270000Y-129470000D01*
%TO.N,Net-(Q2-S)*%
X142240000Y-146685000D02*
X142240000Y-145415000D01*
X126560300Y-148878600D02*
X126250000Y-148568300D01*
X145262600Y-127082200D02*
X145320400Y-127082200D01*
X142240000Y-145415000D02*
X143179000Y-144476000D01*
X129900000Y-148564400D02*
X129932300Y-148532100D01*
X143978300Y-139421700D02*
X143978300Y-139705200D01*
X144900000Y-138500000D02*
X143978300Y-139421700D01*
X126250000Y-148568300D02*
X126250000Y-148115000D01*
X144170900Y-125990500D02*
X145262600Y-127082200D01*
X144170900Y-115716600D02*
X144170900Y-125990500D01*
X144950000Y-114937500D02*
X144170900Y-115716600D01*
X129932300Y-147701500D02*
X129538200Y-147307400D01*
X143179000Y-144476000D02*
X143179000Y-143268400D01*
X129538200Y-147307400D02*
X129011000Y-147307400D01*
X129932300Y-148532100D02*
X129932300Y-147701500D01*
X127439800Y-148878600D02*
X126560300Y-148878600D01*
X129011000Y-147307400D02*
X127439800Y-148878600D01*
%TO.N,/RSTPD_N*%
X128551500Y-143927500D02*
X128877200Y-144253200D01*
X128877200Y-144253200D02*
X130184700Y-144253200D01*
X140870400Y-142349800D02*
X140997200Y-142223000D01*
X127937500Y-143927500D02*
X128551500Y-143927500D01*
X144900000Y-140800000D02*
X146900000Y-140800000D01*
X140997200Y-142223000D02*
X143477000Y-142223000D01*
X143477000Y-142223000D02*
X144900000Y-140800000D01*
%TO.N,Net-(U2-I1)*%
X120825000Y-146172500D02*
X121070000Y-145927500D01*
X121070000Y-145927500D02*
X122062500Y-145927500D01*
X103200000Y-135500000D02*
X105200000Y-135500000D01*
X120650000Y-147320000D02*
X120650000Y-147009744D01*
X120825000Y-146834744D02*
X120825000Y-146172500D01*
X105200000Y-136403100D02*
X105200000Y-135500000D01*
X105525200Y-136728300D02*
X105200000Y-136403100D01*
X120650000Y-147009744D02*
X120825000Y-146834744D01*
%TO.N,Net-(U2-I0)*%
X104140000Y-136940000D02*
X105200000Y-138000000D01*
X104140000Y-136525000D02*
X104140000Y-136940000D01*
X121193856Y-145427500D02*
X120680500Y-144914144D01*
X103200000Y-138000000D02*
X105200000Y-138000000D01*
X122062500Y-145427500D02*
X121193856Y-145427500D01*
%TO.N,Net-(C1-Pad1)*%
X120072000Y-140650000D02*
X121222000Y-139500000D01*
X119037500Y-140650000D02*
X119038000Y-140650000D01*
X121222000Y-139500000D02*
X120350000Y-139500000D01*
X121222500Y-139500000D02*
X121222000Y-139500000D01*
X119600000Y-138750000D02*
X119989000Y-139139000D01*
X119038000Y-140650000D02*
X120072000Y-140650000D01*
X120350000Y-139500000D02*
X119989000Y-139139000D01*
%TO.N,GND*%
X121542500Y-146427500D02*
X121250000Y-146720000D01*
X140987500Y-143700000D02*
X141292400Y-143395100D01*
X137923400Y-140650000D02*
X137037500Y-140650000D01*
X109200000Y-146262500D02*
X111700000Y-146262500D01*
X111700000Y-146262500D02*
X112835600Y-146262500D01*
X127250000Y-142240000D02*
X129469400Y-142240000D01*
X126702000Y-139500000D02*
X126577000Y-139625000D01*
X112948100Y-144260500D02*
X112948100Y-146150000D01*
X137037500Y-140650000D02*
X138823909Y-140650000D01*
X119687600Y-148450000D02*
X119687600Y-148449900D01*
X124250000Y-142979600D02*
X124250000Y-142240000D01*
X113624100Y-146150000D02*
X112948100Y-146150000D01*
X109570000Y-140650000D02*
X109220000Y-140300000D01*
X125000000Y-139700000D02*
X125000000Y-139750000D01*
X122875000Y-146427500D02*
X122062500Y-146427500D01*
X111050000Y-142362500D02*
X111050000Y-140650000D01*
X138823909Y-140650000D02*
X139700000Y-139773909D01*
X148900000Y-140800000D02*
X147056900Y-142643100D01*
X126524600Y-142978000D02*
X126250000Y-142703400D01*
X142511400Y-142643100D02*
X141759400Y-143395100D01*
X124250000Y-142979600D02*
X125973800Y-142979600D01*
X111050000Y-142362500D02*
X109000000Y-142362500D01*
X103350000Y-133350000D02*
X106678200Y-133350000D01*
X126534700Y-142978000D02*
X126524600Y-142978000D01*
X122062500Y-142927500D02*
X122114600Y-142979600D01*
X122114600Y-142979600D02*
X124250000Y-142979600D01*
X138912500Y-146000000D02*
X140987500Y-143925000D01*
X117200000Y-148450000D02*
X115848100Y-148450000D01*
X106678200Y-133350000D02*
X110353300Y-137025100D01*
X126702500Y-139500000D02*
X126702500Y-139986970D01*
X125000000Y-139750000D02*
X123548000Y-139750000D01*
X117200000Y-148450000D02*
X119687600Y-148450000D01*
X126702500Y-139986970D02*
X125724735Y-140964735D01*
X127025300Y-142979600D02*
X126536300Y-142979600D01*
X115651900Y-146150000D02*
X115651900Y-148253800D01*
X112962500Y-140650000D02*
X111050000Y-140650000D01*
X147056900Y-142643100D02*
X142511400Y-142643100D01*
X124250000Y-145052500D02*
X124250000Y-142979600D01*
X114300000Y-146150000D02*
X115651900Y-146150000D01*
X121250000Y-147612500D02*
X120525000Y-148337500D01*
X115651900Y-148253800D02*
X115848100Y-148450000D01*
X127250000Y-142240000D02*
X127177100Y-142312900D01*
X125000000Y-145177500D02*
X124375000Y-145177500D01*
X138912500Y-148500000D02*
X138912500Y-146000000D01*
X120525000Y-148337500D02*
X119800000Y-148337500D01*
X123423000Y-139625000D02*
X123422500Y-139625000D01*
X140970000Y-138430000D02*
X140970000Y-121920000D01*
X125973800Y-142979600D02*
X126250000Y-142703400D01*
X109000000Y-146462500D02*
X109200000Y-146262500D01*
X101200000Y-135500000D02*
X103350000Y-133350000D01*
X101200000Y-138000000D02*
X101200000Y-135500000D01*
X126577000Y-139625000D02*
X126577500Y-139625000D01*
X140668500Y-143395100D02*
X137923400Y-140650000D01*
X111050000Y-142362500D02*
X112948000Y-144260500D01*
X123422500Y-139625000D02*
X123297500Y-139500000D01*
X119687600Y-148449900D02*
X119800000Y-148337500D01*
X126577500Y-139625000D02*
X126702500Y-139500000D01*
X140987500Y-143925000D02*
X140987500Y-143700000D01*
X127177100Y-142827800D02*
X127025300Y-142979600D01*
X123548000Y-139750000D02*
X123423000Y-139625000D01*
X111439100Y-140650000D02*
X112962500Y-140650000D01*
X126536300Y-142979600D02*
X126534700Y-142978000D01*
X111050000Y-140650000D02*
X109570000Y-140650000D01*
X126577000Y-139625000D02*
X126452000Y-139750000D01*
X136275000Y-141412500D02*
X137037500Y-140650000D01*
X112948000Y-144260500D02*
X112948100Y-144260500D01*
X127177100Y-142312900D02*
X127177100Y-142827800D01*
X113624100Y-146150000D02*
X114300000Y-146150000D01*
X124250000Y-145052500D02*
X122875000Y-146427500D01*
X137037500Y-146000000D02*
X138912500Y-146000000D01*
X139700000Y-139700000D02*
X140970000Y-138430000D01*
X112835600Y-146262500D02*
X112948100Y-146150000D01*
X124375000Y-145177500D02*
X124250000Y-145052500D01*
X139700000Y-139773909D02*
X139700000Y-139700000D01*
X129469400Y-142240000D02*
X129704100Y-142005300D01*
X126250000Y-142703400D02*
X126250000Y-142240000D01*
X110353300Y-137025100D02*
X110353300Y-139564200D01*
X126452000Y-139750000D02*
X125000000Y-139750000D01*
X136275000Y-142435743D02*
X136275000Y-141412500D01*
X123423000Y-139625000D02*
X123298000Y-139500000D01*
X141759400Y-143395100D02*
X140668500Y-143395100D01*
X110353300Y-139564200D02*
X111439100Y-140650000D01*
X122062500Y-146427500D02*
X121542500Y-146427500D01*
X141292400Y-143395100D02*
X141759400Y-143395100D01*
X121250000Y-146720000D02*
X121250000Y-147612500D01*
%TO.N,Net-(C3-Pad1)*%
X114838000Y-142238000D02*
X114838000Y-140850000D01*
X114837500Y-142238500D02*
X114837500Y-143000000D01*
X116386630Y-142809500D02*
X114838000Y-142809500D01*
X116919765Y-143342635D02*
X116386630Y-142809500D01*
X114838000Y-140850000D02*
X115037800Y-140650200D01*
X115037800Y-140650200D02*
X115038000Y-140650000D01*
X131000000Y-148500000D02*
X130828700Y-148328700D01*
X115037500Y-140650000D02*
X115037600Y-140650000D01*
X130828700Y-148328700D02*
X130828700Y-147273500D01*
X114838000Y-143000000D02*
X114838000Y-142809500D01*
X116962500Y-140650000D02*
X116962000Y-140650000D01*
X115037600Y-140650000D02*
X115037800Y-140650200D01*
X115038000Y-140650000D02*
X116962000Y-140650000D01*
X114838000Y-142238000D02*
X114837500Y-142238500D01*
X114838000Y-142809500D02*
X114838000Y-142238000D01*
%TO.N,Net-(C4-Pad1)*%
X135162000Y-143000000D02*
X135162000Y-142238000D01*
X134962000Y-140650000D02*
X133038000Y-140650000D01*
X133037500Y-140650000D02*
X133038000Y-140650000D01*
X134962500Y-140650000D02*
X134962300Y-140650200D01*
X135162000Y-142238000D02*
X135162500Y-142238500D01*
X134962300Y-140650200D02*
X134962000Y-140650000D01*
X135162000Y-142238000D02*
X135162000Y-140850000D01*
X135162500Y-142238500D02*
X135162500Y-143000000D01*
X135162000Y-140850000D02*
X134962300Y-140650200D01*
%TO.N,Net-(U2-TX1)*%
X131712000Y-143000000D02*
X129682000Y-140970000D01*
X125750000Y-141788000D02*
X125750000Y-142240000D01*
X126568000Y-140970000D02*
X125750000Y-141788000D01*
X129682000Y-140970000D02*
X126568000Y-140970000D01*
X131838000Y-143000000D02*
X131837500Y-143000000D01*
X131837500Y-143000000D02*
X131712000Y-143000000D01*
%TO.N,Net-(U2-TX2)*%
X123932000Y-140970000D02*
X124750000Y-141788000D01*
X118162500Y-143000000D02*
X118559000Y-143000000D01*
X120589000Y-140970000D02*
X123932000Y-140970000D01*
X118162000Y-143000000D02*
X118162500Y-143000000D01*
X118559000Y-143000000D02*
X120589000Y-140970000D01*
X124750000Y-141788000D02*
X124750000Y-142240000D01*
%TO.N,Net-(U2-VMID)*%
X119848900Y-142604900D02*
X120978300Y-141475500D01*
X120978300Y-141475500D02*
X122996100Y-141475500D01*
X122996100Y-141475500D02*
X123250000Y-141729400D01*
X123250000Y-141729400D02*
X123250000Y-142240000D01*
X134962500Y-146000000D02*
X133000000Y-146000000D01*
X133000000Y-145954500D02*
X133000000Y-146000000D01*
X119848900Y-142875000D02*
X119848900Y-142604900D01*
X131936800Y-144891300D02*
X133000000Y-145954500D01*
%TO.N,Net-(C8-Pad1)*%
X134962500Y-148500000D02*
X133000000Y-148500000D01*
%TO.N,Net-(U2-RX)*%
X137037500Y-148500000D02*
X135765900Y-147228400D01*
X129668386Y-146000000D02*
X131000000Y-146000000D01*
X121203050Y-142240000D02*
X122750000Y-142240000D01*
X120650000Y-142793050D02*
X121203050Y-142240000D01*
X129083386Y-145415000D02*
X129668386Y-146000000D01*
X120650000Y-142875000D02*
X120650000Y-142793050D01*
X132228400Y-147228400D02*
X131000000Y-146000000D01*
X135765900Y-147228400D02*
X132228400Y-147228400D01*
%TO.N,Net-(C2-Pad2)*%
X128778000Y-139500000D02*
X129650000Y-139500000D01*
X130962000Y-140650000D02*
X129928000Y-140650000D01*
X129928000Y-140650000D02*
X128778000Y-139500000D01*
X129650000Y-139500000D02*
X130011000Y-139139000D01*
X130400000Y-138750000D02*
X130011000Y-139139000D01*
X130962500Y-140650000D02*
X130962000Y-140650000D01*
X128777500Y-139500000D02*
X128778000Y-139500000D01*
%TO.N,/LED_KR*%
X147900000Y-128780000D02*
X146620000Y-128780000D01*
X146620000Y-128780000D02*
X145000000Y-130400000D01*
%TO.N,Net-(D1-RK)*%
X135697121Y-106680000D02*
X139189622Y-106680000D01*
X141570000Y-121671471D02*
X141570000Y-128970000D01*
X133985000Y-104015000D02*
X133985000Y-104967879D01*
X141570000Y-128970000D02*
X143000000Y-130400000D01*
X134200000Y-103800000D02*
X133985000Y-104015000D01*
X139189622Y-106680000D02*
X140970000Y-108460378D01*
X133985000Y-104967879D02*
X135697121Y-106680000D01*
X140970000Y-121071471D02*
X141570000Y-121671471D01*
X140970000Y-108460378D02*
X140970000Y-121071471D01*
%TO.N,Net-(D1-GK)*%
X143000000Y-132500000D02*
X141605000Y-131105000D01*
X134200000Y-101894243D02*
X134200000Y-102200000D01*
X142875000Y-127635000D02*
X142875000Y-126882900D01*
X141605000Y-131105000D02*
X141605000Y-130175000D01*
X141605000Y-130175000D02*
X141570000Y-130175000D01*
X142240000Y-119380000D02*
X142240000Y-126247900D01*
X135294243Y-100800000D02*
X134200000Y-101894243D01*
X142875000Y-126882900D02*
X142240000Y-126247900D01*
X139971000Y-100800000D02*
X135294243Y-100800000D01*
%TO.N,Net-(D1-BK)*%
X142240000Y-106646500D02*
X142240000Y-102870000D01*
X141570000Y-102200000D02*
X139800000Y-102200000D01*
X142240000Y-102870000D02*
X141570000Y-102200000D01*
X142875000Y-107281500D02*
X142240000Y-106646500D01*
X144947000Y-136567000D02*
X148057600Y-136567000D01*
X143000000Y-134620000D02*
X144947000Y-136567000D01*
%TO.N,/LED_KG*%
X147900000Y-131320000D02*
X146748100Y-131320000D01*
X145568100Y-132500000D02*
X145000000Y-132500000D01*
X146748100Y-131320000D02*
X145568100Y-132500000D01*
%TO.N,/LED_KB*%
X145000000Y-134620000D02*
X145760000Y-133860000D01*
X145760000Y-133860000D02*
X147900000Y-133860000D01*
%TD*%
%TA.AperFunction,Conductor*%
%TO.N,GND*%
G36*
X121288154Y-146893306D02*
G01*
X121297925Y-146900085D01*
X121383086Y-146965431D01*
X121424289Y-147021859D01*
X121429217Y-147039616D01*
X121439759Y-147092615D01*
X121439760Y-147092618D01*
X121450446Y-147108611D01*
X121471323Y-147175288D01*
X121452837Y-147242668D01*
X121450446Y-147246389D01*
X121439759Y-147262382D01*
X121424500Y-147339096D01*
X121424500Y-147515898D01*
X121439760Y-147592618D01*
X121439761Y-147592620D01*
X121466701Y-147632937D01*
X121497888Y-147679612D01*
X121584883Y-147737740D01*
X121584886Y-147737740D01*
X121584887Y-147737741D01*
X121615026Y-147743736D01*
X121661599Y-147753000D01*
X122300500Y-147752999D01*
X122367539Y-147772683D01*
X122413294Y-147825487D01*
X122424500Y-147876999D01*
X122424500Y-148515897D01*
X122439760Y-148592618D01*
X122439761Y-148592620D01*
X122463075Y-148627511D01*
X122497888Y-148679612D01*
X122584883Y-148737740D01*
X122584886Y-148737740D01*
X122584887Y-148737741D01*
X122623241Y-148745370D01*
X122661599Y-148753000D01*
X122838400Y-148752999D01*
X122915117Y-148737740D01*
X122931107Y-148727055D01*
X122997783Y-148706176D01*
X123065164Y-148724659D01*
X123068871Y-148727041D01*
X123073771Y-148730315D01*
X123084883Y-148737740D01*
X123084887Y-148737741D01*
X123123241Y-148745370D01*
X123161599Y-148753000D01*
X123285968Y-148752999D01*
X123353007Y-148772683D01*
X123398762Y-148825487D01*
X123408706Y-148894645D01*
X123398762Y-148928510D01*
X123339835Y-149057541D01*
X123339834Y-149057542D01*
X123319353Y-149200000D01*
X123341097Y-149351235D01*
X123339279Y-149351496D01*
X123339278Y-149410438D01*
X123301502Y-149469215D01*
X123237945Y-149498238D01*
X123220302Y-149499500D01*
X120804154Y-149499500D01*
X120737115Y-149479815D01*
X120691360Y-149427011D01*
X120681416Y-149357853D01*
X120710441Y-149294297D01*
X120739055Y-149269962D01*
X120743345Y-149267315D01*
X120867315Y-149143345D01*
X120959356Y-148994124D01*
X120959358Y-148994119D01*
X121014505Y-148827697D01*
X121014506Y-148827690D01*
X121024999Y-148724986D01*
X121025000Y-148724973D01*
X121025000Y-148587500D01*
X118793000Y-148587500D01*
X118788219Y-148592280D01*
X118773315Y-148643039D01*
X118720511Y-148688794D01*
X118669000Y-148700000D01*
X117074000Y-148700000D01*
X117006961Y-148680315D01*
X116961206Y-148627511D01*
X116950000Y-148576000D01*
X116950000Y-148324000D01*
X116969685Y-148256961D01*
X117022489Y-148211206D01*
X117074000Y-148200000D01*
X118532000Y-148200000D01*
X118536780Y-148195219D01*
X118551685Y-148144461D01*
X118604489Y-148098706D01*
X118656000Y-148087500D01*
X121024999Y-148087500D01*
X121024999Y-147950028D01*
X121024998Y-147950013D01*
X121014506Y-147847304D01*
X120992653Y-147781359D01*
X120990251Y-147711531D01*
X121016647Y-147661151D01*
X121016861Y-147660905D01*
X121056988Y-147614595D01*
X121075374Y-147593377D01*
X121075374Y-147593375D01*
X121075377Y-147593373D01*
X121135165Y-147462457D01*
X121155647Y-147320000D01*
X121135165Y-147177543D01*
X121091983Y-147082990D01*
X121082040Y-147013834D01*
X121102484Y-146961395D01*
X121104555Y-146958373D01*
X121104656Y-146958225D01*
X121104656Y-146958222D01*
X121109002Y-146948380D01*
X121154086Y-146895002D01*
X121220871Y-146874471D01*
X121288154Y-146893306D01*
G37*
%TD.AperFunction*%
%TA.AperFunction,Conductor*%
G36*
X138043834Y-143438050D02*
G01*
X138099767Y-143479922D01*
X138124184Y-143545386D01*
X138124500Y-143554232D01*
X138124500Y-144229269D01*
X138127353Y-144259699D01*
X138127353Y-144259701D01*
X138172206Y-144387880D01*
X138172207Y-144387882D01*
X138252850Y-144497150D01*
X138362118Y-144577793D01*
X138362120Y-144577793D01*
X138369771Y-144581837D01*
X138419845Y-144630564D01*
X138435626Y-144698629D01*
X138412104Y-144764420D01*
X138356746Y-144807049D01*
X138350838Y-144809175D01*
X138255878Y-144840642D01*
X138255875Y-144840643D01*
X138106654Y-144932684D01*
X138062681Y-144976658D01*
X138001358Y-145010143D01*
X137931666Y-145005159D01*
X137887319Y-144976658D01*
X137843345Y-144932684D01*
X137694124Y-144840643D01*
X137694119Y-144840641D01*
X137527697Y-144785494D01*
X137527690Y-144785493D01*
X137424986Y-144775000D01*
X137287500Y-144775000D01*
X137287500Y-145750000D01*
X139038500Y-145750000D01*
X139105539Y-145769685D01*
X139151294Y-145822489D01*
X139162500Y-145874000D01*
X139162500Y-148626000D01*
X139142815Y-148693039D01*
X139090011Y-148738794D01*
X139038500Y-148750000D01*
X138786500Y-148750000D01*
X138719461Y-148730315D01*
X138673706Y-148677511D01*
X138662500Y-148626000D01*
X138662500Y-146250000D01*
X137287500Y-146250000D01*
X137287500Y-147224999D01*
X137424972Y-147224999D01*
X137424986Y-147224998D01*
X137527697Y-147214505D01*
X137694119Y-147159358D01*
X137694124Y-147159356D01*
X137843345Y-147067315D01*
X137887319Y-147023342D01*
X137948642Y-146989857D01*
X138018334Y-146994841D01*
X138062681Y-147023342D01*
X138106655Y-147067316D01*
X138106659Y-147067319D01*
X138231726Y-147144462D01*
X138278451Y-147196410D01*
X138289672Y-147265372D01*
X138261829Y-147329454D01*
X138231726Y-147355538D01*
X138106659Y-147432680D01*
X138106655Y-147432683D01*
X137982683Y-147556655D01*
X137982680Y-147556659D01*
X137899906Y-147690856D01*
X137847958Y-147737581D01*
X137778995Y-147748802D01*
X137714913Y-147720959D01*
X137703887Y-147709254D01*
X137703721Y-147709421D01*
X137697151Y-147702851D01*
X137680898Y-147690856D01*
X137587882Y-147622207D01*
X137587880Y-147622206D01*
X137459700Y-147577353D01*
X137429270Y-147574500D01*
X137429266Y-147574500D01*
X136645734Y-147574500D01*
X136645730Y-147574500D01*
X136607788Y-147578058D01*
X136607555Y-147575574D01*
X136549863Y-147571491D01*
X136505429Y-147542958D01*
X136363404Y-147400933D01*
X136329919Y-147339610D01*
X136334903Y-147269918D01*
X136376775Y-147213985D01*
X136442239Y-147189568D01*
X136490090Y-147195546D01*
X136547305Y-147214505D01*
X136547309Y-147214506D01*
X136650019Y-147224999D01*
X136787499Y-147224999D01*
X136787500Y-147224998D01*
X136787500Y-144774999D01*
X136765919Y-144753419D01*
X136732433Y-144692096D01*
X136737417Y-144622404D01*
X136779288Y-144566471D01*
X136788324Y-144560308D01*
X136791629Y-144558261D01*
X136791633Y-144558261D01*
X136814348Y-144544196D01*
X136829525Y-144536196D01*
X136853965Y-144525406D01*
X136858861Y-144520509D01*
X136881269Y-144502761D01*
X136887152Y-144499119D01*
X136903253Y-144477795D01*
X136914514Y-144464855D01*
X137912820Y-143466550D01*
X137974142Y-143433066D01*
X138043834Y-143438050D01*
G37*
%TD.AperFunction*%
%TA.AperFunction,Conductor*%
G36*
X124318039Y-142134685D02*
G01*
X124363794Y-142187489D01*
X124375000Y-142239000D01*
X124375000Y-143174124D01*
X124375001Y-143174125D01*
X124459334Y-143163023D01*
X124459342Y-143163021D01*
X124596175Y-143106343D01*
X124713681Y-143016178D01*
X124787931Y-142919413D01*
X124844359Y-142878210D01*
X124862108Y-142873283D01*
X124915117Y-142862740D01*
X124931107Y-142852055D01*
X124997783Y-142831176D01*
X125065164Y-142849659D01*
X125068871Y-142852041D01*
X125069853Y-142852697D01*
X125084883Y-142862740D01*
X125084887Y-142862741D01*
X125122703Y-142870263D01*
X125161599Y-142878000D01*
X125338400Y-142877999D01*
X125415117Y-142862740D01*
X125431107Y-142852055D01*
X125497783Y-142831176D01*
X125565164Y-142849659D01*
X125568871Y-142852041D01*
X125569853Y-142852697D01*
X125584883Y-142862740D01*
X125584887Y-142862741D01*
X125637884Y-142873283D01*
X125699795Y-142905667D01*
X125712069Y-142919414D01*
X125786318Y-143016178D01*
X125903824Y-143106343D01*
X126040657Y-143163021D01*
X126040665Y-143163023D01*
X126124998Y-143174125D01*
X126125000Y-143174124D01*
X126125000Y-142239000D01*
X126144685Y-142171961D01*
X126197489Y-142126206D01*
X126249000Y-142115000D01*
X126300500Y-142115000D01*
X126367539Y-142134685D01*
X126413294Y-142187489D01*
X126424500Y-142239000D01*
X126424500Y-142264137D01*
X126404815Y-142331176D01*
X126388182Y-142351817D01*
X126375000Y-142364999D01*
X126375000Y-143174124D01*
X126375001Y-143174125D01*
X126459334Y-143163023D01*
X126459342Y-143163021D01*
X126596178Y-143106342D01*
X126674513Y-143046233D01*
X126739682Y-143021038D01*
X126808127Y-143035076D01*
X126825487Y-143046233D01*
X126903821Y-143106342D01*
X127040657Y-143163021D01*
X127040665Y-143163023D01*
X127141310Y-143176272D01*
X127164854Y-143165349D01*
X127234071Y-143174877D01*
X127287149Y-143220314D01*
X127307236Y-143287234D01*
X127304856Y-143312167D01*
X127299500Y-143339096D01*
X127299500Y-143515898D01*
X127314760Y-143592619D01*
X127325446Y-143608611D01*
X127346323Y-143675288D01*
X127327837Y-143742668D01*
X127325446Y-143746389D01*
X127314759Y-143762382D01*
X127299500Y-143839096D01*
X127299500Y-144015898D01*
X127314760Y-144092619D01*
X127325446Y-144108611D01*
X127346323Y-144175288D01*
X127327837Y-144242668D01*
X127325446Y-144246389D01*
X127314759Y-144262382D01*
X127299500Y-144339096D01*
X127299500Y-144515898D01*
X127314760Y-144592619D01*
X127325446Y-144608611D01*
X127346323Y-144675288D01*
X127327837Y-144742668D01*
X127325446Y-144746389D01*
X127314759Y-144762382D01*
X127299500Y-144839096D01*
X127299500Y-145015898D01*
X127314760Y-145092619D01*
X127325446Y-145108611D01*
X127346323Y-145175288D01*
X127327837Y-145242668D01*
X127325446Y-145246389D01*
X127314759Y-145262382D01*
X127299500Y-145339096D01*
X127299500Y-145515898D01*
X127314760Y-145592619D01*
X127325446Y-145608611D01*
X127346323Y-145675288D01*
X127327837Y-145742668D01*
X127325446Y-145746389D01*
X127314759Y-145762382D01*
X127299500Y-145839096D01*
X127299500Y-146015898D01*
X127314760Y-146092619D01*
X127325446Y-146108611D01*
X127346323Y-146175288D01*
X127327837Y-146242668D01*
X127325446Y-146246389D01*
X127314759Y-146262382D01*
X127299500Y-146339096D01*
X127299500Y-146515898D01*
X127314760Y-146592619D01*
X127325446Y-146608611D01*
X127346323Y-146675288D01*
X127327837Y-146742668D01*
X127325446Y-146746389D01*
X127314759Y-146762382D01*
X127299500Y-146839096D01*
X127299500Y-147015898D01*
X127314760Y-147092619D01*
X127325446Y-147108611D01*
X127346323Y-147175288D01*
X127327837Y-147242668D01*
X127325446Y-147246389D01*
X127314759Y-147262382D01*
X127299500Y-147339096D01*
X127299500Y-147353000D01*
X127279815Y-147420039D01*
X127227011Y-147465794D01*
X127175506Y-147477000D01*
X127161602Y-147477000D01*
X127084880Y-147492260D01*
X127068889Y-147502946D01*
X127002212Y-147523823D01*
X126934832Y-147505337D01*
X126931111Y-147502946D01*
X126915117Y-147492259D01*
X126838403Y-147477000D01*
X126661601Y-147477000D01*
X126584880Y-147492260D01*
X126568889Y-147502946D01*
X126502212Y-147523823D01*
X126434832Y-147505337D01*
X126431111Y-147502946D01*
X126415117Y-147492259D01*
X126338403Y-147477000D01*
X126161601Y-147477000D01*
X126084880Y-147492260D01*
X126068889Y-147502946D01*
X126002212Y-147523823D01*
X125934832Y-147505337D01*
X125931111Y-147502946D01*
X125915117Y-147492259D01*
X125838403Y-147477000D01*
X125661601Y-147477000D01*
X125584880Y-147492260D01*
X125568889Y-147502946D01*
X125502212Y-147523823D01*
X125434832Y-147505337D01*
X125431111Y-147502946D01*
X125415117Y-147492259D01*
X125338403Y-147477000D01*
X125161601Y-147477000D01*
X125084880Y-147492260D01*
X125068889Y-147502946D01*
X125002212Y-147523823D01*
X124934832Y-147505337D01*
X124931111Y-147502946D01*
X124915117Y-147492259D01*
X124838403Y-147477000D01*
X124661601Y-147477000D01*
X124584880Y-147492260D01*
X124568889Y-147502946D01*
X124502212Y-147523823D01*
X124434832Y-147505337D01*
X124431111Y-147502946D01*
X124415117Y-147492259D01*
X124338403Y-147477000D01*
X124161601Y-147477000D01*
X124084880Y-147492260D01*
X124068889Y-147502946D01*
X124002212Y-147523823D01*
X123934832Y-147505337D01*
X123931111Y-147502946D01*
X123915117Y-147492259D01*
X123838403Y-147477000D01*
X123661601Y-147477000D01*
X123584880Y-147492260D01*
X123568889Y-147502946D01*
X123502212Y-147523823D01*
X123434832Y-147505337D01*
X123431111Y-147502946D01*
X123415117Y-147492259D01*
X123338403Y-147477000D01*
X123161601Y-147477000D01*
X123084880Y-147492260D01*
X123068889Y-147502946D01*
X123002212Y-147523823D01*
X122934832Y-147505337D01*
X122931111Y-147502946D01*
X122915117Y-147492259D01*
X122838403Y-147477000D01*
X122838401Y-147477000D01*
X122824499Y-147477000D01*
X122757460Y-147457315D01*
X122711705Y-147404511D01*
X122700499Y-147353000D01*
X122700499Y-147339102D01*
X122700499Y-147339100D01*
X122685240Y-147262383D01*
X122685239Y-147262381D01*
X122685238Y-147262378D01*
X122674555Y-147246391D01*
X122653676Y-147179714D01*
X122672160Y-147112333D01*
X122674517Y-147108664D01*
X122685240Y-147092617D01*
X122695783Y-147039613D01*
X122728167Y-146977704D01*
X122741914Y-146965430D01*
X122838678Y-146891181D01*
X122928843Y-146773675D01*
X122985521Y-146636842D01*
X122985521Y-146636840D01*
X122996626Y-146552500D01*
X122061500Y-146552500D01*
X121994461Y-146532815D01*
X121948706Y-146480011D01*
X121937500Y-146428500D01*
X121937500Y-146426500D01*
X121957185Y-146359461D01*
X122009989Y-146313706D01*
X122061500Y-146302500D01*
X122996626Y-146302500D01*
X122985521Y-146218159D01*
X122985521Y-146218157D01*
X122928843Y-146081324D01*
X122838679Y-145963820D01*
X122741912Y-145889568D01*
X122700710Y-145833140D01*
X122695781Y-145815382D01*
X122685240Y-145762383D01*
X122685239Y-145762381D01*
X122685238Y-145762378D01*
X122674555Y-145746391D01*
X122653676Y-145679714D01*
X122672160Y-145612333D01*
X122674517Y-145608664D01*
X122685240Y-145592617D01*
X122700500Y-145515901D01*
X122700499Y-145339100D01*
X122685240Y-145262383D01*
X122685239Y-145262381D01*
X122685238Y-145262378D01*
X122674555Y-145246391D01*
X122653676Y-145179714D01*
X122672160Y-145112333D01*
X122674517Y-145108664D01*
X122685240Y-145092617D01*
X122700500Y-145015901D01*
X122700499Y-144839100D01*
X122685240Y-144762383D01*
X122685239Y-144762381D01*
X122685238Y-144762378D01*
X122674555Y-144746391D01*
X122653676Y-144679714D01*
X122672160Y-144612333D01*
X122674517Y-144608664D01*
X122685240Y-144592617D01*
X122700500Y-144515901D01*
X122700499Y-144339100D01*
X122685240Y-144262383D01*
X122685239Y-144262381D01*
X122685238Y-144262378D01*
X122674555Y-144246391D01*
X122653676Y-144179714D01*
X122672160Y-144112333D01*
X122674517Y-144108664D01*
X122685240Y-144092617D01*
X122700500Y-144015901D01*
X122700499Y-143839100D01*
X122685240Y-143762383D01*
X122685239Y-143762381D01*
X122685238Y-143762378D01*
X122674555Y-143746391D01*
X122653676Y-143679714D01*
X122672160Y-143612333D01*
X122674517Y-143608664D01*
X122685240Y-143592617D01*
X122695783Y-143539613D01*
X122728167Y-143477704D01*
X122741914Y-143465430D01*
X122838678Y-143391181D01*
X122928843Y-143273675D01*
X122985521Y-143136842D01*
X122985521Y-143136840D01*
X122998773Y-143036186D01*
X122987850Y-143012638D01*
X122997382Y-142943422D01*
X123042822Y-142890347D01*
X123109743Y-142870263D01*
X123134672Y-142872643D01*
X123161599Y-142878000D01*
X123338400Y-142877999D01*
X123415117Y-142862740D01*
X123431107Y-142852055D01*
X123497783Y-142831176D01*
X123565164Y-142849659D01*
X123568871Y-142852041D01*
X123569853Y-142852697D01*
X123584883Y-142862740D01*
X123584887Y-142862741D01*
X123637884Y-142873283D01*
X123699795Y-142905667D01*
X123712069Y-142919414D01*
X123786318Y-143016178D01*
X123903824Y-143106343D01*
X124040657Y-143163021D01*
X124040665Y-143163023D01*
X124124998Y-143174125D01*
X124125000Y-143174124D01*
X124125000Y-142239000D01*
X124144685Y-142171961D01*
X124197489Y-142126206D01*
X124249000Y-142115000D01*
X124251000Y-142115000D01*
X124318039Y-142134685D01*
G37*
%TD.AperFunction*%
%TA.AperFunction,Conductor*%
G36*
X110427663Y-145670185D02*
G01*
X110473418Y-145722989D01*
X110483982Y-145787103D01*
X110475000Y-145875013D01*
X110475000Y-146012500D01*
X112707000Y-146012500D01*
X112711780Y-146007719D01*
X112726685Y-145956961D01*
X112779489Y-145911206D01*
X112831000Y-145900000D01*
X114426000Y-145900000D01*
X114493039Y-145919685D01*
X114538794Y-145972489D01*
X114550000Y-146024000D01*
X114550000Y-146276000D01*
X114530315Y-146343039D01*
X114477511Y-146388794D01*
X114426000Y-146400000D01*
X112968000Y-146400000D01*
X112963219Y-146404780D01*
X112948315Y-146455539D01*
X112895511Y-146501294D01*
X112844000Y-146512500D01*
X110475001Y-146512500D01*
X110475001Y-146649986D01*
X110485494Y-146752697D01*
X110540641Y-146919119D01*
X110540643Y-146919124D01*
X110632684Y-147068345D01*
X110693758Y-147129419D01*
X110727243Y-147190742D01*
X110722259Y-147260434D01*
X110680387Y-147316367D01*
X110614923Y-147340784D01*
X110606077Y-147341100D01*
X110244615Y-147341100D01*
X110177576Y-147321415D01*
X110131821Y-147268611D01*
X110121877Y-147199453D01*
X110139077Y-147152003D01*
X110159353Y-147119130D01*
X110159358Y-147119119D01*
X110214505Y-146952697D01*
X110214506Y-146952690D01*
X110224999Y-146849986D01*
X110225000Y-146849973D01*
X110225000Y-146712500D01*
X108874000Y-146712500D01*
X108806961Y-146692815D01*
X108761206Y-146640011D01*
X108750000Y-146588500D01*
X108750000Y-146336500D01*
X108769685Y-146269461D01*
X108822489Y-146223706D01*
X108874000Y-146212500D01*
X110224999Y-146212500D01*
X110224999Y-146075028D01*
X110224998Y-146075013D01*
X110214505Y-145972302D01*
X110161885Y-145813504D01*
X110159483Y-145743676D01*
X110195215Y-145683634D01*
X110257735Y-145652441D01*
X110279591Y-145650500D01*
X110360624Y-145650500D01*
X110427663Y-145670185D01*
G37*
%TD.AperFunction*%
%TA.AperFunction,Conductor*%
G36*
X139849392Y-144254900D02*
G01*
X139899795Y-144303287D01*
X139909904Y-144325917D01*
X139965642Y-144494121D01*
X139965643Y-144494124D01*
X140057684Y-144643345D01*
X140181654Y-144767315D01*
X140330875Y-144859356D01*
X140330880Y-144859358D01*
X140425838Y-144890824D01*
X140483283Y-144930596D01*
X140510106Y-144995112D01*
X140497791Y-145063888D01*
X140450248Y-145115088D01*
X140444775Y-145118161D01*
X140437120Y-145122206D01*
X140437118Y-145122207D01*
X140437116Y-145122208D01*
X140437115Y-145122209D01*
X140327850Y-145202850D01*
X140247207Y-145312117D01*
X140224842Y-145376033D01*
X140184120Y-145432808D01*
X140119167Y-145458555D01*
X140050605Y-145445098D01*
X140000203Y-145396711D01*
X139990095Y-145374081D01*
X139934358Y-145205880D01*
X139934356Y-145205875D01*
X139842315Y-145056654D01*
X139718345Y-144932684D01*
X139569124Y-144840643D01*
X139569119Y-144840641D01*
X139474161Y-144809175D01*
X139416716Y-144769402D01*
X139389893Y-144704886D01*
X139402208Y-144636110D01*
X139449751Y-144584911D01*
X139455233Y-144581834D01*
X139462871Y-144577796D01*
X139462882Y-144577793D01*
X139572150Y-144497150D01*
X139652793Y-144387882D01*
X139675158Y-144323964D01*
X139715877Y-144267192D01*
X139780830Y-144241444D01*
X139849392Y-144254900D01*
G37*
%TD.AperFunction*%
%TA.AperFunction,Conductor*%
G36*
X113212500Y-141874999D02*
G01*
X113349972Y-141874999D01*
X113349986Y-141874998D01*
X113452697Y-141864505D01*
X113619119Y-141809358D01*
X113619124Y-141809356D01*
X113768345Y-141717315D01*
X113844342Y-141641319D01*
X113905665Y-141607834D01*
X113932023Y-141605000D01*
X114377609Y-141605000D01*
X114444648Y-141624685D01*
X114490403Y-141677489D01*
X114500347Y-141746647D01*
X114471322Y-141810203D01*
X114412544Y-141847977D01*
X114394411Y-141851455D01*
X114390298Y-141852353D01*
X114262119Y-141897206D01*
X114262117Y-141897207D01*
X114152850Y-141977850D01*
X114072207Y-142087117D01*
X114072206Y-142087119D01*
X114027353Y-142215298D01*
X114027353Y-142215300D01*
X114024500Y-142245730D01*
X114024500Y-143754269D01*
X114027353Y-143784697D01*
X114035332Y-143807501D01*
X114038892Y-143877280D01*
X114004161Y-143937907D01*
X113963093Y-143964076D01*
X113960867Y-143964938D01*
X113938154Y-143979000D01*
X113922974Y-143987001D01*
X113898537Y-143997792D01*
X113893636Y-144002693D01*
X113871242Y-144020431D01*
X113865348Y-144024080D01*
X113849249Y-144045398D01*
X113837982Y-144058346D01*
X113819847Y-144076480D01*
X113758527Y-144109965D01*
X113732166Y-144112800D01*
X113636036Y-144112800D01*
X113497949Y-144153345D01*
X113376873Y-144231156D01*
X113282623Y-144339926D01*
X113282622Y-144339928D01*
X113222834Y-144470843D01*
X113202353Y-144613300D01*
X113202353Y-144613304D01*
X113204619Y-144629069D01*
X113194674Y-144698227D01*
X113148917Y-144751030D01*
X113125215Y-144762894D01*
X113007912Y-144806646D01*
X113007906Y-144806649D01*
X112957563Y-144844336D01*
X112892099Y-144868753D01*
X112823826Y-144853901D01*
X112774421Y-144804496D01*
X112759569Y-144736223D01*
X112762486Y-144720059D01*
X112763565Y-144712557D01*
X112784047Y-144570100D01*
X112763565Y-144427643D01*
X112703777Y-144296727D01*
X112609528Y-144187957D01*
X112488453Y-144110147D01*
X112488451Y-144110146D01*
X112488449Y-144110145D01*
X112488450Y-144110145D01*
X112350363Y-144069600D01*
X112350361Y-144069600D01*
X112206439Y-144069600D01*
X112124715Y-144093595D01*
X112054845Y-144093594D01*
X111996068Y-144055818D01*
X111972741Y-144015572D01*
X111950641Y-143952415D01*
X111927793Y-143887118D01*
X111847150Y-143777850D01*
X111737882Y-143697207D01*
X111737880Y-143697206D01*
X111673967Y-143674842D01*
X111617191Y-143634120D01*
X111591444Y-143569168D01*
X111604901Y-143500606D01*
X111653288Y-143450203D01*
X111675918Y-143440095D01*
X111844119Y-143384358D01*
X111844124Y-143384356D01*
X111993345Y-143292315D01*
X112117315Y-143168345D01*
X112209356Y-143019124D01*
X112209358Y-143019119D01*
X112264505Y-142852697D01*
X112264506Y-142852690D01*
X112274999Y-142749986D01*
X112275000Y-142749973D01*
X112275000Y-142612500D01*
X108874000Y-142612500D01*
X108806961Y-142592815D01*
X108761206Y-142540011D01*
X108750000Y-142488500D01*
X108750000Y-142236500D01*
X108769685Y-142169461D01*
X108822489Y-142123706D01*
X108874000Y-142112500D01*
X112274999Y-142112500D01*
X112274999Y-141971866D01*
X112276369Y-141971866D01*
X112291351Y-141909189D01*
X112341755Y-141860803D01*
X112410317Y-141847350D01*
X112437952Y-141853122D01*
X112472300Y-141864504D01*
X112472309Y-141864506D01*
X112575019Y-141874999D01*
X112712499Y-141874999D01*
X112712500Y-141874998D01*
X112712500Y-141605000D01*
X113212500Y-141605000D01*
X113212500Y-141874999D01*
G37*
%TD.AperFunction*%
%TA.AperFunction,Conductor*%
G36*
X136135016Y-141624685D02*
G01*
X136155658Y-141641319D01*
X136231654Y-141717315D01*
X136380875Y-141809356D01*
X136380880Y-141809358D01*
X136547302Y-141864505D01*
X136547309Y-141864506D01*
X136650019Y-141874999D01*
X136787499Y-141874999D01*
X136787500Y-141874998D01*
X136787500Y-141605000D01*
X137287500Y-141605000D01*
X137287500Y-141874999D01*
X137424972Y-141874999D01*
X137424986Y-141874998D01*
X137527697Y-141864505D01*
X137694119Y-141809358D01*
X137694124Y-141809356D01*
X137843345Y-141717315D01*
X137919342Y-141641319D01*
X137980665Y-141607834D01*
X138007023Y-141605000D01*
X138368932Y-141605000D01*
X138435971Y-141624685D01*
X138481726Y-141677489D01*
X138491670Y-141746647D01*
X138462645Y-141810203D01*
X138435972Y-141833315D01*
X138357174Y-141883955D01*
X138357172Y-141883956D01*
X138357172Y-141883957D01*
X138345692Y-141897206D01*
X138262923Y-141992726D01*
X138262922Y-141992728D01*
X138203134Y-142123643D01*
X138182653Y-142266100D01*
X138182653Y-142266101D01*
X138183961Y-142275203D01*
X138174013Y-142344361D01*
X138148903Y-142380524D01*
X136593048Y-143936381D01*
X136531725Y-143969866D01*
X136505367Y-143972700D01*
X136081624Y-143972700D01*
X136014585Y-143953015D01*
X135968830Y-143900211D01*
X135958886Y-143831053D01*
X135964582Y-143807746D01*
X135972646Y-143784698D01*
X135975500Y-143754269D01*
X135975500Y-142245730D01*
X135972646Y-142215300D01*
X135972646Y-142215298D01*
X135937549Y-142115000D01*
X135927793Y-142087118D01*
X135847150Y-141977850D01*
X135737882Y-141897207D01*
X135737880Y-141897206D01*
X135609701Y-141852353D01*
X135602330Y-141850744D01*
X135602664Y-141849211D01*
X135545905Y-141826600D01*
X135505280Y-141769755D01*
X135501837Y-141699970D01*
X135536669Y-141639402D01*
X135598718Y-141607281D01*
X135622391Y-141605000D01*
X136067977Y-141605000D01*
X136135016Y-141624685D01*
G37*
%TD.AperFunction*%
%TA.AperFunction,Conductor*%
G36*
X129907706Y-141624685D02*
G01*
X129928348Y-141641319D01*
X130988181Y-142701152D01*
X131021666Y-142762475D01*
X131024500Y-142788833D01*
X131024500Y-143499667D01*
X131004815Y-143566706D01*
X130952011Y-143612461D01*
X130882853Y-143622405D01*
X130819297Y-143593380D01*
X130812819Y-143587348D01*
X129886062Y-142660591D01*
X129874787Y-142647635D01*
X129870055Y-142641368D01*
X129835783Y-142610125D01*
X129831660Y-142606189D01*
X129818897Y-142593426D01*
X129818896Y-142593425D01*
X129818894Y-142593423D01*
X129815177Y-142590337D01*
X129806779Y-142583684D01*
X129787033Y-142565684D01*
X129780570Y-142563180D01*
X129755292Y-142549856D01*
X129749581Y-142545944D01*
X129749578Y-142545943D01*
X129749579Y-142545943D01*
X129723583Y-142539828D01*
X129707189Y-142534751D01*
X129682274Y-142525100D01*
X129682273Y-142525100D01*
X129675349Y-142525100D01*
X129646958Y-142521806D01*
X129640219Y-142520221D01*
X129613766Y-142523911D01*
X129596636Y-142525100D01*
X128106538Y-142525100D01*
X128089410Y-142523911D01*
X128081638Y-142522827D01*
X128081635Y-142522827D01*
X128041372Y-142524688D01*
X128035320Y-142524968D01*
X128029595Y-142525100D01*
X128011556Y-142525100D01*
X128011554Y-142525100D01*
X128010435Y-142525204D01*
X128009904Y-142525100D01*
X128005824Y-142525100D01*
X128005824Y-142524301D01*
X127941866Y-142511785D01*
X127891437Y-142463426D01*
X127875000Y-142401732D01*
X127875000Y-142365000D01*
X127375000Y-142365000D01*
X127375000Y-142634612D01*
X127355315Y-142701651D01*
X127354100Y-142703506D01*
X127352100Y-142706499D01*
X127298486Y-142751302D01*
X127229161Y-142760008D01*
X127166135Y-142729851D01*
X127129417Y-142670407D01*
X127125000Y-142637605D01*
X127125000Y-142365000D01*
X127111818Y-142351818D01*
X127078333Y-142290495D01*
X127075499Y-142264141D01*
X127075499Y-142238998D01*
X127095184Y-142171961D01*
X127147988Y-142126206D01*
X127199499Y-142115000D01*
X127875000Y-142115000D01*
X127875000Y-141828136D01*
X127874999Y-141828122D01*
X127864080Y-141745186D01*
X127874845Y-141676150D01*
X127921225Y-141623894D01*
X127987019Y-141605000D01*
X129840667Y-141605000D01*
X129907706Y-141624685D01*
G37*
%TD.AperFunction*%
%TA.AperFunction,Conductor*%
G36*
X140835048Y-141624685D02*
G01*
X140870399Y-141665482D01*
X140905751Y-141624685D01*
X140972790Y-141605000D01*
X142116000Y-141605000D01*
X142183039Y-141624685D01*
X142228794Y-141677489D01*
X142240000Y-141729000D01*
X142240000Y-141798500D01*
X142220315Y-141865539D01*
X142167511Y-141911294D01*
X142116000Y-141922500D01*
X141167672Y-141922500D01*
X141100633Y-141902816D01*
X141080453Y-141889847D01*
X141080451Y-141889846D01*
X141080449Y-141889845D01*
X141080450Y-141889845D01*
X140937857Y-141847977D01*
X140879078Y-141810203D01*
X140870399Y-141791200D01*
X140861722Y-141810203D01*
X140802944Y-141847977D01*
X140802943Y-141847977D01*
X140660349Y-141889845D01*
X140539273Y-141967656D01*
X140445023Y-142076426D01*
X140445022Y-142076428D01*
X140385234Y-142207343D01*
X140364753Y-142349800D01*
X140364753Y-142349802D01*
X140375623Y-142425412D01*
X140365679Y-142494570D01*
X140319923Y-142547373D01*
X140317982Y-142548595D01*
X140181659Y-142632680D01*
X140181655Y-142632683D01*
X140057684Y-142756654D01*
X139965643Y-142905875D01*
X139965641Y-142905880D01*
X139909905Y-143074082D01*
X139870132Y-143131527D01*
X139805617Y-143158350D01*
X139736841Y-143146035D01*
X139685641Y-143098492D01*
X139675158Y-143076033D01*
X139655244Y-143019124D01*
X139652793Y-143012118D01*
X139572150Y-142902850D01*
X139462882Y-142822207D01*
X139462880Y-142822206D01*
X139334701Y-142777353D01*
X139325418Y-142776483D01*
X139260510Y-142750623D01*
X139219887Y-142693776D01*
X139213000Y-142653025D01*
X139213000Y-142557437D01*
X139214189Y-142540306D01*
X139215271Y-142532540D01*
X139215273Y-142532536D01*
X139213132Y-142486221D01*
X139213000Y-142480496D01*
X139213000Y-142462459D01*
X139212546Y-142457566D01*
X139211317Y-142446980D01*
X139211178Y-142443967D01*
X139210085Y-142420309D01*
X139207288Y-142413976D01*
X139198832Y-142386670D01*
X139197561Y-142379867D01*
X139197559Y-142379864D01*
X139197559Y-142379862D01*
X139194729Y-142372555D01*
X139187618Y-142310115D01*
X139193947Y-142266100D01*
X139173465Y-142123643D01*
X139113677Y-141992727D01*
X139019428Y-141883957D01*
X139019425Y-141883955D01*
X139019426Y-141883955D01*
X138940628Y-141833315D01*
X138894874Y-141780511D01*
X138884930Y-141711353D01*
X138913955Y-141647797D01*
X138972733Y-141610023D01*
X139007668Y-141605000D01*
X140768009Y-141605000D01*
X140835048Y-141624685D01*
G37*
%TD.AperFunction*%
%TA.AperFunction,Conductor*%
G36*
X122524152Y-142822185D02*
G01*
X122525972Y-142823377D01*
X122529000Y-142825400D01*
X122573803Y-142879014D01*
X122582509Y-142948339D01*
X122552352Y-143011365D01*
X122492908Y-143048083D01*
X122460106Y-143052500D01*
X122061500Y-143052500D01*
X121994461Y-143032815D01*
X121948706Y-142980011D01*
X121937500Y-142928500D01*
X121937500Y-142926500D01*
X121957185Y-142859461D01*
X122009989Y-142813706D01*
X122061500Y-142802500D01*
X122457113Y-142802500D01*
X122524152Y-142822185D01*
G37*
%TD.AperFunction*%
%TA.AperFunction,Conductor*%
G36*
X142183039Y-142543185D02*
G01*
X142228794Y-142595989D01*
X142240000Y-142647500D01*
X142240000Y-142842570D01*
X142220315Y-142909609D01*
X142167511Y-142955364D01*
X142098353Y-142965308D01*
X142034797Y-142936283D01*
X142010461Y-142907667D01*
X141917315Y-142756654D01*
X141895842Y-142735181D01*
X141862357Y-142673858D01*
X141867341Y-142604166D01*
X141909213Y-142548233D01*
X141974677Y-142523816D01*
X141983523Y-142523500D01*
X142116000Y-142523500D01*
X142183039Y-142543185D01*
G37*
%TD.AperFunction*%
%TD*%
M02*
