%TF.GenerationSoftware,KiCad,Pcbnew,7.0.11+dfsg-1build4*%
%TF.CreationDate,2026-01-29T22:43:38-05:00*%
%TF.ProjectId,,58585858-5858-4585-9858-585858585858,rev?*%
%TF.SameCoordinates,Original*%
%TF.FileFunction,Copper,L2,Bot*%
%TF.FilePolarity,Positive*%
%FSLAX46Y46*%
G04 Gerber Fmt 4.6, Leading zero omitted, Abs format (unit mm)*
G04 Created by KiCad (PCBNEW 7.0.11+dfsg-1build4) date 2026-01-29 22:43:38*
%MOMM*%
%LPD*%
G01*
G04 APERTURE LIST*
G04 Aperture macros list*
%AMRoundRect*
0 Rectangle with rounded corners*
0 $1 Rounding radius*
0 $2 $3 $4 $5 $6 $7 $8 $9 X,Y pos of 4 corners*
0 Add a 4 corners polygon primitive as box body*
4,1,4,$2,$3,$4,$5,$6,$7,$8,$9,$2,$3,0*
0 Add four circle primitives for the rounded corners*
1,1,$1+$1,$2,$3*
1,1,$1+$1,$4,$5*
1,1,$1+$1,$6,$7*
1,1,$1+$1,$8,$9*
0 Add four rect primitives between the rounded corners*
20,1,$1+$1,$2,$3,$4,$5,0*
20,1,$1+$1,$4,$5,$6,$7,0*
20,1,$1+$1,$6,$7,$8,$9,0*
20,1,$1+$1,$8,$9,$2,$3,0*%
G04 Aperture macros list end*
%TA.AperFunction,EtchedComponent*%
%ADD10C,0.500000*%
%TD*%
%TA.AperFunction,ComponentPad*%
%ADD11C,0.600000*%
%TD*%
%TA.AperFunction,ComponentPad*%
%ADD12R,1.700000X1.700000*%
%TD*%
%TA.AperFunction,ComponentPad*%
%ADD13O,1.700000X1.700000*%
%TD*%
%TA.AperFunction,WasherPad*%
%ADD14C,1.600000*%
%TD*%
%TA.AperFunction,ComponentPad*%
%ADD15RoundRect,0.340500X0.659500X-0.409500X0.659500X0.409500X-0.659500X0.409500X-0.659500X-0.409500X0*%
%TD*%
%TA.AperFunction,ComponentPad*%
%ADD16O,2.000000X1.500000*%
%TD*%
%TA.AperFunction,ViaPad*%
%ADD17C,0.600000*%
%TD*%
%TA.AperFunction,Conductor*%
%ADD18C,0.200000*%
%TD*%
G04 APERTURE END LIST*
D10*
%TO.C,L_pcb1*%
X155950000Y-131110000D02*
X155950000Y-134110000D01*
X160450000Y-111610000D02*
X155950000Y-106610000D01*
X105950000Y-131110000D02*
X105950000Y-134110000D01*
X110450000Y-111610000D02*
X105950000Y-106610000D01*
X155950000Y-81110000D02*
X155950000Y-84110000D01*
X160450000Y-61610000D02*
X155950000Y-56610000D01*
X105950000Y-81110000D02*
X105950000Y-84110000D01*
X110450000Y-61610000D02*
X105950000Y-56610000D01*
%TD*%
D11*
%TO.P,L_pcb1,B*%
%TO.N,N/C*%
X155950000Y-106610000D03*
X160450000Y-111610000D03*
%TO.P,L_pcb1,G*%
X155950000Y-131110000D03*
X155950000Y-134110000D03*
%TD*%
D12*
%TO.P,J1,1,Pin_1*%
%TO.N,Net-(J1-Pin_1)*%
X178850000Y-106360000D03*
D13*
%TO.P,J1,2,Pin_2*%
%TO.N,Net-(J1-Pin_2)*%
X178850000Y-108900000D03*
%TO.P,J1,3,Pin_3*%
%TO.N,VCC*%
X178850000Y-111440000D03*
%TO.P,J1,4,Pin_4*%
%TO.N,GND*%
X178850000Y-113980000D03*
%TO.P,J1,5,Pin_5*%
%TO.N,/SENS_DET*%
X178850000Y-116520000D03*
%TO.P,J1,6,Pin_6*%
%TO.N,/SENS_LED*%
X178850000Y-119060000D03*
%TO.P,J1,7,Pin_7*%
%TO.N,/RSTPD_N*%
X178850000Y-121600000D03*
%TO.P,J1,8,Pin_8*%
%TO.N,/LED_KR*%
X178850000Y-124140000D03*
%TO.P,J1,9,Pin_9*%
%TO.N,/LED_KG*%
X178850000Y-126680000D03*
%TO.P,J1,10,Pin_10*%
%TO.N,/LED_KB*%
X178850000Y-129220000D03*
%TD*%
D14*
%TO.P,U1,*%
%TO.N,*%
X160995000Y-113130000D03*
D15*
%TO.P,U1,1*%
%TO.N,Net-(R11-Pad2)*%
X151220000Y-119060000D03*
D16*
%TO.P,U1,2*%
%TO.N,GND*%
X151220000Y-121600000D03*
%TO.P,U1,3*%
%TO.N,/SENS_DET*%
X160670000Y-121600000D03*
%TO.P,U1,4*%
%TO.N,GND*%
X160670000Y-119060000D03*
%TD*%
D11*
%TO.P,L_pcb1,B*%
%TO.N,N/C*%
X105950000Y-106610000D03*
X110450000Y-111610000D03*
%TO.P,L_pcb1,G*%
X105950000Y-131110000D03*
X105950000Y-134110000D03*
%TD*%
D12*
%TO.P,J1,1,Pin_1*%
%TO.N,Net-(J1-Pin_1)*%
X128850000Y-106360000D03*
D13*
%TO.P,J1,2,Pin_2*%
%TO.N,Net-(J1-Pin_2)*%
X128850000Y-108900000D03*
%TO.P,J1,3,Pin_3*%
%TO.N,VCC*%
X128850000Y-111440000D03*
%TO.P,J1,4,Pin_4*%
%TO.N,GND*%
X128850000Y-113980000D03*
%TO.P,J1,5,Pin_5*%
%TO.N,/SENS_DET*%
X128850000Y-116520000D03*
%TO.P,J1,6,Pin_6*%
%TO.N,/SENS_LED*%
X128850000Y-119060000D03*
%TO.P,J1,7,Pin_7*%
%TO.N,/RSTPD_N*%
X128850000Y-121600000D03*
%TO.P,J1,8,Pin_8*%
%TO.N,/LED_KR*%
X128850000Y-124140000D03*
%TO.P,J1,9,Pin_9*%
%TO.N,/LED_KG*%
X128850000Y-126680000D03*
%TO.P,J1,10,Pin_10*%
%TO.N,/LED_KB*%
X128850000Y-129220000D03*
%TD*%
D14*
%TO.P,U1,*%
%TO.N,*%
X110995000Y-113130000D03*
D15*
%TO.P,U1,1*%
%TO.N,Net-(R11-Pad2)*%
X101220000Y-119060000D03*
D16*
%TO.P,U1,2*%
%TO.N,GND*%
X101220000Y-121600000D03*
%TO.P,U1,3*%
%TO.N,/SENS_DET*%
X110670000Y-121600000D03*
%TO.P,U1,4*%
%TO.N,GND*%
X110670000Y-119060000D03*
%TD*%
D11*
%TO.P,L_pcb1,B*%
%TO.N,N/C*%
X155950000Y-56610000D03*
X160450000Y-61610000D03*
%TO.P,L_pcb1,G*%
X155950000Y-81110000D03*
X155950000Y-84110000D03*
%TD*%
D12*
%TO.P,J1,1,Pin_1*%
%TO.N,Net-(J1-Pin_1)*%
X178850000Y-56360000D03*
D13*
%TO.P,J1,2,Pin_2*%
%TO.N,Net-(J1-Pin_2)*%
X178850000Y-58900000D03*
%TO.P,J1,3,Pin_3*%
%TO.N,VCC*%
X178850000Y-61440000D03*
%TO.P,J1,4,Pin_4*%
%TO.N,GND*%
X178850000Y-63980000D03*
%TO.P,J1,5,Pin_5*%
%TO.N,/SENS_DET*%
X178850000Y-66520000D03*
%TO.P,J1,6,Pin_6*%
%TO.N,/SENS_LED*%
X178850000Y-69060000D03*
%TO.P,J1,7,Pin_7*%
%TO.N,/RSTPD_N*%
X178850000Y-71600000D03*
%TO.P,J1,8,Pin_8*%
%TO.N,/LED_KR*%
X178850000Y-74140000D03*
%TO.P,J1,9,Pin_9*%
%TO.N,/LED_KG*%
X178850000Y-76680000D03*
%TO.P,J1,10,Pin_10*%
%TO.N,/LED_KB*%
X178850000Y-79220000D03*
%TD*%
D14*
%TO.P,U1,*%
%TO.N,*%
X160995000Y-63130000D03*
D15*
%TO.P,U1,1*%
%TO.N,Net-(R11-Pad2)*%
X151220000Y-69060000D03*
D16*
%TO.P,U1,2*%
%TO.N,GND*%
X151220000Y-71600000D03*
%TO.P,U1,3*%
%TO.N,/SENS_DET*%
X160670000Y-71600000D03*
%TO.P,U1,4*%
%TO.N,GND*%
X160670000Y-69060000D03*
%TD*%
D11*
%TO.P,L_pcb1,B*%
%TO.N,N/C*%
X105950000Y-56610000D03*
X110450000Y-61610000D03*
%TO.P,L_pcb1,G*%
X105950000Y-81110000D03*
X105950000Y-84110000D03*
%TD*%
D12*
%TO.P,J1,1,Pin_1*%
%TO.N,Net-(J1-Pin_1)*%
X128850000Y-56360000D03*
D13*
%TO.P,J1,2,Pin_2*%
%TO.N,Net-(J1-Pin_2)*%
X128850000Y-58900000D03*
%TO.P,J1,3,Pin_3*%
%TO.N,VCC*%
X128850000Y-61440000D03*
%TO.P,J1,4,Pin_4*%
%TO.N,GND*%
X128850000Y-63980000D03*
%TO.P,J1,5,Pin_5*%
%TO.N,/SENS_DET*%
X128850000Y-66520000D03*
%TO.P,J1,6,Pin_6*%
%TO.N,/SENS_LED*%
X128850000Y-69060000D03*
%TO.P,J1,7,Pin_7*%
%TO.N,/RSTPD_N*%
X128850000Y-71600000D03*
%TO.P,J1,8,Pin_8*%
%TO.N,/LED_KR*%
X128850000Y-74140000D03*
%TO.P,J1,9,Pin_9*%
%TO.N,/LED_KG*%
X128850000Y-76680000D03*
%TO.P,J1,10,Pin_10*%
%TO.N,/LED_KB*%
X128850000Y-79220000D03*
%TD*%
D14*
%TO.P,U1,*%
%TO.N,*%
X110995000Y-63130000D03*
D15*
%TO.P,U1,1*%
%TO.N,Net-(R11-Pad2)*%
X101220000Y-69060000D03*
D16*
%TO.P,U1,2*%
%TO.N,GND*%
X101220000Y-71600000D03*
%TO.P,U1,3*%
%TO.N,/SENS_DET*%
X110670000Y-71600000D03*
%TO.P,U1,4*%
%TO.N,GND*%
X110670000Y-69060000D03*
%TD*%
D17*
%TO.N,/SENS_LED*%
X152870000Y-126170000D03*
%TO.N,Net-(U2-RX)*%
X151600000Y-138235000D03*
X160033386Y-140775000D03*
%TO.N,+3.3V*%
X173303800Y-139020900D03*
X177015000Y-121400800D03*
X173668500Y-131927000D03*
X155570265Y-136169735D03*
X140703300Y-134346200D03*
%TO.N,Net-(U2-I0)*%
X151630500Y-140274144D03*
X135090000Y-131885000D03*
%TO.N,GND*%
X132550000Y-135060000D03*
%TO.N,Net-(R11-Pad2)*%
X150330000Y-123630000D03*
%TO.N,Net-(C3-Pad1)*%
X147869765Y-138702635D03*
X161778700Y-142633500D03*
%TO.N,GND*%
X139535000Y-136330000D03*
X156674735Y-136324735D03*
X171920000Y-117280000D03*
X160654100Y-137365300D03*
X167225000Y-137795743D03*
%TO.N,+3.3V*%
X140805000Y-144560000D03*
%TO.N,Net-(D1-BK)*%
X173825000Y-102641500D03*
X179007600Y-131927000D03*
%TO.N,Net-(D1-GK)*%
X172520000Y-125535000D03*
X173825000Y-122995000D03*
X173190000Y-114740000D03*
X170921000Y-96160000D03*
%TO.N,+3.3V*%
X159852600Y-138787500D03*
%TO.N,VCC*%
X176365000Y-112200000D03*
X173190000Y-112200000D03*
X163030000Y-124900000D03*
X169638300Y-137626100D03*
X172249700Y-135014700D03*
X175730000Y-121090000D03*
%TO.N,+3.3V*%
X171920000Y-144560000D03*
%TO.N,/SENS_DET*%
X159220000Y-123630000D03*
%TO.N,+3.3V*%
X154775000Y-144560000D03*
X173897265Y-120527265D03*
%TO.N,Net-(U2-I1)*%
X136475200Y-132088300D03*
X151600000Y-142680000D03*
%TO.N,Net-(U2-OSCIN)*%
X143345000Y-143315000D03*
X144615000Y-139973300D03*
%TO.N,Net-(U2-VMID)*%
X162886800Y-140251300D03*
X150798900Y-138235000D03*
%TO.N,Net-(Q1-S)*%
X179042800Y-135065200D03*
X176744300Y-106270900D03*
X160002965Y-143473965D03*
%TO.N,/RSTPD_N*%
X161134700Y-139613200D03*
X171820400Y-137709800D03*
%TO.N,Net-(Q2-S)*%
X173190000Y-142045000D03*
X174129000Y-138628400D03*
X160850000Y-143924400D03*
X176270400Y-122442200D03*
X174928300Y-135065200D03*
%TO.N,/SENS_LED*%
X102870000Y-126170000D03*
%TO.N,Net-(U2-RX)*%
X101600000Y-138235000D03*
X110033386Y-140775000D03*
%TO.N,+3.3V*%
X123303800Y-139020900D03*
X127015000Y-121400800D03*
X123668500Y-131927000D03*
X105570265Y-136169735D03*
X90703300Y-134346200D03*
%TO.N,Net-(U2-I0)*%
X101630500Y-140274144D03*
X85090000Y-131885000D03*
%TO.N,GND*%
X82550000Y-135060000D03*
%TO.N,Net-(R11-Pad2)*%
X100330000Y-123630000D03*
%TO.N,Net-(C3-Pad1)*%
X97869765Y-138702635D03*
X111778700Y-142633500D03*
%TO.N,GND*%
X89535000Y-136330000D03*
X106674735Y-136324735D03*
X121920000Y-117280000D03*
X110654100Y-137365300D03*
X117225000Y-137795743D03*
%TO.N,+3.3V*%
X90805000Y-144560000D03*
%TO.N,Net-(D1-BK)*%
X123825000Y-102641500D03*
X129007600Y-131927000D03*
%TO.N,Net-(D1-GK)*%
X122520000Y-125535000D03*
X123825000Y-122995000D03*
X123190000Y-114740000D03*
X120921000Y-96160000D03*
%TO.N,+3.3V*%
X109852600Y-138787500D03*
%TO.N,VCC*%
X126365000Y-112200000D03*
X123190000Y-112200000D03*
X113030000Y-124900000D03*
X119638300Y-137626100D03*
X122249700Y-135014700D03*
X125730000Y-121090000D03*
%TO.N,+3.3V*%
X121920000Y-144560000D03*
%TO.N,/SENS_DET*%
X109220000Y-123630000D03*
%TO.N,+3.3V*%
X104775000Y-144560000D03*
X123897265Y-120527265D03*
%TO.N,Net-(U2-I1)*%
X86475200Y-132088300D03*
X101600000Y-142680000D03*
%TO.N,Net-(U2-OSCIN)*%
X93345000Y-143315000D03*
X94615000Y-139973300D03*
%TO.N,Net-(U2-VMID)*%
X112886800Y-140251300D03*
X100798900Y-138235000D03*
%TO.N,Net-(Q1-S)*%
X129042800Y-135065200D03*
X126744300Y-106270900D03*
X110002965Y-143473965D03*
%TO.N,/RSTPD_N*%
X111134700Y-139613200D03*
X121820400Y-137709800D03*
%TO.N,Net-(Q2-S)*%
X123190000Y-142045000D03*
X124129000Y-138628400D03*
X110850000Y-143924400D03*
X126270400Y-122442200D03*
X124928300Y-135065200D03*
%TO.N,/SENS_LED*%
X152870000Y-76170000D03*
%TO.N,Net-(U2-RX)*%
X151600000Y-88235000D03*
X160033386Y-90775000D03*
%TO.N,+3.3V*%
X173303800Y-89020900D03*
X177015000Y-71400800D03*
X173668500Y-81927000D03*
X155570265Y-86169735D03*
X140703300Y-84346200D03*
%TO.N,Net-(U2-I0)*%
X151630500Y-90274144D03*
X135090000Y-81885000D03*
%TO.N,GND*%
X132550000Y-85060000D03*
%TO.N,Net-(R11-Pad2)*%
X150330000Y-73630000D03*
%TO.N,Net-(C3-Pad1)*%
X147869765Y-88702635D03*
X161778700Y-92633500D03*
%TO.N,GND*%
X139535000Y-86330000D03*
X156674735Y-86324735D03*
X171920000Y-67280000D03*
X160654100Y-87365300D03*
X167225000Y-87795743D03*
%TO.N,+3.3V*%
X140805000Y-94560000D03*
%TO.N,Net-(D1-BK)*%
X173825000Y-52641500D03*
X179007600Y-81927000D03*
%TO.N,Net-(D1-GK)*%
X172520000Y-75535000D03*
X173825000Y-72995000D03*
X173190000Y-64740000D03*
X170921000Y-46160000D03*
%TO.N,+3.3V*%
X159852600Y-88787500D03*
%TO.N,VCC*%
X176365000Y-62200000D03*
X173190000Y-62200000D03*
X163030000Y-74900000D03*
X169638300Y-87626100D03*
X172249700Y-85014700D03*
X175730000Y-71090000D03*
%TO.N,+3.3V*%
X171920000Y-94560000D03*
%TO.N,/SENS_DET*%
X159220000Y-73630000D03*
%TO.N,+3.3V*%
X154775000Y-94560000D03*
X173897265Y-70527265D03*
%TO.N,Net-(U2-I1)*%
X136475200Y-82088300D03*
X151600000Y-92680000D03*
%TO.N,Net-(U2-OSCIN)*%
X143345000Y-93315000D03*
X144615000Y-89973300D03*
%TO.N,Net-(U2-VMID)*%
X162886800Y-90251300D03*
X150798900Y-88235000D03*
%TO.N,Net-(Q1-S)*%
X179042800Y-85065200D03*
X176744300Y-56270900D03*
X160002965Y-93473965D03*
%TO.N,/RSTPD_N*%
X161134700Y-89613200D03*
X171820400Y-87709800D03*
%TO.N,Net-(Q2-S)*%
X173190000Y-92045000D03*
X174129000Y-88628400D03*
X160850000Y-93924400D03*
X176270400Y-72442200D03*
X174928300Y-85065200D03*
%TO.N,Net-(R11-Pad2)*%
X100330000Y-73630000D03*
%TO.N,/SENS_LED*%
X102870000Y-76170000D03*
%TO.N,+3.3V*%
X104775000Y-94560000D03*
X109852600Y-88787500D03*
X121920000Y-94560000D03*
X90805000Y-94560000D03*
X123897265Y-70527265D03*
X90703300Y-84346200D03*
X105570265Y-86169735D03*
X123668500Y-81927000D03*
X127015000Y-71400800D03*
X123303800Y-89020900D03*
%TO.N,VCC*%
X125730000Y-71090000D03*
X122249700Y-85014700D03*
X119638300Y-87626100D03*
X113030000Y-74900000D03*
X123190000Y-62200000D03*
X126365000Y-62200000D03*
%TO.N,Net-(U2-OSCIN)*%
X94615000Y-89973300D03*
X93345000Y-93315000D03*
%TO.N,Net-(Q1-S)*%
X110002965Y-93473965D03*
X126744300Y-56270900D03*
X129042800Y-85065200D03*
%TO.N,/SENS_DET*%
X109220000Y-73630000D03*
%TO.N,Net-(Q2-S)*%
X124928300Y-85065200D03*
X126270400Y-72442200D03*
X110850000Y-93924400D03*
X124129000Y-88628400D03*
X123190000Y-92045000D03*
%TO.N,/RSTPD_N*%
X121820400Y-87709800D03*
X111134700Y-89613200D03*
%TO.N,Net-(U2-I1)*%
X101600000Y-92680000D03*
X86475200Y-82088300D03*
%TO.N,Net-(U2-I0)*%
X85090000Y-81885000D03*
X101630500Y-90274144D03*
%TO.N,GND*%
X82550000Y-85060000D03*
X117225000Y-87795743D03*
X110654100Y-87365300D03*
X121920000Y-67280000D03*
X106674735Y-86324735D03*
X89535000Y-86330000D03*
%TO.N,Net-(C3-Pad1)*%
X111778700Y-92633500D03*
X97869765Y-88702635D03*
%TO.N,Net-(U2-VMID)*%
X100798900Y-88235000D03*
X112886800Y-90251300D03*
%TO.N,Net-(U2-RX)*%
X110033386Y-90775000D03*
X101600000Y-88235000D03*
%TO.N,Net-(D1-GK)*%
X120921000Y-46160000D03*
X123190000Y-64740000D03*
X123825000Y-72995000D03*
X122520000Y-75535000D03*
%TO.N,Net-(D1-BK)*%
X129007600Y-81927000D03*
X123825000Y-52641500D03*
%TD*%
D18*
%TO.N,Net-(U2-RX)*%
X152870000Y-138235000D02*
X154775000Y-140140000D01*
X159398386Y-140140000D02*
X160033386Y-140775000D01*
X154775000Y-140140000D02*
X159398386Y-140140000D01*
X151600000Y-138235000D02*
X152870000Y-138235000D01*
%TO.N,Net-(U2-VMID)*%
X150798900Y-138235000D02*
X150798900Y-138282429D01*
X161093100Y-142045000D02*
X162886800Y-140251300D01*
%TO.N,+3.3V*%
X176104200Y-120490000D02*
X177015000Y-121400800D01*
X173897265Y-120527265D02*
X173934530Y-120490000D01*
X140703300Y-134773700D02*
X140703300Y-134346200D01*
X141969800Y-136040200D02*
X140703300Y-134773700D01*
X154575000Y-144760000D02*
X154775000Y-144560000D01*
X155440730Y-136040200D02*
X141969800Y-136040200D01*
%TO.N,Net-(Q1-S)*%
X180419000Y-133689000D02*
X179042800Y-135065200D01*
X179799700Y-105170500D02*
X180419000Y-105789800D01*
X179042800Y-135223300D02*
X179042800Y-135065200D01*
%TO.N,Net-(U2-I0)*%
X148072371Y-136965000D02*
X142710000Y-136965000D01*
X151630500Y-140274144D02*
X151381515Y-140274144D01*
X142328914Y-136965000D02*
X136852214Y-131488300D01*
X142710000Y-136965000D02*
X142328914Y-136965000D01*
X135486700Y-131488300D02*
X135090000Y-131885000D01*
X136852214Y-131488300D02*
X135486700Y-131488300D01*
X151381515Y-140274144D02*
X148072371Y-136965000D01*
%TO.N,+3.3V*%
X141005000Y-144760000D02*
X154575000Y-144760000D01*
X171920000Y-144585000D02*
X171745000Y-144760000D01*
X173668500Y-131927000D02*
X173303900Y-132291600D01*
X177015000Y-121400800D02*
X176460700Y-121400800D01*
X173303900Y-132291600D02*
X173303900Y-139020900D01*
X155570265Y-136169735D02*
X157000530Y-137600000D01*
X173303900Y-139020900D02*
X173303800Y-139020900D01*
X171745000Y-144760000D02*
X154975000Y-144760000D01*
X154975000Y-144760000D02*
X154775000Y-144560000D01*
X173934530Y-120490000D02*
X176104200Y-120490000D01*
X158227600Y-137600000D02*
X159415100Y-138787500D01*
X176460700Y-121400800D02*
X173668500Y-124193000D01*
X155570265Y-136169735D02*
X155440730Y-136040200D01*
X173668500Y-124193000D02*
X173668500Y-131927000D01*
X159415100Y-138787500D02*
X159852600Y-138787500D01*
X140805000Y-144560000D02*
X141005000Y-144760000D01*
X171920000Y-144560000D02*
X171920000Y-144585000D01*
X157000530Y-137600000D02*
X158227600Y-137600000D01*
%TO.N,/SENS_LED*%
X178340000Y-118550000D02*
X178850000Y-119060000D01*
X164660000Y-122000000D02*
X171576000Y-122000000D01*
X160490000Y-126170000D02*
X164660000Y-122000000D01*
X171576000Y-122000000D02*
X175026000Y-118550000D01*
X152870000Y-126170000D02*
X160490000Y-126170000D01*
X175026000Y-118550000D02*
X178340000Y-118550000D01*
%TO.N,Net-(R11-Pad2)*%
X151220000Y-119060000D02*
X149820000Y-119060000D01*
X149820000Y-119060000D02*
X149060000Y-119820000D01*
X149060000Y-122360000D02*
X150330000Y-123630000D01*
X149060000Y-119820000D02*
X149060000Y-122360000D01*
%TO.N,Net-(C3-Pad1)*%
X149017485Y-138702635D02*
X152948350Y-142633500D01*
X147869765Y-138702635D02*
X149017485Y-138702635D01*
%TO.N,GND*%
X157620000Y-116010000D02*
X160670000Y-119060000D01*
X160670000Y-119060000D02*
X170140000Y-119060000D01*
X175220000Y-113980000D02*
X178850000Y-113980000D01*
X154140000Y-116010000D02*
X157620000Y-116010000D01*
X156680000Y-136330000D02*
X157732200Y-136330000D01*
X167225000Y-137795743D02*
X166895643Y-138125100D01*
X151220000Y-121600000D02*
X152870000Y-119950000D01*
X133820000Y-136330000D02*
X132550000Y-135060000D01*
X171920000Y-117280000D02*
X175220000Y-113980000D01*
X166895643Y-138125100D02*
X161413900Y-138125100D01*
X158767500Y-137365300D02*
X160654100Y-137365300D01*
X170140000Y-119060000D02*
X171920000Y-117280000D01*
X152870000Y-117280000D02*
X154140000Y-116010000D01*
X139535000Y-136330000D02*
X133820000Y-136330000D01*
X161413900Y-138125100D02*
X160654100Y-137365300D01*
X157732200Y-136330000D02*
X158767500Y-137365300D01*
X152870000Y-119950000D02*
X152870000Y-117280000D01*
%TO.N,Net-(C3-Pad1)*%
X152948350Y-142633500D02*
X161778700Y-142633500D01*
%TO.N,Net-(D1-BK)*%
X173825000Y-102641500D02*
X176101200Y-104917700D01*
X180017100Y-113499600D02*
X180017100Y-130917500D01*
X179345600Y-112828100D02*
X180017100Y-113499600D01*
X176101200Y-110392500D02*
X178536800Y-112828100D01*
X178536800Y-112828100D02*
X179345600Y-112828100D01*
X176101200Y-104917700D02*
X176101200Y-110392500D01*
X180017100Y-130917500D02*
X179007600Y-131927000D01*
%TO.N,Net-(D1-GK)*%
X170921000Y-96160000D02*
X171755000Y-96160000D01*
X172555000Y-96960000D02*
X172555000Y-114105000D01*
X172555000Y-114105000D02*
X173190000Y-114740000D01*
X172649700Y-125405300D02*
X172649700Y-124170300D01*
X171755000Y-96160000D02*
X172555000Y-96960000D01*
X172520000Y-125535000D02*
X172649700Y-125405300D01*
X172649700Y-124170300D02*
X173825000Y-122995000D01*
%TO.N,VCC*%
X172249700Y-124570300D02*
X171920000Y-124900000D01*
X175730000Y-112200000D02*
X176365000Y-112200000D01*
X171920000Y-134685000D02*
X172249700Y-135014700D01*
X163030000Y-124900000D02*
X164300000Y-123630000D01*
X172249700Y-123300300D02*
X174460000Y-121090000D01*
%TO.N,/SENS_DET*%
X159220000Y-123050000D02*
X159220000Y-123630000D01*
X160670000Y-121600000D02*
X159220000Y-123050000D01*
X161180000Y-121090000D02*
X170650000Y-121090000D01*
X170650000Y-121090000D02*
X175220000Y-116520000D01*
X160670000Y-121600000D02*
X161180000Y-121090000D01*
X175220000Y-116520000D02*
X178850000Y-116520000D01*
%TO.N,Net-(Q1-S)*%
X160232900Y-143326000D02*
X160232900Y-143324400D01*
X160002965Y-143473965D02*
X160152530Y-143324400D01*
X160232900Y-143324400D02*
X160232900Y-143326000D01*
%TO.N,Net-(U2-I1)*%
X143101500Y-138714600D02*
X136475200Y-132088300D01*
X143824600Y-138714600D02*
X143101500Y-138714600D01*
X143980000Y-138870000D02*
X143824600Y-138714600D01*
X151600000Y-142680000D02*
X150998600Y-142680000D01*
X150998600Y-142680000D02*
X147188600Y-138870000D01*
X147188600Y-138870000D02*
X143980000Y-138870000D01*
%TO.N,/RSTPD_N*%
X176961100Y-136692600D02*
X173967800Y-139685900D01*
X177635000Y-123678700D02*
X176961100Y-124352600D01*
X177635000Y-122815000D02*
X177635000Y-123678700D01*
X173117700Y-139685900D02*
X171708400Y-138276600D01*
X171708400Y-137821800D02*
X171820400Y-137709800D01*
X178850000Y-121600000D02*
X177635000Y-122815000D01*
X173967800Y-139685900D02*
X173117700Y-139685900D01*
X171708400Y-138276600D02*
X171708400Y-137821800D01*
X161134700Y-139613200D02*
X170371800Y-139613200D01*
X176961100Y-124352600D02*
X176961100Y-136692600D01*
%TO.N,Net-(U2-OSCIN)*%
X144615000Y-139973300D02*
X144615000Y-142045000D01*
X144615000Y-142045000D02*
X143345000Y-143315000D01*
%TO.N,VCC*%
X172249700Y-135014700D02*
X169638300Y-137626100D01*
X172249700Y-123630000D02*
X172249700Y-124570300D01*
X172249700Y-123630000D02*
X172249700Y-123300300D01*
X171920000Y-124900000D02*
X171920000Y-134685000D01*
X164300000Y-123630000D02*
X172249700Y-123630000D01*
X173190000Y-112200000D02*
X175730000Y-112200000D01*
X174460000Y-121090000D02*
X175730000Y-121090000D01*
%TO.N,Net-(Q1-S)*%
X170941700Y-143324400D02*
X179042800Y-135223300D01*
X160152530Y-143324400D02*
X170941700Y-143324400D01*
%TO.N,Net-(U2-VMID)*%
X150798900Y-138282429D02*
X154561471Y-142045000D01*
X154561471Y-142045000D02*
X161093100Y-142045000D01*
%TO.N,Net-(Q1-S)*%
X177844700Y-105170500D02*
X179799700Y-105170500D01*
X180419000Y-105789800D02*
X180419000Y-133689000D01*
X176744300Y-106270900D02*
X177844700Y-105170500D01*
%TO.N,/RSTPD_N*%
X170371800Y-139613200D02*
X171708400Y-138276600D01*
%TO.N,Net-(Q2-S)*%
X160850000Y-143924400D02*
X161121700Y-144196100D01*
X174928300Y-135065200D02*
X174129100Y-135864400D01*
X176270400Y-133723100D02*
X174928300Y-135065200D01*
X176270400Y-122442200D02*
X176270400Y-133723100D01*
X171344700Y-144196100D02*
X173190000Y-142350800D01*
X174129100Y-138628400D02*
X174129000Y-138628400D01*
X161121700Y-144196100D02*
X171344700Y-144196100D01*
X173190000Y-142350800D02*
X173190000Y-142045000D01*
X174129100Y-135864400D02*
X174129100Y-138628400D01*
%TO.N,Net-(U2-RX)*%
X102870000Y-138235000D02*
X104775000Y-140140000D01*
X109398386Y-140140000D02*
X110033386Y-140775000D01*
X104775000Y-140140000D02*
X109398386Y-140140000D01*
X101600000Y-138235000D02*
X102870000Y-138235000D01*
%TO.N,Net-(U2-VMID)*%
X100798900Y-138235000D02*
X100798900Y-138282429D01*
X111093100Y-142045000D02*
X112886800Y-140251300D01*
%TO.N,+3.3V*%
X126104200Y-120490000D02*
X127015000Y-121400800D01*
X123897265Y-120527265D02*
X123934530Y-120490000D01*
X90703300Y-134773700D02*
X90703300Y-134346200D01*
X91969800Y-136040200D02*
X90703300Y-134773700D01*
X104575000Y-144760000D02*
X104775000Y-144560000D01*
X105440730Y-136040200D02*
X91969800Y-136040200D01*
%TO.N,Net-(Q1-S)*%
X130419000Y-133689000D02*
X129042800Y-135065200D01*
X129799700Y-105170500D02*
X130419000Y-105789800D01*
X129042800Y-135223300D02*
X129042800Y-135065200D01*
%TO.N,Net-(U2-I0)*%
X98072371Y-136965000D02*
X92710000Y-136965000D01*
X101630500Y-140274144D02*
X101381515Y-140274144D01*
X92328914Y-136965000D02*
X86852214Y-131488300D01*
X92710000Y-136965000D02*
X92328914Y-136965000D01*
X85486700Y-131488300D02*
X85090000Y-131885000D01*
X86852214Y-131488300D02*
X85486700Y-131488300D01*
X101381515Y-140274144D02*
X98072371Y-136965000D01*
%TO.N,+3.3V*%
X91005000Y-144760000D02*
X104575000Y-144760000D01*
X121920000Y-144585000D02*
X121745000Y-144760000D01*
X123668500Y-131927000D02*
X123303900Y-132291600D01*
X127015000Y-121400800D02*
X126460700Y-121400800D01*
X123303900Y-132291600D02*
X123303900Y-139020900D01*
X105570265Y-136169735D02*
X107000530Y-137600000D01*
X123303900Y-139020900D02*
X123303800Y-139020900D01*
X121745000Y-144760000D02*
X104975000Y-144760000D01*
X104975000Y-144760000D02*
X104775000Y-144560000D01*
X123934530Y-120490000D02*
X126104200Y-120490000D01*
X108227600Y-137600000D02*
X109415100Y-138787500D01*
X126460700Y-121400800D02*
X123668500Y-124193000D01*
X105570265Y-136169735D02*
X105440730Y-136040200D01*
X123668500Y-124193000D02*
X123668500Y-131927000D01*
X109415100Y-138787500D02*
X109852600Y-138787500D01*
X90805000Y-144560000D02*
X91005000Y-144760000D01*
X121920000Y-144560000D02*
X121920000Y-144585000D01*
X107000530Y-137600000D02*
X108227600Y-137600000D01*
%TO.N,/SENS_LED*%
X128340000Y-118550000D02*
X128850000Y-119060000D01*
X114660000Y-122000000D02*
X121576000Y-122000000D01*
X110490000Y-126170000D02*
X114660000Y-122000000D01*
X121576000Y-122000000D02*
X125026000Y-118550000D01*
X102870000Y-126170000D02*
X110490000Y-126170000D01*
X125026000Y-118550000D02*
X128340000Y-118550000D01*
%TO.N,Net-(R11-Pad2)*%
X101220000Y-119060000D02*
X99820000Y-119060000D01*
X99820000Y-119060000D02*
X99060000Y-119820000D01*
X99060000Y-122360000D02*
X100330000Y-123630000D01*
X99060000Y-119820000D02*
X99060000Y-122360000D01*
%TO.N,Net-(C3-Pad1)*%
X99017485Y-138702635D02*
X102948350Y-142633500D01*
X97869765Y-138702635D02*
X99017485Y-138702635D01*
%TO.N,GND*%
X107620000Y-116010000D02*
X110670000Y-119060000D01*
X110670000Y-119060000D02*
X120140000Y-119060000D01*
X125220000Y-113980000D02*
X128850000Y-113980000D01*
X104140000Y-116010000D02*
X107620000Y-116010000D01*
X106680000Y-136330000D02*
X107732200Y-136330000D01*
X117225000Y-137795743D02*
X116895643Y-138125100D01*
X101220000Y-121600000D02*
X102870000Y-119950000D01*
X83820000Y-136330000D02*
X82550000Y-135060000D01*
X121920000Y-117280000D02*
X125220000Y-113980000D01*
X116895643Y-138125100D02*
X111413900Y-138125100D01*
X108767500Y-137365300D02*
X110654100Y-137365300D01*
X120140000Y-119060000D02*
X121920000Y-117280000D01*
X102870000Y-117280000D02*
X104140000Y-116010000D01*
X89535000Y-136330000D02*
X83820000Y-136330000D01*
X111413900Y-138125100D02*
X110654100Y-137365300D01*
X107732200Y-136330000D02*
X108767500Y-137365300D01*
X102870000Y-119950000D02*
X102870000Y-117280000D01*
%TO.N,Net-(C3-Pad1)*%
X102948350Y-142633500D02*
X111778700Y-142633500D01*
%TO.N,Net-(D1-BK)*%
X123825000Y-102641500D02*
X126101200Y-104917700D01*
X130017100Y-113499600D02*
X130017100Y-130917500D01*
X129345600Y-112828100D02*
X130017100Y-113499600D01*
X126101200Y-110392500D02*
X128536800Y-112828100D01*
X128536800Y-112828100D02*
X129345600Y-112828100D01*
X126101200Y-104917700D02*
X126101200Y-110392500D01*
X130017100Y-130917500D02*
X129007600Y-131927000D01*
%TO.N,Net-(D1-GK)*%
X120921000Y-96160000D02*
X121755000Y-96160000D01*
X122555000Y-96960000D02*
X122555000Y-114105000D01*
X122555000Y-114105000D02*
X123190000Y-114740000D01*
X122649700Y-125405300D02*
X122649700Y-124170300D01*
X121755000Y-96160000D02*
X122555000Y-96960000D01*
X122520000Y-125535000D02*
X122649700Y-125405300D01*
X122649700Y-124170300D02*
X123825000Y-122995000D01*
%TO.N,VCC*%
X122249700Y-124570300D02*
X121920000Y-124900000D01*
X125730000Y-112200000D02*
X126365000Y-112200000D01*
X121920000Y-134685000D02*
X122249700Y-135014700D01*
X113030000Y-124900000D02*
X114300000Y-123630000D01*
X122249700Y-123300300D02*
X124460000Y-121090000D01*
%TO.N,/SENS_DET*%
X109220000Y-123050000D02*
X109220000Y-123630000D01*
X110670000Y-121600000D02*
X109220000Y-123050000D01*
X111180000Y-121090000D02*
X120650000Y-121090000D01*
X120650000Y-121090000D02*
X125220000Y-116520000D01*
X110670000Y-121600000D02*
X111180000Y-121090000D01*
X125220000Y-116520000D02*
X128850000Y-116520000D01*
%TO.N,Net-(Q1-S)*%
X110232900Y-143326000D02*
X110232900Y-143324400D01*
X110002965Y-143473965D02*
X110152530Y-143324400D01*
X110232900Y-143324400D02*
X110232900Y-143326000D01*
%TO.N,Net-(U2-I1)*%
X93101500Y-138714600D02*
X86475200Y-132088300D01*
X93824600Y-138714600D02*
X93101500Y-138714600D01*
X93980000Y-138870000D02*
X93824600Y-138714600D01*
X101600000Y-142680000D02*
X100998600Y-142680000D01*
X100998600Y-142680000D02*
X97188600Y-138870000D01*
X97188600Y-138870000D02*
X93980000Y-138870000D01*
%TO.N,/RSTPD_N*%
X126961100Y-136692600D02*
X123967800Y-139685900D01*
X127635000Y-123678700D02*
X126961100Y-124352600D01*
X127635000Y-122815000D02*
X127635000Y-123678700D01*
X123117700Y-139685900D02*
X121708400Y-138276600D01*
X121708400Y-137821800D02*
X121820400Y-137709800D01*
X128850000Y-121600000D02*
X127635000Y-122815000D01*
X123967800Y-139685900D02*
X123117700Y-139685900D01*
X121708400Y-138276600D02*
X121708400Y-137821800D01*
X111134700Y-139613200D02*
X120371800Y-139613200D01*
X126961100Y-124352600D02*
X126961100Y-136692600D01*
%TO.N,Net-(U2-OSCIN)*%
X94615000Y-139973300D02*
X94615000Y-142045000D01*
X94615000Y-142045000D02*
X93345000Y-143315000D01*
%TO.N,VCC*%
X122249700Y-135014700D02*
X119638300Y-137626100D01*
X122249700Y-123630000D02*
X122249700Y-124570300D01*
X122249700Y-123630000D02*
X122249700Y-123300300D01*
X121920000Y-124900000D02*
X121920000Y-134685000D01*
X114300000Y-123630000D02*
X122249700Y-123630000D01*
X123190000Y-112200000D02*
X125730000Y-112200000D01*
X124460000Y-121090000D02*
X125730000Y-121090000D01*
%TO.N,Net-(Q1-S)*%
X120941700Y-143324400D02*
X129042800Y-135223300D01*
X110152530Y-143324400D02*
X120941700Y-143324400D01*
%TO.N,Net-(U2-VMID)*%
X100798900Y-138282429D02*
X104561471Y-142045000D01*
X104561471Y-142045000D02*
X111093100Y-142045000D01*
%TO.N,Net-(Q1-S)*%
X127844700Y-105170500D02*
X129799700Y-105170500D01*
X130419000Y-105789800D02*
X130419000Y-133689000D01*
X126744300Y-106270900D02*
X127844700Y-105170500D01*
%TO.N,/RSTPD_N*%
X120371800Y-139613200D02*
X121708400Y-138276600D01*
%TO.N,Net-(Q2-S)*%
X110850000Y-143924400D02*
X111121700Y-144196100D01*
X124928300Y-135065200D02*
X124129100Y-135864400D01*
X126270400Y-133723100D02*
X124928300Y-135065200D01*
X126270400Y-122442200D02*
X126270400Y-133723100D01*
X121344700Y-144196100D02*
X123190000Y-142350800D01*
X124129100Y-138628400D02*
X124129000Y-138628400D01*
X111121700Y-144196100D02*
X121344700Y-144196100D01*
X123190000Y-142350800D02*
X123190000Y-142045000D01*
X124129100Y-135864400D02*
X124129100Y-138628400D01*
%TO.N,Net-(U2-RX)*%
X152870000Y-88235000D02*
X154775000Y-90140000D01*
X159398386Y-90140000D02*
X160033386Y-90775000D01*
X154775000Y-90140000D02*
X159398386Y-90140000D01*
X151600000Y-88235000D02*
X152870000Y-88235000D01*
%TO.N,Net-(U2-VMID)*%
X150798900Y-88235000D02*
X150798900Y-88282429D01*
X161093100Y-92045000D02*
X162886800Y-90251300D01*
%TO.N,+3.3V*%
X176104200Y-70490000D02*
X177015000Y-71400800D01*
X173897265Y-70527265D02*
X173934530Y-70490000D01*
X140703300Y-84773700D02*
X140703300Y-84346200D01*
X141969800Y-86040200D02*
X140703300Y-84773700D01*
X154575000Y-94760000D02*
X154775000Y-94560000D01*
X155440730Y-86040200D02*
X141969800Y-86040200D01*
%TO.N,Net-(Q1-S)*%
X180419000Y-83689000D02*
X179042800Y-85065200D01*
X179799700Y-55170500D02*
X180419000Y-55789800D01*
X179042800Y-85223300D02*
X179042800Y-85065200D01*
%TO.N,Net-(U2-I0)*%
X148072371Y-86965000D02*
X142710000Y-86965000D01*
X151630500Y-90274144D02*
X151381515Y-90274144D01*
X142328914Y-86965000D02*
X136852214Y-81488300D01*
X142710000Y-86965000D02*
X142328914Y-86965000D01*
X135486700Y-81488300D02*
X135090000Y-81885000D01*
X136852214Y-81488300D02*
X135486700Y-81488300D01*
X151381515Y-90274144D02*
X148072371Y-86965000D01*
%TO.N,+3.3V*%
X141005000Y-94760000D02*
X154575000Y-94760000D01*
X171920000Y-94585000D02*
X171745000Y-94760000D01*
X173668500Y-81927000D02*
X173303900Y-82291600D01*
X177015000Y-71400800D02*
X176460700Y-71400800D01*
X173303900Y-82291600D02*
X173303900Y-89020900D01*
X155570265Y-86169735D02*
X157000530Y-87600000D01*
X173303900Y-89020900D02*
X173303800Y-89020900D01*
X171745000Y-94760000D02*
X154975000Y-94760000D01*
X154975000Y-94760000D02*
X154775000Y-94560000D01*
X173934530Y-70490000D02*
X176104200Y-70490000D01*
X158227600Y-87600000D02*
X159415100Y-88787500D01*
X176460700Y-71400800D02*
X173668500Y-74193000D01*
X155570265Y-86169735D02*
X155440730Y-86040200D01*
X173668500Y-74193000D02*
X173668500Y-81927000D01*
X159415100Y-88787500D02*
X159852600Y-88787500D01*
X140805000Y-94560000D02*
X141005000Y-94760000D01*
X171920000Y-94560000D02*
X171920000Y-94585000D01*
X157000530Y-87600000D02*
X158227600Y-87600000D01*
%TO.N,/SENS_LED*%
X178340000Y-68550000D02*
X178850000Y-69060000D01*
X164660000Y-72000000D02*
X171576000Y-72000000D01*
X160490000Y-76170000D02*
X164660000Y-72000000D01*
X171576000Y-72000000D02*
X175026000Y-68550000D01*
X152870000Y-76170000D02*
X160490000Y-76170000D01*
X175026000Y-68550000D02*
X178340000Y-68550000D01*
%TO.N,Net-(R11-Pad2)*%
X151220000Y-69060000D02*
X149820000Y-69060000D01*
X149820000Y-69060000D02*
X149060000Y-69820000D01*
X149060000Y-72360000D02*
X150330000Y-73630000D01*
X149060000Y-69820000D02*
X149060000Y-72360000D01*
%TO.N,Net-(C3-Pad1)*%
X149017485Y-88702635D02*
X152948350Y-92633500D01*
X147869765Y-88702635D02*
X149017485Y-88702635D01*
%TO.N,GND*%
X157620000Y-66010000D02*
X160670000Y-69060000D01*
X160670000Y-69060000D02*
X170140000Y-69060000D01*
X175220000Y-63980000D02*
X178850000Y-63980000D01*
X154140000Y-66010000D02*
X157620000Y-66010000D01*
X156680000Y-86330000D02*
X157732200Y-86330000D01*
X167225000Y-87795743D02*
X166895643Y-88125100D01*
X151220000Y-71600000D02*
X152870000Y-69950000D01*
X133820000Y-86330000D02*
X132550000Y-85060000D01*
X171920000Y-67280000D02*
X175220000Y-63980000D01*
X166895643Y-88125100D02*
X161413900Y-88125100D01*
X158767500Y-87365300D02*
X160654100Y-87365300D01*
X170140000Y-69060000D02*
X171920000Y-67280000D01*
X152870000Y-67280000D02*
X154140000Y-66010000D01*
X139535000Y-86330000D02*
X133820000Y-86330000D01*
X161413900Y-88125100D02*
X160654100Y-87365300D01*
X157732200Y-86330000D02*
X158767500Y-87365300D01*
X152870000Y-69950000D02*
X152870000Y-67280000D01*
%TO.N,Net-(C3-Pad1)*%
X152948350Y-92633500D02*
X161778700Y-92633500D01*
%TO.N,Net-(D1-BK)*%
X173825000Y-52641500D02*
X176101200Y-54917700D01*
X180017100Y-63499600D02*
X180017100Y-80917500D01*
X179345600Y-62828100D02*
X180017100Y-63499600D01*
X176101200Y-60392500D02*
X178536800Y-62828100D01*
X178536800Y-62828100D02*
X179345600Y-62828100D01*
X176101200Y-54917700D02*
X176101200Y-60392500D01*
X180017100Y-80917500D02*
X179007600Y-81927000D01*
%TO.N,Net-(D1-GK)*%
X170921000Y-46160000D02*
X171755000Y-46160000D01*
X172555000Y-46960000D02*
X172555000Y-64105000D01*
X172555000Y-64105000D02*
X173190000Y-64740000D01*
X172649700Y-75405300D02*
X172649700Y-74170300D01*
X171755000Y-46160000D02*
X172555000Y-46960000D01*
X172520000Y-75535000D02*
X172649700Y-75405300D01*
X172649700Y-74170300D02*
X173825000Y-72995000D01*
%TO.N,VCC*%
X172249700Y-74570300D02*
X171920000Y-74900000D01*
X175730000Y-62200000D02*
X176365000Y-62200000D01*
X171920000Y-84685000D02*
X172249700Y-85014700D01*
X163030000Y-74900000D02*
X164300000Y-73630000D01*
X172249700Y-73300300D02*
X174460000Y-71090000D01*
%TO.N,/SENS_DET*%
X159220000Y-73050000D02*
X159220000Y-73630000D01*
X160670000Y-71600000D02*
X159220000Y-73050000D01*
X161180000Y-71090000D02*
X170650000Y-71090000D01*
X170650000Y-71090000D02*
X175220000Y-66520000D01*
X160670000Y-71600000D02*
X161180000Y-71090000D01*
X175220000Y-66520000D02*
X178850000Y-66520000D01*
%TO.N,Net-(Q1-S)*%
X160232900Y-93326000D02*
X160232900Y-93324400D01*
X160002965Y-93473965D02*
X160152530Y-93324400D01*
X160232900Y-93324400D02*
X160232900Y-93326000D01*
%TO.N,Net-(U2-I1)*%
X143101500Y-88714600D02*
X136475200Y-82088300D01*
X143824600Y-88714600D02*
X143101500Y-88714600D01*
X143980000Y-88870000D02*
X143824600Y-88714600D01*
X151600000Y-92680000D02*
X150998600Y-92680000D01*
X150998600Y-92680000D02*
X147188600Y-88870000D01*
X147188600Y-88870000D02*
X143980000Y-88870000D01*
%TO.N,/RSTPD_N*%
X176961100Y-86692600D02*
X173967800Y-89685900D01*
X177635000Y-73678700D02*
X176961100Y-74352600D01*
X177635000Y-72815000D02*
X177635000Y-73678700D01*
X173117700Y-89685900D02*
X171708400Y-88276600D01*
X171708400Y-87821800D02*
X171820400Y-87709800D01*
X178850000Y-71600000D02*
X177635000Y-72815000D01*
X173967800Y-89685900D02*
X173117700Y-89685900D01*
X171708400Y-88276600D02*
X171708400Y-87821800D01*
X161134700Y-89613200D02*
X170371800Y-89613200D01*
X176961100Y-74352600D02*
X176961100Y-86692600D01*
%TO.N,Net-(U2-OSCIN)*%
X144615000Y-89973300D02*
X144615000Y-92045000D01*
X144615000Y-92045000D02*
X143345000Y-93315000D01*
%TO.N,VCC*%
X172249700Y-85014700D02*
X169638300Y-87626100D01*
X172249700Y-73630000D02*
X172249700Y-74570300D01*
X172249700Y-73630000D02*
X172249700Y-73300300D01*
X171920000Y-74900000D02*
X171920000Y-84685000D01*
X164300000Y-73630000D02*
X172249700Y-73630000D01*
X173190000Y-62200000D02*
X175730000Y-62200000D01*
X174460000Y-71090000D02*
X175730000Y-71090000D01*
%TO.N,Net-(Q1-S)*%
X170941700Y-93324400D02*
X179042800Y-85223300D01*
X160152530Y-93324400D02*
X170941700Y-93324400D01*
%TO.N,Net-(U2-VMID)*%
X150798900Y-88282429D02*
X154561471Y-92045000D01*
X154561471Y-92045000D02*
X161093100Y-92045000D01*
%TO.N,Net-(Q1-S)*%
X177844700Y-55170500D02*
X179799700Y-55170500D01*
X180419000Y-55789800D02*
X180419000Y-83689000D01*
X176744300Y-56270900D02*
X177844700Y-55170500D01*
%TO.N,/RSTPD_N*%
X170371800Y-89613200D02*
X171708400Y-88276600D01*
%TO.N,Net-(Q2-S)*%
X160850000Y-93924400D02*
X161121700Y-94196100D01*
X174928300Y-85065200D02*
X174129100Y-85864400D01*
X176270400Y-83723100D02*
X174928300Y-85065200D01*
X176270400Y-72442200D02*
X176270400Y-83723100D01*
X171344700Y-94196100D02*
X173190000Y-92350800D01*
X174129100Y-88628400D02*
X174129000Y-88628400D01*
X161121700Y-94196100D02*
X171344700Y-94196100D01*
X173190000Y-92350800D02*
X173190000Y-92045000D01*
X174129100Y-85864400D02*
X174129100Y-88628400D01*
%TO.N,Net-(R11-Pad2)*%
X99060000Y-69820000D02*
X99060000Y-72360000D01*
X99060000Y-72360000D02*
X100330000Y-73630000D01*
X99820000Y-69060000D02*
X99060000Y-69820000D01*
X101220000Y-69060000D02*
X99820000Y-69060000D01*
%TO.N,/SENS_LED*%
X125026000Y-68550000D02*
X128340000Y-68550000D01*
X102870000Y-76170000D02*
X110490000Y-76170000D01*
X121576000Y-72000000D02*
X125026000Y-68550000D01*
X110490000Y-76170000D02*
X114660000Y-72000000D01*
X114660000Y-72000000D02*
X121576000Y-72000000D01*
X128340000Y-68550000D02*
X128850000Y-69060000D01*
%TO.N,+3.3V*%
X105440730Y-86040200D02*
X91969800Y-86040200D01*
X104575000Y-94760000D02*
X104775000Y-94560000D01*
X91969800Y-86040200D02*
X90703300Y-84773700D01*
X90703300Y-84773700D02*
X90703300Y-84346200D01*
X123897265Y-70527265D02*
X123934530Y-70490000D01*
X126104200Y-70490000D02*
X127015000Y-71400800D01*
X107000530Y-87600000D02*
X108227600Y-87600000D01*
X121920000Y-94560000D02*
X121920000Y-94585000D01*
X90805000Y-94560000D02*
X91005000Y-94760000D01*
X109415100Y-88787500D02*
X109852600Y-88787500D01*
X123668500Y-74193000D02*
X123668500Y-81927000D01*
X105570265Y-86169735D02*
X105440730Y-86040200D01*
X126460700Y-71400800D02*
X123668500Y-74193000D01*
X108227600Y-87600000D02*
X109415100Y-88787500D01*
X123934530Y-70490000D02*
X126104200Y-70490000D01*
X104975000Y-94760000D02*
X104775000Y-94560000D01*
X121745000Y-94760000D02*
X104975000Y-94760000D01*
X123303900Y-89020900D02*
X123303800Y-89020900D01*
X105570265Y-86169735D02*
X107000530Y-87600000D01*
X123303900Y-82291600D02*
X123303900Y-89020900D01*
X127015000Y-71400800D02*
X126460700Y-71400800D01*
X123668500Y-81927000D02*
X123303900Y-82291600D01*
X121920000Y-94585000D02*
X121745000Y-94760000D01*
X91005000Y-94760000D02*
X104575000Y-94760000D01*
%TO.N,VCC*%
X122249700Y-73300300D02*
X124460000Y-71090000D01*
X113030000Y-74900000D02*
X114300000Y-73630000D01*
X121920000Y-84685000D02*
X122249700Y-85014700D01*
X125730000Y-62200000D02*
X126365000Y-62200000D01*
X122249700Y-74570300D02*
X121920000Y-74900000D01*
X124460000Y-71090000D02*
X125730000Y-71090000D01*
X123190000Y-62200000D02*
X125730000Y-62200000D01*
X114300000Y-73630000D02*
X122249700Y-73630000D01*
X121920000Y-74900000D02*
X121920000Y-84685000D01*
X122249700Y-73630000D02*
X122249700Y-73300300D01*
X122249700Y-73630000D02*
X122249700Y-74570300D01*
X122249700Y-85014700D02*
X119638300Y-87626100D01*
%TO.N,Net-(U2-OSCIN)*%
X94615000Y-92045000D02*
X93345000Y-93315000D01*
X94615000Y-89973300D02*
X94615000Y-92045000D01*
%TO.N,Net-(Q1-S)*%
X126744300Y-56270900D02*
X127844700Y-55170500D01*
X130419000Y-55789800D02*
X130419000Y-83689000D01*
X127844700Y-55170500D02*
X129799700Y-55170500D01*
X110152530Y-93324400D02*
X120941700Y-93324400D01*
X120941700Y-93324400D02*
X129042800Y-85223300D01*
X110232900Y-93324400D02*
X110232900Y-93326000D01*
X110002965Y-93473965D02*
X110152530Y-93324400D01*
X110232900Y-93326000D02*
X110232900Y-93324400D01*
X129042800Y-85223300D02*
X129042800Y-85065200D01*
X129799700Y-55170500D02*
X130419000Y-55789800D01*
X130419000Y-83689000D02*
X129042800Y-85065200D01*
%TO.N,/SENS_DET*%
X125220000Y-66520000D02*
X128850000Y-66520000D01*
X110670000Y-71600000D02*
X111180000Y-71090000D01*
X120650000Y-71090000D02*
X125220000Y-66520000D01*
X111180000Y-71090000D02*
X120650000Y-71090000D01*
X110670000Y-71600000D02*
X109220000Y-73050000D01*
X109220000Y-73050000D02*
X109220000Y-73630000D01*
%TO.N,Net-(Q2-S)*%
X124129100Y-85864400D02*
X124129100Y-88628400D01*
X123190000Y-92350800D02*
X123190000Y-92045000D01*
X111121700Y-94196100D02*
X121344700Y-94196100D01*
X124129100Y-88628400D02*
X124129000Y-88628400D01*
X121344700Y-94196100D02*
X123190000Y-92350800D01*
X126270400Y-72442200D02*
X126270400Y-83723100D01*
X126270400Y-83723100D02*
X124928300Y-85065200D01*
X124928300Y-85065200D02*
X124129100Y-85864400D01*
X110850000Y-93924400D02*
X111121700Y-94196100D01*
%TO.N,/RSTPD_N*%
X120371800Y-89613200D02*
X121708400Y-88276600D01*
X126961100Y-74352600D02*
X126961100Y-86692600D01*
X111134700Y-89613200D02*
X120371800Y-89613200D01*
X121708400Y-88276600D02*
X121708400Y-87821800D01*
X123967800Y-89685900D02*
X123117700Y-89685900D01*
X128850000Y-71600000D02*
X127635000Y-72815000D01*
X121708400Y-87821800D02*
X121820400Y-87709800D01*
X123117700Y-89685900D02*
X121708400Y-88276600D01*
X127635000Y-72815000D02*
X127635000Y-73678700D01*
X127635000Y-73678700D02*
X126961100Y-74352600D01*
X126961100Y-86692600D02*
X123967800Y-89685900D01*
%TO.N,Net-(U2-I1)*%
X97188600Y-88870000D02*
X93980000Y-88870000D01*
X100998600Y-92680000D02*
X97188600Y-88870000D01*
X101600000Y-92680000D02*
X100998600Y-92680000D01*
X93980000Y-88870000D02*
X93824600Y-88714600D01*
X93824600Y-88714600D02*
X93101500Y-88714600D01*
X93101500Y-88714600D02*
X86475200Y-82088300D01*
%TO.N,Net-(U2-I0)*%
X101381515Y-90274144D02*
X98072371Y-86965000D01*
X86852214Y-81488300D02*
X85486700Y-81488300D01*
X85486700Y-81488300D02*
X85090000Y-81885000D01*
X92710000Y-86965000D02*
X92328914Y-86965000D01*
X92328914Y-86965000D02*
X86852214Y-81488300D01*
X101630500Y-90274144D02*
X101381515Y-90274144D01*
X98072371Y-86965000D02*
X92710000Y-86965000D01*
%TO.N,GND*%
X102870000Y-69950000D02*
X102870000Y-67280000D01*
X107732200Y-86330000D02*
X108767500Y-87365300D01*
X111413900Y-88125100D02*
X110654100Y-87365300D01*
X89535000Y-86330000D02*
X83820000Y-86330000D01*
X102870000Y-67280000D02*
X104140000Y-66010000D01*
X120140000Y-69060000D02*
X121920000Y-67280000D01*
X108767500Y-87365300D02*
X110654100Y-87365300D01*
X116895643Y-88125100D02*
X111413900Y-88125100D01*
X121920000Y-67280000D02*
X125220000Y-63980000D01*
X83820000Y-86330000D02*
X82550000Y-85060000D01*
X101220000Y-71600000D02*
X102870000Y-69950000D01*
X117225000Y-87795743D02*
X116895643Y-88125100D01*
X106680000Y-86330000D02*
X107732200Y-86330000D01*
X104140000Y-66010000D02*
X107620000Y-66010000D01*
X125220000Y-63980000D02*
X128850000Y-63980000D01*
X110670000Y-69060000D02*
X120140000Y-69060000D01*
X107620000Y-66010000D02*
X110670000Y-69060000D01*
%TO.N,Net-(C3-Pad1)*%
X97869765Y-88702635D02*
X99017485Y-88702635D01*
X99017485Y-88702635D02*
X102948350Y-92633500D01*
X102948350Y-92633500D02*
X111778700Y-92633500D01*
%TO.N,Net-(U2-VMID)*%
X104561471Y-92045000D02*
X111093100Y-92045000D01*
X100798900Y-88282429D02*
X104561471Y-92045000D01*
X111093100Y-92045000D02*
X112886800Y-90251300D01*
X100798900Y-88235000D02*
X100798900Y-88282429D01*
%TO.N,Net-(U2-RX)*%
X101600000Y-88235000D02*
X102870000Y-88235000D01*
X104775000Y-90140000D02*
X109398386Y-90140000D01*
X109398386Y-90140000D02*
X110033386Y-90775000D01*
X102870000Y-88235000D02*
X104775000Y-90140000D01*
%TO.N,Net-(D1-GK)*%
X122649700Y-74170300D02*
X123825000Y-72995000D01*
X122520000Y-75535000D02*
X122649700Y-75405300D01*
X121755000Y-46160000D02*
X122555000Y-46960000D01*
X122649700Y-75405300D02*
X122649700Y-74170300D01*
X122555000Y-64105000D02*
X123190000Y-64740000D01*
X122555000Y-46960000D02*
X122555000Y-64105000D01*
X120921000Y-46160000D02*
X121755000Y-46160000D01*
%TO.N,Net-(D1-BK)*%
X130017100Y-80917500D02*
X129007600Y-81927000D01*
X126101200Y-54917700D02*
X126101200Y-60392500D01*
X128536800Y-62828100D02*
X129345600Y-62828100D01*
X126101200Y-60392500D02*
X128536800Y-62828100D01*
X129345600Y-62828100D02*
X130017100Y-63499600D01*
X130017100Y-63499600D02*
X130017100Y-80917500D01*
X123825000Y-52641500D02*
X126101200Y-54917700D01*
%TD*%
%TA.AperFunction,Conductor*%
%TO.N,GND*%
G36*
X105956236Y-86984685D02*
G01*
X105976878Y-87001319D01*
X106740569Y-87765010D01*
X106751840Y-87777962D01*
X106756569Y-87784225D01*
X106790847Y-87815474D01*
X106794988Y-87819429D01*
X106807733Y-87832174D01*
X106811461Y-87835270D01*
X106819854Y-87841918D01*
X106828654Y-87849940D01*
X106839594Y-87859914D01*
X106839595Y-87859914D01*
X106839597Y-87859916D01*
X106846060Y-87862419D01*
X106871337Y-87875743D01*
X106877049Y-87879656D01*
X106903044Y-87885769D01*
X106919440Y-87890846D01*
X106944357Y-87900500D01*
X106951281Y-87900500D01*
X106979671Y-87903793D01*
X106986411Y-87905379D01*
X107009185Y-87902201D01*
X107012864Y-87901689D01*
X107029994Y-87900500D01*
X108051767Y-87900500D01*
X108118806Y-87920185D01*
X108139447Y-87936818D01*
X108649612Y-88446984D01*
X109155142Y-88952514D01*
X109166413Y-88965466D01*
X109171139Y-88971725D01*
X109171141Y-88971727D01*
X109171142Y-88971728D01*
X109205406Y-89002964D01*
X109209547Y-89006919D01*
X109222301Y-89019673D01*
X109226042Y-89022779D01*
X109234434Y-89029427D01*
X109254162Y-89047412D01*
X109254163Y-89047413D01*
X109254167Y-89047416D01*
X109260621Y-89049916D01*
X109285906Y-89063243D01*
X109291620Y-89067157D01*
X109317617Y-89073271D01*
X109334018Y-89078351D01*
X109358924Y-89088000D01*
X109358927Y-89088000D01*
X109365852Y-89088000D01*
X109394240Y-89091293D01*
X109400981Y-89092879D01*
X109400985Y-89092878D01*
X109404052Y-89093020D01*
X109409370Y-89094851D01*
X109412168Y-89095510D01*
X109412101Y-89095792D01*
X109470113Y-89115775D01*
X109492044Y-89135681D01*
X109521472Y-89169643D01*
X109642547Y-89247453D01*
X109642550Y-89247454D01*
X109642549Y-89247454D01*
X109780636Y-89287999D01*
X109780638Y-89288000D01*
X109780639Y-89288000D01*
X109924562Y-89288000D01*
X109924562Y-89287999D01*
X110062653Y-89247453D01*
X110183728Y-89169643D01*
X110277977Y-89060873D01*
X110337765Y-88929957D01*
X110358247Y-88787500D01*
X110337765Y-88645043D01*
X110277977Y-88514127D01*
X110183728Y-88405357D01*
X110062653Y-88327547D01*
X110062651Y-88327546D01*
X110062649Y-88327545D01*
X110062650Y-88327545D01*
X109924563Y-88287000D01*
X109924561Y-88287000D01*
X109780639Y-88287000D01*
X109780636Y-88287000D01*
X109642549Y-88327545D01*
X109566850Y-88376194D01*
X109499810Y-88395878D01*
X109432771Y-88376193D01*
X109412130Y-88359559D01*
X108487562Y-87434991D01*
X108476287Y-87422035D01*
X108471555Y-87415768D01*
X108437283Y-87384525D01*
X108433160Y-87380589D01*
X108420397Y-87367826D01*
X108420396Y-87367825D01*
X108420394Y-87367823D01*
X108416677Y-87364737D01*
X108408279Y-87358084D01*
X108388533Y-87340084D01*
X108382070Y-87337580D01*
X108356792Y-87324256D01*
X108351081Y-87320344D01*
X108351078Y-87320343D01*
X108351079Y-87320343D01*
X108325083Y-87314228D01*
X108308689Y-87309151D01*
X108283774Y-87299500D01*
X108283773Y-87299500D01*
X108276849Y-87299500D01*
X108248458Y-87296206D01*
X108241719Y-87294621D01*
X108215266Y-87298311D01*
X108198136Y-87299500D01*
X107176363Y-87299500D01*
X107109324Y-87279815D01*
X107088682Y-87263181D01*
X107002182Y-87176681D01*
X106968697Y-87115358D01*
X106973681Y-87045666D01*
X107015553Y-86989733D01*
X107081017Y-86965316D01*
X107089863Y-86965000D01*
X119318932Y-86965000D01*
X119385971Y-86984685D01*
X119431726Y-87037489D01*
X119441670Y-87106647D01*
X119412645Y-87170203D01*
X119385972Y-87193315D01*
X119307174Y-87243955D01*
X119307172Y-87243956D01*
X119307172Y-87243957D01*
X119288505Y-87265500D01*
X119212923Y-87352726D01*
X119212922Y-87352728D01*
X119153134Y-87483643D01*
X119132653Y-87626100D01*
X119153134Y-87768556D01*
X119212922Y-87899471D01*
X119212923Y-87899473D01*
X119307172Y-88008243D01*
X119428247Y-88086053D01*
X119428250Y-88086054D01*
X119428249Y-88086054D01*
X119566336Y-88126599D01*
X119566338Y-88126600D01*
X119566339Y-88126600D01*
X119710262Y-88126600D01*
X119710262Y-88126599D01*
X119848353Y-88086053D01*
X119969428Y-88008243D01*
X120063677Y-87899473D01*
X120123465Y-87768557D01*
X120143947Y-87626100D01*
X120142639Y-87617005D01*
X120152579Y-87547849D01*
X120177692Y-87511677D01*
X120688051Y-87001318D01*
X120749374Y-86967834D01*
X120775732Y-86965000D01*
X121718009Y-86965000D01*
X121785048Y-86984685D01*
X121820399Y-87025482D01*
X121855751Y-86984685D01*
X121922790Y-86965000D01*
X122879400Y-86965000D01*
X122946439Y-86984685D01*
X122992194Y-87037489D01*
X123003400Y-87089000D01*
X123003400Y-88557044D01*
X122983715Y-88624083D01*
X122973114Y-88638246D01*
X122878423Y-88747526D01*
X122866672Y-88773258D01*
X122820916Y-88826061D01*
X122753877Y-88845745D01*
X122686837Y-88826060D01*
X122666197Y-88809426D01*
X122136867Y-88280096D01*
X122103382Y-88218773D01*
X122108366Y-88149081D01*
X122145878Y-88098971D01*
X122144823Y-88097753D01*
X122151520Y-88091947D01*
X122151528Y-88091943D01*
X122245777Y-87983173D01*
X122305565Y-87852257D01*
X122326047Y-87709800D01*
X122305565Y-87567343D01*
X122245777Y-87436427D01*
X122151528Y-87327657D01*
X122030453Y-87249847D01*
X122030451Y-87249846D01*
X122030449Y-87249845D01*
X122030450Y-87249845D01*
X121887857Y-87207977D01*
X121829078Y-87170203D01*
X121820399Y-87151200D01*
X121811722Y-87170203D01*
X121752944Y-87207977D01*
X121752943Y-87207977D01*
X121610349Y-87249845D01*
X121489273Y-87327656D01*
X121395023Y-87436426D01*
X121395022Y-87436428D01*
X121335234Y-87567343D01*
X121314753Y-87709800D01*
X121335234Y-87852256D01*
X121396694Y-87986833D01*
X121407900Y-88038345D01*
X121407900Y-88100767D01*
X121388215Y-88167806D01*
X121371581Y-88188448D01*
X120283648Y-89276381D01*
X120222325Y-89309866D01*
X120195967Y-89312700D01*
X111593201Y-89312700D01*
X111526162Y-89293015D01*
X111499488Y-89269903D01*
X111465828Y-89231057D01*
X111344753Y-89153247D01*
X111344751Y-89153246D01*
X111344749Y-89153245D01*
X111344750Y-89153245D01*
X111206663Y-89112700D01*
X111206661Y-89112700D01*
X111062739Y-89112700D01*
X111062736Y-89112700D01*
X110924649Y-89153245D01*
X110803573Y-89231056D01*
X110709323Y-89339826D01*
X110709322Y-89339828D01*
X110649534Y-89470743D01*
X110629053Y-89613200D01*
X110649534Y-89755656D01*
X110708241Y-89884203D01*
X110709323Y-89886573D01*
X110803572Y-89995343D01*
X110924647Y-90073153D01*
X110924650Y-90073154D01*
X110924649Y-90073154D01*
X111031807Y-90104617D01*
X111046197Y-90108843D01*
X111062736Y-90113699D01*
X111062738Y-90113700D01*
X111062739Y-90113700D01*
X111206662Y-90113700D01*
X111206662Y-90113699D01*
X111344753Y-90073153D01*
X111465828Y-89995343D01*
X111499488Y-89956496D01*
X111558267Y-89918723D01*
X111593201Y-89913700D01*
X112297806Y-89913700D01*
X112364845Y-89933385D01*
X112410600Y-89986189D01*
X112420544Y-90055347D01*
X112410601Y-90089211D01*
X112401634Y-90108844D01*
X112381153Y-90251300D01*
X112381153Y-90251301D01*
X112382461Y-90260403D01*
X112372513Y-90329561D01*
X112347403Y-90365724D01*
X111004948Y-91708181D01*
X110943625Y-91741666D01*
X110917267Y-91744500D01*
X104737304Y-91744500D01*
X104670265Y-91724815D01*
X104649623Y-91708181D01*
X101813140Y-88871698D01*
X101779655Y-88810375D01*
X101784639Y-88740683D01*
X101826511Y-88684750D01*
X101833731Y-88679736D01*
X101931128Y-88617143D01*
X101964788Y-88578296D01*
X102023567Y-88540523D01*
X102058501Y-88535500D01*
X102694167Y-88535500D01*
X102761206Y-88555185D01*
X102781848Y-88571819D01*
X104515039Y-90305010D01*
X104526310Y-90317962D01*
X104531039Y-90324225D01*
X104565317Y-90355474D01*
X104569458Y-90359429D01*
X104582203Y-90372174D01*
X104585931Y-90375270D01*
X104594324Y-90381918D01*
X104602575Y-90389440D01*
X104614065Y-90399915D01*
X104614066Y-90399915D01*
X104614067Y-90399916D01*
X104620521Y-90402416D01*
X104645806Y-90415744D01*
X104651518Y-90419657D01*
X104658743Y-90421356D01*
X104677521Y-90425772D01*
X104693909Y-90430846D01*
X104718827Y-90440500D01*
X104725752Y-90440500D01*
X104754140Y-90443793D01*
X104760881Y-90445379D01*
X104787333Y-90441689D01*
X104804464Y-90440500D01*
X109222553Y-90440500D01*
X109289592Y-90460185D01*
X109310234Y-90476819D01*
X109493990Y-90660575D01*
X109527475Y-90721898D01*
X109529047Y-90765902D01*
X109527739Y-90774999D01*
X109548220Y-90917456D01*
X109569976Y-90965094D01*
X109608009Y-91048373D01*
X109702258Y-91157143D01*
X109823333Y-91234953D01*
X109823336Y-91234954D01*
X109823335Y-91234954D01*
X109961422Y-91275499D01*
X109961424Y-91275500D01*
X109961425Y-91275500D01*
X110105348Y-91275500D01*
X110105348Y-91275499D01*
X110243439Y-91234953D01*
X110364514Y-91157143D01*
X110458763Y-91048373D01*
X110518551Y-90917457D01*
X110539033Y-90775000D01*
X110518551Y-90632543D01*
X110458763Y-90501627D01*
X110364514Y-90392857D01*
X110243439Y-90315047D01*
X110243437Y-90315046D01*
X110243435Y-90315045D01*
X110243436Y-90315045D01*
X110105349Y-90274500D01*
X110105347Y-90274500D01*
X110009219Y-90274500D01*
X109942180Y-90254815D01*
X109921538Y-90238181D01*
X109658348Y-89974991D01*
X109647073Y-89962035D01*
X109642341Y-89955768D01*
X109608069Y-89924525D01*
X109603946Y-89920589D01*
X109591183Y-89907826D01*
X109591182Y-89907825D01*
X109591180Y-89907823D01*
X109587463Y-89904737D01*
X109579065Y-89898084D01*
X109559319Y-89880084D01*
X109552856Y-89877580D01*
X109527578Y-89864256D01*
X109521867Y-89860344D01*
X109521864Y-89860343D01*
X109521865Y-89860343D01*
X109495869Y-89854228D01*
X109479475Y-89849151D01*
X109454560Y-89839500D01*
X109454559Y-89839500D01*
X109447635Y-89839500D01*
X109419244Y-89836206D01*
X109412505Y-89834621D01*
X109386052Y-89838311D01*
X109368922Y-89839500D01*
X104950833Y-89839500D01*
X104883794Y-89819815D01*
X104863152Y-89803181D01*
X103129962Y-88069991D01*
X103118687Y-88057035D01*
X103113955Y-88050768D01*
X103079683Y-88019525D01*
X103075560Y-88015589D01*
X103062797Y-88002826D01*
X103062796Y-88002825D01*
X103062794Y-88002823D01*
X103059077Y-87999737D01*
X103050679Y-87993084D01*
X103030933Y-87975084D01*
X103024470Y-87972580D01*
X102999192Y-87959256D01*
X102993481Y-87955344D01*
X102993478Y-87955343D01*
X102993479Y-87955343D01*
X102967483Y-87949228D01*
X102951089Y-87944151D01*
X102926174Y-87934500D01*
X102926173Y-87934500D01*
X102919249Y-87934500D01*
X102890858Y-87931206D01*
X102884119Y-87929621D01*
X102857666Y-87933311D01*
X102840536Y-87934500D01*
X102058501Y-87934500D01*
X101991462Y-87914815D01*
X101964788Y-87891703D01*
X101961354Y-87887740D01*
X101931128Y-87852857D01*
X101810053Y-87775047D01*
X101810051Y-87775046D01*
X101810049Y-87775045D01*
X101810050Y-87775045D01*
X101671963Y-87734500D01*
X101671961Y-87734500D01*
X101528039Y-87734500D01*
X101528036Y-87734500D01*
X101389949Y-87775045D01*
X101266489Y-87854388D01*
X101199449Y-87874072D01*
X101132411Y-87854388D01*
X101071859Y-87815474D01*
X101008953Y-87775047D01*
X101008951Y-87775046D01*
X101008949Y-87775045D01*
X101008950Y-87775045D01*
X100870863Y-87734500D01*
X100870861Y-87734500D01*
X100726939Y-87734500D01*
X100726936Y-87734500D01*
X100588849Y-87775045D01*
X100467773Y-87852856D01*
X100467772Y-87852856D01*
X100467772Y-87852857D01*
X100461657Y-87859914D01*
X100373523Y-87961626D01*
X100373522Y-87961628D01*
X100313734Y-88092543D01*
X100293253Y-88235000D01*
X100313734Y-88377456D01*
X100367756Y-88495745D01*
X100377700Y-88564904D01*
X100348675Y-88628459D01*
X100289897Y-88666234D01*
X100220028Y-88666234D01*
X100167281Y-88634938D01*
X98709023Y-87176681D01*
X98675538Y-87115358D01*
X98680522Y-87045666D01*
X98722394Y-86989733D01*
X98787858Y-86965316D01*
X98796704Y-86965000D01*
X105889197Y-86965000D01*
X105956236Y-86984685D01*
G37*
%TD.AperFunction*%
%TD*%
%TA.AperFunction,Conductor*%
%TO.N,GND*%
G36*
X155956236Y-86984685D02*
G01*
X155976878Y-87001319D01*
X156740569Y-87765010D01*
X156751840Y-87777962D01*
X156756569Y-87784225D01*
X156790847Y-87815474D01*
X156794988Y-87819429D01*
X156807733Y-87832174D01*
X156811461Y-87835270D01*
X156819854Y-87841918D01*
X156828654Y-87849940D01*
X156839594Y-87859914D01*
X156839595Y-87859914D01*
X156839597Y-87859916D01*
X156846060Y-87862419D01*
X156871337Y-87875743D01*
X156877049Y-87879656D01*
X156903044Y-87885769D01*
X156919440Y-87890846D01*
X156944357Y-87900500D01*
X156951281Y-87900500D01*
X156979671Y-87903793D01*
X156986411Y-87905379D01*
X157009185Y-87902201D01*
X157012864Y-87901689D01*
X157029994Y-87900500D01*
X158051767Y-87900500D01*
X158118806Y-87920185D01*
X158139447Y-87936818D01*
X158649612Y-88446984D01*
X159155142Y-88952514D01*
X159166413Y-88965466D01*
X159171139Y-88971725D01*
X159171141Y-88971727D01*
X159171142Y-88971728D01*
X159205406Y-89002964D01*
X159209547Y-89006919D01*
X159222301Y-89019673D01*
X159226042Y-89022779D01*
X159234434Y-89029427D01*
X159254162Y-89047412D01*
X159254163Y-89047413D01*
X159254167Y-89047416D01*
X159260621Y-89049916D01*
X159285906Y-89063243D01*
X159291620Y-89067157D01*
X159317617Y-89073271D01*
X159334018Y-89078351D01*
X159358924Y-89088000D01*
X159358927Y-89088000D01*
X159365852Y-89088000D01*
X159394240Y-89091293D01*
X159400981Y-89092879D01*
X159400985Y-89092878D01*
X159404052Y-89093020D01*
X159409370Y-89094851D01*
X159412168Y-89095510D01*
X159412101Y-89095792D01*
X159470113Y-89115775D01*
X159492044Y-89135681D01*
X159521472Y-89169643D01*
X159642547Y-89247453D01*
X159642550Y-89247454D01*
X159642549Y-89247454D01*
X159780636Y-89287999D01*
X159780638Y-89288000D01*
X159780639Y-89288000D01*
X159924562Y-89288000D01*
X159924562Y-89287999D01*
X160062653Y-89247453D01*
X160183728Y-89169643D01*
X160277977Y-89060873D01*
X160337765Y-88929957D01*
X160358247Y-88787500D01*
X160337765Y-88645043D01*
X160277977Y-88514127D01*
X160183728Y-88405357D01*
X160062653Y-88327547D01*
X160062651Y-88327546D01*
X160062649Y-88327545D01*
X160062650Y-88327545D01*
X159924563Y-88287000D01*
X159924561Y-88287000D01*
X159780639Y-88287000D01*
X159780636Y-88287000D01*
X159642549Y-88327545D01*
X159566850Y-88376194D01*
X159499810Y-88395878D01*
X159432771Y-88376193D01*
X159412130Y-88359559D01*
X158487562Y-87434991D01*
X158476287Y-87422035D01*
X158471555Y-87415768D01*
X158437283Y-87384525D01*
X158433160Y-87380589D01*
X158420397Y-87367826D01*
X158420396Y-87367825D01*
X158420394Y-87367823D01*
X158416677Y-87364737D01*
X158408279Y-87358084D01*
X158388533Y-87340084D01*
X158382070Y-87337580D01*
X158356792Y-87324256D01*
X158351081Y-87320344D01*
X158351078Y-87320343D01*
X158351079Y-87320343D01*
X158325083Y-87314228D01*
X158308689Y-87309151D01*
X158283774Y-87299500D01*
X158283773Y-87299500D01*
X158276849Y-87299500D01*
X158248458Y-87296206D01*
X158241719Y-87294621D01*
X158215266Y-87298311D01*
X158198136Y-87299500D01*
X157176363Y-87299500D01*
X157109324Y-87279815D01*
X157088682Y-87263181D01*
X157002182Y-87176681D01*
X156968697Y-87115358D01*
X156973681Y-87045666D01*
X157015553Y-86989733D01*
X157081017Y-86965316D01*
X157089863Y-86965000D01*
X169318932Y-86965000D01*
X169385971Y-86984685D01*
X169431726Y-87037489D01*
X169441670Y-87106647D01*
X169412645Y-87170203D01*
X169385972Y-87193315D01*
X169307174Y-87243955D01*
X169307172Y-87243956D01*
X169307172Y-87243957D01*
X169288505Y-87265500D01*
X169212923Y-87352726D01*
X169212922Y-87352728D01*
X169153134Y-87483643D01*
X169132653Y-87626100D01*
X169153134Y-87768556D01*
X169212922Y-87899471D01*
X169212923Y-87899473D01*
X169307172Y-88008243D01*
X169428247Y-88086053D01*
X169428250Y-88086054D01*
X169428249Y-88086054D01*
X169566336Y-88126599D01*
X169566338Y-88126600D01*
X169566339Y-88126600D01*
X169710262Y-88126600D01*
X169710262Y-88126599D01*
X169848353Y-88086053D01*
X169969428Y-88008243D01*
X170063677Y-87899473D01*
X170123465Y-87768557D01*
X170143947Y-87626100D01*
X170142639Y-87617005D01*
X170152579Y-87547849D01*
X170177692Y-87511677D01*
X170688051Y-87001318D01*
X170749374Y-86967834D01*
X170775732Y-86965000D01*
X171718009Y-86965000D01*
X171785048Y-86984685D01*
X171820399Y-87025482D01*
X171855751Y-86984685D01*
X171922790Y-86965000D01*
X172879400Y-86965000D01*
X172946439Y-86984685D01*
X172992194Y-87037489D01*
X173003400Y-87089000D01*
X173003400Y-88557044D01*
X172983715Y-88624083D01*
X172973114Y-88638246D01*
X172878423Y-88747526D01*
X172866672Y-88773258D01*
X172820916Y-88826061D01*
X172753877Y-88845745D01*
X172686837Y-88826060D01*
X172666197Y-88809426D01*
X172136867Y-88280096D01*
X172103382Y-88218773D01*
X172108366Y-88149081D01*
X172145878Y-88098971D01*
X172144823Y-88097753D01*
X172151520Y-88091947D01*
X172151528Y-88091943D01*
X172245777Y-87983173D01*
X172305565Y-87852257D01*
X172326047Y-87709800D01*
X172305565Y-87567343D01*
X172245777Y-87436427D01*
X172151528Y-87327657D01*
X172030453Y-87249847D01*
X172030451Y-87249846D01*
X172030449Y-87249845D01*
X172030450Y-87249845D01*
X171887857Y-87207977D01*
X171829078Y-87170203D01*
X171820399Y-87151200D01*
X171811722Y-87170203D01*
X171752944Y-87207977D01*
X171752943Y-87207977D01*
X171610349Y-87249845D01*
X171489273Y-87327656D01*
X171395023Y-87436426D01*
X171395022Y-87436428D01*
X171335234Y-87567343D01*
X171314753Y-87709800D01*
X171335234Y-87852256D01*
X171396694Y-87986833D01*
X171407900Y-88038345D01*
X171407900Y-88100767D01*
X171388215Y-88167806D01*
X171371581Y-88188448D01*
X170283648Y-89276381D01*
X170222325Y-89309866D01*
X170195967Y-89312700D01*
X161593201Y-89312700D01*
X161526162Y-89293015D01*
X161499488Y-89269903D01*
X161465828Y-89231057D01*
X161344753Y-89153247D01*
X161344751Y-89153246D01*
X161344749Y-89153245D01*
X161344750Y-89153245D01*
X161206663Y-89112700D01*
X161206661Y-89112700D01*
X161062739Y-89112700D01*
X161062736Y-89112700D01*
X160924649Y-89153245D01*
X160803573Y-89231056D01*
X160709323Y-89339826D01*
X160709322Y-89339828D01*
X160649534Y-89470743D01*
X160629053Y-89613200D01*
X160649534Y-89755656D01*
X160708241Y-89884203D01*
X160709323Y-89886573D01*
X160803572Y-89995343D01*
X160924647Y-90073153D01*
X160924650Y-90073154D01*
X160924649Y-90073154D01*
X161031807Y-90104617D01*
X161046197Y-90108843D01*
X161062736Y-90113699D01*
X161062738Y-90113700D01*
X161062739Y-90113700D01*
X161206662Y-90113700D01*
X161206662Y-90113699D01*
X161344753Y-90073153D01*
X161465828Y-89995343D01*
X161499488Y-89956496D01*
X161558267Y-89918723D01*
X161593201Y-89913700D01*
X162297806Y-89913700D01*
X162364845Y-89933385D01*
X162410600Y-89986189D01*
X162420544Y-90055347D01*
X162410601Y-90089211D01*
X162401634Y-90108844D01*
X162381153Y-90251300D01*
X162381153Y-90251301D01*
X162382461Y-90260403D01*
X162372513Y-90329561D01*
X162347403Y-90365724D01*
X161004948Y-91708181D01*
X160943625Y-91741666D01*
X160917267Y-91744500D01*
X154737304Y-91744500D01*
X154670265Y-91724815D01*
X154649623Y-91708181D01*
X151813140Y-88871698D01*
X151779655Y-88810375D01*
X151784639Y-88740683D01*
X151826511Y-88684750D01*
X151833731Y-88679736D01*
X151931128Y-88617143D01*
X151964788Y-88578296D01*
X152023567Y-88540523D01*
X152058501Y-88535500D01*
X152694167Y-88535500D01*
X152761206Y-88555185D01*
X152781848Y-88571819D01*
X154515039Y-90305010D01*
X154526310Y-90317962D01*
X154531039Y-90324225D01*
X154565317Y-90355474D01*
X154569458Y-90359429D01*
X154582203Y-90372174D01*
X154585931Y-90375270D01*
X154594324Y-90381918D01*
X154602575Y-90389440D01*
X154614065Y-90399915D01*
X154614066Y-90399915D01*
X154614067Y-90399916D01*
X154620521Y-90402416D01*
X154645806Y-90415744D01*
X154651518Y-90419657D01*
X154658743Y-90421356D01*
X154677521Y-90425772D01*
X154693909Y-90430846D01*
X154718827Y-90440500D01*
X154725752Y-90440500D01*
X154754140Y-90443793D01*
X154760881Y-90445379D01*
X154787333Y-90441689D01*
X154804464Y-90440500D01*
X159222553Y-90440500D01*
X159289592Y-90460185D01*
X159310234Y-90476819D01*
X159493990Y-90660575D01*
X159527475Y-90721898D01*
X159529047Y-90765902D01*
X159527739Y-90774999D01*
X159548220Y-90917456D01*
X159569976Y-90965094D01*
X159608009Y-91048373D01*
X159702258Y-91157143D01*
X159823333Y-91234953D01*
X159823336Y-91234954D01*
X159823335Y-91234954D01*
X159961422Y-91275499D01*
X159961424Y-91275500D01*
X159961425Y-91275500D01*
X160105348Y-91275500D01*
X160105348Y-91275499D01*
X160243439Y-91234953D01*
X160364514Y-91157143D01*
X160458763Y-91048373D01*
X160518551Y-90917457D01*
X160539033Y-90775000D01*
X160518551Y-90632543D01*
X160458763Y-90501627D01*
X160364514Y-90392857D01*
X160243439Y-90315047D01*
X160243437Y-90315046D01*
X160243435Y-90315045D01*
X160243436Y-90315045D01*
X160105349Y-90274500D01*
X160105347Y-90274500D01*
X160009219Y-90274500D01*
X159942180Y-90254815D01*
X159921538Y-90238181D01*
X159658348Y-89974991D01*
X159647073Y-89962035D01*
X159642341Y-89955768D01*
X159608069Y-89924525D01*
X159603946Y-89920589D01*
X159591183Y-89907826D01*
X159591182Y-89907825D01*
X159591180Y-89907823D01*
X159587463Y-89904737D01*
X159579065Y-89898084D01*
X159559319Y-89880084D01*
X159552856Y-89877580D01*
X159527578Y-89864256D01*
X159521867Y-89860344D01*
X159521864Y-89860343D01*
X159521865Y-89860343D01*
X159495869Y-89854228D01*
X159479475Y-89849151D01*
X159454560Y-89839500D01*
X159454559Y-89839500D01*
X159447635Y-89839500D01*
X159419244Y-89836206D01*
X159412505Y-89834621D01*
X159386052Y-89838311D01*
X159368922Y-89839500D01*
X154950833Y-89839500D01*
X154883794Y-89819815D01*
X154863152Y-89803181D01*
X153129962Y-88069991D01*
X153118687Y-88057035D01*
X153113955Y-88050768D01*
X153079683Y-88019525D01*
X153075560Y-88015589D01*
X153062797Y-88002826D01*
X153062796Y-88002825D01*
X153062794Y-88002823D01*
X153059077Y-87999737D01*
X153050679Y-87993084D01*
X153030933Y-87975084D01*
X153024470Y-87972580D01*
X152999192Y-87959256D01*
X152993481Y-87955344D01*
X152993478Y-87955343D01*
X152993479Y-87955343D01*
X152967483Y-87949228D01*
X152951089Y-87944151D01*
X152926174Y-87934500D01*
X152926173Y-87934500D01*
X152919249Y-87934500D01*
X152890858Y-87931206D01*
X152884119Y-87929621D01*
X152857666Y-87933311D01*
X152840536Y-87934500D01*
X152058501Y-87934500D01*
X151991462Y-87914815D01*
X151964788Y-87891703D01*
X151961354Y-87887740D01*
X151931128Y-87852857D01*
X151810053Y-87775047D01*
X151810051Y-87775046D01*
X151810049Y-87775045D01*
X151810050Y-87775045D01*
X151671963Y-87734500D01*
X151671961Y-87734500D01*
X151528039Y-87734500D01*
X151528036Y-87734500D01*
X151389949Y-87775045D01*
X151266489Y-87854388D01*
X151199449Y-87874072D01*
X151132411Y-87854388D01*
X151071859Y-87815474D01*
X151008953Y-87775047D01*
X151008951Y-87775046D01*
X151008949Y-87775045D01*
X151008950Y-87775045D01*
X150870863Y-87734500D01*
X150870861Y-87734500D01*
X150726939Y-87734500D01*
X150726936Y-87734500D01*
X150588849Y-87775045D01*
X150467773Y-87852856D01*
X150467772Y-87852856D01*
X150467772Y-87852857D01*
X150461657Y-87859914D01*
X150373523Y-87961626D01*
X150373522Y-87961628D01*
X150313734Y-88092543D01*
X150293253Y-88235000D01*
X150313734Y-88377456D01*
X150367756Y-88495745D01*
X150377700Y-88564904D01*
X150348675Y-88628459D01*
X150289897Y-88666234D01*
X150220028Y-88666234D01*
X150167281Y-88634938D01*
X148709023Y-87176681D01*
X148675538Y-87115358D01*
X148680522Y-87045666D01*
X148722394Y-86989733D01*
X148787858Y-86965316D01*
X148796704Y-86965000D01*
X155889197Y-86965000D01*
X155956236Y-86984685D01*
G37*
%TD.AperFunction*%
%TD*%
%TA.AperFunction,Conductor*%
%TO.N,GND*%
G36*
X105956236Y-136984685D02*
G01*
X105976878Y-137001319D01*
X106740569Y-137765010D01*
X106751840Y-137777962D01*
X106756569Y-137784225D01*
X106790847Y-137815474D01*
X106794988Y-137819429D01*
X106807733Y-137832174D01*
X106811461Y-137835270D01*
X106819854Y-137841918D01*
X106828654Y-137849940D01*
X106839594Y-137859914D01*
X106839595Y-137859914D01*
X106839597Y-137859916D01*
X106846060Y-137862419D01*
X106871337Y-137875743D01*
X106877049Y-137879656D01*
X106903044Y-137885769D01*
X106919440Y-137890846D01*
X106944357Y-137900500D01*
X106951281Y-137900500D01*
X106979671Y-137903793D01*
X106986411Y-137905379D01*
X107009185Y-137902201D01*
X107012864Y-137901689D01*
X107029994Y-137900500D01*
X108051767Y-137900500D01*
X108118806Y-137920185D01*
X108139447Y-137936818D01*
X108649612Y-138446984D01*
X109155142Y-138952514D01*
X109166413Y-138965466D01*
X109171139Y-138971725D01*
X109171141Y-138971727D01*
X109171142Y-138971728D01*
X109205406Y-139002964D01*
X109209547Y-139006919D01*
X109222301Y-139019673D01*
X109226042Y-139022779D01*
X109234434Y-139029427D01*
X109254162Y-139047412D01*
X109254163Y-139047413D01*
X109254167Y-139047416D01*
X109260621Y-139049916D01*
X109285906Y-139063243D01*
X109291620Y-139067157D01*
X109317617Y-139073271D01*
X109334018Y-139078351D01*
X109358924Y-139088000D01*
X109358927Y-139088000D01*
X109365852Y-139088000D01*
X109394240Y-139091293D01*
X109400981Y-139092879D01*
X109400985Y-139092878D01*
X109404052Y-139093020D01*
X109409370Y-139094851D01*
X109412168Y-139095510D01*
X109412101Y-139095792D01*
X109470113Y-139115775D01*
X109492044Y-139135681D01*
X109521472Y-139169643D01*
X109642547Y-139247453D01*
X109642550Y-139247454D01*
X109642549Y-139247454D01*
X109780636Y-139287999D01*
X109780638Y-139288000D01*
X109780639Y-139288000D01*
X109924562Y-139288000D01*
X109924562Y-139287999D01*
X110062653Y-139247453D01*
X110183728Y-139169643D01*
X110277977Y-139060873D01*
X110337765Y-138929957D01*
X110358247Y-138787500D01*
X110337765Y-138645043D01*
X110277977Y-138514127D01*
X110183728Y-138405357D01*
X110062653Y-138327547D01*
X110062651Y-138327546D01*
X110062649Y-138327545D01*
X110062650Y-138327545D01*
X109924563Y-138287000D01*
X109924561Y-138287000D01*
X109780639Y-138287000D01*
X109780636Y-138287000D01*
X109642549Y-138327545D01*
X109566850Y-138376194D01*
X109499810Y-138395878D01*
X109432771Y-138376193D01*
X109412130Y-138359559D01*
X108487562Y-137434991D01*
X108476287Y-137422035D01*
X108471555Y-137415768D01*
X108437283Y-137384525D01*
X108433160Y-137380589D01*
X108420397Y-137367826D01*
X108420396Y-137367825D01*
X108420394Y-137367823D01*
X108416677Y-137364737D01*
X108408279Y-137358084D01*
X108388533Y-137340084D01*
X108382070Y-137337580D01*
X108356792Y-137324256D01*
X108351081Y-137320344D01*
X108351078Y-137320343D01*
X108351079Y-137320343D01*
X108325083Y-137314228D01*
X108308689Y-137309151D01*
X108283774Y-137299500D01*
X108283773Y-137299500D01*
X108276849Y-137299500D01*
X108248458Y-137296206D01*
X108241719Y-137294621D01*
X108215266Y-137298311D01*
X108198136Y-137299500D01*
X107176363Y-137299500D01*
X107109324Y-137279815D01*
X107088682Y-137263181D01*
X107002182Y-137176681D01*
X106968697Y-137115358D01*
X106973681Y-137045666D01*
X107015553Y-136989733D01*
X107081017Y-136965316D01*
X107089863Y-136965000D01*
X119318932Y-136965000D01*
X119385971Y-136984685D01*
X119431726Y-137037489D01*
X119441670Y-137106647D01*
X119412645Y-137170203D01*
X119385972Y-137193315D01*
X119307174Y-137243955D01*
X119307172Y-137243956D01*
X119307172Y-137243957D01*
X119288505Y-137265500D01*
X119212923Y-137352726D01*
X119212922Y-137352728D01*
X119153134Y-137483643D01*
X119132653Y-137626100D01*
X119153134Y-137768556D01*
X119212922Y-137899471D01*
X119212923Y-137899473D01*
X119307172Y-138008243D01*
X119428247Y-138086053D01*
X119428250Y-138086054D01*
X119428249Y-138086054D01*
X119566336Y-138126599D01*
X119566338Y-138126600D01*
X119566339Y-138126600D01*
X119710262Y-138126600D01*
X119710262Y-138126599D01*
X119848353Y-138086053D01*
X119969428Y-138008243D01*
X120063677Y-137899473D01*
X120123465Y-137768557D01*
X120143947Y-137626100D01*
X120142639Y-137617005D01*
X120152579Y-137547849D01*
X120177692Y-137511677D01*
X120688051Y-137001318D01*
X120749374Y-136967834D01*
X120775732Y-136965000D01*
X121718009Y-136965000D01*
X121785048Y-136984685D01*
X121820399Y-137025482D01*
X121855751Y-136984685D01*
X121922790Y-136965000D01*
X122879400Y-136965000D01*
X122946439Y-136984685D01*
X122992194Y-137037489D01*
X123003400Y-137089000D01*
X123003400Y-138557044D01*
X122983715Y-138624083D01*
X122973114Y-138638246D01*
X122878423Y-138747526D01*
X122866672Y-138773258D01*
X122820916Y-138826061D01*
X122753877Y-138845745D01*
X122686837Y-138826060D01*
X122666197Y-138809426D01*
X122136867Y-138280096D01*
X122103382Y-138218773D01*
X122108366Y-138149081D01*
X122145878Y-138098971D01*
X122144823Y-138097753D01*
X122151520Y-138091947D01*
X122151528Y-138091943D01*
X122245777Y-137983173D01*
X122305565Y-137852257D01*
X122326047Y-137709800D01*
X122305565Y-137567343D01*
X122245777Y-137436427D01*
X122151528Y-137327657D01*
X122030453Y-137249847D01*
X122030451Y-137249846D01*
X122030449Y-137249845D01*
X122030450Y-137249845D01*
X121887857Y-137207977D01*
X121829078Y-137170203D01*
X121820399Y-137151200D01*
X121811722Y-137170203D01*
X121752944Y-137207977D01*
X121752943Y-137207977D01*
X121610349Y-137249845D01*
X121489273Y-137327656D01*
X121395023Y-137436426D01*
X121395022Y-137436428D01*
X121335234Y-137567343D01*
X121314753Y-137709800D01*
X121335234Y-137852256D01*
X121396694Y-137986833D01*
X121407900Y-138038345D01*
X121407900Y-138100767D01*
X121388215Y-138167806D01*
X121371581Y-138188448D01*
X120283648Y-139276381D01*
X120222325Y-139309866D01*
X120195967Y-139312700D01*
X111593201Y-139312700D01*
X111526162Y-139293015D01*
X111499488Y-139269903D01*
X111465828Y-139231057D01*
X111344753Y-139153247D01*
X111344751Y-139153246D01*
X111344749Y-139153245D01*
X111344750Y-139153245D01*
X111206663Y-139112700D01*
X111206661Y-139112700D01*
X111062739Y-139112700D01*
X111062736Y-139112700D01*
X110924649Y-139153245D01*
X110803573Y-139231056D01*
X110709323Y-139339826D01*
X110709322Y-139339828D01*
X110649534Y-139470743D01*
X110629053Y-139613200D01*
X110649534Y-139755656D01*
X110708241Y-139884203D01*
X110709323Y-139886573D01*
X110803572Y-139995343D01*
X110924647Y-140073153D01*
X110924650Y-140073154D01*
X110924649Y-140073154D01*
X111031807Y-140104617D01*
X111046197Y-140108843D01*
X111062736Y-140113699D01*
X111062738Y-140113700D01*
X111062739Y-140113700D01*
X111206662Y-140113700D01*
X111206662Y-140113699D01*
X111344753Y-140073153D01*
X111465828Y-139995343D01*
X111499488Y-139956496D01*
X111558267Y-139918723D01*
X111593201Y-139913700D01*
X112297806Y-139913700D01*
X112364845Y-139933385D01*
X112410600Y-139986189D01*
X112420544Y-140055347D01*
X112410601Y-140089211D01*
X112401634Y-140108844D01*
X112381153Y-140251300D01*
X112381153Y-140251301D01*
X112382461Y-140260403D01*
X112372513Y-140329561D01*
X112347403Y-140365724D01*
X111004948Y-141708181D01*
X110943625Y-141741666D01*
X110917267Y-141744500D01*
X104737304Y-141744500D01*
X104670265Y-141724815D01*
X104649623Y-141708181D01*
X101813140Y-138871698D01*
X101779655Y-138810375D01*
X101784639Y-138740683D01*
X101826511Y-138684750D01*
X101833731Y-138679736D01*
X101931128Y-138617143D01*
X101964788Y-138578296D01*
X102023567Y-138540523D01*
X102058501Y-138535500D01*
X102694167Y-138535500D01*
X102761206Y-138555185D01*
X102781848Y-138571819D01*
X104515039Y-140305010D01*
X104526310Y-140317962D01*
X104531039Y-140324225D01*
X104565317Y-140355474D01*
X104569458Y-140359429D01*
X104582203Y-140372174D01*
X104585931Y-140375270D01*
X104594324Y-140381918D01*
X104602575Y-140389440D01*
X104614065Y-140399915D01*
X104614066Y-140399915D01*
X104614067Y-140399916D01*
X104620521Y-140402416D01*
X104645806Y-140415744D01*
X104651518Y-140419657D01*
X104658743Y-140421356D01*
X104677521Y-140425772D01*
X104693909Y-140430846D01*
X104718827Y-140440500D01*
X104725752Y-140440500D01*
X104754140Y-140443793D01*
X104760881Y-140445379D01*
X104787333Y-140441689D01*
X104804464Y-140440500D01*
X109222553Y-140440500D01*
X109289592Y-140460185D01*
X109310234Y-140476819D01*
X109493990Y-140660575D01*
X109527475Y-140721898D01*
X109529047Y-140765902D01*
X109527739Y-140774999D01*
X109548220Y-140917456D01*
X109569976Y-140965094D01*
X109608009Y-141048373D01*
X109702258Y-141157143D01*
X109823333Y-141234953D01*
X109823336Y-141234954D01*
X109823335Y-141234954D01*
X109961422Y-141275499D01*
X109961424Y-141275500D01*
X109961425Y-141275500D01*
X110105348Y-141275500D01*
X110105348Y-141275499D01*
X110243439Y-141234953D01*
X110364514Y-141157143D01*
X110458763Y-141048373D01*
X110518551Y-140917457D01*
X110539033Y-140775000D01*
X110518551Y-140632543D01*
X110458763Y-140501627D01*
X110364514Y-140392857D01*
X110243439Y-140315047D01*
X110243437Y-140315046D01*
X110243435Y-140315045D01*
X110243436Y-140315045D01*
X110105349Y-140274500D01*
X110105347Y-140274500D01*
X110009219Y-140274500D01*
X109942180Y-140254815D01*
X109921538Y-140238181D01*
X109658348Y-139974991D01*
X109647073Y-139962035D01*
X109642341Y-139955768D01*
X109608069Y-139924525D01*
X109603946Y-139920589D01*
X109591183Y-139907826D01*
X109591182Y-139907825D01*
X109591180Y-139907823D01*
X109587463Y-139904737D01*
X109579065Y-139898084D01*
X109559319Y-139880084D01*
X109552856Y-139877580D01*
X109527578Y-139864256D01*
X109521867Y-139860344D01*
X109521864Y-139860343D01*
X109521865Y-139860343D01*
X109495869Y-139854228D01*
X109479475Y-139849151D01*
X109454560Y-139839500D01*
X109454559Y-139839500D01*
X109447635Y-139839500D01*
X109419244Y-139836206D01*
X109412505Y-139834621D01*
X109386052Y-139838311D01*
X109368922Y-139839500D01*
X104950833Y-139839500D01*
X104883794Y-139819815D01*
X104863152Y-139803181D01*
X103129962Y-138069991D01*
X103118687Y-138057035D01*
X103113955Y-138050768D01*
X103079683Y-138019525D01*
X103075560Y-138015589D01*
X103062797Y-138002826D01*
X103062796Y-138002825D01*
X103062794Y-138002823D01*
X103059077Y-137999737D01*
X103050679Y-137993084D01*
X103030933Y-137975084D01*
X103024470Y-137972580D01*
X102999192Y-137959256D01*
X102993481Y-137955344D01*
X102993478Y-137955343D01*
X102993479Y-137955343D01*
X102967483Y-137949228D01*
X102951089Y-137944151D01*
X102926174Y-137934500D01*
X102926173Y-137934500D01*
X102919249Y-137934500D01*
X102890858Y-137931206D01*
X102884119Y-137929621D01*
X102857666Y-137933311D01*
X102840536Y-137934500D01*
X102058501Y-137934500D01*
X101991462Y-137914815D01*
X101964788Y-137891703D01*
X101961354Y-137887740D01*
X101931128Y-137852857D01*
X101810053Y-137775047D01*
X101810051Y-137775046D01*
X101810049Y-137775045D01*
X101810050Y-137775045D01*
X101671963Y-137734500D01*
X101671961Y-137734500D01*
X101528039Y-137734500D01*
X101528036Y-137734500D01*
X101389949Y-137775045D01*
X101266489Y-137854388D01*
X101199449Y-137874072D01*
X101132411Y-137854388D01*
X101071859Y-137815474D01*
X101008953Y-137775047D01*
X101008951Y-137775046D01*
X101008949Y-137775045D01*
X101008950Y-137775045D01*
X100870863Y-137734500D01*
X100870861Y-137734500D01*
X100726939Y-137734500D01*
X100726936Y-137734500D01*
X100588849Y-137775045D01*
X100467773Y-137852856D01*
X100467772Y-137852856D01*
X100467772Y-137852857D01*
X100461657Y-137859914D01*
X100373523Y-137961626D01*
X100373522Y-137961628D01*
X100313734Y-138092543D01*
X100293253Y-138235000D01*
X100313734Y-138377456D01*
X100367756Y-138495745D01*
X100377700Y-138564904D01*
X100348675Y-138628459D01*
X100289897Y-138666234D01*
X100220028Y-138666234D01*
X100167281Y-138634938D01*
X98709023Y-137176681D01*
X98675538Y-137115358D01*
X98680522Y-137045666D01*
X98722394Y-136989733D01*
X98787858Y-136965316D01*
X98796704Y-136965000D01*
X105889197Y-136965000D01*
X105956236Y-136984685D01*
G37*
%TD.AperFunction*%
%TD*%
%TA.AperFunction,Conductor*%
%TO.N,GND*%
G36*
X155956236Y-136984685D02*
G01*
X155976878Y-137001319D01*
X156740569Y-137765010D01*
X156751840Y-137777962D01*
X156756569Y-137784225D01*
X156790847Y-137815474D01*
X156794988Y-137819429D01*
X156807733Y-137832174D01*
X156811461Y-137835270D01*
X156819854Y-137841918D01*
X156828654Y-137849940D01*
X156839594Y-137859914D01*
X156839595Y-137859914D01*
X156839597Y-137859916D01*
X156846060Y-137862419D01*
X156871337Y-137875743D01*
X156877049Y-137879656D01*
X156903044Y-137885769D01*
X156919440Y-137890846D01*
X156944357Y-137900500D01*
X156951281Y-137900500D01*
X156979671Y-137903793D01*
X156986411Y-137905379D01*
X157009185Y-137902201D01*
X157012864Y-137901689D01*
X157029994Y-137900500D01*
X158051767Y-137900500D01*
X158118806Y-137920185D01*
X158139447Y-137936818D01*
X158649612Y-138446984D01*
X159155142Y-138952514D01*
X159166413Y-138965466D01*
X159171139Y-138971725D01*
X159171141Y-138971727D01*
X159171142Y-138971728D01*
X159205406Y-139002964D01*
X159209547Y-139006919D01*
X159222301Y-139019673D01*
X159226042Y-139022779D01*
X159234434Y-139029427D01*
X159254162Y-139047412D01*
X159254163Y-139047413D01*
X159254167Y-139047416D01*
X159260621Y-139049916D01*
X159285906Y-139063243D01*
X159291620Y-139067157D01*
X159317617Y-139073271D01*
X159334018Y-139078351D01*
X159358924Y-139088000D01*
X159358927Y-139088000D01*
X159365852Y-139088000D01*
X159394240Y-139091293D01*
X159400981Y-139092879D01*
X159400985Y-139092878D01*
X159404052Y-139093020D01*
X159409370Y-139094851D01*
X159412168Y-139095510D01*
X159412101Y-139095792D01*
X159470113Y-139115775D01*
X159492044Y-139135681D01*
X159521472Y-139169643D01*
X159642547Y-139247453D01*
X159642550Y-139247454D01*
X159642549Y-139247454D01*
X159780636Y-139287999D01*
X159780638Y-139288000D01*
X159780639Y-139288000D01*
X159924562Y-139288000D01*
X159924562Y-139287999D01*
X160062653Y-139247453D01*
X160183728Y-139169643D01*
X160277977Y-139060873D01*
X160337765Y-138929957D01*
X160358247Y-138787500D01*
X160337765Y-138645043D01*
X160277977Y-138514127D01*
X160183728Y-138405357D01*
X160062653Y-138327547D01*
X160062651Y-138327546D01*
X160062649Y-138327545D01*
X160062650Y-138327545D01*
X159924563Y-138287000D01*
X159924561Y-138287000D01*
X159780639Y-138287000D01*
X159780636Y-138287000D01*
X159642549Y-138327545D01*
X159566850Y-138376194D01*
X159499810Y-138395878D01*
X159432771Y-138376193D01*
X159412130Y-138359559D01*
X158487562Y-137434991D01*
X158476287Y-137422035D01*
X158471555Y-137415768D01*
X158437283Y-137384525D01*
X158433160Y-137380589D01*
X158420397Y-137367826D01*
X158420396Y-137367825D01*
X158420394Y-137367823D01*
X158416677Y-137364737D01*
X158408279Y-137358084D01*
X158388533Y-137340084D01*
X158382070Y-137337580D01*
X158356792Y-137324256D01*
X158351081Y-137320344D01*
X158351078Y-137320343D01*
X158351079Y-137320343D01*
X158325083Y-137314228D01*
X158308689Y-137309151D01*
X158283774Y-137299500D01*
X158283773Y-137299500D01*
X158276849Y-137299500D01*
X158248458Y-137296206D01*
X158241719Y-137294621D01*
X158215266Y-137298311D01*
X158198136Y-137299500D01*
X157176363Y-137299500D01*
X157109324Y-137279815D01*
X157088682Y-137263181D01*
X157002182Y-137176681D01*
X156968697Y-137115358D01*
X156973681Y-137045666D01*
X157015553Y-136989733D01*
X157081017Y-136965316D01*
X157089863Y-136965000D01*
X169318932Y-136965000D01*
X169385971Y-136984685D01*
X169431726Y-137037489D01*
X169441670Y-137106647D01*
X169412645Y-137170203D01*
X169385972Y-137193315D01*
X169307174Y-137243955D01*
X169307172Y-137243956D01*
X169307172Y-137243957D01*
X169288505Y-137265500D01*
X169212923Y-137352726D01*
X169212922Y-137352728D01*
X169153134Y-137483643D01*
X169132653Y-137626100D01*
X169153134Y-137768556D01*
X169212922Y-137899471D01*
X169212923Y-137899473D01*
X169307172Y-138008243D01*
X169428247Y-138086053D01*
X169428250Y-138086054D01*
X169428249Y-138086054D01*
X169566336Y-138126599D01*
X169566338Y-138126600D01*
X169566339Y-138126600D01*
X169710262Y-138126600D01*
X169710262Y-138126599D01*
X169848353Y-138086053D01*
X169969428Y-138008243D01*
X170063677Y-137899473D01*
X170123465Y-137768557D01*
X170143947Y-137626100D01*
X170142639Y-137617005D01*
X170152579Y-137547849D01*
X170177692Y-137511677D01*
X170688051Y-137001318D01*
X170749374Y-136967834D01*
X170775732Y-136965000D01*
X171718009Y-136965000D01*
X171785048Y-136984685D01*
X171820399Y-137025482D01*
X171855751Y-136984685D01*
X171922790Y-136965000D01*
X172879400Y-136965000D01*
X172946439Y-136984685D01*
X172992194Y-137037489D01*
X173003400Y-137089000D01*
X173003400Y-138557044D01*
X172983715Y-138624083D01*
X172973114Y-138638246D01*
X172878423Y-138747526D01*
X172866672Y-138773258D01*
X172820916Y-138826061D01*
X172753877Y-138845745D01*
X172686837Y-138826060D01*
X172666197Y-138809426D01*
X172136867Y-138280096D01*
X172103382Y-138218773D01*
X172108366Y-138149081D01*
X172145878Y-138098971D01*
X172144823Y-138097753D01*
X172151520Y-138091947D01*
X172151528Y-138091943D01*
X172245777Y-137983173D01*
X172305565Y-137852257D01*
X172326047Y-137709800D01*
X172305565Y-137567343D01*
X172245777Y-137436427D01*
X172151528Y-137327657D01*
X172030453Y-137249847D01*
X172030451Y-137249846D01*
X172030449Y-137249845D01*
X172030450Y-137249845D01*
X171887857Y-137207977D01*
X171829078Y-137170203D01*
X171820399Y-137151200D01*
X171811722Y-137170203D01*
X171752944Y-137207977D01*
X171752943Y-137207977D01*
X171610349Y-137249845D01*
X171489273Y-137327656D01*
X171395023Y-137436426D01*
X171395022Y-137436428D01*
X171335234Y-137567343D01*
X171314753Y-137709800D01*
X171335234Y-137852256D01*
X171396694Y-137986833D01*
X171407900Y-138038345D01*
X171407900Y-138100767D01*
X171388215Y-138167806D01*
X171371581Y-138188448D01*
X170283648Y-139276381D01*
X170222325Y-139309866D01*
X170195967Y-139312700D01*
X161593201Y-139312700D01*
X161526162Y-139293015D01*
X161499488Y-139269903D01*
X161465828Y-139231057D01*
X161344753Y-139153247D01*
X161344751Y-139153246D01*
X161344749Y-139153245D01*
X161344750Y-139153245D01*
X161206663Y-139112700D01*
X161206661Y-139112700D01*
X161062739Y-139112700D01*
X161062736Y-139112700D01*
X160924649Y-139153245D01*
X160803573Y-139231056D01*
X160709323Y-139339826D01*
X160709322Y-139339828D01*
X160649534Y-139470743D01*
X160629053Y-139613200D01*
X160649534Y-139755656D01*
X160708241Y-139884203D01*
X160709323Y-139886573D01*
X160803572Y-139995343D01*
X160924647Y-140073153D01*
X160924650Y-140073154D01*
X160924649Y-140073154D01*
X161031807Y-140104617D01*
X161046197Y-140108843D01*
X161062736Y-140113699D01*
X161062738Y-140113700D01*
X161062739Y-140113700D01*
X161206662Y-140113700D01*
X161206662Y-140113699D01*
X161344753Y-140073153D01*
X161465828Y-139995343D01*
X161499488Y-139956496D01*
X161558267Y-139918723D01*
X161593201Y-139913700D01*
X162297806Y-139913700D01*
X162364845Y-139933385D01*
X162410600Y-139986189D01*
X162420544Y-140055347D01*
X162410601Y-140089211D01*
X162401634Y-140108844D01*
X162381153Y-140251300D01*
X162381153Y-140251301D01*
X162382461Y-140260403D01*
X162372513Y-140329561D01*
X162347403Y-140365724D01*
X161004948Y-141708181D01*
X160943625Y-141741666D01*
X160917267Y-141744500D01*
X154737304Y-141744500D01*
X154670265Y-141724815D01*
X154649623Y-141708181D01*
X151813140Y-138871698D01*
X151779655Y-138810375D01*
X151784639Y-138740683D01*
X151826511Y-138684750D01*
X151833731Y-138679736D01*
X151931128Y-138617143D01*
X151964788Y-138578296D01*
X152023567Y-138540523D01*
X152058501Y-138535500D01*
X152694167Y-138535500D01*
X152761206Y-138555185D01*
X152781848Y-138571819D01*
X154515039Y-140305010D01*
X154526310Y-140317962D01*
X154531039Y-140324225D01*
X154565317Y-140355474D01*
X154569458Y-140359429D01*
X154582203Y-140372174D01*
X154585931Y-140375270D01*
X154594324Y-140381918D01*
X154602575Y-140389440D01*
X154614065Y-140399915D01*
X154614066Y-140399915D01*
X154614067Y-140399916D01*
X154620521Y-140402416D01*
X154645806Y-140415744D01*
X154651518Y-140419657D01*
X154658743Y-140421356D01*
X154677521Y-140425772D01*
X154693909Y-140430846D01*
X154718827Y-140440500D01*
X154725752Y-140440500D01*
X154754140Y-140443793D01*
X154760881Y-140445379D01*
X154787333Y-140441689D01*
X154804464Y-140440500D01*
X159222553Y-140440500D01*
X159289592Y-140460185D01*
X159310234Y-140476819D01*
X159493990Y-140660575D01*
X159527475Y-140721898D01*
X159529047Y-140765902D01*
X159527739Y-140774999D01*
X159548220Y-140917456D01*
X159569976Y-140965094D01*
X159608009Y-141048373D01*
X159702258Y-141157143D01*
X159823333Y-141234953D01*
X159823336Y-141234954D01*
X159823335Y-141234954D01*
X159961422Y-141275499D01*
X159961424Y-141275500D01*
X159961425Y-141275500D01*
X160105348Y-141275500D01*
X160105348Y-141275499D01*
X160243439Y-141234953D01*
X160364514Y-141157143D01*
X160458763Y-141048373D01*
X160518551Y-140917457D01*
X160539033Y-140775000D01*
X160518551Y-140632543D01*
X160458763Y-140501627D01*
X160364514Y-140392857D01*
X160243439Y-140315047D01*
X160243437Y-140315046D01*
X160243435Y-140315045D01*
X160243436Y-140315045D01*
X160105349Y-140274500D01*
X160105347Y-140274500D01*
X160009219Y-140274500D01*
X159942180Y-140254815D01*
X159921538Y-140238181D01*
X159658348Y-139974991D01*
X159647073Y-139962035D01*
X159642341Y-139955768D01*
X159608069Y-139924525D01*
X159603946Y-139920589D01*
X159591183Y-139907826D01*
X159591182Y-139907825D01*
X159591180Y-139907823D01*
X159587463Y-139904737D01*
X159579065Y-139898084D01*
X159559319Y-139880084D01*
X159552856Y-139877580D01*
X159527578Y-139864256D01*
X159521867Y-139860344D01*
X159521864Y-139860343D01*
X159521865Y-139860343D01*
X159495869Y-139854228D01*
X159479475Y-139849151D01*
X159454560Y-139839500D01*
X159454559Y-139839500D01*
X159447635Y-139839500D01*
X159419244Y-139836206D01*
X159412505Y-139834621D01*
X159386052Y-139838311D01*
X159368922Y-139839500D01*
X154950833Y-139839500D01*
X154883794Y-139819815D01*
X154863152Y-139803181D01*
X153129962Y-138069991D01*
X153118687Y-138057035D01*
X153113955Y-138050768D01*
X153079683Y-138019525D01*
X153075560Y-138015589D01*
X153062797Y-138002826D01*
X153062796Y-138002825D01*
X153062794Y-138002823D01*
X153059077Y-137999737D01*
X153050679Y-137993084D01*
X153030933Y-137975084D01*
X153024470Y-137972580D01*
X152999192Y-137959256D01*
X152993481Y-137955344D01*
X152993478Y-137955343D01*
X152993479Y-137955343D01*
X152967483Y-137949228D01*
X152951089Y-137944151D01*
X152926174Y-137934500D01*
X152926173Y-137934500D01*
X152919249Y-137934500D01*
X152890858Y-137931206D01*
X152884119Y-137929621D01*
X152857666Y-137933311D01*
X152840536Y-137934500D01*
X152058501Y-137934500D01*
X151991462Y-137914815D01*
X151964788Y-137891703D01*
X151961354Y-137887740D01*
X151931128Y-137852857D01*
X151810053Y-137775047D01*
X151810051Y-137775046D01*
X151810049Y-137775045D01*
X151810050Y-137775045D01*
X151671963Y-137734500D01*
X151671961Y-137734500D01*
X151528039Y-137734500D01*
X151528036Y-137734500D01*
X151389949Y-137775045D01*
X151266489Y-137854388D01*
X151199449Y-137874072D01*
X151132411Y-137854388D01*
X151071859Y-137815474D01*
X151008953Y-137775047D01*
X151008951Y-137775046D01*
X151008949Y-137775045D01*
X151008950Y-137775045D01*
X150870863Y-137734500D01*
X150870861Y-137734500D01*
X150726939Y-137734500D01*
X150726936Y-137734500D01*
X150588849Y-137775045D01*
X150467773Y-137852856D01*
X150467772Y-137852856D01*
X150467772Y-137852857D01*
X150461657Y-137859914D01*
X150373523Y-137961626D01*
X150373522Y-137961628D01*
X150313734Y-138092543D01*
X150293253Y-138235000D01*
X150313734Y-138377456D01*
X150367756Y-138495745D01*
X150377700Y-138564904D01*
X150348675Y-138628459D01*
X150289897Y-138666234D01*
X150220028Y-138666234D01*
X150167281Y-138634938D01*
X148709023Y-137176681D01*
X148675538Y-137115358D01*
X148680522Y-137045666D01*
X148722394Y-136989733D01*
X148787858Y-136965316D01*
X148796704Y-136965000D01*
X155889197Y-136965000D01*
X155956236Y-136984685D01*
G37*
%TD.AperFunction*%
%TD*%
M02*
