%TF.GenerationSoftware,KiCad,Pcbnew,7.0.11+dfsg-1build4*%
%TF.CreationDate,2026-01-29T22:33:19-05:00*%
%TF.ProjectId,,58585858-5858-4585-9858-585858585858,rev?*%
%TF.SameCoordinates,Original*%
%TF.FileFunction,Soldermask,Bot*%
%TF.FilePolarity,Negative*%
%FSLAX46Y46*%
G04 Gerber Fmt 4.6, Leading zero omitted, Abs format (unit mm)*
G04 Created by KiCad (PCBNEW 7.0.11+dfsg-1build4) date 2026-01-29 22:33:19*
%MOMM*%
%LPD*%
G01*
G04 APERTURE LIST*
G04 Aperture macros list*
%AMRoundRect*
0 Rectangle with rounded corners*
0 $1 Rounding radius*
0 $2 $3 $4 $5 $6 $7 $8 $9 X,Y pos of 4 corners*
0 Add a 4 corners polygon primitive as box body*
4,1,4,$2,$3,$4,$5,$6,$7,$8,$9,$2,$3,0*
0 Add four circle primitives for the rounded corners*
1,1,$1+$1,$2,$3*
1,1,$1+$1,$4,$5*
1,1,$1+$1,$6,$7*
1,1,$1+$1,$8,$9*
0 Add four rect primitives between the rounded corners*
20,1,$1+$1,$2,$3,$4,$5,0*
20,1,$1+$1,$4,$5,$6,$7,0*
20,1,$1+$1,$6,$7,$8,$9,0*
20,1,$1+$1,$8,$9,$2,$3,0*%
G04 Aperture macros list end*
%ADD10C,3.000000*%
%ADD11R,1.700000X1.700000*%
%ADD12O,1.700000X1.700000*%
%ADD13C,1.600000*%
%ADD14RoundRect,0.340500X0.659500X-0.409500X0.659500X0.409500X-0.659500X0.409500X-0.659500X-0.409500X0*%
%ADD15O,2.000000X1.500000*%
%ADD16C,5.000000*%
G04 APERTURE END LIST*
D10*
%TO.C,MH1*%
X117170000Y-83485000D03*
%TD*%
%TO.C,MH4*%
X159170000Y-83485000D03*
%TD*%
D11*
%TO.C,J1*%
X161070000Y-90485000D03*
D12*
X161070000Y-93025000D03*
X161070000Y-95565000D03*
X161070000Y-98105000D03*
X161070000Y-100645000D03*
X161070000Y-103185000D03*
X161070000Y-105725000D03*
X161070000Y-108265000D03*
X161070000Y-110805000D03*
X161070000Y-113345000D03*
%TD*%
D10*
%TO.C,MH2*%
X117170000Y-125485000D03*
%TD*%
D13*
%TO.C,U1*%
X143215000Y-97255000D03*
D14*
X133440000Y-103185000D03*
D15*
X133440000Y-105725000D03*
X142890000Y-105725000D03*
X142890000Y-103185000D03*
%TD*%
D16*
%TO.C,REF\u002A\u002A*%
X138170000Y-104485000D03*
%TD*%
D10*
%TO.C,MH3*%
X159170000Y-125485000D03*
%TD*%
%TO.C,MH1*%
X67170000Y-83485000D03*
%TD*%
%TO.C,MH4*%
X109170000Y-83485000D03*
%TD*%
D11*
%TO.C,J1*%
X111070000Y-90485000D03*
D12*
X111070000Y-93025000D03*
X111070000Y-95565000D03*
X111070000Y-98105000D03*
X111070000Y-100645000D03*
X111070000Y-103185000D03*
X111070000Y-105725000D03*
X111070000Y-108265000D03*
X111070000Y-110805000D03*
X111070000Y-113345000D03*
%TD*%
D10*
%TO.C,MH2*%
X67170000Y-125485000D03*
%TD*%
D13*
%TO.C,U1*%
X93215000Y-97255000D03*
D14*
X83440000Y-103185000D03*
D15*
X83440000Y-105725000D03*
X92890000Y-105725000D03*
X92890000Y-103185000D03*
%TD*%
D16*
%TO.C,REF\u002A\u002A*%
X88170000Y-104485000D03*
%TD*%
D10*
%TO.C,MH3*%
X109170000Y-125485000D03*
%TD*%
%TO.C,MH1*%
X117170000Y-33485000D03*
%TD*%
%TO.C,MH4*%
X159170000Y-33485000D03*
%TD*%
D11*
%TO.C,J1*%
X161070000Y-40485000D03*
D12*
X161070000Y-43025000D03*
X161070000Y-45565000D03*
X161070000Y-48105000D03*
X161070000Y-50645000D03*
X161070000Y-53185000D03*
X161070000Y-55725000D03*
X161070000Y-58265000D03*
X161070000Y-60805000D03*
X161070000Y-63345000D03*
%TD*%
D10*
%TO.C,MH2*%
X117170000Y-75485000D03*
%TD*%
D13*
%TO.C,U1*%
X143215000Y-47255000D03*
D14*
X133440000Y-53185000D03*
D15*
X133440000Y-55725000D03*
X142890000Y-55725000D03*
X142890000Y-53185000D03*
%TD*%
D16*
%TO.C,REF\u002A\u002A*%
X138170000Y-54485000D03*
%TD*%
D10*
%TO.C,MH3*%
X159170000Y-75485000D03*
%TD*%
%TO.C,MH3*%
X109170000Y-75485000D03*
%TD*%
%TO.C,MH2*%
X67170000Y-75485000D03*
%TD*%
D11*
%TO.C,J1*%
X111070000Y-40485000D03*
D12*
X111070000Y-43025000D03*
X111070000Y-45565000D03*
X111070000Y-48105000D03*
X111070000Y-50645000D03*
X111070000Y-53185000D03*
X111070000Y-55725000D03*
X111070000Y-58265000D03*
X111070000Y-60805000D03*
X111070000Y-63345000D03*
%TD*%
D16*
%TO.C,REF\u002A\u002A*%
X88170000Y-54485000D03*
%TD*%
D13*
%TO.C,U1*%
X93215000Y-47255000D03*
D14*
X83440000Y-53185000D03*
D15*
X83440000Y-55725000D03*
X92890000Y-55725000D03*
X92890000Y-53185000D03*
%TD*%
D10*
%TO.C,MH4*%
X109170000Y-33485000D03*
%TD*%
%TO.C,MH1*%
X67170000Y-33485000D03*
%TD*%
M02*
