%TF.GenerationSoftware,KiCad,Pcbnew,7.0.11+dfsg-1build4*%
%TF.CreationDate,2026-01-29T22:43:39-05:00*%
%TF.ProjectId,,58585858-5858-4585-9858-585858585858,rev?*%
%TF.SameCoordinates,Original*%
%TF.FileFunction,Soldermask,Bot*%
%TF.FilePolarity,Negative*%
%FSLAX46Y46*%
G04 Gerber Fmt 4.6, Leading zero omitted, Abs format (unit mm)*
G04 Created by KiCad (PCBNEW 7.0.11+dfsg-1build4) date 2026-01-29 22:43:39*
%MOMM*%
%LPD*%
G01*
G04 APERTURE LIST*
G04 Aperture macros list*
%AMRoundRect*
0 Rectangle with rounded corners*
0 $1 Rounding radius*
0 $2 $3 $4 $5 $6 $7 $8 $9 X,Y pos of 4 corners*
0 Add a 4 corners polygon primitive as box body*
4,1,4,$2,$3,$4,$5,$6,$7,$8,$9,$2,$3,0*
0 Add four circle primitives for the rounded corners*
1,1,$1+$1,$2,$3*
1,1,$1+$1,$4,$5*
1,1,$1+$1,$6,$7*
1,1,$1+$1,$8,$9*
0 Add four rect primitives between the rounded corners*
20,1,$1+$1,$2,$3,$4,$5,0*
20,1,$1+$1,$4,$5,$6,$7,0*
20,1,$1+$1,$6,$7,$8,$9,0*
20,1,$1+$1,$8,$9,$2,$3,0*%
G04 Aperture macros list end*
%ADD10C,3.000000*%
%ADD11R,1.700000X1.700000*%
%ADD12O,1.700000X1.700000*%
%ADD13C,1.600000*%
%ADD14RoundRect,0.340500X0.659500X-0.409500X0.659500X0.409500X-0.659500X0.409500X-0.659500X-0.409500X0*%
%ADD15O,2.000000X1.500000*%
%ADD16C,5.000000*%
G04 APERTURE END LIST*
D10*
%TO.C,MH1*%
X134950000Y-99360000D03*
%TD*%
%TO.C,MH3*%
X176950000Y-141360000D03*
%TD*%
D11*
%TO.C,J1*%
X178850000Y-106360000D03*
D12*
X178850000Y-108900000D03*
X178850000Y-111440000D03*
X178850000Y-113980000D03*
X178850000Y-116520000D03*
X178850000Y-119060000D03*
X178850000Y-121600000D03*
X178850000Y-124140000D03*
X178850000Y-126680000D03*
X178850000Y-129220000D03*
%TD*%
D13*
%TO.C,U1*%
X160995000Y-113130000D03*
D14*
X151220000Y-119060000D03*
D15*
X151220000Y-121600000D03*
X160670000Y-121600000D03*
X160670000Y-119060000D03*
%TD*%
D16*
%TO.C,REF\u002A\u002A*%
X155950000Y-120360000D03*
%TD*%
D10*
%TO.C,MH4*%
X176950000Y-99360000D03*
%TD*%
%TO.C,MH2*%
X134950000Y-141360000D03*
%TD*%
%TO.C,MH1*%
X84950000Y-99360000D03*
%TD*%
%TO.C,MH3*%
X126950000Y-141360000D03*
%TD*%
D11*
%TO.C,J1*%
X128850000Y-106360000D03*
D12*
X128850000Y-108900000D03*
X128850000Y-111440000D03*
X128850000Y-113980000D03*
X128850000Y-116520000D03*
X128850000Y-119060000D03*
X128850000Y-121600000D03*
X128850000Y-124140000D03*
X128850000Y-126680000D03*
X128850000Y-129220000D03*
%TD*%
D13*
%TO.C,U1*%
X110995000Y-113130000D03*
D14*
X101220000Y-119060000D03*
D15*
X101220000Y-121600000D03*
X110670000Y-121600000D03*
X110670000Y-119060000D03*
%TD*%
D16*
%TO.C,REF\u002A\u002A*%
X105950000Y-120360000D03*
%TD*%
D10*
%TO.C,MH4*%
X126950000Y-99360000D03*
%TD*%
%TO.C,MH2*%
X84950000Y-141360000D03*
%TD*%
%TO.C,MH1*%
X134950000Y-49360000D03*
%TD*%
%TO.C,MH3*%
X176950000Y-91360000D03*
%TD*%
D11*
%TO.C,J1*%
X178850000Y-56360000D03*
D12*
X178850000Y-58900000D03*
X178850000Y-61440000D03*
X178850000Y-63980000D03*
X178850000Y-66520000D03*
X178850000Y-69060000D03*
X178850000Y-71600000D03*
X178850000Y-74140000D03*
X178850000Y-76680000D03*
X178850000Y-79220000D03*
%TD*%
D13*
%TO.C,U1*%
X160995000Y-63130000D03*
D14*
X151220000Y-69060000D03*
D15*
X151220000Y-71600000D03*
X160670000Y-71600000D03*
X160670000Y-69060000D03*
%TD*%
D16*
%TO.C,REF\u002A\u002A*%
X155950000Y-70360000D03*
%TD*%
D10*
%TO.C,MH4*%
X176950000Y-49360000D03*
%TD*%
%TO.C,MH2*%
X134950000Y-91360000D03*
%TD*%
%TO.C,MH3*%
X126950000Y-91360000D03*
%TD*%
%TO.C,MH2*%
X84950000Y-91360000D03*
%TD*%
D11*
%TO.C,J1*%
X128850000Y-56360000D03*
D12*
X128850000Y-58900000D03*
X128850000Y-61440000D03*
X128850000Y-63980000D03*
X128850000Y-66520000D03*
X128850000Y-69060000D03*
X128850000Y-71600000D03*
X128850000Y-74140000D03*
X128850000Y-76680000D03*
X128850000Y-79220000D03*
%TD*%
D16*
%TO.C,REF\u002A\u002A*%
X105950000Y-70360000D03*
%TD*%
D13*
%TO.C,U1*%
X110995000Y-63130000D03*
D14*
X101220000Y-69060000D03*
D15*
X101220000Y-71600000D03*
X110670000Y-71600000D03*
X110670000Y-69060000D03*
%TD*%
D10*
%TO.C,MH4*%
X126950000Y-49360000D03*
%TD*%
%TO.C,MH1*%
X84950000Y-49360000D03*
%TD*%
M02*
