%TF.GenerationSoftware,KiCad,Pcbnew,7.0.11+dfsg-1build4*%
%TF.CreationDate,2026-01-29T22:33:19-05:00*%
%TF.ProjectId,,58585858-5858-4585-9858-585858585858,rev?*%
%TF.SameCoordinates,Original*%
%TF.FileFunction,Legend,Bot*%
%TF.FilePolarity,Positive*%
%FSLAX46Y46*%
G04 Gerber Fmt 4.6, Leading zero omitted, Abs format (unit mm)*
G04 Created by KiCad (PCBNEW 7.0.11+dfsg-1build4) date 2026-01-29 22:33:19*
%MOMM*%
%LPD*%
G01*
G04 APERTURE LIST*
%ADD10C,0.250000*%
G04 APERTURE END LIST*
D10*
X158230050Y-103127000D02*
X158087193Y-103174619D01*
X158087193Y-103174619D02*
X157849098Y-103174619D01*
X157849098Y-103174619D02*
X157753860Y-103127000D01*
X157753860Y-103127000D02*
X157706241Y-103079380D01*
X157706241Y-103079380D02*
X157658622Y-102984142D01*
X157658622Y-102984142D02*
X157658622Y-102888904D01*
X157658622Y-102888904D02*
X157706241Y-102793666D01*
X157706241Y-102793666D02*
X157753860Y-102746047D01*
X157753860Y-102746047D02*
X157849098Y-102698428D01*
X157849098Y-102698428D02*
X158039574Y-102650809D01*
X158039574Y-102650809D02*
X158134812Y-102603190D01*
X158134812Y-102603190D02*
X158182431Y-102555571D01*
X158182431Y-102555571D02*
X158230050Y-102460333D01*
X158230050Y-102460333D02*
X158230050Y-102365095D01*
X158230050Y-102365095D02*
X158182431Y-102269857D01*
X158182431Y-102269857D02*
X158134812Y-102222238D01*
X158134812Y-102222238D02*
X158039574Y-102174619D01*
X158039574Y-102174619D02*
X157801479Y-102174619D01*
X157801479Y-102174619D02*
X157658622Y-102222238D01*
X156753860Y-103174619D02*
X157230050Y-103174619D01*
X157230050Y-103174619D02*
X157230050Y-102174619D01*
X156420526Y-103174619D02*
X156420526Y-102174619D01*
X156420526Y-102174619D02*
X156182431Y-102174619D01*
X156182431Y-102174619D02*
X156039574Y-102222238D01*
X156039574Y-102222238D02*
X155944336Y-102317476D01*
X155944336Y-102317476D02*
X155896717Y-102412714D01*
X155896717Y-102412714D02*
X155849098Y-102603190D01*
X155849098Y-102603190D02*
X155849098Y-102746047D01*
X155849098Y-102746047D02*
X155896717Y-102936523D01*
X155896717Y-102936523D02*
X155944336Y-103031761D01*
X155944336Y-103031761D02*
X156039574Y-103127000D01*
X156039574Y-103127000D02*
X156182431Y-103174619D01*
X156182431Y-103174619D02*
X156420526Y-103174619D01*
X157706241Y-113334619D02*
X158182431Y-113334619D01*
X158182431Y-113334619D02*
X158182431Y-112334619D01*
X157372907Y-113334619D02*
X157372907Y-112334619D01*
X156801479Y-113334619D02*
X157230050Y-112763190D01*
X156801479Y-112334619D02*
X157372907Y-112906047D01*
X156039574Y-112810809D02*
X155896717Y-112858428D01*
X155896717Y-112858428D02*
X155849098Y-112906047D01*
X155849098Y-112906047D02*
X155801479Y-113001285D01*
X155801479Y-113001285D02*
X155801479Y-113144142D01*
X155801479Y-113144142D02*
X155849098Y-113239380D01*
X155849098Y-113239380D02*
X155896717Y-113287000D01*
X155896717Y-113287000D02*
X155991955Y-113334619D01*
X155991955Y-113334619D02*
X156372907Y-113334619D01*
X156372907Y-113334619D02*
X156372907Y-112334619D01*
X156372907Y-112334619D02*
X156039574Y-112334619D01*
X156039574Y-112334619D02*
X155944336Y-112382238D01*
X155944336Y-112382238D02*
X155896717Y-112429857D01*
X155896717Y-112429857D02*
X155849098Y-112525095D01*
X155849098Y-112525095D02*
X155849098Y-112620333D01*
X155849098Y-112620333D02*
X155896717Y-112715571D01*
X155896717Y-112715571D02*
X155944336Y-112763190D01*
X155944336Y-112763190D02*
X156039574Y-112810809D01*
X156039574Y-112810809D02*
X156372907Y-112810809D01*
X158230050Y-90427000D02*
X158087193Y-90474619D01*
X158087193Y-90474619D02*
X157849098Y-90474619D01*
X157849098Y-90474619D02*
X157753860Y-90427000D01*
X157753860Y-90427000D02*
X157706241Y-90379380D01*
X157706241Y-90379380D02*
X157658622Y-90284142D01*
X157658622Y-90284142D02*
X157658622Y-90188904D01*
X157658622Y-90188904D02*
X157706241Y-90093666D01*
X157706241Y-90093666D02*
X157753860Y-90046047D01*
X157753860Y-90046047D02*
X157849098Y-89998428D01*
X157849098Y-89998428D02*
X158039574Y-89950809D01*
X158039574Y-89950809D02*
X158134812Y-89903190D01*
X158134812Y-89903190D02*
X158182431Y-89855571D01*
X158182431Y-89855571D02*
X158230050Y-89760333D01*
X158230050Y-89760333D02*
X158230050Y-89665095D01*
X158230050Y-89665095D02*
X158182431Y-89569857D01*
X158182431Y-89569857D02*
X158134812Y-89522238D01*
X158134812Y-89522238D02*
X158039574Y-89474619D01*
X158039574Y-89474619D02*
X157801479Y-89474619D01*
X157801479Y-89474619D02*
X157658622Y-89522238D01*
X156658622Y-90379380D02*
X156706241Y-90427000D01*
X156706241Y-90427000D02*
X156849098Y-90474619D01*
X156849098Y-90474619D02*
X156944336Y-90474619D01*
X156944336Y-90474619D02*
X157087193Y-90427000D01*
X157087193Y-90427000D02*
X157182431Y-90331761D01*
X157182431Y-90331761D02*
X157230050Y-90236523D01*
X157230050Y-90236523D02*
X157277669Y-90046047D01*
X157277669Y-90046047D02*
X157277669Y-89903190D01*
X157277669Y-89903190D02*
X157230050Y-89712714D01*
X157230050Y-89712714D02*
X157182431Y-89617476D01*
X157182431Y-89617476D02*
X157087193Y-89522238D01*
X157087193Y-89522238D02*
X156944336Y-89474619D01*
X156944336Y-89474619D02*
X156849098Y-89474619D01*
X156849098Y-89474619D02*
X156706241Y-89522238D01*
X156706241Y-89522238D02*
X156658622Y-89569857D01*
X155753860Y-90474619D02*
X156230050Y-90474619D01*
X156230050Y-90474619D02*
X156230050Y-89474619D01*
X158230050Y-100587000D02*
X158087193Y-100634619D01*
X158087193Y-100634619D02*
X157849098Y-100634619D01*
X157849098Y-100634619D02*
X157753860Y-100587000D01*
X157753860Y-100587000D02*
X157706241Y-100539380D01*
X157706241Y-100539380D02*
X157658622Y-100444142D01*
X157658622Y-100444142D02*
X157658622Y-100348904D01*
X157658622Y-100348904D02*
X157706241Y-100253666D01*
X157706241Y-100253666D02*
X157753860Y-100206047D01*
X157753860Y-100206047D02*
X157849098Y-100158428D01*
X157849098Y-100158428D02*
X158039574Y-100110809D01*
X158039574Y-100110809D02*
X158134812Y-100063190D01*
X158134812Y-100063190D02*
X158182431Y-100015571D01*
X158182431Y-100015571D02*
X158230050Y-99920333D01*
X158230050Y-99920333D02*
X158230050Y-99825095D01*
X158230050Y-99825095D02*
X158182431Y-99729857D01*
X158182431Y-99729857D02*
X158134812Y-99682238D01*
X158134812Y-99682238D02*
X158039574Y-99634619D01*
X158039574Y-99634619D02*
X157801479Y-99634619D01*
X157801479Y-99634619D02*
X157658622Y-99682238D01*
X157230050Y-100634619D02*
X157230050Y-99634619D01*
X157230050Y-99634619D02*
X156991955Y-99634619D01*
X156991955Y-99634619D02*
X156849098Y-99682238D01*
X156849098Y-99682238D02*
X156753860Y-99777476D01*
X156753860Y-99777476D02*
X156706241Y-99872714D01*
X156706241Y-99872714D02*
X156658622Y-100063190D01*
X156658622Y-100063190D02*
X156658622Y-100206047D01*
X156658622Y-100206047D02*
X156706241Y-100396523D01*
X156706241Y-100396523D02*
X156753860Y-100491761D01*
X156753860Y-100491761D02*
X156849098Y-100587000D01*
X156849098Y-100587000D02*
X156991955Y-100634619D01*
X156991955Y-100634619D02*
X157230050Y-100634619D01*
X156372907Y-99634619D02*
X155801479Y-99634619D01*
X156087193Y-100634619D02*
X156087193Y-99634619D01*
X157658622Y-97142238D02*
X157753860Y-97094619D01*
X157753860Y-97094619D02*
X157896717Y-97094619D01*
X157896717Y-97094619D02*
X158039574Y-97142238D01*
X158039574Y-97142238D02*
X158134812Y-97237476D01*
X158134812Y-97237476D02*
X158182431Y-97332714D01*
X158182431Y-97332714D02*
X158230050Y-97523190D01*
X158230050Y-97523190D02*
X158230050Y-97666047D01*
X158230050Y-97666047D02*
X158182431Y-97856523D01*
X158182431Y-97856523D02*
X158134812Y-97951761D01*
X158134812Y-97951761D02*
X158039574Y-98047000D01*
X158039574Y-98047000D02*
X157896717Y-98094619D01*
X157896717Y-98094619D02*
X157801479Y-98094619D01*
X157801479Y-98094619D02*
X157658622Y-98047000D01*
X157658622Y-98047000D02*
X157611003Y-97999380D01*
X157611003Y-97999380D02*
X157611003Y-97666047D01*
X157611003Y-97666047D02*
X157801479Y-97666047D01*
X157182431Y-98094619D02*
X157182431Y-97094619D01*
X157182431Y-97094619D02*
X156611003Y-98094619D01*
X156611003Y-98094619D02*
X156611003Y-97094619D01*
X156134812Y-98094619D02*
X156134812Y-97094619D01*
X156134812Y-97094619D02*
X155896717Y-97094619D01*
X155896717Y-97094619D02*
X155753860Y-97142238D01*
X155753860Y-97142238D02*
X155658622Y-97237476D01*
X155658622Y-97237476D02*
X155611003Y-97332714D01*
X155611003Y-97332714D02*
X155563384Y-97523190D01*
X155563384Y-97523190D02*
X155563384Y-97666047D01*
X155563384Y-97666047D02*
X155611003Y-97856523D01*
X155611003Y-97856523D02*
X155658622Y-97951761D01*
X155658622Y-97951761D02*
X155753860Y-98047000D01*
X155753860Y-98047000D02*
X155896717Y-98094619D01*
X155896717Y-98094619D02*
X156134812Y-98094619D01*
X157611003Y-105714619D02*
X157944336Y-105238428D01*
X158182431Y-105714619D02*
X158182431Y-104714619D01*
X158182431Y-104714619D02*
X157801479Y-104714619D01*
X157801479Y-104714619D02*
X157706241Y-104762238D01*
X157706241Y-104762238D02*
X157658622Y-104809857D01*
X157658622Y-104809857D02*
X157611003Y-104905095D01*
X157611003Y-104905095D02*
X157611003Y-105047952D01*
X157611003Y-105047952D02*
X157658622Y-105143190D01*
X157658622Y-105143190D02*
X157706241Y-105190809D01*
X157706241Y-105190809D02*
X157801479Y-105238428D01*
X157801479Y-105238428D02*
X158182431Y-105238428D01*
X157230050Y-105667000D02*
X157087193Y-105714619D01*
X157087193Y-105714619D02*
X156849098Y-105714619D01*
X156849098Y-105714619D02*
X156753860Y-105667000D01*
X156753860Y-105667000D02*
X156706241Y-105619380D01*
X156706241Y-105619380D02*
X156658622Y-105524142D01*
X156658622Y-105524142D02*
X156658622Y-105428904D01*
X156658622Y-105428904D02*
X156706241Y-105333666D01*
X156706241Y-105333666D02*
X156753860Y-105286047D01*
X156753860Y-105286047D02*
X156849098Y-105238428D01*
X156849098Y-105238428D02*
X157039574Y-105190809D01*
X157039574Y-105190809D02*
X157134812Y-105143190D01*
X157134812Y-105143190D02*
X157182431Y-105095571D01*
X157182431Y-105095571D02*
X157230050Y-105000333D01*
X157230050Y-105000333D02*
X157230050Y-104905095D01*
X157230050Y-104905095D02*
X157182431Y-104809857D01*
X157182431Y-104809857D02*
X157134812Y-104762238D01*
X157134812Y-104762238D02*
X157039574Y-104714619D01*
X157039574Y-104714619D02*
X156801479Y-104714619D01*
X156801479Y-104714619D02*
X156658622Y-104762238D01*
X156372907Y-104714619D02*
X155801479Y-104714619D01*
X156087193Y-105714619D02*
X156087193Y-104714619D01*
X158325288Y-94554619D02*
X157991955Y-95554619D01*
X157991955Y-95554619D02*
X157658622Y-94554619D01*
X156753860Y-95459380D02*
X156801479Y-95507000D01*
X156801479Y-95507000D02*
X156944336Y-95554619D01*
X156944336Y-95554619D02*
X157039574Y-95554619D01*
X157039574Y-95554619D02*
X157182431Y-95507000D01*
X157182431Y-95507000D02*
X157277669Y-95411761D01*
X157277669Y-95411761D02*
X157325288Y-95316523D01*
X157325288Y-95316523D02*
X157372907Y-95126047D01*
X157372907Y-95126047D02*
X157372907Y-94983190D01*
X157372907Y-94983190D02*
X157325288Y-94792714D01*
X157325288Y-94792714D02*
X157277669Y-94697476D01*
X157277669Y-94697476D02*
X157182431Y-94602238D01*
X157182431Y-94602238D02*
X157039574Y-94554619D01*
X157039574Y-94554619D02*
X156944336Y-94554619D01*
X156944336Y-94554619D02*
X156801479Y-94602238D01*
X156801479Y-94602238D02*
X156753860Y-94649857D01*
X155753860Y-95459380D02*
X155801479Y-95507000D01*
X155801479Y-95507000D02*
X155944336Y-95554619D01*
X155944336Y-95554619D02*
X156039574Y-95554619D01*
X156039574Y-95554619D02*
X156182431Y-95507000D01*
X156182431Y-95507000D02*
X156277669Y-95411761D01*
X156277669Y-95411761D02*
X156325288Y-95316523D01*
X156325288Y-95316523D02*
X156372907Y-95126047D01*
X156372907Y-95126047D02*
X156372907Y-94983190D01*
X156372907Y-94983190D02*
X156325288Y-94792714D01*
X156325288Y-94792714D02*
X156277669Y-94697476D01*
X156277669Y-94697476D02*
X156182431Y-94602238D01*
X156182431Y-94602238D02*
X156039574Y-94554619D01*
X156039574Y-94554619D02*
X155944336Y-94554619D01*
X155944336Y-94554619D02*
X155801479Y-94602238D01*
X155801479Y-94602238D02*
X155753860Y-94649857D01*
X157706241Y-110794619D02*
X158182431Y-110794619D01*
X158182431Y-110794619D02*
X158182431Y-109794619D01*
X157372907Y-110794619D02*
X157372907Y-109794619D01*
X156801479Y-110794619D02*
X157230050Y-110223190D01*
X156801479Y-109794619D02*
X157372907Y-110366047D01*
X155849098Y-109842238D02*
X155944336Y-109794619D01*
X155944336Y-109794619D02*
X156087193Y-109794619D01*
X156087193Y-109794619D02*
X156230050Y-109842238D01*
X156230050Y-109842238D02*
X156325288Y-109937476D01*
X156325288Y-109937476D02*
X156372907Y-110032714D01*
X156372907Y-110032714D02*
X156420526Y-110223190D01*
X156420526Y-110223190D02*
X156420526Y-110366047D01*
X156420526Y-110366047D02*
X156372907Y-110556523D01*
X156372907Y-110556523D02*
X156325288Y-110651761D01*
X156325288Y-110651761D02*
X156230050Y-110747000D01*
X156230050Y-110747000D02*
X156087193Y-110794619D01*
X156087193Y-110794619D02*
X155991955Y-110794619D01*
X155991955Y-110794619D02*
X155849098Y-110747000D01*
X155849098Y-110747000D02*
X155801479Y-110699380D01*
X155801479Y-110699380D02*
X155801479Y-110366047D01*
X155801479Y-110366047D02*
X155991955Y-110366047D01*
X158230050Y-92967000D02*
X158087193Y-93014619D01*
X158087193Y-93014619D02*
X157849098Y-93014619D01*
X157849098Y-93014619D02*
X157753860Y-92967000D01*
X157753860Y-92967000D02*
X157706241Y-92919380D01*
X157706241Y-92919380D02*
X157658622Y-92824142D01*
X157658622Y-92824142D02*
X157658622Y-92728904D01*
X157658622Y-92728904D02*
X157706241Y-92633666D01*
X157706241Y-92633666D02*
X157753860Y-92586047D01*
X157753860Y-92586047D02*
X157849098Y-92538428D01*
X157849098Y-92538428D02*
X158039574Y-92490809D01*
X158039574Y-92490809D02*
X158134812Y-92443190D01*
X158134812Y-92443190D02*
X158182431Y-92395571D01*
X158182431Y-92395571D02*
X158230050Y-92300333D01*
X158230050Y-92300333D02*
X158230050Y-92205095D01*
X158230050Y-92205095D02*
X158182431Y-92109857D01*
X158182431Y-92109857D02*
X158134812Y-92062238D01*
X158134812Y-92062238D02*
X158039574Y-92014619D01*
X158039574Y-92014619D02*
X157801479Y-92014619D01*
X157801479Y-92014619D02*
X157658622Y-92062238D01*
X157230050Y-93014619D02*
X157230050Y-92014619D01*
X157230050Y-92014619D02*
X156991955Y-92014619D01*
X156991955Y-92014619D02*
X156849098Y-92062238D01*
X156849098Y-92062238D02*
X156753860Y-92157476D01*
X156753860Y-92157476D02*
X156706241Y-92252714D01*
X156706241Y-92252714D02*
X156658622Y-92443190D01*
X156658622Y-92443190D02*
X156658622Y-92586047D01*
X156658622Y-92586047D02*
X156706241Y-92776523D01*
X156706241Y-92776523D02*
X156753860Y-92871761D01*
X156753860Y-92871761D02*
X156849098Y-92967000D01*
X156849098Y-92967000D02*
X156991955Y-93014619D01*
X156991955Y-93014619D02*
X157230050Y-93014619D01*
X156277669Y-92728904D02*
X155801479Y-92728904D01*
X156372907Y-93014619D02*
X156039574Y-92014619D01*
X156039574Y-92014619D02*
X155706241Y-93014619D01*
X157706241Y-108254619D02*
X158182431Y-108254619D01*
X158182431Y-108254619D02*
X158182431Y-107254619D01*
X157372907Y-108254619D02*
X157372907Y-107254619D01*
X156801479Y-108254619D02*
X157230050Y-107683190D01*
X156801479Y-107254619D02*
X157372907Y-107826047D01*
X155801479Y-108254619D02*
X156134812Y-107778428D01*
X156372907Y-108254619D02*
X156372907Y-107254619D01*
X156372907Y-107254619D02*
X155991955Y-107254619D01*
X155991955Y-107254619D02*
X155896717Y-107302238D01*
X155896717Y-107302238D02*
X155849098Y-107349857D01*
X155849098Y-107349857D02*
X155801479Y-107445095D01*
X155801479Y-107445095D02*
X155801479Y-107587952D01*
X155801479Y-107587952D02*
X155849098Y-107683190D01*
X155849098Y-107683190D02*
X155896717Y-107730809D01*
X155896717Y-107730809D02*
X155991955Y-107778428D01*
X155991955Y-107778428D02*
X156372907Y-107778428D01*
X108230050Y-103127000D02*
X108087193Y-103174619D01*
X108087193Y-103174619D02*
X107849098Y-103174619D01*
X107849098Y-103174619D02*
X107753860Y-103127000D01*
X107753860Y-103127000D02*
X107706241Y-103079380D01*
X107706241Y-103079380D02*
X107658622Y-102984142D01*
X107658622Y-102984142D02*
X107658622Y-102888904D01*
X107658622Y-102888904D02*
X107706241Y-102793666D01*
X107706241Y-102793666D02*
X107753860Y-102746047D01*
X107753860Y-102746047D02*
X107849098Y-102698428D01*
X107849098Y-102698428D02*
X108039574Y-102650809D01*
X108039574Y-102650809D02*
X108134812Y-102603190D01*
X108134812Y-102603190D02*
X108182431Y-102555571D01*
X108182431Y-102555571D02*
X108230050Y-102460333D01*
X108230050Y-102460333D02*
X108230050Y-102365095D01*
X108230050Y-102365095D02*
X108182431Y-102269857D01*
X108182431Y-102269857D02*
X108134812Y-102222238D01*
X108134812Y-102222238D02*
X108039574Y-102174619D01*
X108039574Y-102174619D02*
X107801479Y-102174619D01*
X107801479Y-102174619D02*
X107658622Y-102222238D01*
X106753860Y-103174619D02*
X107230050Y-103174619D01*
X107230050Y-103174619D02*
X107230050Y-102174619D01*
X106420526Y-103174619D02*
X106420526Y-102174619D01*
X106420526Y-102174619D02*
X106182431Y-102174619D01*
X106182431Y-102174619D02*
X106039574Y-102222238D01*
X106039574Y-102222238D02*
X105944336Y-102317476D01*
X105944336Y-102317476D02*
X105896717Y-102412714D01*
X105896717Y-102412714D02*
X105849098Y-102603190D01*
X105849098Y-102603190D02*
X105849098Y-102746047D01*
X105849098Y-102746047D02*
X105896717Y-102936523D01*
X105896717Y-102936523D02*
X105944336Y-103031761D01*
X105944336Y-103031761D02*
X106039574Y-103127000D01*
X106039574Y-103127000D02*
X106182431Y-103174619D01*
X106182431Y-103174619D02*
X106420526Y-103174619D01*
X107706241Y-113334619D02*
X108182431Y-113334619D01*
X108182431Y-113334619D02*
X108182431Y-112334619D01*
X107372907Y-113334619D02*
X107372907Y-112334619D01*
X106801479Y-113334619D02*
X107230050Y-112763190D01*
X106801479Y-112334619D02*
X107372907Y-112906047D01*
X106039574Y-112810809D02*
X105896717Y-112858428D01*
X105896717Y-112858428D02*
X105849098Y-112906047D01*
X105849098Y-112906047D02*
X105801479Y-113001285D01*
X105801479Y-113001285D02*
X105801479Y-113144142D01*
X105801479Y-113144142D02*
X105849098Y-113239380D01*
X105849098Y-113239380D02*
X105896717Y-113287000D01*
X105896717Y-113287000D02*
X105991955Y-113334619D01*
X105991955Y-113334619D02*
X106372907Y-113334619D01*
X106372907Y-113334619D02*
X106372907Y-112334619D01*
X106372907Y-112334619D02*
X106039574Y-112334619D01*
X106039574Y-112334619D02*
X105944336Y-112382238D01*
X105944336Y-112382238D02*
X105896717Y-112429857D01*
X105896717Y-112429857D02*
X105849098Y-112525095D01*
X105849098Y-112525095D02*
X105849098Y-112620333D01*
X105849098Y-112620333D02*
X105896717Y-112715571D01*
X105896717Y-112715571D02*
X105944336Y-112763190D01*
X105944336Y-112763190D02*
X106039574Y-112810809D01*
X106039574Y-112810809D02*
X106372907Y-112810809D01*
X108230050Y-90427000D02*
X108087193Y-90474619D01*
X108087193Y-90474619D02*
X107849098Y-90474619D01*
X107849098Y-90474619D02*
X107753860Y-90427000D01*
X107753860Y-90427000D02*
X107706241Y-90379380D01*
X107706241Y-90379380D02*
X107658622Y-90284142D01*
X107658622Y-90284142D02*
X107658622Y-90188904D01*
X107658622Y-90188904D02*
X107706241Y-90093666D01*
X107706241Y-90093666D02*
X107753860Y-90046047D01*
X107753860Y-90046047D02*
X107849098Y-89998428D01*
X107849098Y-89998428D02*
X108039574Y-89950809D01*
X108039574Y-89950809D02*
X108134812Y-89903190D01*
X108134812Y-89903190D02*
X108182431Y-89855571D01*
X108182431Y-89855571D02*
X108230050Y-89760333D01*
X108230050Y-89760333D02*
X108230050Y-89665095D01*
X108230050Y-89665095D02*
X108182431Y-89569857D01*
X108182431Y-89569857D02*
X108134812Y-89522238D01*
X108134812Y-89522238D02*
X108039574Y-89474619D01*
X108039574Y-89474619D02*
X107801479Y-89474619D01*
X107801479Y-89474619D02*
X107658622Y-89522238D01*
X106658622Y-90379380D02*
X106706241Y-90427000D01*
X106706241Y-90427000D02*
X106849098Y-90474619D01*
X106849098Y-90474619D02*
X106944336Y-90474619D01*
X106944336Y-90474619D02*
X107087193Y-90427000D01*
X107087193Y-90427000D02*
X107182431Y-90331761D01*
X107182431Y-90331761D02*
X107230050Y-90236523D01*
X107230050Y-90236523D02*
X107277669Y-90046047D01*
X107277669Y-90046047D02*
X107277669Y-89903190D01*
X107277669Y-89903190D02*
X107230050Y-89712714D01*
X107230050Y-89712714D02*
X107182431Y-89617476D01*
X107182431Y-89617476D02*
X107087193Y-89522238D01*
X107087193Y-89522238D02*
X106944336Y-89474619D01*
X106944336Y-89474619D02*
X106849098Y-89474619D01*
X106849098Y-89474619D02*
X106706241Y-89522238D01*
X106706241Y-89522238D02*
X106658622Y-89569857D01*
X105753860Y-90474619D02*
X106230050Y-90474619D01*
X106230050Y-90474619D02*
X106230050Y-89474619D01*
X108230050Y-100587000D02*
X108087193Y-100634619D01*
X108087193Y-100634619D02*
X107849098Y-100634619D01*
X107849098Y-100634619D02*
X107753860Y-100587000D01*
X107753860Y-100587000D02*
X107706241Y-100539380D01*
X107706241Y-100539380D02*
X107658622Y-100444142D01*
X107658622Y-100444142D02*
X107658622Y-100348904D01*
X107658622Y-100348904D02*
X107706241Y-100253666D01*
X107706241Y-100253666D02*
X107753860Y-100206047D01*
X107753860Y-100206047D02*
X107849098Y-100158428D01*
X107849098Y-100158428D02*
X108039574Y-100110809D01*
X108039574Y-100110809D02*
X108134812Y-100063190D01*
X108134812Y-100063190D02*
X108182431Y-100015571D01*
X108182431Y-100015571D02*
X108230050Y-99920333D01*
X108230050Y-99920333D02*
X108230050Y-99825095D01*
X108230050Y-99825095D02*
X108182431Y-99729857D01*
X108182431Y-99729857D02*
X108134812Y-99682238D01*
X108134812Y-99682238D02*
X108039574Y-99634619D01*
X108039574Y-99634619D02*
X107801479Y-99634619D01*
X107801479Y-99634619D02*
X107658622Y-99682238D01*
X107230050Y-100634619D02*
X107230050Y-99634619D01*
X107230050Y-99634619D02*
X106991955Y-99634619D01*
X106991955Y-99634619D02*
X106849098Y-99682238D01*
X106849098Y-99682238D02*
X106753860Y-99777476D01*
X106753860Y-99777476D02*
X106706241Y-99872714D01*
X106706241Y-99872714D02*
X106658622Y-100063190D01*
X106658622Y-100063190D02*
X106658622Y-100206047D01*
X106658622Y-100206047D02*
X106706241Y-100396523D01*
X106706241Y-100396523D02*
X106753860Y-100491761D01*
X106753860Y-100491761D02*
X106849098Y-100587000D01*
X106849098Y-100587000D02*
X106991955Y-100634619D01*
X106991955Y-100634619D02*
X107230050Y-100634619D01*
X106372907Y-99634619D02*
X105801479Y-99634619D01*
X106087193Y-100634619D02*
X106087193Y-99634619D01*
X107658622Y-97142238D02*
X107753860Y-97094619D01*
X107753860Y-97094619D02*
X107896717Y-97094619D01*
X107896717Y-97094619D02*
X108039574Y-97142238D01*
X108039574Y-97142238D02*
X108134812Y-97237476D01*
X108134812Y-97237476D02*
X108182431Y-97332714D01*
X108182431Y-97332714D02*
X108230050Y-97523190D01*
X108230050Y-97523190D02*
X108230050Y-97666047D01*
X108230050Y-97666047D02*
X108182431Y-97856523D01*
X108182431Y-97856523D02*
X108134812Y-97951761D01*
X108134812Y-97951761D02*
X108039574Y-98047000D01*
X108039574Y-98047000D02*
X107896717Y-98094619D01*
X107896717Y-98094619D02*
X107801479Y-98094619D01*
X107801479Y-98094619D02*
X107658622Y-98047000D01*
X107658622Y-98047000D02*
X107611003Y-97999380D01*
X107611003Y-97999380D02*
X107611003Y-97666047D01*
X107611003Y-97666047D02*
X107801479Y-97666047D01*
X107182431Y-98094619D02*
X107182431Y-97094619D01*
X107182431Y-97094619D02*
X106611003Y-98094619D01*
X106611003Y-98094619D02*
X106611003Y-97094619D01*
X106134812Y-98094619D02*
X106134812Y-97094619D01*
X106134812Y-97094619D02*
X105896717Y-97094619D01*
X105896717Y-97094619D02*
X105753860Y-97142238D01*
X105753860Y-97142238D02*
X105658622Y-97237476D01*
X105658622Y-97237476D02*
X105611003Y-97332714D01*
X105611003Y-97332714D02*
X105563384Y-97523190D01*
X105563384Y-97523190D02*
X105563384Y-97666047D01*
X105563384Y-97666047D02*
X105611003Y-97856523D01*
X105611003Y-97856523D02*
X105658622Y-97951761D01*
X105658622Y-97951761D02*
X105753860Y-98047000D01*
X105753860Y-98047000D02*
X105896717Y-98094619D01*
X105896717Y-98094619D02*
X106134812Y-98094619D01*
X107611003Y-105714619D02*
X107944336Y-105238428D01*
X108182431Y-105714619D02*
X108182431Y-104714619D01*
X108182431Y-104714619D02*
X107801479Y-104714619D01*
X107801479Y-104714619D02*
X107706241Y-104762238D01*
X107706241Y-104762238D02*
X107658622Y-104809857D01*
X107658622Y-104809857D02*
X107611003Y-104905095D01*
X107611003Y-104905095D02*
X107611003Y-105047952D01*
X107611003Y-105047952D02*
X107658622Y-105143190D01*
X107658622Y-105143190D02*
X107706241Y-105190809D01*
X107706241Y-105190809D02*
X107801479Y-105238428D01*
X107801479Y-105238428D02*
X108182431Y-105238428D01*
X107230050Y-105667000D02*
X107087193Y-105714619D01*
X107087193Y-105714619D02*
X106849098Y-105714619D01*
X106849098Y-105714619D02*
X106753860Y-105667000D01*
X106753860Y-105667000D02*
X106706241Y-105619380D01*
X106706241Y-105619380D02*
X106658622Y-105524142D01*
X106658622Y-105524142D02*
X106658622Y-105428904D01*
X106658622Y-105428904D02*
X106706241Y-105333666D01*
X106706241Y-105333666D02*
X106753860Y-105286047D01*
X106753860Y-105286047D02*
X106849098Y-105238428D01*
X106849098Y-105238428D02*
X107039574Y-105190809D01*
X107039574Y-105190809D02*
X107134812Y-105143190D01*
X107134812Y-105143190D02*
X107182431Y-105095571D01*
X107182431Y-105095571D02*
X107230050Y-105000333D01*
X107230050Y-105000333D02*
X107230050Y-104905095D01*
X107230050Y-104905095D02*
X107182431Y-104809857D01*
X107182431Y-104809857D02*
X107134812Y-104762238D01*
X107134812Y-104762238D02*
X107039574Y-104714619D01*
X107039574Y-104714619D02*
X106801479Y-104714619D01*
X106801479Y-104714619D02*
X106658622Y-104762238D01*
X106372907Y-104714619D02*
X105801479Y-104714619D01*
X106087193Y-105714619D02*
X106087193Y-104714619D01*
X108325288Y-94554619D02*
X107991955Y-95554619D01*
X107991955Y-95554619D02*
X107658622Y-94554619D01*
X106753860Y-95459380D02*
X106801479Y-95507000D01*
X106801479Y-95507000D02*
X106944336Y-95554619D01*
X106944336Y-95554619D02*
X107039574Y-95554619D01*
X107039574Y-95554619D02*
X107182431Y-95507000D01*
X107182431Y-95507000D02*
X107277669Y-95411761D01*
X107277669Y-95411761D02*
X107325288Y-95316523D01*
X107325288Y-95316523D02*
X107372907Y-95126047D01*
X107372907Y-95126047D02*
X107372907Y-94983190D01*
X107372907Y-94983190D02*
X107325288Y-94792714D01*
X107325288Y-94792714D02*
X107277669Y-94697476D01*
X107277669Y-94697476D02*
X107182431Y-94602238D01*
X107182431Y-94602238D02*
X107039574Y-94554619D01*
X107039574Y-94554619D02*
X106944336Y-94554619D01*
X106944336Y-94554619D02*
X106801479Y-94602238D01*
X106801479Y-94602238D02*
X106753860Y-94649857D01*
X105753860Y-95459380D02*
X105801479Y-95507000D01*
X105801479Y-95507000D02*
X105944336Y-95554619D01*
X105944336Y-95554619D02*
X106039574Y-95554619D01*
X106039574Y-95554619D02*
X106182431Y-95507000D01*
X106182431Y-95507000D02*
X106277669Y-95411761D01*
X106277669Y-95411761D02*
X106325288Y-95316523D01*
X106325288Y-95316523D02*
X106372907Y-95126047D01*
X106372907Y-95126047D02*
X106372907Y-94983190D01*
X106372907Y-94983190D02*
X106325288Y-94792714D01*
X106325288Y-94792714D02*
X106277669Y-94697476D01*
X106277669Y-94697476D02*
X106182431Y-94602238D01*
X106182431Y-94602238D02*
X106039574Y-94554619D01*
X106039574Y-94554619D02*
X105944336Y-94554619D01*
X105944336Y-94554619D02*
X105801479Y-94602238D01*
X105801479Y-94602238D02*
X105753860Y-94649857D01*
X107706241Y-110794619D02*
X108182431Y-110794619D01*
X108182431Y-110794619D02*
X108182431Y-109794619D01*
X107372907Y-110794619D02*
X107372907Y-109794619D01*
X106801479Y-110794619D02*
X107230050Y-110223190D01*
X106801479Y-109794619D02*
X107372907Y-110366047D01*
X105849098Y-109842238D02*
X105944336Y-109794619D01*
X105944336Y-109794619D02*
X106087193Y-109794619D01*
X106087193Y-109794619D02*
X106230050Y-109842238D01*
X106230050Y-109842238D02*
X106325288Y-109937476D01*
X106325288Y-109937476D02*
X106372907Y-110032714D01*
X106372907Y-110032714D02*
X106420526Y-110223190D01*
X106420526Y-110223190D02*
X106420526Y-110366047D01*
X106420526Y-110366047D02*
X106372907Y-110556523D01*
X106372907Y-110556523D02*
X106325288Y-110651761D01*
X106325288Y-110651761D02*
X106230050Y-110747000D01*
X106230050Y-110747000D02*
X106087193Y-110794619D01*
X106087193Y-110794619D02*
X105991955Y-110794619D01*
X105991955Y-110794619D02*
X105849098Y-110747000D01*
X105849098Y-110747000D02*
X105801479Y-110699380D01*
X105801479Y-110699380D02*
X105801479Y-110366047D01*
X105801479Y-110366047D02*
X105991955Y-110366047D01*
X108230050Y-92967000D02*
X108087193Y-93014619D01*
X108087193Y-93014619D02*
X107849098Y-93014619D01*
X107849098Y-93014619D02*
X107753860Y-92967000D01*
X107753860Y-92967000D02*
X107706241Y-92919380D01*
X107706241Y-92919380D02*
X107658622Y-92824142D01*
X107658622Y-92824142D02*
X107658622Y-92728904D01*
X107658622Y-92728904D02*
X107706241Y-92633666D01*
X107706241Y-92633666D02*
X107753860Y-92586047D01*
X107753860Y-92586047D02*
X107849098Y-92538428D01*
X107849098Y-92538428D02*
X108039574Y-92490809D01*
X108039574Y-92490809D02*
X108134812Y-92443190D01*
X108134812Y-92443190D02*
X108182431Y-92395571D01*
X108182431Y-92395571D02*
X108230050Y-92300333D01*
X108230050Y-92300333D02*
X108230050Y-92205095D01*
X108230050Y-92205095D02*
X108182431Y-92109857D01*
X108182431Y-92109857D02*
X108134812Y-92062238D01*
X108134812Y-92062238D02*
X108039574Y-92014619D01*
X108039574Y-92014619D02*
X107801479Y-92014619D01*
X107801479Y-92014619D02*
X107658622Y-92062238D01*
X107230050Y-93014619D02*
X107230050Y-92014619D01*
X107230050Y-92014619D02*
X106991955Y-92014619D01*
X106991955Y-92014619D02*
X106849098Y-92062238D01*
X106849098Y-92062238D02*
X106753860Y-92157476D01*
X106753860Y-92157476D02*
X106706241Y-92252714D01*
X106706241Y-92252714D02*
X106658622Y-92443190D01*
X106658622Y-92443190D02*
X106658622Y-92586047D01*
X106658622Y-92586047D02*
X106706241Y-92776523D01*
X106706241Y-92776523D02*
X106753860Y-92871761D01*
X106753860Y-92871761D02*
X106849098Y-92967000D01*
X106849098Y-92967000D02*
X106991955Y-93014619D01*
X106991955Y-93014619D02*
X107230050Y-93014619D01*
X106277669Y-92728904D02*
X105801479Y-92728904D01*
X106372907Y-93014619D02*
X106039574Y-92014619D01*
X106039574Y-92014619D02*
X105706241Y-93014619D01*
X107706241Y-108254619D02*
X108182431Y-108254619D01*
X108182431Y-108254619D02*
X108182431Y-107254619D01*
X107372907Y-108254619D02*
X107372907Y-107254619D01*
X106801479Y-108254619D02*
X107230050Y-107683190D01*
X106801479Y-107254619D02*
X107372907Y-107826047D01*
X105801479Y-108254619D02*
X106134812Y-107778428D01*
X106372907Y-108254619D02*
X106372907Y-107254619D01*
X106372907Y-107254619D02*
X105991955Y-107254619D01*
X105991955Y-107254619D02*
X105896717Y-107302238D01*
X105896717Y-107302238D02*
X105849098Y-107349857D01*
X105849098Y-107349857D02*
X105801479Y-107445095D01*
X105801479Y-107445095D02*
X105801479Y-107587952D01*
X105801479Y-107587952D02*
X105849098Y-107683190D01*
X105849098Y-107683190D02*
X105896717Y-107730809D01*
X105896717Y-107730809D02*
X105991955Y-107778428D01*
X105991955Y-107778428D02*
X106372907Y-107778428D01*
X158230050Y-53127000D02*
X158087193Y-53174619D01*
X158087193Y-53174619D02*
X157849098Y-53174619D01*
X157849098Y-53174619D02*
X157753860Y-53127000D01*
X157753860Y-53127000D02*
X157706241Y-53079380D01*
X157706241Y-53079380D02*
X157658622Y-52984142D01*
X157658622Y-52984142D02*
X157658622Y-52888904D01*
X157658622Y-52888904D02*
X157706241Y-52793666D01*
X157706241Y-52793666D02*
X157753860Y-52746047D01*
X157753860Y-52746047D02*
X157849098Y-52698428D01*
X157849098Y-52698428D02*
X158039574Y-52650809D01*
X158039574Y-52650809D02*
X158134812Y-52603190D01*
X158134812Y-52603190D02*
X158182431Y-52555571D01*
X158182431Y-52555571D02*
X158230050Y-52460333D01*
X158230050Y-52460333D02*
X158230050Y-52365095D01*
X158230050Y-52365095D02*
X158182431Y-52269857D01*
X158182431Y-52269857D02*
X158134812Y-52222238D01*
X158134812Y-52222238D02*
X158039574Y-52174619D01*
X158039574Y-52174619D02*
X157801479Y-52174619D01*
X157801479Y-52174619D02*
X157658622Y-52222238D01*
X156753860Y-53174619D02*
X157230050Y-53174619D01*
X157230050Y-53174619D02*
X157230050Y-52174619D01*
X156420526Y-53174619D02*
X156420526Y-52174619D01*
X156420526Y-52174619D02*
X156182431Y-52174619D01*
X156182431Y-52174619D02*
X156039574Y-52222238D01*
X156039574Y-52222238D02*
X155944336Y-52317476D01*
X155944336Y-52317476D02*
X155896717Y-52412714D01*
X155896717Y-52412714D02*
X155849098Y-52603190D01*
X155849098Y-52603190D02*
X155849098Y-52746047D01*
X155849098Y-52746047D02*
X155896717Y-52936523D01*
X155896717Y-52936523D02*
X155944336Y-53031761D01*
X155944336Y-53031761D02*
X156039574Y-53127000D01*
X156039574Y-53127000D02*
X156182431Y-53174619D01*
X156182431Y-53174619D02*
X156420526Y-53174619D01*
X157706241Y-63334619D02*
X158182431Y-63334619D01*
X158182431Y-63334619D02*
X158182431Y-62334619D01*
X157372907Y-63334619D02*
X157372907Y-62334619D01*
X156801479Y-63334619D02*
X157230050Y-62763190D01*
X156801479Y-62334619D02*
X157372907Y-62906047D01*
X156039574Y-62810809D02*
X155896717Y-62858428D01*
X155896717Y-62858428D02*
X155849098Y-62906047D01*
X155849098Y-62906047D02*
X155801479Y-63001285D01*
X155801479Y-63001285D02*
X155801479Y-63144142D01*
X155801479Y-63144142D02*
X155849098Y-63239380D01*
X155849098Y-63239380D02*
X155896717Y-63287000D01*
X155896717Y-63287000D02*
X155991955Y-63334619D01*
X155991955Y-63334619D02*
X156372907Y-63334619D01*
X156372907Y-63334619D02*
X156372907Y-62334619D01*
X156372907Y-62334619D02*
X156039574Y-62334619D01*
X156039574Y-62334619D02*
X155944336Y-62382238D01*
X155944336Y-62382238D02*
X155896717Y-62429857D01*
X155896717Y-62429857D02*
X155849098Y-62525095D01*
X155849098Y-62525095D02*
X155849098Y-62620333D01*
X155849098Y-62620333D02*
X155896717Y-62715571D01*
X155896717Y-62715571D02*
X155944336Y-62763190D01*
X155944336Y-62763190D02*
X156039574Y-62810809D01*
X156039574Y-62810809D02*
X156372907Y-62810809D01*
X158230050Y-40427000D02*
X158087193Y-40474619D01*
X158087193Y-40474619D02*
X157849098Y-40474619D01*
X157849098Y-40474619D02*
X157753860Y-40427000D01*
X157753860Y-40427000D02*
X157706241Y-40379380D01*
X157706241Y-40379380D02*
X157658622Y-40284142D01*
X157658622Y-40284142D02*
X157658622Y-40188904D01*
X157658622Y-40188904D02*
X157706241Y-40093666D01*
X157706241Y-40093666D02*
X157753860Y-40046047D01*
X157753860Y-40046047D02*
X157849098Y-39998428D01*
X157849098Y-39998428D02*
X158039574Y-39950809D01*
X158039574Y-39950809D02*
X158134812Y-39903190D01*
X158134812Y-39903190D02*
X158182431Y-39855571D01*
X158182431Y-39855571D02*
X158230050Y-39760333D01*
X158230050Y-39760333D02*
X158230050Y-39665095D01*
X158230050Y-39665095D02*
X158182431Y-39569857D01*
X158182431Y-39569857D02*
X158134812Y-39522238D01*
X158134812Y-39522238D02*
X158039574Y-39474619D01*
X158039574Y-39474619D02*
X157801479Y-39474619D01*
X157801479Y-39474619D02*
X157658622Y-39522238D01*
X156658622Y-40379380D02*
X156706241Y-40427000D01*
X156706241Y-40427000D02*
X156849098Y-40474619D01*
X156849098Y-40474619D02*
X156944336Y-40474619D01*
X156944336Y-40474619D02*
X157087193Y-40427000D01*
X157087193Y-40427000D02*
X157182431Y-40331761D01*
X157182431Y-40331761D02*
X157230050Y-40236523D01*
X157230050Y-40236523D02*
X157277669Y-40046047D01*
X157277669Y-40046047D02*
X157277669Y-39903190D01*
X157277669Y-39903190D02*
X157230050Y-39712714D01*
X157230050Y-39712714D02*
X157182431Y-39617476D01*
X157182431Y-39617476D02*
X157087193Y-39522238D01*
X157087193Y-39522238D02*
X156944336Y-39474619D01*
X156944336Y-39474619D02*
X156849098Y-39474619D01*
X156849098Y-39474619D02*
X156706241Y-39522238D01*
X156706241Y-39522238D02*
X156658622Y-39569857D01*
X155753860Y-40474619D02*
X156230050Y-40474619D01*
X156230050Y-40474619D02*
X156230050Y-39474619D01*
X158230050Y-50587000D02*
X158087193Y-50634619D01*
X158087193Y-50634619D02*
X157849098Y-50634619D01*
X157849098Y-50634619D02*
X157753860Y-50587000D01*
X157753860Y-50587000D02*
X157706241Y-50539380D01*
X157706241Y-50539380D02*
X157658622Y-50444142D01*
X157658622Y-50444142D02*
X157658622Y-50348904D01*
X157658622Y-50348904D02*
X157706241Y-50253666D01*
X157706241Y-50253666D02*
X157753860Y-50206047D01*
X157753860Y-50206047D02*
X157849098Y-50158428D01*
X157849098Y-50158428D02*
X158039574Y-50110809D01*
X158039574Y-50110809D02*
X158134812Y-50063190D01*
X158134812Y-50063190D02*
X158182431Y-50015571D01*
X158182431Y-50015571D02*
X158230050Y-49920333D01*
X158230050Y-49920333D02*
X158230050Y-49825095D01*
X158230050Y-49825095D02*
X158182431Y-49729857D01*
X158182431Y-49729857D02*
X158134812Y-49682238D01*
X158134812Y-49682238D02*
X158039574Y-49634619D01*
X158039574Y-49634619D02*
X157801479Y-49634619D01*
X157801479Y-49634619D02*
X157658622Y-49682238D01*
X157230050Y-50634619D02*
X157230050Y-49634619D01*
X157230050Y-49634619D02*
X156991955Y-49634619D01*
X156991955Y-49634619D02*
X156849098Y-49682238D01*
X156849098Y-49682238D02*
X156753860Y-49777476D01*
X156753860Y-49777476D02*
X156706241Y-49872714D01*
X156706241Y-49872714D02*
X156658622Y-50063190D01*
X156658622Y-50063190D02*
X156658622Y-50206047D01*
X156658622Y-50206047D02*
X156706241Y-50396523D01*
X156706241Y-50396523D02*
X156753860Y-50491761D01*
X156753860Y-50491761D02*
X156849098Y-50587000D01*
X156849098Y-50587000D02*
X156991955Y-50634619D01*
X156991955Y-50634619D02*
X157230050Y-50634619D01*
X156372907Y-49634619D02*
X155801479Y-49634619D01*
X156087193Y-50634619D02*
X156087193Y-49634619D01*
X157658622Y-47142238D02*
X157753860Y-47094619D01*
X157753860Y-47094619D02*
X157896717Y-47094619D01*
X157896717Y-47094619D02*
X158039574Y-47142238D01*
X158039574Y-47142238D02*
X158134812Y-47237476D01*
X158134812Y-47237476D02*
X158182431Y-47332714D01*
X158182431Y-47332714D02*
X158230050Y-47523190D01*
X158230050Y-47523190D02*
X158230050Y-47666047D01*
X158230050Y-47666047D02*
X158182431Y-47856523D01*
X158182431Y-47856523D02*
X158134812Y-47951761D01*
X158134812Y-47951761D02*
X158039574Y-48047000D01*
X158039574Y-48047000D02*
X157896717Y-48094619D01*
X157896717Y-48094619D02*
X157801479Y-48094619D01*
X157801479Y-48094619D02*
X157658622Y-48047000D01*
X157658622Y-48047000D02*
X157611003Y-47999380D01*
X157611003Y-47999380D02*
X157611003Y-47666047D01*
X157611003Y-47666047D02*
X157801479Y-47666047D01*
X157182431Y-48094619D02*
X157182431Y-47094619D01*
X157182431Y-47094619D02*
X156611003Y-48094619D01*
X156611003Y-48094619D02*
X156611003Y-47094619D01*
X156134812Y-48094619D02*
X156134812Y-47094619D01*
X156134812Y-47094619D02*
X155896717Y-47094619D01*
X155896717Y-47094619D02*
X155753860Y-47142238D01*
X155753860Y-47142238D02*
X155658622Y-47237476D01*
X155658622Y-47237476D02*
X155611003Y-47332714D01*
X155611003Y-47332714D02*
X155563384Y-47523190D01*
X155563384Y-47523190D02*
X155563384Y-47666047D01*
X155563384Y-47666047D02*
X155611003Y-47856523D01*
X155611003Y-47856523D02*
X155658622Y-47951761D01*
X155658622Y-47951761D02*
X155753860Y-48047000D01*
X155753860Y-48047000D02*
X155896717Y-48094619D01*
X155896717Y-48094619D02*
X156134812Y-48094619D01*
X157611003Y-55714619D02*
X157944336Y-55238428D01*
X158182431Y-55714619D02*
X158182431Y-54714619D01*
X158182431Y-54714619D02*
X157801479Y-54714619D01*
X157801479Y-54714619D02*
X157706241Y-54762238D01*
X157706241Y-54762238D02*
X157658622Y-54809857D01*
X157658622Y-54809857D02*
X157611003Y-54905095D01*
X157611003Y-54905095D02*
X157611003Y-55047952D01*
X157611003Y-55047952D02*
X157658622Y-55143190D01*
X157658622Y-55143190D02*
X157706241Y-55190809D01*
X157706241Y-55190809D02*
X157801479Y-55238428D01*
X157801479Y-55238428D02*
X158182431Y-55238428D01*
X157230050Y-55667000D02*
X157087193Y-55714619D01*
X157087193Y-55714619D02*
X156849098Y-55714619D01*
X156849098Y-55714619D02*
X156753860Y-55667000D01*
X156753860Y-55667000D02*
X156706241Y-55619380D01*
X156706241Y-55619380D02*
X156658622Y-55524142D01*
X156658622Y-55524142D02*
X156658622Y-55428904D01*
X156658622Y-55428904D02*
X156706241Y-55333666D01*
X156706241Y-55333666D02*
X156753860Y-55286047D01*
X156753860Y-55286047D02*
X156849098Y-55238428D01*
X156849098Y-55238428D02*
X157039574Y-55190809D01*
X157039574Y-55190809D02*
X157134812Y-55143190D01*
X157134812Y-55143190D02*
X157182431Y-55095571D01*
X157182431Y-55095571D02*
X157230050Y-55000333D01*
X157230050Y-55000333D02*
X157230050Y-54905095D01*
X157230050Y-54905095D02*
X157182431Y-54809857D01*
X157182431Y-54809857D02*
X157134812Y-54762238D01*
X157134812Y-54762238D02*
X157039574Y-54714619D01*
X157039574Y-54714619D02*
X156801479Y-54714619D01*
X156801479Y-54714619D02*
X156658622Y-54762238D01*
X156372907Y-54714619D02*
X155801479Y-54714619D01*
X156087193Y-55714619D02*
X156087193Y-54714619D01*
X158325288Y-44554619D02*
X157991955Y-45554619D01*
X157991955Y-45554619D02*
X157658622Y-44554619D01*
X156753860Y-45459380D02*
X156801479Y-45507000D01*
X156801479Y-45507000D02*
X156944336Y-45554619D01*
X156944336Y-45554619D02*
X157039574Y-45554619D01*
X157039574Y-45554619D02*
X157182431Y-45507000D01*
X157182431Y-45507000D02*
X157277669Y-45411761D01*
X157277669Y-45411761D02*
X157325288Y-45316523D01*
X157325288Y-45316523D02*
X157372907Y-45126047D01*
X157372907Y-45126047D02*
X157372907Y-44983190D01*
X157372907Y-44983190D02*
X157325288Y-44792714D01*
X157325288Y-44792714D02*
X157277669Y-44697476D01*
X157277669Y-44697476D02*
X157182431Y-44602238D01*
X157182431Y-44602238D02*
X157039574Y-44554619D01*
X157039574Y-44554619D02*
X156944336Y-44554619D01*
X156944336Y-44554619D02*
X156801479Y-44602238D01*
X156801479Y-44602238D02*
X156753860Y-44649857D01*
X155753860Y-45459380D02*
X155801479Y-45507000D01*
X155801479Y-45507000D02*
X155944336Y-45554619D01*
X155944336Y-45554619D02*
X156039574Y-45554619D01*
X156039574Y-45554619D02*
X156182431Y-45507000D01*
X156182431Y-45507000D02*
X156277669Y-45411761D01*
X156277669Y-45411761D02*
X156325288Y-45316523D01*
X156325288Y-45316523D02*
X156372907Y-45126047D01*
X156372907Y-45126047D02*
X156372907Y-44983190D01*
X156372907Y-44983190D02*
X156325288Y-44792714D01*
X156325288Y-44792714D02*
X156277669Y-44697476D01*
X156277669Y-44697476D02*
X156182431Y-44602238D01*
X156182431Y-44602238D02*
X156039574Y-44554619D01*
X156039574Y-44554619D02*
X155944336Y-44554619D01*
X155944336Y-44554619D02*
X155801479Y-44602238D01*
X155801479Y-44602238D02*
X155753860Y-44649857D01*
X157706241Y-60794619D02*
X158182431Y-60794619D01*
X158182431Y-60794619D02*
X158182431Y-59794619D01*
X157372907Y-60794619D02*
X157372907Y-59794619D01*
X156801479Y-60794619D02*
X157230050Y-60223190D01*
X156801479Y-59794619D02*
X157372907Y-60366047D01*
X155849098Y-59842238D02*
X155944336Y-59794619D01*
X155944336Y-59794619D02*
X156087193Y-59794619D01*
X156087193Y-59794619D02*
X156230050Y-59842238D01*
X156230050Y-59842238D02*
X156325288Y-59937476D01*
X156325288Y-59937476D02*
X156372907Y-60032714D01*
X156372907Y-60032714D02*
X156420526Y-60223190D01*
X156420526Y-60223190D02*
X156420526Y-60366047D01*
X156420526Y-60366047D02*
X156372907Y-60556523D01*
X156372907Y-60556523D02*
X156325288Y-60651761D01*
X156325288Y-60651761D02*
X156230050Y-60747000D01*
X156230050Y-60747000D02*
X156087193Y-60794619D01*
X156087193Y-60794619D02*
X155991955Y-60794619D01*
X155991955Y-60794619D02*
X155849098Y-60747000D01*
X155849098Y-60747000D02*
X155801479Y-60699380D01*
X155801479Y-60699380D02*
X155801479Y-60366047D01*
X155801479Y-60366047D02*
X155991955Y-60366047D01*
X158230050Y-42967000D02*
X158087193Y-43014619D01*
X158087193Y-43014619D02*
X157849098Y-43014619D01*
X157849098Y-43014619D02*
X157753860Y-42967000D01*
X157753860Y-42967000D02*
X157706241Y-42919380D01*
X157706241Y-42919380D02*
X157658622Y-42824142D01*
X157658622Y-42824142D02*
X157658622Y-42728904D01*
X157658622Y-42728904D02*
X157706241Y-42633666D01*
X157706241Y-42633666D02*
X157753860Y-42586047D01*
X157753860Y-42586047D02*
X157849098Y-42538428D01*
X157849098Y-42538428D02*
X158039574Y-42490809D01*
X158039574Y-42490809D02*
X158134812Y-42443190D01*
X158134812Y-42443190D02*
X158182431Y-42395571D01*
X158182431Y-42395571D02*
X158230050Y-42300333D01*
X158230050Y-42300333D02*
X158230050Y-42205095D01*
X158230050Y-42205095D02*
X158182431Y-42109857D01*
X158182431Y-42109857D02*
X158134812Y-42062238D01*
X158134812Y-42062238D02*
X158039574Y-42014619D01*
X158039574Y-42014619D02*
X157801479Y-42014619D01*
X157801479Y-42014619D02*
X157658622Y-42062238D01*
X157230050Y-43014619D02*
X157230050Y-42014619D01*
X157230050Y-42014619D02*
X156991955Y-42014619D01*
X156991955Y-42014619D02*
X156849098Y-42062238D01*
X156849098Y-42062238D02*
X156753860Y-42157476D01*
X156753860Y-42157476D02*
X156706241Y-42252714D01*
X156706241Y-42252714D02*
X156658622Y-42443190D01*
X156658622Y-42443190D02*
X156658622Y-42586047D01*
X156658622Y-42586047D02*
X156706241Y-42776523D01*
X156706241Y-42776523D02*
X156753860Y-42871761D01*
X156753860Y-42871761D02*
X156849098Y-42967000D01*
X156849098Y-42967000D02*
X156991955Y-43014619D01*
X156991955Y-43014619D02*
X157230050Y-43014619D01*
X156277669Y-42728904D02*
X155801479Y-42728904D01*
X156372907Y-43014619D02*
X156039574Y-42014619D01*
X156039574Y-42014619D02*
X155706241Y-43014619D01*
X157706241Y-58254619D02*
X158182431Y-58254619D01*
X158182431Y-58254619D02*
X158182431Y-57254619D01*
X157372907Y-58254619D02*
X157372907Y-57254619D01*
X156801479Y-58254619D02*
X157230050Y-57683190D01*
X156801479Y-57254619D02*
X157372907Y-57826047D01*
X155801479Y-58254619D02*
X156134812Y-57778428D01*
X156372907Y-58254619D02*
X156372907Y-57254619D01*
X156372907Y-57254619D02*
X155991955Y-57254619D01*
X155991955Y-57254619D02*
X155896717Y-57302238D01*
X155896717Y-57302238D02*
X155849098Y-57349857D01*
X155849098Y-57349857D02*
X155801479Y-57445095D01*
X155801479Y-57445095D02*
X155801479Y-57587952D01*
X155801479Y-57587952D02*
X155849098Y-57683190D01*
X155849098Y-57683190D02*
X155896717Y-57730809D01*
X155896717Y-57730809D02*
X155991955Y-57778428D01*
X155991955Y-57778428D02*
X156372907Y-57778428D01*
X107706241Y-60794619D02*
X108182431Y-60794619D01*
X108182431Y-60794619D02*
X108182431Y-59794619D01*
X107372907Y-60794619D02*
X107372907Y-59794619D01*
X106801479Y-60794619D02*
X107230050Y-60223190D01*
X106801479Y-59794619D02*
X107372907Y-60366047D01*
X105849098Y-59842238D02*
X105944336Y-59794619D01*
X105944336Y-59794619D02*
X106087193Y-59794619D01*
X106087193Y-59794619D02*
X106230050Y-59842238D01*
X106230050Y-59842238D02*
X106325288Y-59937476D01*
X106325288Y-59937476D02*
X106372907Y-60032714D01*
X106372907Y-60032714D02*
X106420526Y-60223190D01*
X106420526Y-60223190D02*
X106420526Y-60366047D01*
X106420526Y-60366047D02*
X106372907Y-60556523D01*
X106372907Y-60556523D02*
X106325288Y-60651761D01*
X106325288Y-60651761D02*
X106230050Y-60747000D01*
X106230050Y-60747000D02*
X106087193Y-60794619D01*
X106087193Y-60794619D02*
X105991955Y-60794619D01*
X105991955Y-60794619D02*
X105849098Y-60747000D01*
X105849098Y-60747000D02*
X105801479Y-60699380D01*
X105801479Y-60699380D02*
X105801479Y-60366047D01*
X105801479Y-60366047D02*
X105991955Y-60366047D01*
X107706241Y-58254619D02*
X108182431Y-58254619D01*
X108182431Y-58254619D02*
X108182431Y-57254619D01*
X107372907Y-58254619D02*
X107372907Y-57254619D01*
X106801479Y-58254619D02*
X107230050Y-57683190D01*
X106801479Y-57254619D02*
X107372907Y-57826047D01*
X105801479Y-58254619D02*
X106134812Y-57778428D01*
X106372907Y-58254619D02*
X106372907Y-57254619D01*
X106372907Y-57254619D02*
X105991955Y-57254619D01*
X105991955Y-57254619D02*
X105896717Y-57302238D01*
X105896717Y-57302238D02*
X105849098Y-57349857D01*
X105849098Y-57349857D02*
X105801479Y-57445095D01*
X105801479Y-57445095D02*
X105801479Y-57587952D01*
X105801479Y-57587952D02*
X105849098Y-57683190D01*
X105849098Y-57683190D02*
X105896717Y-57730809D01*
X105896717Y-57730809D02*
X105991955Y-57778428D01*
X105991955Y-57778428D02*
X106372907Y-57778428D01*
X108230050Y-42967000D02*
X108087193Y-43014619D01*
X108087193Y-43014619D02*
X107849098Y-43014619D01*
X107849098Y-43014619D02*
X107753860Y-42967000D01*
X107753860Y-42967000D02*
X107706241Y-42919380D01*
X107706241Y-42919380D02*
X107658622Y-42824142D01*
X107658622Y-42824142D02*
X107658622Y-42728904D01*
X107658622Y-42728904D02*
X107706241Y-42633666D01*
X107706241Y-42633666D02*
X107753860Y-42586047D01*
X107753860Y-42586047D02*
X107849098Y-42538428D01*
X107849098Y-42538428D02*
X108039574Y-42490809D01*
X108039574Y-42490809D02*
X108134812Y-42443190D01*
X108134812Y-42443190D02*
X108182431Y-42395571D01*
X108182431Y-42395571D02*
X108230050Y-42300333D01*
X108230050Y-42300333D02*
X108230050Y-42205095D01*
X108230050Y-42205095D02*
X108182431Y-42109857D01*
X108182431Y-42109857D02*
X108134812Y-42062238D01*
X108134812Y-42062238D02*
X108039574Y-42014619D01*
X108039574Y-42014619D02*
X107801479Y-42014619D01*
X107801479Y-42014619D02*
X107658622Y-42062238D01*
X107230050Y-43014619D02*
X107230050Y-42014619D01*
X107230050Y-42014619D02*
X106991955Y-42014619D01*
X106991955Y-42014619D02*
X106849098Y-42062238D01*
X106849098Y-42062238D02*
X106753860Y-42157476D01*
X106753860Y-42157476D02*
X106706241Y-42252714D01*
X106706241Y-42252714D02*
X106658622Y-42443190D01*
X106658622Y-42443190D02*
X106658622Y-42586047D01*
X106658622Y-42586047D02*
X106706241Y-42776523D01*
X106706241Y-42776523D02*
X106753860Y-42871761D01*
X106753860Y-42871761D02*
X106849098Y-42967000D01*
X106849098Y-42967000D02*
X106991955Y-43014619D01*
X106991955Y-43014619D02*
X107230050Y-43014619D01*
X106277669Y-42728904D02*
X105801479Y-42728904D01*
X106372907Y-43014619D02*
X106039574Y-42014619D01*
X106039574Y-42014619D02*
X105706241Y-43014619D01*
X107706241Y-63334619D02*
X108182431Y-63334619D01*
X108182431Y-63334619D02*
X108182431Y-62334619D01*
X107372907Y-63334619D02*
X107372907Y-62334619D01*
X106801479Y-63334619D02*
X107230050Y-62763190D01*
X106801479Y-62334619D02*
X107372907Y-62906047D01*
X106039574Y-62810809D02*
X105896717Y-62858428D01*
X105896717Y-62858428D02*
X105849098Y-62906047D01*
X105849098Y-62906047D02*
X105801479Y-63001285D01*
X105801479Y-63001285D02*
X105801479Y-63144142D01*
X105801479Y-63144142D02*
X105849098Y-63239380D01*
X105849098Y-63239380D02*
X105896717Y-63287000D01*
X105896717Y-63287000D02*
X105991955Y-63334619D01*
X105991955Y-63334619D02*
X106372907Y-63334619D01*
X106372907Y-63334619D02*
X106372907Y-62334619D01*
X106372907Y-62334619D02*
X106039574Y-62334619D01*
X106039574Y-62334619D02*
X105944336Y-62382238D01*
X105944336Y-62382238D02*
X105896717Y-62429857D01*
X105896717Y-62429857D02*
X105849098Y-62525095D01*
X105849098Y-62525095D02*
X105849098Y-62620333D01*
X105849098Y-62620333D02*
X105896717Y-62715571D01*
X105896717Y-62715571D02*
X105944336Y-62763190D01*
X105944336Y-62763190D02*
X106039574Y-62810809D01*
X106039574Y-62810809D02*
X106372907Y-62810809D01*
X108230050Y-53127000D02*
X108087193Y-53174619D01*
X108087193Y-53174619D02*
X107849098Y-53174619D01*
X107849098Y-53174619D02*
X107753860Y-53127000D01*
X107753860Y-53127000D02*
X107706241Y-53079380D01*
X107706241Y-53079380D02*
X107658622Y-52984142D01*
X107658622Y-52984142D02*
X107658622Y-52888904D01*
X107658622Y-52888904D02*
X107706241Y-52793666D01*
X107706241Y-52793666D02*
X107753860Y-52746047D01*
X107753860Y-52746047D02*
X107849098Y-52698428D01*
X107849098Y-52698428D02*
X108039574Y-52650809D01*
X108039574Y-52650809D02*
X108134812Y-52603190D01*
X108134812Y-52603190D02*
X108182431Y-52555571D01*
X108182431Y-52555571D02*
X108230050Y-52460333D01*
X108230050Y-52460333D02*
X108230050Y-52365095D01*
X108230050Y-52365095D02*
X108182431Y-52269857D01*
X108182431Y-52269857D02*
X108134812Y-52222238D01*
X108134812Y-52222238D02*
X108039574Y-52174619D01*
X108039574Y-52174619D02*
X107801479Y-52174619D01*
X107801479Y-52174619D02*
X107658622Y-52222238D01*
X106753860Y-53174619D02*
X107230050Y-53174619D01*
X107230050Y-53174619D02*
X107230050Y-52174619D01*
X106420526Y-53174619D02*
X106420526Y-52174619D01*
X106420526Y-52174619D02*
X106182431Y-52174619D01*
X106182431Y-52174619D02*
X106039574Y-52222238D01*
X106039574Y-52222238D02*
X105944336Y-52317476D01*
X105944336Y-52317476D02*
X105896717Y-52412714D01*
X105896717Y-52412714D02*
X105849098Y-52603190D01*
X105849098Y-52603190D02*
X105849098Y-52746047D01*
X105849098Y-52746047D02*
X105896717Y-52936523D01*
X105896717Y-52936523D02*
X105944336Y-53031761D01*
X105944336Y-53031761D02*
X106039574Y-53127000D01*
X106039574Y-53127000D02*
X106182431Y-53174619D01*
X106182431Y-53174619D02*
X106420526Y-53174619D01*
X108325288Y-44554619D02*
X107991955Y-45554619D01*
X107991955Y-45554619D02*
X107658622Y-44554619D01*
X106753860Y-45459380D02*
X106801479Y-45507000D01*
X106801479Y-45507000D02*
X106944336Y-45554619D01*
X106944336Y-45554619D02*
X107039574Y-45554619D01*
X107039574Y-45554619D02*
X107182431Y-45507000D01*
X107182431Y-45507000D02*
X107277669Y-45411761D01*
X107277669Y-45411761D02*
X107325288Y-45316523D01*
X107325288Y-45316523D02*
X107372907Y-45126047D01*
X107372907Y-45126047D02*
X107372907Y-44983190D01*
X107372907Y-44983190D02*
X107325288Y-44792714D01*
X107325288Y-44792714D02*
X107277669Y-44697476D01*
X107277669Y-44697476D02*
X107182431Y-44602238D01*
X107182431Y-44602238D02*
X107039574Y-44554619D01*
X107039574Y-44554619D02*
X106944336Y-44554619D01*
X106944336Y-44554619D02*
X106801479Y-44602238D01*
X106801479Y-44602238D02*
X106753860Y-44649857D01*
X105753860Y-45459380D02*
X105801479Y-45507000D01*
X105801479Y-45507000D02*
X105944336Y-45554619D01*
X105944336Y-45554619D02*
X106039574Y-45554619D01*
X106039574Y-45554619D02*
X106182431Y-45507000D01*
X106182431Y-45507000D02*
X106277669Y-45411761D01*
X106277669Y-45411761D02*
X106325288Y-45316523D01*
X106325288Y-45316523D02*
X106372907Y-45126047D01*
X106372907Y-45126047D02*
X106372907Y-44983190D01*
X106372907Y-44983190D02*
X106325288Y-44792714D01*
X106325288Y-44792714D02*
X106277669Y-44697476D01*
X106277669Y-44697476D02*
X106182431Y-44602238D01*
X106182431Y-44602238D02*
X106039574Y-44554619D01*
X106039574Y-44554619D02*
X105944336Y-44554619D01*
X105944336Y-44554619D02*
X105801479Y-44602238D01*
X105801479Y-44602238D02*
X105753860Y-44649857D01*
X107611003Y-55714619D02*
X107944336Y-55238428D01*
X108182431Y-55714619D02*
X108182431Y-54714619D01*
X108182431Y-54714619D02*
X107801479Y-54714619D01*
X107801479Y-54714619D02*
X107706241Y-54762238D01*
X107706241Y-54762238D02*
X107658622Y-54809857D01*
X107658622Y-54809857D02*
X107611003Y-54905095D01*
X107611003Y-54905095D02*
X107611003Y-55047952D01*
X107611003Y-55047952D02*
X107658622Y-55143190D01*
X107658622Y-55143190D02*
X107706241Y-55190809D01*
X107706241Y-55190809D02*
X107801479Y-55238428D01*
X107801479Y-55238428D02*
X108182431Y-55238428D01*
X107230050Y-55667000D02*
X107087193Y-55714619D01*
X107087193Y-55714619D02*
X106849098Y-55714619D01*
X106849098Y-55714619D02*
X106753860Y-55667000D01*
X106753860Y-55667000D02*
X106706241Y-55619380D01*
X106706241Y-55619380D02*
X106658622Y-55524142D01*
X106658622Y-55524142D02*
X106658622Y-55428904D01*
X106658622Y-55428904D02*
X106706241Y-55333666D01*
X106706241Y-55333666D02*
X106753860Y-55286047D01*
X106753860Y-55286047D02*
X106849098Y-55238428D01*
X106849098Y-55238428D02*
X107039574Y-55190809D01*
X107039574Y-55190809D02*
X107134812Y-55143190D01*
X107134812Y-55143190D02*
X107182431Y-55095571D01*
X107182431Y-55095571D02*
X107230050Y-55000333D01*
X107230050Y-55000333D02*
X107230050Y-54905095D01*
X107230050Y-54905095D02*
X107182431Y-54809857D01*
X107182431Y-54809857D02*
X107134812Y-54762238D01*
X107134812Y-54762238D02*
X107039574Y-54714619D01*
X107039574Y-54714619D02*
X106801479Y-54714619D01*
X106801479Y-54714619D02*
X106658622Y-54762238D01*
X106372907Y-54714619D02*
X105801479Y-54714619D01*
X106087193Y-55714619D02*
X106087193Y-54714619D01*
X107658622Y-47142238D02*
X107753860Y-47094619D01*
X107753860Y-47094619D02*
X107896717Y-47094619D01*
X107896717Y-47094619D02*
X108039574Y-47142238D01*
X108039574Y-47142238D02*
X108134812Y-47237476D01*
X108134812Y-47237476D02*
X108182431Y-47332714D01*
X108182431Y-47332714D02*
X108230050Y-47523190D01*
X108230050Y-47523190D02*
X108230050Y-47666047D01*
X108230050Y-47666047D02*
X108182431Y-47856523D01*
X108182431Y-47856523D02*
X108134812Y-47951761D01*
X108134812Y-47951761D02*
X108039574Y-48047000D01*
X108039574Y-48047000D02*
X107896717Y-48094619D01*
X107896717Y-48094619D02*
X107801479Y-48094619D01*
X107801479Y-48094619D02*
X107658622Y-48047000D01*
X107658622Y-48047000D02*
X107611003Y-47999380D01*
X107611003Y-47999380D02*
X107611003Y-47666047D01*
X107611003Y-47666047D02*
X107801479Y-47666047D01*
X107182431Y-48094619D02*
X107182431Y-47094619D01*
X107182431Y-47094619D02*
X106611003Y-48094619D01*
X106611003Y-48094619D02*
X106611003Y-47094619D01*
X106134812Y-48094619D02*
X106134812Y-47094619D01*
X106134812Y-47094619D02*
X105896717Y-47094619D01*
X105896717Y-47094619D02*
X105753860Y-47142238D01*
X105753860Y-47142238D02*
X105658622Y-47237476D01*
X105658622Y-47237476D02*
X105611003Y-47332714D01*
X105611003Y-47332714D02*
X105563384Y-47523190D01*
X105563384Y-47523190D02*
X105563384Y-47666047D01*
X105563384Y-47666047D02*
X105611003Y-47856523D01*
X105611003Y-47856523D02*
X105658622Y-47951761D01*
X105658622Y-47951761D02*
X105753860Y-48047000D01*
X105753860Y-48047000D02*
X105896717Y-48094619D01*
X105896717Y-48094619D02*
X106134812Y-48094619D01*
X108230050Y-50587000D02*
X108087193Y-50634619D01*
X108087193Y-50634619D02*
X107849098Y-50634619D01*
X107849098Y-50634619D02*
X107753860Y-50587000D01*
X107753860Y-50587000D02*
X107706241Y-50539380D01*
X107706241Y-50539380D02*
X107658622Y-50444142D01*
X107658622Y-50444142D02*
X107658622Y-50348904D01*
X107658622Y-50348904D02*
X107706241Y-50253666D01*
X107706241Y-50253666D02*
X107753860Y-50206047D01*
X107753860Y-50206047D02*
X107849098Y-50158428D01*
X107849098Y-50158428D02*
X108039574Y-50110809D01*
X108039574Y-50110809D02*
X108134812Y-50063190D01*
X108134812Y-50063190D02*
X108182431Y-50015571D01*
X108182431Y-50015571D02*
X108230050Y-49920333D01*
X108230050Y-49920333D02*
X108230050Y-49825095D01*
X108230050Y-49825095D02*
X108182431Y-49729857D01*
X108182431Y-49729857D02*
X108134812Y-49682238D01*
X108134812Y-49682238D02*
X108039574Y-49634619D01*
X108039574Y-49634619D02*
X107801479Y-49634619D01*
X107801479Y-49634619D02*
X107658622Y-49682238D01*
X107230050Y-50634619D02*
X107230050Y-49634619D01*
X107230050Y-49634619D02*
X106991955Y-49634619D01*
X106991955Y-49634619D02*
X106849098Y-49682238D01*
X106849098Y-49682238D02*
X106753860Y-49777476D01*
X106753860Y-49777476D02*
X106706241Y-49872714D01*
X106706241Y-49872714D02*
X106658622Y-50063190D01*
X106658622Y-50063190D02*
X106658622Y-50206047D01*
X106658622Y-50206047D02*
X106706241Y-50396523D01*
X106706241Y-50396523D02*
X106753860Y-50491761D01*
X106753860Y-50491761D02*
X106849098Y-50587000D01*
X106849098Y-50587000D02*
X106991955Y-50634619D01*
X106991955Y-50634619D02*
X107230050Y-50634619D01*
X106372907Y-49634619D02*
X105801479Y-49634619D01*
X106087193Y-50634619D02*
X106087193Y-49634619D01*
X108230050Y-40427000D02*
X108087193Y-40474619D01*
X108087193Y-40474619D02*
X107849098Y-40474619D01*
X107849098Y-40474619D02*
X107753860Y-40427000D01*
X107753860Y-40427000D02*
X107706241Y-40379380D01*
X107706241Y-40379380D02*
X107658622Y-40284142D01*
X107658622Y-40284142D02*
X107658622Y-40188904D01*
X107658622Y-40188904D02*
X107706241Y-40093666D01*
X107706241Y-40093666D02*
X107753860Y-40046047D01*
X107753860Y-40046047D02*
X107849098Y-39998428D01*
X107849098Y-39998428D02*
X108039574Y-39950809D01*
X108039574Y-39950809D02*
X108134812Y-39903190D01*
X108134812Y-39903190D02*
X108182431Y-39855571D01*
X108182431Y-39855571D02*
X108230050Y-39760333D01*
X108230050Y-39760333D02*
X108230050Y-39665095D01*
X108230050Y-39665095D02*
X108182431Y-39569857D01*
X108182431Y-39569857D02*
X108134812Y-39522238D01*
X108134812Y-39522238D02*
X108039574Y-39474619D01*
X108039574Y-39474619D02*
X107801479Y-39474619D01*
X107801479Y-39474619D02*
X107658622Y-39522238D01*
X106658622Y-40379380D02*
X106706241Y-40427000D01*
X106706241Y-40427000D02*
X106849098Y-40474619D01*
X106849098Y-40474619D02*
X106944336Y-40474619D01*
X106944336Y-40474619D02*
X107087193Y-40427000D01*
X107087193Y-40427000D02*
X107182431Y-40331761D01*
X107182431Y-40331761D02*
X107230050Y-40236523D01*
X107230050Y-40236523D02*
X107277669Y-40046047D01*
X107277669Y-40046047D02*
X107277669Y-39903190D01*
X107277669Y-39903190D02*
X107230050Y-39712714D01*
X107230050Y-39712714D02*
X107182431Y-39617476D01*
X107182431Y-39617476D02*
X107087193Y-39522238D01*
X107087193Y-39522238D02*
X106944336Y-39474619D01*
X106944336Y-39474619D02*
X106849098Y-39474619D01*
X106849098Y-39474619D02*
X106706241Y-39522238D01*
X106706241Y-39522238D02*
X106658622Y-39569857D01*
X105753860Y-40474619D02*
X106230050Y-40474619D01*
X106230050Y-40474619D02*
X106230050Y-39474619D01*
M02*
