%TF.GenerationSoftware,KiCad,Pcbnew,7.0.11+dfsg-1build4*%
%TF.CreationDate,2026-01-29T22:33:19-05:00*%
%TF.ProjectId,,58585858-5858-4585-9858-585858585858,rev?*%
%TF.SameCoordinates,Original*%
%TF.FileFunction,Profile,NP*%
%FSLAX46Y46*%
G04 Gerber Fmt 4.6, Leading zero omitted, Abs format (unit mm)*
G04 Created by KiCad (PCBNEW 7.0.11+dfsg-1build4) date 2026-01-29 22:33:19*
%MOMM*%
%LPD*%
G01*
G04 APERTURE LIST*
%TA.AperFunction,Profile*%
%ADD10C,0.050000*%
%TD*%
%TA.AperFunction,Profile*%
%ADD11C,0.120000*%
%TD*%
G04 APERTURE END LIST*
D10*
X113170000Y-79485000D02*
X163170000Y-79485000D01*
X113170000Y-129485000D02*
X163170000Y-129485000D01*
X163170000Y-79485000D02*
X163170000Y-129485000D01*
X113170000Y-79485000D02*
X113170000Y-129485000D01*
X63170000Y-79485000D02*
X113170000Y-79485000D01*
X63170000Y-129485000D02*
X113170000Y-129485000D01*
X113170000Y-79485000D02*
X113170000Y-129485000D01*
X63170000Y-79485000D02*
X63170000Y-129485000D01*
X113170000Y-29485000D02*
X163170000Y-29485000D01*
X113170000Y-79485000D02*
X163170000Y-79485000D01*
X163170000Y-29485000D02*
X163170000Y-79485000D01*
X113170000Y-29485000D02*
X113170000Y-79485000D01*
X63170000Y-29485000D02*
X63170000Y-79485000D01*
X113170000Y-29485000D02*
X113170000Y-79485000D01*
X63170000Y-79485000D02*
X113170000Y-79485000D01*
X63170000Y-29485000D02*
X113170000Y-29485000D01*
D11*
%TO.C,D1*%
X148470000Y-81235000D02*
X148470000Y-83735000D01*
X148720000Y-80985000D02*
X151620000Y-80985000D01*
X151620000Y-83985000D02*
X148720000Y-83985000D01*
X151870000Y-83735000D02*
X151870000Y-81235000D01*
X148720000Y-80985000D02*
G75*
G03*
X148470000Y-81235000I-1J-249999D01*
G01*
X148470000Y-83735000D02*
G75*
G03*
X148720000Y-83985000I249999J-1D01*
G01*
X151870000Y-81235000D02*
G75*
G03*
X151620000Y-80985000I-250000J0D01*
G01*
X151620000Y-83985000D02*
G75*
G03*
X151870000Y-83735000I0J250000D01*
G01*
X98470000Y-81235000D02*
X98470000Y-83735000D01*
X98720000Y-80985000D02*
X101620000Y-80985000D01*
X101620000Y-83985000D02*
X98720000Y-83985000D01*
X101870000Y-83735000D02*
X101870000Y-81235000D01*
X98720000Y-80985000D02*
G75*
G03*
X98470000Y-81235000I-1J-249999D01*
G01*
X98470000Y-83735000D02*
G75*
G03*
X98720000Y-83985000I249999J-1D01*
G01*
X101870000Y-81235000D02*
G75*
G03*
X101620000Y-80985000I-250000J0D01*
G01*
X101620000Y-83985000D02*
G75*
G03*
X101870000Y-83735000I0J250000D01*
G01*
X148470000Y-31235000D02*
X148470000Y-33735000D01*
X148720000Y-30985000D02*
X151620000Y-30985000D01*
X151620000Y-33985000D02*
X148720000Y-33985000D01*
X151870000Y-33735000D02*
X151870000Y-31235000D01*
X148720000Y-30985000D02*
G75*
G03*
X148470000Y-31235000I-1J-249999D01*
G01*
X148470000Y-33735000D02*
G75*
G03*
X148720000Y-33985000I249999J-1D01*
G01*
X151870000Y-31235000D02*
G75*
G03*
X151620000Y-30985000I-250000J0D01*
G01*
X151620000Y-33985000D02*
G75*
G03*
X151870000Y-33735000I0J250000D01*
G01*
X98470000Y-31235000D02*
X98470000Y-33735000D01*
X98720000Y-30985000D02*
X101620000Y-30985000D01*
X101620000Y-33985000D02*
X98720000Y-33985000D01*
X101870000Y-33735000D02*
X101870000Y-31235000D01*
X98720000Y-30985000D02*
G75*
G03*
X98470000Y-31235000I-1J-249999D01*
G01*
X98470000Y-33735000D02*
G75*
G03*
X98720000Y-33985000I249999J-1D01*
G01*
X101870000Y-31235000D02*
G75*
G03*
X101620000Y-30985000I-250000J0D01*
G01*
X101620000Y-33985000D02*
G75*
G03*
X101870000Y-33735000I0J250000D01*
G01*
%TD*%
M02*
