%TF.GenerationSoftware,KiCad,Pcbnew,7.0.11+dfsg-1build4*%
%TF.CreationDate,2026-01-29T22:43:39-05:00*%
%TF.ProjectId,,58585858-5858-4585-9858-585858585858,rev?*%
%TF.SameCoordinates,Original*%
%TF.FileFunction,Profile,NP*%
%FSLAX46Y46*%
G04 Gerber Fmt 4.6, Leading zero omitted, Abs format (unit mm)*
G04 Created by KiCad (PCBNEW 7.0.11+dfsg-1build4) date 2026-01-29 22:43:39*
%MOMM*%
%LPD*%
G01*
G04 APERTURE LIST*
%TA.AperFunction,Profile*%
%ADD10C,0.050000*%
%TD*%
%TA.AperFunction,Profile*%
%ADD11C,0.120000*%
%TD*%
G04 APERTURE END LIST*
D10*
X130950000Y-95360000D02*
X180950000Y-95360000D01*
X130950000Y-145360000D02*
X180950000Y-145360000D01*
X180950000Y-95360000D02*
X180950000Y-145360000D01*
X130950000Y-95360000D02*
X130950000Y-145360000D01*
X80950000Y-95360000D02*
X130950000Y-95360000D01*
X80950000Y-145360000D02*
X130950000Y-145360000D01*
X130950000Y-95360000D02*
X130950000Y-145360000D01*
X80950000Y-95360000D02*
X80950000Y-145360000D01*
X130950000Y-45360000D02*
X180950000Y-45360000D01*
X130950000Y-95360000D02*
X180950000Y-95360000D01*
X180950000Y-45360000D02*
X180950000Y-95360000D01*
X130950000Y-45360000D02*
X130950000Y-95360000D01*
X80950000Y-45360000D02*
X80950000Y-95360000D01*
X130950000Y-45360000D02*
X130950000Y-95360000D01*
X80950000Y-95360000D02*
X130950000Y-95360000D01*
X80950000Y-45360000D02*
X130950000Y-45360000D01*
D11*
%TO.C,D1*%
X166250000Y-97110000D02*
X166250000Y-99610000D01*
X166500000Y-96860000D02*
X169400000Y-96860000D01*
X169400000Y-99860000D02*
X166500000Y-99860000D01*
X169650000Y-99610000D02*
X169650000Y-97110000D01*
X166500000Y-96860000D02*
G75*
G03*
X166250000Y-97110000I-1J-249999D01*
G01*
X166250000Y-99610000D02*
G75*
G03*
X166500000Y-99860000I249999J-1D01*
G01*
X169650000Y-97110000D02*
G75*
G03*
X169400000Y-96860000I-250000J0D01*
G01*
X169400000Y-99860000D02*
G75*
G03*
X169650000Y-99610000I0J250000D01*
G01*
X116250000Y-97110000D02*
X116250000Y-99610000D01*
X116500000Y-96860000D02*
X119400000Y-96860000D01*
X119400000Y-99860000D02*
X116500000Y-99860000D01*
X119650000Y-99610000D02*
X119650000Y-97110000D01*
X116500000Y-96860000D02*
G75*
G03*
X116250000Y-97110000I-1J-249999D01*
G01*
X116250000Y-99610000D02*
G75*
G03*
X116500000Y-99860000I249999J-1D01*
G01*
X119650000Y-97110000D02*
G75*
G03*
X119400000Y-96860000I-250000J0D01*
G01*
X119400000Y-99860000D02*
G75*
G03*
X119650000Y-99610000I0J250000D01*
G01*
X166250000Y-47110000D02*
X166250000Y-49610000D01*
X166500000Y-46860000D02*
X169400000Y-46860000D01*
X169400000Y-49860000D02*
X166500000Y-49860000D01*
X169650000Y-49610000D02*
X169650000Y-47110000D01*
X166500000Y-46860000D02*
G75*
G03*
X166250000Y-47110000I-1J-249999D01*
G01*
X166250000Y-49610000D02*
G75*
G03*
X166500000Y-49860000I249999J-1D01*
G01*
X169650000Y-47110000D02*
G75*
G03*
X169400000Y-46860000I-250000J0D01*
G01*
X169400000Y-49860000D02*
G75*
G03*
X169650000Y-49610000I0J250000D01*
G01*
X116250000Y-47110000D02*
X116250000Y-49610000D01*
X116500000Y-46860000D02*
X119400000Y-46860000D01*
X119400000Y-49860000D02*
X116500000Y-49860000D01*
X119650000Y-49610000D02*
X119650000Y-47110000D01*
X116500000Y-46860000D02*
G75*
G03*
X116250000Y-47110000I-1J-249999D01*
G01*
X116250000Y-49610000D02*
G75*
G03*
X116500000Y-49860000I249999J-1D01*
G01*
X119650000Y-47110000D02*
G75*
G03*
X119400000Y-46860000I-250000J0D01*
G01*
X119400000Y-49860000D02*
G75*
G03*
X119650000Y-49610000I0J250000D01*
G01*
%TD*%
M02*
