%TF.GenerationSoftware,KiCad,Pcbnew,7.0.11+dfsg-1build4*%
%TF.CreationDate,2026-01-29T22:33:19-05:00*%
%TF.ProjectId,,58585858-5858-4585-9858-585858585858,rev?*%
%TF.SameCoordinates,Original*%
%TF.FileFunction,Copper,L1,Top*%
%TF.FilePolarity,Positive*%
%FSLAX46Y46*%
G04 Gerber Fmt 4.6, Leading zero omitted, Abs format (unit mm)*
G04 Created by KiCad (PCBNEW 7.0.11+dfsg-1build4) date 2026-01-29 22:33:19*
%MOMM*%
%LPD*%
G01*
G04 APERTURE LIST*
G04 Aperture macros list*
%AMRoundRect*
0 Rectangle with rounded corners*
0 $1 Rounding radius*
0 $2 $3 $4 $5 $6 $7 $8 $9 X,Y pos of 4 corners*
0 Add a 4 corners polygon primitive as box body*
4,1,4,$2,$3,$4,$5,$6,$7,$8,$9,$2,$3,0*
0 Add four circle primitives for the rounded corners*
1,1,$1+$1,$2,$3*
1,1,$1+$1,$4,$5*
1,1,$1+$1,$6,$7*
1,1,$1+$1,$8,$9*
0 Add four rect primitives between the rounded corners*
20,1,$1+$1,$2,$3,$4,$5,0*
20,1,$1+$1,$4,$5,$6,$7,0*
20,1,$1+$1,$6,$7,$8,$9,0*
20,1,$1+$1,$8,$9,$2,$3,0*%
G04 Aperture macros list end*
%TA.AperFunction,EtchedComponent*%
%ADD10C,0.500000*%
%TD*%
%TA.AperFunction,SMDPad,CuDef*%
%ADD11RoundRect,0.250000X0.350000X0.450000X-0.350000X0.450000X-0.350000X-0.450000X0.350000X-0.450000X0*%
%TD*%
%TA.AperFunction,SMDPad,CuDef*%
%ADD12RoundRect,0.250000X-0.337500X-0.475000X0.337500X-0.475000X0.337500X0.475000X-0.337500X0.475000X0*%
%TD*%
%TA.AperFunction,SMDPad,CuDef*%
%ADD13RoundRect,0.250000X0.475000X-0.337500X0.475000X0.337500X-0.475000X0.337500X-0.475000X-0.337500X0*%
%TD*%
%TA.AperFunction,SMDPad,CuDef*%
%ADD14RoundRect,0.250000X0.337500X0.475000X-0.337500X0.475000X-0.337500X-0.475000X0.337500X-0.475000X0*%
%TD*%
%TA.AperFunction,SMDPad,CuDef*%
%ADD15RoundRect,0.150000X0.150000X-0.587500X0.150000X0.587500X-0.150000X0.587500X-0.150000X-0.587500X0*%
%TD*%
%TA.AperFunction,SMDPad,CuDef*%
%ADD16RoundRect,0.250000X-0.475000X0.337500X-0.475000X-0.337500X0.475000X-0.337500X0.475000X0.337500X0*%
%TD*%
%TA.AperFunction,SMDPad,CuDef*%
%ADD17RoundRect,0.250000X-0.350000X-0.450000X0.350000X-0.450000X0.350000X0.450000X-0.350000X0.450000X0*%
%TD*%
%TA.AperFunction,ComponentPad*%
%ADD18R,1.700000X1.700000*%
%TD*%
%TA.AperFunction,ComponentPad*%
%ADD19O,1.700000X1.700000*%
%TD*%
%TA.AperFunction,SMDPad,CuDef*%
%ADD20RoundRect,0.250000X0.362500X0.700000X-0.362500X0.700000X-0.362500X-0.700000X0.362500X-0.700000X0*%
%TD*%
%TA.AperFunction,SMDPad,CuDef*%
%ADD21R,1.400000X0.800000*%
%TD*%
%TA.AperFunction,SMDPad,CuDef*%
%ADD22R,2.100000X1.800000*%
%TD*%
%TA.AperFunction,SMDPad,CuDef*%
%ADD23RoundRect,0.250000X-0.362500X-0.700000X0.362500X-0.700000X0.362500X0.700000X-0.362500X0.700000X0*%
%TD*%
%TA.AperFunction,WasherPad*%
%ADD24C,1.600000*%
%TD*%
%TA.AperFunction,ComponentPad*%
%ADD25RoundRect,0.340500X0.659500X-0.409500X0.659500X0.409500X-0.659500X0.409500X-0.659500X-0.409500X0*%
%TD*%
%TA.AperFunction,ComponentPad*%
%ADD26O,2.000000X1.500000*%
%TD*%
%TA.AperFunction,SMDPad,CuDef*%
%ADD27C,1.000000*%
%TD*%
%TA.AperFunction,ComponentPad*%
%ADD28C,0.600000*%
%TD*%
%TA.AperFunction,SMDPad,CuDef*%
%ADD29RoundRect,0.062500X-0.062500X0.375000X-0.062500X-0.375000X0.062500X-0.375000X0.062500X0.375000X0*%
%TD*%
%TA.AperFunction,SMDPad,CuDef*%
%ADD30RoundRect,0.062500X-0.375000X0.062500X-0.375000X-0.062500X0.375000X-0.062500X0.375000X0.062500X0*%
%TD*%
%TA.AperFunction,HeatsinkPad*%
%ADD31R,4.100000X4.100000*%
%TD*%
%TA.AperFunction,ViaPad*%
%ADD32C,0.600000*%
%TD*%
%TA.AperFunction,Conductor*%
%ADD33C,0.200000*%
%TD*%
G04 APERTURE END LIST*
D10*
%TO.C,L_pcb1*%
X124420000Y-90735000D02*
X124420000Y-118235000D01*
X124420000Y-90735000D02*
X138170000Y-90735000D01*
X124420000Y-118235000D02*
X132770000Y-118235000D01*
X125420000Y-91735000D02*
X125420000Y-117235000D01*
X125420000Y-91735000D02*
X139170000Y-91735000D01*
X125420000Y-117235000D02*
X150920000Y-117235000D01*
X126420000Y-92735000D02*
X126420000Y-116235000D01*
X126420000Y-92735000D02*
X139670000Y-92735000D01*
X126420000Y-116235000D02*
X149920000Y-116235000D01*
X127420000Y-93735000D02*
X127420000Y-115235000D01*
X127420000Y-93735000D02*
X140170000Y-93735000D01*
X127420000Y-115235000D02*
X148920000Y-115235000D01*
X128420000Y-94735000D02*
X128420000Y-114235000D01*
X128420000Y-94735000D02*
X140670000Y-94735000D01*
X128420000Y-114235000D02*
X147920000Y-114235000D01*
X129420000Y-95735000D02*
X129420000Y-113235000D01*
X129420000Y-95735000D02*
X141170000Y-95735000D01*
X129420000Y-113235000D02*
X146920000Y-113235000D01*
X138170000Y-118235000D02*
X138170000Y-118685000D01*
X139170000Y-91735000D02*
X140170000Y-90735000D01*
X139670000Y-92735000D02*
X140670000Y-91735000D01*
X140170000Y-93735000D02*
X141170000Y-92735000D01*
X140670000Y-94735000D02*
X141670000Y-93735000D01*
X141170000Y-95735000D02*
X142170000Y-94735000D01*
X143570000Y-118235000D02*
X151920000Y-118235000D01*
X146920000Y-95735000D02*
X142670000Y-95735000D01*
X146920000Y-95735000D02*
X146920000Y-113235000D01*
X147920000Y-94735000D02*
X142170000Y-94735000D01*
X147920000Y-94735000D02*
X147920000Y-114235000D01*
X148920000Y-93735000D02*
X141670000Y-93735000D01*
X148920000Y-93735000D02*
X148920000Y-115235000D01*
X149920000Y-92735000D02*
X141170000Y-92735000D01*
X149920000Y-92735000D02*
X149920000Y-116235000D01*
X150920000Y-91735000D02*
X140670000Y-91735000D01*
X150920000Y-91735000D02*
X150920000Y-117235000D01*
X151920000Y-90735000D02*
X140170000Y-90735000D01*
X151920000Y-90735000D02*
X151920000Y-118235000D01*
X74420000Y-90735000D02*
X74420000Y-118235000D01*
X74420000Y-90735000D02*
X88170000Y-90735000D01*
X74420000Y-118235000D02*
X82770000Y-118235000D01*
X75420000Y-91735000D02*
X75420000Y-117235000D01*
X75420000Y-91735000D02*
X89170000Y-91735000D01*
X75420000Y-117235000D02*
X100920000Y-117235000D01*
X76420000Y-92735000D02*
X76420000Y-116235000D01*
X76420000Y-92735000D02*
X89670000Y-92735000D01*
X76420000Y-116235000D02*
X99920000Y-116235000D01*
X77420000Y-93735000D02*
X77420000Y-115235000D01*
X77420000Y-93735000D02*
X90170000Y-93735000D01*
X77420000Y-115235000D02*
X98920000Y-115235000D01*
X78420000Y-94735000D02*
X78420000Y-114235000D01*
X78420000Y-94735000D02*
X90670000Y-94735000D01*
X78420000Y-114235000D02*
X97920000Y-114235000D01*
X79420000Y-95735000D02*
X79420000Y-113235000D01*
X79420000Y-95735000D02*
X91170000Y-95735000D01*
X79420000Y-113235000D02*
X96920000Y-113235000D01*
X88170000Y-118235000D02*
X88170000Y-118685000D01*
X89170000Y-91735000D02*
X90170000Y-90735000D01*
X89670000Y-92735000D02*
X90670000Y-91735000D01*
X90170000Y-93735000D02*
X91170000Y-92735000D01*
X90670000Y-94735000D02*
X91670000Y-93735000D01*
X91170000Y-95735000D02*
X92170000Y-94735000D01*
X93570000Y-118235000D02*
X101920000Y-118235000D01*
X96920000Y-95735000D02*
X92670000Y-95735000D01*
X96920000Y-95735000D02*
X96920000Y-113235000D01*
X97920000Y-94735000D02*
X92170000Y-94735000D01*
X97920000Y-94735000D02*
X97920000Y-114235000D01*
X98920000Y-93735000D02*
X91670000Y-93735000D01*
X98920000Y-93735000D02*
X98920000Y-115235000D01*
X99920000Y-92735000D02*
X91170000Y-92735000D01*
X99920000Y-92735000D02*
X99920000Y-116235000D01*
X100920000Y-91735000D02*
X90670000Y-91735000D01*
X100920000Y-91735000D02*
X100920000Y-117235000D01*
X101920000Y-90735000D02*
X90170000Y-90735000D01*
X101920000Y-90735000D02*
X101920000Y-118235000D01*
X124420000Y-40735000D02*
X124420000Y-68235000D01*
X124420000Y-40735000D02*
X138170000Y-40735000D01*
X124420000Y-68235000D02*
X132770000Y-68235000D01*
X125420000Y-41735000D02*
X125420000Y-67235000D01*
X125420000Y-41735000D02*
X139170000Y-41735000D01*
X125420000Y-67235000D02*
X150920000Y-67235000D01*
X126420000Y-42735000D02*
X126420000Y-66235000D01*
X126420000Y-42735000D02*
X139670000Y-42735000D01*
X126420000Y-66235000D02*
X149920000Y-66235000D01*
X127420000Y-43735000D02*
X127420000Y-65235000D01*
X127420000Y-43735000D02*
X140170000Y-43735000D01*
X127420000Y-65235000D02*
X148920000Y-65235000D01*
X128420000Y-44735000D02*
X128420000Y-64235000D01*
X128420000Y-44735000D02*
X140670000Y-44735000D01*
X128420000Y-64235000D02*
X147920000Y-64235000D01*
X129420000Y-45735000D02*
X129420000Y-63235000D01*
X129420000Y-45735000D02*
X141170000Y-45735000D01*
X129420000Y-63235000D02*
X146920000Y-63235000D01*
X138170000Y-68235000D02*
X138170000Y-68685000D01*
X139170000Y-41735000D02*
X140170000Y-40735000D01*
X139670000Y-42735000D02*
X140670000Y-41735000D01*
X140170000Y-43735000D02*
X141170000Y-42735000D01*
X140670000Y-44735000D02*
X141670000Y-43735000D01*
X141170000Y-45735000D02*
X142170000Y-44735000D01*
X143570000Y-68235000D02*
X151920000Y-68235000D01*
X146920000Y-45735000D02*
X142670000Y-45735000D01*
X146920000Y-45735000D02*
X146920000Y-63235000D01*
X147920000Y-44735000D02*
X142170000Y-44735000D01*
X147920000Y-44735000D02*
X147920000Y-64235000D01*
X148920000Y-43735000D02*
X141670000Y-43735000D01*
X148920000Y-43735000D02*
X148920000Y-65235000D01*
X149920000Y-42735000D02*
X141170000Y-42735000D01*
X149920000Y-42735000D02*
X149920000Y-66235000D01*
X150920000Y-41735000D02*
X140670000Y-41735000D01*
X150920000Y-41735000D02*
X150920000Y-67235000D01*
X151920000Y-40735000D02*
X140170000Y-40735000D01*
X151920000Y-40735000D02*
X151920000Y-68235000D01*
X74420000Y-40735000D02*
X74420000Y-68235000D01*
X74420000Y-40735000D02*
X88170000Y-40735000D01*
X74420000Y-68235000D02*
X82770000Y-68235000D01*
X75420000Y-41735000D02*
X75420000Y-67235000D01*
X75420000Y-41735000D02*
X89170000Y-41735000D01*
X75420000Y-67235000D02*
X100920000Y-67235000D01*
X76420000Y-42735000D02*
X76420000Y-66235000D01*
X76420000Y-42735000D02*
X89670000Y-42735000D01*
X76420000Y-66235000D02*
X99920000Y-66235000D01*
X77420000Y-43735000D02*
X77420000Y-65235000D01*
X77420000Y-43735000D02*
X90170000Y-43735000D01*
X77420000Y-65235000D02*
X98920000Y-65235000D01*
X78420000Y-44735000D02*
X78420000Y-64235000D01*
X78420000Y-44735000D02*
X90670000Y-44735000D01*
X78420000Y-64235000D02*
X97920000Y-64235000D01*
X79420000Y-45735000D02*
X79420000Y-63235000D01*
X79420000Y-45735000D02*
X91170000Y-45735000D01*
X79420000Y-63235000D02*
X96920000Y-63235000D01*
X88170000Y-68235000D02*
X88170000Y-68685000D01*
X89170000Y-41735000D02*
X90170000Y-40735000D01*
X89670000Y-42735000D02*
X90670000Y-41735000D01*
X90170000Y-43735000D02*
X91170000Y-42735000D01*
X90670000Y-44735000D02*
X91670000Y-43735000D01*
X91170000Y-45735000D02*
X92170000Y-44735000D01*
X93570000Y-68235000D02*
X101920000Y-68235000D01*
X96920000Y-45735000D02*
X92670000Y-45735000D01*
X96920000Y-45735000D02*
X96920000Y-63235000D01*
X97920000Y-44735000D02*
X92170000Y-44735000D01*
X97920000Y-44735000D02*
X97920000Y-64235000D01*
X98920000Y-43735000D02*
X91670000Y-43735000D01*
X98920000Y-43735000D02*
X98920000Y-65235000D01*
X99920000Y-42735000D02*
X91170000Y-42735000D01*
X99920000Y-42735000D02*
X99920000Y-66235000D01*
X100920000Y-41735000D02*
X90670000Y-41735000D01*
X100920000Y-41735000D02*
X100920000Y-67235000D01*
X101920000Y-40735000D02*
X90170000Y-40735000D01*
X101920000Y-40735000D02*
X101920000Y-68235000D01*
%TD*%
D11*
%TO.P,R7,1*%
%TO.N,Net-(U2-I1)*%
X116370000Y-114985000D03*
%TO.P,R7,2*%
%TO.N,GND*%
X114370000Y-114985000D03*
%TD*%
D12*
%TO.P,C1,1*%
%TO.N,Net-(C1-Pad1)*%
X134392500Y-118985000D03*
%TO.P,C1,2*%
%TO.N,GND*%
X136467500Y-118985000D03*
%TD*%
%TO.P,C2,1*%
%TO.N,GND*%
X139872500Y-118985000D03*
%TO.P,C2,2*%
%TO.N,Net-(C2-Pad2)*%
X141947500Y-118985000D03*
%TD*%
D13*
%TO.P,C17,1*%
%TO.N,GND*%
X132970000Y-127822500D03*
%TO.P,C17,2*%
%TO.N,Net-(U2-OSCOUT)*%
X132970000Y-125747500D03*
%TD*%
D11*
%TO.P,R6,1*%
%TO.N,+3.3V*%
X120370000Y-117485000D03*
%TO.P,R6,2*%
%TO.N,Net-(U2-I0)*%
X118370000Y-117485000D03*
%TD*%
D14*
%TO.P,C7,1*%
%TO.N,GND*%
X150207500Y-125485000D03*
%TO.P,C7,2*%
%TO.N,Net-(U2-VMID)*%
X148132500Y-125485000D03*
%TD*%
D11*
%TO.P,R13,1*%
%TO.N,/LED_KR*%
X158170000Y-109885000D03*
%TO.P,R13,2*%
%TO.N,Net-(D1-RK)*%
X156170000Y-109885000D03*
%TD*%
D15*
%TO.P,Q2,1,G*%
%TO.N,+3.3V*%
X156220000Y-94422500D03*
%TO.P,Q2,2,S*%
%TO.N,Net-(Q2-S)*%
X158120000Y-94422500D03*
%TO.P,Q2,3,D*%
%TO.N,Net-(J1-Pin_2)*%
X157170000Y-92547500D03*
%TD*%
D13*
%TO.P,C11,1*%
%TO.N,+3.3V*%
X122170000Y-128022500D03*
%TO.P,C11,2*%
%TO.N,GND*%
X122170000Y-125947500D03*
%TD*%
D15*
%TO.P,Q1,1,G*%
%TO.N,+3.3V*%
X156220000Y-90422500D03*
%TO.P,Q1,2,S*%
%TO.N,Net-(Q1-S)*%
X158120000Y-90422500D03*
%TO.P,Q1,3,D*%
%TO.N,Net-(J1-Pin_1)*%
X157170000Y-88547500D03*
%TD*%
D11*
%TO.P,R14,1*%
%TO.N,/LED_KG*%
X158170000Y-111985000D03*
%TO.P,R14,2*%
%TO.N,Net-(D1-GK)*%
X156170000Y-111985000D03*
%TD*%
D16*
%TO.P,C16,1*%
%TO.N,GND*%
X124870000Y-125747500D03*
%TO.P,C16,2*%
%TO.N,Net-(U2-OSCIN)*%
X124870000Y-127822500D03*
%TD*%
D17*
%TO.P,R12,1*%
%TO.N,/SENS_DET*%
X141670000Y-109185000D03*
%TO.P,R12,2*%
%TO.N,VCC*%
X143670000Y-109185000D03*
%TD*%
D14*
%TO.P,C5,1*%
%TO.N,Net-(C3-Pad1)*%
X128207500Y-120135000D03*
%TO.P,C5,2*%
%TO.N,GND*%
X126132500Y-120135000D03*
%TD*%
D17*
%TO.P,R4,1*%
%TO.N,/RSTPD_N*%
X160070000Y-120285000D03*
%TO.P,R4,2*%
%TO.N,GND*%
X162070000Y-120285000D03*
%TD*%
D11*
%TO.P,R8,1*%
%TO.N,Net-(U2-I0)*%
X116370000Y-117485000D03*
%TO.P,R8,2*%
%TO.N,GND*%
X114370000Y-117485000D03*
%TD*%
D12*
%TO.P,C12,1*%
%TO.N,VCC*%
X152082500Y-123185000D03*
%TO.P,C12,2*%
%TO.N,GND*%
X154157500Y-123185000D03*
%TD*%
D11*
%TO.P,R11,1*%
%TO.N,/SENS_LED*%
X134470000Y-109185000D03*
%TO.P,R11,2*%
%TO.N,Net-(R11-Pad2)*%
X132470000Y-109185000D03*
%TD*%
D12*
%TO.P,C9,1*%
%TO.N,+3.3V*%
X120315000Y-119785000D03*
%TO.P,C9,2*%
%TO.N,GND*%
X122390000Y-119785000D03*
%TD*%
D11*
%TO.P,R5,1*%
%TO.N,+3.3V*%
X120370000Y-114985000D03*
%TO.P,R5,2*%
%TO.N,Net-(U2-I1)*%
X118370000Y-114985000D03*
%TD*%
D18*
%TO.P,J1,1,Pin_1*%
%TO.N,Net-(J1-Pin_1)*%
X161070000Y-90485000D03*
D19*
%TO.P,J1,2,Pin_2*%
%TO.N,Net-(J1-Pin_2)*%
X161070000Y-93025000D03*
%TO.P,J1,3,Pin_3*%
%TO.N,VCC*%
X161070000Y-95565000D03*
%TO.P,J1,4,Pin_4*%
%TO.N,GND*%
X161070000Y-98105000D03*
%TO.P,J1,5,Pin_5*%
%TO.N,/SENS_DET*%
X161070000Y-100645000D03*
%TO.P,J1,6,Pin_6*%
%TO.N,/SENS_LED*%
X161070000Y-103185000D03*
%TO.P,J1,7,Pin_7*%
%TO.N,/RSTPD_N*%
X161070000Y-105725000D03*
%TO.P,J1,8,Pin_8*%
%TO.N,/LED_KR*%
X161070000Y-108265000D03*
%TO.P,J1,9,Pin_9*%
%TO.N,/LED_KG*%
X161070000Y-110805000D03*
%TO.P,J1,10,Pin_10*%
%TO.N,/LED_KB*%
X161070000Y-113345000D03*
%TD*%
D17*
%TO.P,R3,1*%
%TO.N,VCC*%
X156070000Y-120285000D03*
%TO.P,R3,2*%
%TO.N,/RSTPD_N*%
X158070000Y-120285000D03*
%TD*%
D20*
%TO.P,L1,1,1*%
%TO.N,Net-(U2-TX2)*%
X131332500Y-122485000D03*
%TO.P,L1,2,2*%
%TO.N,Net-(C3-Pad1)*%
X128007500Y-122485000D03*
%TD*%
D12*
%TO.P,C3,1*%
%TO.N,Net-(C3-Pad1)*%
X130132500Y-120135000D03*
%TO.P,C3,2*%
%TO.N,Net-(C1-Pad1)*%
X132207500Y-120135000D03*
%TD*%
D13*
%TO.P,C10,1*%
%TO.N,+3.3V*%
X124220000Y-123922500D03*
%TO.P,C10,2*%
%TO.N,GND*%
X124220000Y-121847500D03*
%TD*%
D14*
%TO.P,C15,1*%
%TO.N,+3.3V*%
X154157500Y-127985000D03*
%TO.P,C15,2*%
%TO.N,GND*%
X152082500Y-127985000D03*
%TD*%
D17*
%TO.P,R10,1*%
%TO.N,+3.3V*%
X160070000Y-117985000D03*
%TO.P,R10,2*%
%TO.N,Net-(Q1-S)*%
X162070000Y-117985000D03*
%TD*%
D12*
%TO.P,C8,1*%
%TO.N,Net-(C8-Pad1)*%
X148132500Y-127985000D03*
%TO.P,C8,2*%
%TO.N,Net-(U2-RX)*%
X150207500Y-127985000D03*
%TD*%
D17*
%TO.P,R9,1*%
%TO.N,+3.3V*%
X156070000Y-117985000D03*
%TO.P,R9,2*%
%TO.N,Net-(Q2-S)*%
X158070000Y-117985000D03*
%TD*%
D21*
%TO.P,D1,1,RK*%
%TO.N,Net-(D1-RK)*%
X147370000Y-83285000D03*
%TO.P,D1,2,A*%
%TO.N,VCC*%
X152970000Y-83285000D03*
%TO.P,D1,3,GK*%
%TO.N,Net-(D1-GK)*%
X147370000Y-81685000D03*
%TO.P,D1,4,BK*%
%TO.N,Net-(D1-BK)*%
X152970000Y-81685000D03*
%TD*%
D22*
%TO.P,Y1,1,1*%
%TO.N,Net-(U2-OSCIN)*%
X127470000Y-127935000D03*
%TO.P,Y1,2,2*%
%TO.N,GND*%
X130370000Y-127935000D03*
%TO.P,Y1,3,3*%
%TO.N,Net-(U2-OSCOUT)*%
X130370000Y-125635000D03*
%TO.P,Y1,4,4*%
%TO.N,GND*%
X127470000Y-125635000D03*
%TD*%
D14*
%TO.P,C4,1*%
%TO.N,Net-(C4-Pad1)*%
X146207500Y-120135000D03*
%TO.P,C4,2*%
%TO.N,Net-(C2-Pad2)*%
X144132500Y-120135000D03*
%TD*%
D17*
%TO.P,R1,1*%
%TO.N,Net-(U2-RX)*%
X144170000Y-125485000D03*
%TO.P,R1,2*%
%TO.N,Net-(U2-VMID)*%
X146170000Y-125485000D03*
%TD*%
D13*
%TO.P,C13,1*%
%TO.N,+3.3V*%
X122170000Y-123922500D03*
%TO.P,C13,2*%
%TO.N,GND*%
X122170000Y-121847500D03*
%TD*%
D23*
%TO.P,L2,1,1*%
%TO.N,Net-(U2-TX1)*%
X145007500Y-122485000D03*
%TO.P,L2,2,2*%
%TO.N,Net-(C4-Pad1)*%
X148332500Y-122485000D03*
%TD*%
D24*
%TO.P,U1,*%
%TO.N,*%
X143215000Y-97255000D03*
D25*
%TO.P,U1,1*%
%TO.N,Net-(R11-Pad2)*%
X133440000Y-103185000D03*
D26*
%TO.P,U1,2*%
%TO.N,GND*%
X133440000Y-105725000D03*
%TO.P,U1,3*%
%TO.N,/SENS_DET*%
X142890000Y-105725000D03*
%TO.P,U1,4*%
%TO.N,GND*%
X142890000Y-103185000D03*
%TD*%
D11*
%TO.P,R2,1*%
%TO.N,Net-(C8-Pad1)*%
X146170000Y-127985000D03*
%TO.P,R2,2*%
%TO.N,Net-(C3-Pad1)*%
X144170000Y-127985000D03*
%TD*%
D14*
%TO.P,C6,1*%
%TO.N,GND*%
X150207500Y-120135000D03*
%TO.P,C6,2*%
%TO.N,Net-(C4-Pad1)*%
X148132500Y-120135000D03*
%TD*%
%TO.P,C14,1*%
%TO.N,+3.3V*%
X154157500Y-125485000D03*
%TO.P,C14,2*%
%TO.N,GND*%
X152082500Y-125485000D03*
%TD*%
D11*
%TO.P,R15,1*%
%TO.N,/LED_KB*%
X158170000Y-114105000D03*
%TO.P,R15,2*%
%TO.N,Net-(D1-BK)*%
X156170000Y-114105000D03*
%TD*%
D27*
%TO.P,L_pcb1,1,1*%
%TO.N,Net-(C1-Pad1)*%
X132770000Y-118235000D03*
%TO.P,L_pcb1,2,2*%
%TO.N,GND*%
X138170000Y-119185000D03*
%TO.P,L_pcb1,3,3*%
%TO.N,Net-(C2-Pad2)*%
X143570000Y-118235000D03*
D28*
%TO.P,L_pcb1,B*%
%TO.N,N/C*%
X138170000Y-90735000D03*
X142670000Y-95735000D03*
%TO.P,L_pcb1,G*%
X138170000Y-115235000D03*
X138170000Y-118235000D03*
%TD*%
D29*
%TO.P,U2,1,DVSS*%
%TO.N,GND*%
X140420000Y-121725000D03*
%TO.P,U2,2,LOADMOD*%
%TO.N,unconnected-(U2-LOADMOD-Pad2)*%
X139920000Y-121725000D03*
%TO.P,U2,3,TVSS1*%
%TO.N,GND*%
X139420000Y-121725000D03*
%TO.P,U2,4,TX1*%
%TO.N,Net-(U2-TX1)*%
X138920000Y-121725000D03*
%TO.P,U2,5,TVDD*%
%TO.N,+3.3V*%
X138420000Y-121725000D03*
%TO.P,U2,6,TX2*%
%TO.N,Net-(U2-TX2)*%
X137920000Y-121725000D03*
%TO.P,U2,7,TVSS2*%
%TO.N,GND*%
X137420000Y-121725000D03*
%TO.P,U2,8,AVDD*%
%TO.N,+3.3V*%
X136920000Y-121725000D03*
%TO.P,U2,9,VMID*%
%TO.N,Net-(U2-VMID)*%
X136420000Y-121725000D03*
%TO.P,U2,10,RX*%
%TO.N,Net-(U2-RX)*%
X135920000Y-121725000D03*
D30*
%TO.P,U2,11,AVSS*%
%TO.N,GND*%
X135232500Y-122412500D03*
%TO.P,U2,12,AUX1*%
%TO.N,/AUX1*%
X135232500Y-122912500D03*
%TO.P,U2,13,AUX2*%
%TO.N,/AUX2*%
X135232500Y-123412500D03*
%TO.P,U2,14,OSCIN*%
%TO.N,Net-(U2-OSCIN)*%
X135232500Y-123912500D03*
%TO.P,U2,15,OSCOUT*%
%TO.N,Net-(U2-OSCOUT)*%
X135232500Y-124412500D03*
%TO.P,U2,16,I0*%
%TO.N,Net-(U2-I0)*%
X135232500Y-124912500D03*
%TO.P,U2,17,I1*%
%TO.N,Net-(U2-I1)*%
X135232500Y-125412500D03*
%TO.P,U2,18,TESTEN*%
%TO.N,GND*%
X135232500Y-125912500D03*
%TO.P,U2,19,P35*%
%TO.N,unconnected-(U2-P35-Pad19)*%
X135232500Y-126412500D03*
%TO.P,U2,20,N.C.*%
%TO.N,unconnected-(U2-N.C.-Pad20)*%
X135232500Y-126912500D03*
D29*
%TO.P,U2,21,N.C.*%
%TO.N,unconnected-(U2-N.C.-Pad21)*%
X135920000Y-127600000D03*
%TO.P,U2,22,N.C.*%
%TO.N,unconnected-(U2-N.C.-Pad22)*%
X136420000Y-127600000D03*
%TO.P,U2,23,PVDD*%
%TO.N,+3.3V*%
X136920000Y-127600000D03*
%TO.P,U2,24,P30/UART_RX*%
%TO.N,/UART_RX*%
X137420000Y-127600000D03*
%TO.P,U2,25,P70_IRQ*%
%TO.N,/IRQ*%
X137920000Y-127600000D03*
%TO.P,U2,26,~{RSTOUT}*%
%TO.N,unconnected-(U2-~{RSTOUT}-Pad26)*%
X138420000Y-127600000D03*
%TO.P,U2,27,NSS/P50_SCL/HSU_RX*%
%TO.N,Net-(Q1-S)*%
X138920000Y-127600000D03*
%TO.P,U2,28,MOSI/SDA/HSU_TX*%
%TO.N,Net-(Q2-S)*%
X139420000Y-127600000D03*
%TO.P,U2,29,MISO/P71*%
%TO.N,/CIPO*%
X139920000Y-127600000D03*
%TO.P,U2,30,SCK/P72*%
%TO.N,/SCK*%
X140420000Y-127600000D03*
D30*
%TO.P,U2,31,P31/UART_TX*%
%TO.N,/UART_TX*%
X141107500Y-126912500D03*
%TO.P,U2,32,P32_INT0*%
%TO.N,unconnected-(U2-P32_INT0-Pad32)*%
X141107500Y-126412500D03*
%TO.P,U2,33,P33_INT1*%
%TO.N,unconnected-(U2-P33_INT1-Pad33)*%
X141107500Y-125912500D03*
%TO.P,U2,34,SIC_CLK/P34*%
%TO.N,unconnected-(U2-SIC_CLK{slash}P34-Pad34)*%
X141107500Y-125412500D03*
%TO.P,U2,35,SIGOUT*%
%TO.N,unconnected-(U2-SIGOUT-Pad35)*%
X141107500Y-124912500D03*
%TO.P,U2,36,SIGIN*%
%TO.N,unconnected-(U2-SIGIN-Pad36)*%
X141107500Y-124412500D03*
%TO.P,U2,37,SVDD*%
%TO.N,unconnected-(U2-SVDD-Pad37)*%
X141107500Y-123912500D03*
%TO.P,U2,38,~{RSTPD}*%
%TO.N,/RSTPD_N*%
X141107500Y-123412500D03*
%TO.P,U2,39,DVDD*%
%TO.N,+3.3V*%
X141107500Y-122912500D03*
%TO.P,U2,40,VBAT*%
%TO.N,VCC*%
X141107500Y-122412500D03*
D31*
%TO.P,U2,41,AVSS*%
%TO.N,GND*%
X138170000Y-124662500D03*
%TD*%
D11*
%TO.P,R7,1*%
%TO.N,Net-(U2-I1)*%
X66370000Y-114985000D03*
%TO.P,R7,2*%
%TO.N,GND*%
X64370000Y-114985000D03*
%TD*%
D12*
%TO.P,C1,1*%
%TO.N,Net-(C1-Pad1)*%
X84392500Y-118985000D03*
%TO.P,C1,2*%
%TO.N,GND*%
X86467500Y-118985000D03*
%TD*%
%TO.P,C2,1*%
%TO.N,GND*%
X89872500Y-118985000D03*
%TO.P,C2,2*%
%TO.N,Net-(C2-Pad2)*%
X91947500Y-118985000D03*
%TD*%
D13*
%TO.P,C17,1*%
%TO.N,GND*%
X82970000Y-127822500D03*
%TO.P,C17,2*%
%TO.N,Net-(U2-OSCOUT)*%
X82970000Y-125747500D03*
%TD*%
D11*
%TO.P,R6,1*%
%TO.N,+3.3V*%
X70370000Y-117485000D03*
%TO.P,R6,2*%
%TO.N,Net-(U2-I0)*%
X68370000Y-117485000D03*
%TD*%
D14*
%TO.P,C7,1*%
%TO.N,GND*%
X100207500Y-125485000D03*
%TO.P,C7,2*%
%TO.N,Net-(U2-VMID)*%
X98132500Y-125485000D03*
%TD*%
D11*
%TO.P,R13,1*%
%TO.N,/LED_KR*%
X108170000Y-109885000D03*
%TO.P,R13,2*%
%TO.N,Net-(D1-RK)*%
X106170000Y-109885000D03*
%TD*%
D15*
%TO.P,Q2,1,G*%
%TO.N,+3.3V*%
X106220000Y-94422500D03*
%TO.P,Q2,2,S*%
%TO.N,Net-(Q2-S)*%
X108120000Y-94422500D03*
%TO.P,Q2,3,D*%
%TO.N,Net-(J1-Pin_2)*%
X107170000Y-92547500D03*
%TD*%
D13*
%TO.P,C11,1*%
%TO.N,+3.3V*%
X72170000Y-128022500D03*
%TO.P,C11,2*%
%TO.N,GND*%
X72170000Y-125947500D03*
%TD*%
D15*
%TO.P,Q1,1,G*%
%TO.N,+3.3V*%
X106220000Y-90422500D03*
%TO.P,Q1,2,S*%
%TO.N,Net-(Q1-S)*%
X108120000Y-90422500D03*
%TO.P,Q1,3,D*%
%TO.N,Net-(J1-Pin_1)*%
X107170000Y-88547500D03*
%TD*%
D11*
%TO.P,R14,1*%
%TO.N,/LED_KG*%
X108170000Y-111985000D03*
%TO.P,R14,2*%
%TO.N,Net-(D1-GK)*%
X106170000Y-111985000D03*
%TD*%
D16*
%TO.P,C16,1*%
%TO.N,GND*%
X74870000Y-125747500D03*
%TO.P,C16,2*%
%TO.N,Net-(U2-OSCIN)*%
X74870000Y-127822500D03*
%TD*%
D17*
%TO.P,R12,1*%
%TO.N,/SENS_DET*%
X91670000Y-109185000D03*
%TO.P,R12,2*%
%TO.N,VCC*%
X93670000Y-109185000D03*
%TD*%
D14*
%TO.P,C5,1*%
%TO.N,Net-(C3-Pad1)*%
X78207500Y-120135000D03*
%TO.P,C5,2*%
%TO.N,GND*%
X76132500Y-120135000D03*
%TD*%
D17*
%TO.P,R4,1*%
%TO.N,/RSTPD_N*%
X110070000Y-120285000D03*
%TO.P,R4,2*%
%TO.N,GND*%
X112070000Y-120285000D03*
%TD*%
D11*
%TO.P,R8,1*%
%TO.N,Net-(U2-I0)*%
X66370000Y-117485000D03*
%TO.P,R8,2*%
%TO.N,GND*%
X64370000Y-117485000D03*
%TD*%
D12*
%TO.P,C12,1*%
%TO.N,VCC*%
X102082500Y-123185000D03*
%TO.P,C12,2*%
%TO.N,GND*%
X104157500Y-123185000D03*
%TD*%
D11*
%TO.P,R11,1*%
%TO.N,/SENS_LED*%
X84470000Y-109185000D03*
%TO.P,R11,2*%
%TO.N,Net-(R11-Pad2)*%
X82470000Y-109185000D03*
%TD*%
D12*
%TO.P,C9,1*%
%TO.N,+3.3V*%
X70315000Y-119785000D03*
%TO.P,C9,2*%
%TO.N,GND*%
X72390000Y-119785000D03*
%TD*%
D11*
%TO.P,R5,1*%
%TO.N,+3.3V*%
X70370000Y-114985000D03*
%TO.P,R5,2*%
%TO.N,Net-(U2-I1)*%
X68370000Y-114985000D03*
%TD*%
D18*
%TO.P,J1,1,Pin_1*%
%TO.N,Net-(J1-Pin_1)*%
X111070000Y-90485000D03*
D19*
%TO.P,J1,2,Pin_2*%
%TO.N,Net-(J1-Pin_2)*%
X111070000Y-93025000D03*
%TO.P,J1,3,Pin_3*%
%TO.N,VCC*%
X111070000Y-95565000D03*
%TO.P,J1,4,Pin_4*%
%TO.N,GND*%
X111070000Y-98105000D03*
%TO.P,J1,5,Pin_5*%
%TO.N,/SENS_DET*%
X111070000Y-100645000D03*
%TO.P,J1,6,Pin_6*%
%TO.N,/SENS_LED*%
X111070000Y-103185000D03*
%TO.P,J1,7,Pin_7*%
%TO.N,/RSTPD_N*%
X111070000Y-105725000D03*
%TO.P,J1,8,Pin_8*%
%TO.N,/LED_KR*%
X111070000Y-108265000D03*
%TO.P,J1,9,Pin_9*%
%TO.N,/LED_KG*%
X111070000Y-110805000D03*
%TO.P,J1,10,Pin_10*%
%TO.N,/LED_KB*%
X111070000Y-113345000D03*
%TD*%
D17*
%TO.P,R3,1*%
%TO.N,VCC*%
X106070000Y-120285000D03*
%TO.P,R3,2*%
%TO.N,/RSTPD_N*%
X108070000Y-120285000D03*
%TD*%
D20*
%TO.P,L1,1,1*%
%TO.N,Net-(U2-TX2)*%
X81332500Y-122485000D03*
%TO.P,L1,2,2*%
%TO.N,Net-(C3-Pad1)*%
X78007500Y-122485000D03*
%TD*%
D12*
%TO.P,C3,1*%
%TO.N,Net-(C3-Pad1)*%
X80132500Y-120135000D03*
%TO.P,C3,2*%
%TO.N,Net-(C1-Pad1)*%
X82207500Y-120135000D03*
%TD*%
D13*
%TO.P,C10,1*%
%TO.N,+3.3V*%
X74220000Y-123922500D03*
%TO.P,C10,2*%
%TO.N,GND*%
X74220000Y-121847500D03*
%TD*%
D14*
%TO.P,C15,1*%
%TO.N,+3.3V*%
X104157500Y-127985000D03*
%TO.P,C15,2*%
%TO.N,GND*%
X102082500Y-127985000D03*
%TD*%
D17*
%TO.P,R10,1*%
%TO.N,+3.3V*%
X110070000Y-117985000D03*
%TO.P,R10,2*%
%TO.N,Net-(Q1-S)*%
X112070000Y-117985000D03*
%TD*%
D12*
%TO.P,C8,1*%
%TO.N,Net-(C8-Pad1)*%
X98132500Y-127985000D03*
%TO.P,C8,2*%
%TO.N,Net-(U2-RX)*%
X100207500Y-127985000D03*
%TD*%
D17*
%TO.P,R9,1*%
%TO.N,+3.3V*%
X106070000Y-117985000D03*
%TO.P,R9,2*%
%TO.N,Net-(Q2-S)*%
X108070000Y-117985000D03*
%TD*%
D21*
%TO.P,D1,1,RK*%
%TO.N,Net-(D1-RK)*%
X97370000Y-83285000D03*
%TO.P,D1,2,A*%
%TO.N,VCC*%
X102970000Y-83285000D03*
%TO.P,D1,3,GK*%
%TO.N,Net-(D1-GK)*%
X97370000Y-81685000D03*
%TO.P,D1,4,BK*%
%TO.N,Net-(D1-BK)*%
X102970000Y-81685000D03*
%TD*%
D22*
%TO.P,Y1,1,1*%
%TO.N,Net-(U2-OSCIN)*%
X77470000Y-127935000D03*
%TO.P,Y1,2,2*%
%TO.N,GND*%
X80370000Y-127935000D03*
%TO.P,Y1,3,3*%
%TO.N,Net-(U2-OSCOUT)*%
X80370000Y-125635000D03*
%TO.P,Y1,4,4*%
%TO.N,GND*%
X77470000Y-125635000D03*
%TD*%
D14*
%TO.P,C4,1*%
%TO.N,Net-(C4-Pad1)*%
X96207500Y-120135000D03*
%TO.P,C4,2*%
%TO.N,Net-(C2-Pad2)*%
X94132500Y-120135000D03*
%TD*%
D17*
%TO.P,R1,1*%
%TO.N,Net-(U2-RX)*%
X94170000Y-125485000D03*
%TO.P,R1,2*%
%TO.N,Net-(U2-VMID)*%
X96170000Y-125485000D03*
%TD*%
D13*
%TO.P,C13,1*%
%TO.N,+3.3V*%
X72170000Y-123922500D03*
%TO.P,C13,2*%
%TO.N,GND*%
X72170000Y-121847500D03*
%TD*%
D23*
%TO.P,L2,1,1*%
%TO.N,Net-(U2-TX1)*%
X95007500Y-122485000D03*
%TO.P,L2,2,2*%
%TO.N,Net-(C4-Pad1)*%
X98332500Y-122485000D03*
%TD*%
D24*
%TO.P,U1,*%
%TO.N,*%
X93215000Y-97255000D03*
D25*
%TO.P,U1,1*%
%TO.N,Net-(R11-Pad2)*%
X83440000Y-103185000D03*
D26*
%TO.P,U1,2*%
%TO.N,GND*%
X83440000Y-105725000D03*
%TO.P,U1,3*%
%TO.N,/SENS_DET*%
X92890000Y-105725000D03*
%TO.P,U1,4*%
%TO.N,GND*%
X92890000Y-103185000D03*
%TD*%
D11*
%TO.P,R2,1*%
%TO.N,Net-(C8-Pad1)*%
X96170000Y-127985000D03*
%TO.P,R2,2*%
%TO.N,Net-(C3-Pad1)*%
X94170000Y-127985000D03*
%TD*%
D14*
%TO.P,C6,1*%
%TO.N,GND*%
X100207500Y-120135000D03*
%TO.P,C6,2*%
%TO.N,Net-(C4-Pad1)*%
X98132500Y-120135000D03*
%TD*%
%TO.P,C14,1*%
%TO.N,+3.3V*%
X104157500Y-125485000D03*
%TO.P,C14,2*%
%TO.N,GND*%
X102082500Y-125485000D03*
%TD*%
D11*
%TO.P,R15,1*%
%TO.N,/LED_KB*%
X108170000Y-114105000D03*
%TO.P,R15,2*%
%TO.N,Net-(D1-BK)*%
X106170000Y-114105000D03*
%TD*%
D27*
%TO.P,L_pcb1,1,1*%
%TO.N,Net-(C1-Pad1)*%
X82770000Y-118235000D03*
%TO.P,L_pcb1,2,2*%
%TO.N,GND*%
X88170000Y-119185000D03*
%TO.P,L_pcb1,3,3*%
%TO.N,Net-(C2-Pad2)*%
X93570000Y-118235000D03*
D28*
%TO.P,L_pcb1,B*%
%TO.N,N/C*%
X88170000Y-90735000D03*
X92670000Y-95735000D03*
%TO.P,L_pcb1,G*%
X88170000Y-115235000D03*
X88170000Y-118235000D03*
%TD*%
D29*
%TO.P,U2,1,DVSS*%
%TO.N,GND*%
X90420000Y-121725000D03*
%TO.P,U2,2,LOADMOD*%
%TO.N,unconnected-(U2-LOADMOD-Pad2)*%
X89920000Y-121725000D03*
%TO.P,U2,3,TVSS1*%
%TO.N,GND*%
X89420000Y-121725000D03*
%TO.P,U2,4,TX1*%
%TO.N,Net-(U2-TX1)*%
X88920000Y-121725000D03*
%TO.P,U2,5,TVDD*%
%TO.N,+3.3V*%
X88420000Y-121725000D03*
%TO.P,U2,6,TX2*%
%TO.N,Net-(U2-TX2)*%
X87920000Y-121725000D03*
%TO.P,U2,7,TVSS2*%
%TO.N,GND*%
X87420000Y-121725000D03*
%TO.P,U2,8,AVDD*%
%TO.N,+3.3V*%
X86920000Y-121725000D03*
%TO.P,U2,9,VMID*%
%TO.N,Net-(U2-VMID)*%
X86420000Y-121725000D03*
%TO.P,U2,10,RX*%
%TO.N,Net-(U2-RX)*%
X85920000Y-121725000D03*
D30*
%TO.P,U2,11,AVSS*%
%TO.N,GND*%
X85232500Y-122412500D03*
%TO.P,U2,12,AUX1*%
%TO.N,/AUX1*%
X85232500Y-122912500D03*
%TO.P,U2,13,AUX2*%
%TO.N,/AUX2*%
X85232500Y-123412500D03*
%TO.P,U2,14,OSCIN*%
%TO.N,Net-(U2-OSCIN)*%
X85232500Y-123912500D03*
%TO.P,U2,15,OSCOUT*%
%TO.N,Net-(U2-OSCOUT)*%
X85232500Y-124412500D03*
%TO.P,U2,16,I0*%
%TO.N,Net-(U2-I0)*%
X85232500Y-124912500D03*
%TO.P,U2,17,I1*%
%TO.N,Net-(U2-I1)*%
X85232500Y-125412500D03*
%TO.P,U2,18,TESTEN*%
%TO.N,GND*%
X85232500Y-125912500D03*
%TO.P,U2,19,P35*%
%TO.N,unconnected-(U2-P35-Pad19)*%
X85232500Y-126412500D03*
%TO.P,U2,20,N.C.*%
%TO.N,unconnected-(U2-N.C.-Pad20)*%
X85232500Y-126912500D03*
D29*
%TO.P,U2,21,N.C.*%
%TO.N,unconnected-(U2-N.C.-Pad21)*%
X85920000Y-127600000D03*
%TO.P,U2,22,N.C.*%
%TO.N,unconnected-(U2-N.C.-Pad22)*%
X86420000Y-127600000D03*
%TO.P,U2,23,PVDD*%
%TO.N,+3.3V*%
X86920000Y-127600000D03*
%TO.P,U2,24,P30/UART_RX*%
%TO.N,/UART_RX*%
X87420000Y-127600000D03*
%TO.P,U2,25,P70_IRQ*%
%TO.N,/IRQ*%
X87920000Y-127600000D03*
%TO.P,U2,26,~{RSTOUT}*%
%TO.N,unconnected-(U2-~{RSTOUT}-Pad26)*%
X88420000Y-127600000D03*
%TO.P,U2,27,NSS/P50_SCL/HSU_RX*%
%TO.N,Net-(Q1-S)*%
X88920000Y-127600000D03*
%TO.P,U2,28,MOSI/SDA/HSU_TX*%
%TO.N,Net-(Q2-S)*%
X89420000Y-127600000D03*
%TO.P,U2,29,MISO/P71*%
%TO.N,/CIPO*%
X89920000Y-127600000D03*
%TO.P,U2,30,SCK/P72*%
%TO.N,/SCK*%
X90420000Y-127600000D03*
D30*
%TO.P,U2,31,P31/UART_TX*%
%TO.N,/UART_TX*%
X91107500Y-126912500D03*
%TO.P,U2,32,P32_INT0*%
%TO.N,unconnected-(U2-P32_INT0-Pad32)*%
X91107500Y-126412500D03*
%TO.P,U2,33,P33_INT1*%
%TO.N,unconnected-(U2-P33_INT1-Pad33)*%
X91107500Y-125912500D03*
%TO.P,U2,34,SIC_CLK/P34*%
%TO.N,unconnected-(U2-SIC_CLK{slash}P34-Pad34)*%
X91107500Y-125412500D03*
%TO.P,U2,35,SIGOUT*%
%TO.N,unconnected-(U2-SIGOUT-Pad35)*%
X91107500Y-124912500D03*
%TO.P,U2,36,SIGIN*%
%TO.N,unconnected-(U2-SIGIN-Pad36)*%
X91107500Y-124412500D03*
%TO.P,U2,37,SVDD*%
%TO.N,unconnected-(U2-SVDD-Pad37)*%
X91107500Y-123912500D03*
%TO.P,U2,38,~{RSTPD}*%
%TO.N,/RSTPD_N*%
X91107500Y-123412500D03*
%TO.P,U2,39,DVDD*%
%TO.N,+3.3V*%
X91107500Y-122912500D03*
%TO.P,U2,40,VBAT*%
%TO.N,VCC*%
X91107500Y-122412500D03*
D31*
%TO.P,U2,41,AVSS*%
%TO.N,GND*%
X88170000Y-124662500D03*
%TD*%
D11*
%TO.P,R7,1*%
%TO.N,Net-(U2-I1)*%
X116370000Y-64985000D03*
%TO.P,R7,2*%
%TO.N,GND*%
X114370000Y-64985000D03*
%TD*%
D12*
%TO.P,C1,1*%
%TO.N,Net-(C1-Pad1)*%
X134392500Y-68985000D03*
%TO.P,C1,2*%
%TO.N,GND*%
X136467500Y-68985000D03*
%TD*%
%TO.P,C2,1*%
%TO.N,GND*%
X139872500Y-68985000D03*
%TO.P,C2,2*%
%TO.N,Net-(C2-Pad2)*%
X141947500Y-68985000D03*
%TD*%
D13*
%TO.P,C17,1*%
%TO.N,GND*%
X132970000Y-77822500D03*
%TO.P,C17,2*%
%TO.N,Net-(U2-OSCOUT)*%
X132970000Y-75747500D03*
%TD*%
D11*
%TO.P,R6,1*%
%TO.N,+3.3V*%
X120370000Y-67485000D03*
%TO.P,R6,2*%
%TO.N,Net-(U2-I0)*%
X118370000Y-67485000D03*
%TD*%
D14*
%TO.P,C7,1*%
%TO.N,GND*%
X150207500Y-75485000D03*
%TO.P,C7,2*%
%TO.N,Net-(U2-VMID)*%
X148132500Y-75485000D03*
%TD*%
D11*
%TO.P,R13,1*%
%TO.N,/LED_KR*%
X158170000Y-59885000D03*
%TO.P,R13,2*%
%TO.N,Net-(D1-RK)*%
X156170000Y-59885000D03*
%TD*%
D15*
%TO.P,Q2,1,G*%
%TO.N,+3.3V*%
X156220000Y-44422500D03*
%TO.P,Q2,2,S*%
%TO.N,Net-(Q2-S)*%
X158120000Y-44422500D03*
%TO.P,Q2,3,D*%
%TO.N,Net-(J1-Pin_2)*%
X157170000Y-42547500D03*
%TD*%
D13*
%TO.P,C11,1*%
%TO.N,+3.3V*%
X122170000Y-78022500D03*
%TO.P,C11,2*%
%TO.N,GND*%
X122170000Y-75947500D03*
%TD*%
D15*
%TO.P,Q1,1,G*%
%TO.N,+3.3V*%
X156220000Y-40422500D03*
%TO.P,Q1,2,S*%
%TO.N,Net-(Q1-S)*%
X158120000Y-40422500D03*
%TO.P,Q1,3,D*%
%TO.N,Net-(J1-Pin_1)*%
X157170000Y-38547500D03*
%TD*%
D11*
%TO.P,R14,1*%
%TO.N,/LED_KG*%
X158170000Y-61985000D03*
%TO.P,R14,2*%
%TO.N,Net-(D1-GK)*%
X156170000Y-61985000D03*
%TD*%
D16*
%TO.P,C16,1*%
%TO.N,GND*%
X124870000Y-75747500D03*
%TO.P,C16,2*%
%TO.N,Net-(U2-OSCIN)*%
X124870000Y-77822500D03*
%TD*%
D17*
%TO.P,R12,1*%
%TO.N,/SENS_DET*%
X141670000Y-59185000D03*
%TO.P,R12,2*%
%TO.N,VCC*%
X143670000Y-59185000D03*
%TD*%
D14*
%TO.P,C5,1*%
%TO.N,Net-(C3-Pad1)*%
X128207500Y-70135000D03*
%TO.P,C5,2*%
%TO.N,GND*%
X126132500Y-70135000D03*
%TD*%
D17*
%TO.P,R4,1*%
%TO.N,/RSTPD_N*%
X160070000Y-70285000D03*
%TO.P,R4,2*%
%TO.N,GND*%
X162070000Y-70285000D03*
%TD*%
D11*
%TO.P,R8,1*%
%TO.N,Net-(U2-I0)*%
X116370000Y-67485000D03*
%TO.P,R8,2*%
%TO.N,GND*%
X114370000Y-67485000D03*
%TD*%
D12*
%TO.P,C12,1*%
%TO.N,VCC*%
X152082500Y-73185000D03*
%TO.P,C12,2*%
%TO.N,GND*%
X154157500Y-73185000D03*
%TD*%
D11*
%TO.P,R11,1*%
%TO.N,/SENS_LED*%
X134470000Y-59185000D03*
%TO.P,R11,2*%
%TO.N,Net-(R11-Pad2)*%
X132470000Y-59185000D03*
%TD*%
D12*
%TO.P,C9,1*%
%TO.N,+3.3V*%
X120315000Y-69785000D03*
%TO.P,C9,2*%
%TO.N,GND*%
X122390000Y-69785000D03*
%TD*%
D11*
%TO.P,R5,1*%
%TO.N,+3.3V*%
X120370000Y-64985000D03*
%TO.P,R5,2*%
%TO.N,Net-(U2-I1)*%
X118370000Y-64985000D03*
%TD*%
D18*
%TO.P,J1,1,Pin_1*%
%TO.N,Net-(J1-Pin_1)*%
X161070000Y-40485000D03*
D19*
%TO.P,J1,2,Pin_2*%
%TO.N,Net-(J1-Pin_2)*%
X161070000Y-43025000D03*
%TO.P,J1,3,Pin_3*%
%TO.N,VCC*%
X161070000Y-45565000D03*
%TO.P,J1,4,Pin_4*%
%TO.N,GND*%
X161070000Y-48105000D03*
%TO.P,J1,5,Pin_5*%
%TO.N,/SENS_DET*%
X161070000Y-50645000D03*
%TO.P,J1,6,Pin_6*%
%TO.N,/SENS_LED*%
X161070000Y-53185000D03*
%TO.P,J1,7,Pin_7*%
%TO.N,/RSTPD_N*%
X161070000Y-55725000D03*
%TO.P,J1,8,Pin_8*%
%TO.N,/LED_KR*%
X161070000Y-58265000D03*
%TO.P,J1,9,Pin_9*%
%TO.N,/LED_KG*%
X161070000Y-60805000D03*
%TO.P,J1,10,Pin_10*%
%TO.N,/LED_KB*%
X161070000Y-63345000D03*
%TD*%
D17*
%TO.P,R3,1*%
%TO.N,VCC*%
X156070000Y-70285000D03*
%TO.P,R3,2*%
%TO.N,/RSTPD_N*%
X158070000Y-70285000D03*
%TD*%
D20*
%TO.P,L1,1,1*%
%TO.N,Net-(U2-TX2)*%
X131332500Y-72485000D03*
%TO.P,L1,2,2*%
%TO.N,Net-(C3-Pad1)*%
X128007500Y-72485000D03*
%TD*%
D12*
%TO.P,C3,1*%
%TO.N,Net-(C3-Pad1)*%
X130132500Y-70135000D03*
%TO.P,C3,2*%
%TO.N,Net-(C1-Pad1)*%
X132207500Y-70135000D03*
%TD*%
D13*
%TO.P,C10,1*%
%TO.N,+3.3V*%
X124220000Y-73922500D03*
%TO.P,C10,2*%
%TO.N,GND*%
X124220000Y-71847500D03*
%TD*%
D14*
%TO.P,C15,1*%
%TO.N,+3.3V*%
X154157500Y-77985000D03*
%TO.P,C15,2*%
%TO.N,GND*%
X152082500Y-77985000D03*
%TD*%
D17*
%TO.P,R10,1*%
%TO.N,+3.3V*%
X160070000Y-67985000D03*
%TO.P,R10,2*%
%TO.N,Net-(Q1-S)*%
X162070000Y-67985000D03*
%TD*%
D12*
%TO.P,C8,1*%
%TO.N,Net-(C8-Pad1)*%
X148132500Y-77985000D03*
%TO.P,C8,2*%
%TO.N,Net-(U2-RX)*%
X150207500Y-77985000D03*
%TD*%
D17*
%TO.P,R9,1*%
%TO.N,+3.3V*%
X156070000Y-67985000D03*
%TO.P,R9,2*%
%TO.N,Net-(Q2-S)*%
X158070000Y-67985000D03*
%TD*%
D21*
%TO.P,D1,1,RK*%
%TO.N,Net-(D1-RK)*%
X147370000Y-33285000D03*
%TO.P,D1,2,A*%
%TO.N,VCC*%
X152970000Y-33285000D03*
%TO.P,D1,3,GK*%
%TO.N,Net-(D1-GK)*%
X147370000Y-31685000D03*
%TO.P,D1,4,BK*%
%TO.N,Net-(D1-BK)*%
X152970000Y-31685000D03*
%TD*%
D22*
%TO.P,Y1,1,1*%
%TO.N,Net-(U2-OSCIN)*%
X127470000Y-77935000D03*
%TO.P,Y1,2,2*%
%TO.N,GND*%
X130370000Y-77935000D03*
%TO.P,Y1,3,3*%
%TO.N,Net-(U2-OSCOUT)*%
X130370000Y-75635000D03*
%TO.P,Y1,4,4*%
%TO.N,GND*%
X127470000Y-75635000D03*
%TD*%
D14*
%TO.P,C4,1*%
%TO.N,Net-(C4-Pad1)*%
X146207500Y-70135000D03*
%TO.P,C4,2*%
%TO.N,Net-(C2-Pad2)*%
X144132500Y-70135000D03*
%TD*%
D17*
%TO.P,R1,1*%
%TO.N,Net-(U2-RX)*%
X144170000Y-75485000D03*
%TO.P,R1,2*%
%TO.N,Net-(U2-VMID)*%
X146170000Y-75485000D03*
%TD*%
D13*
%TO.P,C13,1*%
%TO.N,+3.3V*%
X122170000Y-73922500D03*
%TO.P,C13,2*%
%TO.N,GND*%
X122170000Y-71847500D03*
%TD*%
D23*
%TO.P,L2,1,1*%
%TO.N,Net-(U2-TX1)*%
X145007500Y-72485000D03*
%TO.P,L2,2,2*%
%TO.N,Net-(C4-Pad1)*%
X148332500Y-72485000D03*
%TD*%
D24*
%TO.P,U1,*%
%TO.N,*%
X143215000Y-47255000D03*
D25*
%TO.P,U1,1*%
%TO.N,Net-(R11-Pad2)*%
X133440000Y-53185000D03*
D26*
%TO.P,U1,2*%
%TO.N,GND*%
X133440000Y-55725000D03*
%TO.P,U1,3*%
%TO.N,/SENS_DET*%
X142890000Y-55725000D03*
%TO.P,U1,4*%
%TO.N,GND*%
X142890000Y-53185000D03*
%TD*%
D11*
%TO.P,R2,1*%
%TO.N,Net-(C8-Pad1)*%
X146170000Y-77985000D03*
%TO.P,R2,2*%
%TO.N,Net-(C3-Pad1)*%
X144170000Y-77985000D03*
%TD*%
D14*
%TO.P,C6,1*%
%TO.N,GND*%
X150207500Y-70135000D03*
%TO.P,C6,2*%
%TO.N,Net-(C4-Pad1)*%
X148132500Y-70135000D03*
%TD*%
%TO.P,C14,1*%
%TO.N,+3.3V*%
X154157500Y-75485000D03*
%TO.P,C14,2*%
%TO.N,GND*%
X152082500Y-75485000D03*
%TD*%
D11*
%TO.P,R15,1*%
%TO.N,/LED_KB*%
X158170000Y-64105000D03*
%TO.P,R15,2*%
%TO.N,Net-(D1-BK)*%
X156170000Y-64105000D03*
%TD*%
D27*
%TO.P,L_pcb1,1,1*%
%TO.N,Net-(C1-Pad1)*%
X132770000Y-68235000D03*
%TO.P,L_pcb1,2,2*%
%TO.N,GND*%
X138170000Y-69185000D03*
%TO.P,L_pcb1,3,3*%
%TO.N,Net-(C2-Pad2)*%
X143570000Y-68235000D03*
D28*
%TO.P,L_pcb1,B*%
%TO.N,N/C*%
X138170000Y-40735000D03*
X142670000Y-45735000D03*
%TO.P,L_pcb1,G*%
X138170000Y-65235000D03*
X138170000Y-68235000D03*
%TD*%
D29*
%TO.P,U2,1,DVSS*%
%TO.N,GND*%
X140420000Y-71725000D03*
%TO.P,U2,2,LOADMOD*%
%TO.N,unconnected-(U2-LOADMOD-Pad2)*%
X139920000Y-71725000D03*
%TO.P,U2,3,TVSS1*%
%TO.N,GND*%
X139420000Y-71725000D03*
%TO.P,U2,4,TX1*%
%TO.N,Net-(U2-TX1)*%
X138920000Y-71725000D03*
%TO.P,U2,5,TVDD*%
%TO.N,+3.3V*%
X138420000Y-71725000D03*
%TO.P,U2,6,TX2*%
%TO.N,Net-(U2-TX2)*%
X137920000Y-71725000D03*
%TO.P,U2,7,TVSS2*%
%TO.N,GND*%
X137420000Y-71725000D03*
%TO.P,U2,8,AVDD*%
%TO.N,+3.3V*%
X136920000Y-71725000D03*
%TO.P,U2,9,VMID*%
%TO.N,Net-(U2-VMID)*%
X136420000Y-71725000D03*
%TO.P,U2,10,RX*%
%TO.N,Net-(U2-RX)*%
X135920000Y-71725000D03*
D30*
%TO.P,U2,11,AVSS*%
%TO.N,GND*%
X135232500Y-72412500D03*
%TO.P,U2,12,AUX1*%
%TO.N,/AUX1*%
X135232500Y-72912500D03*
%TO.P,U2,13,AUX2*%
%TO.N,/AUX2*%
X135232500Y-73412500D03*
%TO.P,U2,14,OSCIN*%
%TO.N,Net-(U2-OSCIN)*%
X135232500Y-73912500D03*
%TO.P,U2,15,OSCOUT*%
%TO.N,Net-(U2-OSCOUT)*%
X135232500Y-74412500D03*
%TO.P,U2,16,I0*%
%TO.N,Net-(U2-I0)*%
X135232500Y-74912500D03*
%TO.P,U2,17,I1*%
%TO.N,Net-(U2-I1)*%
X135232500Y-75412500D03*
%TO.P,U2,18,TESTEN*%
%TO.N,GND*%
X135232500Y-75912500D03*
%TO.P,U2,19,P35*%
%TO.N,unconnected-(U2-P35-Pad19)*%
X135232500Y-76412500D03*
%TO.P,U2,20,N.C.*%
%TO.N,unconnected-(U2-N.C.-Pad20)*%
X135232500Y-76912500D03*
D29*
%TO.P,U2,21,N.C.*%
%TO.N,unconnected-(U2-N.C.-Pad21)*%
X135920000Y-77600000D03*
%TO.P,U2,22,N.C.*%
%TO.N,unconnected-(U2-N.C.-Pad22)*%
X136420000Y-77600000D03*
%TO.P,U2,23,PVDD*%
%TO.N,+3.3V*%
X136920000Y-77600000D03*
%TO.P,U2,24,P30/UART_RX*%
%TO.N,/UART_RX*%
X137420000Y-77600000D03*
%TO.P,U2,25,P70_IRQ*%
%TO.N,/IRQ*%
X137920000Y-77600000D03*
%TO.P,U2,26,~{RSTOUT}*%
%TO.N,unconnected-(U2-~{RSTOUT}-Pad26)*%
X138420000Y-77600000D03*
%TO.P,U2,27,NSS/P50_SCL/HSU_RX*%
%TO.N,Net-(Q1-S)*%
X138920000Y-77600000D03*
%TO.P,U2,28,MOSI/SDA/HSU_TX*%
%TO.N,Net-(Q2-S)*%
X139420000Y-77600000D03*
%TO.P,U2,29,MISO/P71*%
%TO.N,/CIPO*%
X139920000Y-77600000D03*
%TO.P,U2,30,SCK/P72*%
%TO.N,/SCK*%
X140420000Y-77600000D03*
D30*
%TO.P,U2,31,P31/UART_TX*%
%TO.N,/UART_TX*%
X141107500Y-76912500D03*
%TO.P,U2,32,P32_INT0*%
%TO.N,unconnected-(U2-P32_INT0-Pad32)*%
X141107500Y-76412500D03*
%TO.P,U2,33,P33_INT1*%
%TO.N,unconnected-(U2-P33_INT1-Pad33)*%
X141107500Y-75912500D03*
%TO.P,U2,34,SIC_CLK/P34*%
%TO.N,unconnected-(U2-SIC_CLK{slash}P34-Pad34)*%
X141107500Y-75412500D03*
%TO.P,U2,35,SIGOUT*%
%TO.N,unconnected-(U2-SIGOUT-Pad35)*%
X141107500Y-74912500D03*
%TO.P,U2,36,SIGIN*%
%TO.N,unconnected-(U2-SIGIN-Pad36)*%
X141107500Y-74412500D03*
%TO.P,U2,37,SVDD*%
%TO.N,unconnected-(U2-SVDD-Pad37)*%
X141107500Y-73912500D03*
%TO.P,U2,38,~{RSTPD}*%
%TO.N,/RSTPD_N*%
X141107500Y-73412500D03*
%TO.P,U2,39,DVDD*%
%TO.N,+3.3V*%
X141107500Y-72912500D03*
%TO.P,U2,40,VBAT*%
%TO.N,VCC*%
X141107500Y-72412500D03*
D31*
%TO.P,U2,41,AVSS*%
%TO.N,GND*%
X138170000Y-74662500D03*
%TD*%
D11*
%TO.P,R7,1*%
%TO.N,Net-(U2-I1)*%
X66370000Y-64985000D03*
%TO.P,R7,2*%
%TO.N,GND*%
X64370000Y-64985000D03*
%TD*%
D14*
%TO.P,C5,1*%
%TO.N,Net-(C3-Pad1)*%
X78207500Y-70135000D03*
%TO.P,C5,2*%
%TO.N,GND*%
X76132500Y-70135000D03*
%TD*%
D11*
%TO.P,R2,1*%
%TO.N,Net-(C8-Pad1)*%
X96170000Y-77985000D03*
%TO.P,R2,2*%
%TO.N,Net-(C3-Pad1)*%
X94170000Y-77985000D03*
%TD*%
%TO.P,R8,1*%
%TO.N,Net-(U2-I0)*%
X66370000Y-67485000D03*
%TO.P,R8,2*%
%TO.N,GND*%
X64370000Y-67485000D03*
%TD*%
D17*
%TO.P,R4,1*%
%TO.N,/RSTPD_N*%
X110070000Y-70285000D03*
%TO.P,R4,2*%
%TO.N,GND*%
X112070000Y-70285000D03*
%TD*%
D11*
%TO.P,R11,1*%
%TO.N,/SENS_LED*%
X84470000Y-59185000D03*
%TO.P,R11,2*%
%TO.N,Net-(R11-Pad2)*%
X82470000Y-59185000D03*
%TD*%
D22*
%TO.P,Y1,1,1*%
%TO.N,Net-(U2-OSCIN)*%
X77470000Y-77935000D03*
%TO.P,Y1,2,2*%
%TO.N,GND*%
X80370000Y-77935000D03*
%TO.P,Y1,3,3*%
%TO.N,Net-(U2-OSCOUT)*%
X80370000Y-75635000D03*
%TO.P,Y1,4,4*%
%TO.N,GND*%
X77470000Y-75635000D03*
%TD*%
D12*
%TO.P,C1,1*%
%TO.N,Net-(C1-Pad1)*%
X84392500Y-68985000D03*
%TO.P,C1,2*%
%TO.N,GND*%
X86467500Y-68985000D03*
%TD*%
%TO.P,C2,1*%
%TO.N,GND*%
X89872500Y-68985000D03*
%TO.P,C2,2*%
%TO.N,Net-(C2-Pad2)*%
X91947500Y-68985000D03*
%TD*%
D14*
%TO.P,C4,1*%
%TO.N,Net-(C4-Pad1)*%
X96207500Y-70135000D03*
%TO.P,C4,2*%
%TO.N,Net-(C2-Pad2)*%
X94132500Y-70135000D03*
%TD*%
D11*
%TO.P,R6,1*%
%TO.N,+3.3V*%
X70370000Y-67485000D03*
%TO.P,R6,2*%
%TO.N,Net-(U2-I0)*%
X68370000Y-67485000D03*
%TD*%
D21*
%TO.P,D1,1,RK*%
%TO.N,Net-(D1-RK)*%
X97370000Y-33285000D03*
%TO.P,D1,2,A*%
%TO.N,VCC*%
X102970000Y-33285000D03*
%TO.P,D1,3,GK*%
%TO.N,Net-(D1-GK)*%
X97370000Y-31685000D03*
%TO.P,D1,4,BK*%
%TO.N,Net-(D1-BK)*%
X102970000Y-31685000D03*
%TD*%
D13*
%TO.P,C13,1*%
%TO.N,+3.3V*%
X72170000Y-73922500D03*
%TO.P,C13,2*%
%TO.N,GND*%
X72170000Y-71847500D03*
%TD*%
D27*
%TO.P,L_pcb1,1,1*%
%TO.N,Net-(C1-Pad1)*%
X82770000Y-68235000D03*
%TO.P,L_pcb1,2,2*%
%TO.N,GND*%
X88170000Y-69185000D03*
%TO.P,L_pcb1,3,3*%
%TO.N,Net-(C2-Pad2)*%
X93570000Y-68235000D03*
D28*
%TO.P,L_pcb1,B*%
%TO.N,N/C*%
X88170000Y-40735000D03*
X92670000Y-45735000D03*
%TO.P,L_pcb1,G*%
X88170000Y-65235000D03*
X88170000Y-68235000D03*
%TD*%
D12*
%TO.P,C12,1*%
%TO.N,VCC*%
X102082500Y-73185000D03*
%TO.P,C12,2*%
%TO.N,GND*%
X104157500Y-73185000D03*
%TD*%
D18*
%TO.P,J1,1,Pin_1*%
%TO.N,Net-(J1-Pin_1)*%
X111070000Y-40485000D03*
D19*
%TO.P,J1,2,Pin_2*%
%TO.N,Net-(J1-Pin_2)*%
X111070000Y-43025000D03*
%TO.P,J1,3,Pin_3*%
%TO.N,VCC*%
X111070000Y-45565000D03*
%TO.P,J1,4,Pin_4*%
%TO.N,GND*%
X111070000Y-48105000D03*
%TO.P,J1,5,Pin_5*%
%TO.N,/SENS_DET*%
X111070000Y-50645000D03*
%TO.P,J1,6,Pin_6*%
%TO.N,/SENS_LED*%
X111070000Y-53185000D03*
%TO.P,J1,7,Pin_7*%
%TO.N,/RSTPD_N*%
X111070000Y-55725000D03*
%TO.P,J1,8,Pin_8*%
%TO.N,/LED_KR*%
X111070000Y-58265000D03*
%TO.P,J1,9,Pin_9*%
%TO.N,/LED_KG*%
X111070000Y-60805000D03*
%TO.P,J1,10,Pin_10*%
%TO.N,/LED_KB*%
X111070000Y-63345000D03*
%TD*%
D11*
%TO.P,R13,1*%
%TO.N,/LED_KR*%
X108170000Y-59885000D03*
%TO.P,R13,2*%
%TO.N,Net-(D1-RK)*%
X106170000Y-59885000D03*
%TD*%
D17*
%TO.P,R9,1*%
%TO.N,+3.3V*%
X106070000Y-67985000D03*
%TO.P,R9,2*%
%TO.N,Net-(Q2-S)*%
X108070000Y-67985000D03*
%TD*%
D20*
%TO.P,L1,1,1*%
%TO.N,Net-(U2-TX2)*%
X81332500Y-72485000D03*
%TO.P,L1,2,2*%
%TO.N,Net-(C3-Pad1)*%
X78007500Y-72485000D03*
%TD*%
D29*
%TO.P,U2,1,DVSS*%
%TO.N,GND*%
X90420000Y-71725000D03*
%TO.P,U2,2,LOADMOD*%
%TO.N,unconnected-(U2-LOADMOD-Pad2)*%
X89920000Y-71725000D03*
%TO.P,U2,3,TVSS1*%
%TO.N,GND*%
X89420000Y-71725000D03*
%TO.P,U2,4,TX1*%
%TO.N,Net-(U2-TX1)*%
X88920000Y-71725000D03*
%TO.P,U2,5,TVDD*%
%TO.N,+3.3V*%
X88420000Y-71725000D03*
%TO.P,U2,6,TX2*%
%TO.N,Net-(U2-TX2)*%
X87920000Y-71725000D03*
%TO.P,U2,7,TVSS2*%
%TO.N,GND*%
X87420000Y-71725000D03*
%TO.P,U2,8,AVDD*%
%TO.N,+3.3V*%
X86920000Y-71725000D03*
%TO.P,U2,9,VMID*%
%TO.N,Net-(U2-VMID)*%
X86420000Y-71725000D03*
%TO.P,U2,10,RX*%
%TO.N,Net-(U2-RX)*%
X85920000Y-71725000D03*
D30*
%TO.P,U2,11,AVSS*%
%TO.N,GND*%
X85232500Y-72412500D03*
%TO.P,U2,12,AUX1*%
%TO.N,/AUX1*%
X85232500Y-72912500D03*
%TO.P,U2,13,AUX2*%
%TO.N,/AUX2*%
X85232500Y-73412500D03*
%TO.P,U2,14,OSCIN*%
%TO.N,Net-(U2-OSCIN)*%
X85232500Y-73912500D03*
%TO.P,U2,15,OSCOUT*%
%TO.N,Net-(U2-OSCOUT)*%
X85232500Y-74412500D03*
%TO.P,U2,16,I0*%
%TO.N,Net-(U2-I0)*%
X85232500Y-74912500D03*
%TO.P,U2,17,I1*%
%TO.N,Net-(U2-I1)*%
X85232500Y-75412500D03*
%TO.P,U2,18,TESTEN*%
%TO.N,GND*%
X85232500Y-75912500D03*
%TO.P,U2,19,P35*%
%TO.N,unconnected-(U2-P35-Pad19)*%
X85232500Y-76412500D03*
%TO.P,U2,20,N.C.*%
%TO.N,unconnected-(U2-N.C.-Pad20)*%
X85232500Y-76912500D03*
D29*
%TO.P,U2,21,N.C.*%
%TO.N,unconnected-(U2-N.C.-Pad21)*%
X85920000Y-77600000D03*
%TO.P,U2,22,N.C.*%
%TO.N,unconnected-(U2-N.C.-Pad22)*%
X86420000Y-77600000D03*
%TO.P,U2,23,PVDD*%
%TO.N,+3.3V*%
X86920000Y-77600000D03*
%TO.P,U2,24,P30/UART_RX*%
%TO.N,/UART_RX*%
X87420000Y-77600000D03*
%TO.P,U2,25,P70_IRQ*%
%TO.N,/IRQ*%
X87920000Y-77600000D03*
%TO.P,U2,26,~{RSTOUT}*%
%TO.N,unconnected-(U2-~{RSTOUT}-Pad26)*%
X88420000Y-77600000D03*
%TO.P,U2,27,NSS/P50_SCL/HSU_RX*%
%TO.N,Net-(Q1-S)*%
X88920000Y-77600000D03*
%TO.P,U2,28,MOSI/SDA/HSU_TX*%
%TO.N,Net-(Q2-S)*%
X89420000Y-77600000D03*
%TO.P,U2,29,MISO/P71*%
%TO.N,/CIPO*%
X89920000Y-77600000D03*
%TO.P,U2,30,SCK/P72*%
%TO.N,/SCK*%
X90420000Y-77600000D03*
D30*
%TO.P,U2,31,P31/UART_TX*%
%TO.N,/UART_TX*%
X91107500Y-76912500D03*
%TO.P,U2,32,P32_INT0*%
%TO.N,unconnected-(U2-P32_INT0-Pad32)*%
X91107500Y-76412500D03*
%TO.P,U2,33,P33_INT1*%
%TO.N,unconnected-(U2-P33_INT1-Pad33)*%
X91107500Y-75912500D03*
%TO.P,U2,34,SIC_CLK/P34*%
%TO.N,unconnected-(U2-SIC_CLK{slash}P34-Pad34)*%
X91107500Y-75412500D03*
%TO.P,U2,35,SIGOUT*%
%TO.N,unconnected-(U2-SIGOUT-Pad35)*%
X91107500Y-74912500D03*
%TO.P,U2,36,SIGIN*%
%TO.N,unconnected-(U2-SIGIN-Pad36)*%
X91107500Y-74412500D03*
%TO.P,U2,37,SVDD*%
%TO.N,unconnected-(U2-SVDD-Pad37)*%
X91107500Y-73912500D03*
%TO.P,U2,38,~{RSTPD}*%
%TO.N,/RSTPD_N*%
X91107500Y-73412500D03*
%TO.P,U2,39,DVDD*%
%TO.N,+3.3V*%
X91107500Y-72912500D03*
%TO.P,U2,40,VBAT*%
%TO.N,VCC*%
X91107500Y-72412500D03*
D31*
%TO.P,U2,41,AVSS*%
%TO.N,GND*%
X88170000Y-74662500D03*
%TD*%
D13*
%TO.P,C17,1*%
%TO.N,GND*%
X82970000Y-77822500D03*
%TO.P,C17,2*%
%TO.N,Net-(U2-OSCOUT)*%
X82970000Y-75747500D03*
%TD*%
D14*
%TO.P,C6,1*%
%TO.N,GND*%
X100207500Y-70135000D03*
%TO.P,C6,2*%
%TO.N,Net-(C4-Pad1)*%
X98132500Y-70135000D03*
%TD*%
%TO.P,C14,1*%
%TO.N,+3.3V*%
X104157500Y-75485000D03*
%TO.P,C14,2*%
%TO.N,GND*%
X102082500Y-75485000D03*
%TD*%
D16*
%TO.P,C16,1*%
%TO.N,GND*%
X74870000Y-75747500D03*
%TO.P,C16,2*%
%TO.N,Net-(U2-OSCIN)*%
X74870000Y-77822500D03*
%TD*%
D12*
%TO.P,C3,1*%
%TO.N,Net-(C3-Pad1)*%
X80132500Y-70135000D03*
%TO.P,C3,2*%
%TO.N,Net-(C1-Pad1)*%
X82207500Y-70135000D03*
%TD*%
D11*
%TO.P,R15,1*%
%TO.N,/LED_KB*%
X108170000Y-64105000D03*
%TO.P,R15,2*%
%TO.N,Net-(D1-BK)*%
X106170000Y-64105000D03*
%TD*%
D12*
%TO.P,C9,1*%
%TO.N,+3.3V*%
X70315000Y-69785000D03*
%TO.P,C9,2*%
%TO.N,GND*%
X72390000Y-69785000D03*
%TD*%
D23*
%TO.P,L2,1,1*%
%TO.N,Net-(U2-TX1)*%
X95007500Y-72485000D03*
%TO.P,L2,2,2*%
%TO.N,Net-(C4-Pad1)*%
X98332500Y-72485000D03*
%TD*%
D17*
%TO.P,R10,1*%
%TO.N,+3.3V*%
X110070000Y-67985000D03*
%TO.P,R10,2*%
%TO.N,Net-(Q1-S)*%
X112070000Y-67985000D03*
%TD*%
D24*
%TO.P,U1,*%
%TO.N,*%
X93215000Y-47255000D03*
D25*
%TO.P,U1,1*%
%TO.N,Net-(R11-Pad2)*%
X83440000Y-53185000D03*
D26*
%TO.P,U1,2*%
%TO.N,GND*%
X83440000Y-55725000D03*
%TO.P,U1,3*%
%TO.N,/SENS_DET*%
X92890000Y-55725000D03*
%TO.P,U1,4*%
%TO.N,GND*%
X92890000Y-53185000D03*
%TD*%
D12*
%TO.P,C8,1*%
%TO.N,Net-(C8-Pad1)*%
X98132500Y-77985000D03*
%TO.P,C8,2*%
%TO.N,Net-(U2-RX)*%
X100207500Y-77985000D03*
%TD*%
D11*
%TO.P,R5,1*%
%TO.N,+3.3V*%
X70370000Y-64985000D03*
%TO.P,R5,2*%
%TO.N,Net-(U2-I1)*%
X68370000Y-64985000D03*
%TD*%
D14*
%TO.P,C7,1*%
%TO.N,GND*%
X100207500Y-75485000D03*
%TO.P,C7,2*%
%TO.N,Net-(U2-VMID)*%
X98132500Y-75485000D03*
%TD*%
D13*
%TO.P,C10,1*%
%TO.N,+3.3V*%
X74220000Y-73922500D03*
%TO.P,C10,2*%
%TO.N,GND*%
X74220000Y-71847500D03*
%TD*%
D17*
%TO.P,R1,1*%
%TO.N,Net-(U2-RX)*%
X94170000Y-75485000D03*
%TO.P,R1,2*%
%TO.N,Net-(U2-VMID)*%
X96170000Y-75485000D03*
%TD*%
D15*
%TO.P,Q1,1,G*%
%TO.N,+3.3V*%
X106220000Y-40422500D03*
%TO.P,Q1,2,S*%
%TO.N,Net-(Q1-S)*%
X108120000Y-40422500D03*
%TO.P,Q1,3,D*%
%TO.N,Net-(J1-Pin_1)*%
X107170000Y-38547500D03*
%TD*%
D13*
%TO.P,C11,1*%
%TO.N,+3.3V*%
X72170000Y-78022500D03*
%TO.P,C11,2*%
%TO.N,GND*%
X72170000Y-75947500D03*
%TD*%
D15*
%TO.P,Q2,1,G*%
%TO.N,+3.3V*%
X106220000Y-44422500D03*
%TO.P,Q2,2,S*%
%TO.N,Net-(Q2-S)*%
X108120000Y-44422500D03*
%TO.P,Q2,3,D*%
%TO.N,Net-(J1-Pin_2)*%
X107170000Y-42547500D03*
%TD*%
D11*
%TO.P,R14,1*%
%TO.N,/LED_KG*%
X108170000Y-61985000D03*
%TO.P,R14,2*%
%TO.N,Net-(D1-GK)*%
X106170000Y-61985000D03*
%TD*%
D17*
%TO.P,R12,1*%
%TO.N,/SENS_DET*%
X91670000Y-59185000D03*
%TO.P,R12,2*%
%TO.N,VCC*%
X93670000Y-59185000D03*
%TD*%
%TO.P,R3,1*%
%TO.N,VCC*%
X106070000Y-70285000D03*
%TO.P,R3,2*%
%TO.N,/RSTPD_N*%
X108070000Y-70285000D03*
%TD*%
D14*
%TO.P,C15,1*%
%TO.N,+3.3V*%
X104157500Y-77985000D03*
%TO.P,C15,2*%
%TO.N,GND*%
X102082500Y-77985000D03*
%TD*%
D32*
%TO.N,+3.3V*%
X136995000Y-128685000D03*
%TO.N,Net-(R11-Pad2)*%
X132550000Y-107755000D03*
%TO.N,/SENS_LED*%
X135090000Y-110295000D03*
%TO.N,+3.3V*%
X155523800Y-123145900D03*
X159235000Y-105525800D03*
%TO.N,Net-(C3-Pad1)*%
X130089765Y-122827635D03*
X143998700Y-126758500D03*
%TO.N,+3.3V*%
X123025000Y-128685000D03*
%TO.N,Net-(D1-BK)*%
X156045000Y-86766500D03*
X161227600Y-116052000D03*
%TO.N,Net-(D1-GK)*%
X154740000Y-109660000D03*
X156045000Y-107120000D03*
X155410000Y-98865000D03*
X153141000Y-80285000D03*
%TO.N,Net-(U2-I0)*%
X133850500Y-124399144D03*
X117310000Y-116010000D03*
%TO.N,Net-(U2-I1)*%
X118695200Y-116213300D03*
X133820000Y-126805000D03*
%TO.N,+3.3V*%
X142072600Y-122912500D03*
X154140000Y-128685000D03*
%TO.N,Net-(Q1-S)*%
X142222965Y-127598965D03*
%TO.N,GND*%
X121755000Y-120455000D03*
X138894735Y-120449735D03*
X154140000Y-101405000D03*
X142874100Y-121490300D03*
X149445000Y-121920743D03*
X114770000Y-119185000D03*
%TO.N,+3.3V*%
X155888500Y-116052000D03*
X137790265Y-120294735D03*
X122923300Y-118471200D03*
%TO.N,VCC*%
X158585000Y-96325000D03*
X155410000Y-96325000D03*
X145250000Y-109025000D03*
X151858300Y-121751100D03*
%TO.N,/RSTPD_N*%
X143354700Y-123738200D03*
X154040400Y-121834800D03*
%TO.N,Net-(Q1-S)*%
X161262800Y-119190200D03*
X158964300Y-90395900D03*
%TO.N,Net-(U2-OSCIN)*%
X125565000Y-127440000D03*
X126835000Y-124098300D03*
%TO.N,VCC*%
X154469700Y-119139700D03*
X157950000Y-105215000D03*
%TO.N,+3.3V*%
X156117265Y-104652265D03*
%TO.N,Net-(Q2-S)*%
X155410000Y-126170000D03*
X156349000Y-122753400D03*
X143070000Y-128049400D03*
X158490400Y-106567200D03*
X157148300Y-119190200D03*
%TO.N,Net-(U2-RX)*%
X133820000Y-122360000D03*
X142253386Y-124900000D03*
%TO.N,Net-(U2-VMID)*%
X145106800Y-124376300D03*
%TO.N,/SENS_DET*%
X141440000Y-107755000D03*
%TO.N,Net-(U2-VMID)*%
X133018900Y-122360000D03*
%TO.N,+3.3V*%
X86995000Y-128685000D03*
%TO.N,Net-(R11-Pad2)*%
X82550000Y-107755000D03*
%TO.N,/SENS_LED*%
X85090000Y-110295000D03*
%TO.N,+3.3V*%
X105523800Y-123145900D03*
X109235000Y-105525800D03*
%TO.N,Net-(C3-Pad1)*%
X80089765Y-122827635D03*
X93998700Y-126758500D03*
%TO.N,+3.3V*%
X73025000Y-128685000D03*
%TO.N,Net-(D1-BK)*%
X106045000Y-86766500D03*
X111227600Y-116052000D03*
%TO.N,Net-(D1-GK)*%
X104740000Y-109660000D03*
X106045000Y-107120000D03*
X105410000Y-98865000D03*
X103141000Y-80285000D03*
%TO.N,Net-(U2-I0)*%
X83850500Y-124399144D03*
X67310000Y-116010000D03*
%TO.N,Net-(U2-I1)*%
X68695200Y-116213300D03*
X83820000Y-126805000D03*
%TO.N,+3.3V*%
X92072600Y-122912500D03*
X104140000Y-128685000D03*
%TO.N,Net-(Q1-S)*%
X92222965Y-127598965D03*
%TO.N,GND*%
X71755000Y-120455000D03*
X88894735Y-120449735D03*
X104140000Y-101405000D03*
X92874100Y-121490300D03*
X99445000Y-121920743D03*
X64770000Y-119185000D03*
%TO.N,+3.3V*%
X105888500Y-116052000D03*
X87790265Y-120294735D03*
X72923300Y-118471200D03*
%TO.N,VCC*%
X108585000Y-96325000D03*
X105410000Y-96325000D03*
X95250000Y-109025000D03*
X101858300Y-121751100D03*
%TO.N,/RSTPD_N*%
X93354700Y-123738200D03*
X104040400Y-121834800D03*
%TO.N,Net-(Q1-S)*%
X111262800Y-119190200D03*
X108964300Y-90395900D03*
%TO.N,Net-(U2-OSCIN)*%
X75565000Y-127440000D03*
X76835000Y-124098300D03*
%TO.N,VCC*%
X104469700Y-119139700D03*
X107950000Y-105215000D03*
%TO.N,+3.3V*%
X106117265Y-104652265D03*
%TO.N,Net-(Q2-S)*%
X105410000Y-126170000D03*
X106349000Y-122753400D03*
X93070000Y-128049400D03*
X108490400Y-106567200D03*
X107148300Y-119190200D03*
%TO.N,Net-(U2-RX)*%
X83820000Y-122360000D03*
X92253386Y-124900000D03*
%TO.N,Net-(U2-VMID)*%
X95106800Y-124376300D03*
%TO.N,/SENS_DET*%
X91440000Y-107755000D03*
%TO.N,Net-(U2-VMID)*%
X83018900Y-122360000D03*
%TO.N,+3.3V*%
X136995000Y-78685000D03*
%TO.N,Net-(R11-Pad2)*%
X132550000Y-57755000D03*
%TO.N,/SENS_LED*%
X135090000Y-60295000D03*
%TO.N,+3.3V*%
X155523800Y-73145900D03*
X159235000Y-55525800D03*
%TO.N,Net-(C3-Pad1)*%
X130089765Y-72827635D03*
X143998700Y-76758500D03*
%TO.N,+3.3V*%
X123025000Y-78685000D03*
%TO.N,Net-(D1-BK)*%
X156045000Y-36766500D03*
X161227600Y-66052000D03*
%TO.N,Net-(D1-GK)*%
X154740000Y-59660000D03*
X156045000Y-57120000D03*
X155410000Y-48865000D03*
X153141000Y-30285000D03*
%TO.N,Net-(U2-I0)*%
X133850500Y-74399144D03*
X117310000Y-66010000D03*
%TO.N,Net-(U2-I1)*%
X118695200Y-66213300D03*
X133820000Y-76805000D03*
%TO.N,+3.3V*%
X142072600Y-72912500D03*
X154140000Y-78685000D03*
%TO.N,Net-(Q1-S)*%
X142222965Y-77598965D03*
%TO.N,GND*%
X121755000Y-70455000D03*
X138894735Y-70449735D03*
X154140000Y-51405000D03*
X142874100Y-71490300D03*
X149445000Y-71920743D03*
X114770000Y-69185000D03*
%TO.N,+3.3V*%
X155888500Y-66052000D03*
X137790265Y-70294735D03*
X122923300Y-68471200D03*
%TO.N,VCC*%
X158585000Y-46325000D03*
X155410000Y-46325000D03*
X145250000Y-59025000D03*
X151858300Y-71751100D03*
%TO.N,/RSTPD_N*%
X143354700Y-73738200D03*
X154040400Y-71834800D03*
%TO.N,Net-(Q1-S)*%
X161262800Y-69190200D03*
X158964300Y-40395900D03*
%TO.N,Net-(U2-OSCIN)*%
X125565000Y-77440000D03*
X126835000Y-74098300D03*
%TO.N,VCC*%
X154469700Y-69139700D03*
X157950000Y-55215000D03*
%TO.N,+3.3V*%
X156117265Y-54652265D03*
%TO.N,Net-(Q2-S)*%
X155410000Y-76170000D03*
X156349000Y-72753400D03*
X143070000Y-78049400D03*
X158490400Y-56567200D03*
X157148300Y-69190200D03*
%TO.N,Net-(U2-RX)*%
X133820000Y-72360000D03*
X142253386Y-74900000D03*
%TO.N,Net-(U2-VMID)*%
X145106800Y-74376300D03*
%TO.N,/SENS_DET*%
X141440000Y-57755000D03*
%TO.N,Net-(U2-VMID)*%
X133018900Y-72360000D03*
%TO.N,Net-(R11-Pad2)*%
X82550000Y-57755000D03*
%TO.N,/SENS_LED*%
X85090000Y-60295000D03*
%TO.N,+3.3V*%
X86995000Y-78685000D03*
X92072600Y-72912500D03*
X104140000Y-78685000D03*
X73025000Y-78685000D03*
X106117265Y-54652265D03*
X72923300Y-68471200D03*
X87790265Y-70294735D03*
X105888500Y-66052000D03*
X109235000Y-55525800D03*
X105523800Y-73145900D03*
%TO.N,VCC*%
X107950000Y-55215000D03*
X104469700Y-69139700D03*
X101858300Y-71751100D03*
X95250000Y-59025000D03*
X105410000Y-46325000D03*
X108585000Y-46325000D03*
%TO.N,Net-(U2-OSCIN)*%
X76835000Y-74098300D03*
X75565000Y-77440000D03*
%TO.N,Net-(Q1-S)*%
X92222965Y-77598965D03*
X108964300Y-40395900D03*
X111262800Y-69190200D03*
%TO.N,/SENS_DET*%
X91440000Y-57755000D03*
%TO.N,Net-(Q2-S)*%
X107148300Y-69190200D03*
X108490400Y-56567200D03*
X93070000Y-78049400D03*
X106349000Y-72753400D03*
X105410000Y-76170000D03*
%TO.N,/RSTPD_N*%
X104040400Y-71834800D03*
X93354700Y-73738200D03*
%TO.N,Net-(U2-I1)*%
X83820000Y-76805000D03*
X68695200Y-66213300D03*
%TO.N,Net-(U2-I0)*%
X67310000Y-66010000D03*
X83850500Y-74399144D03*
%TO.N,GND*%
X64770000Y-69185000D03*
X99445000Y-71920743D03*
X92874100Y-71490300D03*
X104140000Y-51405000D03*
X88894735Y-70449735D03*
X71755000Y-70455000D03*
%TO.N,Net-(C3-Pad1)*%
X93998700Y-76758500D03*
X80089765Y-72827635D03*
%TO.N,Net-(U2-VMID)*%
X83018900Y-72360000D03*
X95106800Y-74376300D03*
%TO.N,Net-(U2-RX)*%
X92253386Y-74900000D03*
X83820000Y-72360000D03*
%TO.N,Net-(D1-GK)*%
X103141000Y-30285000D03*
X105410000Y-48865000D03*
X106045000Y-57120000D03*
X104740000Y-59660000D03*
%TO.N,Net-(D1-BK)*%
X111227600Y-66052000D03*
X106045000Y-36766500D03*
%TD*%
D33*
%TO.N,Net-(U2-TX2)*%
X131729000Y-122485000D02*
X133759000Y-120455000D01*
X131332000Y-122485000D02*
X131332500Y-122485000D01*
X133759000Y-120455000D02*
X137102000Y-120455000D01*
X131332500Y-122485000D02*
X131729000Y-122485000D01*
X137102000Y-120455000D02*
X137920000Y-121273000D01*
%TO.N,Net-(U2-TX1)*%
X145007500Y-122485000D02*
X144882000Y-122485000D01*
X145008000Y-122485000D02*
X145007500Y-122485000D01*
X142852000Y-120455000D02*
X139738000Y-120455000D01*
X139738000Y-120455000D02*
X138920000Y-121273000D01*
X138920000Y-121273000D02*
X138920000Y-121725000D01*
X144882000Y-122485000D02*
X142852000Y-120455000D01*
%TO.N,Net-(C4-Pad1)*%
X148332000Y-120335000D02*
X148132300Y-120135200D01*
X148332500Y-121723500D02*
X148332500Y-122485000D01*
X148332000Y-121723000D02*
X148332000Y-120335000D01*
X148132300Y-120135200D02*
X148132000Y-120135000D01*
X148332000Y-121723000D02*
X148332500Y-121723500D01*
X148132500Y-120135000D02*
X148132300Y-120135200D01*
%TO.N,GND*%
X139747000Y-119110000D02*
X139622000Y-119235000D01*
X124220000Y-120135000D02*
X122740000Y-120135000D01*
X139706300Y-122464600D02*
X139704700Y-122463000D01*
X124609100Y-120135000D02*
X126132500Y-120135000D01*
X136718000Y-119235000D02*
X136593000Y-119110000D01*
X140347100Y-122312800D02*
X140195300Y-122464600D01*
X154157500Y-123410000D02*
X154157500Y-123185000D01*
X139747500Y-119110000D02*
X139872500Y-118985000D01*
X132857600Y-127934900D02*
X132970000Y-127822500D01*
X136592500Y-119110000D02*
X136467500Y-118985000D01*
X124220000Y-121847500D02*
X126118000Y-123745500D01*
X153838500Y-122880100D02*
X151093400Y-120135000D01*
X139747000Y-119110000D02*
X139747500Y-119110000D01*
X114370000Y-117485000D02*
X114370000Y-114985000D01*
X122170000Y-125947500D02*
X122370000Y-125747500D01*
X114135000Y-118550000D02*
X114135000Y-117720000D01*
X139143800Y-122464600D02*
X139420000Y-122188400D01*
X154140000Y-117915000D02*
X154140000Y-101405000D01*
X136593000Y-119110000D02*
X136592500Y-119110000D01*
X133695000Y-127822500D02*
X132970000Y-127822500D01*
X152082500Y-127985000D02*
X152082500Y-125485000D01*
X138170000Y-124662500D02*
X137545000Y-124662500D01*
X140420000Y-121725000D02*
X140347100Y-121797900D01*
X128821900Y-127738800D02*
X129018100Y-127935000D01*
X134420000Y-127097500D02*
X133695000Y-127822500D01*
X127470000Y-125635000D02*
X128821900Y-125635000D01*
X114135000Y-117720000D02*
X114370000Y-117485000D01*
X137420000Y-124537500D02*
X137420000Y-122464600D01*
X160226900Y-122128100D02*
X155681400Y-122128100D01*
X126132500Y-120135000D02*
X124220000Y-120135000D01*
X128821900Y-125635000D02*
X128821900Y-127738800D01*
X140195300Y-122464600D02*
X139706300Y-122464600D01*
%TO.N,Net-(C4-Pad1)*%
X146207500Y-120135000D02*
X146208000Y-120135000D01*
X148132000Y-120135000D02*
X146208000Y-120135000D01*
X148332000Y-122485000D02*
X148332000Y-121723000D01*
%TO.N,Net-(C3-Pad1)*%
X128008000Y-122294500D02*
X128008000Y-121723000D01*
X128008000Y-121723000D02*
X128007500Y-121723500D01*
X128208000Y-120135000D02*
X130132000Y-120135000D01*
X128207600Y-120135000D02*
X128207800Y-120135200D01*
X130132500Y-120135000D02*
X130132000Y-120135000D01*
X128008000Y-122485000D02*
X128008000Y-122294500D01*
X143998700Y-127813700D02*
X143998700Y-126758500D01*
X128207500Y-120135000D02*
X128207600Y-120135000D01*
X144170000Y-127985000D02*
X143998700Y-127813700D01*
X128207800Y-120135200D02*
X128208000Y-120135000D01*
X128008000Y-120335000D02*
X128207800Y-120135200D01*
X130089765Y-122827635D02*
X129556630Y-122294500D01*
X129556630Y-122294500D02*
X128008000Y-122294500D01*
X128007500Y-121723500D02*
X128007500Y-122485000D01*
X128008000Y-121723000D02*
X128008000Y-120335000D01*
%TO.N,/LED_KB*%
X158170000Y-114105000D02*
X158930000Y-113345000D01*
%TO.N,/LED_KG*%
X159918100Y-110805000D02*
X158738100Y-111985000D01*
X158738100Y-111985000D02*
X158170000Y-111985000D01*
X161070000Y-110805000D02*
X159918100Y-110805000D01*
%TO.N,Net-(D1-BK)*%
X156170000Y-114105000D02*
X158117000Y-116052000D01*
X158117000Y-116052000D02*
X161227600Y-116052000D01*
X156045000Y-86766500D02*
X155410000Y-86131500D01*
X155410000Y-82355000D02*
X154740000Y-81685000D01*
X154740000Y-81685000D02*
X152970000Y-81685000D01*
X155410000Y-86131500D02*
X155410000Y-82355000D01*
%TO.N,Net-(D1-GK)*%
X153141000Y-80285000D02*
X148464243Y-80285000D01*
X156045000Y-106367900D02*
X155410000Y-105732900D01*
X148464243Y-80285000D02*
X147370000Y-81379243D01*
X155410000Y-98865000D02*
X155410000Y-105732900D01*
X154775000Y-109660000D02*
X154740000Y-109660000D01*
X154775000Y-110590000D02*
X154775000Y-109660000D01*
X156045000Y-107120000D02*
X156045000Y-106367900D01*
X147370000Y-81379243D02*
X147370000Y-81685000D01*
X156170000Y-111985000D02*
X154775000Y-110590000D01*
%TO.N,Net-(D1-RK)*%
X154140000Y-87945378D02*
X154140000Y-100556471D01*
%TO.N,Net-(C1-Pad1)*%
X132208000Y-120135000D02*
X133242000Y-120135000D01*
X132770000Y-118235000D02*
X133159000Y-118624000D01*
X134392500Y-118985000D02*
X134392000Y-118985000D01*
X134392000Y-118985000D02*
X133520000Y-118985000D01*
X132207500Y-120135000D02*
X132208000Y-120135000D01*
X133242000Y-120135000D02*
X134392000Y-118985000D01*
%TO.N,Net-(U2-I0)*%
X135232500Y-124912500D02*
X134363856Y-124912500D01*
X116370000Y-117485000D02*
X118370000Y-117485000D01*
X134363856Y-124912500D02*
X133850500Y-124399144D01*
X117310000Y-116010000D02*
X117310000Y-116425000D01*
X117310000Y-116425000D02*
X118370000Y-117485000D01*
%TO.N,Net-(U2-I1)*%
X133820000Y-126494744D02*
X133995000Y-126319744D01*
%TO.N,/LED_KB*%
X158930000Y-113345000D02*
X161070000Y-113345000D01*
%TO.N,+3.3V*%
X120651300Y-126717400D02*
X121956400Y-128022500D01*
X121956400Y-128022500D02*
X122170000Y-128022500D01*
X159009600Y-116924600D02*
X160070000Y-117985000D01*
X120370000Y-114985000D02*
X120370000Y-117485000D01*
X154157500Y-125485000D02*
X155523800Y-124118700D01*
%TO.N,Net-(Q1-S)*%
X142452900Y-127451000D02*
X142452900Y-127449400D01*
X158964300Y-90395900D02*
X158146600Y-90395900D01*
X142452900Y-127449400D02*
X142452900Y-127451000D01*
%TO.N,+3.3V*%
X120370000Y-119730000D02*
X120370000Y-118471200D01*
X122170000Y-123922500D02*
X124220000Y-123922500D01*
X155888500Y-116052000D02*
X156945800Y-117109200D01*
X156136800Y-90505700D02*
X156136800Y-94339300D01*
X154157500Y-125485000D02*
X154157500Y-127985000D01*
X137790265Y-120294735D02*
X138420000Y-120924470D01*
X157130400Y-116924600D02*
X159009600Y-116924600D01*
X120651300Y-125205700D02*
X120651300Y-126717400D01*
X154157500Y-128667500D02*
X154140000Y-128685000D01*
X138420000Y-120924470D02*
X138420000Y-121725000D01*
X120315000Y-122067500D02*
X122170000Y-123922500D01*
X155523800Y-124118700D02*
X155523800Y-123145900D01*
X122362500Y-128022500D02*
X123025000Y-128685000D01*
%TO.N,GND*%
X134420000Y-126205000D02*
X134420000Y-127097500D01*
X154462400Y-122880100D02*
X154929400Y-122880100D01*
X122390000Y-119820000D02*
X121755000Y-120455000D01*
X135232500Y-125912500D02*
X134712500Y-125912500D01*
X154929400Y-122880100D02*
X153838500Y-122880100D01*
X136593000Y-119110000D02*
X136468000Y-118985000D01*
X149445000Y-121920743D02*
X149445000Y-120897500D01*
X139622000Y-119235000D02*
X138170000Y-119235000D01*
X139420000Y-122188400D02*
X139420000Y-121725000D01*
X142639400Y-121725000D02*
X142874100Y-121490300D01*
X152870000Y-119258909D02*
X152870000Y-119185000D01*
X137545000Y-124662500D02*
X137420000Y-124537500D01*
X126005600Y-125747500D02*
X126118100Y-125635000D01*
X152870000Y-119185000D02*
X154140000Y-117915000D01*
X150207500Y-125485000D02*
X152082500Y-125485000D01*
X137420000Y-124537500D02*
X136045000Y-125912500D01*
X126794100Y-125635000D02*
X127470000Y-125635000D01*
X140347100Y-121797900D02*
X140347100Y-122312800D01*
X126118000Y-123745500D02*
X126118100Y-123745500D01*
X149445000Y-120897500D02*
X150207500Y-120135000D01*
%TO.N,Net-(J1-Pin_1)*%
X161070000Y-90485000D02*
X159918100Y-90485000D01*
%TO.N,+3.3V*%
X122170000Y-128022500D02*
X122362500Y-128022500D01*
X156117265Y-104652265D02*
X156117265Y-103587735D01*
X136920000Y-127600000D02*
X136920000Y-128610000D01*
X156117265Y-103587735D02*
X156220000Y-103485000D01*
X156136800Y-94339300D02*
X156220000Y-94422500D01*
X156945800Y-117109200D02*
X157130400Y-116924600D01*
X154157500Y-127985000D02*
X154157500Y-128667500D01*
X120315000Y-119785000D02*
X120315000Y-122067500D01*
X141107500Y-122912500D02*
X142072600Y-122912500D01*
X121934500Y-123922500D02*
X120651300Y-125205700D01*
X120370000Y-118471200D02*
X120370000Y-117485000D01*
X120370000Y-118471200D02*
X122923300Y-118471200D01*
X156220000Y-90422500D02*
X156136800Y-90505700D01*
X156220000Y-103485000D02*
X156220000Y-94422500D01*
X136920000Y-128610000D02*
X136995000Y-128685000D01*
X156070000Y-117985000D02*
X156945800Y-117109200D01*
X122170000Y-123922500D02*
X121934500Y-123922500D01*
X120315000Y-119785000D02*
X120370000Y-119730000D01*
%TO.N,Net-(U2-OSCIN)*%
X125565000Y-127440000D02*
X125252500Y-127440000D01*
X125252500Y-127440000D02*
X124870000Y-127822500D01*
X124982500Y-127935000D02*
X127470000Y-127935000D01*
X131501529Y-124265000D02*
X132771529Y-122995000D01*
X127001700Y-124265000D02*
X131501529Y-124265000D01*
X134778071Y-123912500D02*
X135232500Y-123912500D01*
X124870000Y-127822500D02*
X124982500Y-127935000D01*
X132771529Y-122995000D02*
X133860571Y-122995000D01*
X133860571Y-122995000D02*
X134778071Y-123912500D01*
X126835000Y-124098300D02*
X127001700Y-124265000D01*
%TO.N,/SENS_LED*%
X134470000Y-109675000D02*
X135090000Y-110295000D01*
X134470000Y-109185000D02*
X134470000Y-109675000D01*
%TO.N,Net-(J1-Pin_2)*%
X159918100Y-93025000D02*
X159440600Y-92547500D01*
X161070000Y-93025000D02*
X159918100Y-93025000D01*
X159440600Y-92547500D02*
X157170000Y-92547500D01*
%TO.N,Net-(R11-Pad2)*%
X132550000Y-107755000D02*
X132470000Y-107835000D01*
%TO.N,Net-(U2-I1)*%
X118695200Y-116213300D02*
X118370000Y-115888100D01*
X118370000Y-115888100D02*
X118370000Y-114985000D01*
X133995000Y-126319744D02*
X133995000Y-125657500D01*
X133820000Y-126805000D02*
X133820000Y-126494744D01*
X116370000Y-114985000D02*
X118370000Y-114985000D01*
X134240000Y-125412500D02*
X135232500Y-125412500D01*
X133995000Y-125657500D02*
X134240000Y-125412500D01*
%TO.N,/RSTPD_N*%
X156647000Y-121708000D02*
X158070000Y-120285000D01*
X154167200Y-121708000D02*
X156647000Y-121708000D01*
X158070000Y-120285000D02*
X160070000Y-120285000D01*
X141107500Y-123412500D02*
X141721500Y-123412500D01*
X154040400Y-121834800D02*
X154167200Y-121708000D01*
X142047200Y-123738200D02*
X143354700Y-123738200D01*
X141721500Y-123412500D02*
X142047200Y-123738200D01*
%TO.N,Net-(Q1-S)*%
X139528100Y-128765500D02*
X138920000Y-128157400D01*
X142222965Y-127598965D02*
X142222965Y-127679335D01*
X161262800Y-119190200D02*
X161262800Y-118792200D01*
X161262800Y-118792200D02*
X162070000Y-117985000D01*
X158146600Y-90395900D02*
X158120000Y-90422500D01*
X141136800Y-128765500D02*
X139528100Y-128765500D01*
X142222965Y-127679335D02*
X141136800Y-128765500D01*
X138920000Y-128157400D02*
X138920000Y-127600000D01*
%TO.N,Net-(U2-OSCOUT)*%
X132857500Y-125635000D02*
X130370000Y-125635000D01*
X134712385Y-124412500D02*
X133929885Y-123630000D01*
X135232500Y-124412500D02*
X134712385Y-124412500D01*
X133929885Y-123630000D02*
X133419999Y-123630000D01*
X132970000Y-125747500D02*
X132857500Y-125635000D01*
X132970000Y-124079999D02*
X132970000Y-125747500D01*
X133419999Y-123630000D02*
X132970000Y-124079999D01*
%TO.N,VCC*%
X142796100Y-122310600D02*
X144243700Y-123758200D01*
X154424400Y-119185000D02*
X154469700Y-119139700D01*
X153800000Y-83285000D02*
X154775000Y-84260000D01*
X155410000Y-120285000D02*
X154424400Y-119299400D01*
X152082500Y-121975300D02*
X151858300Y-121751100D01*
X143670000Y-109185000D02*
X145090000Y-109185000D01*
X157950000Y-105215000D02*
X157950000Y-98685000D01*
X149851200Y-123758200D02*
X151858300Y-121751100D01*
X159345000Y-95565000D02*
X161070000Y-95565000D01*
X141107500Y-122412500D02*
X141209400Y-122310600D01*
X152082500Y-123185000D02*
X152082500Y-121975300D01*
X145090000Y-109185000D02*
X145250000Y-109025000D01*
X145090000Y-109305000D02*
X145090000Y-109185000D01*
X154775000Y-87435000D02*
X154775000Y-87540000D01*
X141209400Y-122310600D02*
X142796100Y-122310600D01*
X144243700Y-123758200D02*
X149851200Y-123758200D01*
X155410000Y-95690000D02*
X155410000Y-96325000D01*
X158585000Y-96325000D02*
X159345000Y-95565000D01*
X154424400Y-119299400D02*
X154424400Y-119185000D01*
X157950000Y-98685000D02*
X161070000Y-95565000D01*
X154775000Y-87435000D02*
X154775000Y-95055000D01*
X152970000Y-83285000D02*
X153800000Y-83285000D01*
X154775000Y-95055000D02*
X155410000Y-95690000D01*
X154775000Y-84260000D02*
X154775000Y-87435000D01*
%TO.N,GND*%
X139872500Y-119471970D02*
X138894735Y-120449735D01*
X130370000Y-127935000D02*
X132857600Y-127935000D01*
X122390000Y-119785000D02*
X122390000Y-119820000D01*
X138170000Y-119235000D02*
X136718000Y-119235000D01*
X139872500Y-118985000D02*
X139872500Y-119471970D01*
X130370000Y-127935000D02*
X129018100Y-127935000D01*
X152082500Y-125485000D02*
X154157500Y-123410000D01*
X135284600Y-122464600D02*
X137420000Y-122464600D01*
X135232500Y-122412500D02*
X135284600Y-122464600D01*
X139704700Y-122463000D02*
X139694600Y-122463000D01*
X124220000Y-121847500D02*
X122170000Y-121847500D01*
X137420000Y-122464600D02*
X139143800Y-122464600D01*
X155681400Y-122128100D02*
X154929400Y-122880100D01*
X139694600Y-122463000D02*
X139420000Y-122188400D01*
X162070000Y-120285000D02*
X160226900Y-122128100D01*
X151993909Y-120135000D02*
X152870000Y-119258909D01*
X124220000Y-121847500D02*
X124220000Y-120135000D01*
X136045000Y-125912500D02*
X135232500Y-125912500D01*
X138170000Y-119185000D02*
X138170000Y-119235000D01*
X122740000Y-120135000D02*
X122390000Y-119785000D01*
X126794100Y-125635000D02*
X126118100Y-125635000D01*
X137420000Y-122464600D02*
X137420000Y-121725000D01*
X132857600Y-127935000D02*
X132857600Y-127934900D01*
X150207500Y-120135000D02*
X151993909Y-120135000D01*
X126118100Y-123745500D02*
X126118100Y-125635000D01*
X139872000Y-118985000D02*
X139747000Y-119110000D01*
X140420000Y-121725000D02*
X142639400Y-121725000D01*
X124870000Y-125747500D02*
X126005600Y-125747500D01*
X122370000Y-125747500D02*
X124870000Y-125747500D01*
X114770000Y-119185000D02*
X114135000Y-118550000D01*
X151093400Y-120135000D02*
X150207500Y-120135000D01*
X154157500Y-123185000D02*
X154462400Y-122880100D01*
X134712500Y-125912500D02*
X134420000Y-126205000D01*
%TO.N,Net-(C1-Pad1)*%
X133520000Y-118985000D02*
X133159000Y-118624000D01*
%TO.N,Net-(Q2-S)*%
X142181000Y-126792400D02*
X140609800Y-128363600D01*
X140609800Y-128363600D02*
X139730300Y-128363600D01*
X157315000Y-105449600D02*
X158432600Y-106567200D01*
X143102300Y-128017100D02*
X143102300Y-127186500D01*
X142708200Y-126792400D02*
X142181000Y-126792400D01*
X156349000Y-123961000D02*
X156349000Y-122753400D01*
X143102300Y-127186500D02*
X142708200Y-126792400D01*
X139420000Y-128053300D02*
X139420000Y-127600000D01*
X158070000Y-117985000D02*
X157148300Y-118906700D01*
X158432600Y-106567200D02*
X158490400Y-106567200D01*
%TO.N,Net-(J1-Pin_1)*%
X157980600Y-88547500D02*
X159918100Y-90485000D01*
%TO.N,Net-(D1-RK)*%
X154140000Y-100556471D02*
X154740000Y-101156471D01*
X147155000Y-84452879D02*
X148867121Y-86165000D01*
X152359622Y-86165000D02*
X154140000Y-87945378D01*
X147370000Y-83285000D02*
X147155000Y-83500000D01*
X154740000Y-108455000D02*
X156170000Y-109885000D01*
X147155000Y-83500000D02*
X147155000Y-84452879D01*
X154740000Y-101156471D02*
X154740000Y-108455000D01*
X148867121Y-86165000D02*
X152359622Y-86165000D01*
%TO.N,/LED_KR*%
X159790000Y-108265000D02*
X158170000Y-109885000D01*
X161070000Y-108265000D02*
X159790000Y-108265000D01*
%TO.N,Net-(C2-Pad2)*%
X141947500Y-118985000D02*
X141948000Y-118985000D01*
X144132500Y-120135000D02*
X144132000Y-120135000D01*
X143570000Y-118235000D02*
X143181000Y-118624000D01*
X142820000Y-118985000D02*
X143181000Y-118624000D01*
X143098000Y-120135000D02*
X141948000Y-118985000D01*
X144132000Y-120135000D02*
X143098000Y-120135000D01*
X141948000Y-118985000D02*
X142820000Y-118985000D01*
%TO.N,Net-(U2-RX)*%
X148935900Y-126713400D02*
X145398400Y-126713400D01*
X145398400Y-126713400D02*
X144170000Y-125485000D01*
X133820000Y-122360000D02*
X133820000Y-122278050D01*
X142253386Y-124900000D02*
X142838386Y-125485000D01*
X133820000Y-122278050D02*
X134373050Y-121725000D01*
X134373050Y-121725000D02*
X135920000Y-121725000D01*
X142838386Y-125485000D02*
X144170000Y-125485000D01*
X150207500Y-127985000D02*
X148935900Y-126713400D01*
%TO.N,Net-(C8-Pad1)*%
X148132500Y-127985000D02*
X146170000Y-127985000D01*
%TO.N,Net-(J1-Pin_1)*%
X157170000Y-88547500D02*
X157980600Y-88547500D01*
%TO.N,Net-(Q2-S)*%
X157315000Y-95227500D02*
X157315000Y-105449600D01*
X157148300Y-118906700D02*
X157148300Y-119190200D01*
X143070000Y-128049400D02*
X143102300Y-128017100D01*
X155410000Y-124900000D02*
X156349000Y-123961000D01*
X158120000Y-94422500D02*
X157315000Y-95227500D01*
X139730300Y-128363600D02*
X139420000Y-128053300D01*
X155410000Y-126170000D02*
X155410000Y-124900000D01*
%TO.N,/SENS_DET*%
X141440000Y-107755000D02*
X141440000Y-108955000D01*
X141440000Y-108955000D02*
X141670000Y-109185000D01*
%TO.N,Net-(U2-VMID)*%
X145106800Y-124376300D02*
X146170000Y-125439500D01*
X133018900Y-122360000D02*
X133018900Y-122089900D01*
X146170000Y-125439500D02*
X146170000Y-125485000D01*
X148132500Y-125485000D02*
X146170000Y-125485000D01*
X136420000Y-121214400D02*
X136420000Y-121725000D01*
X136166100Y-120960500D02*
X136420000Y-121214400D01*
X134148300Y-120960500D02*
X136166100Y-120960500D01*
X133018900Y-122089900D02*
X134148300Y-120960500D01*
%TO.N,Net-(U2-TX2)*%
X137920000Y-121273000D02*
X137920000Y-121725000D01*
%TO.N,Net-(R11-Pad2)*%
X132470000Y-107835000D02*
X132470000Y-109185000D01*
%TO.N,Net-(U2-TX2)*%
X81729000Y-122485000D02*
X83759000Y-120455000D01*
X81332000Y-122485000D02*
X81332500Y-122485000D01*
X83759000Y-120455000D02*
X87102000Y-120455000D01*
X81332500Y-122485000D02*
X81729000Y-122485000D01*
X87102000Y-120455000D02*
X87920000Y-121273000D01*
%TO.N,Net-(U2-TX1)*%
X95007500Y-122485000D02*
X94882000Y-122485000D01*
X95008000Y-122485000D02*
X95007500Y-122485000D01*
X92852000Y-120455000D02*
X89738000Y-120455000D01*
X89738000Y-120455000D02*
X88920000Y-121273000D01*
X88920000Y-121273000D02*
X88920000Y-121725000D01*
X94882000Y-122485000D02*
X92852000Y-120455000D01*
%TO.N,Net-(C4-Pad1)*%
X98332000Y-120335000D02*
X98132300Y-120135200D01*
X98332500Y-121723500D02*
X98332500Y-122485000D01*
X98332000Y-121723000D02*
X98332000Y-120335000D01*
X98132300Y-120135200D02*
X98132000Y-120135000D01*
X98332000Y-121723000D02*
X98332500Y-121723500D01*
X98132500Y-120135000D02*
X98132300Y-120135200D01*
%TO.N,GND*%
X89747000Y-119110000D02*
X89622000Y-119235000D01*
X74220000Y-120135000D02*
X72740000Y-120135000D01*
X89706300Y-122464600D02*
X89704700Y-122463000D01*
X74609100Y-120135000D02*
X76132500Y-120135000D01*
X86718000Y-119235000D02*
X86593000Y-119110000D01*
X90347100Y-122312800D02*
X90195300Y-122464600D01*
X104157500Y-123410000D02*
X104157500Y-123185000D01*
X89747500Y-119110000D02*
X89872500Y-118985000D01*
X82857600Y-127934900D02*
X82970000Y-127822500D01*
X86592500Y-119110000D02*
X86467500Y-118985000D01*
X74220000Y-121847500D02*
X76118000Y-123745500D01*
X103838500Y-122880100D02*
X101093400Y-120135000D01*
X89747000Y-119110000D02*
X89747500Y-119110000D01*
X64370000Y-117485000D02*
X64370000Y-114985000D01*
X72170000Y-125947500D02*
X72370000Y-125747500D01*
X64135000Y-118550000D02*
X64135000Y-117720000D01*
X89143800Y-122464600D02*
X89420000Y-122188400D01*
X104140000Y-117915000D02*
X104140000Y-101405000D01*
X86593000Y-119110000D02*
X86592500Y-119110000D01*
X83695000Y-127822500D02*
X82970000Y-127822500D01*
X102082500Y-127985000D02*
X102082500Y-125485000D01*
X88170000Y-124662500D02*
X87545000Y-124662500D01*
X90420000Y-121725000D02*
X90347100Y-121797900D01*
X78821900Y-127738800D02*
X79018100Y-127935000D01*
X84420000Y-127097500D02*
X83695000Y-127822500D01*
X77470000Y-125635000D02*
X78821900Y-125635000D01*
X64135000Y-117720000D02*
X64370000Y-117485000D01*
X87420000Y-124537500D02*
X87420000Y-122464600D01*
X110226900Y-122128100D02*
X105681400Y-122128100D01*
X76132500Y-120135000D02*
X74220000Y-120135000D01*
X78821900Y-125635000D02*
X78821900Y-127738800D01*
X90195300Y-122464600D02*
X89706300Y-122464600D01*
%TO.N,Net-(C4-Pad1)*%
X96207500Y-120135000D02*
X96208000Y-120135000D01*
X98132000Y-120135000D02*
X96208000Y-120135000D01*
X98332000Y-122485000D02*
X98332000Y-121723000D01*
%TO.N,Net-(C3-Pad1)*%
X78008000Y-122294500D02*
X78008000Y-121723000D01*
X78008000Y-121723000D02*
X78007500Y-121723500D01*
X78208000Y-120135000D02*
X80132000Y-120135000D01*
X78207600Y-120135000D02*
X78207800Y-120135200D01*
X80132500Y-120135000D02*
X80132000Y-120135000D01*
X78008000Y-122485000D02*
X78008000Y-122294500D01*
X93998700Y-127813700D02*
X93998700Y-126758500D01*
X78207500Y-120135000D02*
X78207600Y-120135000D01*
X94170000Y-127985000D02*
X93998700Y-127813700D01*
X78207800Y-120135200D02*
X78208000Y-120135000D01*
X78008000Y-120335000D02*
X78207800Y-120135200D01*
X80089765Y-122827635D02*
X79556630Y-122294500D01*
X79556630Y-122294500D02*
X78008000Y-122294500D01*
X78007500Y-121723500D02*
X78007500Y-122485000D01*
X78008000Y-121723000D02*
X78008000Y-120335000D01*
%TO.N,/LED_KB*%
X108170000Y-114105000D02*
X108930000Y-113345000D01*
%TO.N,/LED_KG*%
X109918100Y-110805000D02*
X108738100Y-111985000D01*
X108738100Y-111985000D02*
X108170000Y-111985000D01*
X111070000Y-110805000D02*
X109918100Y-110805000D01*
%TO.N,Net-(D1-BK)*%
X106170000Y-114105000D02*
X108117000Y-116052000D01*
X108117000Y-116052000D02*
X111227600Y-116052000D01*
X106045000Y-86766500D02*
X105410000Y-86131500D01*
X105410000Y-82355000D02*
X104740000Y-81685000D01*
X104740000Y-81685000D02*
X102970000Y-81685000D01*
X105410000Y-86131500D02*
X105410000Y-82355000D01*
%TO.N,Net-(D1-GK)*%
X103141000Y-80285000D02*
X98464243Y-80285000D01*
X106045000Y-106367900D02*
X105410000Y-105732900D01*
X98464243Y-80285000D02*
X97370000Y-81379243D01*
X105410000Y-98865000D02*
X105410000Y-105732900D01*
X104775000Y-109660000D02*
X104740000Y-109660000D01*
X104775000Y-110590000D02*
X104775000Y-109660000D01*
X106045000Y-107120000D02*
X106045000Y-106367900D01*
X97370000Y-81379243D02*
X97370000Y-81685000D01*
X106170000Y-111985000D02*
X104775000Y-110590000D01*
%TO.N,Net-(D1-RK)*%
X104140000Y-87945378D02*
X104140000Y-100556471D01*
%TO.N,Net-(C1-Pad1)*%
X82208000Y-120135000D02*
X83242000Y-120135000D01*
X82770000Y-118235000D02*
X83159000Y-118624000D01*
X84392500Y-118985000D02*
X84392000Y-118985000D01*
X84392000Y-118985000D02*
X83520000Y-118985000D01*
X82207500Y-120135000D02*
X82208000Y-120135000D01*
X83242000Y-120135000D02*
X84392000Y-118985000D01*
%TO.N,Net-(U2-I0)*%
X85232500Y-124912500D02*
X84363856Y-124912500D01*
X66370000Y-117485000D02*
X68370000Y-117485000D01*
X84363856Y-124912500D02*
X83850500Y-124399144D01*
X67310000Y-116010000D02*
X67310000Y-116425000D01*
X67310000Y-116425000D02*
X68370000Y-117485000D01*
%TO.N,Net-(U2-I1)*%
X83820000Y-126494744D02*
X83995000Y-126319744D01*
%TO.N,/LED_KB*%
X108930000Y-113345000D02*
X111070000Y-113345000D01*
%TO.N,+3.3V*%
X70651300Y-126717400D02*
X71956400Y-128022500D01*
X71956400Y-128022500D02*
X72170000Y-128022500D01*
X109009600Y-116924600D02*
X110070000Y-117985000D01*
X70370000Y-114985000D02*
X70370000Y-117485000D01*
X104157500Y-125485000D02*
X105523800Y-124118700D01*
%TO.N,Net-(Q1-S)*%
X92452900Y-127451000D02*
X92452900Y-127449400D01*
X108964300Y-90395900D02*
X108146600Y-90395900D01*
X92452900Y-127449400D02*
X92452900Y-127451000D01*
%TO.N,+3.3V*%
X70370000Y-119730000D02*
X70370000Y-118471200D01*
X72170000Y-123922500D02*
X74220000Y-123922500D01*
X105888500Y-116052000D02*
X106945800Y-117109200D01*
X106136800Y-90505700D02*
X106136800Y-94339300D01*
X104157500Y-125485000D02*
X104157500Y-127985000D01*
X87790265Y-120294735D02*
X88420000Y-120924470D01*
X107130400Y-116924600D02*
X109009600Y-116924600D01*
X70651300Y-125205700D02*
X70651300Y-126717400D01*
X104157500Y-128667500D02*
X104140000Y-128685000D01*
X88420000Y-120924470D02*
X88420000Y-121725000D01*
X70315000Y-122067500D02*
X72170000Y-123922500D01*
X105523800Y-124118700D02*
X105523800Y-123145900D01*
X72362500Y-128022500D02*
X73025000Y-128685000D01*
%TO.N,GND*%
X84420000Y-126205000D02*
X84420000Y-127097500D01*
X104462400Y-122880100D02*
X104929400Y-122880100D01*
X72390000Y-119820000D02*
X71755000Y-120455000D01*
X85232500Y-125912500D02*
X84712500Y-125912500D01*
X104929400Y-122880100D02*
X103838500Y-122880100D01*
X86593000Y-119110000D02*
X86468000Y-118985000D01*
X99445000Y-121920743D02*
X99445000Y-120897500D01*
X89622000Y-119235000D02*
X88170000Y-119235000D01*
X89420000Y-122188400D02*
X89420000Y-121725000D01*
X92639400Y-121725000D02*
X92874100Y-121490300D01*
X102870000Y-119258909D02*
X102870000Y-119185000D01*
X87545000Y-124662500D02*
X87420000Y-124537500D01*
X76005600Y-125747500D02*
X76118100Y-125635000D01*
X102870000Y-119185000D02*
X104140000Y-117915000D01*
X100207500Y-125485000D02*
X102082500Y-125485000D01*
X87420000Y-124537500D02*
X86045000Y-125912500D01*
X76794100Y-125635000D02*
X77470000Y-125635000D01*
X90347100Y-121797900D02*
X90347100Y-122312800D01*
X76118000Y-123745500D02*
X76118100Y-123745500D01*
X99445000Y-120897500D02*
X100207500Y-120135000D01*
%TO.N,Net-(J1-Pin_1)*%
X111070000Y-90485000D02*
X109918100Y-90485000D01*
%TO.N,+3.3V*%
X72170000Y-128022500D02*
X72362500Y-128022500D01*
X106117265Y-104652265D02*
X106117265Y-103587735D01*
X86920000Y-127600000D02*
X86920000Y-128610000D01*
X106117265Y-103587735D02*
X106220000Y-103485000D01*
X106136800Y-94339300D02*
X106220000Y-94422500D01*
X106945800Y-117109200D02*
X107130400Y-116924600D01*
X104157500Y-127985000D02*
X104157500Y-128667500D01*
X70315000Y-119785000D02*
X70315000Y-122067500D01*
X91107500Y-122912500D02*
X92072600Y-122912500D01*
X71934500Y-123922500D02*
X70651300Y-125205700D01*
X70370000Y-118471200D02*
X70370000Y-117485000D01*
X70370000Y-118471200D02*
X72923300Y-118471200D01*
X106220000Y-90422500D02*
X106136800Y-90505700D01*
X106220000Y-103485000D02*
X106220000Y-94422500D01*
X86920000Y-128610000D02*
X86995000Y-128685000D01*
X106070000Y-117985000D02*
X106945800Y-117109200D01*
X72170000Y-123922500D02*
X71934500Y-123922500D01*
X70315000Y-119785000D02*
X70370000Y-119730000D01*
%TO.N,Net-(U2-OSCIN)*%
X75565000Y-127440000D02*
X75252500Y-127440000D01*
X75252500Y-127440000D02*
X74870000Y-127822500D01*
X74982500Y-127935000D02*
X77470000Y-127935000D01*
X81501529Y-124265000D02*
X82771529Y-122995000D01*
X77001700Y-124265000D02*
X81501529Y-124265000D01*
X84778071Y-123912500D02*
X85232500Y-123912500D01*
X74870000Y-127822500D02*
X74982500Y-127935000D01*
X82771529Y-122995000D02*
X83860571Y-122995000D01*
X83860571Y-122995000D02*
X84778071Y-123912500D01*
X76835000Y-124098300D02*
X77001700Y-124265000D01*
%TO.N,/SENS_LED*%
X84470000Y-109675000D02*
X85090000Y-110295000D01*
X84470000Y-109185000D02*
X84470000Y-109675000D01*
%TO.N,Net-(J1-Pin_2)*%
X109918100Y-93025000D02*
X109440600Y-92547500D01*
X111070000Y-93025000D02*
X109918100Y-93025000D01*
X109440600Y-92547500D02*
X107170000Y-92547500D01*
%TO.N,Net-(R11-Pad2)*%
X82550000Y-107755000D02*
X82470000Y-107835000D01*
%TO.N,Net-(U2-I1)*%
X68695200Y-116213300D02*
X68370000Y-115888100D01*
X68370000Y-115888100D02*
X68370000Y-114985000D01*
X83995000Y-126319744D02*
X83995000Y-125657500D01*
X83820000Y-126805000D02*
X83820000Y-126494744D01*
X66370000Y-114985000D02*
X68370000Y-114985000D01*
X84240000Y-125412500D02*
X85232500Y-125412500D01*
X83995000Y-125657500D02*
X84240000Y-125412500D01*
%TO.N,/RSTPD_N*%
X106647000Y-121708000D02*
X108070000Y-120285000D01*
X104167200Y-121708000D02*
X106647000Y-121708000D01*
X108070000Y-120285000D02*
X110070000Y-120285000D01*
X91107500Y-123412500D02*
X91721500Y-123412500D01*
X104040400Y-121834800D02*
X104167200Y-121708000D01*
X92047200Y-123738200D02*
X93354700Y-123738200D01*
X91721500Y-123412500D02*
X92047200Y-123738200D01*
%TO.N,Net-(Q1-S)*%
X89528100Y-128765500D02*
X88920000Y-128157400D01*
X92222965Y-127598965D02*
X92222965Y-127679335D01*
X111262800Y-119190200D02*
X111262800Y-118792200D01*
X111262800Y-118792200D02*
X112070000Y-117985000D01*
X108146600Y-90395900D02*
X108120000Y-90422500D01*
X91136800Y-128765500D02*
X89528100Y-128765500D01*
X92222965Y-127679335D02*
X91136800Y-128765500D01*
X88920000Y-128157400D02*
X88920000Y-127600000D01*
%TO.N,Net-(U2-OSCOUT)*%
X82857500Y-125635000D02*
X80370000Y-125635000D01*
X84712385Y-124412500D02*
X83929885Y-123630000D01*
X85232500Y-124412500D02*
X84712385Y-124412500D01*
X83929885Y-123630000D02*
X83419999Y-123630000D01*
X82970000Y-125747500D02*
X82857500Y-125635000D01*
X82970000Y-124079999D02*
X82970000Y-125747500D01*
X83419999Y-123630000D02*
X82970000Y-124079999D01*
%TO.N,VCC*%
X92796100Y-122310600D02*
X94243700Y-123758200D01*
X104424400Y-119185000D02*
X104469700Y-119139700D01*
X103800000Y-83285000D02*
X104775000Y-84260000D01*
X105410000Y-120285000D02*
X104424400Y-119299400D01*
X102082500Y-121975300D02*
X101858300Y-121751100D01*
X93670000Y-109185000D02*
X95090000Y-109185000D01*
X107950000Y-105215000D02*
X107950000Y-98685000D01*
X99851200Y-123758200D02*
X101858300Y-121751100D01*
X109345000Y-95565000D02*
X111070000Y-95565000D01*
X91107500Y-122412500D02*
X91209400Y-122310600D01*
X102082500Y-123185000D02*
X102082500Y-121975300D01*
X95090000Y-109185000D02*
X95250000Y-109025000D01*
X95090000Y-109305000D02*
X95090000Y-109185000D01*
X104775000Y-87435000D02*
X104775000Y-87540000D01*
X91209400Y-122310600D02*
X92796100Y-122310600D01*
X94243700Y-123758200D02*
X99851200Y-123758200D01*
X105410000Y-95690000D02*
X105410000Y-96325000D01*
X108585000Y-96325000D02*
X109345000Y-95565000D01*
X104424400Y-119299400D02*
X104424400Y-119185000D01*
X107950000Y-98685000D02*
X111070000Y-95565000D01*
X104775000Y-87435000D02*
X104775000Y-95055000D01*
X102970000Y-83285000D02*
X103800000Y-83285000D01*
X104775000Y-95055000D02*
X105410000Y-95690000D01*
X104775000Y-84260000D02*
X104775000Y-87435000D01*
%TO.N,GND*%
X89872500Y-119471970D02*
X88894735Y-120449735D01*
X80370000Y-127935000D02*
X82857600Y-127935000D01*
X72390000Y-119785000D02*
X72390000Y-119820000D01*
X88170000Y-119235000D02*
X86718000Y-119235000D01*
X89872500Y-118985000D02*
X89872500Y-119471970D01*
X80370000Y-127935000D02*
X79018100Y-127935000D01*
X102082500Y-125485000D02*
X104157500Y-123410000D01*
X85284600Y-122464600D02*
X87420000Y-122464600D01*
X85232500Y-122412500D02*
X85284600Y-122464600D01*
X89704700Y-122463000D02*
X89694600Y-122463000D01*
X74220000Y-121847500D02*
X72170000Y-121847500D01*
X87420000Y-122464600D02*
X89143800Y-122464600D01*
X105681400Y-122128100D02*
X104929400Y-122880100D01*
X89694600Y-122463000D02*
X89420000Y-122188400D01*
X112070000Y-120285000D02*
X110226900Y-122128100D01*
X101993909Y-120135000D02*
X102870000Y-119258909D01*
X74220000Y-121847500D02*
X74220000Y-120135000D01*
X86045000Y-125912500D02*
X85232500Y-125912500D01*
X88170000Y-119185000D02*
X88170000Y-119235000D01*
X72740000Y-120135000D02*
X72390000Y-119785000D01*
X76794100Y-125635000D02*
X76118100Y-125635000D01*
X87420000Y-122464600D02*
X87420000Y-121725000D01*
X82857600Y-127935000D02*
X82857600Y-127934900D01*
X100207500Y-120135000D02*
X101993909Y-120135000D01*
X76118100Y-123745500D02*
X76118100Y-125635000D01*
X89872000Y-118985000D02*
X89747000Y-119110000D01*
X90420000Y-121725000D02*
X92639400Y-121725000D01*
X74870000Y-125747500D02*
X76005600Y-125747500D01*
X72370000Y-125747500D02*
X74870000Y-125747500D01*
X64770000Y-119185000D02*
X64135000Y-118550000D01*
X101093400Y-120135000D02*
X100207500Y-120135000D01*
X104157500Y-123185000D02*
X104462400Y-122880100D01*
X84712500Y-125912500D02*
X84420000Y-126205000D01*
%TO.N,Net-(C1-Pad1)*%
X83520000Y-118985000D02*
X83159000Y-118624000D01*
%TO.N,Net-(Q2-S)*%
X92181000Y-126792400D02*
X90609800Y-128363600D01*
X90609800Y-128363600D02*
X89730300Y-128363600D01*
X107315000Y-105449600D02*
X108432600Y-106567200D01*
X93102300Y-128017100D02*
X93102300Y-127186500D01*
X92708200Y-126792400D02*
X92181000Y-126792400D01*
X106349000Y-123961000D02*
X106349000Y-122753400D01*
X93102300Y-127186500D02*
X92708200Y-126792400D01*
X89420000Y-128053300D02*
X89420000Y-127600000D01*
X108070000Y-117985000D02*
X107148300Y-118906700D01*
X108432600Y-106567200D02*
X108490400Y-106567200D01*
%TO.N,Net-(J1-Pin_1)*%
X107980600Y-88547500D02*
X109918100Y-90485000D01*
%TO.N,Net-(D1-RK)*%
X104140000Y-100556471D02*
X104740000Y-101156471D01*
X97155000Y-84452879D02*
X98867121Y-86165000D01*
X102359622Y-86165000D02*
X104140000Y-87945378D01*
X97370000Y-83285000D02*
X97155000Y-83500000D01*
X104740000Y-108455000D02*
X106170000Y-109885000D01*
X97155000Y-83500000D02*
X97155000Y-84452879D01*
X104740000Y-101156471D02*
X104740000Y-108455000D01*
X98867121Y-86165000D02*
X102359622Y-86165000D01*
%TO.N,/LED_KR*%
X109790000Y-108265000D02*
X108170000Y-109885000D01*
X111070000Y-108265000D02*
X109790000Y-108265000D01*
%TO.N,Net-(C2-Pad2)*%
X91947500Y-118985000D02*
X91948000Y-118985000D01*
X94132500Y-120135000D02*
X94132000Y-120135000D01*
X93570000Y-118235000D02*
X93181000Y-118624000D01*
X92820000Y-118985000D02*
X93181000Y-118624000D01*
X93098000Y-120135000D02*
X91948000Y-118985000D01*
X94132000Y-120135000D02*
X93098000Y-120135000D01*
X91948000Y-118985000D02*
X92820000Y-118985000D01*
%TO.N,Net-(U2-RX)*%
X98935900Y-126713400D02*
X95398400Y-126713400D01*
X95398400Y-126713400D02*
X94170000Y-125485000D01*
X83820000Y-122360000D02*
X83820000Y-122278050D01*
X92253386Y-124900000D02*
X92838386Y-125485000D01*
X83820000Y-122278050D02*
X84373050Y-121725000D01*
X84373050Y-121725000D02*
X85920000Y-121725000D01*
X92838386Y-125485000D02*
X94170000Y-125485000D01*
X100207500Y-127985000D02*
X98935900Y-126713400D01*
%TO.N,Net-(C8-Pad1)*%
X98132500Y-127985000D02*
X96170000Y-127985000D01*
%TO.N,Net-(J1-Pin_1)*%
X107170000Y-88547500D02*
X107980600Y-88547500D01*
%TO.N,Net-(Q2-S)*%
X107315000Y-95227500D02*
X107315000Y-105449600D01*
X107148300Y-118906700D02*
X107148300Y-119190200D01*
X93070000Y-128049400D02*
X93102300Y-128017100D01*
X105410000Y-124900000D02*
X106349000Y-123961000D01*
X108120000Y-94422500D02*
X107315000Y-95227500D01*
X89730300Y-128363600D02*
X89420000Y-128053300D01*
X105410000Y-126170000D02*
X105410000Y-124900000D01*
%TO.N,/SENS_DET*%
X91440000Y-107755000D02*
X91440000Y-108955000D01*
X91440000Y-108955000D02*
X91670000Y-109185000D01*
%TO.N,Net-(U2-VMID)*%
X95106800Y-124376300D02*
X96170000Y-125439500D01*
X83018900Y-122360000D02*
X83018900Y-122089900D01*
X96170000Y-125439500D02*
X96170000Y-125485000D01*
X98132500Y-125485000D02*
X96170000Y-125485000D01*
X86420000Y-121214400D02*
X86420000Y-121725000D01*
X86166100Y-120960500D02*
X86420000Y-121214400D01*
X84148300Y-120960500D02*
X86166100Y-120960500D01*
X83018900Y-122089900D02*
X84148300Y-120960500D01*
%TO.N,Net-(U2-TX2)*%
X87920000Y-121273000D02*
X87920000Y-121725000D01*
%TO.N,Net-(R11-Pad2)*%
X82470000Y-107835000D02*
X82470000Y-109185000D01*
%TO.N,Net-(U2-TX2)*%
X131729000Y-72485000D02*
X133759000Y-70455000D01*
X131332000Y-72485000D02*
X131332500Y-72485000D01*
X133759000Y-70455000D02*
X137102000Y-70455000D01*
X131332500Y-72485000D02*
X131729000Y-72485000D01*
X137102000Y-70455000D02*
X137920000Y-71273000D01*
%TO.N,Net-(U2-TX1)*%
X145007500Y-72485000D02*
X144882000Y-72485000D01*
X145008000Y-72485000D02*
X145007500Y-72485000D01*
X142852000Y-70455000D02*
X139738000Y-70455000D01*
X139738000Y-70455000D02*
X138920000Y-71273000D01*
X138920000Y-71273000D02*
X138920000Y-71725000D01*
X144882000Y-72485000D02*
X142852000Y-70455000D01*
%TO.N,Net-(C4-Pad1)*%
X148332000Y-70335000D02*
X148132300Y-70135200D01*
X148332500Y-71723500D02*
X148332500Y-72485000D01*
X148332000Y-71723000D02*
X148332000Y-70335000D01*
X148132300Y-70135200D02*
X148132000Y-70135000D01*
X148332000Y-71723000D02*
X148332500Y-71723500D01*
X148132500Y-70135000D02*
X148132300Y-70135200D01*
%TO.N,GND*%
X139747000Y-69110000D02*
X139622000Y-69235000D01*
X124220000Y-70135000D02*
X122740000Y-70135000D01*
X139706300Y-72464600D02*
X139704700Y-72463000D01*
X124609100Y-70135000D02*
X126132500Y-70135000D01*
X136718000Y-69235000D02*
X136593000Y-69110000D01*
X140347100Y-72312800D02*
X140195300Y-72464600D01*
X154157500Y-73410000D02*
X154157500Y-73185000D01*
X139747500Y-69110000D02*
X139872500Y-68985000D01*
X132857600Y-77934900D02*
X132970000Y-77822500D01*
X136592500Y-69110000D02*
X136467500Y-68985000D01*
X124220000Y-71847500D02*
X126118000Y-73745500D01*
X153838500Y-72880100D02*
X151093400Y-70135000D01*
X139747000Y-69110000D02*
X139747500Y-69110000D01*
X114370000Y-67485000D02*
X114370000Y-64985000D01*
X122170000Y-75947500D02*
X122370000Y-75747500D01*
X114135000Y-68550000D02*
X114135000Y-67720000D01*
X139143800Y-72464600D02*
X139420000Y-72188400D01*
X154140000Y-67915000D02*
X154140000Y-51405000D01*
X136593000Y-69110000D02*
X136592500Y-69110000D01*
X133695000Y-77822500D02*
X132970000Y-77822500D01*
X152082500Y-77985000D02*
X152082500Y-75485000D01*
X138170000Y-74662500D02*
X137545000Y-74662500D01*
X140420000Y-71725000D02*
X140347100Y-71797900D01*
X128821900Y-77738800D02*
X129018100Y-77935000D01*
X134420000Y-77097500D02*
X133695000Y-77822500D01*
X127470000Y-75635000D02*
X128821900Y-75635000D01*
X114135000Y-67720000D02*
X114370000Y-67485000D01*
X137420000Y-74537500D02*
X137420000Y-72464600D01*
X160226900Y-72128100D02*
X155681400Y-72128100D01*
X126132500Y-70135000D02*
X124220000Y-70135000D01*
X128821900Y-75635000D02*
X128821900Y-77738800D01*
X140195300Y-72464600D02*
X139706300Y-72464600D01*
%TO.N,Net-(C4-Pad1)*%
X146207500Y-70135000D02*
X146208000Y-70135000D01*
X148132000Y-70135000D02*
X146208000Y-70135000D01*
X148332000Y-72485000D02*
X148332000Y-71723000D01*
%TO.N,Net-(C3-Pad1)*%
X128008000Y-72294500D02*
X128008000Y-71723000D01*
X128008000Y-71723000D02*
X128007500Y-71723500D01*
X128208000Y-70135000D02*
X130132000Y-70135000D01*
X128207600Y-70135000D02*
X128207800Y-70135200D01*
X130132500Y-70135000D02*
X130132000Y-70135000D01*
X128008000Y-72485000D02*
X128008000Y-72294500D01*
X143998700Y-77813700D02*
X143998700Y-76758500D01*
X128207500Y-70135000D02*
X128207600Y-70135000D01*
X144170000Y-77985000D02*
X143998700Y-77813700D01*
X128207800Y-70135200D02*
X128208000Y-70135000D01*
X128008000Y-70335000D02*
X128207800Y-70135200D01*
X130089765Y-72827635D02*
X129556630Y-72294500D01*
X129556630Y-72294500D02*
X128008000Y-72294500D01*
X128007500Y-71723500D02*
X128007500Y-72485000D01*
X128008000Y-71723000D02*
X128008000Y-70335000D01*
%TO.N,/LED_KB*%
X158170000Y-64105000D02*
X158930000Y-63345000D01*
%TO.N,/LED_KG*%
X159918100Y-60805000D02*
X158738100Y-61985000D01*
X158738100Y-61985000D02*
X158170000Y-61985000D01*
X161070000Y-60805000D02*
X159918100Y-60805000D01*
%TO.N,Net-(D1-BK)*%
X156170000Y-64105000D02*
X158117000Y-66052000D01*
X158117000Y-66052000D02*
X161227600Y-66052000D01*
X156045000Y-36766500D02*
X155410000Y-36131500D01*
X155410000Y-32355000D02*
X154740000Y-31685000D01*
X154740000Y-31685000D02*
X152970000Y-31685000D01*
X155410000Y-36131500D02*
X155410000Y-32355000D01*
%TO.N,Net-(D1-GK)*%
X153141000Y-30285000D02*
X148464243Y-30285000D01*
X156045000Y-56367900D02*
X155410000Y-55732900D01*
X148464243Y-30285000D02*
X147370000Y-31379243D01*
X155410000Y-48865000D02*
X155410000Y-55732900D01*
X154775000Y-59660000D02*
X154740000Y-59660000D01*
X154775000Y-60590000D02*
X154775000Y-59660000D01*
X156045000Y-57120000D02*
X156045000Y-56367900D01*
X147370000Y-31379243D02*
X147370000Y-31685000D01*
X156170000Y-61985000D02*
X154775000Y-60590000D01*
%TO.N,Net-(D1-RK)*%
X154140000Y-37945378D02*
X154140000Y-50556471D01*
%TO.N,Net-(C1-Pad1)*%
X132208000Y-70135000D02*
X133242000Y-70135000D01*
X132770000Y-68235000D02*
X133159000Y-68624000D01*
X134392500Y-68985000D02*
X134392000Y-68985000D01*
X134392000Y-68985000D02*
X133520000Y-68985000D01*
X132207500Y-70135000D02*
X132208000Y-70135000D01*
X133242000Y-70135000D02*
X134392000Y-68985000D01*
%TO.N,Net-(U2-I0)*%
X135232500Y-74912500D02*
X134363856Y-74912500D01*
X116370000Y-67485000D02*
X118370000Y-67485000D01*
X134363856Y-74912500D02*
X133850500Y-74399144D01*
X117310000Y-66010000D02*
X117310000Y-66425000D01*
X117310000Y-66425000D02*
X118370000Y-67485000D01*
%TO.N,Net-(U2-I1)*%
X133820000Y-76494744D02*
X133995000Y-76319744D01*
%TO.N,/LED_KB*%
X158930000Y-63345000D02*
X161070000Y-63345000D01*
%TO.N,+3.3V*%
X120651300Y-76717400D02*
X121956400Y-78022500D01*
X121956400Y-78022500D02*
X122170000Y-78022500D01*
X159009600Y-66924600D02*
X160070000Y-67985000D01*
X120370000Y-64985000D02*
X120370000Y-67485000D01*
X154157500Y-75485000D02*
X155523800Y-74118700D01*
%TO.N,Net-(Q1-S)*%
X142452900Y-77451000D02*
X142452900Y-77449400D01*
X158964300Y-40395900D02*
X158146600Y-40395900D01*
X142452900Y-77449400D02*
X142452900Y-77451000D01*
%TO.N,+3.3V*%
X120370000Y-69730000D02*
X120370000Y-68471200D01*
X122170000Y-73922500D02*
X124220000Y-73922500D01*
X155888500Y-66052000D02*
X156945800Y-67109200D01*
X156136800Y-40505700D02*
X156136800Y-44339300D01*
X154157500Y-75485000D02*
X154157500Y-77985000D01*
X137790265Y-70294735D02*
X138420000Y-70924470D01*
X157130400Y-66924600D02*
X159009600Y-66924600D01*
X120651300Y-75205700D02*
X120651300Y-76717400D01*
X154157500Y-78667500D02*
X154140000Y-78685000D01*
X138420000Y-70924470D02*
X138420000Y-71725000D01*
X120315000Y-72067500D02*
X122170000Y-73922500D01*
X155523800Y-74118700D02*
X155523800Y-73145900D01*
X122362500Y-78022500D02*
X123025000Y-78685000D01*
%TO.N,GND*%
X134420000Y-76205000D02*
X134420000Y-77097500D01*
X154462400Y-72880100D02*
X154929400Y-72880100D01*
X122390000Y-69820000D02*
X121755000Y-70455000D01*
X135232500Y-75912500D02*
X134712500Y-75912500D01*
X154929400Y-72880100D02*
X153838500Y-72880100D01*
X136593000Y-69110000D02*
X136468000Y-68985000D01*
X149445000Y-71920743D02*
X149445000Y-70897500D01*
X139622000Y-69235000D02*
X138170000Y-69235000D01*
X139420000Y-72188400D02*
X139420000Y-71725000D01*
X142639400Y-71725000D02*
X142874100Y-71490300D01*
X152870000Y-69258909D02*
X152870000Y-69185000D01*
X137545000Y-74662500D02*
X137420000Y-74537500D01*
X126005600Y-75747500D02*
X126118100Y-75635000D01*
X152870000Y-69185000D02*
X154140000Y-67915000D01*
X150207500Y-75485000D02*
X152082500Y-75485000D01*
X137420000Y-74537500D02*
X136045000Y-75912500D01*
X126794100Y-75635000D02*
X127470000Y-75635000D01*
X140347100Y-71797900D02*
X140347100Y-72312800D01*
X126118000Y-73745500D02*
X126118100Y-73745500D01*
X149445000Y-70897500D02*
X150207500Y-70135000D01*
%TO.N,Net-(J1-Pin_1)*%
X161070000Y-40485000D02*
X159918100Y-40485000D01*
%TO.N,+3.3V*%
X122170000Y-78022500D02*
X122362500Y-78022500D01*
X156117265Y-54652265D02*
X156117265Y-53587735D01*
X136920000Y-77600000D02*
X136920000Y-78610000D01*
X156117265Y-53587735D02*
X156220000Y-53485000D01*
X156136800Y-44339300D02*
X156220000Y-44422500D01*
X156945800Y-67109200D02*
X157130400Y-66924600D01*
X154157500Y-77985000D02*
X154157500Y-78667500D01*
X120315000Y-69785000D02*
X120315000Y-72067500D01*
X141107500Y-72912500D02*
X142072600Y-72912500D01*
X121934500Y-73922500D02*
X120651300Y-75205700D01*
X120370000Y-68471200D02*
X120370000Y-67485000D01*
X120370000Y-68471200D02*
X122923300Y-68471200D01*
X156220000Y-40422500D02*
X156136800Y-40505700D01*
X156220000Y-53485000D02*
X156220000Y-44422500D01*
X136920000Y-78610000D02*
X136995000Y-78685000D01*
X156070000Y-67985000D02*
X156945800Y-67109200D01*
X122170000Y-73922500D02*
X121934500Y-73922500D01*
X120315000Y-69785000D02*
X120370000Y-69730000D01*
%TO.N,Net-(U2-OSCIN)*%
X125565000Y-77440000D02*
X125252500Y-77440000D01*
X125252500Y-77440000D02*
X124870000Y-77822500D01*
X124982500Y-77935000D02*
X127470000Y-77935000D01*
X131501529Y-74265000D02*
X132771529Y-72995000D01*
X127001700Y-74265000D02*
X131501529Y-74265000D01*
X134778071Y-73912500D02*
X135232500Y-73912500D01*
X124870000Y-77822500D02*
X124982500Y-77935000D01*
X132771529Y-72995000D02*
X133860571Y-72995000D01*
X133860571Y-72995000D02*
X134778071Y-73912500D01*
X126835000Y-74098300D02*
X127001700Y-74265000D01*
%TO.N,/SENS_LED*%
X134470000Y-59675000D02*
X135090000Y-60295000D01*
X134470000Y-59185000D02*
X134470000Y-59675000D01*
%TO.N,Net-(J1-Pin_2)*%
X159918100Y-43025000D02*
X159440600Y-42547500D01*
X161070000Y-43025000D02*
X159918100Y-43025000D01*
X159440600Y-42547500D02*
X157170000Y-42547500D01*
%TO.N,Net-(R11-Pad2)*%
X132550000Y-57755000D02*
X132470000Y-57835000D01*
%TO.N,Net-(U2-I1)*%
X118695200Y-66213300D02*
X118370000Y-65888100D01*
X118370000Y-65888100D02*
X118370000Y-64985000D01*
X133995000Y-76319744D02*
X133995000Y-75657500D01*
X133820000Y-76805000D02*
X133820000Y-76494744D01*
X116370000Y-64985000D02*
X118370000Y-64985000D01*
X134240000Y-75412500D02*
X135232500Y-75412500D01*
X133995000Y-75657500D02*
X134240000Y-75412500D01*
%TO.N,/RSTPD_N*%
X156647000Y-71708000D02*
X158070000Y-70285000D01*
X154167200Y-71708000D02*
X156647000Y-71708000D01*
X158070000Y-70285000D02*
X160070000Y-70285000D01*
X141107500Y-73412500D02*
X141721500Y-73412500D01*
X154040400Y-71834800D02*
X154167200Y-71708000D01*
X142047200Y-73738200D02*
X143354700Y-73738200D01*
X141721500Y-73412500D02*
X142047200Y-73738200D01*
%TO.N,Net-(Q1-S)*%
X139528100Y-78765500D02*
X138920000Y-78157400D01*
X142222965Y-77598965D02*
X142222965Y-77679335D01*
X161262800Y-69190200D02*
X161262800Y-68792200D01*
X161262800Y-68792200D02*
X162070000Y-67985000D01*
X158146600Y-40395900D02*
X158120000Y-40422500D01*
X141136800Y-78765500D02*
X139528100Y-78765500D01*
X142222965Y-77679335D02*
X141136800Y-78765500D01*
X138920000Y-78157400D02*
X138920000Y-77600000D01*
%TO.N,Net-(U2-OSCOUT)*%
X132857500Y-75635000D02*
X130370000Y-75635000D01*
X134712385Y-74412500D02*
X133929885Y-73630000D01*
X135232500Y-74412500D02*
X134712385Y-74412500D01*
X133929885Y-73630000D02*
X133419999Y-73630000D01*
X132970000Y-75747500D02*
X132857500Y-75635000D01*
X132970000Y-74079999D02*
X132970000Y-75747500D01*
X133419999Y-73630000D02*
X132970000Y-74079999D01*
%TO.N,VCC*%
X142796100Y-72310600D02*
X144243700Y-73758200D01*
X154424400Y-69185000D02*
X154469700Y-69139700D01*
X153800000Y-33285000D02*
X154775000Y-34260000D01*
X155410000Y-70285000D02*
X154424400Y-69299400D01*
X152082500Y-71975300D02*
X151858300Y-71751100D01*
X143670000Y-59185000D02*
X145090000Y-59185000D01*
X157950000Y-55215000D02*
X157950000Y-48685000D01*
X149851200Y-73758200D02*
X151858300Y-71751100D01*
X159345000Y-45565000D02*
X161070000Y-45565000D01*
X141107500Y-72412500D02*
X141209400Y-72310600D01*
X152082500Y-73185000D02*
X152082500Y-71975300D01*
X145090000Y-59185000D02*
X145250000Y-59025000D01*
X145090000Y-59305000D02*
X145090000Y-59185000D01*
X154775000Y-37435000D02*
X154775000Y-37540000D01*
X141209400Y-72310600D02*
X142796100Y-72310600D01*
X144243700Y-73758200D02*
X149851200Y-73758200D01*
X155410000Y-45690000D02*
X155410000Y-46325000D01*
X158585000Y-46325000D02*
X159345000Y-45565000D01*
X154424400Y-69299400D02*
X154424400Y-69185000D01*
X157950000Y-48685000D02*
X161070000Y-45565000D01*
X154775000Y-37435000D02*
X154775000Y-45055000D01*
X152970000Y-33285000D02*
X153800000Y-33285000D01*
X154775000Y-45055000D02*
X155410000Y-45690000D01*
X154775000Y-34260000D02*
X154775000Y-37435000D01*
%TO.N,GND*%
X139872500Y-69471970D02*
X138894735Y-70449735D01*
X130370000Y-77935000D02*
X132857600Y-77935000D01*
X122390000Y-69785000D02*
X122390000Y-69820000D01*
X138170000Y-69235000D02*
X136718000Y-69235000D01*
X139872500Y-68985000D02*
X139872500Y-69471970D01*
X130370000Y-77935000D02*
X129018100Y-77935000D01*
X152082500Y-75485000D02*
X154157500Y-73410000D01*
X135284600Y-72464600D02*
X137420000Y-72464600D01*
X135232500Y-72412500D02*
X135284600Y-72464600D01*
X139704700Y-72463000D02*
X139694600Y-72463000D01*
X124220000Y-71847500D02*
X122170000Y-71847500D01*
X137420000Y-72464600D02*
X139143800Y-72464600D01*
X155681400Y-72128100D02*
X154929400Y-72880100D01*
X139694600Y-72463000D02*
X139420000Y-72188400D01*
X162070000Y-70285000D02*
X160226900Y-72128100D01*
X151993909Y-70135000D02*
X152870000Y-69258909D01*
X124220000Y-71847500D02*
X124220000Y-70135000D01*
X136045000Y-75912500D02*
X135232500Y-75912500D01*
X138170000Y-69185000D02*
X138170000Y-69235000D01*
X122740000Y-70135000D02*
X122390000Y-69785000D01*
X126794100Y-75635000D02*
X126118100Y-75635000D01*
X137420000Y-72464600D02*
X137420000Y-71725000D01*
X132857600Y-77935000D02*
X132857600Y-77934900D01*
X150207500Y-70135000D02*
X151993909Y-70135000D01*
X126118100Y-73745500D02*
X126118100Y-75635000D01*
X139872000Y-68985000D02*
X139747000Y-69110000D01*
X140420000Y-71725000D02*
X142639400Y-71725000D01*
X124870000Y-75747500D02*
X126005600Y-75747500D01*
X122370000Y-75747500D02*
X124870000Y-75747500D01*
X114770000Y-69185000D02*
X114135000Y-68550000D01*
X151093400Y-70135000D02*
X150207500Y-70135000D01*
X154157500Y-73185000D02*
X154462400Y-72880100D01*
X134712500Y-75912500D02*
X134420000Y-76205000D01*
%TO.N,Net-(C1-Pad1)*%
X133520000Y-68985000D02*
X133159000Y-68624000D01*
%TO.N,Net-(Q2-S)*%
X142181000Y-76792400D02*
X140609800Y-78363600D01*
X140609800Y-78363600D02*
X139730300Y-78363600D01*
X157315000Y-55449600D02*
X158432600Y-56567200D01*
X143102300Y-78017100D02*
X143102300Y-77186500D01*
X142708200Y-76792400D02*
X142181000Y-76792400D01*
X156349000Y-73961000D02*
X156349000Y-72753400D01*
X143102300Y-77186500D02*
X142708200Y-76792400D01*
X139420000Y-78053300D02*
X139420000Y-77600000D01*
X158070000Y-67985000D02*
X157148300Y-68906700D01*
X158432600Y-56567200D02*
X158490400Y-56567200D01*
%TO.N,Net-(J1-Pin_1)*%
X157980600Y-38547500D02*
X159918100Y-40485000D01*
%TO.N,Net-(D1-RK)*%
X154140000Y-50556471D02*
X154740000Y-51156471D01*
X147155000Y-34452879D02*
X148867121Y-36165000D01*
X152359622Y-36165000D02*
X154140000Y-37945378D01*
X147370000Y-33285000D02*
X147155000Y-33500000D01*
X154740000Y-58455000D02*
X156170000Y-59885000D01*
X147155000Y-33500000D02*
X147155000Y-34452879D01*
X154740000Y-51156471D02*
X154740000Y-58455000D01*
X148867121Y-36165000D02*
X152359622Y-36165000D01*
%TO.N,/LED_KR*%
X159790000Y-58265000D02*
X158170000Y-59885000D01*
X161070000Y-58265000D02*
X159790000Y-58265000D01*
%TO.N,Net-(C2-Pad2)*%
X141947500Y-68985000D02*
X141948000Y-68985000D01*
X144132500Y-70135000D02*
X144132000Y-70135000D01*
X143570000Y-68235000D02*
X143181000Y-68624000D01*
X142820000Y-68985000D02*
X143181000Y-68624000D01*
X143098000Y-70135000D02*
X141948000Y-68985000D01*
X144132000Y-70135000D02*
X143098000Y-70135000D01*
X141948000Y-68985000D02*
X142820000Y-68985000D01*
%TO.N,Net-(U2-RX)*%
X148935900Y-76713400D02*
X145398400Y-76713400D01*
X145398400Y-76713400D02*
X144170000Y-75485000D01*
X133820000Y-72360000D02*
X133820000Y-72278050D01*
X142253386Y-74900000D02*
X142838386Y-75485000D01*
X133820000Y-72278050D02*
X134373050Y-71725000D01*
X134373050Y-71725000D02*
X135920000Y-71725000D01*
X142838386Y-75485000D02*
X144170000Y-75485000D01*
X150207500Y-77985000D02*
X148935900Y-76713400D01*
%TO.N,Net-(C8-Pad1)*%
X148132500Y-77985000D02*
X146170000Y-77985000D01*
%TO.N,Net-(J1-Pin_1)*%
X157170000Y-38547500D02*
X157980600Y-38547500D01*
%TO.N,Net-(Q2-S)*%
X157315000Y-45227500D02*
X157315000Y-55449600D01*
X157148300Y-68906700D02*
X157148300Y-69190200D01*
X143070000Y-78049400D02*
X143102300Y-78017100D01*
X155410000Y-74900000D02*
X156349000Y-73961000D01*
X158120000Y-44422500D02*
X157315000Y-45227500D01*
X139730300Y-78363600D02*
X139420000Y-78053300D01*
X155410000Y-76170000D02*
X155410000Y-74900000D01*
%TO.N,/SENS_DET*%
X141440000Y-57755000D02*
X141440000Y-58955000D01*
X141440000Y-58955000D02*
X141670000Y-59185000D01*
%TO.N,Net-(U2-VMID)*%
X145106800Y-74376300D02*
X146170000Y-75439500D01*
X133018900Y-72360000D02*
X133018900Y-72089900D01*
X146170000Y-75439500D02*
X146170000Y-75485000D01*
X148132500Y-75485000D02*
X146170000Y-75485000D01*
X136420000Y-71214400D02*
X136420000Y-71725000D01*
X136166100Y-70960500D02*
X136420000Y-71214400D01*
X134148300Y-70960500D02*
X136166100Y-70960500D01*
X133018900Y-72089900D02*
X134148300Y-70960500D01*
%TO.N,Net-(U2-TX2)*%
X137920000Y-71273000D02*
X137920000Y-71725000D01*
%TO.N,Net-(R11-Pad2)*%
X132470000Y-57835000D02*
X132470000Y-59185000D01*
%TO.N,Net-(J1-Pin_1)*%
X107980600Y-38547500D02*
X109918100Y-40485000D01*
X107170000Y-38547500D02*
X107980600Y-38547500D01*
X111070000Y-40485000D02*
X109918100Y-40485000D01*
%TO.N,Net-(R11-Pad2)*%
X82470000Y-57835000D02*
X82470000Y-59185000D01*
X82550000Y-57755000D02*
X82470000Y-57835000D01*
%TO.N,Net-(J1-Pin_2)*%
X109440600Y-42547500D02*
X107170000Y-42547500D01*
X111070000Y-43025000D02*
X109918100Y-43025000D01*
X109918100Y-43025000D02*
X109440600Y-42547500D01*
%TO.N,/SENS_LED*%
X84470000Y-59185000D02*
X84470000Y-59675000D01*
X84470000Y-59675000D02*
X85090000Y-60295000D01*
%TO.N,+3.3V*%
X72362500Y-78022500D02*
X73025000Y-78685000D01*
X105523800Y-74118700D02*
X105523800Y-73145900D01*
X70315000Y-72067500D02*
X72170000Y-73922500D01*
X88420000Y-70924470D02*
X88420000Y-71725000D01*
X104157500Y-78667500D02*
X104140000Y-78685000D01*
X70651300Y-75205700D02*
X70651300Y-76717400D01*
X107130400Y-66924600D02*
X109009600Y-66924600D01*
X87790265Y-70294735D02*
X88420000Y-70924470D01*
X104157500Y-75485000D02*
X104157500Y-77985000D01*
X106136800Y-40505700D02*
X106136800Y-44339300D01*
X105888500Y-66052000D02*
X106945800Y-67109200D01*
X72170000Y-73922500D02*
X74220000Y-73922500D01*
X70370000Y-69730000D02*
X70370000Y-68471200D01*
X104157500Y-75485000D02*
X105523800Y-74118700D01*
X70370000Y-64985000D02*
X70370000Y-67485000D01*
X109009600Y-66924600D02*
X110070000Y-67985000D01*
X71956400Y-78022500D02*
X72170000Y-78022500D01*
X70651300Y-76717400D02*
X71956400Y-78022500D01*
X70315000Y-69785000D02*
X70370000Y-69730000D01*
X72170000Y-73922500D02*
X71934500Y-73922500D01*
X106070000Y-67985000D02*
X106945800Y-67109200D01*
X86920000Y-78610000D02*
X86995000Y-78685000D01*
X106220000Y-53485000D02*
X106220000Y-44422500D01*
X106220000Y-40422500D02*
X106136800Y-40505700D01*
X70370000Y-68471200D02*
X72923300Y-68471200D01*
X70370000Y-68471200D02*
X70370000Y-67485000D01*
X71934500Y-73922500D02*
X70651300Y-75205700D01*
X91107500Y-72912500D02*
X92072600Y-72912500D01*
X70315000Y-69785000D02*
X70315000Y-72067500D01*
X104157500Y-77985000D02*
X104157500Y-78667500D01*
X106945800Y-67109200D02*
X107130400Y-66924600D01*
X106136800Y-44339300D02*
X106220000Y-44422500D01*
X106117265Y-53587735D02*
X106220000Y-53485000D01*
X86920000Y-77600000D02*
X86920000Y-78610000D01*
X106117265Y-54652265D02*
X106117265Y-53587735D01*
X72170000Y-78022500D02*
X72362500Y-78022500D01*
%TO.N,VCC*%
X104775000Y-34260000D02*
X104775000Y-37435000D01*
X104775000Y-45055000D02*
X105410000Y-45690000D01*
X102970000Y-33285000D02*
X103800000Y-33285000D01*
X104775000Y-37435000D02*
X104775000Y-45055000D01*
X107950000Y-48685000D02*
X111070000Y-45565000D01*
X104424400Y-69299400D02*
X104424400Y-69185000D01*
X108585000Y-46325000D02*
X109345000Y-45565000D01*
X105410000Y-45690000D02*
X105410000Y-46325000D01*
X94243700Y-73758200D02*
X99851200Y-73758200D01*
X91209400Y-72310600D02*
X92796100Y-72310600D01*
X104775000Y-37435000D02*
X104775000Y-37540000D01*
X95090000Y-59305000D02*
X95090000Y-59185000D01*
X95090000Y-59185000D02*
X95250000Y-59025000D01*
X102082500Y-73185000D02*
X102082500Y-71975300D01*
X91107500Y-72412500D02*
X91209400Y-72310600D01*
X109345000Y-45565000D02*
X111070000Y-45565000D01*
X99851200Y-73758200D02*
X101858300Y-71751100D01*
X107950000Y-55215000D02*
X107950000Y-48685000D01*
X93670000Y-59185000D02*
X95090000Y-59185000D01*
X102082500Y-71975300D02*
X101858300Y-71751100D01*
X105410000Y-70285000D02*
X104424400Y-69299400D01*
X103800000Y-33285000D02*
X104775000Y-34260000D01*
X104424400Y-69185000D02*
X104469700Y-69139700D01*
X92796100Y-72310600D02*
X94243700Y-73758200D01*
%TO.N,Net-(U2-OSCIN)*%
X76835000Y-74098300D02*
X77001700Y-74265000D01*
X83860571Y-72995000D02*
X84778071Y-73912500D01*
X82771529Y-72995000D02*
X83860571Y-72995000D01*
X74870000Y-77822500D02*
X74982500Y-77935000D01*
X84778071Y-73912500D02*
X85232500Y-73912500D01*
X77001700Y-74265000D02*
X81501529Y-74265000D01*
X81501529Y-74265000D02*
X82771529Y-72995000D01*
X74982500Y-77935000D02*
X77470000Y-77935000D01*
X75252500Y-77440000D02*
X74870000Y-77822500D01*
X75565000Y-77440000D02*
X75252500Y-77440000D01*
%TO.N,Net-(U2-OSCOUT)*%
X83419999Y-73630000D02*
X82970000Y-74079999D01*
X82970000Y-74079999D02*
X82970000Y-75747500D01*
X82970000Y-75747500D02*
X82857500Y-75635000D01*
X83929885Y-73630000D02*
X83419999Y-73630000D01*
X85232500Y-74412500D02*
X84712385Y-74412500D01*
X84712385Y-74412500D02*
X83929885Y-73630000D01*
X82857500Y-75635000D02*
X80370000Y-75635000D01*
%TO.N,Net-(Q1-S)*%
X88920000Y-78157400D02*
X88920000Y-77600000D01*
X92222965Y-77679335D02*
X91136800Y-78765500D01*
X91136800Y-78765500D02*
X89528100Y-78765500D01*
X108146600Y-40395900D02*
X108120000Y-40422500D01*
X111262800Y-68792200D02*
X112070000Y-67985000D01*
X111262800Y-69190200D02*
X111262800Y-68792200D01*
X92222965Y-77598965D02*
X92222965Y-77679335D01*
X89528100Y-78765500D02*
X88920000Y-78157400D01*
X92452900Y-77449400D02*
X92452900Y-77451000D01*
X108964300Y-40395900D02*
X108146600Y-40395900D01*
X92452900Y-77451000D02*
X92452900Y-77449400D01*
%TO.N,/SENS_DET*%
X91440000Y-58955000D02*
X91670000Y-59185000D01*
X91440000Y-57755000D02*
X91440000Y-58955000D01*
%TO.N,Net-(Q2-S)*%
X105410000Y-76170000D02*
X105410000Y-74900000D01*
X89730300Y-78363600D02*
X89420000Y-78053300D01*
X108120000Y-44422500D02*
X107315000Y-45227500D01*
X105410000Y-74900000D02*
X106349000Y-73961000D01*
X93070000Y-78049400D02*
X93102300Y-78017100D01*
X107148300Y-68906700D02*
X107148300Y-69190200D01*
X107315000Y-45227500D02*
X107315000Y-55449600D01*
X108432600Y-56567200D02*
X108490400Y-56567200D01*
X108070000Y-67985000D02*
X107148300Y-68906700D01*
X89420000Y-78053300D02*
X89420000Y-77600000D01*
X93102300Y-77186500D02*
X92708200Y-76792400D01*
X106349000Y-73961000D02*
X106349000Y-72753400D01*
X92708200Y-76792400D02*
X92181000Y-76792400D01*
X93102300Y-78017100D02*
X93102300Y-77186500D01*
X107315000Y-55449600D02*
X108432600Y-56567200D01*
X90609800Y-78363600D02*
X89730300Y-78363600D01*
X92181000Y-76792400D02*
X90609800Y-78363600D01*
%TO.N,/RSTPD_N*%
X91721500Y-73412500D02*
X92047200Y-73738200D01*
X92047200Y-73738200D02*
X93354700Y-73738200D01*
X104040400Y-71834800D02*
X104167200Y-71708000D01*
X91107500Y-73412500D02*
X91721500Y-73412500D01*
X108070000Y-70285000D02*
X110070000Y-70285000D01*
X104167200Y-71708000D02*
X106647000Y-71708000D01*
X106647000Y-71708000D02*
X108070000Y-70285000D01*
%TO.N,Net-(U2-I1)*%
X83995000Y-75657500D02*
X84240000Y-75412500D01*
X84240000Y-75412500D02*
X85232500Y-75412500D01*
X66370000Y-64985000D02*
X68370000Y-64985000D01*
X83820000Y-76805000D02*
X83820000Y-76494744D01*
X83995000Y-76319744D02*
X83995000Y-75657500D01*
X68370000Y-65888100D02*
X68370000Y-64985000D01*
X68695200Y-66213300D02*
X68370000Y-65888100D01*
X83820000Y-76494744D02*
X83995000Y-76319744D01*
%TO.N,Net-(U2-I0)*%
X67310000Y-66425000D02*
X68370000Y-67485000D01*
X67310000Y-66010000D02*
X67310000Y-66425000D01*
X84363856Y-74912500D02*
X83850500Y-74399144D01*
X66370000Y-67485000D02*
X68370000Y-67485000D01*
X85232500Y-74912500D02*
X84363856Y-74912500D01*
%TO.N,Net-(C1-Pad1)*%
X83242000Y-70135000D02*
X84392000Y-68985000D01*
X82207500Y-70135000D02*
X82208000Y-70135000D01*
X84392000Y-68985000D02*
X83520000Y-68985000D01*
X84392500Y-68985000D02*
X84392000Y-68985000D01*
X82770000Y-68235000D02*
X83159000Y-68624000D01*
X82208000Y-70135000D02*
X83242000Y-70135000D01*
X83520000Y-68985000D02*
X83159000Y-68624000D01*
%TO.N,GND*%
X84712500Y-75912500D02*
X84420000Y-76205000D01*
X104157500Y-73185000D02*
X104462400Y-72880100D01*
X101093400Y-70135000D02*
X100207500Y-70135000D01*
X64770000Y-69185000D02*
X64135000Y-68550000D01*
X72370000Y-75747500D02*
X74870000Y-75747500D01*
X74870000Y-75747500D02*
X76005600Y-75747500D01*
X90420000Y-71725000D02*
X92639400Y-71725000D01*
X89872000Y-68985000D02*
X89747000Y-69110000D01*
X76118100Y-73745500D02*
X76118100Y-75635000D01*
X100207500Y-70135000D02*
X101993909Y-70135000D01*
X82857600Y-77935000D02*
X82857600Y-77934900D01*
X87420000Y-72464600D02*
X87420000Y-71725000D01*
X76794100Y-75635000D02*
X76118100Y-75635000D01*
X72740000Y-70135000D02*
X72390000Y-69785000D01*
X88170000Y-69185000D02*
X88170000Y-69235000D01*
X86045000Y-75912500D02*
X85232500Y-75912500D01*
X74220000Y-71847500D02*
X74220000Y-70135000D01*
X101993909Y-70135000D02*
X102870000Y-69258909D01*
X112070000Y-70285000D02*
X110226900Y-72128100D01*
X89694600Y-72463000D02*
X89420000Y-72188400D01*
X105681400Y-72128100D02*
X104929400Y-72880100D01*
X87420000Y-72464600D02*
X89143800Y-72464600D01*
X74220000Y-71847500D02*
X72170000Y-71847500D01*
X89704700Y-72463000D02*
X89694600Y-72463000D01*
X85232500Y-72412500D02*
X85284600Y-72464600D01*
X85284600Y-72464600D02*
X87420000Y-72464600D01*
X102082500Y-75485000D02*
X104157500Y-73410000D01*
X80370000Y-77935000D02*
X79018100Y-77935000D01*
X89872500Y-68985000D02*
X89872500Y-69471970D01*
X88170000Y-69235000D02*
X86718000Y-69235000D01*
X72390000Y-69785000D02*
X72390000Y-69820000D01*
X80370000Y-77935000D02*
X82857600Y-77935000D01*
X89872500Y-69471970D02*
X88894735Y-70449735D01*
X90195300Y-72464600D02*
X89706300Y-72464600D01*
X78821900Y-75635000D02*
X78821900Y-77738800D01*
X76132500Y-70135000D02*
X74220000Y-70135000D01*
X110226900Y-72128100D02*
X105681400Y-72128100D01*
X87420000Y-74537500D02*
X87420000Y-72464600D01*
X64135000Y-67720000D02*
X64370000Y-67485000D01*
X77470000Y-75635000D02*
X78821900Y-75635000D01*
X84420000Y-77097500D02*
X83695000Y-77822500D01*
X78821900Y-77738800D02*
X79018100Y-77935000D01*
X90420000Y-71725000D02*
X90347100Y-71797900D01*
X88170000Y-74662500D02*
X87545000Y-74662500D01*
X102082500Y-77985000D02*
X102082500Y-75485000D01*
X83695000Y-77822500D02*
X82970000Y-77822500D01*
X86593000Y-69110000D02*
X86592500Y-69110000D01*
X104140000Y-67915000D02*
X104140000Y-51405000D01*
X89143800Y-72464600D02*
X89420000Y-72188400D01*
X64135000Y-68550000D02*
X64135000Y-67720000D01*
X72170000Y-75947500D02*
X72370000Y-75747500D01*
X64370000Y-67485000D02*
X64370000Y-64985000D01*
X89747000Y-69110000D02*
X89747500Y-69110000D01*
X103838500Y-72880100D02*
X101093400Y-70135000D01*
X74220000Y-71847500D02*
X76118000Y-73745500D01*
X86592500Y-69110000D02*
X86467500Y-68985000D01*
X82857600Y-77934900D02*
X82970000Y-77822500D01*
X89747500Y-69110000D02*
X89872500Y-68985000D01*
X104157500Y-73410000D02*
X104157500Y-73185000D01*
X90347100Y-72312800D02*
X90195300Y-72464600D01*
X86718000Y-69235000D02*
X86593000Y-69110000D01*
X74609100Y-70135000D02*
X76132500Y-70135000D01*
X89706300Y-72464600D02*
X89704700Y-72463000D01*
X74220000Y-70135000D02*
X72740000Y-70135000D01*
X89747000Y-69110000D02*
X89622000Y-69235000D01*
X99445000Y-70897500D02*
X100207500Y-70135000D01*
X76118000Y-73745500D02*
X76118100Y-73745500D01*
X90347100Y-71797900D02*
X90347100Y-72312800D01*
X76794100Y-75635000D02*
X77470000Y-75635000D01*
X87420000Y-74537500D02*
X86045000Y-75912500D01*
X100207500Y-75485000D02*
X102082500Y-75485000D01*
X102870000Y-69185000D02*
X104140000Y-67915000D01*
X76005600Y-75747500D02*
X76118100Y-75635000D01*
X87545000Y-74662500D02*
X87420000Y-74537500D01*
X102870000Y-69258909D02*
X102870000Y-69185000D01*
X92639400Y-71725000D02*
X92874100Y-71490300D01*
X89420000Y-72188400D02*
X89420000Y-71725000D01*
X89622000Y-69235000D02*
X88170000Y-69235000D01*
X99445000Y-71920743D02*
X99445000Y-70897500D01*
X86593000Y-69110000D02*
X86468000Y-68985000D01*
X104929400Y-72880100D02*
X103838500Y-72880100D01*
X85232500Y-75912500D02*
X84712500Y-75912500D01*
X72390000Y-69820000D02*
X71755000Y-70455000D01*
X104462400Y-72880100D02*
X104929400Y-72880100D01*
X84420000Y-76205000D02*
X84420000Y-77097500D01*
%TO.N,Net-(C3-Pad1)*%
X78008000Y-71723000D02*
X78008000Y-70335000D01*
X78007500Y-71723500D02*
X78007500Y-72485000D01*
X79556630Y-72294500D02*
X78008000Y-72294500D01*
X80089765Y-72827635D02*
X79556630Y-72294500D01*
X78008000Y-70335000D02*
X78207800Y-70135200D01*
X78207800Y-70135200D02*
X78208000Y-70135000D01*
X94170000Y-77985000D02*
X93998700Y-77813700D01*
X78207500Y-70135000D02*
X78207600Y-70135000D01*
X93998700Y-77813700D02*
X93998700Y-76758500D01*
X78008000Y-72485000D02*
X78008000Y-72294500D01*
X80132500Y-70135000D02*
X80132000Y-70135000D01*
X78207600Y-70135000D02*
X78207800Y-70135200D01*
X78208000Y-70135000D02*
X80132000Y-70135000D01*
X78008000Y-71723000D02*
X78007500Y-71723500D01*
X78008000Y-72294500D02*
X78008000Y-71723000D01*
%TO.N,Net-(C4-Pad1)*%
X98332000Y-72485000D02*
X98332000Y-71723000D01*
X98132000Y-70135000D02*
X96208000Y-70135000D01*
X96207500Y-70135000D02*
X96208000Y-70135000D01*
X98132500Y-70135000D02*
X98132300Y-70135200D01*
X98332000Y-71723000D02*
X98332500Y-71723500D01*
X98132300Y-70135200D02*
X98132000Y-70135000D01*
X98332000Y-71723000D02*
X98332000Y-70335000D01*
X98332500Y-71723500D02*
X98332500Y-72485000D01*
X98332000Y-70335000D02*
X98132300Y-70135200D01*
%TO.N,Net-(U2-TX1)*%
X94882000Y-72485000D02*
X92852000Y-70455000D01*
X88920000Y-71273000D02*
X88920000Y-71725000D01*
X89738000Y-70455000D02*
X88920000Y-71273000D01*
X92852000Y-70455000D02*
X89738000Y-70455000D01*
X95008000Y-72485000D02*
X95007500Y-72485000D01*
X95007500Y-72485000D02*
X94882000Y-72485000D01*
%TO.N,Net-(U2-TX2)*%
X87102000Y-70455000D02*
X87920000Y-71273000D01*
X81332500Y-72485000D02*
X81729000Y-72485000D01*
X83759000Y-70455000D02*
X87102000Y-70455000D01*
X81332000Y-72485000D02*
X81332500Y-72485000D01*
X81729000Y-72485000D02*
X83759000Y-70455000D01*
X87920000Y-71273000D02*
X87920000Y-71725000D01*
%TO.N,Net-(U2-VMID)*%
X83018900Y-72089900D02*
X84148300Y-70960500D01*
X84148300Y-70960500D02*
X86166100Y-70960500D01*
X86166100Y-70960500D02*
X86420000Y-71214400D01*
X86420000Y-71214400D02*
X86420000Y-71725000D01*
X98132500Y-75485000D02*
X96170000Y-75485000D01*
X96170000Y-75439500D02*
X96170000Y-75485000D01*
X83018900Y-72360000D02*
X83018900Y-72089900D01*
X95106800Y-74376300D02*
X96170000Y-75439500D01*
%TO.N,Net-(C8-Pad1)*%
X98132500Y-77985000D02*
X96170000Y-77985000D01*
%TO.N,Net-(U2-RX)*%
X100207500Y-77985000D02*
X98935900Y-76713400D01*
X92838386Y-75485000D02*
X94170000Y-75485000D01*
X84373050Y-71725000D02*
X85920000Y-71725000D01*
X83820000Y-72278050D02*
X84373050Y-71725000D01*
X92253386Y-74900000D02*
X92838386Y-75485000D01*
X83820000Y-72360000D02*
X83820000Y-72278050D01*
X95398400Y-76713400D02*
X94170000Y-75485000D01*
X98935900Y-76713400D02*
X95398400Y-76713400D01*
%TO.N,Net-(C2-Pad2)*%
X91948000Y-68985000D02*
X92820000Y-68985000D01*
X94132000Y-70135000D02*
X93098000Y-70135000D01*
X93098000Y-70135000D02*
X91948000Y-68985000D01*
X92820000Y-68985000D02*
X93181000Y-68624000D01*
X93570000Y-68235000D02*
X93181000Y-68624000D01*
X94132500Y-70135000D02*
X94132000Y-70135000D01*
X91947500Y-68985000D02*
X91948000Y-68985000D01*
%TO.N,/LED_KR*%
X111070000Y-58265000D02*
X109790000Y-58265000D01*
X109790000Y-58265000D02*
X108170000Y-59885000D01*
%TO.N,Net-(D1-RK)*%
X98867121Y-36165000D02*
X102359622Y-36165000D01*
X104740000Y-51156471D02*
X104740000Y-58455000D01*
X97155000Y-33500000D02*
X97155000Y-34452879D01*
X104740000Y-58455000D02*
X106170000Y-59885000D01*
X97370000Y-33285000D02*
X97155000Y-33500000D01*
X102359622Y-36165000D02*
X104140000Y-37945378D01*
X97155000Y-34452879D02*
X98867121Y-36165000D01*
X104140000Y-50556471D02*
X104740000Y-51156471D01*
X104140000Y-37945378D02*
X104140000Y-50556471D01*
%TO.N,Net-(D1-GK)*%
X106170000Y-61985000D02*
X104775000Y-60590000D01*
X97370000Y-31379243D02*
X97370000Y-31685000D01*
X106045000Y-57120000D02*
X106045000Y-56367900D01*
X104775000Y-60590000D02*
X104775000Y-59660000D01*
X104775000Y-59660000D02*
X104740000Y-59660000D01*
X105410000Y-48865000D02*
X105410000Y-55732900D01*
X98464243Y-30285000D02*
X97370000Y-31379243D01*
X106045000Y-56367900D02*
X105410000Y-55732900D01*
X103141000Y-30285000D02*
X98464243Y-30285000D01*
%TO.N,Net-(D1-BK)*%
X105410000Y-36131500D02*
X105410000Y-32355000D01*
X104740000Y-31685000D02*
X102970000Y-31685000D01*
X105410000Y-32355000D02*
X104740000Y-31685000D01*
X106045000Y-36766500D02*
X105410000Y-36131500D01*
X108117000Y-66052000D02*
X111227600Y-66052000D01*
X106170000Y-64105000D02*
X108117000Y-66052000D01*
%TO.N,/LED_KG*%
X111070000Y-60805000D02*
X109918100Y-60805000D01*
X108738100Y-61985000D02*
X108170000Y-61985000D01*
X109918100Y-60805000D02*
X108738100Y-61985000D01*
%TO.N,/LED_KB*%
X108170000Y-64105000D02*
X108930000Y-63345000D01*
X108930000Y-63345000D02*
X111070000Y-63345000D01*
%TD*%
M02*
