%TF.GenerationSoftware,KiCad,Pcbnew,7.0.11+dfsg-1build4*%
%TF.CreationDate,2026-01-29T22:43:38-05:00*%
%TF.ProjectId,,58585858-5858-4585-9858-585858585858,rev?*%
%TF.SameCoordinates,Original*%
%TF.FileFunction,Copper,L1,Top*%
%TF.FilePolarity,Positive*%
%FSLAX46Y46*%
G04 Gerber Fmt 4.6, Leading zero omitted, Abs format (unit mm)*
G04 Created by KiCad (PCBNEW 7.0.11+dfsg-1build4) date 2026-01-29 22:43:38*
%MOMM*%
%LPD*%
G01*
G04 APERTURE LIST*
G04 Aperture macros list*
%AMRoundRect*
0 Rectangle with rounded corners*
0 $1 Rounding radius*
0 $2 $3 $4 $5 $6 $7 $8 $9 X,Y pos of 4 corners*
0 Add a 4 corners polygon primitive as box body*
4,1,4,$2,$3,$4,$5,$6,$7,$8,$9,$2,$3,0*
0 Add four circle primitives for the rounded corners*
1,1,$1+$1,$2,$3*
1,1,$1+$1,$4,$5*
1,1,$1+$1,$6,$7*
1,1,$1+$1,$8,$9*
0 Add four rect primitives between the rounded corners*
20,1,$1+$1,$2,$3,$4,$5,0*
20,1,$1+$1,$4,$5,$6,$7,0*
20,1,$1+$1,$6,$7,$8,$9,0*
20,1,$1+$1,$8,$9,$2,$3,0*%
G04 Aperture macros list end*
%TA.AperFunction,EtchedComponent*%
%ADD10C,0.500000*%
%TD*%
%TA.AperFunction,SMDPad,CuDef*%
%ADD11RoundRect,0.250000X0.337500X0.475000X-0.337500X0.475000X-0.337500X-0.475000X0.337500X-0.475000X0*%
%TD*%
%TA.AperFunction,SMDPad,CuDef*%
%ADD12RoundRect,0.250000X0.475000X-0.337500X0.475000X0.337500X-0.475000X0.337500X-0.475000X-0.337500X0*%
%TD*%
%TA.AperFunction,SMDPad,CuDef*%
%ADD13RoundRect,0.250000X0.350000X0.450000X-0.350000X0.450000X-0.350000X-0.450000X0.350000X-0.450000X0*%
%TD*%
%TA.AperFunction,SMDPad,CuDef*%
%ADD14RoundRect,0.250000X-0.337500X-0.475000X0.337500X-0.475000X0.337500X0.475000X-0.337500X0.475000X0*%
%TD*%
%TA.AperFunction,SMDPad,CuDef*%
%ADD15RoundRect,0.250000X-0.350000X-0.450000X0.350000X-0.450000X0.350000X0.450000X-0.350000X0.450000X0*%
%TD*%
%TA.AperFunction,SMDPad,CuDef*%
%ADD16C,1.000000*%
%TD*%
%TA.AperFunction,ComponentPad*%
%ADD17C,0.600000*%
%TD*%
%TA.AperFunction,SMDPad,CuDef*%
%ADD18RoundRect,0.250000X-0.362500X-0.700000X0.362500X-0.700000X0.362500X0.700000X-0.362500X0.700000X0*%
%TD*%
%TA.AperFunction,SMDPad,CuDef*%
%ADD19R,2.100000X1.800000*%
%TD*%
%TA.AperFunction,SMDPad,CuDef*%
%ADD20R,1.400000X0.800000*%
%TD*%
%TA.AperFunction,SMDPad,CuDef*%
%ADD21RoundRect,0.150000X0.150000X-0.587500X0.150000X0.587500X-0.150000X0.587500X-0.150000X-0.587500X0*%
%TD*%
%TA.AperFunction,ComponentPad*%
%ADD22R,1.700000X1.700000*%
%TD*%
%TA.AperFunction,ComponentPad*%
%ADD23O,1.700000X1.700000*%
%TD*%
%TA.AperFunction,WasherPad*%
%ADD24C,1.600000*%
%TD*%
%TA.AperFunction,ComponentPad*%
%ADD25RoundRect,0.340500X0.659500X-0.409500X0.659500X0.409500X-0.659500X0.409500X-0.659500X-0.409500X0*%
%TD*%
%TA.AperFunction,ComponentPad*%
%ADD26O,2.000000X1.500000*%
%TD*%
%TA.AperFunction,SMDPad,CuDef*%
%ADD27RoundRect,0.250000X0.362500X0.700000X-0.362500X0.700000X-0.362500X-0.700000X0.362500X-0.700000X0*%
%TD*%
%TA.AperFunction,SMDPad,CuDef*%
%ADD28RoundRect,0.250000X-0.475000X0.337500X-0.475000X-0.337500X0.475000X-0.337500X0.475000X0.337500X0*%
%TD*%
%TA.AperFunction,SMDPad,CuDef*%
%ADD29RoundRect,0.062500X-0.062500X0.375000X-0.062500X-0.375000X0.062500X-0.375000X0.062500X0.375000X0*%
%TD*%
%TA.AperFunction,SMDPad,CuDef*%
%ADD30RoundRect,0.062500X-0.375000X0.062500X-0.375000X-0.062500X0.375000X-0.062500X0.375000X0.062500X0*%
%TD*%
%TA.AperFunction,HeatsinkPad*%
%ADD31R,4.100000X4.100000*%
%TD*%
%TA.AperFunction,ViaPad*%
%ADD32C,0.600000*%
%TD*%
%TA.AperFunction,Conductor*%
%ADD33C,0.200000*%
%TD*%
G04 APERTURE END LIST*
D10*
%TO.C,L_pcb1*%
X142200000Y-106610000D02*
X142200000Y-134110000D01*
X142200000Y-106610000D02*
X155950000Y-106610000D01*
X142200000Y-134110000D02*
X150550000Y-134110000D01*
X143200000Y-107610000D02*
X143200000Y-133110000D01*
X143200000Y-107610000D02*
X156950000Y-107610000D01*
X143200000Y-133110000D02*
X168700000Y-133110000D01*
X144200000Y-108610000D02*
X144200000Y-132110000D01*
X144200000Y-108610000D02*
X157450000Y-108610000D01*
X144200000Y-132110000D02*
X167700000Y-132110000D01*
X145200000Y-109610000D02*
X145200000Y-131110000D01*
X145200000Y-109610000D02*
X157950000Y-109610000D01*
X145200000Y-131110000D02*
X166700000Y-131110000D01*
X146200000Y-110610000D02*
X146200000Y-130110000D01*
X146200000Y-110610000D02*
X158450000Y-110610000D01*
X146200000Y-130110000D02*
X165700000Y-130110000D01*
X147200000Y-111610000D02*
X147200000Y-129110000D01*
X147200000Y-111610000D02*
X158950000Y-111610000D01*
X147200000Y-129110000D02*
X164700000Y-129110000D01*
X155950000Y-134110000D02*
X155950000Y-134560000D01*
X156950000Y-107610000D02*
X157950000Y-106610000D01*
X157450000Y-108610000D02*
X158450000Y-107610000D01*
X157950000Y-109610000D02*
X158950000Y-108610000D01*
X158450000Y-110610000D02*
X159450000Y-109610000D01*
X158950000Y-111610000D02*
X159950000Y-110610000D01*
X161350000Y-134110000D02*
X169700000Y-134110000D01*
X164700000Y-111610000D02*
X160450000Y-111610000D01*
X164700000Y-111610000D02*
X164700000Y-129110000D01*
X165700000Y-110610000D02*
X159950000Y-110610000D01*
X165700000Y-110610000D02*
X165700000Y-130110000D01*
X166700000Y-109610000D02*
X159450000Y-109610000D01*
X166700000Y-109610000D02*
X166700000Y-131110000D01*
X167700000Y-108610000D02*
X158950000Y-108610000D01*
X167700000Y-108610000D02*
X167700000Y-132110000D01*
X168700000Y-107610000D02*
X158450000Y-107610000D01*
X168700000Y-107610000D02*
X168700000Y-133110000D01*
X169700000Y-106610000D02*
X157950000Y-106610000D01*
X169700000Y-106610000D02*
X169700000Y-134110000D01*
X92200000Y-106610000D02*
X92200000Y-134110000D01*
X92200000Y-106610000D02*
X105950000Y-106610000D01*
X92200000Y-134110000D02*
X100550000Y-134110000D01*
X93200000Y-107610000D02*
X93200000Y-133110000D01*
X93200000Y-107610000D02*
X106950000Y-107610000D01*
X93200000Y-133110000D02*
X118700000Y-133110000D01*
X94200000Y-108610000D02*
X94200000Y-132110000D01*
X94200000Y-108610000D02*
X107450000Y-108610000D01*
X94200000Y-132110000D02*
X117700000Y-132110000D01*
X95200000Y-109610000D02*
X95200000Y-131110000D01*
X95200000Y-109610000D02*
X107950000Y-109610000D01*
X95200000Y-131110000D02*
X116700000Y-131110000D01*
X96200000Y-110610000D02*
X96200000Y-130110000D01*
X96200000Y-110610000D02*
X108450000Y-110610000D01*
X96200000Y-130110000D02*
X115700000Y-130110000D01*
X97200000Y-111610000D02*
X97200000Y-129110000D01*
X97200000Y-111610000D02*
X108950000Y-111610000D01*
X97200000Y-129110000D02*
X114700000Y-129110000D01*
X105950000Y-134110000D02*
X105950000Y-134560000D01*
X106950000Y-107610000D02*
X107950000Y-106610000D01*
X107450000Y-108610000D02*
X108450000Y-107610000D01*
X107950000Y-109610000D02*
X108950000Y-108610000D01*
X108450000Y-110610000D02*
X109450000Y-109610000D01*
X108950000Y-111610000D02*
X109950000Y-110610000D01*
X111350000Y-134110000D02*
X119700000Y-134110000D01*
X114700000Y-111610000D02*
X110450000Y-111610000D01*
X114700000Y-111610000D02*
X114700000Y-129110000D01*
X115700000Y-110610000D02*
X109950000Y-110610000D01*
X115700000Y-110610000D02*
X115700000Y-130110000D01*
X116700000Y-109610000D02*
X109450000Y-109610000D01*
X116700000Y-109610000D02*
X116700000Y-131110000D01*
X117700000Y-108610000D02*
X108950000Y-108610000D01*
X117700000Y-108610000D02*
X117700000Y-132110000D01*
X118700000Y-107610000D02*
X108450000Y-107610000D01*
X118700000Y-107610000D02*
X118700000Y-133110000D01*
X119700000Y-106610000D02*
X107950000Y-106610000D01*
X119700000Y-106610000D02*
X119700000Y-134110000D01*
X142200000Y-56610000D02*
X142200000Y-84110000D01*
X142200000Y-56610000D02*
X155950000Y-56610000D01*
X142200000Y-84110000D02*
X150550000Y-84110000D01*
X143200000Y-57610000D02*
X143200000Y-83110000D01*
X143200000Y-57610000D02*
X156950000Y-57610000D01*
X143200000Y-83110000D02*
X168700000Y-83110000D01*
X144200000Y-58610000D02*
X144200000Y-82110000D01*
X144200000Y-58610000D02*
X157450000Y-58610000D01*
X144200000Y-82110000D02*
X167700000Y-82110000D01*
X145200000Y-59610000D02*
X145200000Y-81110000D01*
X145200000Y-59610000D02*
X157950000Y-59610000D01*
X145200000Y-81110000D02*
X166700000Y-81110000D01*
X146200000Y-60610000D02*
X146200000Y-80110000D01*
X146200000Y-60610000D02*
X158450000Y-60610000D01*
X146200000Y-80110000D02*
X165700000Y-80110000D01*
X147200000Y-61610000D02*
X147200000Y-79110000D01*
X147200000Y-61610000D02*
X158950000Y-61610000D01*
X147200000Y-79110000D02*
X164700000Y-79110000D01*
X155950000Y-84110000D02*
X155950000Y-84560000D01*
X156950000Y-57610000D02*
X157950000Y-56610000D01*
X157450000Y-58610000D02*
X158450000Y-57610000D01*
X157950000Y-59610000D02*
X158950000Y-58610000D01*
X158450000Y-60610000D02*
X159450000Y-59610000D01*
X158950000Y-61610000D02*
X159950000Y-60610000D01*
X161350000Y-84110000D02*
X169700000Y-84110000D01*
X164700000Y-61610000D02*
X160450000Y-61610000D01*
X164700000Y-61610000D02*
X164700000Y-79110000D01*
X165700000Y-60610000D02*
X159950000Y-60610000D01*
X165700000Y-60610000D02*
X165700000Y-80110000D01*
X166700000Y-59610000D02*
X159450000Y-59610000D01*
X166700000Y-59610000D02*
X166700000Y-81110000D01*
X167700000Y-58610000D02*
X158950000Y-58610000D01*
X167700000Y-58610000D02*
X167700000Y-82110000D01*
X168700000Y-57610000D02*
X158450000Y-57610000D01*
X168700000Y-57610000D02*
X168700000Y-83110000D01*
X169700000Y-56610000D02*
X157950000Y-56610000D01*
X169700000Y-56610000D02*
X169700000Y-84110000D01*
X92200000Y-56610000D02*
X92200000Y-84110000D01*
X92200000Y-56610000D02*
X105950000Y-56610000D01*
X92200000Y-84110000D02*
X100550000Y-84110000D01*
X93200000Y-57610000D02*
X93200000Y-83110000D01*
X93200000Y-57610000D02*
X106950000Y-57610000D01*
X93200000Y-83110000D02*
X118700000Y-83110000D01*
X94200000Y-58610000D02*
X94200000Y-82110000D01*
X94200000Y-58610000D02*
X107450000Y-58610000D01*
X94200000Y-82110000D02*
X117700000Y-82110000D01*
X95200000Y-59610000D02*
X95200000Y-81110000D01*
X95200000Y-59610000D02*
X107950000Y-59610000D01*
X95200000Y-81110000D02*
X116700000Y-81110000D01*
X96200000Y-60610000D02*
X96200000Y-80110000D01*
X96200000Y-60610000D02*
X108450000Y-60610000D01*
X96200000Y-80110000D02*
X115700000Y-80110000D01*
X97200000Y-61610000D02*
X97200000Y-79110000D01*
X97200000Y-61610000D02*
X108950000Y-61610000D01*
X97200000Y-79110000D02*
X114700000Y-79110000D01*
X105950000Y-84110000D02*
X105950000Y-84560000D01*
X106950000Y-57610000D02*
X107950000Y-56610000D01*
X107450000Y-58610000D02*
X108450000Y-57610000D01*
X107950000Y-59610000D02*
X108950000Y-58610000D01*
X108450000Y-60610000D02*
X109450000Y-59610000D01*
X108950000Y-61610000D02*
X109950000Y-60610000D01*
X111350000Y-84110000D02*
X119700000Y-84110000D01*
X114700000Y-61610000D02*
X110450000Y-61610000D01*
X114700000Y-61610000D02*
X114700000Y-79110000D01*
X115700000Y-60610000D02*
X109950000Y-60610000D01*
X115700000Y-60610000D02*
X115700000Y-80110000D01*
X116700000Y-59610000D02*
X109450000Y-59610000D01*
X116700000Y-59610000D02*
X116700000Y-81110000D01*
X117700000Y-58610000D02*
X108950000Y-58610000D01*
X117700000Y-58610000D02*
X117700000Y-82110000D01*
X118700000Y-57610000D02*
X108450000Y-57610000D01*
X118700000Y-57610000D02*
X118700000Y-83110000D01*
X119700000Y-56610000D02*
X107950000Y-56610000D01*
X119700000Y-56610000D02*
X119700000Y-84110000D01*
%TD*%
D11*
%TO.P,C7,1*%
%TO.N,GND*%
X167987500Y-141360000D03*
%TO.P,C7,2*%
%TO.N,Net-(U2-VMID)*%
X165912500Y-141360000D03*
%TD*%
D12*
%TO.P,C13,1*%
%TO.N,+3.3V*%
X139950000Y-139797500D03*
%TO.P,C13,2*%
%TO.N,GND*%
X139950000Y-137722500D03*
%TD*%
D13*
%TO.P,R15,1*%
%TO.N,/LED_KB*%
X175950000Y-129980000D03*
%TO.P,R15,2*%
%TO.N,Net-(D1-BK)*%
X173950000Y-129980000D03*
%TD*%
D14*
%TO.P,C9,1*%
%TO.N,+3.3V*%
X138095000Y-135660000D03*
%TO.P,C9,2*%
%TO.N,GND*%
X140170000Y-135660000D03*
%TD*%
D13*
%TO.P,R11,1*%
%TO.N,/SENS_LED*%
X152250000Y-125060000D03*
%TO.P,R11,2*%
%TO.N,Net-(R11-Pad2)*%
X150250000Y-125060000D03*
%TD*%
D12*
%TO.P,C10,1*%
%TO.N,+3.3V*%
X142000000Y-139797500D03*
%TO.P,C10,2*%
%TO.N,GND*%
X142000000Y-137722500D03*
%TD*%
D14*
%TO.P,C1,1*%
%TO.N,Net-(C1-Pad1)*%
X152172500Y-134860000D03*
%TO.P,C1,2*%
%TO.N,GND*%
X154247500Y-134860000D03*
%TD*%
D12*
%TO.P,C11,1*%
%TO.N,+3.3V*%
X139950000Y-143897500D03*
%TO.P,C11,2*%
%TO.N,GND*%
X139950000Y-141822500D03*
%TD*%
D13*
%TO.P,R5,1*%
%TO.N,+3.3V*%
X138150000Y-130860000D03*
%TO.P,R5,2*%
%TO.N,Net-(U2-I1)*%
X136150000Y-130860000D03*
%TD*%
D15*
%TO.P,R12,1*%
%TO.N,/SENS_DET*%
X159450000Y-125060000D03*
%TO.P,R12,2*%
%TO.N,VCC*%
X161450000Y-125060000D03*
%TD*%
D11*
%TO.P,C5,1*%
%TO.N,Net-(C3-Pad1)*%
X145987500Y-136010000D03*
%TO.P,C5,2*%
%TO.N,GND*%
X143912500Y-136010000D03*
%TD*%
D15*
%TO.P,R10,1*%
%TO.N,+3.3V*%
X177850000Y-133860000D03*
%TO.P,R10,2*%
%TO.N,Net-(Q1-S)*%
X179850000Y-133860000D03*
%TD*%
D14*
%TO.P,C8,1*%
%TO.N,Net-(C8-Pad1)*%
X165912500Y-143860000D03*
%TO.P,C8,2*%
%TO.N,Net-(U2-RX)*%
X167987500Y-143860000D03*
%TD*%
D16*
%TO.P,L_pcb1,1,1*%
%TO.N,Net-(C1-Pad1)*%
X150550000Y-134110000D03*
%TO.P,L_pcb1,2,2*%
%TO.N,GND*%
X155950000Y-135060000D03*
%TO.P,L_pcb1,3,3*%
%TO.N,Net-(C2-Pad2)*%
X161350000Y-134110000D03*
D17*
%TO.P,L_pcb1,B*%
%TO.N,N/C*%
X155950000Y-106610000D03*
X160450000Y-111610000D03*
%TO.P,L_pcb1,G*%
X155950000Y-131110000D03*
X155950000Y-134110000D03*
%TD*%
D14*
%TO.P,C3,1*%
%TO.N,Net-(C3-Pad1)*%
X147912500Y-136010000D03*
%TO.P,C3,2*%
%TO.N,Net-(C1-Pad1)*%
X149987500Y-136010000D03*
%TD*%
%TO.P,C12,1*%
%TO.N,VCC*%
X169862500Y-139060000D03*
%TO.P,C12,2*%
%TO.N,GND*%
X171937500Y-139060000D03*
%TD*%
D13*
%TO.P,R8,1*%
%TO.N,Net-(U2-I0)*%
X134150000Y-133360000D03*
%TO.P,R8,2*%
%TO.N,GND*%
X132150000Y-133360000D03*
%TD*%
D11*
%TO.P,C4,1*%
%TO.N,Net-(C4-Pad1)*%
X163987500Y-136010000D03*
%TO.P,C4,2*%
%TO.N,Net-(C2-Pad2)*%
X161912500Y-136010000D03*
%TD*%
%TO.P,C6,1*%
%TO.N,GND*%
X167987500Y-136010000D03*
%TO.P,C6,2*%
%TO.N,Net-(C4-Pad1)*%
X165912500Y-136010000D03*
%TD*%
%TO.P,C14,1*%
%TO.N,+3.3V*%
X171937500Y-141360000D03*
%TO.P,C14,2*%
%TO.N,GND*%
X169862500Y-141360000D03*
%TD*%
D18*
%TO.P,L2,1,1*%
%TO.N,Net-(U2-TX1)*%
X162787500Y-138360000D03*
%TO.P,L2,2,2*%
%TO.N,Net-(C4-Pad1)*%
X166112500Y-138360000D03*
%TD*%
D13*
%TO.P,R2,1*%
%TO.N,Net-(C8-Pad1)*%
X163950000Y-143860000D03*
%TO.P,R2,2*%
%TO.N,Net-(C3-Pad1)*%
X161950000Y-143860000D03*
%TD*%
D11*
%TO.P,C15,1*%
%TO.N,+3.3V*%
X171937500Y-143860000D03*
%TO.P,C15,2*%
%TO.N,GND*%
X169862500Y-143860000D03*
%TD*%
D12*
%TO.P,C17,1*%
%TO.N,GND*%
X150750000Y-143697500D03*
%TO.P,C17,2*%
%TO.N,Net-(U2-OSCOUT)*%
X150750000Y-141622500D03*
%TD*%
D13*
%TO.P,R6,1*%
%TO.N,+3.3V*%
X138150000Y-133360000D03*
%TO.P,R6,2*%
%TO.N,Net-(U2-I0)*%
X136150000Y-133360000D03*
%TD*%
%TO.P,R13,1*%
%TO.N,/LED_KR*%
X175950000Y-125760000D03*
%TO.P,R13,2*%
%TO.N,Net-(D1-RK)*%
X173950000Y-125760000D03*
%TD*%
%TO.P,R7,1*%
%TO.N,Net-(U2-I1)*%
X134150000Y-130860000D03*
%TO.P,R7,2*%
%TO.N,GND*%
X132150000Y-130860000D03*
%TD*%
D19*
%TO.P,Y1,1,1*%
%TO.N,Net-(U2-OSCIN)*%
X145250000Y-143810000D03*
%TO.P,Y1,2,2*%
%TO.N,GND*%
X148150000Y-143810000D03*
%TO.P,Y1,3,3*%
%TO.N,Net-(U2-OSCOUT)*%
X148150000Y-141510000D03*
%TO.P,Y1,4,4*%
%TO.N,GND*%
X145250000Y-141510000D03*
%TD*%
D20*
%TO.P,D1,1,RK*%
%TO.N,Net-(D1-RK)*%
X165150000Y-99160000D03*
%TO.P,D1,2,A*%
%TO.N,VCC*%
X170750000Y-99160000D03*
%TO.P,D1,3,GK*%
%TO.N,Net-(D1-GK)*%
X165150000Y-97560000D03*
%TO.P,D1,4,BK*%
%TO.N,Net-(D1-BK)*%
X170750000Y-97560000D03*
%TD*%
D15*
%TO.P,R9,1*%
%TO.N,+3.3V*%
X173850000Y-133860000D03*
%TO.P,R9,2*%
%TO.N,Net-(Q2-S)*%
X175850000Y-133860000D03*
%TD*%
%TO.P,R1,1*%
%TO.N,Net-(U2-RX)*%
X161950000Y-141360000D03*
%TO.P,R1,2*%
%TO.N,Net-(U2-VMID)*%
X163950000Y-141360000D03*
%TD*%
D14*
%TO.P,C2,1*%
%TO.N,GND*%
X157652500Y-134860000D03*
%TO.P,C2,2*%
%TO.N,Net-(C2-Pad2)*%
X159727500Y-134860000D03*
%TD*%
D21*
%TO.P,Q1,1,G*%
%TO.N,+3.3V*%
X174000000Y-106297500D03*
%TO.P,Q1,2,S*%
%TO.N,Net-(Q1-S)*%
X175900000Y-106297500D03*
%TO.P,Q1,3,D*%
%TO.N,Net-(J1-Pin_1)*%
X174950000Y-104422500D03*
%TD*%
D15*
%TO.P,R4,1*%
%TO.N,/RSTPD_N*%
X177850000Y-136160000D03*
%TO.P,R4,2*%
%TO.N,GND*%
X179850000Y-136160000D03*
%TD*%
D22*
%TO.P,J1,1,Pin_1*%
%TO.N,Net-(J1-Pin_1)*%
X178850000Y-106360000D03*
D23*
%TO.P,J1,2,Pin_2*%
%TO.N,Net-(J1-Pin_2)*%
X178850000Y-108900000D03*
%TO.P,J1,3,Pin_3*%
%TO.N,VCC*%
X178850000Y-111440000D03*
%TO.P,J1,4,Pin_4*%
%TO.N,GND*%
X178850000Y-113980000D03*
%TO.P,J1,5,Pin_5*%
%TO.N,/SENS_DET*%
X178850000Y-116520000D03*
%TO.P,J1,6,Pin_6*%
%TO.N,/SENS_LED*%
X178850000Y-119060000D03*
%TO.P,J1,7,Pin_7*%
%TO.N,/RSTPD_N*%
X178850000Y-121600000D03*
%TO.P,J1,8,Pin_8*%
%TO.N,/LED_KR*%
X178850000Y-124140000D03*
%TO.P,J1,9,Pin_9*%
%TO.N,/LED_KG*%
X178850000Y-126680000D03*
%TO.P,J1,10,Pin_10*%
%TO.N,/LED_KB*%
X178850000Y-129220000D03*
%TD*%
D24*
%TO.P,U1,*%
%TO.N,*%
X160995000Y-113130000D03*
D25*
%TO.P,U1,1*%
%TO.N,Net-(R11-Pad2)*%
X151220000Y-119060000D03*
D26*
%TO.P,U1,2*%
%TO.N,GND*%
X151220000Y-121600000D03*
%TO.P,U1,3*%
%TO.N,/SENS_DET*%
X160670000Y-121600000D03*
%TO.P,U1,4*%
%TO.N,GND*%
X160670000Y-119060000D03*
%TD*%
D27*
%TO.P,L1,1,1*%
%TO.N,Net-(U2-TX2)*%
X149112500Y-138360000D03*
%TO.P,L1,2,2*%
%TO.N,Net-(C3-Pad1)*%
X145787500Y-138360000D03*
%TD*%
D21*
%TO.P,Q2,1,G*%
%TO.N,+3.3V*%
X174000000Y-110297500D03*
%TO.P,Q2,2,S*%
%TO.N,Net-(Q2-S)*%
X175900000Y-110297500D03*
%TO.P,Q2,3,D*%
%TO.N,Net-(J1-Pin_2)*%
X174950000Y-108422500D03*
%TD*%
D28*
%TO.P,C16,1*%
%TO.N,GND*%
X142650000Y-141622500D03*
%TO.P,C16,2*%
%TO.N,Net-(U2-OSCIN)*%
X142650000Y-143697500D03*
%TD*%
D15*
%TO.P,R3,1*%
%TO.N,VCC*%
X173850000Y-136160000D03*
%TO.P,R3,2*%
%TO.N,/RSTPD_N*%
X175850000Y-136160000D03*
%TD*%
D29*
%TO.P,U2,1,DVSS*%
%TO.N,GND*%
X158200000Y-137600000D03*
%TO.P,U2,2,LOADMOD*%
%TO.N,unconnected-(U2-LOADMOD-Pad2)*%
X157700000Y-137600000D03*
%TO.P,U2,3,TVSS1*%
%TO.N,GND*%
X157200000Y-137600000D03*
%TO.P,U2,4,TX1*%
%TO.N,Net-(U2-TX1)*%
X156700000Y-137600000D03*
%TO.P,U2,5,TVDD*%
%TO.N,+3.3V*%
X156200000Y-137600000D03*
%TO.P,U2,6,TX2*%
%TO.N,Net-(U2-TX2)*%
X155700000Y-137600000D03*
%TO.P,U2,7,TVSS2*%
%TO.N,GND*%
X155200000Y-137600000D03*
%TO.P,U2,8,AVDD*%
%TO.N,+3.3V*%
X154700000Y-137600000D03*
%TO.P,U2,9,VMID*%
%TO.N,Net-(U2-VMID)*%
X154200000Y-137600000D03*
%TO.P,U2,10,RX*%
%TO.N,Net-(U2-RX)*%
X153700000Y-137600000D03*
D30*
%TO.P,U2,11,AVSS*%
%TO.N,GND*%
X153012500Y-138287500D03*
%TO.P,U2,12,AUX1*%
%TO.N,/AUX1*%
X153012500Y-138787500D03*
%TO.P,U2,13,AUX2*%
%TO.N,/AUX2*%
X153012500Y-139287500D03*
%TO.P,U2,14,OSCIN*%
%TO.N,Net-(U2-OSCIN)*%
X153012500Y-139787500D03*
%TO.P,U2,15,OSCOUT*%
%TO.N,Net-(U2-OSCOUT)*%
X153012500Y-140287500D03*
%TO.P,U2,16,I0*%
%TO.N,Net-(U2-I0)*%
X153012500Y-140787500D03*
%TO.P,U2,17,I1*%
%TO.N,Net-(U2-I1)*%
X153012500Y-141287500D03*
%TO.P,U2,18,TESTEN*%
%TO.N,GND*%
X153012500Y-141787500D03*
%TO.P,U2,19,P35*%
%TO.N,unconnected-(U2-P35-Pad19)*%
X153012500Y-142287500D03*
%TO.P,U2,20,N.C.*%
%TO.N,unconnected-(U2-N.C.-Pad20)*%
X153012500Y-142787500D03*
D29*
%TO.P,U2,21,N.C.*%
%TO.N,unconnected-(U2-N.C.-Pad21)*%
X153700000Y-143475000D03*
%TO.P,U2,22,N.C.*%
%TO.N,unconnected-(U2-N.C.-Pad22)*%
X154200000Y-143475000D03*
%TO.P,U2,23,PVDD*%
%TO.N,+3.3V*%
X154700000Y-143475000D03*
%TO.P,U2,24,P30/UART_RX*%
%TO.N,/UART_RX*%
X155200000Y-143475000D03*
%TO.P,U2,25,P70_IRQ*%
%TO.N,/IRQ*%
X155700000Y-143475000D03*
%TO.P,U2,26,~{RSTOUT}*%
%TO.N,unconnected-(U2-~{RSTOUT}-Pad26)*%
X156200000Y-143475000D03*
%TO.P,U2,27,NSS/P50_SCL/HSU_RX*%
%TO.N,Net-(Q1-S)*%
X156700000Y-143475000D03*
%TO.P,U2,28,MOSI/SDA/HSU_TX*%
%TO.N,Net-(Q2-S)*%
X157200000Y-143475000D03*
%TO.P,U2,29,MISO/P71*%
%TO.N,/CIPO*%
X157700000Y-143475000D03*
%TO.P,U2,30,SCK/P72*%
%TO.N,/SCK*%
X158200000Y-143475000D03*
D30*
%TO.P,U2,31,P31/UART_TX*%
%TO.N,/UART_TX*%
X158887500Y-142787500D03*
%TO.P,U2,32,P32_INT0*%
%TO.N,unconnected-(U2-P32_INT0-Pad32)*%
X158887500Y-142287500D03*
%TO.P,U2,33,P33_INT1*%
%TO.N,unconnected-(U2-P33_INT1-Pad33)*%
X158887500Y-141787500D03*
%TO.P,U2,34,SIC_CLK/P34*%
%TO.N,unconnected-(U2-SIC_CLK{slash}P34-Pad34)*%
X158887500Y-141287500D03*
%TO.P,U2,35,SIGOUT*%
%TO.N,unconnected-(U2-SIGOUT-Pad35)*%
X158887500Y-140787500D03*
%TO.P,U2,36,SIGIN*%
%TO.N,unconnected-(U2-SIGIN-Pad36)*%
X158887500Y-140287500D03*
%TO.P,U2,37,SVDD*%
%TO.N,unconnected-(U2-SVDD-Pad37)*%
X158887500Y-139787500D03*
%TO.P,U2,38,~{RSTPD}*%
%TO.N,/RSTPD_N*%
X158887500Y-139287500D03*
%TO.P,U2,39,DVDD*%
%TO.N,+3.3V*%
X158887500Y-138787500D03*
%TO.P,U2,40,VBAT*%
%TO.N,VCC*%
X158887500Y-138287500D03*
D31*
%TO.P,U2,41,AVSS*%
%TO.N,GND*%
X155950000Y-140537500D03*
%TD*%
D13*
%TO.P,R14,1*%
%TO.N,/LED_KG*%
X175950000Y-127860000D03*
%TO.P,R14,2*%
%TO.N,Net-(D1-GK)*%
X173950000Y-127860000D03*
%TD*%
D11*
%TO.P,C7,1*%
%TO.N,GND*%
X117987500Y-141360000D03*
%TO.P,C7,2*%
%TO.N,Net-(U2-VMID)*%
X115912500Y-141360000D03*
%TD*%
D12*
%TO.P,C13,1*%
%TO.N,+3.3V*%
X89950000Y-139797500D03*
%TO.P,C13,2*%
%TO.N,GND*%
X89950000Y-137722500D03*
%TD*%
D13*
%TO.P,R15,1*%
%TO.N,/LED_KB*%
X125950000Y-129980000D03*
%TO.P,R15,2*%
%TO.N,Net-(D1-BK)*%
X123950000Y-129980000D03*
%TD*%
D14*
%TO.P,C9,1*%
%TO.N,+3.3V*%
X88095000Y-135660000D03*
%TO.P,C9,2*%
%TO.N,GND*%
X90170000Y-135660000D03*
%TD*%
D13*
%TO.P,R11,1*%
%TO.N,/SENS_LED*%
X102250000Y-125060000D03*
%TO.P,R11,2*%
%TO.N,Net-(R11-Pad2)*%
X100250000Y-125060000D03*
%TD*%
D12*
%TO.P,C10,1*%
%TO.N,+3.3V*%
X92000000Y-139797500D03*
%TO.P,C10,2*%
%TO.N,GND*%
X92000000Y-137722500D03*
%TD*%
D14*
%TO.P,C1,1*%
%TO.N,Net-(C1-Pad1)*%
X102172500Y-134860000D03*
%TO.P,C1,2*%
%TO.N,GND*%
X104247500Y-134860000D03*
%TD*%
D12*
%TO.P,C11,1*%
%TO.N,+3.3V*%
X89950000Y-143897500D03*
%TO.P,C11,2*%
%TO.N,GND*%
X89950000Y-141822500D03*
%TD*%
D13*
%TO.P,R5,1*%
%TO.N,+3.3V*%
X88150000Y-130860000D03*
%TO.P,R5,2*%
%TO.N,Net-(U2-I1)*%
X86150000Y-130860000D03*
%TD*%
D15*
%TO.P,R12,1*%
%TO.N,/SENS_DET*%
X109450000Y-125060000D03*
%TO.P,R12,2*%
%TO.N,VCC*%
X111450000Y-125060000D03*
%TD*%
D11*
%TO.P,C5,1*%
%TO.N,Net-(C3-Pad1)*%
X95987500Y-136010000D03*
%TO.P,C5,2*%
%TO.N,GND*%
X93912500Y-136010000D03*
%TD*%
D15*
%TO.P,R10,1*%
%TO.N,+3.3V*%
X127850000Y-133860000D03*
%TO.P,R10,2*%
%TO.N,Net-(Q1-S)*%
X129850000Y-133860000D03*
%TD*%
D14*
%TO.P,C8,1*%
%TO.N,Net-(C8-Pad1)*%
X115912500Y-143860000D03*
%TO.P,C8,2*%
%TO.N,Net-(U2-RX)*%
X117987500Y-143860000D03*
%TD*%
D16*
%TO.P,L_pcb1,1,1*%
%TO.N,Net-(C1-Pad1)*%
X100550000Y-134110000D03*
%TO.P,L_pcb1,2,2*%
%TO.N,GND*%
X105950000Y-135060000D03*
%TO.P,L_pcb1,3,3*%
%TO.N,Net-(C2-Pad2)*%
X111350000Y-134110000D03*
D17*
%TO.P,L_pcb1,B*%
%TO.N,N/C*%
X105950000Y-106610000D03*
X110450000Y-111610000D03*
%TO.P,L_pcb1,G*%
X105950000Y-131110000D03*
X105950000Y-134110000D03*
%TD*%
D14*
%TO.P,C3,1*%
%TO.N,Net-(C3-Pad1)*%
X97912500Y-136010000D03*
%TO.P,C3,2*%
%TO.N,Net-(C1-Pad1)*%
X99987500Y-136010000D03*
%TD*%
%TO.P,C12,1*%
%TO.N,VCC*%
X119862500Y-139060000D03*
%TO.P,C12,2*%
%TO.N,GND*%
X121937500Y-139060000D03*
%TD*%
D13*
%TO.P,R8,1*%
%TO.N,Net-(U2-I0)*%
X84150000Y-133360000D03*
%TO.P,R8,2*%
%TO.N,GND*%
X82150000Y-133360000D03*
%TD*%
D11*
%TO.P,C4,1*%
%TO.N,Net-(C4-Pad1)*%
X113987500Y-136010000D03*
%TO.P,C4,2*%
%TO.N,Net-(C2-Pad2)*%
X111912500Y-136010000D03*
%TD*%
%TO.P,C6,1*%
%TO.N,GND*%
X117987500Y-136010000D03*
%TO.P,C6,2*%
%TO.N,Net-(C4-Pad1)*%
X115912500Y-136010000D03*
%TD*%
%TO.P,C14,1*%
%TO.N,+3.3V*%
X121937500Y-141360000D03*
%TO.P,C14,2*%
%TO.N,GND*%
X119862500Y-141360000D03*
%TD*%
D18*
%TO.P,L2,1,1*%
%TO.N,Net-(U2-TX1)*%
X112787500Y-138360000D03*
%TO.P,L2,2,2*%
%TO.N,Net-(C4-Pad1)*%
X116112500Y-138360000D03*
%TD*%
D13*
%TO.P,R2,1*%
%TO.N,Net-(C8-Pad1)*%
X113950000Y-143860000D03*
%TO.P,R2,2*%
%TO.N,Net-(C3-Pad1)*%
X111950000Y-143860000D03*
%TD*%
D11*
%TO.P,C15,1*%
%TO.N,+3.3V*%
X121937500Y-143860000D03*
%TO.P,C15,2*%
%TO.N,GND*%
X119862500Y-143860000D03*
%TD*%
D12*
%TO.P,C17,1*%
%TO.N,GND*%
X100750000Y-143697500D03*
%TO.P,C17,2*%
%TO.N,Net-(U2-OSCOUT)*%
X100750000Y-141622500D03*
%TD*%
D13*
%TO.P,R6,1*%
%TO.N,+3.3V*%
X88150000Y-133360000D03*
%TO.P,R6,2*%
%TO.N,Net-(U2-I0)*%
X86150000Y-133360000D03*
%TD*%
%TO.P,R13,1*%
%TO.N,/LED_KR*%
X125950000Y-125760000D03*
%TO.P,R13,2*%
%TO.N,Net-(D1-RK)*%
X123950000Y-125760000D03*
%TD*%
%TO.P,R7,1*%
%TO.N,Net-(U2-I1)*%
X84150000Y-130860000D03*
%TO.P,R7,2*%
%TO.N,GND*%
X82150000Y-130860000D03*
%TD*%
D19*
%TO.P,Y1,1,1*%
%TO.N,Net-(U2-OSCIN)*%
X95250000Y-143810000D03*
%TO.P,Y1,2,2*%
%TO.N,GND*%
X98150000Y-143810000D03*
%TO.P,Y1,3,3*%
%TO.N,Net-(U2-OSCOUT)*%
X98150000Y-141510000D03*
%TO.P,Y1,4,4*%
%TO.N,GND*%
X95250000Y-141510000D03*
%TD*%
D20*
%TO.P,D1,1,RK*%
%TO.N,Net-(D1-RK)*%
X115150000Y-99160000D03*
%TO.P,D1,2,A*%
%TO.N,VCC*%
X120750000Y-99160000D03*
%TO.P,D1,3,GK*%
%TO.N,Net-(D1-GK)*%
X115150000Y-97560000D03*
%TO.P,D1,4,BK*%
%TO.N,Net-(D1-BK)*%
X120750000Y-97560000D03*
%TD*%
D15*
%TO.P,R9,1*%
%TO.N,+3.3V*%
X123850000Y-133860000D03*
%TO.P,R9,2*%
%TO.N,Net-(Q2-S)*%
X125850000Y-133860000D03*
%TD*%
%TO.P,R1,1*%
%TO.N,Net-(U2-RX)*%
X111950000Y-141360000D03*
%TO.P,R1,2*%
%TO.N,Net-(U2-VMID)*%
X113950000Y-141360000D03*
%TD*%
D14*
%TO.P,C2,1*%
%TO.N,GND*%
X107652500Y-134860000D03*
%TO.P,C2,2*%
%TO.N,Net-(C2-Pad2)*%
X109727500Y-134860000D03*
%TD*%
D21*
%TO.P,Q1,1,G*%
%TO.N,+3.3V*%
X124000000Y-106297500D03*
%TO.P,Q1,2,S*%
%TO.N,Net-(Q1-S)*%
X125900000Y-106297500D03*
%TO.P,Q1,3,D*%
%TO.N,Net-(J1-Pin_1)*%
X124950000Y-104422500D03*
%TD*%
D15*
%TO.P,R4,1*%
%TO.N,/RSTPD_N*%
X127850000Y-136160000D03*
%TO.P,R4,2*%
%TO.N,GND*%
X129850000Y-136160000D03*
%TD*%
D22*
%TO.P,J1,1,Pin_1*%
%TO.N,Net-(J1-Pin_1)*%
X128850000Y-106360000D03*
D23*
%TO.P,J1,2,Pin_2*%
%TO.N,Net-(J1-Pin_2)*%
X128850000Y-108900000D03*
%TO.P,J1,3,Pin_3*%
%TO.N,VCC*%
X128850000Y-111440000D03*
%TO.P,J1,4,Pin_4*%
%TO.N,GND*%
X128850000Y-113980000D03*
%TO.P,J1,5,Pin_5*%
%TO.N,/SENS_DET*%
X128850000Y-116520000D03*
%TO.P,J1,6,Pin_6*%
%TO.N,/SENS_LED*%
X128850000Y-119060000D03*
%TO.P,J1,7,Pin_7*%
%TO.N,/RSTPD_N*%
X128850000Y-121600000D03*
%TO.P,J1,8,Pin_8*%
%TO.N,/LED_KR*%
X128850000Y-124140000D03*
%TO.P,J1,9,Pin_9*%
%TO.N,/LED_KG*%
X128850000Y-126680000D03*
%TO.P,J1,10,Pin_10*%
%TO.N,/LED_KB*%
X128850000Y-129220000D03*
%TD*%
D24*
%TO.P,U1,*%
%TO.N,*%
X110995000Y-113130000D03*
D25*
%TO.P,U1,1*%
%TO.N,Net-(R11-Pad2)*%
X101220000Y-119060000D03*
D26*
%TO.P,U1,2*%
%TO.N,GND*%
X101220000Y-121600000D03*
%TO.P,U1,3*%
%TO.N,/SENS_DET*%
X110670000Y-121600000D03*
%TO.P,U1,4*%
%TO.N,GND*%
X110670000Y-119060000D03*
%TD*%
D27*
%TO.P,L1,1,1*%
%TO.N,Net-(U2-TX2)*%
X99112500Y-138360000D03*
%TO.P,L1,2,2*%
%TO.N,Net-(C3-Pad1)*%
X95787500Y-138360000D03*
%TD*%
D21*
%TO.P,Q2,1,G*%
%TO.N,+3.3V*%
X124000000Y-110297500D03*
%TO.P,Q2,2,S*%
%TO.N,Net-(Q2-S)*%
X125900000Y-110297500D03*
%TO.P,Q2,3,D*%
%TO.N,Net-(J1-Pin_2)*%
X124950000Y-108422500D03*
%TD*%
D28*
%TO.P,C16,1*%
%TO.N,GND*%
X92650000Y-141622500D03*
%TO.P,C16,2*%
%TO.N,Net-(U2-OSCIN)*%
X92650000Y-143697500D03*
%TD*%
D15*
%TO.P,R3,1*%
%TO.N,VCC*%
X123850000Y-136160000D03*
%TO.P,R3,2*%
%TO.N,/RSTPD_N*%
X125850000Y-136160000D03*
%TD*%
D29*
%TO.P,U2,1,DVSS*%
%TO.N,GND*%
X108200000Y-137600000D03*
%TO.P,U2,2,LOADMOD*%
%TO.N,unconnected-(U2-LOADMOD-Pad2)*%
X107700000Y-137600000D03*
%TO.P,U2,3,TVSS1*%
%TO.N,GND*%
X107200000Y-137600000D03*
%TO.P,U2,4,TX1*%
%TO.N,Net-(U2-TX1)*%
X106700000Y-137600000D03*
%TO.P,U2,5,TVDD*%
%TO.N,+3.3V*%
X106200000Y-137600000D03*
%TO.P,U2,6,TX2*%
%TO.N,Net-(U2-TX2)*%
X105700000Y-137600000D03*
%TO.P,U2,7,TVSS2*%
%TO.N,GND*%
X105200000Y-137600000D03*
%TO.P,U2,8,AVDD*%
%TO.N,+3.3V*%
X104700000Y-137600000D03*
%TO.P,U2,9,VMID*%
%TO.N,Net-(U2-VMID)*%
X104200000Y-137600000D03*
%TO.P,U2,10,RX*%
%TO.N,Net-(U2-RX)*%
X103700000Y-137600000D03*
D30*
%TO.P,U2,11,AVSS*%
%TO.N,GND*%
X103012500Y-138287500D03*
%TO.P,U2,12,AUX1*%
%TO.N,/AUX1*%
X103012500Y-138787500D03*
%TO.P,U2,13,AUX2*%
%TO.N,/AUX2*%
X103012500Y-139287500D03*
%TO.P,U2,14,OSCIN*%
%TO.N,Net-(U2-OSCIN)*%
X103012500Y-139787500D03*
%TO.P,U2,15,OSCOUT*%
%TO.N,Net-(U2-OSCOUT)*%
X103012500Y-140287500D03*
%TO.P,U2,16,I0*%
%TO.N,Net-(U2-I0)*%
X103012500Y-140787500D03*
%TO.P,U2,17,I1*%
%TO.N,Net-(U2-I1)*%
X103012500Y-141287500D03*
%TO.P,U2,18,TESTEN*%
%TO.N,GND*%
X103012500Y-141787500D03*
%TO.P,U2,19,P35*%
%TO.N,unconnected-(U2-P35-Pad19)*%
X103012500Y-142287500D03*
%TO.P,U2,20,N.C.*%
%TO.N,unconnected-(U2-N.C.-Pad20)*%
X103012500Y-142787500D03*
D29*
%TO.P,U2,21,N.C.*%
%TO.N,unconnected-(U2-N.C.-Pad21)*%
X103700000Y-143475000D03*
%TO.P,U2,22,N.C.*%
%TO.N,unconnected-(U2-N.C.-Pad22)*%
X104200000Y-143475000D03*
%TO.P,U2,23,PVDD*%
%TO.N,+3.3V*%
X104700000Y-143475000D03*
%TO.P,U2,24,P30/UART_RX*%
%TO.N,/UART_RX*%
X105200000Y-143475000D03*
%TO.P,U2,25,P70_IRQ*%
%TO.N,/IRQ*%
X105700000Y-143475000D03*
%TO.P,U2,26,~{RSTOUT}*%
%TO.N,unconnected-(U2-~{RSTOUT}-Pad26)*%
X106200000Y-143475000D03*
%TO.P,U2,27,NSS/P50_SCL/HSU_RX*%
%TO.N,Net-(Q1-S)*%
X106700000Y-143475000D03*
%TO.P,U2,28,MOSI/SDA/HSU_TX*%
%TO.N,Net-(Q2-S)*%
X107200000Y-143475000D03*
%TO.P,U2,29,MISO/P71*%
%TO.N,/CIPO*%
X107700000Y-143475000D03*
%TO.P,U2,30,SCK/P72*%
%TO.N,/SCK*%
X108200000Y-143475000D03*
D30*
%TO.P,U2,31,P31/UART_TX*%
%TO.N,/UART_TX*%
X108887500Y-142787500D03*
%TO.P,U2,32,P32_INT0*%
%TO.N,unconnected-(U2-P32_INT0-Pad32)*%
X108887500Y-142287500D03*
%TO.P,U2,33,P33_INT1*%
%TO.N,unconnected-(U2-P33_INT1-Pad33)*%
X108887500Y-141787500D03*
%TO.P,U2,34,SIC_CLK/P34*%
%TO.N,unconnected-(U2-SIC_CLK{slash}P34-Pad34)*%
X108887500Y-141287500D03*
%TO.P,U2,35,SIGOUT*%
%TO.N,unconnected-(U2-SIGOUT-Pad35)*%
X108887500Y-140787500D03*
%TO.P,U2,36,SIGIN*%
%TO.N,unconnected-(U2-SIGIN-Pad36)*%
X108887500Y-140287500D03*
%TO.P,U2,37,SVDD*%
%TO.N,unconnected-(U2-SVDD-Pad37)*%
X108887500Y-139787500D03*
%TO.P,U2,38,~{RSTPD}*%
%TO.N,/RSTPD_N*%
X108887500Y-139287500D03*
%TO.P,U2,39,DVDD*%
%TO.N,+3.3V*%
X108887500Y-138787500D03*
%TO.P,U2,40,VBAT*%
%TO.N,VCC*%
X108887500Y-138287500D03*
D31*
%TO.P,U2,41,AVSS*%
%TO.N,GND*%
X105950000Y-140537500D03*
%TD*%
D13*
%TO.P,R14,1*%
%TO.N,/LED_KG*%
X125950000Y-127860000D03*
%TO.P,R14,2*%
%TO.N,Net-(D1-GK)*%
X123950000Y-127860000D03*
%TD*%
D11*
%TO.P,C7,1*%
%TO.N,GND*%
X167987500Y-91360000D03*
%TO.P,C7,2*%
%TO.N,Net-(U2-VMID)*%
X165912500Y-91360000D03*
%TD*%
D12*
%TO.P,C13,1*%
%TO.N,+3.3V*%
X139950000Y-89797500D03*
%TO.P,C13,2*%
%TO.N,GND*%
X139950000Y-87722500D03*
%TD*%
D13*
%TO.P,R15,1*%
%TO.N,/LED_KB*%
X175950000Y-79980000D03*
%TO.P,R15,2*%
%TO.N,Net-(D1-BK)*%
X173950000Y-79980000D03*
%TD*%
D14*
%TO.P,C9,1*%
%TO.N,+3.3V*%
X138095000Y-85660000D03*
%TO.P,C9,2*%
%TO.N,GND*%
X140170000Y-85660000D03*
%TD*%
D13*
%TO.P,R11,1*%
%TO.N,/SENS_LED*%
X152250000Y-75060000D03*
%TO.P,R11,2*%
%TO.N,Net-(R11-Pad2)*%
X150250000Y-75060000D03*
%TD*%
D12*
%TO.P,C10,1*%
%TO.N,+3.3V*%
X142000000Y-89797500D03*
%TO.P,C10,2*%
%TO.N,GND*%
X142000000Y-87722500D03*
%TD*%
D14*
%TO.P,C1,1*%
%TO.N,Net-(C1-Pad1)*%
X152172500Y-84860000D03*
%TO.P,C1,2*%
%TO.N,GND*%
X154247500Y-84860000D03*
%TD*%
D12*
%TO.P,C11,1*%
%TO.N,+3.3V*%
X139950000Y-93897500D03*
%TO.P,C11,2*%
%TO.N,GND*%
X139950000Y-91822500D03*
%TD*%
D13*
%TO.P,R5,1*%
%TO.N,+3.3V*%
X138150000Y-80860000D03*
%TO.P,R5,2*%
%TO.N,Net-(U2-I1)*%
X136150000Y-80860000D03*
%TD*%
D15*
%TO.P,R12,1*%
%TO.N,/SENS_DET*%
X159450000Y-75060000D03*
%TO.P,R12,2*%
%TO.N,VCC*%
X161450000Y-75060000D03*
%TD*%
D11*
%TO.P,C5,1*%
%TO.N,Net-(C3-Pad1)*%
X145987500Y-86010000D03*
%TO.P,C5,2*%
%TO.N,GND*%
X143912500Y-86010000D03*
%TD*%
D15*
%TO.P,R10,1*%
%TO.N,+3.3V*%
X177850000Y-83860000D03*
%TO.P,R10,2*%
%TO.N,Net-(Q1-S)*%
X179850000Y-83860000D03*
%TD*%
D14*
%TO.P,C8,1*%
%TO.N,Net-(C8-Pad1)*%
X165912500Y-93860000D03*
%TO.P,C8,2*%
%TO.N,Net-(U2-RX)*%
X167987500Y-93860000D03*
%TD*%
D16*
%TO.P,L_pcb1,1,1*%
%TO.N,Net-(C1-Pad1)*%
X150550000Y-84110000D03*
%TO.P,L_pcb1,2,2*%
%TO.N,GND*%
X155950000Y-85060000D03*
%TO.P,L_pcb1,3,3*%
%TO.N,Net-(C2-Pad2)*%
X161350000Y-84110000D03*
D17*
%TO.P,L_pcb1,B*%
%TO.N,N/C*%
X155950000Y-56610000D03*
X160450000Y-61610000D03*
%TO.P,L_pcb1,G*%
X155950000Y-81110000D03*
X155950000Y-84110000D03*
%TD*%
D14*
%TO.P,C3,1*%
%TO.N,Net-(C3-Pad1)*%
X147912500Y-86010000D03*
%TO.P,C3,2*%
%TO.N,Net-(C1-Pad1)*%
X149987500Y-86010000D03*
%TD*%
%TO.P,C12,1*%
%TO.N,VCC*%
X169862500Y-89060000D03*
%TO.P,C12,2*%
%TO.N,GND*%
X171937500Y-89060000D03*
%TD*%
D13*
%TO.P,R8,1*%
%TO.N,Net-(U2-I0)*%
X134150000Y-83360000D03*
%TO.P,R8,2*%
%TO.N,GND*%
X132150000Y-83360000D03*
%TD*%
D11*
%TO.P,C4,1*%
%TO.N,Net-(C4-Pad1)*%
X163987500Y-86010000D03*
%TO.P,C4,2*%
%TO.N,Net-(C2-Pad2)*%
X161912500Y-86010000D03*
%TD*%
%TO.P,C6,1*%
%TO.N,GND*%
X167987500Y-86010000D03*
%TO.P,C6,2*%
%TO.N,Net-(C4-Pad1)*%
X165912500Y-86010000D03*
%TD*%
%TO.P,C14,1*%
%TO.N,+3.3V*%
X171937500Y-91360000D03*
%TO.P,C14,2*%
%TO.N,GND*%
X169862500Y-91360000D03*
%TD*%
D18*
%TO.P,L2,1,1*%
%TO.N,Net-(U2-TX1)*%
X162787500Y-88360000D03*
%TO.P,L2,2,2*%
%TO.N,Net-(C4-Pad1)*%
X166112500Y-88360000D03*
%TD*%
D13*
%TO.P,R2,1*%
%TO.N,Net-(C8-Pad1)*%
X163950000Y-93860000D03*
%TO.P,R2,2*%
%TO.N,Net-(C3-Pad1)*%
X161950000Y-93860000D03*
%TD*%
D11*
%TO.P,C15,1*%
%TO.N,+3.3V*%
X171937500Y-93860000D03*
%TO.P,C15,2*%
%TO.N,GND*%
X169862500Y-93860000D03*
%TD*%
D12*
%TO.P,C17,1*%
%TO.N,GND*%
X150750000Y-93697500D03*
%TO.P,C17,2*%
%TO.N,Net-(U2-OSCOUT)*%
X150750000Y-91622500D03*
%TD*%
D13*
%TO.P,R6,1*%
%TO.N,+3.3V*%
X138150000Y-83360000D03*
%TO.P,R6,2*%
%TO.N,Net-(U2-I0)*%
X136150000Y-83360000D03*
%TD*%
%TO.P,R13,1*%
%TO.N,/LED_KR*%
X175950000Y-75760000D03*
%TO.P,R13,2*%
%TO.N,Net-(D1-RK)*%
X173950000Y-75760000D03*
%TD*%
%TO.P,R7,1*%
%TO.N,Net-(U2-I1)*%
X134150000Y-80860000D03*
%TO.P,R7,2*%
%TO.N,GND*%
X132150000Y-80860000D03*
%TD*%
D19*
%TO.P,Y1,1,1*%
%TO.N,Net-(U2-OSCIN)*%
X145250000Y-93810000D03*
%TO.P,Y1,2,2*%
%TO.N,GND*%
X148150000Y-93810000D03*
%TO.P,Y1,3,3*%
%TO.N,Net-(U2-OSCOUT)*%
X148150000Y-91510000D03*
%TO.P,Y1,4,4*%
%TO.N,GND*%
X145250000Y-91510000D03*
%TD*%
D20*
%TO.P,D1,1,RK*%
%TO.N,Net-(D1-RK)*%
X165150000Y-49160000D03*
%TO.P,D1,2,A*%
%TO.N,VCC*%
X170750000Y-49160000D03*
%TO.P,D1,3,GK*%
%TO.N,Net-(D1-GK)*%
X165150000Y-47560000D03*
%TO.P,D1,4,BK*%
%TO.N,Net-(D1-BK)*%
X170750000Y-47560000D03*
%TD*%
D15*
%TO.P,R9,1*%
%TO.N,+3.3V*%
X173850000Y-83860000D03*
%TO.P,R9,2*%
%TO.N,Net-(Q2-S)*%
X175850000Y-83860000D03*
%TD*%
%TO.P,R1,1*%
%TO.N,Net-(U2-RX)*%
X161950000Y-91360000D03*
%TO.P,R1,2*%
%TO.N,Net-(U2-VMID)*%
X163950000Y-91360000D03*
%TD*%
D14*
%TO.P,C2,1*%
%TO.N,GND*%
X157652500Y-84860000D03*
%TO.P,C2,2*%
%TO.N,Net-(C2-Pad2)*%
X159727500Y-84860000D03*
%TD*%
D21*
%TO.P,Q1,1,G*%
%TO.N,+3.3V*%
X174000000Y-56297500D03*
%TO.P,Q1,2,S*%
%TO.N,Net-(Q1-S)*%
X175900000Y-56297500D03*
%TO.P,Q1,3,D*%
%TO.N,Net-(J1-Pin_1)*%
X174950000Y-54422500D03*
%TD*%
D15*
%TO.P,R4,1*%
%TO.N,/RSTPD_N*%
X177850000Y-86160000D03*
%TO.P,R4,2*%
%TO.N,GND*%
X179850000Y-86160000D03*
%TD*%
D22*
%TO.P,J1,1,Pin_1*%
%TO.N,Net-(J1-Pin_1)*%
X178850000Y-56360000D03*
D23*
%TO.P,J1,2,Pin_2*%
%TO.N,Net-(J1-Pin_2)*%
X178850000Y-58900000D03*
%TO.P,J1,3,Pin_3*%
%TO.N,VCC*%
X178850000Y-61440000D03*
%TO.P,J1,4,Pin_4*%
%TO.N,GND*%
X178850000Y-63980000D03*
%TO.P,J1,5,Pin_5*%
%TO.N,/SENS_DET*%
X178850000Y-66520000D03*
%TO.P,J1,6,Pin_6*%
%TO.N,/SENS_LED*%
X178850000Y-69060000D03*
%TO.P,J1,7,Pin_7*%
%TO.N,/RSTPD_N*%
X178850000Y-71600000D03*
%TO.P,J1,8,Pin_8*%
%TO.N,/LED_KR*%
X178850000Y-74140000D03*
%TO.P,J1,9,Pin_9*%
%TO.N,/LED_KG*%
X178850000Y-76680000D03*
%TO.P,J1,10,Pin_10*%
%TO.N,/LED_KB*%
X178850000Y-79220000D03*
%TD*%
D24*
%TO.P,U1,*%
%TO.N,*%
X160995000Y-63130000D03*
D25*
%TO.P,U1,1*%
%TO.N,Net-(R11-Pad2)*%
X151220000Y-69060000D03*
D26*
%TO.P,U1,2*%
%TO.N,GND*%
X151220000Y-71600000D03*
%TO.P,U1,3*%
%TO.N,/SENS_DET*%
X160670000Y-71600000D03*
%TO.P,U1,4*%
%TO.N,GND*%
X160670000Y-69060000D03*
%TD*%
D27*
%TO.P,L1,1,1*%
%TO.N,Net-(U2-TX2)*%
X149112500Y-88360000D03*
%TO.P,L1,2,2*%
%TO.N,Net-(C3-Pad1)*%
X145787500Y-88360000D03*
%TD*%
D21*
%TO.P,Q2,1,G*%
%TO.N,+3.3V*%
X174000000Y-60297500D03*
%TO.P,Q2,2,S*%
%TO.N,Net-(Q2-S)*%
X175900000Y-60297500D03*
%TO.P,Q2,3,D*%
%TO.N,Net-(J1-Pin_2)*%
X174950000Y-58422500D03*
%TD*%
D28*
%TO.P,C16,1*%
%TO.N,GND*%
X142650000Y-91622500D03*
%TO.P,C16,2*%
%TO.N,Net-(U2-OSCIN)*%
X142650000Y-93697500D03*
%TD*%
D15*
%TO.P,R3,1*%
%TO.N,VCC*%
X173850000Y-86160000D03*
%TO.P,R3,2*%
%TO.N,/RSTPD_N*%
X175850000Y-86160000D03*
%TD*%
D29*
%TO.P,U2,1,DVSS*%
%TO.N,GND*%
X158200000Y-87600000D03*
%TO.P,U2,2,LOADMOD*%
%TO.N,unconnected-(U2-LOADMOD-Pad2)*%
X157700000Y-87600000D03*
%TO.P,U2,3,TVSS1*%
%TO.N,GND*%
X157200000Y-87600000D03*
%TO.P,U2,4,TX1*%
%TO.N,Net-(U2-TX1)*%
X156700000Y-87600000D03*
%TO.P,U2,5,TVDD*%
%TO.N,+3.3V*%
X156200000Y-87600000D03*
%TO.P,U2,6,TX2*%
%TO.N,Net-(U2-TX2)*%
X155700000Y-87600000D03*
%TO.P,U2,7,TVSS2*%
%TO.N,GND*%
X155200000Y-87600000D03*
%TO.P,U2,8,AVDD*%
%TO.N,+3.3V*%
X154700000Y-87600000D03*
%TO.P,U2,9,VMID*%
%TO.N,Net-(U2-VMID)*%
X154200000Y-87600000D03*
%TO.P,U2,10,RX*%
%TO.N,Net-(U2-RX)*%
X153700000Y-87600000D03*
D30*
%TO.P,U2,11,AVSS*%
%TO.N,GND*%
X153012500Y-88287500D03*
%TO.P,U2,12,AUX1*%
%TO.N,/AUX1*%
X153012500Y-88787500D03*
%TO.P,U2,13,AUX2*%
%TO.N,/AUX2*%
X153012500Y-89287500D03*
%TO.P,U2,14,OSCIN*%
%TO.N,Net-(U2-OSCIN)*%
X153012500Y-89787500D03*
%TO.P,U2,15,OSCOUT*%
%TO.N,Net-(U2-OSCOUT)*%
X153012500Y-90287500D03*
%TO.P,U2,16,I0*%
%TO.N,Net-(U2-I0)*%
X153012500Y-90787500D03*
%TO.P,U2,17,I1*%
%TO.N,Net-(U2-I1)*%
X153012500Y-91287500D03*
%TO.P,U2,18,TESTEN*%
%TO.N,GND*%
X153012500Y-91787500D03*
%TO.P,U2,19,P35*%
%TO.N,unconnected-(U2-P35-Pad19)*%
X153012500Y-92287500D03*
%TO.P,U2,20,N.C.*%
%TO.N,unconnected-(U2-N.C.-Pad20)*%
X153012500Y-92787500D03*
D29*
%TO.P,U2,21,N.C.*%
%TO.N,unconnected-(U2-N.C.-Pad21)*%
X153700000Y-93475000D03*
%TO.P,U2,22,N.C.*%
%TO.N,unconnected-(U2-N.C.-Pad22)*%
X154200000Y-93475000D03*
%TO.P,U2,23,PVDD*%
%TO.N,+3.3V*%
X154700000Y-93475000D03*
%TO.P,U2,24,P30/UART_RX*%
%TO.N,/UART_RX*%
X155200000Y-93475000D03*
%TO.P,U2,25,P70_IRQ*%
%TO.N,/IRQ*%
X155700000Y-93475000D03*
%TO.P,U2,26,~{RSTOUT}*%
%TO.N,unconnected-(U2-~{RSTOUT}-Pad26)*%
X156200000Y-93475000D03*
%TO.P,U2,27,NSS/P50_SCL/HSU_RX*%
%TO.N,Net-(Q1-S)*%
X156700000Y-93475000D03*
%TO.P,U2,28,MOSI/SDA/HSU_TX*%
%TO.N,Net-(Q2-S)*%
X157200000Y-93475000D03*
%TO.P,U2,29,MISO/P71*%
%TO.N,/CIPO*%
X157700000Y-93475000D03*
%TO.P,U2,30,SCK/P72*%
%TO.N,/SCK*%
X158200000Y-93475000D03*
D30*
%TO.P,U2,31,P31/UART_TX*%
%TO.N,/UART_TX*%
X158887500Y-92787500D03*
%TO.P,U2,32,P32_INT0*%
%TO.N,unconnected-(U2-P32_INT0-Pad32)*%
X158887500Y-92287500D03*
%TO.P,U2,33,P33_INT1*%
%TO.N,unconnected-(U2-P33_INT1-Pad33)*%
X158887500Y-91787500D03*
%TO.P,U2,34,SIC_CLK/P34*%
%TO.N,unconnected-(U2-SIC_CLK{slash}P34-Pad34)*%
X158887500Y-91287500D03*
%TO.P,U2,35,SIGOUT*%
%TO.N,unconnected-(U2-SIGOUT-Pad35)*%
X158887500Y-90787500D03*
%TO.P,U2,36,SIGIN*%
%TO.N,unconnected-(U2-SIGIN-Pad36)*%
X158887500Y-90287500D03*
%TO.P,U2,37,SVDD*%
%TO.N,unconnected-(U2-SVDD-Pad37)*%
X158887500Y-89787500D03*
%TO.P,U2,38,~{RSTPD}*%
%TO.N,/RSTPD_N*%
X158887500Y-89287500D03*
%TO.P,U2,39,DVDD*%
%TO.N,+3.3V*%
X158887500Y-88787500D03*
%TO.P,U2,40,VBAT*%
%TO.N,VCC*%
X158887500Y-88287500D03*
D31*
%TO.P,U2,41,AVSS*%
%TO.N,GND*%
X155950000Y-90537500D03*
%TD*%
D13*
%TO.P,R14,1*%
%TO.N,/LED_KG*%
X175950000Y-77860000D03*
%TO.P,R14,2*%
%TO.N,Net-(D1-GK)*%
X173950000Y-77860000D03*
%TD*%
%TO.P,R7,1*%
%TO.N,Net-(U2-I1)*%
X84150000Y-80860000D03*
%TO.P,R7,2*%
%TO.N,GND*%
X82150000Y-80860000D03*
%TD*%
D11*
%TO.P,C5,1*%
%TO.N,Net-(C3-Pad1)*%
X95987500Y-86010000D03*
%TO.P,C5,2*%
%TO.N,GND*%
X93912500Y-86010000D03*
%TD*%
D13*
%TO.P,R2,1*%
%TO.N,Net-(C8-Pad1)*%
X113950000Y-93860000D03*
%TO.P,R2,2*%
%TO.N,Net-(C3-Pad1)*%
X111950000Y-93860000D03*
%TD*%
%TO.P,R8,1*%
%TO.N,Net-(U2-I0)*%
X84150000Y-83360000D03*
%TO.P,R8,2*%
%TO.N,GND*%
X82150000Y-83360000D03*
%TD*%
D15*
%TO.P,R4,1*%
%TO.N,/RSTPD_N*%
X127850000Y-86160000D03*
%TO.P,R4,2*%
%TO.N,GND*%
X129850000Y-86160000D03*
%TD*%
D13*
%TO.P,R11,1*%
%TO.N,/SENS_LED*%
X102250000Y-75060000D03*
%TO.P,R11,2*%
%TO.N,Net-(R11-Pad2)*%
X100250000Y-75060000D03*
%TD*%
D19*
%TO.P,Y1,1,1*%
%TO.N,Net-(U2-OSCIN)*%
X95250000Y-93810000D03*
%TO.P,Y1,2,2*%
%TO.N,GND*%
X98150000Y-93810000D03*
%TO.P,Y1,3,3*%
%TO.N,Net-(U2-OSCOUT)*%
X98150000Y-91510000D03*
%TO.P,Y1,4,4*%
%TO.N,GND*%
X95250000Y-91510000D03*
%TD*%
D14*
%TO.P,C1,1*%
%TO.N,Net-(C1-Pad1)*%
X102172500Y-84860000D03*
%TO.P,C1,2*%
%TO.N,GND*%
X104247500Y-84860000D03*
%TD*%
%TO.P,C2,1*%
%TO.N,GND*%
X107652500Y-84860000D03*
%TO.P,C2,2*%
%TO.N,Net-(C2-Pad2)*%
X109727500Y-84860000D03*
%TD*%
D11*
%TO.P,C4,1*%
%TO.N,Net-(C4-Pad1)*%
X113987500Y-86010000D03*
%TO.P,C4,2*%
%TO.N,Net-(C2-Pad2)*%
X111912500Y-86010000D03*
%TD*%
D13*
%TO.P,R6,1*%
%TO.N,+3.3V*%
X88150000Y-83360000D03*
%TO.P,R6,2*%
%TO.N,Net-(U2-I0)*%
X86150000Y-83360000D03*
%TD*%
D20*
%TO.P,D1,1,RK*%
%TO.N,Net-(D1-RK)*%
X115150000Y-49160000D03*
%TO.P,D1,2,A*%
%TO.N,VCC*%
X120750000Y-49160000D03*
%TO.P,D1,3,GK*%
%TO.N,Net-(D1-GK)*%
X115150000Y-47560000D03*
%TO.P,D1,4,BK*%
%TO.N,Net-(D1-BK)*%
X120750000Y-47560000D03*
%TD*%
D12*
%TO.P,C13,1*%
%TO.N,+3.3V*%
X89950000Y-89797500D03*
%TO.P,C13,2*%
%TO.N,GND*%
X89950000Y-87722500D03*
%TD*%
D16*
%TO.P,L_pcb1,1,1*%
%TO.N,Net-(C1-Pad1)*%
X100550000Y-84110000D03*
%TO.P,L_pcb1,2,2*%
%TO.N,GND*%
X105950000Y-85060000D03*
%TO.P,L_pcb1,3,3*%
%TO.N,Net-(C2-Pad2)*%
X111350000Y-84110000D03*
D17*
%TO.P,L_pcb1,B*%
%TO.N,N/C*%
X105950000Y-56610000D03*
X110450000Y-61610000D03*
%TO.P,L_pcb1,G*%
X105950000Y-81110000D03*
X105950000Y-84110000D03*
%TD*%
D14*
%TO.P,C12,1*%
%TO.N,VCC*%
X119862500Y-89060000D03*
%TO.P,C12,2*%
%TO.N,GND*%
X121937500Y-89060000D03*
%TD*%
D22*
%TO.P,J1,1,Pin_1*%
%TO.N,Net-(J1-Pin_1)*%
X128850000Y-56360000D03*
D23*
%TO.P,J1,2,Pin_2*%
%TO.N,Net-(J1-Pin_2)*%
X128850000Y-58900000D03*
%TO.P,J1,3,Pin_3*%
%TO.N,VCC*%
X128850000Y-61440000D03*
%TO.P,J1,4,Pin_4*%
%TO.N,GND*%
X128850000Y-63980000D03*
%TO.P,J1,5,Pin_5*%
%TO.N,/SENS_DET*%
X128850000Y-66520000D03*
%TO.P,J1,6,Pin_6*%
%TO.N,/SENS_LED*%
X128850000Y-69060000D03*
%TO.P,J1,7,Pin_7*%
%TO.N,/RSTPD_N*%
X128850000Y-71600000D03*
%TO.P,J1,8,Pin_8*%
%TO.N,/LED_KR*%
X128850000Y-74140000D03*
%TO.P,J1,9,Pin_9*%
%TO.N,/LED_KG*%
X128850000Y-76680000D03*
%TO.P,J1,10,Pin_10*%
%TO.N,/LED_KB*%
X128850000Y-79220000D03*
%TD*%
D13*
%TO.P,R13,1*%
%TO.N,/LED_KR*%
X125950000Y-75760000D03*
%TO.P,R13,2*%
%TO.N,Net-(D1-RK)*%
X123950000Y-75760000D03*
%TD*%
D15*
%TO.P,R9,1*%
%TO.N,+3.3V*%
X123850000Y-83860000D03*
%TO.P,R9,2*%
%TO.N,Net-(Q2-S)*%
X125850000Y-83860000D03*
%TD*%
D27*
%TO.P,L1,1,1*%
%TO.N,Net-(U2-TX2)*%
X99112500Y-88360000D03*
%TO.P,L1,2,2*%
%TO.N,Net-(C3-Pad1)*%
X95787500Y-88360000D03*
%TD*%
D29*
%TO.P,U2,1,DVSS*%
%TO.N,GND*%
X108200000Y-87600000D03*
%TO.P,U2,2,LOADMOD*%
%TO.N,unconnected-(U2-LOADMOD-Pad2)*%
X107700000Y-87600000D03*
%TO.P,U2,3,TVSS1*%
%TO.N,GND*%
X107200000Y-87600000D03*
%TO.P,U2,4,TX1*%
%TO.N,Net-(U2-TX1)*%
X106700000Y-87600000D03*
%TO.P,U2,5,TVDD*%
%TO.N,+3.3V*%
X106200000Y-87600000D03*
%TO.P,U2,6,TX2*%
%TO.N,Net-(U2-TX2)*%
X105700000Y-87600000D03*
%TO.P,U2,7,TVSS2*%
%TO.N,GND*%
X105200000Y-87600000D03*
%TO.P,U2,8,AVDD*%
%TO.N,+3.3V*%
X104700000Y-87600000D03*
%TO.P,U2,9,VMID*%
%TO.N,Net-(U2-VMID)*%
X104200000Y-87600000D03*
%TO.P,U2,10,RX*%
%TO.N,Net-(U2-RX)*%
X103700000Y-87600000D03*
D30*
%TO.P,U2,11,AVSS*%
%TO.N,GND*%
X103012500Y-88287500D03*
%TO.P,U2,12,AUX1*%
%TO.N,/AUX1*%
X103012500Y-88787500D03*
%TO.P,U2,13,AUX2*%
%TO.N,/AUX2*%
X103012500Y-89287500D03*
%TO.P,U2,14,OSCIN*%
%TO.N,Net-(U2-OSCIN)*%
X103012500Y-89787500D03*
%TO.P,U2,15,OSCOUT*%
%TO.N,Net-(U2-OSCOUT)*%
X103012500Y-90287500D03*
%TO.P,U2,16,I0*%
%TO.N,Net-(U2-I0)*%
X103012500Y-90787500D03*
%TO.P,U2,17,I1*%
%TO.N,Net-(U2-I1)*%
X103012500Y-91287500D03*
%TO.P,U2,18,TESTEN*%
%TO.N,GND*%
X103012500Y-91787500D03*
%TO.P,U2,19,P35*%
%TO.N,unconnected-(U2-P35-Pad19)*%
X103012500Y-92287500D03*
%TO.P,U2,20,N.C.*%
%TO.N,unconnected-(U2-N.C.-Pad20)*%
X103012500Y-92787500D03*
D29*
%TO.P,U2,21,N.C.*%
%TO.N,unconnected-(U2-N.C.-Pad21)*%
X103700000Y-93475000D03*
%TO.P,U2,22,N.C.*%
%TO.N,unconnected-(U2-N.C.-Pad22)*%
X104200000Y-93475000D03*
%TO.P,U2,23,PVDD*%
%TO.N,+3.3V*%
X104700000Y-93475000D03*
%TO.P,U2,24,P30/UART_RX*%
%TO.N,/UART_RX*%
X105200000Y-93475000D03*
%TO.P,U2,25,P70_IRQ*%
%TO.N,/IRQ*%
X105700000Y-93475000D03*
%TO.P,U2,26,~{RSTOUT}*%
%TO.N,unconnected-(U2-~{RSTOUT}-Pad26)*%
X106200000Y-93475000D03*
%TO.P,U2,27,NSS/P50_SCL/HSU_RX*%
%TO.N,Net-(Q1-S)*%
X106700000Y-93475000D03*
%TO.P,U2,28,MOSI/SDA/HSU_TX*%
%TO.N,Net-(Q2-S)*%
X107200000Y-93475000D03*
%TO.P,U2,29,MISO/P71*%
%TO.N,/CIPO*%
X107700000Y-93475000D03*
%TO.P,U2,30,SCK/P72*%
%TO.N,/SCK*%
X108200000Y-93475000D03*
D30*
%TO.P,U2,31,P31/UART_TX*%
%TO.N,/UART_TX*%
X108887500Y-92787500D03*
%TO.P,U2,32,P32_INT0*%
%TO.N,unconnected-(U2-P32_INT0-Pad32)*%
X108887500Y-92287500D03*
%TO.P,U2,33,P33_INT1*%
%TO.N,unconnected-(U2-P33_INT1-Pad33)*%
X108887500Y-91787500D03*
%TO.P,U2,34,SIC_CLK/P34*%
%TO.N,unconnected-(U2-SIC_CLK{slash}P34-Pad34)*%
X108887500Y-91287500D03*
%TO.P,U2,35,SIGOUT*%
%TO.N,unconnected-(U2-SIGOUT-Pad35)*%
X108887500Y-90787500D03*
%TO.P,U2,36,SIGIN*%
%TO.N,unconnected-(U2-SIGIN-Pad36)*%
X108887500Y-90287500D03*
%TO.P,U2,37,SVDD*%
%TO.N,unconnected-(U2-SVDD-Pad37)*%
X108887500Y-89787500D03*
%TO.P,U2,38,~{RSTPD}*%
%TO.N,/RSTPD_N*%
X108887500Y-89287500D03*
%TO.P,U2,39,DVDD*%
%TO.N,+3.3V*%
X108887500Y-88787500D03*
%TO.P,U2,40,VBAT*%
%TO.N,VCC*%
X108887500Y-88287500D03*
D31*
%TO.P,U2,41,AVSS*%
%TO.N,GND*%
X105950000Y-90537500D03*
%TD*%
D12*
%TO.P,C17,1*%
%TO.N,GND*%
X100750000Y-93697500D03*
%TO.P,C17,2*%
%TO.N,Net-(U2-OSCOUT)*%
X100750000Y-91622500D03*
%TD*%
D11*
%TO.P,C6,1*%
%TO.N,GND*%
X117987500Y-86010000D03*
%TO.P,C6,2*%
%TO.N,Net-(C4-Pad1)*%
X115912500Y-86010000D03*
%TD*%
%TO.P,C14,1*%
%TO.N,+3.3V*%
X121937500Y-91360000D03*
%TO.P,C14,2*%
%TO.N,GND*%
X119862500Y-91360000D03*
%TD*%
D28*
%TO.P,C16,1*%
%TO.N,GND*%
X92650000Y-91622500D03*
%TO.P,C16,2*%
%TO.N,Net-(U2-OSCIN)*%
X92650000Y-93697500D03*
%TD*%
D14*
%TO.P,C3,1*%
%TO.N,Net-(C3-Pad1)*%
X97912500Y-86010000D03*
%TO.P,C3,2*%
%TO.N,Net-(C1-Pad1)*%
X99987500Y-86010000D03*
%TD*%
D13*
%TO.P,R15,1*%
%TO.N,/LED_KB*%
X125950000Y-79980000D03*
%TO.P,R15,2*%
%TO.N,Net-(D1-BK)*%
X123950000Y-79980000D03*
%TD*%
D14*
%TO.P,C9,1*%
%TO.N,+3.3V*%
X88095000Y-85660000D03*
%TO.P,C9,2*%
%TO.N,GND*%
X90170000Y-85660000D03*
%TD*%
D18*
%TO.P,L2,1,1*%
%TO.N,Net-(U2-TX1)*%
X112787500Y-88360000D03*
%TO.P,L2,2,2*%
%TO.N,Net-(C4-Pad1)*%
X116112500Y-88360000D03*
%TD*%
D15*
%TO.P,R10,1*%
%TO.N,+3.3V*%
X127850000Y-83860000D03*
%TO.P,R10,2*%
%TO.N,Net-(Q1-S)*%
X129850000Y-83860000D03*
%TD*%
D24*
%TO.P,U1,*%
%TO.N,*%
X110995000Y-63130000D03*
D25*
%TO.P,U1,1*%
%TO.N,Net-(R11-Pad2)*%
X101220000Y-69060000D03*
D26*
%TO.P,U1,2*%
%TO.N,GND*%
X101220000Y-71600000D03*
%TO.P,U1,3*%
%TO.N,/SENS_DET*%
X110670000Y-71600000D03*
%TO.P,U1,4*%
%TO.N,GND*%
X110670000Y-69060000D03*
%TD*%
D14*
%TO.P,C8,1*%
%TO.N,Net-(C8-Pad1)*%
X115912500Y-93860000D03*
%TO.P,C8,2*%
%TO.N,Net-(U2-RX)*%
X117987500Y-93860000D03*
%TD*%
D13*
%TO.P,R5,1*%
%TO.N,+3.3V*%
X88150000Y-80860000D03*
%TO.P,R5,2*%
%TO.N,Net-(U2-I1)*%
X86150000Y-80860000D03*
%TD*%
D11*
%TO.P,C7,1*%
%TO.N,GND*%
X117987500Y-91360000D03*
%TO.P,C7,2*%
%TO.N,Net-(U2-VMID)*%
X115912500Y-91360000D03*
%TD*%
D12*
%TO.P,C10,1*%
%TO.N,+3.3V*%
X92000000Y-89797500D03*
%TO.P,C10,2*%
%TO.N,GND*%
X92000000Y-87722500D03*
%TD*%
D15*
%TO.P,R1,1*%
%TO.N,Net-(U2-RX)*%
X111950000Y-91360000D03*
%TO.P,R1,2*%
%TO.N,Net-(U2-VMID)*%
X113950000Y-91360000D03*
%TD*%
D21*
%TO.P,Q1,1,G*%
%TO.N,+3.3V*%
X124000000Y-56297500D03*
%TO.P,Q1,2,S*%
%TO.N,Net-(Q1-S)*%
X125900000Y-56297500D03*
%TO.P,Q1,3,D*%
%TO.N,Net-(J1-Pin_1)*%
X124950000Y-54422500D03*
%TD*%
D12*
%TO.P,C11,1*%
%TO.N,+3.3V*%
X89950000Y-93897500D03*
%TO.P,C11,2*%
%TO.N,GND*%
X89950000Y-91822500D03*
%TD*%
D21*
%TO.P,Q2,1,G*%
%TO.N,+3.3V*%
X124000000Y-60297500D03*
%TO.P,Q2,2,S*%
%TO.N,Net-(Q2-S)*%
X125900000Y-60297500D03*
%TO.P,Q2,3,D*%
%TO.N,Net-(J1-Pin_2)*%
X124950000Y-58422500D03*
%TD*%
D13*
%TO.P,R14,1*%
%TO.N,/LED_KG*%
X125950000Y-77860000D03*
%TO.P,R14,2*%
%TO.N,Net-(D1-GK)*%
X123950000Y-77860000D03*
%TD*%
D15*
%TO.P,R12,1*%
%TO.N,/SENS_DET*%
X109450000Y-75060000D03*
%TO.P,R12,2*%
%TO.N,VCC*%
X111450000Y-75060000D03*
%TD*%
%TO.P,R3,1*%
%TO.N,VCC*%
X123850000Y-86160000D03*
%TO.P,R3,2*%
%TO.N,/RSTPD_N*%
X125850000Y-86160000D03*
%TD*%
D11*
%TO.P,C15,1*%
%TO.N,+3.3V*%
X121937500Y-93860000D03*
%TO.P,C15,2*%
%TO.N,GND*%
X119862500Y-93860000D03*
%TD*%
D32*
%TO.N,/SENS_LED*%
X152870000Y-126170000D03*
%TO.N,Net-(U2-RX)*%
X151600000Y-138235000D03*
X160033386Y-140775000D03*
%TO.N,+3.3V*%
X173303800Y-139020900D03*
X177015000Y-121400800D03*
X173668500Y-131927000D03*
X155570265Y-136169735D03*
X140703300Y-134346200D03*
%TO.N,Net-(U2-I0)*%
X151630500Y-140274144D03*
X135090000Y-131885000D03*
%TO.N,GND*%
X132550000Y-135060000D03*
%TO.N,Net-(R11-Pad2)*%
X150330000Y-123630000D03*
%TO.N,Net-(C3-Pad1)*%
X147869765Y-138702635D03*
X161778700Y-142633500D03*
%TO.N,GND*%
X139535000Y-136330000D03*
X156674735Y-136324735D03*
X171920000Y-117280000D03*
X160654100Y-137365300D03*
X167225000Y-137795743D03*
%TO.N,+3.3V*%
X140805000Y-144560000D03*
%TO.N,Net-(D1-BK)*%
X173825000Y-102641500D03*
X179007600Y-131927000D03*
%TO.N,Net-(D1-GK)*%
X172520000Y-125535000D03*
X173825000Y-122995000D03*
X173190000Y-114740000D03*
X170921000Y-96160000D03*
%TO.N,+3.3V*%
X159852600Y-138787500D03*
%TO.N,VCC*%
X176365000Y-112200000D03*
X173190000Y-112200000D03*
X163030000Y-124900000D03*
X169638300Y-137626100D03*
X172249700Y-135014700D03*
X175730000Y-121090000D03*
%TO.N,+3.3V*%
X171920000Y-144560000D03*
%TO.N,/SENS_DET*%
X159220000Y-123630000D03*
%TO.N,+3.3V*%
X154775000Y-144560000D03*
X173897265Y-120527265D03*
%TO.N,Net-(U2-I1)*%
X136475200Y-132088300D03*
X151600000Y-142680000D03*
%TO.N,Net-(U2-OSCIN)*%
X143345000Y-143315000D03*
X144615000Y-139973300D03*
%TO.N,Net-(U2-VMID)*%
X162886800Y-140251300D03*
X150798900Y-138235000D03*
%TO.N,Net-(Q1-S)*%
X179042800Y-135065200D03*
X176744300Y-106270900D03*
X160002965Y-143473965D03*
%TO.N,/RSTPD_N*%
X161134700Y-139613200D03*
X171820400Y-137709800D03*
%TO.N,Net-(Q2-S)*%
X173190000Y-142045000D03*
X174129000Y-138628400D03*
X160850000Y-143924400D03*
X176270400Y-122442200D03*
X174928300Y-135065200D03*
%TO.N,/SENS_LED*%
X102870000Y-126170000D03*
%TO.N,Net-(U2-RX)*%
X101600000Y-138235000D03*
X110033386Y-140775000D03*
%TO.N,+3.3V*%
X123303800Y-139020900D03*
X127015000Y-121400800D03*
X123668500Y-131927000D03*
X105570265Y-136169735D03*
X90703300Y-134346200D03*
%TO.N,Net-(U2-I0)*%
X101630500Y-140274144D03*
X85090000Y-131885000D03*
%TO.N,GND*%
X82550000Y-135060000D03*
%TO.N,Net-(R11-Pad2)*%
X100330000Y-123630000D03*
%TO.N,Net-(C3-Pad1)*%
X97869765Y-138702635D03*
X111778700Y-142633500D03*
%TO.N,GND*%
X89535000Y-136330000D03*
X106674735Y-136324735D03*
X121920000Y-117280000D03*
X110654100Y-137365300D03*
X117225000Y-137795743D03*
%TO.N,+3.3V*%
X90805000Y-144560000D03*
%TO.N,Net-(D1-BK)*%
X123825000Y-102641500D03*
X129007600Y-131927000D03*
%TO.N,Net-(D1-GK)*%
X122520000Y-125535000D03*
X123825000Y-122995000D03*
X123190000Y-114740000D03*
X120921000Y-96160000D03*
%TO.N,+3.3V*%
X109852600Y-138787500D03*
%TO.N,VCC*%
X126365000Y-112200000D03*
X123190000Y-112200000D03*
X113030000Y-124900000D03*
X119638300Y-137626100D03*
X122249700Y-135014700D03*
X125730000Y-121090000D03*
%TO.N,+3.3V*%
X121920000Y-144560000D03*
%TO.N,/SENS_DET*%
X109220000Y-123630000D03*
%TO.N,+3.3V*%
X104775000Y-144560000D03*
X123897265Y-120527265D03*
%TO.N,Net-(U2-I1)*%
X86475200Y-132088300D03*
X101600000Y-142680000D03*
%TO.N,Net-(U2-OSCIN)*%
X93345000Y-143315000D03*
X94615000Y-139973300D03*
%TO.N,Net-(U2-VMID)*%
X112886800Y-140251300D03*
X100798900Y-138235000D03*
%TO.N,Net-(Q1-S)*%
X129042800Y-135065200D03*
X126744300Y-106270900D03*
X110002965Y-143473965D03*
%TO.N,/RSTPD_N*%
X111134700Y-139613200D03*
X121820400Y-137709800D03*
%TO.N,Net-(Q2-S)*%
X123190000Y-142045000D03*
X124129000Y-138628400D03*
X110850000Y-143924400D03*
X126270400Y-122442200D03*
X124928300Y-135065200D03*
%TO.N,/SENS_LED*%
X152870000Y-76170000D03*
%TO.N,Net-(U2-RX)*%
X151600000Y-88235000D03*
X160033386Y-90775000D03*
%TO.N,+3.3V*%
X173303800Y-89020900D03*
X177015000Y-71400800D03*
X173668500Y-81927000D03*
X155570265Y-86169735D03*
X140703300Y-84346200D03*
%TO.N,Net-(U2-I0)*%
X151630500Y-90274144D03*
X135090000Y-81885000D03*
%TO.N,GND*%
X132550000Y-85060000D03*
%TO.N,Net-(R11-Pad2)*%
X150330000Y-73630000D03*
%TO.N,Net-(C3-Pad1)*%
X147869765Y-88702635D03*
X161778700Y-92633500D03*
%TO.N,GND*%
X139535000Y-86330000D03*
X156674735Y-86324735D03*
X171920000Y-67280000D03*
X160654100Y-87365300D03*
X167225000Y-87795743D03*
%TO.N,+3.3V*%
X140805000Y-94560000D03*
%TO.N,Net-(D1-BK)*%
X173825000Y-52641500D03*
X179007600Y-81927000D03*
%TO.N,Net-(D1-GK)*%
X172520000Y-75535000D03*
X173825000Y-72995000D03*
X173190000Y-64740000D03*
X170921000Y-46160000D03*
%TO.N,+3.3V*%
X159852600Y-88787500D03*
%TO.N,VCC*%
X176365000Y-62200000D03*
X173190000Y-62200000D03*
X163030000Y-74900000D03*
X169638300Y-87626100D03*
X172249700Y-85014700D03*
X175730000Y-71090000D03*
%TO.N,+3.3V*%
X171920000Y-94560000D03*
%TO.N,/SENS_DET*%
X159220000Y-73630000D03*
%TO.N,+3.3V*%
X154775000Y-94560000D03*
X173897265Y-70527265D03*
%TO.N,Net-(U2-I1)*%
X136475200Y-82088300D03*
X151600000Y-92680000D03*
%TO.N,Net-(U2-OSCIN)*%
X143345000Y-93315000D03*
X144615000Y-89973300D03*
%TO.N,Net-(U2-VMID)*%
X162886800Y-90251300D03*
X150798900Y-88235000D03*
%TO.N,Net-(Q1-S)*%
X179042800Y-85065200D03*
X176744300Y-56270900D03*
X160002965Y-93473965D03*
%TO.N,/RSTPD_N*%
X161134700Y-89613200D03*
X171820400Y-87709800D03*
%TO.N,Net-(Q2-S)*%
X173190000Y-92045000D03*
X174129000Y-88628400D03*
X160850000Y-93924400D03*
X176270400Y-72442200D03*
X174928300Y-85065200D03*
%TO.N,Net-(R11-Pad2)*%
X100330000Y-73630000D03*
%TO.N,/SENS_LED*%
X102870000Y-76170000D03*
%TO.N,+3.3V*%
X104775000Y-94560000D03*
X109852600Y-88787500D03*
X121920000Y-94560000D03*
X90805000Y-94560000D03*
X123897265Y-70527265D03*
X90703300Y-84346200D03*
X105570265Y-86169735D03*
X123668500Y-81927000D03*
X127015000Y-71400800D03*
X123303800Y-89020900D03*
%TO.N,VCC*%
X125730000Y-71090000D03*
X122249700Y-85014700D03*
X119638300Y-87626100D03*
X113030000Y-74900000D03*
X123190000Y-62200000D03*
X126365000Y-62200000D03*
%TO.N,Net-(U2-OSCIN)*%
X94615000Y-89973300D03*
X93345000Y-93315000D03*
%TO.N,Net-(Q1-S)*%
X110002965Y-93473965D03*
X126744300Y-56270900D03*
X129042800Y-85065200D03*
%TO.N,/SENS_DET*%
X109220000Y-73630000D03*
%TO.N,Net-(Q2-S)*%
X124928300Y-85065200D03*
X126270400Y-72442200D03*
X110850000Y-93924400D03*
X124129000Y-88628400D03*
X123190000Y-92045000D03*
%TO.N,/RSTPD_N*%
X121820400Y-87709800D03*
X111134700Y-89613200D03*
%TO.N,Net-(U2-I1)*%
X101600000Y-92680000D03*
X86475200Y-82088300D03*
%TO.N,Net-(U2-I0)*%
X85090000Y-81885000D03*
X101630500Y-90274144D03*
%TO.N,GND*%
X82550000Y-85060000D03*
X117225000Y-87795743D03*
X110654100Y-87365300D03*
X121920000Y-67280000D03*
X106674735Y-86324735D03*
X89535000Y-86330000D03*
%TO.N,Net-(C3-Pad1)*%
X111778700Y-92633500D03*
X97869765Y-88702635D03*
%TO.N,Net-(U2-VMID)*%
X100798900Y-88235000D03*
X112886800Y-90251300D03*
%TO.N,Net-(U2-RX)*%
X110033386Y-90775000D03*
X101600000Y-88235000D03*
%TO.N,Net-(D1-GK)*%
X120921000Y-46160000D03*
X123190000Y-64740000D03*
X123825000Y-72995000D03*
X122520000Y-75535000D03*
%TO.N,Net-(D1-BK)*%
X129007600Y-81927000D03*
X123825000Y-52641500D03*
%TD*%
D33*
%TO.N,Net-(D1-GK)*%
X170921000Y-96160000D02*
X166244243Y-96160000D01*
X173825000Y-122242900D02*
X173190000Y-121607900D01*
X166244243Y-96160000D02*
X165150000Y-97254243D01*
X173190000Y-114740000D02*
X173190000Y-121607900D01*
X172555000Y-125535000D02*
X172520000Y-125535000D01*
X172555000Y-126465000D02*
X172555000Y-125535000D01*
X173825000Y-122995000D02*
X173825000Y-122242900D01*
X165150000Y-97254243D02*
X165150000Y-97560000D01*
X173950000Y-127860000D02*
X172555000Y-126465000D01*
%TO.N,Net-(D1-RK)*%
X171920000Y-103820378D02*
X171920000Y-116431471D01*
X171920000Y-116431471D02*
X172520000Y-117031471D01*
X164935000Y-100327879D02*
X166647121Y-102040000D01*
X170139622Y-102040000D02*
X171920000Y-103820378D01*
X165150000Y-99160000D02*
X164935000Y-99375000D01*
X172520000Y-124330000D02*
X173950000Y-125760000D01*
X164935000Y-99375000D02*
X164935000Y-100327879D01*
X172520000Y-117031471D02*
X172520000Y-124330000D01*
X166647121Y-102040000D02*
X170139622Y-102040000D01*
%TO.N,/LED_KR*%
X177570000Y-124140000D02*
X175950000Y-125760000D01*
X178850000Y-124140000D02*
X177570000Y-124140000D01*
%TO.N,Net-(C2-Pad2)*%
X159727500Y-134860000D02*
X159728000Y-134860000D01*
X161912500Y-136010000D02*
X161912000Y-136010000D01*
X161350000Y-134110000D02*
X160961000Y-134499000D01*
X160600000Y-134860000D02*
X160961000Y-134499000D01*
X160878000Y-136010000D02*
X159728000Y-134860000D01*
X161912000Y-136010000D02*
X160878000Y-136010000D01*
X159728000Y-134860000D02*
X160600000Y-134860000D01*
%TO.N,Net-(U2-RX)*%
X166715900Y-142588400D02*
X163178400Y-142588400D01*
X163178400Y-142588400D02*
X161950000Y-141360000D01*
X151600000Y-138235000D02*
X151600000Y-138153050D01*
X160033386Y-140775000D02*
X160618386Y-141360000D01*
X151600000Y-138153050D02*
X152153050Y-137600000D01*
X152153050Y-137600000D02*
X153700000Y-137600000D01*
X160618386Y-141360000D02*
X161950000Y-141360000D01*
X167987500Y-143860000D02*
X166715900Y-142588400D01*
%TO.N,Net-(C8-Pad1)*%
X165912500Y-143860000D02*
X163950000Y-143860000D01*
%TO.N,+3.3V*%
X139950000Y-143897500D02*
X140142500Y-143897500D01*
X173897265Y-120527265D02*
X173897265Y-119462735D01*
X154700000Y-143475000D02*
X154700000Y-144485000D01*
X173897265Y-119462735D02*
X174000000Y-119360000D01*
X173916800Y-110214300D02*
X174000000Y-110297500D01*
X174725800Y-132984200D02*
X174910400Y-132799600D01*
X171937500Y-143860000D02*
X171937500Y-144542500D01*
X138095000Y-135660000D02*
X138095000Y-137942500D01*
X158887500Y-138787500D02*
X159852600Y-138787500D01*
X139714500Y-139797500D02*
X138431300Y-141080700D01*
X138150000Y-134346200D02*
X138150000Y-133360000D01*
X138150000Y-134346200D02*
X140703300Y-134346200D01*
X174000000Y-106297500D02*
X173916800Y-106380700D01*
X174000000Y-119360000D02*
X174000000Y-110297500D01*
%TO.N,/SENS_DET*%
X159220000Y-123630000D02*
X159220000Y-124830000D01*
X159220000Y-124830000D02*
X159450000Y-125060000D01*
%TO.N,+3.3V*%
X154700000Y-144485000D02*
X154775000Y-144560000D01*
X173850000Y-133860000D02*
X174725800Y-132984200D01*
X139950000Y-139797500D02*
X139714500Y-139797500D01*
X138095000Y-135660000D02*
X138150000Y-135605000D01*
X138431300Y-142592400D02*
X139736400Y-143897500D01*
X139736400Y-143897500D02*
X139950000Y-143897500D01*
X176789600Y-132799600D02*
X177850000Y-133860000D01*
X138150000Y-130860000D02*
X138150000Y-133360000D01*
X171937500Y-141360000D02*
X173303800Y-139993700D01*
X138150000Y-135605000D02*
X138150000Y-134346200D01*
X139950000Y-139797500D02*
X142000000Y-139797500D01*
X173668500Y-131927000D02*
X174725800Y-132984200D01*
X173916800Y-106380700D02*
X173916800Y-110214300D01*
X171937500Y-141360000D02*
X171937500Y-143860000D01*
X155570265Y-136169735D02*
X156200000Y-136799470D01*
X174910400Y-132799600D02*
X176789600Y-132799600D01*
X138431300Y-141080700D02*
X138431300Y-142592400D01*
X171937500Y-144542500D02*
X171920000Y-144560000D01*
%TO.N,GND*%
X155950000Y-135060000D02*
X155950000Y-135110000D01*
X140520000Y-136010000D02*
X140170000Y-135660000D01*
X144574100Y-141510000D02*
X143898100Y-141510000D01*
X155200000Y-138339600D02*
X155200000Y-137600000D01*
X150637600Y-143810000D02*
X150637600Y-143809900D01*
X167987500Y-136010000D02*
X169773909Y-136010000D01*
X143898100Y-139620500D02*
X143898100Y-141510000D01*
X157652000Y-134860000D02*
X157527000Y-134985000D01*
X158200000Y-137600000D02*
X160419400Y-137600000D01*
X142650000Y-141622500D02*
X143785600Y-141622500D01*
X140150000Y-141622500D02*
X142650000Y-141622500D01*
X132550000Y-135060000D02*
X131915000Y-134425000D01*
X168873400Y-136010000D02*
X167987500Y-136010000D01*
X171937500Y-139060000D02*
X172242400Y-138755100D01*
X152492500Y-141787500D02*
X152200000Y-142080000D01*
%TO.N,Net-(C1-Pad1)*%
X151300000Y-134860000D02*
X150939000Y-134499000D01*
X149988000Y-136010000D02*
X151022000Y-136010000D01*
X150550000Y-134110000D02*
X150939000Y-134499000D01*
X152172500Y-134860000D02*
X152172000Y-134860000D01*
X152172000Y-134860000D02*
X151300000Y-134860000D01*
X149987500Y-136010000D02*
X149988000Y-136010000D01*
X151022000Y-136010000D02*
X152172000Y-134860000D01*
%TO.N,Net-(U2-I0)*%
X153012500Y-140787500D02*
X152143856Y-140787500D01*
%TO.N,VCC*%
X158989400Y-138185600D02*
X160576100Y-138185600D01*
X162023700Y-139633200D02*
X167631200Y-139633200D01*
X173190000Y-111565000D02*
X173190000Y-112200000D01*
X176365000Y-112200000D02*
X177125000Y-111440000D01*
X172204400Y-135174400D02*
X172204400Y-135060000D01*
X175730000Y-114560000D02*
X178850000Y-111440000D01*
X172555000Y-103310000D02*
X172555000Y-110930000D01*
X170750000Y-99160000D02*
X171580000Y-99160000D01*
X172555000Y-110930000D02*
X173190000Y-111565000D01*
X172555000Y-100135000D02*
X172555000Y-103310000D01*
%TO.N,+3.3V*%
X138095000Y-137942500D02*
X139950000Y-139797500D01*
X173303800Y-139993700D02*
X173303800Y-139020900D01*
X140142500Y-143897500D02*
X140805000Y-144560000D01*
%TO.N,/SENS_LED*%
X152250000Y-125550000D02*
X152870000Y-126170000D01*
X152250000Y-125060000D02*
X152250000Y-125550000D01*
%TO.N,Net-(J1-Pin_2)*%
X177698100Y-108900000D02*
X177220600Y-108422500D01*
X178850000Y-108900000D02*
X177698100Y-108900000D01*
X177220600Y-108422500D02*
X174950000Y-108422500D01*
%TO.N,Net-(R11-Pad2)*%
X150330000Y-123630000D02*
X150250000Y-123710000D01*
%TO.N,GND*%
X152200000Y-142080000D02*
X152200000Y-142972500D01*
X172242400Y-138755100D02*
X172709400Y-138755100D01*
X140170000Y-135695000D02*
X139535000Y-136330000D01*
X153012500Y-141787500D02*
X152492500Y-141787500D01*
X172709400Y-138755100D02*
X171618500Y-138755100D01*
X154373000Y-134985000D02*
X154248000Y-134860000D01*
X167225000Y-137795743D02*
X167225000Y-136772500D01*
X157402000Y-135110000D02*
X155950000Y-135110000D01*
X157200000Y-138063400D02*
X157200000Y-137600000D01*
X160419400Y-137600000D02*
X160654100Y-137365300D01*
X170650000Y-135133909D02*
X170650000Y-135060000D01*
X155325000Y-140537500D02*
X155200000Y-140412500D01*
X143785600Y-141622500D02*
X143898100Y-141510000D01*
X170650000Y-135060000D02*
X171920000Y-133790000D01*
X167987500Y-141360000D02*
X169862500Y-141360000D01*
X155200000Y-140412500D02*
X153825000Y-141787500D01*
X144574100Y-141510000D02*
X145250000Y-141510000D01*
X158127100Y-137672900D02*
X158127100Y-138187800D01*
X143898000Y-139620500D02*
X143898100Y-139620500D01*
X167225000Y-136772500D02*
X167987500Y-136010000D01*
X157527000Y-134985000D02*
X157402000Y-135110000D01*
X142000000Y-136010000D02*
X140520000Y-136010000D01*
X157486300Y-138339600D02*
X157484700Y-138338000D01*
X142389100Y-136010000D02*
X143912500Y-136010000D01*
X154498000Y-135110000D02*
X154373000Y-134985000D01*
X158127100Y-138187800D02*
X157975300Y-138339600D01*
X171937500Y-139285000D02*
X171937500Y-139060000D01*
X157527500Y-134985000D02*
X157652500Y-134860000D01*
X150637600Y-143809900D02*
X150750000Y-143697500D01*
X154372500Y-134985000D02*
X154247500Y-134860000D01*
X142000000Y-137722500D02*
X143898000Y-139620500D01*
X171618500Y-138755100D02*
X168873400Y-136010000D01*
X157527000Y-134985000D02*
X157527500Y-134985000D01*
X132150000Y-133360000D02*
X132150000Y-130860000D01*
X139950000Y-141822500D02*
X140150000Y-141622500D01*
%TO.N,Net-(C3-Pad1)*%
X145788000Y-138169500D02*
X145788000Y-137598000D01*
X145788000Y-137598000D02*
X145787500Y-137598500D01*
X145988000Y-136010000D02*
X147912000Y-136010000D01*
X145987600Y-136010000D02*
X145987800Y-136010200D01*
X147912500Y-136010000D02*
X147912000Y-136010000D01*
X145788000Y-138360000D02*
X145788000Y-138169500D01*
X161778700Y-143688700D02*
X161778700Y-142633500D01*
X145987500Y-136010000D02*
X145987600Y-136010000D01*
X161950000Y-143860000D02*
X161778700Y-143688700D01*
X145987800Y-136010200D02*
X145988000Y-136010000D01*
X145788000Y-136210000D02*
X145987800Y-136010200D01*
X147869765Y-138702635D02*
X147336630Y-138169500D01*
X147336630Y-138169500D02*
X145788000Y-138169500D01*
X145787500Y-137598500D02*
X145787500Y-138360000D01*
X145788000Y-137598000D02*
X145788000Y-136210000D01*
%TO.N,Net-(U2-VMID)*%
X153946100Y-136835500D02*
X154200000Y-137089400D01*
X151928300Y-136835500D02*
X153946100Y-136835500D01*
X150798900Y-137964900D02*
X151928300Y-136835500D01*
%TO.N,Net-(U2-TX2)*%
X155700000Y-137148000D02*
X155700000Y-137600000D01*
X149509000Y-138360000D02*
X151539000Y-136330000D01*
X149112000Y-138360000D02*
X149112500Y-138360000D01*
X151539000Y-136330000D02*
X154882000Y-136330000D01*
X149112500Y-138360000D02*
X149509000Y-138360000D01*
X154882000Y-136330000D02*
X155700000Y-137148000D01*
%TO.N,Net-(U2-TX1)*%
X162787500Y-138360000D02*
X162662000Y-138360000D01*
X162788000Y-138360000D02*
X162787500Y-138360000D01*
X160632000Y-136330000D02*
X157518000Y-136330000D01*
X157518000Y-136330000D02*
X156700000Y-137148000D01*
X156700000Y-137148000D02*
X156700000Y-137600000D01*
X162662000Y-138360000D02*
X160632000Y-136330000D01*
%TO.N,Net-(C4-Pad1)*%
X166112000Y-136210000D02*
X165912300Y-136010200D01*
X166112500Y-137598500D02*
X166112500Y-138360000D01*
X166112000Y-137598000D02*
X166112000Y-136210000D01*
X165912300Y-136010200D02*
X165912000Y-136010000D01*
X166112000Y-137598000D02*
X166112500Y-137598500D01*
X165912500Y-136010000D02*
X165912300Y-136010200D01*
X163987500Y-136010000D02*
X163988000Y-136010000D01*
X165912000Y-136010000D02*
X163988000Y-136010000D01*
X166112000Y-138360000D02*
X166112000Y-137598000D01*
%TO.N,/LED_KB*%
X176710000Y-129220000D02*
X178850000Y-129220000D01*
X175950000Y-129980000D02*
X176710000Y-129220000D01*
%TO.N,/LED_KG*%
X177698100Y-126680000D02*
X176518100Y-127860000D01*
X176518100Y-127860000D02*
X175950000Y-127860000D01*
X178850000Y-126680000D02*
X177698100Y-126680000D01*
%TO.N,Net-(D1-BK)*%
X173950000Y-129980000D02*
X175897000Y-131927000D01*
X175897000Y-131927000D02*
X179007600Y-131927000D01*
X173825000Y-102641500D02*
X173190000Y-102006500D01*
X173190000Y-98230000D02*
X172520000Y-97560000D01*
X172520000Y-97560000D02*
X170750000Y-97560000D01*
X173190000Y-102006500D02*
X173190000Y-98230000D01*
%TO.N,Net-(R11-Pad2)*%
X150250000Y-123710000D02*
X150250000Y-125060000D01*
%TO.N,VCC*%
X160576100Y-138185600D02*
X162023700Y-139633200D01*
X172204400Y-135060000D02*
X172249700Y-135014700D01*
X171580000Y-99160000D02*
X172555000Y-100135000D01*
X173190000Y-136160000D02*
X172204400Y-135174400D01*
X169862500Y-137850300D02*
X169638300Y-137626100D01*
X161450000Y-125060000D02*
X162870000Y-125060000D01*
X175730000Y-121090000D02*
X175730000Y-114560000D01*
X167631200Y-139633200D02*
X169638300Y-137626100D01*
X177125000Y-111440000D02*
X178850000Y-111440000D01*
X158887500Y-138287500D02*
X158989400Y-138185600D01*
X169862500Y-139060000D02*
X169862500Y-137850300D01*
X162870000Y-125060000D02*
X163030000Y-124900000D01*
X162870000Y-125180000D02*
X162870000Y-125060000D01*
X172555000Y-103310000D02*
X172555000Y-103415000D01*
%TO.N,Net-(Q2-S)*%
X160488200Y-142667400D02*
X159961000Y-142667400D01*
X174129000Y-139836000D02*
X174129000Y-138628400D01*
X160882300Y-143061500D02*
X160488200Y-142667400D01*
X157200000Y-143928300D02*
X157200000Y-143475000D01*
X175850000Y-133860000D02*
X174928300Y-134781700D01*
X176212600Y-122442200D02*
X176270400Y-122442200D01*
X175095000Y-111102500D02*
X175095000Y-121324600D01*
X174928300Y-134781700D02*
X174928300Y-135065200D01*
X160850000Y-143924400D02*
X160882300Y-143892100D01*
X173190000Y-140775000D02*
X174129000Y-139836000D01*
X175900000Y-110297500D02*
X175095000Y-111102500D01*
X157510300Y-144238600D02*
X157200000Y-143928300D01*
X173190000Y-142045000D02*
X173190000Y-140775000D01*
%TO.N,GND*%
X131915000Y-134425000D02*
X131915000Y-133595000D01*
X156923800Y-138339600D02*
X157200000Y-138063400D01*
X171920000Y-133790000D02*
X171920000Y-117280000D01*
X154373000Y-134985000D02*
X154372500Y-134985000D01*
X151475000Y-143697500D02*
X150750000Y-143697500D01*
X169862500Y-143860000D02*
X169862500Y-141360000D01*
X155950000Y-140537500D02*
X155325000Y-140537500D01*
X158200000Y-137600000D02*
X158127100Y-137672900D01*
X146601900Y-143613800D02*
X146798100Y-143810000D01*
X152200000Y-142972500D02*
X151475000Y-143697500D01*
X145250000Y-141510000D02*
X146601900Y-141510000D01*
X131915000Y-133595000D02*
X132150000Y-133360000D01*
X155200000Y-140412500D02*
X155200000Y-138339600D01*
X178006900Y-138003100D02*
X173461400Y-138003100D01*
X143912500Y-136010000D02*
X142000000Y-136010000D01*
X146601900Y-141510000D02*
X146601900Y-143613800D01*
X157975300Y-138339600D02*
X157486300Y-138339600D01*
X157652500Y-135346970D02*
X156674735Y-136324735D01*
X148150000Y-143810000D02*
X150637600Y-143810000D01*
X140170000Y-135660000D02*
X140170000Y-135695000D01*
X155950000Y-135110000D02*
X154498000Y-135110000D01*
X157652500Y-134860000D02*
X157652500Y-135346970D01*
X148150000Y-143810000D02*
X146798100Y-143810000D01*
X169862500Y-141360000D02*
X171937500Y-139285000D01*
X153064600Y-138339600D02*
X155200000Y-138339600D01*
X153012500Y-138287500D02*
X153064600Y-138339600D01*
X157484700Y-138338000D02*
X157474600Y-138338000D01*
X142000000Y-137722500D02*
X139950000Y-137722500D01*
X155200000Y-138339600D02*
X156923800Y-138339600D01*
X173461400Y-138003100D02*
X172709400Y-138755100D01*
X157474600Y-138338000D02*
X157200000Y-138063400D01*
X179850000Y-136160000D02*
X178006900Y-138003100D01*
X169773909Y-136010000D02*
X170650000Y-135133909D01*
X142000000Y-137722500D02*
X142000000Y-136010000D01*
X153825000Y-141787500D02*
X153012500Y-141787500D01*
%TO.N,+3.3V*%
X156200000Y-136799470D02*
X156200000Y-137600000D01*
%TO.N,Net-(U2-I0)*%
X134150000Y-133360000D02*
X136150000Y-133360000D01*
X152143856Y-140787500D02*
X151630500Y-140274144D01*
X135090000Y-131885000D02*
X135090000Y-132300000D01*
X135090000Y-132300000D02*
X136150000Y-133360000D01*
%TO.N,Net-(U2-I1)*%
X151600000Y-142369744D02*
X151775000Y-142194744D01*
X136475200Y-132088300D02*
X136150000Y-131763100D01*
X136150000Y-131763100D02*
X136150000Y-130860000D01*
X151775000Y-142194744D02*
X151775000Y-141532500D01*
X151600000Y-142680000D02*
X151600000Y-142369744D01*
X134150000Y-130860000D02*
X136150000Y-130860000D01*
X152020000Y-141287500D02*
X153012500Y-141287500D01*
X151775000Y-141532500D02*
X152020000Y-141287500D01*
%TO.N,Net-(J1-Pin_1)*%
X178850000Y-106360000D02*
X177698100Y-106360000D01*
X175760600Y-104422500D02*
X177698100Y-106360000D01*
X174950000Y-104422500D02*
X175760600Y-104422500D01*
%TO.N,Net-(U2-OSCOUT)*%
X152492385Y-140287500D02*
X151709885Y-139505000D01*
X153012500Y-140287500D02*
X152492385Y-140287500D01*
X151709885Y-139505000D02*
X151199999Y-139505000D01*
X150750000Y-141622500D02*
X150637500Y-141510000D01*
X150750000Y-139954999D02*
X150750000Y-141622500D01*
X151199999Y-139505000D02*
X150750000Y-139954999D01*
%TO.N,Net-(U2-OSCIN)*%
X143345000Y-143315000D02*
X143032500Y-143315000D01*
X143032500Y-143315000D02*
X142650000Y-143697500D01*
X142762500Y-143810000D02*
X145250000Y-143810000D01*
X149281529Y-140140000D02*
X150551529Y-138870000D01*
X144781700Y-140140000D02*
X149281529Y-140140000D01*
X152558071Y-139787500D02*
X153012500Y-139787500D01*
X142650000Y-143697500D02*
X142762500Y-143810000D01*
X150551529Y-138870000D02*
X151640571Y-138870000D01*
X151640571Y-138870000D02*
X152558071Y-139787500D01*
X144615000Y-139973300D02*
X144781700Y-140140000D01*
%TO.N,Net-(U2-VMID)*%
X162886800Y-140251300D02*
X163950000Y-141314500D01*
X150798900Y-138235000D02*
X150798900Y-137964900D01*
X163950000Y-141314500D02*
X163950000Y-141360000D01*
X165912500Y-141360000D02*
X163950000Y-141360000D01*
X154200000Y-137089400D02*
X154200000Y-137600000D01*
%TO.N,Net-(Q1-S)*%
X160232900Y-143326000D02*
X160232900Y-143324400D01*
X176744300Y-106270900D02*
X175926600Y-106270900D01*
X160232900Y-143324400D02*
X160232900Y-143326000D01*
X157308100Y-144640500D02*
X156700000Y-144032400D01*
X160002965Y-143473965D02*
X160002965Y-143554335D01*
X179042800Y-135065200D02*
X179042800Y-134667200D01*
X179042800Y-134667200D02*
X179850000Y-133860000D01*
X175926600Y-106270900D02*
X175900000Y-106297500D01*
X158916800Y-144640500D02*
X157308100Y-144640500D01*
X160002965Y-143554335D02*
X158916800Y-144640500D01*
X156700000Y-144032400D02*
X156700000Y-143475000D01*
%TO.N,Net-(U2-OSCOUT)*%
X150637500Y-141510000D02*
X148150000Y-141510000D01*
%TO.N,/RSTPD_N*%
X174427000Y-137583000D02*
X175850000Y-136160000D01*
X171947200Y-137583000D02*
X174427000Y-137583000D01*
X175850000Y-136160000D02*
X177850000Y-136160000D01*
X158887500Y-139287500D02*
X159501500Y-139287500D01*
X171820400Y-137709800D02*
X171947200Y-137583000D01*
X159827200Y-139613200D02*
X161134700Y-139613200D01*
X159501500Y-139287500D02*
X159827200Y-139613200D01*
%TO.N,Net-(Q2-S)*%
X159961000Y-142667400D02*
X158389800Y-144238600D01*
X158389800Y-144238600D02*
X157510300Y-144238600D01*
X175095000Y-121324600D02*
X176212600Y-122442200D01*
X160882300Y-143892100D02*
X160882300Y-143061500D01*
%TO.N,Net-(D1-GK)*%
X120921000Y-96160000D02*
X116244243Y-96160000D01*
X123825000Y-122242900D02*
X123190000Y-121607900D01*
X116244243Y-96160000D02*
X115150000Y-97254243D01*
X123190000Y-114740000D02*
X123190000Y-121607900D01*
X122555000Y-125535000D02*
X122520000Y-125535000D01*
X122555000Y-126465000D02*
X122555000Y-125535000D01*
X123825000Y-122995000D02*
X123825000Y-122242900D01*
X115150000Y-97254243D02*
X115150000Y-97560000D01*
X123950000Y-127860000D02*
X122555000Y-126465000D01*
%TO.N,Net-(D1-RK)*%
X121920000Y-103820378D02*
X121920000Y-116431471D01*
X121920000Y-116431471D02*
X122520000Y-117031471D01*
X114935000Y-100327879D02*
X116647121Y-102040000D01*
X120139622Y-102040000D02*
X121920000Y-103820378D01*
X115150000Y-99160000D02*
X114935000Y-99375000D01*
X122520000Y-124330000D02*
X123950000Y-125760000D01*
X114935000Y-99375000D02*
X114935000Y-100327879D01*
X122520000Y-117031471D02*
X122520000Y-124330000D01*
X116647121Y-102040000D02*
X120139622Y-102040000D01*
%TO.N,/LED_KR*%
X127570000Y-124140000D02*
X125950000Y-125760000D01*
X128850000Y-124140000D02*
X127570000Y-124140000D01*
%TO.N,Net-(C2-Pad2)*%
X109727500Y-134860000D02*
X109728000Y-134860000D01*
X111912500Y-136010000D02*
X111912000Y-136010000D01*
X111350000Y-134110000D02*
X110961000Y-134499000D01*
X110600000Y-134860000D02*
X110961000Y-134499000D01*
X110878000Y-136010000D02*
X109728000Y-134860000D01*
X111912000Y-136010000D02*
X110878000Y-136010000D01*
X109728000Y-134860000D02*
X110600000Y-134860000D01*
%TO.N,Net-(U2-RX)*%
X116715900Y-142588400D02*
X113178400Y-142588400D01*
X113178400Y-142588400D02*
X111950000Y-141360000D01*
X101600000Y-138235000D02*
X101600000Y-138153050D01*
X110033386Y-140775000D02*
X110618386Y-141360000D01*
X101600000Y-138153050D02*
X102153050Y-137600000D01*
X102153050Y-137600000D02*
X103700000Y-137600000D01*
X110618386Y-141360000D02*
X111950000Y-141360000D01*
X117987500Y-143860000D02*
X116715900Y-142588400D01*
%TO.N,Net-(C8-Pad1)*%
X115912500Y-143860000D02*
X113950000Y-143860000D01*
%TO.N,+3.3V*%
X89950000Y-143897500D02*
X90142500Y-143897500D01*
X123897265Y-120527265D02*
X123897265Y-119462735D01*
X104700000Y-143475000D02*
X104700000Y-144485000D01*
X123897265Y-119462735D02*
X124000000Y-119360000D01*
X123916800Y-110214300D02*
X124000000Y-110297500D01*
X124725800Y-132984200D02*
X124910400Y-132799600D01*
X121937500Y-143860000D02*
X121937500Y-144542500D01*
X88095000Y-135660000D02*
X88095000Y-137942500D01*
X108887500Y-138787500D02*
X109852600Y-138787500D01*
X89714500Y-139797500D02*
X88431300Y-141080700D01*
X88150000Y-134346200D02*
X88150000Y-133360000D01*
X88150000Y-134346200D02*
X90703300Y-134346200D01*
X124000000Y-106297500D02*
X123916800Y-106380700D01*
X124000000Y-119360000D02*
X124000000Y-110297500D01*
%TO.N,/SENS_DET*%
X109220000Y-123630000D02*
X109220000Y-124830000D01*
X109220000Y-124830000D02*
X109450000Y-125060000D01*
%TO.N,+3.3V*%
X104700000Y-144485000D02*
X104775000Y-144560000D01*
X123850000Y-133860000D02*
X124725800Y-132984200D01*
X89950000Y-139797500D02*
X89714500Y-139797500D01*
X88095000Y-135660000D02*
X88150000Y-135605000D01*
X88431300Y-142592400D02*
X89736400Y-143897500D01*
X89736400Y-143897500D02*
X89950000Y-143897500D01*
X126789600Y-132799600D02*
X127850000Y-133860000D01*
X88150000Y-130860000D02*
X88150000Y-133360000D01*
X121937500Y-141360000D02*
X123303800Y-139993700D01*
X88150000Y-135605000D02*
X88150000Y-134346200D01*
X89950000Y-139797500D02*
X92000000Y-139797500D01*
X123668500Y-131927000D02*
X124725800Y-132984200D01*
X123916800Y-106380700D02*
X123916800Y-110214300D01*
X121937500Y-141360000D02*
X121937500Y-143860000D01*
X105570265Y-136169735D02*
X106200000Y-136799470D01*
X124910400Y-132799600D02*
X126789600Y-132799600D01*
X88431300Y-141080700D02*
X88431300Y-142592400D01*
X121937500Y-144542500D02*
X121920000Y-144560000D01*
%TO.N,GND*%
X105950000Y-135060000D02*
X105950000Y-135110000D01*
X90520000Y-136010000D02*
X90170000Y-135660000D01*
X94574100Y-141510000D02*
X93898100Y-141510000D01*
X105200000Y-138339600D02*
X105200000Y-137600000D01*
X100637600Y-143810000D02*
X100637600Y-143809900D01*
X117987500Y-136010000D02*
X119773909Y-136010000D01*
X93898100Y-139620500D02*
X93898100Y-141510000D01*
X107652000Y-134860000D02*
X107527000Y-134985000D01*
X108200000Y-137600000D02*
X110419400Y-137600000D01*
X92650000Y-141622500D02*
X93785600Y-141622500D01*
X90150000Y-141622500D02*
X92650000Y-141622500D01*
X82550000Y-135060000D02*
X81915000Y-134425000D01*
X118873400Y-136010000D02*
X117987500Y-136010000D01*
X121937500Y-139060000D02*
X122242400Y-138755100D01*
X102492500Y-141787500D02*
X102200000Y-142080000D01*
%TO.N,Net-(C1-Pad1)*%
X101300000Y-134860000D02*
X100939000Y-134499000D01*
X99988000Y-136010000D02*
X101022000Y-136010000D01*
X100550000Y-134110000D02*
X100939000Y-134499000D01*
X102172500Y-134860000D02*
X102172000Y-134860000D01*
X102172000Y-134860000D02*
X101300000Y-134860000D01*
X99987500Y-136010000D02*
X99988000Y-136010000D01*
X101022000Y-136010000D02*
X102172000Y-134860000D01*
%TO.N,Net-(U2-I0)*%
X103012500Y-140787500D02*
X102143856Y-140787500D01*
%TO.N,VCC*%
X108989400Y-138185600D02*
X110576100Y-138185600D01*
X112023700Y-139633200D02*
X117631200Y-139633200D01*
X123190000Y-111565000D02*
X123190000Y-112200000D01*
X126365000Y-112200000D02*
X127125000Y-111440000D01*
X122204400Y-135174400D02*
X122204400Y-135060000D01*
X125730000Y-114560000D02*
X128850000Y-111440000D01*
X122555000Y-103310000D02*
X122555000Y-110930000D01*
X120750000Y-99160000D02*
X121580000Y-99160000D01*
X122555000Y-110930000D02*
X123190000Y-111565000D01*
X122555000Y-100135000D02*
X122555000Y-103310000D01*
%TO.N,+3.3V*%
X88095000Y-137942500D02*
X89950000Y-139797500D01*
X123303800Y-139993700D02*
X123303800Y-139020900D01*
X90142500Y-143897500D02*
X90805000Y-144560000D01*
%TO.N,/SENS_LED*%
X102250000Y-125550000D02*
X102870000Y-126170000D01*
X102250000Y-125060000D02*
X102250000Y-125550000D01*
%TO.N,Net-(J1-Pin_2)*%
X127698100Y-108900000D02*
X127220600Y-108422500D01*
X128850000Y-108900000D02*
X127698100Y-108900000D01*
X127220600Y-108422500D02*
X124950000Y-108422500D01*
%TO.N,Net-(R11-Pad2)*%
X100330000Y-123630000D02*
X100250000Y-123710000D01*
%TO.N,GND*%
X102200000Y-142080000D02*
X102200000Y-142972500D01*
X122242400Y-138755100D02*
X122709400Y-138755100D01*
X90170000Y-135695000D02*
X89535000Y-136330000D01*
X103012500Y-141787500D02*
X102492500Y-141787500D01*
X122709400Y-138755100D02*
X121618500Y-138755100D01*
X104373000Y-134985000D02*
X104248000Y-134860000D01*
X117225000Y-137795743D02*
X117225000Y-136772500D01*
X107402000Y-135110000D02*
X105950000Y-135110000D01*
X107200000Y-138063400D02*
X107200000Y-137600000D01*
X110419400Y-137600000D02*
X110654100Y-137365300D01*
X120650000Y-135133909D02*
X120650000Y-135060000D01*
X105325000Y-140537500D02*
X105200000Y-140412500D01*
X93785600Y-141622500D02*
X93898100Y-141510000D01*
X120650000Y-135060000D02*
X121920000Y-133790000D01*
X117987500Y-141360000D02*
X119862500Y-141360000D01*
X105200000Y-140412500D02*
X103825000Y-141787500D01*
X94574100Y-141510000D02*
X95250000Y-141510000D01*
X108127100Y-137672900D02*
X108127100Y-138187800D01*
X93898000Y-139620500D02*
X93898100Y-139620500D01*
X117225000Y-136772500D02*
X117987500Y-136010000D01*
X107527000Y-134985000D02*
X107402000Y-135110000D01*
X92000000Y-136010000D02*
X90520000Y-136010000D01*
X107486300Y-138339600D02*
X107484700Y-138338000D01*
X92389100Y-136010000D02*
X93912500Y-136010000D01*
X104498000Y-135110000D02*
X104373000Y-134985000D01*
X108127100Y-138187800D02*
X107975300Y-138339600D01*
X121937500Y-139285000D02*
X121937500Y-139060000D01*
X107527500Y-134985000D02*
X107652500Y-134860000D01*
X100637600Y-143809900D02*
X100750000Y-143697500D01*
X104372500Y-134985000D02*
X104247500Y-134860000D01*
X92000000Y-137722500D02*
X93898000Y-139620500D01*
X121618500Y-138755100D02*
X118873400Y-136010000D01*
X107527000Y-134985000D02*
X107527500Y-134985000D01*
X82150000Y-133360000D02*
X82150000Y-130860000D01*
X89950000Y-141822500D02*
X90150000Y-141622500D01*
%TO.N,Net-(C3-Pad1)*%
X95788000Y-138169500D02*
X95788000Y-137598000D01*
X95788000Y-137598000D02*
X95787500Y-137598500D01*
X95988000Y-136010000D02*
X97912000Y-136010000D01*
X95987600Y-136010000D02*
X95987800Y-136010200D01*
X97912500Y-136010000D02*
X97912000Y-136010000D01*
X95788000Y-138360000D02*
X95788000Y-138169500D01*
X111778700Y-143688700D02*
X111778700Y-142633500D01*
X95987500Y-136010000D02*
X95987600Y-136010000D01*
X111950000Y-143860000D02*
X111778700Y-143688700D01*
X95987800Y-136010200D02*
X95988000Y-136010000D01*
X95788000Y-136210000D02*
X95987800Y-136010200D01*
X97869765Y-138702635D02*
X97336630Y-138169500D01*
X97336630Y-138169500D02*
X95788000Y-138169500D01*
X95787500Y-137598500D02*
X95787500Y-138360000D01*
X95788000Y-137598000D02*
X95788000Y-136210000D01*
%TO.N,Net-(U2-VMID)*%
X103946100Y-136835500D02*
X104200000Y-137089400D01*
X101928300Y-136835500D02*
X103946100Y-136835500D01*
X100798900Y-137964900D02*
X101928300Y-136835500D01*
%TO.N,Net-(U2-TX2)*%
X105700000Y-137148000D02*
X105700000Y-137600000D01*
X99509000Y-138360000D02*
X101539000Y-136330000D01*
X99112000Y-138360000D02*
X99112500Y-138360000D01*
X101539000Y-136330000D02*
X104882000Y-136330000D01*
X99112500Y-138360000D02*
X99509000Y-138360000D01*
X104882000Y-136330000D02*
X105700000Y-137148000D01*
%TO.N,Net-(U2-TX1)*%
X112787500Y-138360000D02*
X112662000Y-138360000D01*
X112788000Y-138360000D02*
X112787500Y-138360000D01*
X110632000Y-136330000D02*
X107518000Y-136330000D01*
X107518000Y-136330000D02*
X106700000Y-137148000D01*
X106700000Y-137148000D02*
X106700000Y-137600000D01*
X112662000Y-138360000D02*
X110632000Y-136330000D01*
%TO.N,Net-(C4-Pad1)*%
X116112000Y-136210000D02*
X115912300Y-136010200D01*
X116112500Y-137598500D02*
X116112500Y-138360000D01*
X116112000Y-137598000D02*
X116112000Y-136210000D01*
X115912300Y-136010200D02*
X115912000Y-136010000D01*
X116112000Y-137598000D02*
X116112500Y-137598500D01*
X115912500Y-136010000D02*
X115912300Y-136010200D01*
X113987500Y-136010000D02*
X113988000Y-136010000D01*
X115912000Y-136010000D02*
X113988000Y-136010000D01*
X116112000Y-138360000D02*
X116112000Y-137598000D01*
%TO.N,/LED_KB*%
X126710000Y-129220000D02*
X128850000Y-129220000D01*
X125950000Y-129980000D02*
X126710000Y-129220000D01*
%TO.N,/LED_KG*%
X127698100Y-126680000D02*
X126518100Y-127860000D01*
X126518100Y-127860000D02*
X125950000Y-127860000D01*
X128850000Y-126680000D02*
X127698100Y-126680000D01*
%TO.N,Net-(D1-BK)*%
X123950000Y-129980000D02*
X125897000Y-131927000D01*
X125897000Y-131927000D02*
X129007600Y-131927000D01*
X123825000Y-102641500D02*
X123190000Y-102006500D01*
X123190000Y-98230000D02*
X122520000Y-97560000D01*
X122520000Y-97560000D02*
X120750000Y-97560000D01*
X123190000Y-102006500D02*
X123190000Y-98230000D01*
%TO.N,Net-(R11-Pad2)*%
X100250000Y-123710000D02*
X100250000Y-125060000D01*
%TO.N,VCC*%
X110576100Y-138185600D02*
X112023700Y-139633200D01*
X122204400Y-135060000D02*
X122249700Y-135014700D01*
X121580000Y-99160000D02*
X122555000Y-100135000D01*
X123190000Y-136160000D02*
X122204400Y-135174400D01*
X119862500Y-137850300D02*
X119638300Y-137626100D01*
X111450000Y-125060000D02*
X112870000Y-125060000D01*
X125730000Y-121090000D02*
X125730000Y-114560000D01*
X117631200Y-139633200D02*
X119638300Y-137626100D01*
X127125000Y-111440000D02*
X128850000Y-111440000D01*
X108887500Y-138287500D02*
X108989400Y-138185600D01*
X119862500Y-139060000D02*
X119862500Y-137850300D01*
X112870000Y-125060000D02*
X113030000Y-124900000D01*
X112870000Y-125180000D02*
X112870000Y-125060000D01*
X122555000Y-103310000D02*
X122555000Y-103415000D01*
%TO.N,Net-(Q2-S)*%
X110488200Y-142667400D02*
X109961000Y-142667400D01*
X124129000Y-139836000D02*
X124129000Y-138628400D01*
X110882300Y-143061500D02*
X110488200Y-142667400D01*
X107200000Y-143928300D02*
X107200000Y-143475000D01*
X125850000Y-133860000D02*
X124928300Y-134781700D01*
X126212600Y-122442200D02*
X126270400Y-122442200D01*
X125095000Y-111102500D02*
X125095000Y-121324600D01*
X124928300Y-134781700D02*
X124928300Y-135065200D01*
X110850000Y-143924400D02*
X110882300Y-143892100D01*
X123190000Y-140775000D02*
X124129000Y-139836000D01*
X125900000Y-110297500D02*
X125095000Y-111102500D01*
X107510300Y-144238600D02*
X107200000Y-143928300D01*
X123190000Y-142045000D02*
X123190000Y-140775000D01*
%TO.N,GND*%
X81915000Y-134425000D02*
X81915000Y-133595000D01*
X106923800Y-138339600D02*
X107200000Y-138063400D01*
X121920000Y-133790000D02*
X121920000Y-117280000D01*
X104373000Y-134985000D02*
X104372500Y-134985000D01*
X101475000Y-143697500D02*
X100750000Y-143697500D01*
X119862500Y-143860000D02*
X119862500Y-141360000D01*
X105950000Y-140537500D02*
X105325000Y-140537500D01*
X108200000Y-137600000D02*
X108127100Y-137672900D01*
X96601900Y-143613800D02*
X96798100Y-143810000D01*
X102200000Y-142972500D02*
X101475000Y-143697500D01*
X95250000Y-141510000D02*
X96601900Y-141510000D01*
X81915000Y-133595000D02*
X82150000Y-133360000D01*
X105200000Y-140412500D02*
X105200000Y-138339600D01*
X128006900Y-138003100D02*
X123461400Y-138003100D01*
X93912500Y-136010000D02*
X92000000Y-136010000D01*
X96601900Y-141510000D02*
X96601900Y-143613800D01*
X107975300Y-138339600D02*
X107486300Y-138339600D01*
X107652500Y-135346970D02*
X106674735Y-136324735D01*
X98150000Y-143810000D02*
X100637600Y-143810000D01*
X90170000Y-135660000D02*
X90170000Y-135695000D01*
X105950000Y-135110000D02*
X104498000Y-135110000D01*
X107652500Y-134860000D02*
X107652500Y-135346970D01*
X98150000Y-143810000D02*
X96798100Y-143810000D01*
X119862500Y-141360000D02*
X121937500Y-139285000D01*
X103064600Y-138339600D02*
X105200000Y-138339600D01*
X103012500Y-138287500D02*
X103064600Y-138339600D01*
X107484700Y-138338000D02*
X107474600Y-138338000D01*
X92000000Y-137722500D02*
X89950000Y-137722500D01*
X105200000Y-138339600D02*
X106923800Y-138339600D01*
X123461400Y-138003100D02*
X122709400Y-138755100D01*
X107474600Y-138338000D02*
X107200000Y-138063400D01*
X129850000Y-136160000D02*
X128006900Y-138003100D01*
X119773909Y-136010000D02*
X120650000Y-135133909D01*
X92000000Y-137722500D02*
X92000000Y-136010000D01*
X103825000Y-141787500D02*
X103012500Y-141787500D01*
%TO.N,+3.3V*%
X106200000Y-136799470D02*
X106200000Y-137600000D01*
%TO.N,Net-(U2-I0)*%
X84150000Y-133360000D02*
X86150000Y-133360000D01*
X102143856Y-140787500D02*
X101630500Y-140274144D01*
X85090000Y-131885000D02*
X85090000Y-132300000D01*
X85090000Y-132300000D02*
X86150000Y-133360000D01*
%TO.N,Net-(U2-I1)*%
X101600000Y-142369744D02*
X101775000Y-142194744D01*
X86475200Y-132088300D02*
X86150000Y-131763100D01*
X86150000Y-131763100D02*
X86150000Y-130860000D01*
X101775000Y-142194744D02*
X101775000Y-141532500D01*
X101600000Y-142680000D02*
X101600000Y-142369744D01*
X84150000Y-130860000D02*
X86150000Y-130860000D01*
X102020000Y-141287500D02*
X103012500Y-141287500D01*
X101775000Y-141532500D02*
X102020000Y-141287500D01*
%TO.N,Net-(J1-Pin_1)*%
X128850000Y-106360000D02*
X127698100Y-106360000D01*
X125760600Y-104422500D02*
X127698100Y-106360000D01*
X124950000Y-104422500D02*
X125760600Y-104422500D01*
%TO.N,Net-(U2-OSCOUT)*%
X102492385Y-140287500D02*
X101709885Y-139505000D01*
X103012500Y-140287500D02*
X102492385Y-140287500D01*
X101709885Y-139505000D02*
X101199999Y-139505000D01*
X100750000Y-141622500D02*
X100637500Y-141510000D01*
X100750000Y-139954999D02*
X100750000Y-141622500D01*
X101199999Y-139505000D02*
X100750000Y-139954999D01*
%TO.N,Net-(U2-OSCIN)*%
X93345000Y-143315000D02*
X93032500Y-143315000D01*
X93032500Y-143315000D02*
X92650000Y-143697500D01*
X92762500Y-143810000D02*
X95250000Y-143810000D01*
X99281529Y-140140000D02*
X100551529Y-138870000D01*
X94781700Y-140140000D02*
X99281529Y-140140000D01*
X102558071Y-139787500D02*
X103012500Y-139787500D01*
X92650000Y-143697500D02*
X92762500Y-143810000D01*
X100551529Y-138870000D02*
X101640571Y-138870000D01*
X101640571Y-138870000D02*
X102558071Y-139787500D01*
X94615000Y-139973300D02*
X94781700Y-140140000D01*
%TO.N,Net-(U2-VMID)*%
X112886800Y-140251300D02*
X113950000Y-141314500D01*
X100798900Y-138235000D02*
X100798900Y-137964900D01*
X113950000Y-141314500D02*
X113950000Y-141360000D01*
X115912500Y-141360000D02*
X113950000Y-141360000D01*
X104200000Y-137089400D02*
X104200000Y-137600000D01*
%TO.N,Net-(Q1-S)*%
X110232900Y-143326000D02*
X110232900Y-143324400D01*
X126744300Y-106270900D02*
X125926600Y-106270900D01*
X110232900Y-143324400D02*
X110232900Y-143326000D01*
X107308100Y-144640500D02*
X106700000Y-144032400D01*
X110002965Y-143473965D02*
X110002965Y-143554335D01*
X129042800Y-135065200D02*
X129042800Y-134667200D01*
X129042800Y-134667200D02*
X129850000Y-133860000D01*
X125926600Y-106270900D02*
X125900000Y-106297500D01*
X108916800Y-144640500D02*
X107308100Y-144640500D01*
X110002965Y-143554335D02*
X108916800Y-144640500D01*
X106700000Y-144032400D02*
X106700000Y-143475000D01*
%TO.N,Net-(U2-OSCOUT)*%
X100637500Y-141510000D02*
X98150000Y-141510000D01*
%TO.N,/RSTPD_N*%
X124427000Y-137583000D02*
X125850000Y-136160000D01*
X121947200Y-137583000D02*
X124427000Y-137583000D01*
X125850000Y-136160000D02*
X127850000Y-136160000D01*
X108887500Y-139287500D02*
X109501500Y-139287500D01*
X121820400Y-137709800D02*
X121947200Y-137583000D01*
X109827200Y-139613200D02*
X111134700Y-139613200D01*
X109501500Y-139287500D02*
X109827200Y-139613200D01*
%TO.N,Net-(Q2-S)*%
X109961000Y-142667400D02*
X108389800Y-144238600D01*
X108389800Y-144238600D02*
X107510300Y-144238600D01*
X125095000Y-121324600D02*
X126212600Y-122442200D01*
X110882300Y-143892100D02*
X110882300Y-143061500D01*
%TO.N,Net-(D1-GK)*%
X170921000Y-46160000D02*
X166244243Y-46160000D01*
X173825000Y-72242900D02*
X173190000Y-71607900D01*
X166244243Y-46160000D02*
X165150000Y-47254243D01*
X173190000Y-64740000D02*
X173190000Y-71607900D01*
X172555000Y-75535000D02*
X172520000Y-75535000D01*
X172555000Y-76465000D02*
X172555000Y-75535000D01*
X173825000Y-72995000D02*
X173825000Y-72242900D01*
X165150000Y-47254243D02*
X165150000Y-47560000D01*
X173950000Y-77860000D02*
X172555000Y-76465000D01*
%TO.N,Net-(D1-RK)*%
X171920000Y-53820378D02*
X171920000Y-66431471D01*
X171920000Y-66431471D02*
X172520000Y-67031471D01*
X164935000Y-50327879D02*
X166647121Y-52040000D01*
X170139622Y-52040000D02*
X171920000Y-53820378D01*
X165150000Y-49160000D02*
X164935000Y-49375000D01*
X172520000Y-74330000D02*
X173950000Y-75760000D01*
X164935000Y-49375000D02*
X164935000Y-50327879D01*
X172520000Y-67031471D02*
X172520000Y-74330000D01*
X166647121Y-52040000D02*
X170139622Y-52040000D01*
%TO.N,/LED_KR*%
X177570000Y-74140000D02*
X175950000Y-75760000D01*
X178850000Y-74140000D02*
X177570000Y-74140000D01*
%TO.N,Net-(C2-Pad2)*%
X159727500Y-84860000D02*
X159728000Y-84860000D01*
X161912500Y-86010000D02*
X161912000Y-86010000D01*
X161350000Y-84110000D02*
X160961000Y-84499000D01*
X160600000Y-84860000D02*
X160961000Y-84499000D01*
X160878000Y-86010000D02*
X159728000Y-84860000D01*
X161912000Y-86010000D02*
X160878000Y-86010000D01*
X159728000Y-84860000D02*
X160600000Y-84860000D01*
%TO.N,Net-(U2-RX)*%
X166715900Y-92588400D02*
X163178400Y-92588400D01*
X163178400Y-92588400D02*
X161950000Y-91360000D01*
X151600000Y-88235000D02*
X151600000Y-88153050D01*
X160033386Y-90775000D02*
X160618386Y-91360000D01*
X151600000Y-88153050D02*
X152153050Y-87600000D01*
X152153050Y-87600000D02*
X153700000Y-87600000D01*
X160618386Y-91360000D02*
X161950000Y-91360000D01*
X167987500Y-93860000D02*
X166715900Y-92588400D01*
%TO.N,Net-(C8-Pad1)*%
X165912500Y-93860000D02*
X163950000Y-93860000D01*
%TO.N,+3.3V*%
X139950000Y-93897500D02*
X140142500Y-93897500D01*
X173897265Y-70527265D02*
X173897265Y-69462735D01*
X154700000Y-93475000D02*
X154700000Y-94485000D01*
X173897265Y-69462735D02*
X174000000Y-69360000D01*
X173916800Y-60214300D02*
X174000000Y-60297500D01*
X174725800Y-82984200D02*
X174910400Y-82799600D01*
X171937500Y-93860000D02*
X171937500Y-94542500D01*
X138095000Y-85660000D02*
X138095000Y-87942500D01*
X158887500Y-88787500D02*
X159852600Y-88787500D01*
X139714500Y-89797500D02*
X138431300Y-91080700D01*
X138150000Y-84346200D02*
X138150000Y-83360000D01*
X138150000Y-84346200D02*
X140703300Y-84346200D01*
X174000000Y-56297500D02*
X173916800Y-56380700D01*
X174000000Y-69360000D02*
X174000000Y-60297500D01*
%TO.N,/SENS_DET*%
X159220000Y-73630000D02*
X159220000Y-74830000D01*
X159220000Y-74830000D02*
X159450000Y-75060000D01*
%TO.N,+3.3V*%
X154700000Y-94485000D02*
X154775000Y-94560000D01*
X173850000Y-83860000D02*
X174725800Y-82984200D01*
X139950000Y-89797500D02*
X139714500Y-89797500D01*
X138095000Y-85660000D02*
X138150000Y-85605000D01*
X138431300Y-92592400D02*
X139736400Y-93897500D01*
X139736400Y-93897500D02*
X139950000Y-93897500D01*
X176789600Y-82799600D02*
X177850000Y-83860000D01*
X138150000Y-80860000D02*
X138150000Y-83360000D01*
X171937500Y-91360000D02*
X173303800Y-89993700D01*
X138150000Y-85605000D02*
X138150000Y-84346200D01*
X139950000Y-89797500D02*
X142000000Y-89797500D01*
X173668500Y-81927000D02*
X174725800Y-82984200D01*
X173916800Y-56380700D02*
X173916800Y-60214300D01*
X171937500Y-91360000D02*
X171937500Y-93860000D01*
X155570265Y-86169735D02*
X156200000Y-86799470D01*
X174910400Y-82799600D02*
X176789600Y-82799600D01*
X138431300Y-91080700D02*
X138431300Y-92592400D01*
X171937500Y-94542500D02*
X171920000Y-94560000D01*
%TO.N,GND*%
X155950000Y-85060000D02*
X155950000Y-85110000D01*
X140520000Y-86010000D02*
X140170000Y-85660000D01*
X144574100Y-91510000D02*
X143898100Y-91510000D01*
X155200000Y-88339600D02*
X155200000Y-87600000D01*
X150637600Y-93810000D02*
X150637600Y-93809900D01*
X167987500Y-86010000D02*
X169773909Y-86010000D01*
X143898100Y-89620500D02*
X143898100Y-91510000D01*
X157652000Y-84860000D02*
X157527000Y-84985000D01*
X158200000Y-87600000D02*
X160419400Y-87600000D01*
X142650000Y-91622500D02*
X143785600Y-91622500D01*
X140150000Y-91622500D02*
X142650000Y-91622500D01*
X132550000Y-85060000D02*
X131915000Y-84425000D01*
X168873400Y-86010000D02*
X167987500Y-86010000D01*
X171937500Y-89060000D02*
X172242400Y-88755100D01*
X152492500Y-91787500D02*
X152200000Y-92080000D01*
%TO.N,Net-(C1-Pad1)*%
X151300000Y-84860000D02*
X150939000Y-84499000D01*
X149988000Y-86010000D02*
X151022000Y-86010000D01*
X150550000Y-84110000D02*
X150939000Y-84499000D01*
X152172500Y-84860000D02*
X152172000Y-84860000D01*
X152172000Y-84860000D02*
X151300000Y-84860000D01*
X149987500Y-86010000D02*
X149988000Y-86010000D01*
X151022000Y-86010000D02*
X152172000Y-84860000D01*
%TO.N,Net-(U2-I0)*%
X153012500Y-90787500D02*
X152143856Y-90787500D01*
%TO.N,VCC*%
X158989400Y-88185600D02*
X160576100Y-88185600D01*
X162023700Y-89633200D02*
X167631200Y-89633200D01*
X173190000Y-61565000D02*
X173190000Y-62200000D01*
X176365000Y-62200000D02*
X177125000Y-61440000D01*
X172204400Y-85174400D02*
X172204400Y-85060000D01*
X175730000Y-64560000D02*
X178850000Y-61440000D01*
X172555000Y-53310000D02*
X172555000Y-60930000D01*
X170750000Y-49160000D02*
X171580000Y-49160000D01*
X172555000Y-60930000D02*
X173190000Y-61565000D01*
X172555000Y-50135000D02*
X172555000Y-53310000D01*
%TO.N,+3.3V*%
X138095000Y-87942500D02*
X139950000Y-89797500D01*
X173303800Y-89993700D02*
X173303800Y-89020900D01*
X140142500Y-93897500D02*
X140805000Y-94560000D01*
%TO.N,/SENS_LED*%
X152250000Y-75550000D02*
X152870000Y-76170000D01*
X152250000Y-75060000D02*
X152250000Y-75550000D01*
%TO.N,Net-(J1-Pin_2)*%
X177698100Y-58900000D02*
X177220600Y-58422500D01*
X178850000Y-58900000D02*
X177698100Y-58900000D01*
X177220600Y-58422500D02*
X174950000Y-58422500D01*
%TO.N,Net-(R11-Pad2)*%
X150330000Y-73630000D02*
X150250000Y-73710000D01*
%TO.N,GND*%
X152200000Y-92080000D02*
X152200000Y-92972500D01*
X172242400Y-88755100D02*
X172709400Y-88755100D01*
X140170000Y-85695000D02*
X139535000Y-86330000D01*
X153012500Y-91787500D02*
X152492500Y-91787500D01*
X172709400Y-88755100D02*
X171618500Y-88755100D01*
X154373000Y-84985000D02*
X154248000Y-84860000D01*
X167225000Y-87795743D02*
X167225000Y-86772500D01*
X157402000Y-85110000D02*
X155950000Y-85110000D01*
X157200000Y-88063400D02*
X157200000Y-87600000D01*
X160419400Y-87600000D02*
X160654100Y-87365300D01*
X170650000Y-85133909D02*
X170650000Y-85060000D01*
X155325000Y-90537500D02*
X155200000Y-90412500D01*
X143785600Y-91622500D02*
X143898100Y-91510000D01*
X170650000Y-85060000D02*
X171920000Y-83790000D01*
X167987500Y-91360000D02*
X169862500Y-91360000D01*
X155200000Y-90412500D02*
X153825000Y-91787500D01*
X144574100Y-91510000D02*
X145250000Y-91510000D01*
X158127100Y-87672900D02*
X158127100Y-88187800D01*
X143898000Y-89620500D02*
X143898100Y-89620500D01*
X167225000Y-86772500D02*
X167987500Y-86010000D01*
X157527000Y-84985000D02*
X157402000Y-85110000D01*
X142000000Y-86010000D02*
X140520000Y-86010000D01*
X157486300Y-88339600D02*
X157484700Y-88338000D01*
X142389100Y-86010000D02*
X143912500Y-86010000D01*
X154498000Y-85110000D02*
X154373000Y-84985000D01*
X158127100Y-88187800D02*
X157975300Y-88339600D01*
X171937500Y-89285000D02*
X171937500Y-89060000D01*
X157527500Y-84985000D02*
X157652500Y-84860000D01*
X150637600Y-93809900D02*
X150750000Y-93697500D01*
X154372500Y-84985000D02*
X154247500Y-84860000D01*
X142000000Y-87722500D02*
X143898000Y-89620500D01*
X171618500Y-88755100D02*
X168873400Y-86010000D01*
X157527000Y-84985000D02*
X157527500Y-84985000D01*
X132150000Y-83360000D02*
X132150000Y-80860000D01*
X139950000Y-91822500D02*
X140150000Y-91622500D01*
%TO.N,Net-(C3-Pad1)*%
X145788000Y-88169500D02*
X145788000Y-87598000D01*
X145788000Y-87598000D02*
X145787500Y-87598500D01*
X145988000Y-86010000D02*
X147912000Y-86010000D01*
X145987600Y-86010000D02*
X145987800Y-86010200D01*
X147912500Y-86010000D02*
X147912000Y-86010000D01*
X145788000Y-88360000D02*
X145788000Y-88169500D01*
X161778700Y-93688700D02*
X161778700Y-92633500D01*
X145987500Y-86010000D02*
X145987600Y-86010000D01*
X161950000Y-93860000D02*
X161778700Y-93688700D01*
X145987800Y-86010200D02*
X145988000Y-86010000D01*
X145788000Y-86210000D02*
X145987800Y-86010200D01*
X147869765Y-88702635D02*
X147336630Y-88169500D01*
X147336630Y-88169500D02*
X145788000Y-88169500D01*
X145787500Y-87598500D02*
X145787500Y-88360000D01*
X145788000Y-87598000D02*
X145788000Y-86210000D01*
%TO.N,Net-(U2-VMID)*%
X153946100Y-86835500D02*
X154200000Y-87089400D01*
X151928300Y-86835500D02*
X153946100Y-86835500D01*
X150798900Y-87964900D02*
X151928300Y-86835500D01*
%TO.N,Net-(U2-TX2)*%
X155700000Y-87148000D02*
X155700000Y-87600000D01*
X149509000Y-88360000D02*
X151539000Y-86330000D01*
X149112000Y-88360000D02*
X149112500Y-88360000D01*
X151539000Y-86330000D02*
X154882000Y-86330000D01*
X149112500Y-88360000D02*
X149509000Y-88360000D01*
X154882000Y-86330000D02*
X155700000Y-87148000D01*
%TO.N,Net-(U2-TX1)*%
X162787500Y-88360000D02*
X162662000Y-88360000D01*
X162788000Y-88360000D02*
X162787500Y-88360000D01*
X160632000Y-86330000D02*
X157518000Y-86330000D01*
X157518000Y-86330000D02*
X156700000Y-87148000D01*
X156700000Y-87148000D02*
X156700000Y-87600000D01*
X162662000Y-88360000D02*
X160632000Y-86330000D01*
%TO.N,Net-(C4-Pad1)*%
X166112000Y-86210000D02*
X165912300Y-86010200D01*
X166112500Y-87598500D02*
X166112500Y-88360000D01*
X166112000Y-87598000D02*
X166112000Y-86210000D01*
X165912300Y-86010200D02*
X165912000Y-86010000D01*
X166112000Y-87598000D02*
X166112500Y-87598500D01*
X165912500Y-86010000D02*
X165912300Y-86010200D01*
X163987500Y-86010000D02*
X163988000Y-86010000D01*
X165912000Y-86010000D02*
X163988000Y-86010000D01*
X166112000Y-88360000D02*
X166112000Y-87598000D01*
%TO.N,/LED_KB*%
X176710000Y-79220000D02*
X178850000Y-79220000D01*
X175950000Y-79980000D02*
X176710000Y-79220000D01*
%TO.N,/LED_KG*%
X177698100Y-76680000D02*
X176518100Y-77860000D01*
X176518100Y-77860000D02*
X175950000Y-77860000D01*
X178850000Y-76680000D02*
X177698100Y-76680000D01*
%TO.N,Net-(D1-BK)*%
X173950000Y-79980000D02*
X175897000Y-81927000D01*
X175897000Y-81927000D02*
X179007600Y-81927000D01*
X173825000Y-52641500D02*
X173190000Y-52006500D01*
X173190000Y-48230000D02*
X172520000Y-47560000D01*
X172520000Y-47560000D02*
X170750000Y-47560000D01*
X173190000Y-52006500D02*
X173190000Y-48230000D01*
%TO.N,Net-(R11-Pad2)*%
X150250000Y-73710000D02*
X150250000Y-75060000D01*
%TO.N,VCC*%
X160576100Y-88185600D02*
X162023700Y-89633200D01*
X172204400Y-85060000D02*
X172249700Y-85014700D01*
X171580000Y-49160000D02*
X172555000Y-50135000D01*
X173190000Y-86160000D02*
X172204400Y-85174400D01*
X169862500Y-87850300D02*
X169638300Y-87626100D01*
X161450000Y-75060000D02*
X162870000Y-75060000D01*
X175730000Y-71090000D02*
X175730000Y-64560000D01*
X167631200Y-89633200D02*
X169638300Y-87626100D01*
X177125000Y-61440000D02*
X178850000Y-61440000D01*
X158887500Y-88287500D02*
X158989400Y-88185600D01*
X169862500Y-89060000D02*
X169862500Y-87850300D01*
X162870000Y-75060000D02*
X163030000Y-74900000D01*
X162870000Y-75180000D02*
X162870000Y-75060000D01*
X172555000Y-53310000D02*
X172555000Y-53415000D01*
%TO.N,Net-(Q2-S)*%
X160488200Y-92667400D02*
X159961000Y-92667400D01*
X174129000Y-89836000D02*
X174129000Y-88628400D01*
X160882300Y-93061500D02*
X160488200Y-92667400D01*
X157200000Y-93928300D02*
X157200000Y-93475000D01*
X175850000Y-83860000D02*
X174928300Y-84781700D01*
X176212600Y-72442200D02*
X176270400Y-72442200D01*
X175095000Y-61102500D02*
X175095000Y-71324600D01*
X174928300Y-84781700D02*
X174928300Y-85065200D01*
X160850000Y-93924400D02*
X160882300Y-93892100D01*
X173190000Y-90775000D02*
X174129000Y-89836000D01*
X175900000Y-60297500D02*
X175095000Y-61102500D01*
X157510300Y-94238600D02*
X157200000Y-93928300D01*
X173190000Y-92045000D02*
X173190000Y-90775000D01*
%TO.N,GND*%
X131915000Y-84425000D02*
X131915000Y-83595000D01*
X156923800Y-88339600D02*
X157200000Y-88063400D01*
X171920000Y-83790000D02*
X171920000Y-67280000D01*
X154373000Y-84985000D02*
X154372500Y-84985000D01*
X151475000Y-93697500D02*
X150750000Y-93697500D01*
X169862500Y-93860000D02*
X169862500Y-91360000D01*
X155950000Y-90537500D02*
X155325000Y-90537500D01*
X158200000Y-87600000D02*
X158127100Y-87672900D01*
X146601900Y-93613800D02*
X146798100Y-93810000D01*
X152200000Y-92972500D02*
X151475000Y-93697500D01*
X145250000Y-91510000D02*
X146601900Y-91510000D01*
X131915000Y-83595000D02*
X132150000Y-83360000D01*
X155200000Y-90412500D02*
X155200000Y-88339600D01*
X178006900Y-88003100D02*
X173461400Y-88003100D01*
X143912500Y-86010000D02*
X142000000Y-86010000D01*
X146601900Y-91510000D02*
X146601900Y-93613800D01*
X157975300Y-88339600D02*
X157486300Y-88339600D01*
X157652500Y-85346970D02*
X156674735Y-86324735D01*
X148150000Y-93810000D02*
X150637600Y-93810000D01*
X140170000Y-85660000D02*
X140170000Y-85695000D01*
X155950000Y-85110000D02*
X154498000Y-85110000D01*
X157652500Y-84860000D02*
X157652500Y-85346970D01*
X148150000Y-93810000D02*
X146798100Y-93810000D01*
X169862500Y-91360000D02*
X171937500Y-89285000D01*
X153064600Y-88339600D02*
X155200000Y-88339600D01*
X153012500Y-88287500D02*
X153064600Y-88339600D01*
X157484700Y-88338000D02*
X157474600Y-88338000D01*
X142000000Y-87722500D02*
X139950000Y-87722500D01*
X155200000Y-88339600D02*
X156923800Y-88339600D01*
X173461400Y-88003100D02*
X172709400Y-88755100D01*
X157474600Y-88338000D02*
X157200000Y-88063400D01*
X179850000Y-86160000D02*
X178006900Y-88003100D01*
X169773909Y-86010000D02*
X170650000Y-85133909D01*
X142000000Y-87722500D02*
X142000000Y-86010000D01*
X153825000Y-91787500D02*
X153012500Y-91787500D01*
%TO.N,+3.3V*%
X156200000Y-86799470D02*
X156200000Y-87600000D01*
%TO.N,Net-(U2-I0)*%
X134150000Y-83360000D02*
X136150000Y-83360000D01*
X152143856Y-90787500D02*
X151630500Y-90274144D01*
X135090000Y-81885000D02*
X135090000Y-82300000D01*
X135090000Y-82300000D02*
X136150000Y-83360000D01*
%TO.N,Net-(U2-I1)*%
X151600000Y-92369744D02*
X151775000Y-92194744D01*
X136475200Y-82088300D02*
X136150000Y-81763100D01*
X136150000Y-81763100D02*
X136150000Y-80860000D01*
X151775000Y-92194744D02*
X151775000Y-91532500D01*
X151600000Y-92680000D02*
X151600000Y-92369744D01*
X134150000Y-80860000D02*
X136150000Y-80860000D01*
X152020000Y-91287500D02*
X153012500Y-91287500D01*
X151775000Y-91532500D02*
X152020000Y-91287500D01*
%TO.N,Net-(J1-Pin_1)*%
X178850000Y-56360000D02*
X177698100Y-56360000D01*
X175760600Y-54422500D02*
X177698100Y-56360000D01*
X174950000Y-54422500D02*
X175760600Y-54422500D01*
%TO.N,Net-(U2-OSCOUT)*%
X152492385Y-90287500D02*
X151709885Y-89505000D01*
X153012500Y-90287500D02*
X152492385Y-90287500D01*
X151709885Y-89505000D02*
X151199999Y-89505000D01*
X150750000Y-91622500D02*
X150637500Y-91510000D01*
X150750000Y-89954999D02*
X150750000Y-91622500D01*
X151199999Y-89505000D02*
X150750000Y-89954999D01*
%TO.N,Net-(U2-OSCIN)*%
X143345000Y-93315000D02*
X143032500Y-93315000D01*
X143032500Y-93315000D02*
X142650000Y-93697500D01*
X142762500Y-93810000D02*
X145250000Y-93810000D01*
X149281529Y-90140000D02*
X150551529Y-88870000D01*
X144781700Y-90140000D02*
X149281529Y-90140000D01*
X152558071Y-89787500D02*
X153012500Y-89787500D01*
X142650000Y-93697500D02*
X142762500Y-93810000D01*
X150551529Y-88870000D02*
X151640571Y-88870000D01*
X151640571Y-88870000D02*
X152558071Y-89787500D01*
X144615000Y-89973300D02*
X144781700Y-90140000D01*
%TO.N,Net-(U2-VMID)*%
X162886800Y-90251300D02*
X163950000Y-91314500D01*
X150798900Y-88235000D02*
X150798900Y-87964900D01*
X163950000Y-91314500D02*
X163950000Y-91360000D01*
X165912500Y-91360000D02*
X163950000Y-91360000D01*
X154200000Y-87089400D02*
X154200000Y-87600000D01*
%TO.N,Net-(Q1-S)*%
X160232900Y-93326000D02*
X160232900Y-93324400D01*
X176744300Y-56270900D02*
X175926600Y-56270900D01*
X160232900Y-93324400D02*
X160232900Y-93326000D01*
X157308100Y-94640500D02*
X156700000Y-94032400D01*
X160002965Y-93473965D02*
X160002965Y-93554335D01*
X179042800Y-85065200D02*
X179042800Y-84667200D01*
X179042800Y-84667200D02*
X179850000Y-83860000D01*
X175926600Y-56270900D02*
X175900000Y-56297500D01*
X158916800Y-94640500D02*
X157308100Y-94640500D01*
X160002965Y-93554335D02*
X158916800Y-94640500D01*
X156700000Y-94032400D02*
X156700000Y-93475000D01*
%TO.N,Net-(U2-OSCOUT)*%
X150637500Y-91510000D02*
X148150000Y-91510000D01*
%TO.N,/RSTPD_N*%
X174427000Y-87583000D02*
X175850000Y-86160000D01*
X171947200Y-87583000D02*
X174427000Y-87583000D01*
X175850000Y-86160000D02*
X177850000Y-86160000D01*
X158887500Y-89287500D02*
X159501500Y-89287500D01*
X171820400Y-87709800D02*
X171947200Y-87583000D01*
X159827200Y-89613200D02*
X161134700Y-89613200D01*
X159501500Y-89287500D02*
X159827200Y-89613200D01*
%TO.N,Net-(Q2-S)*%
X159961000Y-92667400D02*
X158389800Y-94238600D01*
X158389800Y-94238600D02*
X157510300Y-94238600D01*
X175095000Y-71324600D02*
X176212600Y-72442200D01*
X160882300Y-93892100D02*
X160882300Y-93061500D01*
%TO.N,Net-(J1-Pin_1)*%
X125760600Y-54422500D02*
X127698100Y-56360000D01*
X124950000Y-54422500D02*
X125760600Y-54422500D01*
X128850000Y-56360000D02*
X127698100Y-56360000D01*
%TO.N,Net-(R11-Pad2)*%
X100250000Y-73710000D02*
X100250000Y-75060000D01*
X100330000Y-73630000D02*
X100250000Y-73710000D01*
%TO.N,Net-(J1-Pin_2)*%
X127220600Y-58422500D02*
X124950000Y-58422500D01*
X128850000Y-58900000D02*
X127698100Y-58900000D01*
X127698100Y-58900000D02*
X127220600Y-58422500D01*
%TO.N,/SENS_LED*%
X102250000Y-75060000D02*
X102250000Y-75550000D01*
X102250000Y-75550000D02*
X102870000Y-76170000D01*
%TO.N,+3.3V*%
X90142500Y-93897500D02*
X90805000Y-94560000D01*
X123303800Y-89993700D02*
X123303800Y-89020900D01*
X88095000Y-87942500D02*
X89950000Y-89797500D01*
X106200000Y-86799470D02*
X106200000Y-87600000D01*
X121937500Y-94542500D02*
X121920000Y-94560000D01*
X88431300Y-91080700D02*
X88431300Y-92592400D01*
X124910400Y-82799600D02*
X126789600Y-82799600D01*
X105570265Y-86169735D02*
X106200000Y-86799470D01*
X121937500Y-91360000D02*
X121937500Y-93860000D01*
X123916800Y-56380700D02*
X123916800Y-60214300D01*
X123668500Y-81927000D02*
X124725800Y-82984200D01*
X89950000Y-89797500D02*
X92000000Y-89797500D01*
X88150000Y-85605000D02*
X88150000Y-84346200D01*
X121937500Y-91360000D02*
X123303800Y-89993700D01*
X88150000Y-80860000D02*
X88150000Y-83360000D01*
X126789600Y-82799600D02*
X127850000Y-83860000D01*
X89736400Y-93897500D02*
X89950000Y-93897500D01*
X88431300Y-92592400D02*
X89736400Y-93897500D01*
X88095000Y-85660000D02*
X88150000Y-85605000D01*
X89950000Y-89797500D02*
X89714500Y-89797500D01*
X123850000Y-83860000D02*
X124725800Y-82984200D01*
X104700000Y-94485000D02*
X104775000Y-94560000D01*
X124000000Y-69360000D02*
X124000000Y-60297500D01*
X124000000Y-56297500D02*
X123916800Y-56380700D01*
X88150000Y-84346200D02*
X90703300Y-84346200D01*
X88150000Y-84346200D02*
X88150000Y-83360000D01*
X89714500Y-89797500D02*
X88431300Y-91080700D01*
X108887500Y-88787500D02*
X109852600Y-88787500D01*
X88095000Y-85660000D02*
X88095000Y-87942500D01*
X121937500Y-93860000D02*
X121937500Y-94542500D01*
X124725800Y-82984200D02*
X124910400Y-82799600D01*
X123916800Y-60214300D02*
X124000000Y-60297500D01*
X123897265Y-69462735D02*
X124000000Y-69360000D01*
X104700000Y-93475000D02*
X104700000Y-94485000D01*
X123897265Y-70527265D02*
X123897265Y-69462735D01*
X89950000Y-93897500D02*
X90142500Y-93897500D01*
%TO.N,VCC*%
X122555000Y-50135000D02*
X122555000Y-53310000D01*
X122555000Y-60930000D02*
X123190000Y-61565000D01*
X120750000Y-49160000D02*
X121580000Y-49160000D01*
X122555000Y-53310000D02*
X122555000Y-60930000D01*
X125730000Y-64560000D02*
X128850000Y-61440000D01*
X122204400Y-85174400D02*
X122204400Y-85060000D01*
X126365000Y-62200000D02*
X127125000Y-61440000D01*
X123190000Y-61565000D02*
X123190000Y-62200000D01*
X112023700Y-89633200D02*
X117631200Y-89633200D01*
X108989400Y-88185600D02*
X110576100Y-88185600D01*
X122555000Y-53310000D02*
X122555000Y-53415000D01*
X112870000Y-75180000D02*
X112870000Y-75060000D01*
X112870000Y-75060000D02*
X113030000Y-74900000D01*
X119862500Y-89060000D02*
X119862500Y-87850300D01*
X108887500Y-88287500D02*
X108989400Y-88185600D01*
X127125000Y-61440000D02*
X128850000Y-61440000D01*
X117631200Y-89633200D02*
X119638300Y-87626100D01*
X125730000Y-71090000D02*
X125730000Y-64560000D01*
X111450000Y-75060000D02*
X112870000Y-75060000D01*
X119862500Y-87850300D02*
X119638300Y-87626100D01*
X123190000Y-86160000D02*
X122204400Y-85174400D01*
X121580000Y-49160000D02*
X122555000Y-50135000D01*
X122204400Y-85060000D02*
X122249700Y-85014700D01*
X110576100Y-88185600D02*
X112023700Y-89633200D01*
%TO.N,Net-(U2-OSCIN)*%
X94615000Y-89973300D02*
X94781700Y-90140000D01*
X101640571Y-88870000D02*
X102558071Y-89787500D01*
X100551529Y-88870000D02*
X101640571Y-88870000D01*
X92650000Y-93697500D02*
X92762500Y-93810000D01*
X102558071Y-89787500D02*
X103012500Y-89787500D01*
X94781700Y-90140000D02*
X99281529Y-90140000D01*
X99281529Y-90140000D02*
X100551529Y-88870000D01*
X92762500Y-93810000D02*
X95250000Y-93810000D01*
X93032500Y-93315000D02*
X92650000Y-93697500D01*
X93345000Y-93315000D02*
X93032500Y-93315000D01*
%TO.N,Net-(U2-OSCOUT)*%
X101199999Y-89505000D02*
X100750000Y-89954999D01*
X100750000Y-89954999D02*
X100750000Y-91622500D01*
X100750000Y-91622500D02*
X100637500Y-91510000D01*
X101709885Y-89505000D02*
X101199999Y-89505000D01*
X103012500Y-90287500D02*
X102492385Y-90287500D01*
X102492385Y-90287500D02*
X101709885Y-89505000D01*
X100637500Y-91510000D02*
X98150000Y-91510000D01*
%TO.N,Net-(Q1-S)*%
X106700000Y-94032400D02*
X106700000Y-93475000D01*
X110002965Y-93554335D02*
X108916800Y-94640500D01*
X108916800Y-94640500D02*
X107308100Y-94640500D01*
X125926600Y-56270900D02*
X125900000Y-56297500D01*
X129042800Y-84667200D02*
X129850000Y-83860000D01*
X129042800Y-85065200D02*
X129042800Y-84667200D01*
X110002965Y-93473965D02*
X110002965Y-93554335D01*
X107308100Y-94640500D02*
X106700000Y-94032400D01*
X110232900Y-93324400D02*
X110232900Y-93326000D01*
X126744300Y-56270900D02*
X125926600Y-56270900D01*
X110232900Y-93326000D02*
X110232900Y-93324400D01*
%TO.N,/SENS_DET*%
X109220000Y-74830000D02*
X109450000Y-75060000D01*
X109220000Y-73630000D02*
X109220000Y-74830000D01*
%TO.N,Net-(Q2-S)*%
X123190000Y-92045000D02*
X123190000Y-90775000D01*
X107510300Y-94238600D02*
X107200000Y-93928300D01*
X125900000Y-60297500D02*
X125095000Y-61102500D01*
X123190000Y-90775000D02*
X124129000Y-89836000D01*
X110850000Y-93924400D02*
X110882300Y-93892100D01*
X124928300Y-84781700D02*
X124928300Y-85065200D01*
X125095000Y-61102500D02*
X125095000Y-71324600D01*
X126212600Y-72442200D02*
X126270400Y-72442200D01*
X125850000Y-83860000D02*
X124928300Y-84781700D01*
X107200000Y-93928300D02*
X107200000Y-93475000D01*
X110882300Y-93061500D02*
X110488200Y-92667400D01*
X124129000Y-89836000D02*
X124129000Y-88628400D01*
X110488200Y-92667400D02*
X109961000Y-92667400D01*
X110882300Y-93892100D02*
X110882300Y-93061500D01*
X125095000Y-71324600D02*
X126212600Y-72442200D01*
X108389800Y-94238600D02*
X107510300Y-94238600D01*
X109961000Y-92667400D02*
X108389800Y-94238600D01*
%TO.N,/RSTPD_N*%
X109501500Y-89287500D02*
X109827200Y-89613200D01*
X109827200Y-89613200D02*
X111134700Y-89613200D01*
X121820400Y-87709800D02*
X121947200Y-87583000D01*
X108887500Y-89287500D02*
X109501500Y-89287500D01*
X125850000Y-86160000D02*
X127850000Y-86160000D01*
X121947200Y-87583000D02*
X124427000Y-87583000D01*
X124427000Y-87583000D02*
X125850000Y-86160000D01*
%TO.N,Net-(U2-I1)*%
X101775000Y-91532500D02*
X102020000Y-91287500D01*
X102020000Y-91287500D02*
X103012500Y-91287500D01*
X84150000Y-80860000D02*
X86150000Y-80860000D01*
X101600000Y-92680000D02*
X101600000Y-92369744D01*
X101775000Y-92194744D02*
X101775000Y-91532500D01*
X86150000Y-81763100D02*
X86150000Y-80860000D01*
X86475200Y-82088300D02*
X86150000Y-81763100D01*
X101600000Y-92369744D02*
X101775000Y-92194744D01*
%TO.N,Net-(U2-I0)*%
X85090000Y-82300000D02*
X86150000Y-83360000D01*
X85090000Y-81885000D02*
X85090000Y-82300000D01*
X102143856Y-90787500D02*
X101630500Y-90274144D01*
X84150000Y-83360000D02*
X86150000Y-83360000D01*
X103012500Y-90787500D02*
X102143856Y-90787500D01*
%TO.N,Net-(C1-Pad1)*%
X101022000Y-86010000D02*
X102172000Y-84860000D01*
X99987500Y-86010000D02*
X99988000Y-86010000D01*
X102172000Y-84860000D02*
X101300000Y-84860000D01*
X102172500Y-84860000D02*
X102172000Y-84860000D01*
X100550000Y-84110000D02*
X100939000Y-84499000D01*
X99988000Y-86010000D02*
X101022000Y-86010000D01*
X101300000Y-84860000D02*
X100939000Y-84499000D01*
%TO.N,GND*%
X102492500Y-91787500D02*
X102200000Y-92080000D01*
X121937500Y-89060000D02*
X122242400Y-88755100D01*
X118873400Y-86010000D02*
X117987500Y-86010000D01*
X82550000Y-85060000D02*
X81915000Y-84425000D01*
X90150000Y-91622500D02*
X92650000Y-91622500D01*
X92650000Y-91622500D02*
X93785600Y-91622500D01*
X108200000Y-87600000D02*
X110419400Y-87600000D01*
X107652000Y-84860000D02*
X107527000Y-84985000D01*
X93898100Y-89620500D02*
X93898100Y-91510000D01*
X117987500Y-86010000D02*
X119773909Y-86010000D01*
X100637600Y-93810000D02*
X100637600Y-93809900D01*
X105200000Y-88339600D02*
X105200000Y-87600000D01*
X94574100Y-91510000D02*
X93898100Y-91510000D01*
X90520000Y-86010000D02*
X90170000Y-85660000D01*
X105950000Y-85060000D02*
X105950000Y-85110000D01*
X103825000Y-91787500D02*
X103012500Y-91787500D01*
X92000000Y-87722500D02*
X92000000Y-86010000D01*
X119773909Y-86010000D02*
X120650000Y-85133909D01*
X129850000Y-86160000D02*
X128006900Y-88003100D01*
X107474600Y-88338000D02*
X107200000Y-88063400D01*
X123461400Y-88003100D02*
X122709400Y-88755100D01*
X105200000Y-88339600D02*
X106923800Y-88339600D01*
X92000000Y-87722500D02*
X89950000Y-87722500D01*
X107484700Y-88338000D02*
X107474600Y-88338000D01*
X103012500Y-88287500D02*
X103064600Y-88339600D01*
X103064600Y-88339600D02*
X105200000Y-88339600D01*
X119862500Y-91360000D02*
X121937500Y-89285000D01*
X98150000Y-93810000D02*
X96798100Y-93810000D01*
X107652500Y-84860000D02*
X107652500Y-85346970D01*
X105950000Y-85110000D02*
X104498000Y-85110000D01*
X90170000Y-85660000D02*
X90170000Y-85695000D01*
X98150000Y-93810000D02*
X100637600Y-93810000D01*
X107652500Y-85346970D02*
X106674735Y-86324735D01*
X107975300Y-88339600D02*
X107486300Y-88339600D01*
X96601900Y-91510000D02*
X96601900Y-93613800D01*
X93912500Y-86010000D02*
X92000000Y-86010000D01*
X128006900Y-88003100D02*
X123461400Y-88003100D01*
X105200000Y-90412500D02*
X105200000Y-88339600D01*
X81915000Y-83595000D02*
X82150000Y-83360000D01*
X95250000Y-91510000D02*
X96601900Y-91510000D01*
X102200000Y-92972500D02*
X101475000Y-93697500D01*
X96601900Y-93613800D02*
X96798100Y-93810000D01*
X108200000Y-87600000D02*
X108127100Y-87672900D01*
X105950000Y-90537500D02*
X105325000Y-90537500D01*
X119862500Y-93860000D02*
X119862500Y-91360000D01*
X101475000Y-93697500D02*
X100750000Y-93697500D01*
X104373000Y-84985000D02*
X104372500Y-84985000D01*
X121920000Y-83790000D02*
X121920000Y-67280000D01*
X106923800Y-88339600D02*
X107200000Y-88063400D01*
X81915000Y-84425000D02*
X81915000Y-83595000D01*
X89950000Y-91822500D02*
X90150000Y-91622500D01*
X82150000Y-83360000D02*
X82150000Y-80860000D01*
X107527000Y-84985000D02*
X107527500Y-84985000D01*
X121618500Y-88755100D02*
X118873400Y-86010000D01*
X92000000Y-87722500D02*
X93898000Y-89620500D01*
X104372500Y-84985000D02*
X104247500Y-84860000D01*
X100637600Y-93809900D02*
X100750000Y-93697500D01*
X107527500Y-84985000D02*
X107652500Y-84860000D01*
X121937500Y-89285000D02*
X121937500Y-89060000D01*
X108127100Y-88187800D02*
X107975300Y-88339600D01*
X104498000Y-85110000D02*
X104373000Y-84985000D01*
X92389100Y-86010000D02*
X93912500Y-86010000D01*
X107486300Y-88339600D02*
X107484700Y-88338000D01*
X92000000Y-86010000D02*
X90520000Y-86010000D01*
X107527000Y-84985000D02*
X107402000Y-85110000D01*
X117225000Y-86772500D02*
X117987500Y-86010000D01*
X93898000Y-89620500D02*
X93898100Y-89620500D01*
X108127100Y-87672900D02*
X108127100Y-88187800D01*
X94574100Y-91510000D02*
X95250000Y-91510000D01*
X105200000Y-90412500D02*
X103825000Y-91787500D01*
X117987500Y-91360000D02*
X119862500Y-91360000D01*
X120650000Y-85060000D02*
X121920000Y-83790000D01*
X93785600Y-91622500D02*
X93898100Y-91510000D01*
X105325000Y-90537500D02*
X105200000Y-90412500D01*
X120650000Y-85133909D02*
X120650000Y-85060000D01*
X110419400Y-87600000D02*
X110654100Y-87365300D01*
X107200000Y-88063400D02*
X107200000Y-87600000D01*
X107402000Y-85110000D02*
X105950000Y-85110000D01*
X117225000Y-87795743D02*
X117225000Y-86772500D01*
X104373000Y-84985000D02*
X104248000Y-84860000D01*
X122709400Y-88755100D02*
X121618500Y-88755100D01*
X103012500Y-91787500D02*
X102492500Y-91787500D01*
X90170000Y-85695000D02*
X89535000Y-86330000D01*
X122242400Y-88755100D02*
X122709400Y-88755100D01*
X102200000Y-92080000D02*
X102200000Y-92972500D01*
%TO.N,Net-(C3-Pad1)*%
X95788000Y-87598000D02*
X95788000Y-86210000D01*
X95787500Y-87598500D02*
X95787500Y-88360000D01*
X97336630Y-88169500D02*
X95788000Y-88169500D01*
X97869765Y-88702635D02*
X97336630Y-88169500D01*
X95788000Y-86210000D02*
X95987800Y-86010200D01*
X95987800Y-86010200D02*
X95988000Y-86010000D01*
X111950000Y-93860000D02*
X111778700Y-93688700D01*
X95987500Y-86010000D02*
X95987600Y-86010000D01*
X111778700Y-93688700D02*
X111778700Y-92633500D01*
X95788000Y-88360000D02*
X95788000Y-88169500D01*
X97912500Y-86010000D02*
X97912000Y-86010000D01*
X95987600Y-86010000D02*
X95987800Y-86010200D01*
X95988000Y-86010000D02*
X97912000Y-86010000D01*
X95788000Y-87598000D02*
X95787500Y-87598500D01*
X95788000Y-88169500D02*
X95788000Y-87598000D01*
%TO.N,Net-(C4-Pad1)*%
X116112000Y-88360000D02*
X116112000Y-87598000D01*
X115912000Y-86010000D02*
X113988000Y-86010000D01*
X113987500Y-86010000D02*
X113988000Y-86010000D01*
X115912500Y-86010000D02*
X115912300Y-86010200D01*
X116112000Y-87598000D02*
X116112500Y-87598500D01*
X115912300Y-86010200D02*
X115912000Y-86010000D01*
X116112000Y-87598000D02*
X116112000Y-86210000D01*
X116112500Y-87598500D02*
X116112500Y-88360000D01*
X116112000Y-86210000D02*
X115912300Y-86010200D01*
%TO.N,Net-(U2-TX1)*%
X112662000Y-88360000D02*
X110632000Y-86330000D01*
X106700000Y-87148000D02*
X106700000Y-87600000D01*
X107518000Y-86330000D02*
X106700000Y-87148000D01*
X110632000Y-86330000D02*
X107518000Y-86330000D01*
X112788000Y-88360000D02*
X112787500Y-88360000D01*
X112787500Y-88360000D02*
X112662000Y-88360000D01*
%TO.N,Net-(U2-TX2)*%
X104882000Y-86330000D02*
X105700000Y-87148000D01*
X99112500Y-88360000D02*
X99509000Y-88360000D01*
X101539000Y-86330000D02*
X104882000Y-86330000D01*
X99112000Y-88360000D02*
X99112500Y-88360000D01*
X99509000Y-88360000D02*
X101539000Y-86330000D01*
X105700000Y-87148000D02*
X105700000Y-87600000D01*
%TO.N,Net-(U2-VMID)*%
X100798900Y-87964900D02*
X101928300Y-86835500D01*
X101928300Y-86835500D02*
X103946100Y-86835500D01*
X103946100Y-86835500D02*
X104200000Y-87089400D01*
X104200000Y-87089400D02*
X104200000Y-87600000D01*
X115912500Y-91360000D02*
X113950000Y-91360000D01*
X113950000Y-91314500D02*
X113950000Y-91360000D01*
X100798900Y-88235000D02*
X100798900Y-87964900D01*
X112886800Y-90251300D02*
X113950000Y-91314500D01*
%TO.N,Net-(C8-Pad1)*%
X115912500Y-93860000D02*
X113950000Y-93860000D01*
%TO.N,Net-(U2-RX)*%
X117987500Y-93860000D02*
X116715900Y-92588400D01*
X110618386Y-91360000D02*
X111950000Y-91360000D01*
X102153050Y-87600000D02*
X103700000Y-87600000D01*
X101600000Y-88153050D02*
X102153050Y-87600000D01*
X110033386Y-90775000D02*
X110618386Y-91360000D01*
X101600000Y-88235000D02*
X101600000Y-88153050D01*
X113178400Y-92588400D02*
X111950000Y-91360000D01*
X116715900Y-92588400D02*
X113178400Y-92588400D01*
%TO.N,Net-(C2-Pad2)*%
X109728000Y-84860000D02*
X110600000Y-84860000D01*
X111912000Y-86010000D02*
X110878000Y-86010000D01*
X110878000Y-86010000D02*
X109728000Y-84860000D01*
X110600000Y-84860000D02*
X110961000Y-84499000D01*
X111350000Y-84110000D02*
X110961000Y-84499000D01*
X111912500Y-86010000D02*
X111912000Y-86010000D01*
X109727500Y-84860000D02*
X109728000Y-84860000D01*
%TO.N,/LED_KR*%
X128850000Y-74140000D02*
X127570000Y-74140000D01*
X127570000Y-74140000D02*
X125950000Y-75760000D01*
%TO.N,Net-(D1-RK)*%
X116647121Y-52040000D02*
X120139622Y-52040000D01*
X122520000Y-67031471D02*
X122520000Y-74330000D01*
X114935000Y-49375000D02*
X114935000Y-50327879D01*
X122520000Y-74330000D02*
X123950000Y-75760000D01*
X115150000Y-49160000D02*
X114935000Y-49375000D01*
X120139622Y-52040000D02*
X121920000Y-53820378D01*
X114935000Y-50327879D02*
X116647121Y-52040000D01*
X121920000Y-66431471D02*
X122520000Y-67031471D01*
X121920000Y-53820378D02*
X121920000Y-66431471D01*
%TO.N,Net-(D1-GK)*%
X123950000Y-77860000D02*
X122555000Y-76465000D01*
X115150000Y-47254243D02*
X115150000Y-47560000D01*
X123825000Y-72995000D02*
X123825000Y-72242900D01*
X122555000Y-76465000D02*
X122555000Y-75535000D01*
X122555000Y-75535000D02*
X122520000Y-75535000D01*
X123190000Y-64740000D02*
X123190000Y-71607900D01*
X116244243Y-46160000D02*
X115150000Y-47254243D01*
X123825000Y-72242900D02*
X123190000Y-71607900D01*
X120921000Y-46160000D02*
X116244243Y-46160000D01*
%TO.N,Net-(D1-BK)*%
X123190000Y-52006500D02*
X123190000Y-48230000D01*
X122520000Y-47560000D02*
X120750000Y-47560000D01*
X123190000Y-48230000D02*
X122520000Y-47560000D01*
X123825000Y-52641500D02*
X123190000Y-52006500D01*
X125897000Y-81927000D02*
X129007600Y-81927000D01*
X123950000Y-79980000D02*
X125897000Y-81927000D01*
%TO.N,/LED_KG*%
X128850000Y-76680000D02*
X127698100Y-76680000D01*
X126518100Y-77860000D02*
X125950000Y-77860000D01*
X127698100Y-76680000D02*
X126518100Y-77860000D01*
%TO.N,/LED_KB*%
X125950000Y-79980000D02*
X126710000Y-79220000D01*
X126710000Y-79220000D02*
X128850000Y-79220000D01*
%TD*%
M02*
