%TF.GenerationSoftware,KiCad,Pcbnew,7.0.11+dfsg-1build4*%
%TF.CreationDate,2026-01-29T22:43:39-05:00*%
%TF.ProjectId,,58585858-5858-4585-9858-585858585858,rev?*%
%TF.SameCoordinates,Original*%
%TF.FileFunction,Soldermask,Top*%
%TF.FilePolarity,Negative*%
%FSLAX46Y46*%
G04 Gerber Fmt 4.6, Leading zero omitted, Abs format (unit mm)*
G04 Created by KiCad (PCBNEW 7.0.11+dfsg-1build4) date 2026-01-29 22:43:39*
%MOMM*%
%LPD*%
G01*
G04 APERTURE LIST*
G04 Aperture macros list*
%AMRoundRect*
0 Rectangle with rounded corners*
0 $1 Rounding radius*
0 $2 $3 $4 $5 $6 $7 $8 $9 X,Y pos of 4 corners*
0 Add a 4 corners polygon primitive as box body*
4,1,4,$2,$3,$4,$5,$6,$7,$8,$9,$2,$3,0*
0 Add four circle primitives for the rounded corners*
1,1,$1+$1,$2,$3*
1,1,$1+$1,$4,$5*
1,1,$1+$1,$6,$7*
1,1,$1+$1,$8,$9*
0 Add four rect primitives between the rounded corners*
20,1,$1+$1,$2,$3,$4,$5,0*
20,1,$1+$1,$4,$5,$6,$7,0*
20,1,$1+$1,$6,$7,$8,$9,0*
20,1,$1+$1,$8,$9,$2,$3,0*%
G04 Aperture macros list end*
%ADD10RoundRect,0.250000X0.337500X0.475000X-0.337500X0.475000X-0.337500X-0.475000X0.337500X-0.475000X0*%
%ADD11RoundRect,0.250000X0.475000X-0.337500X0.475000X0.337500X-0.475000X0.337500X-0.475000X-0.337500X0*%
%ADD12RoundRect,0.250000X0.350000X0.450000X-0.350000X0.450000X-0.350000X-0.450000X0.350000X-0.450000X0*%
%ADD13RoundRect,0.250000X-0.337500X-0.475000X0.337500X-0.475000X0.337500X0.475000X-0.337500X0.475000X0*%
%ADD14RoundRect,0.250000X-0.350000X-0.450000X0.350000X-0.450000X0.350000X0.450000X-0.350000X0.450000X0*%
%ADD15C,1.000000*%
%ADD16RoundRect,0.250000X-0.362500X-0.700000X0.362500X-0.700000X0.362500X0.700000X-0.362500X0.700000X0*%
%ADD17C,3.000000*%
%ADD18R,2.100000X1.800000*%
%ADD19R,1.400000X0.800000*%
%ADD20RoundRect,0.150000X0.150000X-0.587500X0.150000X0.587500X-0.150000X0.587500X-0.150000X-0.587500X0*%
%ADD21R,1.700000X1.700000*%
%ADD22O,1.700000X1.700000*%
%ADD23C,1.600000*%
%ADD24RoundRect,0.340500X0.659500X-0.409500X0.659500X0.409500X-0.659500X0.409500X-0.659500X-0.409500X0*%
%ADD25O,2.000000X1.500000*%
%ADD26C,5.000000*%
%ADD27RoundRect,0.250000X0.362500X0.700000X-0.362500X0.700000X-0.362500X-0.700000X0.362500X-0.700000X0*%
%ADD28RoundRect,0.250000X-0.475000X0.337500X-0.475000X-0.337500X0.475000X-0.337500X0.475000X0.337500X0*%
%ADD29RoundRect,0.062500X-0.062500X0.375000X-0.062500X-0.375000X0.062500X-0.375000X0.062500X0.375000X0*%
%ADD30RoundRect,0.062500X-0.375000X0.062500X-0.375000X-0.062500X0.375000X-0.062500X0.375000X0.062500X0*%
%ADD31R,4.100000X4.100000*%
G04 APERTURE END LIST*
D10*
%TO.C,C7*%
X167987500Y-141360000D03*
X165912500Y-141360000D03*
%TD*%
D11*
%TO.C,C13*%
X139950000Y-139797500D03*
X139950000Y-137722500D03*
%TD*%
D12*
%TO.C,R15*%
X175950000Y-129980000D03*
X173950000Y-129980000D03*
%TD*%
D13*
%TO.C,C9*%
X138095000Y-135660000D03*
X140170000Y-135660000D03*
%TD*%
D12*
%TO.C,R11*%
X152250000Y-125060000D03*
X150250000Y-125060000D03*
%TD*%
D11*
%TO.C,C10*%
X142000000Y-139797500D03*
X142000000Y-137722500D03*
%TD*%
D13*
%TO.C,C1*%
X152172500Y-134860000D03*
X154247500Y-134860000D03*
%TD*%
D11*
%TO.C,C11*%
X139950000Y-143897500D03*
X139950000Y-141822500D03*
%TD*%
D12*
%TO.C,R5*%
X138150000Y-130860000D03*
X136150000Y-130860000D03*
%TD*%
D14*
%TO.C,R12*%
X159450000Y-125060000D03*
X161450000Y-125060000D03*
%TD*%
D10*
%TO.C,C5*%
X145987500Y-136010000D03*
X143912500Y-136010000D03*
%TD*%
D14*
%TO.C,R10*%
X177850000Y-133860000D03*
X179850000Y-133860000D03*
%TD*%
D13*
%TO.C,C8*%
X165912500Y-143860000D03*
X167987500Y-143860000D03*
%TD*%
D15*
%TO.C,L_pcb1*%
X150550000Y-134110000D03*
X155950000Y-135060000D03*
X161350000Y-134110000D03*
%TD*%
D13*
%TO.C,C3*%
X147912500Y-136010000D03*
X149987500Y-136010000D03*
%TD*%
%TO.C,C12*%
X169862500Y-139060000D03*
X171937500Y-139060000D03*
%TD*%
D12*
%TO.C,R8*%
X134150000Y-133360000D03*
X132150000Y-133360000D03*
%TD*%
D10*
%TO.C,C4*%
X163987500Y-136010000D03*
X161912500Y-136010000D03*
%TD*%
%TO.C,C6*%
X167987500Y-136010000D03*
X165912500Y-136010000D03*
%TD*%
%TO.C,C14*%
X171937500Y-141360000D03*
X169862500Y-141360000D03*
%TD*%
D16*
%TO.C,L2*%
X162787500Y-138360000D03*
X166112500Y-138360000D03*
%TD*%
D17*
%TO.C,MH1*%
X134950000Y-99360000D03*
%TD*%
D12*
%TO.C,R2*%
X163950000Y-143860000D03*
X161950000Y-143860000D03*
%TD*%
D10*
%TO.C,C15*%
X171937500Y-143860000D03*
X169862500Y-143860000D03*
%TD*%
D11*
%TO.C,C17*%
X150750000Y-143697500D03*
X150750000Y-141622500D03*
%TD*%
D12*
%TO.C,R6*%
X138150000Y-133360000D03*
X136150000Y-133360000D03*
%TD*%
%TO.C,R13*%
X175950000Y-125760000D03*
X173950000Y-125760000D03*
%TD*%
%TO.C,R7*%
X134150000Y-130860000D03*
X132150000Y-130860000D03*
%TD*%
D17*
%TO.C,MH3*%
X176950000Y-141360000D03*
%TD*%
D18*
%TO.C,Y1*%
X145250000Y-143810000D03*
X148150000Y-143810000D03*
X148150000Y-141510000D03*
X145250000Y-141510000D03*
%TD*%
D19*
%TO.C,D1*%
X165150000Y-99160000D03*
X170750000Y-99160000D03*
X165150000Y-97560000D03*
X170750000Y-97560000D03*
%TD*%
D14*
%TO.C,R9*%
X173850000Y-133860000D03*
X175850000Y-133860000D03*
%TD*%
%TO.C,R1*%
X161950000Y-141360000D03*
X163950000Y-141360000D03*
%TD*%
D13*
%TO.C,C2*%
X157652500Y-134860000D03*
X159727500Y-134860000D03*
%TD*%
D20*
%TO.C,Q1*%
X174000000Y-106297500D03*
X175900000Y-106297500D03*
X174950000Y-104422500D03*
%TD*%
D14*
%TO.C,R4*%
X177850000Y-136160000D03*
X179850000Y-136160000D03*
%TD*%
D21*
%TO.C,J1*%
X178850000Y-106360000D03*
D22*
X178850000Y-108900000D03*
X178850000Y-111440000D03*
X178850000Y-113980000D03*
X178850000Y-116520000D03*
X178850000Y-119060000D03*
X178850000Y-121600000D03*
X178850000Y-124140000D03*
X178850000Y-126680000D03*
X178850000Y-129220000D03*
%TD*%
D23*
%TO.C,U1*%
X160995000Y-113130000D03*
D24*
X151220000Y-119060000D03*
D25*
X151220000Y-121600000D03*
X160670000Y-121600000D03*
X160670000Y-119060000D03*
%TD*%
D26*
%TO.C,REF\u002A\u002A*%
X155950000Y-120360000D03*
%TD*%
D27*
%TO.C,L1*%
X149112500Y-138360000D03*
X145787500Y-138360000D03*
%TD*%
D20*
%TO.C,Q2*%
X174000000Y-110297500D03*
X175900000Y-110297500D03*
X174950000Y-108422500D03*
%TD*%
D17*
%TO.C,MH4*%
X176950000Y-99360000D03*
%TD*%
D28*
%TO.C,C16*%
X142650000Y-141622500D03*
X142650000Y-143697500D03*
%TD*%
D17*
%TO.C,MH2*%
X134950000Y-141360000D03*
%TD*%
D14*
%TO.C,R3*%
X173850000Y-136160000D03*
X175850000Y-136160000D03*
%TD*%
D29*
%TO.C,U2*%
X158200000Y-137600000D03*
X157700000Y-137600000D03*
X157200000Y-137600000D03*
X156700000Y-137600000D03*
X156200000Y-137600000D03*
X155700000Y-137600000D03*
X155200000Y-137600000D03*
X154700000Y-137600000D03*
X154200000Y-137600000D03*
X153700000Y-137600000D03*
D30*
X153012500Y-138287500D03*
X153012500Y-138787500D03*
X153012500Y-139287500D03*
X153012500Y-139787500D03*
X153012500Y-140287500D03*
X153012500Y-140787500D03*
X153012500Y-141287500D03*
X153012500Y-141787500D03*
X153012500Y-142287500D03*
X153012500Y-142787500D03*
D29*
X153700000Y-143475000D03*
X154200000Y-143475000D03*
X154700000Y-143475000D03*
X155200000Y-143475000D03*
X155700000Y-143475000D03*
X156200000Y-143475000D03*
X156700000Y-143475000D03*
X157200000Y-143475000D03*
X157700000Y-143475000D03*
X158200000Y-143475000D03*
D30*
X158887500Y-142787500D03*
X158887500Y-142287500D03*
X158887500Y-141787500D03*
X158887500Y-141287500D03*
X158887500Y-140787500D03*
X158887500Y-140287500D03*
X158887500Y-139787500D03*
X158887500Y-139287500D03*
X158887500Y-138787500D03*
X158887500Y-138287500D03*
D31*
X155950000Y-140537500D03*
%TD*%
D12*
%TO.C,R14*%
X175950000Y-127860000D03*
X173950000Y-127860000D03*
%TD*%
D10*
%TO.C,C7*%
X117987500Y-141360000D03*
X115912500Y-141360000D03*
%TD*%
D11*
%TO.C,C13*%
X89950000Y-139797500D03*
X89950000Y-137722500D03*
%TD*%
D12*
%TO.C,R15*%
X125950000Y-129980000D03*
X123950000Y-129980000D03*
%TD*%
D13*
%TO.C,C9*%
X88095000Y-135660000D03*
X90170000Y-135660000D03*
%TD*%
D12*
%TO.C,R11*%
X102250000Y-125060000D03*
X100250000Y-125060000D03*
%TD*%
D11*
%TO.C,C10*%
X92000000Y-139797500D03*
X92000000Y-137722500D03*
%TD*%
D13*
%TO.C,C1*%
X102172500Y-134860000D03*
X104247500Y-134860000D03*
%TD*%
D11*
%TO.C,C11*%
X89950000Y-143897500D03*
X89950000Y-141822500D03*
%TD*%
D12*
%TO.C,R5*%
X88150000Y-130860000D03*
X86150000Y-130860000D03*
%TD*%
D14*
%TO.C,R12*%
X109450000Y-125060000D03*
X111450000Y-125060000D03*
%TD*%
D10*
%TO.C,C5*%
X95987500Y-136010000D03*
X93912500Y-136010000D03*
%TD*%
D14*
%TO.C,R10*%
X127850000Y-133860000D03*
X129850000Y-133860000D03*
%TD*%
D13*
%TO.C,C8*%
X115912500Y-143860000D03*
X117987500Y-143860000D03*
%TD*%
D15*
%TO.C,L_pcb1*%
X100550000Y-134110000D03*
X105950000Y-135060000D03*
X111350000Y-134110000D03*
%TD*%
D13*
%TO.C,C3*%
X97912500Y-136010000D03*
X99987500Y-136010000D03*
%TD*%
%TO.C,C12*%
X119862500Y-139060000D03*
X121937500Y-139060000D03*
%TD*%
D12*
%TO.C,R8*%
X84150000Y-133360000D03*
X82150000Y-133360000D03*
%TD*%
D10*
%TO.C,C4*%
X113987500Y-136010000D03*
X111912500Y-136010000D03*
%TD*%
%TO.C,C6*%
X117987500Y-136010000D03*
X115912500Y-136010000D03*
%TD*%
%TO.C,C14*%
X121937500Y-141360000D03*
X119862500Y-141360000D03*
%TD*%
D16*
%TO.C,L2*%
X112787500Y-138360000D03*
X116112500Y-138360000D03*
%TD*%
D17*
%TO.C,MH1*%
X84950000Y-99360000D03*
%TD*%
D12*
%TO.C,R2*%
X113950000Y-143860000D03*
X111950000Y-143860000D03*
%TD*%
D10*
%TO.C,C15*%
X121937500Y-143860000D03*
X119862500Y-143860000D03*
%TD*%
D11*
%TO.C,C17*%
X100750000Y-143697500D03*
X100750000Y-141622500D03*
%TD*%
D12*
%TO.C,R6*%
X88150000Y-133360000D03*
X86150000Y-133360000D03*
%TD*%
%TO.C,R13*%
X125950000Y-125760000D03*
X123950000Y-125760000D03*
%TD*%
%TO.C,R7*%
X84150000Y-130860000D03*
X82150000Y-130860000D03*
%TD*%
D17*
%TO.C,MH3*%
X126950000Y-141360000D03*
%TD*%
D18*
%TO.C,Y1*%
X95250000Y-143810000D03*
X98150000Y-143810000D03*
X98150000Y-141510000D03*
X95250000Y-141510000D03*
%TD*%
D19*
%TO.C,D1*%
X115150000Y-99160000D03*
X120750000Y-99160000D03*
X115150000Y-97560000D03*
X120750000Y-97560000D03*
%TD*%
D14*
%TO.C,R9*%
X123850000Y-133860000D03*
X125850000Y-133860000D03*
%TD*%
%TO.C,R1*%
X111950000Y-141360000D03*
X113950000Y-141360000D03*
%TD*%
D13*
%TO.C,C2*%
X107652500Y-134860000D03*
X109727500Y-134860000D03*
%TD*%
D20*
%TO.C,Q1*%
X124000000Y-106297500D03*
X125900000Y-106297500D03*
X124950000Y-104422500D03*
%TD*%
D14*
%TO.C,R4*%
X127850000Y-136160000D03*
X129850000Y-136160000D03*
%TD*%
D21*
%TO.C,J1*%
X128850000Y-106360000D03*
D22*
X128850000Y-108900000D03*
X128850000Y-111440000D03*
X128850000Y-113980000D03*
X128850000Y-116520000D03*
X128850000Y-119060000D03*
X128850000Y-121600000D03*
X128850000Y-124140000D03*
X128850000Y-126680000D03*
X128850000Y-129220000D03*
%TD*%
D23*
%TO.C,U1*%
X110995000Y-113130000D03*
D24*
X101220000Y-119060000D03*
D25*
X101220000Y-121600000D03*
X110670000Y-121600000D03*
X110670000Y-119060000D03*
%TD*%
D26*
%TO.C,REF\u002A\u002A*%
X105950000Y-120360000D03*
%TD*%
D27*
%TO.C,L1*%
X99112500Y-138360000D03*
X95787500Y-138360000D03*
%TD*%
D20*
%TO.C,Q2*%
X124000000Y-110297500D03*
X125900000Y-110297500D03*
X124950000Y-108422500D03*
%TD*%
D17*
%TO.C,MH4*%
X126950000Y-99360000D03*
%TD*%
D28*
%TO.C,C16*%
X92650000Y-141622500D03*
X92650000Y-143697500D03*
%TD*%
D17*
%TO.C,MH2*%
X84950000Y-141360000D03*
%TD*%
D14*
%TO.C,R3*%
X123850000Y-136160000D03*
X125850000Y-136160000D03*
%TD*%
D29*
%TO.C,U2*%
X108200000Y-137600000D03*
X107700000Y-137600000D03*
X107200000Y-137600000D03*
X106700000Y-137600000D03*
X106200000Y-137600000D03*
X105700000Y-137600000D03*
X105200000Y-137600000D03*
X104700000Y-137600000D03*
X104200000Y-137600000D03*
X103700000Y-137600000D03*
D30*
X103012500Y-138287500D03*
X103012500Y-138787500D03*
X103012500Y-139287500D03*
X103012500Y-139787500D03*
X103012500Y-140287500D03*
X103012500Y-140787500D03*
X103012500Y-141287500D03*
X103012500Y-141787500D03*
X103012500Y-142287500D03*
X103012500Y-142787500D03*
D29*
X103700000Y-143475000D03*
X104200000Y-143475000D03*
X104700000Y-143475000D03*
X105200000Y-143475000D03*
X105700000Y-143475000D03*
X106200000Y-143475000D03*
X106700000Y-143475000D03*
X107200000Y-143475000D03*
X107700000Y-143475000D03*
X108200000Y-143475000D03*
D30*
X108887500Y-142787500D03*
X108887500Y-142287500D03*
X108887500Y-141787500D03*
X108887500Y-141287500D03*
X108887500Y-140787500D03*
X108887500Y-140287500D03*
X108887500Y-139787500D03*
X108887500Y-139287500D03*
X108887500Y-138787500D03*
X108887500Y-138287500D03*
D31*
X105950000Y-140537500D03*
%TD*%
D12*
%TO.C,R14*%
X125950000Y-127860000D03*
X123950000Y-127860000D03*
%TD*%
D10*
%TO.C,C7*%
X167987500Y-91360000D03*
X165912500Y-91360000D03*
%TD*%
D11*
%TO.C,C13*%
X139950000Y-89797500D03*
X139950000Y-87722500D03*
%TD*%
D12*
%TO.C,R15*%
X175950000Y-79980000D03*
X173950000Y-79980000D03*
%TD*%
D13*
%TO.C,C9*%
X138095000Y-85660000D03*
X140170000Y-85660000D03*
%TD*%
D12*
%TO.C,R11*%
X152250000Y-75060000D03*
X150250000Y-75060000D03*
%TD*%
D11*
%TO.C,C10*%
X142000000Y-89797500D03*
X142000000Y-87722500D03*
%TD*%
D13*
%TO.C,C1*%
X152172500Y-84860000D03*
X154247500Y-84860000D03*
%TD*%
D11*
%TO.C,C11*%
X139950000Y-93897500D03*
X139950000Y-91822500D03*
%TD*%
D12*
%TO.C,R5*%
X138150000Y-80860000D03*
X136150000Y-80860000D03*
%TD*%
D14*
%TO.C,R12*%
X159450000Y-75060000D03*
X161450000Y-75060000D03*
%TD*%
D10*
%TO.C,C5*%
X145987500Y-86010000D03*
X143912500Y-86010000D03*
%TD*%
D14*
%TO.C,R10*%
X177850000Y-83860000D03*
X179850000Y-83860000D03*
%TD*%
D13*
%TO.C,C8*%
X165912500Y-93860000D03*
X167987500Y-93860000D03*
%TD*%
D15*
%TO.C,L_pcb1*%
X150550000Y-84110000D03*
X155950000Y-85060000D03*
X161350000Y-84110000D03*
%TD*%
D13*
%TO.C,C3*%
X147912500Y-86010000D03*
X149987500Y-86010000D03*
%TD*%
%TO.C,C12*%
X169862500Y-89060000D03*
X171937500Y-89060000D03*
%TD*%
D12*
%TO.C,R8*%
X134150000Y-83360000D03*
X132150000Y-83360000D03*
%TD*%
D10*
%TO.C,C4*%
X163987500Y-86010000D03*
X161912500Y-86010000D03*
%TD*%
%TO.C,C6*%
X167987500Y-86010000D03*
X165912500Y-86010000D03*
%TD*%
%TO.C,C14*%
X171937500Y-91360000D03*
X169862500Y-91360000D03*
%TD*%
D16*
%TO.C,L2*%
X162787500Y-88360000D03*
X166112500Y-88360000D03*
%TD*%
D17*
%TO.C,MH1*%
X134950000Y-49360000D03*
%TD*%
D12*
%TO.C,R2*%
X163950000Y-93860000D03*
X161950000Y-93860000D03*
%TD*%
D10*
%TO.C,C15*%
X171937500Y-93860000D03*
X169862500Y-93860000D03*
%TD*%
D11*
%TO.C,C17*%
X150750000Y-93697500D03*
X150750000Y-91622500D03*
%TD*%
D12*
%TO.C,R6*%
X138150000Y-83360000D03*
X136150000Y-83360000D03*
%TD*%
%TO.C,R13*%
X175950000Y-75760000D03*
X173950000Y-75760000D03*
%TD*%
%TO.C,R7*%
X134150000Y-80860000D03*
X132150000Y-80860000D03*
%TD*%
D17*
%TO.C,MH3*%
X176950000Y-91360000D03*
%TD*%
D18*
%TO.C,Y1*%
X145250000Y-93810000D03*
X148150000Y-93810000D03*
X148150000Y-91510000D03*
X145250000Y-91510000D03*
%TD*%
D19*
%TO.C,D1*%
X165150000Y-49160000D03*
X170750000Y-49160000D03*
X165150000Y-47560000D03*
X170750000Y-47560000D03*
%TD*%
D14*
%TO.C,R9*%
X173850000Y-83860000D03*
X175850000Y-83860000D03*
%TD*%
%TO.C,R1*%
X161950000Y-91360000D03*
X163950000Y-91360000D03*
%TD*%
D13*
%TO.C,C2*%
X157652500Y-84860000D03*
X159727500Y-84860000D03*
%TD*%
D20*
%TO.C,Q1*%
X174000000Y-56297500D03*
X175900000Y-56297500D03*
X174950000Y-54422500D03*
%TD*%
D14*
%TO.C,R4*%
X177850000Y-86160000D03*
X179850000Y-86160000D03*
%TD*%
D21*
%TO.C,J1*%
X178850000Y-56360000D03*
D22*
X178850000Y-58900000D03*
X178850000Y-61440000D03*
X178850000Y-63980000D03*
X178850000Y-66520000D03*
X178850000Y-69060000D03*
X178850000Y-71600000D03*
X178850000Y-74140000D03*
X178850000Y-76680000D03*
X178850000Y-79220000D03*
%TD*%
D23*
%TO.C,U1*%
X160995000Y-63130000D03*
D24*
X151220000Y-69060000D03*
D25*
X151220000Y-71600000D03*
X160670000Y-71600000D03*
X160670000Y-69060000D03*
%TD*%
D26*
%TO.C,REF\u002A\u002A*%
X155950000Y-70360000D03*
%TD*%
D27*
%TO.C,L1*%
X149112500Y-88360000D03*
X145787500Y-88360000D03*
%TD*%
D20*
%TO.C,Q2*%
X174000000Y-60297500D03*
X175900000Y-60297500D03*
X174950000Y-58422500D03*
%TD*%
D17*
%TO.C,MH4*%
X176950000Y-49360000D03*
%TD*%
D28*
%TO.C,C16*%
X142650000Y-91622500D03*
X142650000Y-93697500D03*
%TD*%
D17*
%TO.C,MH2*%
X134950000Y-91360000D03*
%TD*%
D14*
%TO.C,R3*%
X173850000Y-86160000D03*
X175850000Y-86160000D03*
%TD*%
D29*
%TO.C,U2*%
X158200000Y-87600000D03*
X157700000Y-87600000D03*
X157200000Y-87600000D03*
X156700000Y-87600000D03*
X156200000Y-87600000D03*
X155700000Y-87600000D03*
X155200000Y-87600000D03*
X154700000Y-87600000D03*
X154200000Y-87600000D03*
X153700000Y-87600000D03*
D30*
X153012500Y-88287500D03*
X153012500Y-88787500D03*
X153012500Y-89287500D03*
X153012500Y-89787500D03*
X153012500Y-90287500D03*
X153012500Y-90787500D03*
X153012500Y-91287500D03*
X153012500Y-91787500D03*
X153012500Y-92287500D03*
X153012500Y-92787500D03*
D29*
X153700000Y-93475000D03*
X154200000Y-93475000D03*
X154700000Y-93475000D03*
X155200000Y-93475000D03*
X155700000Y-93475000D03*
X156200000Y-93475000D03*
X156700000Y-93475000D03*
X157200000Y-93475000D03*
X157700000Y-93475000D03*
X158200000Y-93475000D03*
D30*
X158887500Y-92787500D03*
X158887500Y-92287500D03*
X158887500Y-91787500D03*
X158887500Y-91287500D03*
X158887500Y-90787500D03*
X158887500Y-90287500D03*
X158887500Y-89787500D03*
X158887500Y-89287500D03*
X158887500Y-88787500D03*
X158887500Y-88287500D03*
D31*
X155950000Y-90537500D03*
%TD*%
D12*
%TO.C,R14*%
X175950000Y-77860000D03*
X173950000Y-77860000D03*
%TD*%
%TO.C,R7*%
X84150000Y-80860000D03*
X82150000Y-80860000D03*
%TD*%
D10*
%TO.C,C5*%
X95987500Y-86010000D03*
X93912500Y-86010000D03*
%TD*%
D12*
%TO.C,R2*%
X113950000Y-93860000D03*
X111950000Y-93860000D03*
%TD*%
%TO.C,R8*%
X84150000Y-83360000D03*
X82150000Y-83360000D03*
%TD*%
D14*
%TO.C,R4*%
X127850000Y-86160000D03*
X129850000Y-86160000D03*
%TD*%
D12*
%TO.C,R11*%
X102250000Y-75060000D03*
X100250000Y-75060000D03*
%TD*%
D18*
%TO.C,Y1*%
X95250000Y-93810000D03*
X98150000Y-93810000D03*
X98150000Y-91510000D03*
X95250000Y-91510000D03*
%TD*%
D13*
%TO.C,C1*%
X102172500Y-84860000D03*
X104247500Y-84860000D03*
%TD*%
%TO.C,C2*%
X107652500Y-84860000D03*
X109727500Y-84860000D03*
%TD*%
D10*
%TO.C,C4*%
X113987500Y-86010000D03*
X111912500Y-86010000D03*
%TD*%
D17*
%TO.C,MH3*%
X126950000Y-91360000D03*
%TD*%
D12*
%TO.C,R6*%
X88150000Y-83360000D03*
X86150000Y-83360000D03*
%TD*%
D19*
%TO.C,D1*%
X115150000Y-49160000D03*
X120750000Y-49160000D03*
X115150000Y-47560000D03*
X120750000Y-47560000D03*
%TD*%
D11*
%TO.C,C13*%
X89950000Y-89797500D03*
X89950000Y-87722500D03*
%TD*%
D15*
%TO.C,L_pcb1*%
X100550000Y-84110000D03*
X105950000Y-85060000D03*
X111350000Y-84110000D03*
%TD*%
D13*
%TO.C,C12*%
X119862500Y-89060000D03*
X121937500Y-89060000D03*
%TD*%
D17*
%TO.C,MH2*%
X84950000Y-91360000D03*
%TD*%
D21*
%TO.C,J1*%
X128850000Y-56360000D03*
D22*
X128850000Y-58900000D03*
X128850000Y-61440000D03*
X128850000Y-63980000D03*
X128850000Y-66520000D03*
X128850000Y-69060000D03*
X128850000Y-71600000D03*
X128850000Y-74140000D03*
X128850000Y-76680000D03*
X128850000Y-79220000D03*
%TD*%
D12*
%TO.C,R13*%
X125950000Y-75760000D03*
X123950000Y-75760000D03*
%TD*%
D14*
%TO.C,R9*%
X123850000Y-83860000D03*
X125850000Y-83860000D03*
%TD*%
D27*
%TO.C,L1*%
X99112500Y-88360000D03*
X95787500Y-88360000D03*
%TD*%
D29*
%TO.C,U2*%
X108200000Y-87600000D03*
X107700000Y-87600000D03*
X107200000Y-87600000D03*
X106700000Y-87600000D03*
X106200000Y-87600000D03*
X105700000Y-87600000D03*
X105200000Y-87600000D03*
X104700000Y-87600000D03*
X104200000Y-87600000D03*
X103700000Y-87600000D03*
D30*
X103012500Y-88287500D03*
X103012500Y-88787500D03*
X103012500Y-89287500D03*
X103012500Y-89787500D03*
X103012500Y-90287500D03*
X103012500Y-90787500D03*
X103012500Y-91287500D03*
X103012500Y-91787500D03*
X103012500Y-92287500D03*
X103012500Y-92787500D03*
D29*
X103700000Y-93475000D03*
X104200000Y-93475000D03*
X104700000Y-93475000D03*
X105200000Y-93475000D03*
X105700000Y-93475000D03*
X106200000Y-93475000D03*
X106700000Y-93475000D03*
X107200000Y-93475000D03*
X107700000Y-93475000D03*
X108200000Y-93475000D03*
D30*
X108887500Y-92787500D03*
X108887500Y-92287500D03*
X108887500Y-91787500D03*
X108887500Y-91287500D03*
X108887500Y-90787500D03*
X108887500Y-90287500D03*
X108887500Y-89787500D03*
X108887500Y-89287500D03*
X108887500Y-88787500D03*
X108887500Y-88287500D03*
D31*
X105950000Y-90537500D03*
%TD*%
D11*
%TO.C,C17*%
X100750000Y-93697500D03*
X100750000Y-91622500D03*
%TD*%
D10*
%TO.C,C6*%
X117987500Y-86010000D03*
X115912500Y-86010000D03*
%TD*%
%TO.C,C14*%
X121937500Y-91360000D03*
X119862500Y-91360000D03*
%TD*%
D26*
%TO.C,REF\u002A\u002A*%
X105950000Y-70360000D03*
%TD*%
D28*
%TO.C,C16*%
X92650000Y-91622500D03*
X92650000Y-93697500D03*
%TD*%
D13*
%TO.C,C3*%
X97912500Y-86010000D03*
X99987500Y-86010000D03*
%TD*%
D12*
%TO.C,R15*%
X125950000Y-79980000D03*
X123950000Y-79980000D03*
%TD*%
D13*
%TO.C,C9*%
X88095000Y-85660000D03*
X90170000Y-85660000D03*
%TD*%
D16*
%TO.C,L2*%
X112787500Y-88360000D03*
X116112500Y-88360000D03*
%TD*%
D14*
%TO.C,R10*%
X127850000Y-83860000D03*
X129850000Y-83860000D03*
%TD*%
D23*
%TO.C,U1*%
X110995000Y-63130000D03*
D24*
X101220000Y-69060000D03*
D25*
X101220000Y-71600000D03*
X110670000Y-71600000D03*
X110670000Y-69060000D03*
%TD*%
D13*
%TO.C,C8*%
X115912500Y-93860000D03*
X117987500Y-93860000D03*
%TD*%
D17*
%TO.C,MH4*%
X126950000Y-49360000D03*
%TD*%
D12*
%TO.C,R5*%
X88150000Y-80860000D03*
X86150000Y-80860000D03*
%TD*%
D10*
%TO.C,C7*%
X117987500Y-91360000D03*
X115912500Y-91360000D03*
%TD*%
D11*
%TO.C,C10*%
X92000000Y-89797500D03*
X92000000Y-87722500D03*
%TD*%
D14*
%TO.C,R1*%
X111950000Y-91360000D03*
X113950000Y-91360000D03*
%TD*%
D20*
%TO.C,Q1*%
X124000000Y-56297500D03*
X125900000Y-56297500D03*
X124950000Y-54422500D03*
%TD*%
D11*
%TO.C,C11*%
X89950000Y-93897500D03*
X89950000Y-91822500D03*
%TD*%
D20*
%TO.C,Q2*%
X124000000Y-60297500D03*
X125900000Y-60297500D03*
X124950000Y-58422500D03*
%TD*%
D12*
%TO.C,R14*%
X125950000Y-77860000D03*
X123950000Y-77860000D03*
%TD*%
D14*
%TO.C,R12*%
X109450000Y-75060000D03*
X111450000Y-75060000D03*
%TD*%
D17*
%TO.C,MH1*%
X84950000Y-49360000D03*
%TD*%
D14*
%TO.C,R3*%
X123850000Y-86160000D03*
X125850000Y-86160000D03*
%TD*%
D10*
%TO.C,C15*%
X121937500Y-93860000D03*
X119862500Y-93860000D03*
%TD*%
M02*
