%TF.GenerationSoftware,KiCad,Pcbnew,7.0.11+dfsg-1build4*%
%TF.CreationDate,2026-01-29T22:33:19-05:00*%
%TF.ProjectId,,58585858-5858-4585-9858-585858585858,rev?*%
%TF.SameCoordinates,Original*%
%TF.FileFunction,Paste,Top*%
%TF.FilePolarity,Positive*%
%FSLAX46Y46*%
G04 Gerber Fmt 4.6, Leading zero omitted, Abs format (unit mm)*
G04 Created by KiCad (PCBNEW 7.0.11+dfsg-1build4) date 2026-01-29 22:33:19*
%MOMM*%
%LPD*%
G01*
G04 APERTURE LIST*
G04 Aperture macros list*
%AMRoundRect*
0 Rectangle with rounded corners*
0 $1 Rounding radius*
0 $2 $3 $4 $5 $6 $7 $8 $9 X,Y pos of 4 corners*
0 Add a 4 corners polygon primitive as box body*
4,1,4,$2,$3,$4,$5,$6,$7,$8,$9,$2,$3,0*
0 Add four circle primitives for the rounded corners*
1,1,$1+$1,$2,$3*
1,1,$1+$1,$4,$5*
1,1,$1+$1,$6,$7*
1,1,$1+$1,$8,$9*
0 Add four rect primitives between the rounded corners*
20,1,$1+$1,$2,$3,$4,$5,0*
20,1,$1+$1,$4,$5,$6,$7,0*
20,1,$1+$1,$6,$7,$8,$9,0*
20,1,$1+$1,$8,$9,$2,$3,0*%
G04 Aperture macros list end*
%ADD10RoundRect,0.250000X0.350000X0.450000X-0.350000X0.450000X-0.350000X-0.450000X0.350000X-0.450000X0*%
%ADD11RoundRect,0.250000X-0.337500X-0.475000X0.337500X-0.475000X0.337500X0.475000X-0.337500X0.475000X0*%
%ADD12RoundRect,0.250000X0.475000X-0.337500X0.475000X0.337500X-0.475000X0.337500X-0.475000X-0.337500X0*%
%ADD13RoundRect,0.250000X0.337500X0.475000X-0.337500X0.475000X-0.337500X-0.475000X0.337500X-0.475000X0*%
%ADD14RoundRect,0.150000X0.150000X-0.587500X0.150000X0.587500X-0.150000X0.587500X-0.150000X-0.587500X0*%
%ADD15RoundRect,0.250000X-0.475000X0.337500X-0.475000X-0.337500X0.475000X-0.337500X0.475000X0.337500X0*%
%ADD16RoundRect,0.250000X-0.350000X-0.450000X0.350000X-0.450000X0.350000X0.450000X-0.350000X0.450000X0*%
%ADD17RoundRect,0.250000X0.362500X0.700000X-0.362500X0.700000X-0.362500X-0.700000X0.362500X-0.700000X0*%
%ADD18R,1.400000X0.800000*%
%ADD19R,2.100000X1.800000*%
%ADD20RoundRect,0.250000X-0.362500X-0.700000X0.362500X-0.700000X0.362500X0.700000X-0.362500X0.700000X0*%
%ADD21C,1.000000*%
%ADD22RoundRect,0.250000X-0.300000X0.300000X-0.300000X-0.300000X0.300000X-0.300000X0.300000X0.300000X0*%
%ADD23RoundRect,0.062500X-0.062500X0.375000X-0.062500X-0.375000X0.062500X-0.375000X0.062500X0.375000X0*%
%ADD24RoundRect,0.062500X-0.375000X0.062500X-0.375000X-0.062500X0.375000X-0.062500X0.375000X0.062500X0*%
G04 APERTURE END LIST*
D10*
%TO.C,R7*%
X116370000Y-114985000D03*
X114370000Y-114985000D03*
%TD*%
D11*
%TO.C,C1*%
X134392500Y-118985000D03*
X136467500Y-118985000D03*
%TD*%
%TO.C,C2*%
X139872500Y-118985000D03*
X141947500Y-118985000D03*
%TD*%
D12*
%TO.C,C17*%
X132970000Y-127822500D03*
X132970000Y-125747500D03*
%TD*%
D10*
%TO.C,R6*%
X120370000Y-117485000D03*
X118370000Y-117485000D03*
%TD*%
D13*
%TO.C,C7*%
X150207500Y-125485000D03*
X148132500Y-125485000D03*
%TD*%
D10*
%TO.C,R13*%
X158170000Y-109885000D03*
X156170000Y-109885000D03*
%TD*%
D14*
%TO.C,Q2*%
X156220000Y-94422500D03*
X158120000Y-94422500D03*
X157170000Y-92547500D03*
%TD*%
D12*
%TO.C,C11*%
X122170000Y-128022500D03*
X122170000Y-125947500D03*
%TD*%
D14*
%TO.C,Q1*%
X156220000Y-90422500D03*
X158120000Y-90422500D03*
X157170000Y-88547500D03*
%TD*%
D10*
%TO.C,R14*%
X158170000Y-111985000D03*
X156170000Y-111985000D03*
%TD*%
D15*
%TO.C,C16*%
X124870000Y-125747500D03*
X124870000Y-127822500D03*
%TD*%
D16*
%TO.C,R12*%
X141670000Y-109185000D03*
X143670000Y-109185000D03*
%TD*%
D13*
%TO.C,C5*%
X128207500Y-120135000D03*
X126132500Y-120135000D03*
%TD*%
D16*
%TO.C,R4*%
X160070000Y-120285000D03*
X162070000Y-120285000D03*
%TD*%
D10*
%TO.C,R8*%
X116370000Y-117485000D03*
X114370000Y-117485000D03*
%TD*%
D11*
%TO.C,C12*%
X152082500Y-123185000D03*
X154157500Y-123185000D03*
%TD*%
D10*
%TO.C,R11*%
X134470000Y-109185000D03*
X132470000Y-109185000D03*
%TD*%
D11*
%TO.C,C9*%
X120315000Y-119785000D03*
X122390000Y-119785000D03*
%TD*%
D10*
%TO.C,R5*%
X120370000Y-114985000D03*
X118370000Y-114985000D03*
%TD*%
D16*
%TO.C,R3*%
X156070000Y-120285000D03*
X158070000Y-120285000D03*
%TD*%
D17*
%TO.C,L1*%
X131332500Y-122485000D03*
X128007500Y-122485000D03*
%TD*%
D11*
%TO.C,C3*%
X130132500Y-120135000D03*
X132207500Y-120135000D03*
%TD*%
D12*
%TO.C,C10*%
X124220000Y-123922500D03*
X124220000Y-121847500D03*
%TD*%
D13*
%TO.C,C15*%
X154157500Y-127985000D03*
X152082500Y-127985000D03*
%TD*%
D16*
%TO.C,R10*%
X160070000Y-117985000D03*
X162070000Y-117985000D03*
%TD*%
D11*
%TO.C,C8*%
X148132500Y-127985000D03*
X150207500Y-127985000D03*
%TD*%
D16*
%TO.C,R9*%
X156070000Y-117985000D03*
X158070000Y-117985000D03*
%TD*%
D18*
%TO.C,D1*%
X147370000Y-83285000D03*
X152970000Y-83285000D03*
X147370000Y-81685000D03*
X152970000Y-81685000D03*
%TD*%
D19*
%TO.C,Y1*%
X127470000Y-127935000D03*
X130370000Y-127935000D03*
X130370000Y-125635000D03*
X127470000Y-125635000D03*
%TD*%
D13*
%TO.C,C4*%
X146207500Y-120135000D03*
X144132500Y-120135000D03*
%TD*%
D16*
%TO.C,R1*%
X144170000Y-125485000D03*
X146170000Y-125485000D03*
%TD*%
D12*
%TO.C,C13*%
X122170000Y-123922500D03*
X122170000Y-121847500D03*
%TD*%
D20*
%TO.C,L2*%
X145007500Y-122485000D03*
X148332500Y-122485000D03*
%TD*%
D10*
%TO.C,R2*%
X146170000Y-127985000D03*
X144170000Y-127985000D03*
%TD*%
D13*
%TO.C,C6*%
X150207500Y-120135000D03*
X148132500Y-120135000D03*
%TD*%
%TO.C,C14*%
X154157500Y-125485000D03*
X152082500Y-125485000D03*
%TD*%
D10*
%TO.C,R15*%
X158170000Y-114105000D03*
X156170000Y-114105000D03*
%TD*%
D21*
%TO.C,L_pcb1*%
X132770000Y-118235000D03*
X138170000Y-119185000D03*
X143570000Y-118235000D03*
%TD*%
D22*
%TO.C,U2*%
X139540000Y-123292500D03*
X138170000Y-123292500D03*
X136800000Y-123292500D03*
X139540000Y-124662500D03*
X138170000Y-124662500D03*
X136800000Y-124662500D03*
X139540000Y-126032500D03*
X138170000Y-126032500D03*
X136800000Y-126032500D03*
D23*
X140420000Y-121725000D03*
X139920000Y-121725000D03*
X139420000Y-121725000D03*
X138920000Y-121725000D03*
X138420000Y-121725000D03*
X137920000Y-121725000D03*
X137420000Y-121725000D03*
X136920000Y-121725000D03*
X136420000Y-121725000D03*
X135920000Y-121725000D03*
D24*
X135232500Y-122412500D03*
X135232500Y-122912500D03*
X135232500Y-123412500D03*
X135232500Y-123912500D03*
X135232500Y-124412500D03*
X135232500Y-124912500D03*
X135232500Y-125412500D03*
X135232500Y-125912500D03*
X135232500Y-126412500D03*
X135232500Y-126912500D03*
D23*
X135920000Y-127600000D03*
X136420000Y-127600000D03*
X136920000Y-127600000D03*
X137420000Y-127600000D03*
X137920000Y-127600000D03*
X138420000Y-127600000D03*
X138920000Y-127600000D03*
X139420000Y-127600000D03*
X139920000Y-127600000D03*
X140420000Y-127600000D03*
D24*
X141107500Y-126912500D03*
X141107500Y-126412500D03*
X141107500Y-125912500D03*
X141107500Y-125412500D03*
X141107500Y-124912500D03*
X141107500Y-124412500D03*
X141107500Y-123912500D03*
X141107500Y-123412500D03*
X141107500Y-122912500D03*
X141107500Y-122412500D03*
%TD*%
D10*
%TO.C,R7*%
X66370000Y-114985000D03*
X64370000Y-114985000D03*
%TD*%
D11*
%TO.C,C1*%
X84392500Y-118985000D03*
X86467500Y-118985000D03*
%TD*%
%TO.C,C2*%
X89872500Y-118985000D03*
X91947500Y-118985000D03*
%TD*%
D12*
%TO.C,C17*%
X82970000Y-127822500D03*
X82970000Y-125747500D03*
%TD*%
D10*
%TO.C,R6*%
X70370000Y-117485000D03*
X68370000Y-117485000D03*
%TD*%
D13*
%TO.C,C7*%
X100207500Y-125485000D03*
X98132500Y-125485000D03*
%TD*%
D10*
%TO.C,R13*%
X108170000Y-109885000D03*
X106170000Y-109885000D03*
%TD*%
D14*
%TO.C,Q2*%
X106220000Y-94422500D03*
X108120000Y-94422500D03*
X107170000Y-92547500D03*
%TD*%
D12*
%TO.C,C11*%
X72170000Y-128022500D03*
X72170000Y-125947500D03*
%TD*%
D14*
%TO.C,Q1*%
X106220000Y-90422500D03*
X108120000Y-90422500D03*
X107170000Y-88547500D03*
%TD*%
D10*
%TO.C,R14*%
X108170000Y-111985000D03*
X106170000Y-111985000D03*
%TD*%
D15*
%TO.C,C16*%
X74870000Y-125747500D03*
X74870000Y-127822500D03*
%TD*%
D16*
%TO.C,R12*%
X91670000Y-109185000D03*
X93670000Y-109185000D03*
%TD*%
D13*
%TO.C,C5*%
X78207500Y-120135000D03*
X76132500Y-120135000D03*
%TD*%
D16*
%TO.C,R4*%
X110070000Y-120285000D03*
X112070000Y-120285000D03*
%TD*%
D10*
%TO.C,R8*%
X66370000Y-117485000D03*
X64370000Y-117485000D03*
%TD*%
D11*
%TO.C,C12*%
X102082500Y-123185000D03*
X104157500Y-123185000D03*
%TD*%
D10*
%TO.C,R11*%
X84470000Y-109185000D03*
X82470000Y-109185000D03*
%TD*%
D11*
%TO.C,C9*%
X70315000Y-119785000D03*
X72390000Y-119785000D03*
%TD*%
D10*
%TO.C,R5*%
X70370000Y-114985000D03*
X68370000Y-114985000D03*
%TD*%
D16*
%TO.C,R3*%
X106070000Y-120285000D03*
X108070000Y-120285000D03*
%TD*%
D17*
%TO.C,L1*%
X81332500Y-122485000D03*
X78007500Y-122485000D03*
%TD*%
D11*
%TO.C,C3*%
X80132500Y-120135000D03*
X82207500Y-120135000D03*
%TD*%
D12*
%TO.C,C10*%
X74220000Y-123922500D03*
X74220000Y-121847500D03*
%TD*%
D13*
%TO.C,C15*%
X104157500Y-127985000D03*
X102082500Y-127985000D03*
%TD*%
D16*
%TO.C,R10*%
X110070000Y-117985000D03*
X112070000Y-117985000D03*
%TD*%
D11*
%TO.C,C8*%
X98132500Y-127985000D03*
X100207500Y-127985000D03*
%TD*%
D16*
%TO.C,R9*%
X106070000Y-117985000D03*
X108070000Y-117985000D03*
%TD*%
D18*
%TO.C,D1*%
X97370000Y-83285000D03*
X102970000Y-83285000D03*
X97370000Y-81685000D03*
X102970000Y-81685000D03*
%TD*%
D19*
%TO.C,Y1*%
X77470000Y-127935000D03*
X80370000Y-127935000D03*
X80370000Y-125635000D03*
X77470000Y-125635000D03*
%TD*%
D13*
%TO.C,C4*%
X96207500Y-120135000D03*
X94132500Y-120135000D03*
%TD*%
D16*
%TO.C,R1*%
X94170000Y-125485000D03*
X96170000Y-125485000D03*
%TD*%
D12*
%TO.C,C13*%
X72170000Y-123922500D03*
X72170000Y-121847500D03*
%TD*%
D20*
%TO.C,L2*%
X95007500Y-122485000D03*
X98332500Y-122485000D03*
%TD*%
D10*
%TO.C,R2*%
X96170000Y-127985000D03*
X94170000Y-127985000D03*
%TD*%
D13*
%TO.C,C6*%
X100207500Y-120135000D03*
X98132500Y-120135000D03*
%TD*%
%TO.C,C14*%
X104157500Y-125485000D03*
X102082500Y-125485000D03*
%TD*%
D10*
%TO.C,R15*%
X108170000Y-114105000D03*
X106170000Y-114105000D03*
%TD*%
D21*
%TO.C,L_pcb1*%
X82770000Y-118235000D03*
X88170000Y-119185000D03*
X93570000Y-118235000D03*
%TD*%
D22*
%TO.C,U2*%
X89540000Y-123292500D03*
X88170000Y-123292500D03*
X86800000Y-123292500D03*
X89540000Y-124662500D03*
X88170000Y-124662500D03*
X86800000Y-124662500D03*
X89540000Y-126032500D03*
X88170000Y-126032500D03*
X86800000Y-126032500D03*
D23*
X90420000Y-121725000D03*
X89920000Y-121725000D03*
X89420000Y-121725000D03*
X88920000Y-121725000D03*
X88420000Y-121725000D03*
X87920000Y-121725000D03*
X87420000Y-121725000D03*
X86920000Y-121725000D03*
X86420000Y-121725000D03*
X85920000Y-121725000D03*
D24*
X85232500Y-122412500D03*
X85232500Y-122912500D03*
X85232500Y-123412500D03*
X85232500Y-123912500D03*
X85232500Y-124412500D03*
X85232500Y-124912500D03*
X85232500Y-125412500D03*
X85232500Y-125912500D03*
X85232500Y-126412500D03*
X85232500Y-126912500D03*
D23*
X85920000Y-127600000D03*
X86420000Y-127600000D03*
X86920000Y-127600000D03*
X87420000Y-127600000D03*
X87920000Y-127600000D03*
X88420000Y-127600000D03*
X88920000Y-127600000D03*
X89420000Y-127600000D03*
X89920000Y-127600000D03*
X90420000Y-127600000D03*
D24*
X91107500Y-126912500D03*
X91107500Y-126412500D03*
X91107500Y-125912500D03*
X91107500Y-125412500D03*
X91107500Y-124912500D03*
X91107500Y-124412500D03*
X91107500Y-123912500D03*
X91107500Y-123412500D03*
X91107500Y-122912500D03*
X91107500Y-122412500D03*
%TD*%
D10*
%TO.C,R7*%
X116370000Y-64985000D03*
X114370000Y-64985000D03*
%TD*%
D11*
%TO.C,C1*%
X134392500Y-68985000D03*
X136467500Y-68985000D03*
%TD*%
%TO.C,C2*%
X139872500Y-68985000D03*
X141947500Y-68985000D03*
%TD*%
D12*
%TO.C,C17*%
X132970000Y-77822500D03*
X132970000Y-75747500D03*
%TD*%
D10*
%TO.C,R6*%
X120370000Y-67485000D03*
X118370000Y-67485000D03*
%TD*%
D13*
%TO.C,C7*%
X150207500Y-75485000D03*
X148132500Y-75485000D03*
%TD*%
D10*
%TO.C,R13*%
X158170000Y-59885000D03*
X156170000Y-59885000D03*
%TD*%
D14*
%TO.C,Q2*%
X156220000Y-44422500D03*
X158120000Y-44422500D03*
X157170000Y-42547500D03*
%TD*%
D12*
%TO.C,C11*%
X122170000Y-78022500D03*
X122170000Y-75947500D03*
%TD*%
D14*
%TO.C,Q1*%
X156220000Y-40422500D03*
X158120000Y-40422500D03*
X157170000Y-38547500D03*
%TD*%
D10*
%TO.C,R14*%
X158170000Y-61985000D03*
X156170000Y-61985000D03*
%TD*%
D15*
%TO.C,C16*%
X124870000Y-75747500D03*
X124870000Y-77822500D03*
%TD*%
D16*
%TO.C,R12*%
X141670000Y-59185000D03*
X143670000Y-59185000D03*
%TD*%
D13*
%TO.C,C5*%
X128207500Y-70135000D03*
X126132500Y-70135000D03*
%TD*%
D16*
%TO.C,R4*%
X160070000Y-70285000D03*
X162070000Y-70285000D03*
%TD*%
D10*
%TO.C,R8*%
X116370000Y-67485000D03*
X114370000Y-67485000D03*
%TD*%
D11*
%TO.C,C12*%
X152082500Y-73185000D03*
X154157500Y-73185000D03*
%TD*%
D10*
%TO.C,R11*%
X134470000Y-59185000D03*
X132470000Y-59185000D03*
%TD*%
D11*
%TO.C,C9*%
X120315000Y-69785000D03*
X122390000Y-69785000D03*
%TD*%
D10*
%TO.C,R5*%
X120370000Y-64985000D03*
X118370000Y-64985000D03*
%TD*%
D16*
%TO.C,R3*%
X156070000Y-70285000D03*
X158070000Y-70285000D03*
%TD*%
D17*
%TO.C,L1*%
X131332500Y-72485000D03*
X128007500Y-72485000D03*
%TD*%
D11*
%TO.C,C3*%
X130132500Y-70135000D03*
X132207500Y-70135000D03*
%TD*%
D12*
%TO.C,C10*%
X124220000Y-73922500D03*
X124220000Y-71847500D03*
%TD*%
D13*
%TO.C,C15*%
X154157500Y-77985000D03*
X152082500Y-77985000D03*
%TD*%
D16*
%TO.C,R10*%
X160070000Y-67985000D03*
X162070000Y-67985000D03*
%TD*%
D11*
%TO.C,C8*%
X148132500Y-77985000D03*
X150207500Y-77985000D03*
%TD*%
D16*
%TO.C,R9*%
X156070000Y-67985000D03*
X158070000Y-67985000D03*
%TD*%
D18*
%TO.C,D1*%
X147370000Y-33285000D03*
X152970000Y-33285000D03*
X147370000Y-31685000D03*
X152970000Y-31685000D03*
%TD*%
D19*
%TO.C,Y1*%
X127470000Y-77935000D03*
X130370000Y-77935000D03*
X130370000Y-75635000D03*
X127470000Y-75635000D03*
%TD*%
D13*
%TO.C,C4*%
X146207500Y-70135000D03*
X144132500Y-70135000D03*
%TD*%
D16*
%TO.C,R1*%
X144170000Y-75485000D03*
X146170000Y-75485000D03*
%TD*%
D12*
%TO.C,C13*%
X122170000Y-73922500D03*
X122170000Y-71847500D03*
%TD*%
D20*
%TO.C,L2*%
X145007500Y-72485000D03*
X148332500Y-72485000D03*
%TD*%
D10*
%TO.C,R2*%
X146170000Y-77985000D03*
X144170000Y-77985000D03*
%TD*%
D13*
%TO.C,C6*%
X150207500Y-70135000D03*
X148132500Y-70135000D03*
%TD*%
%TO.C,C14*%
X154157500Y-75485000D03*
X152082500Y-75485000D03*
%TD*%
D10*
%TO.C,R15*%
X158170000Y-64105000D03*
X156170000Y-64105000D03*
%TD*%
D21*
%TO.C,L_pcb1*%
X132770000Y-68235000D03*
X138170000Y-69185000D03*
X143570000Y-68235000D03*
%TD*%
D22*
%TO.C,U2*%
X139540000Y-73292500D03*
X138170000Y-73292500D03*
X136800000Y-73292500D03*
X139540000Y-74662500D03*
X138170000Y-74662500D03*
X136800000Y-74662500D03*
X139540000Y-76032500D03*
X138170000Y-76032500D03*
X136800000Y-76032500D03*
D23*
X140420000Y-71725000D03*
X139920000Y-71725000D03*
X139420000Y-71725000D03*
X138920000Y-71725000D03*
X138420000Y-71725000D03*
X137920000Y-71725000D03*
X137420000Y-71725000D03*
X136920000Y-71725000D03*
X136420000Y-71725000D03*
X135920000Y-71725000D03*
D24*
X135232500Y-72412500D03*
X135232500Y-72912500D03*
X135232500Y-73412500D03*
X135232500Y-73912500D03*
X135232500Y-74412500D03*
X135232500Y-74912500D03*
X135232500Y-75412500D03*
X135232500Y-75912500D03*
X135232500Y-76412500D03*
X135232500Y-76912500D03*
D23*
X135920000Y-77600000D03*
X136420000Y-77600000D03*
X136920000Y-77600000D03*
X137420000Y-77600000D03*
X137920000Y-77600000D03*
X138420000Y-77600000D03*
X138920000Y-77600000D03*
X139420000Y-77600000D03*
X139920000Y-77600000D03*
X140420000Y-77600000D03*
D24*
X141107500Y-76912500D03*
X141107500Y-76412500D03*
X141107500Y-75912500D03*
X141107500Y-75412500D03*
X141107500Y-74912500D03*
X141107500Y-74412500D03*
X141107500Y-73912500D03*
X141107500Y-73412500D03*
X141107500Y-72912500D03*
X141107500Y-72412500D03*
%TD*%
D10*
%TO.C,R7*%
X66370000Y-64985000D03*
X64370000Y-64985000D03*
%TD*%
D13*
%TO.C,C5*%
X78207500Y-70135000D03*
X76132500Y-70135000D03*
%TD*%
D10*
%TO.C,R2*%
X96170000Y-77985000D03*
X94170000Y-77985000D03*
%TD*%
%TO.C,R8*%
X66370000Y-67485000D03*
X64370000Y-67485000D03*
%TD*%
D16*
%TO.C,R4*%
X110070000Y-70285000D03*
X112070000Y-70285000D03*
%TD*%
D10*
%TO.C,R11*%
X84470000Y-59185000D03*
X82470000Y-59185000D03*
%TD*%
D19*
%TO.C,Y1*%
X77470000Y-77935000D03*
X80370000Y-77935000D03*
X80370000Y-75635000D03*
X77470000Y-75635000D03*
%TD*%
D11*
%TO.C,C1*%
X84392500Y-68985000D03*
X86467500Y-68985000D03*
%TD*%
%TO.C,C2*%
X89872500Y-68985000D03*
X91947500Y-68985000D03*
%TD*%
D13*
%TO.C,C4*%
X96207500Y-70135000D03*
X94132500Y-70135000D03*
%TD*%
D10*
%TO.C,R6*%
X70370000Y-67485000D03*
X68370000Y-67485000D03*
%TD*%
D18*
%TO.C,D1*%
X97370000Y-33285000D03*
X102970000Y-33285000D03*
X97370000Y-31685000D03*
X102970000Y-31685000D03*
%TD*%
D12*
%TO.C,C13*%
X72170000Y-73922500D03*
X72170000Y-71847500D03*
%TD*%
D21*
%TO.C,L_pcb1*%
X82770000Y-68235000D03*
X88170000Y-69185000D03*
X93570000Y-68235000D03*
%TD*%
D11*
%TO.C,C12*%
X102082500Y-73185000D03*
X104157500Y-73185000D03*
%TD*%
D10*
%TO.C,R13*%
X108170000Y-59885000D03*
X106170000Y-59885000D03*
%TD*%
D16*
%TO.C,R9*%
X106070000Y-67985000D03*
X108070000Y-67985000D03*
%TD*%
D17*
%TO.C,L1*%
X81332500Y-72485000D03*
X78007500Y-72485000D03*
%TD*%
D22*
%TO.C,U2*%
X89540000Y-73292500D03*
X88170000Y-73292500D03*
X86800000Y-73292500D03*
X89540000Y-74662500D03*
X88170000Y-74662500D03*
X86800000Y-74662500D03*
X89540000Y-76032500D03*
X88170000Y-76032500D03*
X86800000Y-76032500D03*
D23*
X90420000Y-71725000D03*
X89920000Y-71725000D03*
X89420000Y-71725000D03*
X88920000Y-71725000D03*
X88420000Y-71725000D03*
X87920000Y-71725000D03*
X87420000Y-71725000D03*
X86920000Y-71725000D03*
X86420000Y-71725000D03*
X85920000Y-71725000D03*
D24*
X85232500Y-72412500D03*
X85232500Y-72912500D03*
X85232500Y-73412500D03*
X85232500Y-73912500D03*
X85232500Y-74412500D03*
X85232500Y-74912500D03*
X85232500Y-75412500D03*
X85232500Y-75912500D03*
X85232500Y-76412500D03*
X85232500Y-76912500D03*
D23*
X85920000Y-77600000D03*
X86420000Y-77600000D03*
X86920000Y-77600000D03*
X87420000Y-77600000D03*
X87920000Y-77600000D03*
X88420000Y-77600000D03*
X88920000Y-77600000D03*
X89420000Y-77600000D03*
X89920000Y-77600000D03*
X90420000Y-77600000D03*
D24*
X91107500Y-76912500D03*
X91107500Y-76412500D03*
X91107500Y-75912500D03*
X91107500Y-75412500D03*
X91107500Y-74912500D03*
X91107500Y-74412500D03*
X91107500Y-73912500D03*
X91107500Y-73412500D03*
X91107500Y-72912500D03*
X91107500Y-72412500D03*
%TD*%
D12*
%TO.C,C17*%
X82970000Y-77822500D03*
X82970000Y-75747500D03*
%TD*%
D13*
%TO.C,C6*%
X100207500Y-70135000D03*
X98132500Y-70135000D03*
%TD*%
%TO.C,C14*%
X104157500Y-75485000D03*
X102082500Y-75485000D03*
%TD*%
D15*
%TO.C,C16*%
X74870000Y-75747500D03*
X74870000Y-77822500D03*
%TD*%
D11*
%TO.C,C3*%
X80132500Y-70135000D03*
X82207500Y-70135000D03*
%TD*%
D10*
%TO.C,R15*%
X108170000Y-64105000D03*
X106170000Y-64105000D03*
%TD*%
D11*
%TO.C,C9*%
X70315000Y-69785000D03*
X72390000Y-69785000D03*
%TD*%
D20*
%TO.C,L2*%
X95007500Y-72485000D03*
X98332500Y-72485000D03*
%TD*%
D16*
%TO.C,R10*%
X110070000Y-67985000D03*
X112070000Y-67985000D03*
%TD*%
D11*
%TO.C,C8*%
X98132500Y-77985000D03*
X100207500Y-77985000D03*
%TD*%
D10*
%TO.C,R5*%
X70370000Y-64985000D03*
X68370000Y-64985000D03*
%TD*%
D13*
%TO.C,C7*%
X100207500Y-75485000D03*
X98132500Y-75485000D03*
%TD*%
D12*
%TO.C,C10*%
X74220000Y-73922500D03*
X74220000Y-71847500D03*
%TD*%
D16*
%TO.C,R1*%
X94170000Y-75485000D03*
X96170000Y-75485000D03*
%TD*%
D14*
%TO.C,Q1*%
X106220000Y-40422500D03*
X108120000Y-40422500D03*
X107170000Y-38547500D03*
%TD*%
D12*
%TO.C,C11*%
X72170000Y-78022500D03*
X72170000Y-75947500D03*
%TD*%
D14*
%TO.C,Q2*%
X106220000Y-44422500D03*
X108120000Y-44422500D03*
X107170000Y-42547500D03*
%TD*%
D10*
%TO.C,R14*%
X108170000Y-61985000D03*
X106170000Y-61985000D03*
%TD*%
D16*
%TO.C,R12*%
X91670000Y-59185000D03*
X93670000Y-59185000D03*
%TD*%
%TO.C,R3*%
X106070000Y-70285000D03*
X108070000Y-70285000D03*
%TD*%
D13*
%TO.C,C15*%
X104157500Y-77985000D03*
X102082500Y-77985000D03*
%TD*%
M02*
