M48
; DRILL file {KiCad 7.0.11+dfsg-1build4} date jue 29 ene 2026 22:43:35
; FORMAT={-:-/ absolute / metric / decimal}
; #@! TF.CreationDate,2026-01-29T22:43:35-05:00
; #@! TF.GenerationSoftware,Kicad,Pcbnew,7.0.11+dfsg-1build4
; #@! TF.FileFunction,NonPlated,1,2,NPTH
FMAT,2
METRIC
; #@! TA.AperFunction,NonPlated,NPTH,ComponentDrill
T1C1.500
; #@! TA.AperFunction,NonPlated,NPTH,ComponentDrill
T2C3.000
; #@! TA.AperFunction,NonPlated,NPTH,ComponentDrill
T3C5.000
%
G90
G05
T1
X110.995Y-63.13
X110.995Y-113.13
X160.995Y-63.13
X160.995Y-113.13
T2
X84.95Y-49.36
X84.95Y-91.36
X84.95Y-99.36
X84.95Y-141.36
X126.95Y-49.36
X126.95Y-91.36
X126.95Y-99.36
X126.95Y-141.36
X134.95Y-49.36
X134.95Y-91.36
X134.95Y-99.36
X134.95Y-141.36
X176.95Y-49.36
X176.95Y-91.36
X176.95Y-99.36
X176.95Y-141.36
T3
X105.95Y-70.36
X105.95Y-120.36
X155.95Y-70.36
X155.95Y-120.36
M30
