M48
; DRILL file {KiCad 7.0.11+dfsg-1build4} date jue 29 ene 2026 22:43:35
; FORMAT={-:-/ absolute / metric / decimal}
; #@! TF.CreationDate,2026-01-29T22:43:35-05:00
; #@! TF.GenerationSoftware,Kicad,Pcbnew,7.0.11+dfsg-1build4
; #@! TF.FileFunction,Plated,1,2,PTH
FMAT,2
METRIC
; #@! TA.AperFunction,Plated,PTH,ViaDrill
T1C0.300
; #@! TA.AperFunction,Plated,PTH,ComponentDrill
T2C0.300
; #@! TA.AperFunction,Plated,PTH,ComponentDrill
T3C0.800
; #@! TA.AperFunction,Plated,PTH,ComponentDrill
T4C1.000
%
G90
G05
T1
X82.55Y-85.06
X82.55Y-135.06
X85.09Y-81.885
X85.09Y-131.885
X86.475Y-82.088
X86.475Y-132.088
X89.535Y-86.33
X89.535Y-136.33
X90.703Y-84.346
X90.703Y-134.346
X90.805Y-94.56
X90.805Y-144.56
X93.345Y-93.315
X93.345Y-143.315
X94.615Y-89.973
X94.615Y-139.973
X97.87Y-88.703
X97.87Y-138.703
X100.33Y-73.63
X100.33Y-123.63
X100.799Y-88.235
X100.799Y-138.235
X101.6Y-88.235
X101.6Y-92.68
X101.6Y-138.235
X101.6Y-142.68
X101.63Y-90.274
X101.63Y-140.274
X102.87Y-76.17
X102.87Y-126.17
X104.775Y-94.56
X104.775Y-144.56
X105.57Y-86.17
X105.57Y-136.17
X106.675Y-86.325
X106.675Y-136.325
X109.22Y-73.63
X109.22Y-123.63
X109.853Y-88.787
X109.853Y-138.787
X110.003Y-93.474
X110.003Y-143.474
X110.033Y-90.775
X110.033Y-140.775
X110.654Y-87.365
X110.654Y-137.365
X110.85Y-93.924
X110.85Y-143.924
X111.135Y-89.613
X111.135Y-139.613
X111.779Y-92.633
X111.779Y-142.633
X112.887Y-90.251
X112.887Y-140.251
X113.03Y-74.9
X113.03Y-124.9
X117.225Y-87.796
X117.225Y-137.796
X119.638Y-87.626
X119.638Y-137.626
X120.921Y-46.16
X120.921Y-96.16
X121.82Y-87.71
X121.82Y-137.71
X121.92Y-67.28
X121.92Y-94.56
X121.92Y-117.28
X121.92Y-144.56
X122.25Y-85.015
X122.25Y-135.015
X122.52Y-75.535
X122.52Y-125.535
X123.19Y-62.2
X123.19Y-64.74
X123.19Y-92.045
X123.19Y-112.2
X123.19Y-114.74
X123.19Y-142.045
X123.304Y-89.021
X123.304Y-139.021
X123.668Y-81.927
X123.668Y-131.927
X123.825Y-52.642
X123.825Y-72.995
X123.825Y-102.641
X123.825Y-122.995
X123.897Y-70.527
X123.897Y-120.527
X124.129Y-88.628
X124.129Y-138.628
X124.928Y-85.065
X124.928Y-135.065
X125.73Y-71.09
X125.73Y-121.09
X126.27Y-72.442
X126.27Y-122.442
X126.365Y-62.2
X126.365Y-112.2
X126.744Y-56.271
X126.744Y-106.271
X127.015Y-71.401
X127.015Y-121.401
X129.008Y-81.927
X129.008Y-131.927
X129.043Y-85.065
X129.043Y-135.065
X132.55Y-85.06
X132.55Y-135.06
X135.09Y-81.885
X135.09Y-131.885
X136.475Y-82.088
X136.475Y-132.088
X139.535Y-86.33
X139.535Y-136.33
X140.703Y-84.346
X140.703Y-134.346
X140.805Y-94.56
X140.805Y-144.56
X143.345Y-93.315
X143.345Y-143.315
X144.615Y-89.973
X144.615Y-139.973
X147.87Y-88.703
X147.87Y-138.703
X150.33Y-73.63
X150.33Y-123.63
X150.799Y-88.235
X150.799Y-138.235
X151.6Y-88.235
X151.6Y-92.68
X151.6Y-138.235
X151.6Y-142.68
X151.63Y-90.274
X151.63Y-140.274
X152.87Y-76.17
X152.87Y-126.17
X154.775Y-94.56
X154.775Y-144.56
X155.57Y-86.17
X155.57Y-136.17
X156.675Y-86.325
X156.675Y-136.325
X159.22Y-73.63
X159.22Y-123.63
X159.853Y-88.787
X159.853Y-138.787
X160.003Y-93.474
X160.003Y-143.474
X160.033Y-90.775
X160.033Y-140.775
X160.654Y-87.365
X160.654Y-137.365
X160.85Y-93.924
X160.85Y-143.924
X161.135Y-89.613
X161.135Y-139.613
X161.779Y-92.633
X161.779Y-142.633
X162.887Y-90.251
X162.887Y-140.251
X163.03Y-74.9
X163.03Y-124.9
X167.225Y-87.796
X167.225Y-137.796
X169.638Y-87.626
X169.638Y-137.626
X170.921Y-46.16
X170.921Y-96.16
X171.82Y-87.71
X171.82Y-137.71
X171.92Y-67.28
X171.92Y-94.56
X171.92Y-117.28
X171.92Y-144.56
X172.25Y-85.015
X172.25Y-135.015
X172.52Y-75.535
X172.52Y-125.535
X173.19Y-62.2
X173.19Y-64.74
X173.19Y-92.045
X173.19Y-112.2
X173.19Y-114.74
X173.19Y-142.045
X173.304Y-89.021
X173.304Y-139.021
X173.668Y-81.927
X173.668Y-131.927
X173.825Y-52.642
X173.825Y-72.995
X173.825Y-102.641
X173.825Y-122.995
X173.897Y-70.527
X173.897Y-120.527
X174.129Y-88.628
X174.129Y-138.628
X174.928Y-85.065
X174.928Y-135.065
X175.73Y-71.09
X175.73Y-121.09
X176.27Y-72.442
X176.27Y-122.442
X176.365Y-62.2
X176.365Y-112.2
X176.744Y-56.271
X176.744Y-106.271
X177.015Y-71.401
X177.015Y-121.401
X179.008Y-81.927
X179.008Y-131.927
X179.043Y-85.065
X179.043Y-135.065
T2
X105.95Y-56.61
X105.95Y-81.11
X105.95Y-84.11
X105.95Y-106.61
X105.95Y-131.11
X105.95Y-134.11
X110.45Y-61.61
X110.45Y-111.61
X155.95Y-56.61
X155.95Y-81.11
X155.95Y-84.11
X155.95Y-106.61
X155.95Y-131.11
X155.95Y-134.11
X160.45Y-61.61
X160.45Y-111.61
T3
X101.22Y-69.06
X101.22Y-71.6
X101.22Y-119.06
X101.22Y-121.6
X110.67Y-69.06
X110.67Y-71.6
X110.67Y-119.06
X110.67Y-121.6
X151.22Y-69.06
X151.22Y-71.6
X151.22Y-119.06
X151.22Y-121.6
X160.67Y-69.06
X160.67Y-71.6
X160.67Y-119.06
X160.67Y-121.6
T4
X128.85Y-56.36
X128.85Y-58.9
X128.85Y-61.44
X128.85Y-63.98
X128.85Y-66.52
X128.85Y-69.06
X128.85Y-71.6
X128.85Y-74.14
X128.85Y-76.68
X128.85Y-79.22
X128.85Y-106.36
X128.85Y-108.9
X128.85Y-111.44
X128.85Y-113.98
X128.85Y-116.52
X128.85Y-119.06
X128.85Y-121.6
X128.85Y-124.14
X128.85Y-126.68
X128.85Y-129.22
X178.85Y-56.36
X178.85Y-58.9
X178.85Y-61.44
X178.85Y-63.98
X178.85Y-66.52
X178.85Y-69.06
X178.85Y-71.6
X178.85Y-74.14
X178.85Y-76.68
X178.85Y-79.22
X178.85Y-106.36
X178.85Y-108.9
X178.85Y-111.44
X178.85Y-113.98
X178.85Y-116.52
X178.85Y-119.06
X178.85Y-121.6
X178.85Y-124.14
X178.85Y-126.68
X178.85Y-129.22
M30
