M48
; DRILL file {KiCad 7.0.11+dfsg-1build4} date jue 29 ene 2026 22:33:13
; FORMAT={-:-/ absolute / metric / decimal}
; #@! TF.CreationDate,2026-01-29T22:33:13-05:00
; #@! TF.GenerationSoftware,Kicad,Pcbnew,7.0.11+dfsg-1build4
; #@! TF.FileFunction,Plated,1,2,PTH
FMAT,2
METRIC
; #@! TA.AperFunction,Plated,PTH,ViaDrill
T1C0.300
; #@! TA.AperFunction,Plated,PTH,ComponentDrill
T2C0.300
; #@! TA.AperFunction,Plated,PTH,ComponentDrill
T3C0.800
; #@! TA.AperFunction,Plated,PTH,ComponentDrill
T4C1.000
%
G90
G05
T1
X64.77Y-69.185
X64.77Y-119.185
X67.31Y-66.01
X67.31Y-116.01
X68.695Y-66.213
X68.695Y-116.213
X71.755Y-70.455
X71.755Y-120.455
X72.923Y-68.471
X72.923Y-118.471
X73.025Y-78.685
X73.025Y-128.685
X75.565Y-77.44
X75.565Y-127.44
X76.835Y-74.098
X76.835Y-124.098
X80.09Y-72.828
X80.09Y-122.828
X82.55Y-57.755
X82.55Y-107.755
X83.019Y-72.36
X83.019Y-122.36
X83.82Y-72.36
X83.82Y-76.805
X83.82Y-122.36
X83.82Y-126.805
X83.85Y-74.399
X83.85Y-124.399
X85.09Y-60.295
X85.09Y-110.295
X86.995Y-78.685
X86.995Y-128.685
X87.79Y-70.295
X87.79Y-120.295
X88.895Y-70.45
X88.895Y-120.45
X91.44Y-57.755
X91.44Y-107.755
X92.073Y-72.912
X92.073Y-122.912
X92.223Y-77.599
X92.223Y-127.599
X92.253Y-74.9
X92.253Y-124.9
X92.874Y-71.49
X92.874Y-121.49
X93.07Y-78.049
X93.07Y-128.049
X93.355Y-73.738
X93.355Y-123.738
X93.999Y-76.758
X93.999Y-126.758
X95.107Y-74.376
X95.107Y-124.376
X95.25Y-59.025
X95.25Y-109.025
X99.445Y-71.921
X99.445Y-121.921
X101.858Y-71.751
X101.858Y-121.751
X103.141Y-30.285
X103.141Y-80.285
X104.04Y-71.835
X104.04Y-121.835
X104.14Y-51.405
X104.14Y-78.685
X104.14Y-101.405
X104.14Y-128.685
X104.47Y-69.14
X104.47Y-119.14
X104.74Y-59.66
X104.74Y-109.66
X105.41Y-46.325
X105.41Y-48.865
X105.41Y-76.17
X105.41Y-96.325
X105.41Y-98.865
X105.41Y-126.17
X105.524Y-73.146
X105.524Y-123.146
X105.888Y-66.052
X105.888Y-116.052
X106.045Y-36.767
X106.045Y-57.12
X106.045Y-86.766
X106.045Y-107.12
X106.117Y-54.652
X106.117Y-104.652
X106.349Y-72.753
X106.349Y-122.753
X107.148Y-69.19
X107.148Y-119.19
X107.95Y-55.215
X107.95Y-105.215
X108.49Y-56.567
X108.49Y-106.567
X108.585Y-46.325
X108.585Y-96.325
X108.964Y-40.396
X108.964Y-90.396
X109.235Y-55.526
X109.235Y-105.526
X111.228Y-66.052
X111.228Y-116.052
X111.263Y-69.19
X111.263Y-119.19
X114.77Y-69.185
X114.77Y-119.185
X117.31Y-66.01
X117.31Y-116.01
X118.695Y-66.213
X118.695Y-116.213
X121.755Y-70.455
X121.755Y-120.455
X122.923Y-68.471
X122.923Y-118.471
X123.025Y-78.685
X123.025Y-128.685
X125.565Y-77.44
X125.565Y-127.44
X126.835Y-74.098
X126.835Y-124.098
X130.09Y-72.828
X130.09Y-122.828
X132.55Y-57.755
X132.55Y-107.755
X133.019Y-72.36
X133.019Y-122.36
X133.82Y-72.36
X133.82Y-76.805
X133.82Y-122.36
X133.82Y-126.805
X133.85Y-74.399
X133.85Y-124.399
X135.09Y-60.295
X135.09Y-110.295
X136.995Y-78.685
X136.995Y-128.685
X137.79Y-70.295
X137.79Y-120.295
X138.895Y-70.45
X138.895Y-120.45
X141.44Y-57.755
X141.44Y-107.755
X142.073Y-72.912
X142.073Y-122.912
X142.223Y-77.599
X142.223Y-127.599
X142.253Y-74.9
X142.253Y-124.9
X142.874Y-71.49
X142.874Y-121.49
X143.07Y-78.049
X143.07Y-128.049
X143.355Y-73.738
X143.355Y-123.738
X143.999Y-76.758
X143.999Y-126.758
X145.107Y-74.376
X145.107Y-124.376
X145.25Y-59.025
X145.25Y-109.025
X149.445Y-71.921
X149.445Y-121.921
X151.858Y-71.751
X151.858Y-121.751
X153.141Y-30.285
X153.141Y-80.285
X154.04Y-71.835
X154.04Y-121.835
X154.14Y-51.405
X154.14Y-78.685
X154.14Y-101.405
X154.14Y-128.685
X154.47Y-69.14
X154.47Y-119.14
X154.74Y-59.66
X154.74Y-109.66
X155.41Y-46.325
X155.41Y-48.865
X155.41Y-76.17
X155.41Y-96.325
X155.41Y-98.865
X155.41Y-126.17
X155.524Y-73.146
X155.524Y-123.146
X155.888Y-66.052
X155.888Y-116.052
X156.045Y-36.767
X156.045Y-57.12
X156.045Y-86.766
X156.045Y-107.12
X156.117Y-54.652
X156.117Y-104.652
X156.349Y-72.753
X156.349Y-122.753
X157.148Y-69.19
X157.148Y-119.19
X157.95Y-55.215
X157.95Y-105.215
X158.49Y-56.567
X158.49Y-106.567
X158.585Y-46.325
X158.585Y-96.325
X158.964Y-40.396
X158.964Y-90.396
X159.235Y-55.526
X159.235Y-105.526
X161.228Y-66.052
X161.228Y-116.052
X161.263Y-69.19
X161.263Y-119.19
T2
X88.17Y-40.735
X88.17Y-65.235
X88.17Y-68.235
X88.17Y-90.735
X88.17Y-115.235
X88.17Y-118.235
X92.67Y-45.735
X92.67Y-95.735
X138.17Y-40.735
X138.17Y-65.235
X138.17Y-68.235
X138.17Y-90.735
X138.17Y-115.235
X138.17Y-118.235
X142.67Y-45.735
X142.67Y-95.735
T3
X83.44Y-53.185
X83.44Y-55.725
X83.44Y-103.185
X83.44Y-105.725
X92.89Y-53.185
X92.89Y-55.725
X92.89Y-103.185
X92.89Y-105.725
X133.44Y-53.185
X133.44Y-55.725
X133.44Y-103.185
X133.44Y-105.725
X142.89Y-53.185
X142.89Y-55.725
X142.89Y-103.185
X142.89Y-105.725
T4
X111.07Y-40.485
X111.07Y-43.025
X111.07Y-45.565
X111.07Y-48.105
X111.07Y-50.645
X111.07Y-53.185
X111.07Y-55.725
X111.07Y-58.265
X111.07Y-60.805
X111.07Y-63.345
X111.07Y-90.485
X111.07Y-93.025
X111.07Y-95.565
X111.07Y-98.105
X111.07Y-100.645
X111.07Y-103.185
X111.07Y-105.725
X111.07Y-108.265
X111.07Y-110.805
X111.07Y-113.345
X161.07Y-40.485
X161.07Y-43.025
X161.07Y-45.565
X161.07Y-48.105
X161.07Y-50.645
X161.07Y-53.185
X161.07Y-55.725
X161.07Y-58.265
X161.07Y-60.805
X161.07Y-63.345
X161.07Y-90.485
X161.07Y-93.025
X161.07Y-95.565
X161.07Y-98.105
X161.07Y-100.645
X161.07Y-103.185
X161.07Y-105.725
X161.07Y-108.265
X161.07Y-110.805
X161.07Y-113.345
M30
